%TF.GenerationSoftware,KiCad,Pcbnew,9.0.7*%
%TF.CreationDate,2026-03-25T15:14:33-04:00*%
%TF.ProjectId,AMSAT_SDR,414d5341-545f-4534-9452-2e6b69636164,WA1CYB-revB*%
%TF.SameCoordinates,Original*%
%TF.FileFunction,Paste,Bot*%
%TF.FilePolarity,Positive*%
%FSLAX46Y46*%
G04 Gerber Fmt 4.6, Leading zero omitted, Abs format (unit mm)*
G04 Created by KiCad (PCBNEW 9.0.7) date 2026-03-25 15:14:33*
%MOMM*%
%LPD*%
G01*
G04 APERTURE LIST*
G04 Aperture macros list*
%AMRoundRect*
0 Rectangle with rounded corners*
0 $1 Rounding radius*
0 $2 $3 $4 $5 $6 $7 $8 $9 X,Y pos of 4 corners*
0 Add a 4 corners polygon primitive as box body*
4,1,4,$2,$3,$4,$5,$6,$7,$8,$9,$2,$3,0*
0 Add four circle primitives for the rounded corners*
1,1,$1+$1,$2,$3*
1,1,$1+$1,$4,$5*
1,1,$1+$1,$6,$7*
1,1,$1+$1,$8,$9*
0 Add four rect primitives between the rounded corners*
20,1,$1+$1,$2,$3,$4,$5,0*
20,1,$1+$1,$4,$5,$6,$7,0*
20,1,$1+$1,$6,$7,$8,$9,0*
20,1,$1+$1,$8,$9,$2,$3,0*%
G04 Aperture macros list end*
%ADD10C,0.100000*%
%ADD11C,0.150000*%
%ADD12C,0.300000*%
%ADD13C,0.400000*%
%ADD14RoundRect,0.079500X-0.100500X0.079500X-0.100500X-0.079500X0.100500X-0.079500X0.100500X0.079500X0*%
%ADD15RoundRect,0.079500X0.079500X0.100500X-0.079500X0.100500X-0.079500X-0.100500X0.079500X-0.100500X0*%
%ADD16RoundRect,0.079500X0.100500X-0.079500X0.100500X0.079500X-0.100500X0.079500X-0.100500X-0.079500X0*%
%ADD17RoundRect,0.079500X-0.079500X-0.100500X0.079500X-0.100500X0.079500X0.100500X-0.079500X0.100500X0*%
%ADD18RoundRect,0.079500X-0.127279X-0.014849X-0.014849X-0.127279X0.127279X0.014849X0.014849X0.127279X0*%
%ADD19RoundRect,0.212500X0.212500X-0.212500X0.212500X0.212500X-0.212500X0.212500X-0.212500X-0.212500X0*%
%ADD20RoundRect,0.075000X0.075000X-0.350000X0.075000X0.350000X-0.075000X0.350000X-0.075000X-0.350000X0*%
%ADD21RoundRect,0.075000X0.350000X-0.075000X0.350000X0.075000X-0.350000X0.075000X-0.350000X-0.075000X0*%
%ADD22RoundRect,0.140000X0.140000X0.170000X-0.140000X0.170000X-0.140000X-0.170000X0.140000X-0.170000X0*%
%ADD23RoundRect,0.140000X0.170000X-0.140000X0.170000X0.140000X-0.170000X0.140000X-0.170000X-0.140000X0*%
%ADD24RoundRect,0.140000X-0.170000X0.140000X-0.170000X-0.140000X0.170000X-0.140000X0.170000X0.140000X0*%
%ADD25RoundRect,0.250000X0.650000X-0.325000X0.650000X0.325000X-0.650000X0.325000X-0.650000X-0.325000X0*%
%ADD26RoundRect,0.250000X-0.262500X-0.450000X0.262500X-0.450000X0.262500X0.450000X-0.262500X0.450000X0*%
%ADD27RoundRect,0.079500X0.014849X-0.127279X0.127279X-0.014849X-0.014849X0.127279X-0.127279X0.014849X0*%
%ADD28RoundRect,0.140000X-0.140000X-0.170000X0.140000X-0.170000X0.140000X0.170000X-0.140000X0.170000X0*%
%ADD29RoundRect,0.079500X-0.014849X0.127279X-0.127279X0.014849X0.014849X-0.127279X0.127279X-0.014849X0*%
%ADD30RoundRect,0.250000X-0.650000X0.325000X-0.650000X-0.325000X0.650000X-0.325000X0.650000X0.325000X0*%
%ADD31RoundRect,0.250000X0.325000X0.650000X-0.325000X0.650000X-0.325000X-0.650000X0.325000X-0.650000X0*%
%ADD32RoundRect,0.079500X0.127279X0.014849X0.014849X0.127279X-0.127279X-0.014849X-0.014849X-0.127279X0*%
%ADD33RoundRect,0.140000X0.219203X0.021213X0.021213X0.219203X-0.219203X-0.021213X-0.021213X-0.219203X0*%
%ADD34RoundRect,0.140000X0.021213X-0.219203X0.219203X-0.021213X-0.021213X0.219203X-0.219203X0.021213X0*%
%TA.AperFunction,Profile*%
%ADD35C,0.050000*%
%TD*%
G04 APERTURE END LIST*
D10*
D11*
X177002200Y-166007200D02*
X285002200Y-166007200D01*
X285002200Y-198007200D01*
X177002200Y-198007200D01*
X177002200Y-166007200D01*
D10*
D11*
X10000000Y-10000000D02*
X287002200Y-10000000D01*
X287002200Y-200007200D01*
X10000000Y-200007200D01*
X10000000Y-10000000D01*
D10*
D11*
X12000000Y-12000000D02*
X285002200Y-12000000D01*
X285002200Y-198007200D01*
X12000000Y-198007200D01*
X12000000Y-12000000D01*
D10*
D11*
X60000000Y-12000000D02*
X60000000Y-10000000D01*
D10*
D11*
X110000000Y-12000000D02*
X110000000Y-10000000D01*
D10*
D11*
X160000000Y-12000000D02*
X160000000Y-10000000D01*
D10*
D11*
X210000000Y-12000000D02*
X210000000Y-10000000D01*
D10*
D11*
X260000000Y-12000000D02*
X260000000Y-10000000D01*
D10*
D11*
X36089160Y-11593604D02*
X35346303Y-11593604D01*
X35717731Y-11593604D02*
X35717731Y-10293604D01*
X35717731Y-10293604D02*
X35593922Y-10479319D01*
X35593922Y-10479319D02*
X35470112Y-10603128D01*
X35470112Y-10603128D02*
X35346303Y-10665033D01*
D10*
D11*
X85346303Y-10417414D02*
X85408207Y-10355509D01*
X85408207Y-10355509D02*
X85532017Y-10293604D01*
X85532017Y-10293604D02*
X85841541Y-10293604D01*
X85841541Y-10293604D02*
X85965350Y-10355509D01*
X85965350Y-10355509D02*
X86027255Y-10417414D01*
X86027255Y-10417414D02*
X86089160Y-10541223D01*
X86089160Y-10541223D02*
X86089160Y-10665033D01*
X86089160Y-10665033D02*
X86027255Y-10850747D01*
X86027255Y-10850747D02*
X85284398Y-11593604D01*
X85284398Y-11593604D02*
X86089160Y-11593604D01*
D10*
D11*
X135284398Y-10293604D02*
X136089160Y-10293604D01*
X136089160Y-10293604D02*
X135655826Y-10788842D01*
X135655826Y-10788842D02*
X135841541Y-10788842D01*
X135841541Y-10788842D02*
X135965350Y-10850747D01*
X135965350Y-10850747D02*
X136027255Y-10912652D01*
X136027255Y-10912652D02*
X136089160Y-11036461D01*
X136089160Y-11036461D02*
X136089160Y-11345985D01*
X136089160Y-11345985D02*
X136027255Y-11469795D01*
X136027255Y-11469795D02*
X135965350Y-11531700D01*
X135965350Y-11531700D02*
X135841541Y-11593604D01*
X135841541Y-11593604D02*
X135470112Y-11593604D01*
X135470112Y-11593604D02*
X135346303Y-11531700D01*
X135346303Y-11531700D02*
X135284398Y-11469795D01*
D10*
D11*
X185965350Y-10726938D02*
X185965350Y-11593604D01*
X185655826Y-10231700D02*
X185346303Y-11160271D01*
X185346303Y-11160271D02*
X186151064Y-11160271D01*
D10*
D11*
X236027255Y-10293604D02*
X235408207Y-10293604D01*
X235408207Y-10293604D02*
X235346303Y-10912652D01*
X235346303Y-10912652D02*
X235408207Y-10850747D01*
X235408207Y-10850747D02*
X235532017Y-10788842D01*
X235532017Y-10788842D02*
X235841541Y-10788842D01*
X235841541Y-10788842D02*
X235965350Y-10850747D01*
X235965350Y-10850747D02*
X236027255Y-10912652D01*
X236027255Y-10912652D02*
X236089160Y-11036461D01*
X236089160Y-11036461D02*
X236089160Y-11345985D01*
X236089160Y-11345985D02*
X236027255Y-11469795D01*
X236027255Y-11469795D02*
X235965350Y-11531700D01*
X235965350Y-11531700D02*
X235841541Y-11593604D01*
X235841541Y-11593604D02*
X235532017Y-11593604D01*
X235532017Y-11593604D02*
X235408207Y-11531700D01*
X235408207Y-11531700D02*
X235346303Y-11469795D01*
D10*
D11*
X285965350Y-10293604D02*
X285717731Y-10293604D01*
X285717731Y-10293604D02*
X285593922Y-10355509D01*
X285593922Y-10355509D02*
X285532017Y-10417414D01*
X285532017Y-10417414D02*
X285408207Y-10603128D01*
X285408207Y-10603128D02*
X285346303Y-10850747D01*
X285346303Y-10850747D02*
X285346303Y-11345985D01*
X285346303Y-11345985D02*
X285408207Y-11469795D01*
X285408207Y-11469795D02*
X285470112Y-11531700D01*
X285470112Y-11531700D02*
X285593922Y-11593604D01*
X285593922Y-11593604D02*
X285841541Y-11593604D01*
X285841541Y-11593604D02*
X285965350Y-11531700D01*
X285965350Y-11531700D02*
X286027255Y-11469795D01*
X286027255Y-11469795D02*
X286089160Y-11345985D01*
X286089160Y-11345985D02*
X286089160Y-11036461D01*
X286089160Y-11036461D02*
X286027255Y-10912652D01*
X286027255Y-10912652D02*
X285965350Y-10850747D01*
X285965350Y-10850747D02*
X285841541Y-10788842D01*
X285841541Y-10788842D02*
X285593922Y-10788842D01*
X285593922Y-10788842D02*
X285470112Y-10850747D01*
X285470112Y-10850747D02*
X285408207Y-10912652D01*
X285408207Y-10912652D02*
X285346303Y-11036461D01*
D10*
D11*
X60000000Y-198007200D02*
X60000000Y-200007200D01*
D10*
D11*
X110000000Y-198007200D02*
X110000000Y-200007200D01*
D10*
D11*
X160000000Y-198007200D02*
X160000000Y-200007200D01*
D10*
D11*
X210000000Y-198007200D02*
X210000000Y-200007200D01*
D10*
D11*
X260000000Y-198007200D02*
X260000000Y-200007200D01*
D10*
D11*
X36089160Y-199600804D02*
X35346303Y-199600804D01*
X35717731Y-199600804D02*
X35717731Y-198300804D01*
X35717731Y-198300804D02*
X35593922Y-198486519D01*
X35593922Y-198486519D02*
X35470112Y-198610328D01*
X35470112Y-198610328D02*
X35346303Y-198672233D01*
D10*
D11*
X85346303Y-198424614D02*
X85408207Y-198362709D01*
X85408207Y-198362709D02*
X85532017Y-198300804D01*
X85532017Y-198300804D02*
X85841541Y-198300804D01*
X85841541Y-198300804D02*
X85965350Y-198362709D01*
X85965350Y-198362709D02*
X86027255Y-198424614D01*
X86027255Y-198424614D02*
X86089160Y-198548423D01*
X86089160Y-198548423D02*
X86089160Y-198672233D01*
X86089160Y-198672233D02*
X86027255Y-198857947D01*
X86027255Y-198857947D02*
X85284398Y-199600804D01*
X85284398Y-199600804D02*
X86089160Y-199600804D01*
D10*
D11*
X135284398Y-198300804D02*
X136089160Y-198300804D01*
X136089160Y-198300804D02*
X135655826Y-198796042D01*
X135655826Y-198796042D02*
X135841541Y-198796042D01*
X135841541Y-198796042D02*
X135965350Y-198857947D01*
X135965350Y-198857947D02*
X136027255Y-198919852D01*
X136027255Y-198919852D02*
X136089160Y-199043661D01*
X136089160Y-199043661D02*
X136089160Y-199353185D01*
X136089160Y-199353185D02*
X136027255Y-199476995D01*
X136027255Y-199476995D02*
X135965350Y-199538900D01*
X135965350Y-199538900D02*
X135841541Y-199600804D01*
X135841541Y-199600804D02*
X135470112Y-199600804D01*
X135470112Y-199600804D02*
X135346303Y-199538900D01*
X135346303Y-199538900D02*
X135284398Y-199476995D01*
D10*
D11*
X185965350Y-198734138D02*
X185965350Y-199600804D01*
X185655826Y-198238900D02*
X185346303Y-199167471D01*
X185346303Y-199167471D02*
X186151064Y-199167471D01*
D10*
D11*
X236027255Y-198300804D02*
X235408207Y-198300804D01*
X235408207Y-198300804D02*
X235346303Y-198919852D01*
X235346303Y-198919852D02*
X235408207Y-198857947D01*
X235408207Y-198857947D02*
X235532017Y-198796042D01*
X235532017Y-198796042D02*
X235841541Y-198796042D01*
X235841541Y-198796042D02*
X235965350Y-198857947D01*
X235965350Y-198857947D02*
X236027255Y-198919852D01*
X236027255Y-198919852D02*
X236089160Y-199043661D01*
X236089160Y-199043661D02*
X236089160Y-199353185D01*
X236089160Y-199353185D02*
X236027255Y-199476995D01*
X236027255Y-199476995D02*
X235965350Y-199538900D01*
X235965350Y-199538900D02*
X235841541Y-199600804D01*
X235841541Y-199600804D02*
X235532017Y-199600804D01*
X235532017Y-199600804D02*
X235408207Y-199538900D01*
X235408207Y-199538900D02*
X235346303Y-199476995D01*
D10*
D11*
X285965350Y-198300804D02*
X285717731Y-198300804D01*
X285717731Y-198300804D02*
X285593922Y-198362709D01*
X285593922Y-198362709D02*
X285532017Y-198424614D01*
X285532017Y-198424614D02*
X285408207Y-198610328D01*
X285408207Y-198610328D02*
X285346303Y-198857947D01*
X285346303Y-198857947D02*
X285346303Y-199353185D01*
X285346303Y-199353185D02*
X285408207Y-199476995D01*
X285408207Y-199476995D02*
X285470112Y-199538900D01*
X285470112Y-199538900D02*
X285593922Y-199600804D01*
X285593922Y-199600804D02*
X285841541Y-199600804D01*
X285841541Y-199600804D02*
X285965350Y-199538900D01*
X285965350Y-199538900D02*
X286027255Y-199476995D01*
X286027255Y-199476995D02*
X286089160Y-199353185D01*
X286089160Y-199353185D02*
X286089160Y-199043661D01*
X286089160Y-199043661D02*
X286027255Y-198919852D01*
X286027255Y-198919852D02*
X285965350Y-198857947D01*
X285965350Y-198857947D02*
X285841541Y-198796042D01*
X285841541Y-198796042D02*
X285593922Y-198796042D01*
X285593922Y-198796042D02*
X285470112Y-198857947D01*
X285470112Y-198857947D02*
X285408207Y-198919852D01*
X285408207Y-198919852D02*
X285346303Y-199043661D01*
D10*
D11*
X10000000Y-60000000D02*
X12000000Y-60000000D01*
D10*
D11*
X10000000Y-110000000D02*
X12000000Y-110000000D01*
D10*
D11*
X10000000Y-160000000D02*
X12000000Y-160000000D01*
D10*
D11*
X10690476Y-35222176D02*
X11309523Y-35222176D01*
X10566666Y-35593604D02*
X10999999Y-34293604D01*
X10999999Y-34293604D02*
X11433333Y-35593604D01*
D10*
D11*
X11092857Y-84912652D02*
X11278571Y-84974557D01*
X11278571Y-84974557D02*
X11340476Y-85036461D01*
X11340476Y-85036461D02*
X11402380Y-85160271D01*
X11402380Y-85160271D02*
X11402380Y-85345985D01*
X11402380Y-85345985D02*
X11340476Y-85469795D01*
X11340476Y-85469795D02*
X11278571Y-85531700D01*
X11278571Y-85531700D02*
X11154761Y-85593604D01*
X11154761Y-85593604D02*
X10659523Y-85593604D01*
X10659523Y-85593604D02*
X10659523Y-84293604D01*
X10659523Y-84293604D02*
X11092857Y-84293604D01*
X11092857Y-84293604D02*
X11216666Y-84355509D01*
X11216666Y-84355509D02*
X11278571Y-84417414D01*
X11278571Y-84417414D02*
X11340476Y-84541223D01*
X11340476Y-84541223D02*
X11340476Y-84665033D01*
X11340476Y-84665033D02*
X11278571Y-84788842D01*
X11278571Y-84788842D02*
X11216666Y-84850747D01*
X11216666Y-84850747D02*
X11092857Y-84912652D01*
X11092857Y-84912652D02*
X10659523Y-84912652D01*
D10*
D11*
X11402380Y-135469795D02*
X11340476Y-135531700D01*
X11340476Y-135531700D02*
X11154761Y-135593604D01*
X11154761Y-135593604D02*
X11030952Y-135593604D01*
X11030952Y-135593604D02*
X10845238Y-135531700D01*
X10845238Y-135531700D02*
X10721428Y-135407890D01*
X10721428Y-135407890D02*
X10659523Y-135284080D01*
X10659523Y-135284080D02*
X10597619Y-135036461D01*
X10597619Y-135036461D02*
X10597619Y-134850747D01*
X10597619Y-134850747D02*
X10659523Y-134603128D01*
X10659523Y-134603128D02*
X10721428Y-134479319D01*
X10721428Y-134479319D02*
X10845238Y-134355509D01*
X10845238Y-134355509D02*
X11030952Y-134293604D01*
X11030952Y-134293604D02*
X11154761Y-134293604D01*
X11154761Y-134293604D02*
X11340476Y-134355509D01*
X11340476Y-134355509D02*
X11402380Y-134417414D01*
D10*
D11*
X10659523Y-185593604D02*
X10659523Y-184293604D01*
X10659523Y-184293604D02*
X10969047Y-184293604D01*
X10969047Y-184293604D02*
X11154761Y-184355509D01*
X11154761Y-184355509D02*
X11278571Y-184479319D01*
X11278571Y-184479319D02*
X11340476Y-184603128D01*
X11340476Y-184603128D02*
X11402380Y-184850747D01*
X11402380Y-184850747D02*
X11402380Y-185036461D01*
X11402380Y-185036461D02*
X11340476Y-185284080D01*
X11340476Y-185284080D02*
X11278571Y-185407890D01*
X11278571Y-185407890D02*
X11154761Y-185531700D01*
X11154761Y-185531700D02*
X10969047Y-185593604D01*
X10969047Y-185593604D02*
X10659523Y-185593604D01*
D10*
D11*
X287002200Y-60000000D02*
X285002200Y-60000000D01*
D10*
D11*
X287002200Y-110000000D02*
X285002200Y-110000000D01*
D10*
D11*
X287002200Y-160000000D02*
X285002200Y-160000000D01*
D10*
D11*
X285692676Y-35222176D02*
X286311723Y-35222176D01*
X285568866Y-35593604D02*
X286002199Y-34293604D01*
X286002199Y-34293604D02*
X286435533Y-35593604D01*
D10*
D11*
X286095057Y-84912652D02*
X286280771Y-84974557D01*
X286280771Y-84974557D02*
X286342676Y-85036461D01*
X286342676Y-85036461D02*
X286404580Y-85160271D01*
X286404580Y-85160271D02*
X286404580Y-85345985D01*
X286404580Y-85345985D02*
X286342676Y-85469795D01*
X286342676Y-85469795D02*
X286280771Y-85531700D01*
X286280771Y-85531700D02*
X286156961Y-85593604D01*
X286156961Y-85593604D02*
X285661723Y-85593604D01*
X285661723Y-85593604D02*
X285661723Y-84293604D01*
X285661723Y-84293604D02*
X286095057Y-84293604D01*
X286095057Y-84293604D02*
X286218866Y-84355509D01*
X286218866Y-84355509D02*
X286280771Y-84417414D01*
X286280771Y-84417414D02*
X286342676Y-84541223D01*
X286342676Y-84541223D02*
X286342676Y-84665033D01*
X286342676Y-84665033D02*
X286280771Y-84788842D01*
X286280771Y-84788842D02*
X286218866Y-84850747D01*
X286218866Y-84850747D02*
X286095057Y-84912652D01*
X286095057Y-84912652D02*
X285661723Y-84912652D01*
D10*
D11*
X286404580Y-135469795D02*
X286342676Y-135531700D01*
X286342676Y-135531700D02*
X286156961Y-135593604D01*
X286156961Y-135593604D02*
X286033152Y-135593604D01*
X286033152Y-135593604D02*
X285847438Y-135531700D01*
X285847438Y-135531700D02*
X285723628Y-135407890D01*
X285723628Y-135407890D02*
X285661723Y-135284080D01*
X285661723Y-135284080D02*
X285599819Y-135036461D01*
X285599819Y-135036461D02*
X285599819Y-134850747D01*
X285599819Y-134850747D02*
X285661723Y-134603128D01*
X285661723Y-134603128D02*
X285723628Y-134479319D01*
X285723628Y-134479319D02*
X285847438Y-134355509D01*
X285847438Y-134355509D02*
X286033152Y-134293604D01*
X286033152Y-134293604D02*
X286156961Y-134293604D01*
X286156961Y-134293604D02*
X286342676Y-134355509D01*
X286342676Y-134355509D02*
X286404580Y-134417414D01*
D10*
D11*
X285661723Y-185593604D02*
X285661723Y-184293604D01*
X285661723Y-184293604D02*
X285971247Y-184293604D01*
X285971247Y-184293604D02*
X286156961Y-184355509D01*
X286156961Y-184355509D02*
X286280771Y-184479319D01*
X286280771Y-184479319D02*
X286342676Y-184603128D01*
X286342676Y-184603128D02*
X286404580Y-184850747D01*
X286404580Y-184850747D02*
X286404580Y-185036461D01*
X286404580Y-185036461D02*
X286342676Y-185284080D01*
X286342676Y-185284080D02*
X286280771Y-185407890D01*
X286280771Y-185407890D02*
X286156961Y-185531700D01*
X286156961Y-185531700D02*
X285971247Y-185593604D01*
X285971247Y-185593604D02*
X285661723Y-185593604D01*
D10*
D11*
X200458026Y-193793328D02*
X200458026Y-192293328D01*
X200458026Y-192293328D02*
X200815169Y-192293328D01*
X200815169Y-192293328D02*
X201029455Y-192364757D01*
X201029455Y-192364757D02*
X201172312Y-192507614D01*
X201172312Y-192507614D02*
X201243741Y-192650471D01*
X201243741Y-192650471D02*
X201315169Y-192936185D01*
X201315169Y-192936185D02*
X201315169Y-193150471D01*
X201315169Y-193150471D02*
X201243741Y-193436185D01*
X201243741Y-193436185D02*
X201172312Y-193579042D01*
X201172312Y-193579042D02*
X201029455Y-193721900D01*
X201029455Y-193721900D02*
X200815169Y-193793328D01*
X200815169Y-193793328D02*
X200458026Y-193793328D01*
X202600884Y-193793328D02*
X202600884Y-193007614D01*
X202600884Y-193007614D02*
X202529455Y-192864757D01*
X202529455Y-192864757D02*
X202386598Y-192793328D01*
X202386598Y-192793328D02*
X202100884Y-192793328D01*
X202100884Y-192793328D02*
X201958026Y-192864757D01*
X202600884Y-193721900D02*
X202458026Y-193793328D01*
X202458026Y-193793328D02*
X202100884Y-193793328D01*
X202100884Y-193793328D02*
X201958026Y-193721900D01*
X201958026Y-193721900D02*
X201886598Y-193579042D01*
X201886598Y-193579042D02*
X201886598Y-193436185D01*
X201886598Y-193436185D02*
X201958026Y-193293328D01*
X201958026Y-193293328D02*
X202100884Y-193221900D01*
X202100884Y-193221900D02*
X202458026Y-193221900D01*
X202458026Y-193221900D02*
X202600884Y-193150471D01*
X203100884Y-192793328D02*
X203672312Y-192793328D01*
X203315169Y-192293328D02*
X203315169Y-193579042D01*
X203315169Y-193579042D02*
X203386598Y-193721900D01*
X203386598Y-193721900D02*
X203529455Y-193793328D01*
X203529455Y-193793328D02*
X203672312Y-193793328D01*
X204743741Y-193721900D02*
X204600884Y-193793328D01*
X204600884Y-193793328D02*
X204315170Y-193793328D01*
X204315170Y-193793328D02*
X204172312Y-193721900D01*
X204172312Y-193721900D02*
X204100884Y-193579042D01*
X204100884Y-193579042D02*
X204100884Y-193007614D01*
X204100884Y-193007614D02*
X204172312Y-192864757D01*
X204172312Y-192864757D02*
X204315170Y-192793328D01*
X204315170Y-192793328D02*
X204600884Y-192793328D01*
X204600884Y-192793328D02*
X204743741Y-192864757D01*
X204743741Y-192864757D02*
X204815170Y-193007614D01*
X204815170Y-193007614D02*
X204815170Y-193150471D01*
X204815170Y-193150471D02*
X204100884Y-193293328D01*
X205458026Y-193650471D02*
X205529455Y-193721900D01*
X205529455Y-193721900D02*
X205458026Y-193793328D01*
X205458026Y-193793328D02*
X205386598Y-193721900D01*
X205386598Y-193721900D02*
X205458026Y-193650471D01*
X205458026Y-193650471D02*
X205458026Y-193793328D01*
X205458026Y-192864757D02*
X205529455Y-192936185D01*
X205529455Y-192936185D02*
X205458026Y-193007614D01*
X205458026Y-193007614D02*
X205386598Y-192936185D01*
X205386598Y-192936185D02*
X205458026Y-192864757D01*
X205458026Y-192864757D02*
X205458026Y-193007614D01*
X207243741Y-192436185D02*
X207315169Y-192364757D01*
X207315169Y-192364757D02*
X207458027Y-192293328D01*
X207458027Y-192293328D02*
X207815169Y-192293328D01*
X207815169Y-192293328D02*
X207958027Y-192364757D01*
X207958027Y-192364757D02*
X208029455Y-192436185D01*
X208029455Y-192436185D02*
X208100884Y-192579042D01*
X208100884Y-192579042D02*
X208100884Y-192721900D01*
X208100884Y-192721900D02*
X208029455Y-192936185D01*
X208029455Y-192936185D02*
X207172312Y-193793328D01*
X207172312Y-193793328D02*
X208100884Y-193793328D01*
X209029455Y-192293328D02*
X209172312Y-192293328D01*
X209172312Y-192293328D02*
X209315169Y-192364757D01*
X209315169Y-192364757D02*
X209386598Y-192436185D01*
X209386598Y-192436185D02*
X209458026Y-192579042D01*
X209458026Y-192579042D02*
X209529455Y-192864757D01*
X209529455Y-192864757D02*
X209529455Y-193221900D01*
X209529455Y-193221900D02*
X209458026Y-193507614D01*
X209458026Y-193507614D02*
X209386598Y-193650471D01*
X209386598Y-193650471D02*
X209315169Y-193721900D01*
X209315169Y-193721900D02*
X209172312Y-193793328D01*
X209172312Y-193793328D02*
X209029455Y-193793328D01*
X209029455Y-193793328D02*
X208886598Y-193721900D01*
X208886598Y-193721900D02*
X208815169Y-193650471D01*
X208815169Y-193650471D02*
X208743740Y-193507614D01*
X208743740Y-193507614D02*
X208672312Y-193221900D01*
X208672312Y-193221900D02*
X208672312Y-192864757D01*
X208672312Y-192864757D02*
X208743740Y-192579042D01*
X208743740Y-192579042D02*
X208815169Y-192436185D01*
X208815169Y-192436185D02*
X208886598Y-192364757D01*
X208886598Y-192364757D02*
X209029455Y-192293328D01*
X210100883Y-192436185D02*
X210172311Y-192364757D01*
X210172311Y-192364757D02*
X210315169Y-192293328D01*
X210315169Y-192293328D02*
X210672311Y-192293328D01*
X210672311Y-192293328D02*
X210815169Y-192364757D01*
X210815169Y-192364757D02*
X210886597Y-192436185D01*
X210886597Y-192436185D02*
X210958026Y-192579042D01*
X210958026Y-192579042D02*
X210958026Y-192721900D01*
X210958026Y-192721900D02*
X210886597Y-192936185D01*
X210886597Y-192936185D02*
X210029454Y-193793328D01*
X210029454Y-193793328D02*
X210958026Y-193793328D01*
X212243740Y-192293328D02*
X211958025Y-192293328D01*
X211958025Y-192293328D02*
X211815168Y-192364757D01*
X211815168Y-192364757D02*
X211743740Y-192436185D01*
X211743740Y-192436185D02*
X211600882Y-192650471D01*
X211600882Y-192650471D02*
X211529454Y-192936185D01*
X211529454Y-192936185D02*
X211529454Y-193507614D01*
X211529454Y-193507614D02*
X211600882Y-193650471D01*
X211600882Y-193650471D02*
X211672311Y-193721900D01*
X211672311Y-193721900D02*
X211815168Y-193793328D01*
X211815168Y-193793328D02*
X212100882Y-193793328D01*
X212100882Y-193793328D02*
X212243740Y-193721900D01*
X212243740Y-193721900D02*
X212315168Y-193650471D01*
X212315168Y-193650471D02*
X212386597Y-193507614D01*
X212386597Y-193507614D02*
X212386597Y-193150471D01*
X212386597Y-193150471D02*
X212315168Y-193007614D01*
X212315168Y-193007614D02*
X212243740Y-192936185D01*
X212243740Y-192936185D02*
X212100882Y-192864757D01*
X212100882Y-192864757D02*
X211815168Y-192864757D01*
X211815168Y-192864757D02*
X211672311Y-192936185D01*
X211672311Y-192936185D02*
X211600882Y-193007614D01*
X211600882Y-193007614D02*
X211529454Y-193150471D01*
X213029453Y-193221900D02*
X214172311Y-193221900D01*
X215172311Y-192293328D02*
X215315168Y-192293328D01*
X215315168Y-192293328D02*
X215458025Y-192364757D01*
X215458025Y-192364757D02*
X215529454Y-192436185D01*
X215529454Y-192436185D02*
X215600882Y-192579042D01*
X215600882Y-192579042D02*
X215672311Y-192864757D01*
X215672311Y-192864757D02*
X215672311Y-193221900D01*
X215672311Y-193221900D02*
X215600882Y-193507614D01*
X215600882Y-193507614D02*
X215529454Y-193650471D01*
X215529454Y-193650471D02*
X215458025Y-193721900D01*
X215458025Y-193721900D02*
X215315168Y-193793328D01*
X215315168Y-193793328D02*
X215172311Y-193793328D01*
X215172311Y-193793328D02*
X215029454Y-193721900D01*
X215029454Y-193721900D02*
X214958025Y-193650471D01*
X214958025Y-193650471D02*
X214886596Y-193507614D01*
X214886596Y-193507614D02*
X214815168Y-193221900D01*
X214815168Y-193221900D02*
X214815168Y-192864757D01*
X214815168Y-192864757D02*
X214886596Y-192579042D01*
X214886596Y-192579042D02*
X214958025Y-192436185D01*
X214958025Y-192436185D02*
X215029454Y-192364757D01*
X215029454Y-192364757D02*
X215172311Y-192293328D01*
X216172310Y-192293328D02*
X217100882Y-192293328D01*
X217100882Y-192293328D02*
X216600882Y-192864757D01*
X216600882Y-192864757D02*
X216815167Y-192864757D01*
X216815167Y-192864757D02*
X216958025Y-192936185D01*
X216958025Y-192936185D02*
X217029453Y-193007614D01*
X217029453Y-193007614D02*
X217100882Y-193150471D01*
X217100882Y-193150471D02*
X217100882Y-193507614D01*
X217100882Y-193507614D02*
X217029453Y-193650471D01*
X217029453Y-193650471D02*
X216958025Y-193721900D01*
X216958025Y-193721900D02*
X216815167Y-193793328D01*
X216815167Y-193793328D02*
X216386596Y-193793328D01*
X216386596Y-193793328D02*
X216243739Y-193721900D01*
X216243739Y-193721900D02*
X216172310Y-193650471D01*
X217743738Y-193221900D02*
X218886596Y-193221900D01*
X219886596Y-192293328D02*
X220029453Y-192293328D01*
X220029453Y-192293328D02*
X220172310Y-192364757D01*
X220172310Y-192364757D02*
X220243739Y-192436185D01*
X220243739Y-192436185D02*
X220315167Y-192579042D01*
X220315167Y-192579042D02*
X220386596Y-192864757D01*
X220386596Y-192864757D02*
X220386596Y-193221900D01*
X220386596Y-193221900D02*
X220315167Y-193507614D01*
X220315167Y-193507614D02*
X220243739Y-193650471D01*
X220243739Y-193650471D02*
X220172310Y-193721900D01*
X220172310Y-193721900D02*
X220029453Y-193793328D01*
X220029453Y-193793328D02*
X219886596Y-193793328D01*
X219886596Y-193793328D02*
X219743739Y-193721900D01*
X219743739Y-193721900D02*
X219672310Y-193650471D01*
X219672310Y-193650471D02*
X219600881Y-193507614D01*
X219600881Y-193507614D02*
X219529453Y-193221900D01*
X219529453Y-193221900D02*
X219529453Y-192864757D01*
X219529453Y-192864757D02*
X219600881Y-192579042D01*
X219600881Y-192579042D02*
X219672310Y-192436185D01*
X219672310Y-192436185D02*
X219743739Y-192364757D01*
X219743739Y-192364757D02*
X219886596Y-192293328D01*
X221100881Y-193793328D02*
X221386595Y-193793328D01*
X221386595Y-193793328D02*
X221529452Y-193721900D01*
X221529452Y-193721900D02*
X221600881Y-193650471D01*
X221600881Y-193650471D02*
X221743738Y-193436185D01*
X221743738Y-193436185D02*
X221815167Y-193150471D01*
X221815167Y-193150471D02*
X221815167Y-192579042D01*
X221815167Y-192579042D02*
X221743738Y-192436185D01*
X221743738Y-192436185D02*
X221672310Y-192364757D01*
X221672310Y-192364757D02*
X221529452Y-192293328D01*
X221529452Y-192293328D02*
X221243738Y-192293328D01*
X221243738Y-192293328D02*
X221100881Y-192364757D01*
X221100881Y-192364757D02*
X221029452Y-192436185D01*
X221029452Y-192436185D02*
X220958024Y-192579042D01*
X220958024Y-192579042D02*
X220958024Y-192936185D01*
X220958024Y-192936185D02*
X221029452Y-193079042D01*
X221029452Y-193079042D02*
X221100881Y-193150471D01*
X221100881Y-193150471D02*
X221243738Y-193221900D01*
X221243738Y-193221900D02*
X221529452Y-193221900D01*
X221529452Y-193221900D02*
X221672310Y-193150471D01*
X221672310Y-193150471D02*
X221743738Y-193079042D01*
X221743738Y-193079042D02*
X221815167Y-192936185D01*
D10*
D11*
X177002200Y-194507200D02*
X285002200Y-194507200D01*
D10*
D11*
X178458026Y-196593328D02*
X178458026Y-195093328D01*
X179315169Y-196593328D02*
X178672312Y-195736185D01*
X179315169Y-195093328D02*
X178458026Y-195950471D01*
X179958026Y-196593328D02*
X179958026Y-195593328D01*
X179958026Y-195093328D02*
X179886598Y-195164757D01*
X179886598Y-195164757D02*
X179958026Y-195236185D01*
X179958026Y-195236185D02*
X180029455Y-195164757D01*
X180029455Y-195164757D02*
X179958026Y-195093328D01*
X179958026Y-195093328D02*
X179958026Y-195236185D01*
X181529455Y-196450471D02*
X181458027Y-196521900D01*
X181458027Y-196521900D02*
X181243741Y-196593328D01*
X181243741Y-196593328D02*
X181100884Y-196593328D01*
X181100884Y-196593328D02*
X180886598Y-196521900D01*
X180886598Y-196521900D02*
X180743741Y-196379042D01*
X180743741Y-196379042D02*
X180672312Y-196236185D01*
X180672312Y-196236185D02*
X180600884Y-195950471D01*
X180600884Y-195950471D02*
X180600884Y-195736185D01*
X180600884Y-195736185D02*
X180672312Y-195450471D01*
X180672312Y-195450471D02*
X180743741Y-195307614D01*
X180743741Y-195307614D02*
X180886598Y-195164757D01*
X180886598Y-195164757D02*
X181100884Y-195093328D01*
X181100884Y-195093328D02*
X181243741Y-195093328D01*
X181243741Y-195093328D02*
X181458027Y-195164757D01*
X181458027Y-195164757D02*
X181529455Y-195236185D01*
X182815170Y-196593328D02*
X182815170Y-195807614D01*
X182815170Y-195807614D02*
X182743741Y-195664757D01*
X182743741Y-195664757D02*
X182600884Y-195593328D01*
X182600884Y-195593328D02*
X182315170Y-195593328D01*
X182315170Y-195593328D02*
X182172312Y-195664757D01*
X182815170Y-196521900D02*
X182672312Y-196593328D01*
X182672312Y-196593328D02*
X182315170Y-196593328D01*
X182315170Y-196593328D02*
X182172312Y-196521900D01*
X182172312Y-196521900D02*
X182100884Y-196379042D01*
X182100884Y-196379042D02*
X182100884Y-196236185D01*
X182100884Y-196236185D02*
X182172312Y-196093328D01*
X182172312Y-196093328D02*
X182315170Y-196021900D01*
X182315170Y-196021900D02*
X182672312Y-196021900D01*
X182672312Y-196021900D02*
X182815170Y-195950471D01*
X184172313Y-196593328D02*
X184172313Y-195093328D01*
X184172313Y-196521900D02*
X184029455Y-196593328D01*
X184029455Y-196593328D02*
X183743741Y-196593328D01*
X183743741Y-196593328D02*
X183600884Y-196521900D01*
X183600884Y-196521900D02*
X183529455Y-196450471D01*
X183529455Y-196450471D02*
X183458027Y-196307614D01*
X183458027Y-196307614D02*
X183458027Y-195879042D01*
X183458027Y-195879042D02*
X183529455Y-195736185D01*
X183529455Y-195736185D02*
X183600884Y-195664757D01*
X183600884Y-195664757D02*
X183743741Y-195593328D01*
X183743741Y-195593328D02*
X184029455Y-195593328D01*
X184029455Y-195593328D02*
X184172313Y-195664757D01*
X186029455Y-195807614D02*
X186529455Y-195807614D01*
X186743741Y-196593328D02*
X186029455Y-196593328D01*
X186029455Y-196593328D02*
X186029455Y-195093328D01*
X186029455Y-195093328D02*
X186743741Y-195093328D01*
X187386598Y-196450471D02*
X187458027Y-196521900D01*
X187458027Y-196521900D02*
X187386598Y-196593328D01*
X187386598Y-196593328D02*
X187315170Y-196521900D01*
X187315170Y-196521900D02*
X187386598Y-196450471D01*
X187386598Y-196450471D02*
X187386598Y-196593328D01*
X188100884Y-196593328D02*
X188100884Y-195093328D01*
X188100884Y-195093328D02*
X188458027Y-195093328D01*
X188458027Y-195093328D02*
X188672313Y-195164757D01*
X188672313Y-195164757D02*
X188815170Y-195307614D01*
X188815170Y-195307614D02*
X188886599Y-195450471D01*
X188886599Y-195450471D02*
X188958027Y-195736185D01*
X188958027Y-195736185D02*
X188958027Y-195950471D01*
X188958027Y-195950471D02*
X188886599Y-196236185D01*
X188886599Y-196236185D02*
X188815170Y-196379042D01*
X188815170Y-196379042D02*
X188672313Y-196521900D01*
X188672313Y-196521900D02*
X188458027Y-196593328D01*
X188458027Y-196593328D02*
X188100884Y-196593328D01*
X189600884Y-196450471D02*
X189672313Y-196521900D01*
X189672313Y-196521900D02*
X189600884Y-196593328D01*
X189600884Y-196593328D02*
X189529456Y-196521900D01*
X189529456Y-196521900D02*
X189600884Y-196450471D01*
X189600884Y-196450471D02*
X189600884Y-196593328D01*
X190243742Y-196164757D02*
X190958028Y-196164757D01*
X190100885Y-196593328D02*
X190600885Y-195093328D01*
X190600885Y-195093328D02*
X191100885Y-196593328D01*
X191600884Y-196450471D02*
X191672313Y-196521900D01*
X191672313Y-196521900D02*
X191600884Y-196593328D01*
X191600884Y-196593328D02*
X191529456Y-196521900D01*
X191529456Y-196521900D02*
X191600884Y-196450471D01*
X191600884Y-196450471D02*
X191600884Y-196593328D01*
X193529456Y-196593328D02*
X193815170Y-196593328D01*
X193815170Y-196593328D02*
X193958027Y-196521900D01*
X193958027Y-196521900D02*
X194029456Y-196450471D01*
X194029456Y-196450471D02*
X194172313Y-196236185D01*
X194172313Y-196236185D02*
X194243742Y-195950471D01*
X194243742Y-195950471D02*
X194243742Y-195379042D01*
X194243742Y-195379042D02*
X194172313Y-195236185D01*
X194172313Y-195236185D02*
X194100885Y-195164757D01*
X194100885Y-195164757D02*
X193958027Y-195093328D01*
X193958027Y-195093328D02*
X193672313Y-195093328D01*
X193672313Y-195093328D02*
X193529456Y-195164757D01*
X193529456Y-195164757D02*
X193458027Y-195236185D01*
X193458027Y-195236185D02*
X193386599Y-195379042D01*
X193386599Y-195379042D02*
X193386599Y-195736185D01*
X193386599Y-195736185D02*
X193458027Y-195879042D01*
X193458027Y-195879042D02*
X193529456Y-195950471D01*
X193529456Y-195950471D02*
X193672313Y-196021900D01*
X193672313Y-196021900D02*
X193958027Y-196021900D01*
X193958027Y-196021900D02*
X194100885Y-195950471D01*
X194100885Y-195950471D02*
X194172313Y-195879042D01*
X194172313Y-195879042D02*
X194243742Y-195736185D01*
X194886598Y-196450471D02*
X194958027Y-196521900D01*
X194958027Y-196521900D02*
X194886598Y-196593328D01*
X194886598Y-196593328D02*
X194815170Y-196521900D01*
X194815170Y-196521900D02*
X194886598Y-196450471D01*
X194886598Y-196450471D02*
X194886598Y-196593328D01*
X195886599Y-195093328D02*
X196029456Y-195093328D01*
X196029456Y-195093328D02*
X196172313Y-195164757D01*
X196172313Y-195164757D02*
X196243742Y-195236185D01*
X196243742Y-195236185D02*
X196315170Y-195379042D01*
X196315170Y-195379042D02*
X196386599Y-195664757D01*
X196386599Y-195664757D02*
X196386599Y-196021900D01*
X196386599Y-196021900D02*
X196315170Y-196307614D01*
X196315170Y-196307614D02*
X196243742Y-196450471D01*
X196243742Y-196450471D02*
X196172313Y-196521900D01*
X196172313Y-196521900D02*
X196029456Y-196593328D01*
X196029456Y-196593328D02*
X195886599Y-196593328D01*
X195886599Y-196593328D02*
X195743742Y-196521900D01*
X195743742Y-196521900D02*
X195672313Y-196450471D01*
X195672313Y-196450471D02*
X195600884Y-196307614D01*
X195600884Y-196307614D02*
X195529456Y-196021900D01*
X195529456Y-196021900D02*
X195529456Y-195664757D01*
X195529456Y-195664757D02*
X195600884Y-195379042D01*
X195600884Y-195379042D02*
X195672313Y-195236185D01*
X195672313Y-195236185D02*
X195743742Y-195164757D01*
X195743742Y-195164757D02*
X195886599Y-195093328D01*
X197029455Y-196450471D02*
X197100884Y-196521900D01*
X197100884Y-196521900D02*
X197029455Y-196593328D01*
X197029455Y-196593328D02*
X196958027Y-196521900D01*
X196958027Y-196521900D02*
X197029455Y-196450471D01*
X197029455Y-196450471D02*
X197029455Y-196593328D01*
X197600884Y-195093328D02*
X198600884Y-195093328D01*
X198600884Y-195093328D02*
X197958027Y-196593328D01*
D10*
D11*
X177002200Y-191507200D02*
X285002200Y-191507200D01*
D10*
D12*
X264413853Y-193785528D02*
X263913853Y-193071242D01*
X263556710Y-193785528D02*
X263556710Y-192285528D01*
X263556710Y-192285528D02*
X264128139Y-192285528D01*
X264128139Y-192285528D02*
X264270996Y-192356957D01*
X264270996Y-192356957D02*
X264342425Y-192428385D01*
X264342425Y-192428385D02*
X264413853Y-192571242D01*
X264413853Y-192571242D02*
X264413853Y-192785528D01*
X264413853Y-192785528D02*
X264342425Y-192928385D01*
X264342425Y-192928385D02*
X264270996Y-192999814D01*
X264270996Y-192999814D02*
X264128139Y-193071242D01*
X264128139Y-193071242D02*
X263556710Y-193071242D01*
X265628139Y-193714100D02*
X265485282Y-193785528D01*
X265485282Y-193785528D02*
X265199568Y-193785528D01*
X265199568Y-193785528D02*
X265056710Y-193714100D01*
X265056710Y-193714100D02*
X264985282Y-193571242D01*
X264985282Y-193571242D02*
X264985282Y-192999814D01*
X264985282Y-192999814D02*
X265056710Y-192856957D01*
X265056710Y-192856957D02*
X265199568Y-192785528D01*
X265199568Y-192785528D02*
X265485282Y-192785528D01*
X265485282Y-192785528D02*
X265628139Y-192856957D01*
X265628139Y-192856957D02*
X265699568Y-192999814D01*
X265699568Y-192999814D02*
X265699568Y-193142671D01*
X265699568Y-193142671D02*
X264985282Y-193285528D01*
X266199567Y-192785528D02*
X266556710Y-193785528D01*
X266556710Y-193785528D02*
X266913853Y-192785528D01*
X267485281Y-193642671D02*
X267556710Y-193714100D01*
X267556710Y-193714100D02*
X267485281Y-193785528D01*
X267485281Y-193785528D02*
X267413853Y-193714100D01*
X267413853Y-193714100D02*
X267485281Y-193642671D01*
X267485281Y-193642671D02*
X267485281Y-193785528D01*
X267485281Y-192856957D02*
X267556710Y-192928385D01*
X267556710Y-192928385D02*
X267485281Y-192999814D01*
X267485281Y-192999814D02*
X267413853Y-192928385D01*
X267413853Y-192928385D02*
X267485281Y-192856957D01*
X267485281Y-192856957D02*
X267485281Y-192999814D01*
X269199567Y-192285528D02*
X269556710Y-193785528D01*
X269556710Y-193785528D02*
X269842424Y-192714100D01*
X269842424Y-192714100D02*
X270128139Y-193785528D01*
X270128139Y-193785528D02*
X270485282Y-192285528D01*
X270985282Y-193356957D02*
X271699568Y-193356957D01*
X270842425Y-193785528D02*
X271342425Y-192285528D01*
X271342425Y-192285528D02*
X271842425Y-193785528D01*
X273128139Y-193785528D02*
X272270996Y-193785528D01*
X272699567Y-193785528D02*
X272699567Y-192285528D01*
X272699567Y-192285528D02*
X272556710Y-192499814D01*
X272556710Y-192499814D02*
X272413853Y-192642671D01*
X272413853Y-192642671D02*
X272270996Y-192714100D01*
X274628138Y-193642671D02*
X274556710Y-193714100D01*
X274556710Y-193714100D02*
X274342424Y-193785528D01*
X274342424Y-193785528D02*
X274199567Y-193785528D01*
X274199567Y-193785528D02*
X273985281Y-193714100D01*
X273985281Y-193714100D02*
X273842424Y-193571242D01*
X273842424Y-193571242D02*
X273770995Y-193428385D01*
X273770995Y-193428385D02*
X273699567Y-193142671D01*
X273699567Y-193142671D02*
X273699567Y-192928385D01*
X273699567Y-192928385D02*
X273770995Y-192642671D01*
X273770995Y-192642671D02*
X273842424Y-192499814D01*
X273842424Y-192499814D02*
X273985281Y-192356957D01*
X273985281Y-192356957D02*
X274199567Y-192285528D01*
X274199567Y-192285528D02*
X274342424Y-192285528D01*
X274342424Y-192285528D02*
X274556710Y-192356957D01*
X274556710Y-192356957D02*
X274628138Y-192428385D01*
X275556710Y-193071242D02*
X275556710Y-193785528D01*
X275056710Y-192285528D02*
X275556710Y-193071242D01*
X275556710Y-193071242D02*
X276056710Y-192285528D01*
X277056709Y-192999814D02*
X277270995Y-193071242D01*
X277270995Y-193071242D02*
X277342424Y-193142671D01*
X277342424Y-193142671D02*
X277413852Y-193285528D01*
X277413852Y-193285528D02*
X277413852Y-193499814D01*
X277413852Y-193499814D02*
X277342424Y-193642671D01*
X277342424Y-193642671D02*
X277270995Y-193714100D01*
X277270995Y-193714100D02*
X277128138Y-193785528D01*
X277128138Y-193785528D02*
X276556709Y-193785528D01*
X276556709Y-193785528D02*
X276556709Y-192285528D01*
X276556709Y-192285528D02*
X277056709Y-192285528D01*
X277056709Y-192285528D02*
X277199567Y-192356957D01*
X277199567Y-192356957D02*
X277270995Y-192428385D01*
X277270995Y-192428385D02*
X277342424Y-192571242D01*
X277342424Y-192571242D02*
X277342424Y-192714100D01*
X277342424Y-192714100D02*
X277270995Y-192856957D01*
X277270995Y-192856957D02*
X277199567Y-192928385D01*
X277199567Y-192928385D02*
X277056709Y-192999814D01*
X277056709Y-192999814D02*
X276556709Y-192999814D01*
X278056709Y-193214100D02*
X279199567Y-193214100D01*
X279913852Y-193785528D02*
X279913852Y-192785528D01*
X279913852Y-193071242D02*
X279985281Y-192928385D01*
X279985281Y-192928385D02*
X280056710Y-192856957D01*
X280056710Y-192856957D02*
X280199567Y-192785528D01*
X280199567Y-192785528D02*
X280342424Y-192785528D01*
X281413852Y-193714100D02*
X281270995Y-193785528D01*
X281270995Y-193785528D02*
X280985281Y-193785528D01*
X280985281Y-193785528D02*
X280842423Y-193714100D01*
X280842423Y-193714100D02*
X280770995Y-193571242D01*
X280770995Y-193571242D02*
X280770995Y-192999814D01*
X280770995Y-192999814D02*
X280842423Y-192856957D01*
X280842423Y-192856957D02*
X280985281Y-192785528D01*
X280985281Y-192785528D02*
X281270995Y-192785528D01*
X281270995Y-192785528D02*
X281413852Y-192856957D01*
X281413852Y-192856957D02*
X281485281Y-192999814D01*
X281485281Y-192999814D02*
X281485281Y-193142671D01*
X281485281Y-193142671D02*
X280770995Y-193285528D01*
X281985280Y-192785528D02*
X282342423Y-193785528D01*
X282342423Y-193785528D02*
X282699566Y-192785528D01*
X283770994Y-192999814D02*
X283985280Y-193071242D01*
X283985280Y-193071242D02*
X284056709Y-193142671D01*
X284056709Y-193142671D02*
X284128137Y-193285528D01*
X284128137Y-193285528D02*
X284128137Y-193499814D01*
X284128137Y-193499814D02*
X284056709Y-193642671D01*
X284056709Y-193642671D02*
X283985280Y-193714100D01*
X283985280Y-193714100D02*
X283842423Y-193785528D01*
X283842423Y-193785528D02*
X283270994Y-193785528D01*
X283270994Y-193785528D02*
X283270994Y-192285528D01*
X283270994Y-192285528D02*
X283770994Y-192285528D01*
X283770994Y-192285528D02*
X283913852Y-192356957D01*
X283913852Y-192356957D02*
X283985280Y-192428385D01*
X283985280Y-192428385D02*
X284056709Y-192571242D01*
X284056709Y-192571242D02*
X284056709Y-192714100D01*
X284056709Y-192714100D02*
X283985280Y-192856957D01*
X283985280Y-192856957D02*
X283913852Y-192928385D01*
X283913852Y-192928385D02*
X283770994Y-192999814D01*
X283770994Y-192999814D02*
X283270994Y-192999814D01*
D10*
D11*
X178386598Y-193721900D02*
X178600884Y-193793328D01*
X178600884Y-193793328D02*
X178958026Y-193793328D01*
X178958026Y-193793328D02*
X179100884Y-193721900D01*
X179100884Y-193721900D02*
X179172312Y-193650471D01*
X179172312Y-193650471D02*
X179243741Y-193507614D01*
X179243741Y-193507614D02*
X179243741Y-193364757D01*
X179243741Y-193364757D02*
X179172312Y-193221900D01*
X179172312Y-193221900D02*
X179100884Y-193150471D01*
X179100884Y-193150471D02*
X178958026Y-193079042D01*
X178958026Y-193079042D02*
X178672312Y-193007614D01*
X178672312Y-193007614D02*
X178529455Y-192936185D01*
X178529455Y-192936185D02*
X178458026Y-192864757D01*
X178458026Y-192864757D02*
X178386598Y-192721900D01*
X178386598Y-192721900D02*
X178386598Y-192579042D01*
X178386598Y-192579042D02*
X178458026Y-192436185D01*
X178458026Y-192436185D02*
X178529455Y-192364757D01*
X178529455Y-192364757D02*
X178672312Y-192293328D01*
X178672312Y-192293328D02*
X179029455Y-192293328D01*
X179029455Y-192293328D02*
X179243741Y-192364757D01*
X179886597Y-193793328D02*
X179886597Y-192793328D01*
X179886597Y-192293328D02*
X179815169Y-192364757D01*
X179815169Y-192364757D02*
X179886597Y-192436185D01*
X179886597Y-192436185D02*
X179958026Y-192364757D01*
X179958026Y-192364757D02*
X179886597Y-192293328D01*
X179886597Y-192293328D02*
X179886597Y-192436185D01*
X180458026Y-192793328D02*
X181243741Y-192793328D01*
X181243741Y-192793328D02*
X180458026Y-193793328D01*
X180458026Y-193793328D02*
X181243741Y-193793328D01*
X182386598Y-193721900D02*
X182243741Y-193793328D01*
X182243741Y-193793328D02*
X181958027Y-193793328D01*
X181958027Y-193793328D02*
X181815169Y-193721900D01*
X181815169Y-193721900D02*
X181743741Y-193579042D01*
X181743741Y-193579042D02*
X181743741Y-193007614D01*
X181743741Y-193007614D02*
X181815169Y-192864757D01*
X181815169Y-192864757D02*
X181958027Y-192793328D01*
X181958027Y-192793328D02*
X182243741Y-192793328D01*
X182243741Y-192793328D02*
X182386598Y-192864757D01*
X182386598Y-192864757D02*
X182458027Y-193007614D01*
X182458027Y-193007614D02*
X182458027Y-193150471D01*
X182458027Y-193150471D02*
X181743741Y-193293328D01*
X183100883Y-193650471D02*
X183172312Y-193721900D01*
X183172312Y-193721900D02*
X183100883Y-193793328D01*
X183100883Y-193793328D02*
X183029455Y-193721900D01*
X183029455Y-193721900D02*
X183100883Y-193650471D01*
X183100883Y-193650471D02*
X183100883Y-193793328D01*
X183100883Y-192864757D02*
X183172312Y-192936185D01*
X183172312Y-192936185D02*
X183100883Y-193007614D01*
X183100883Y-193007614D02*
X183029455Y-192936185D01*
X183029455Y-192936185D02*
X183100883Y-192864757D01*
X183100883Y-192864757D02*
X183100883Y-193007614D01*
X184886598Y-193364757D02*
X185600884Y-193364757D01*
X184743741Y-193793328D02*
X185243741Y-192293328D01*
X185243741Y-192293328D02*
X185743741Y-193793328D01*
X186886598Y-192793328D02*
X186886598Y-193793328D01*
X186529455Y-192221900D02*
X186172312Y-193293328D01*
X186172312Y-193293328D02*
X187100883Y-193293328D01*
D10*
D11*
X263458026Y-196593328D02*
X263458026Y-195093328D01*
X264815170Y-196593328D02*
X264815170Y-195093328D01*
X264815170Y-196521900D02*
X264672312Y-196593328D01*
X264672312Y-196593328D02*
X264386598Y-196593328D01*
X264386598Y-196593328D02*
X264243741Y-196521900D01*
X264243741Y-196521900D02*
X264172312Y-196450471D01*
X264172312Y-196450471D02*
X264100884Y-196307614D01*
X264100884Y-196307614D02*
X264100884Y-195879042D01*
X264100884Y-195879042D02*
X264172312Y-195736185D01*
X264172312Y-195736185D02*
X264243741Y-195664757D01*
X264243741Y-195664757D02*
X264386598Y-195593328D01*
X264386598Y-195593328D02*
X264672312Y-195593328D01*
X264672312Y-195593328D02*
X264815170Y-195664757D01*
X265529455Y-196450471D02*
X265600884Y-196521900D01*
X265600884Y-196521900D02*
X265529455Y-196593328D01*
X265529455Y-196593328D02*
X265458027Y-196521900D01*
X265458027Y-196521900D02*
X265529455Y-196450471D01*
X265529455Y-196450471D02*
X265529455Y-196593328D01*
X265529455Y-195664757D02*
X265600884Y-195736185D01*
X265600884Y-195736185D02*
X265529455Y-195807614D01*
X265529455Y-195807614D02*
X265458027Y-195736185D01*
X265458027Y-195736185D02*
X265529455Y-195664757D01*
X265529455Y-195664757D02*
X265529455Y-195807614D01*
X268172313Y-196593328D02*
X267315170Y-196593328D01*
X267743741Y-196593328D02*
X267743741Y-195093328D01*
X267743741Y-195093328D02*
X267600884Y-195307614D01*
X267600884Y-195307614D02*
X267458027Y-195450471D01*
X267458027Y-195450471D02*
X267315170Y-195521900D01*
X269458027Y-195093328D02*
X269172312Y-195093328D01*
X269172312Y-195093328D02*
X269029455Y-195164757D01*
X269029455Y-195164757D02*
X268958027Y-195236185D01*
X268958027Y-195236185D02*
X268815169Y-195450471D01*
X268815169Y-195450471D02*
X268743741Y-195736185D01*
X268743741Y-195736185D02*
X268743741Y-196307614D01*
X268743741Y-196307614D02*
X268815169Y-196450471D01*
X268815169Y-196450471D02*
X268886598Y-196521900D01*
X268886598Y-196521900D02*
X269029455Y-196593328D01*
X269029455Y-196593328D02*
X269315169Y-196593328D01*
X269315169Y-196593328D02*
X269458027Y-196521900D01*
X269458027Y-196521900D02*
X269529455Y-196450471D01*
X269529455Y-196450471D02*
X269600884Y-196307614D01*
X269600884Y-196307614D02*
X269600884Y-195950471D01*
X269600884Y-195950471D02*
X269529455Y-195807614D01*
X269529455Y-195807614D02*
X269458027Y-195736185D01*
X269458027Y-195736185D02*
X269315169Y-195664757D01*
X269315169Y-195664757D02*
X269029455Y-195664757D01*
X269029455Y-195664757D02*
X268886598Y-195736185D01*
X268886598Y-195736185D02*
X268815169Y-195807614D01*
X268815169Y-195807614D02*
X268743741Y-195950471D01*
X271315169Y-195021900D02*
X270029455Y-196950471D01*
X271672312Y-195093328D02*
X272600884Y-195093328D01*
X272600884Y-195093328D02*
X272100884Y-195664757D01*
X272100884Y-195664757D02*
X272315169Y-195664757D01*
X272315169Y-195664757D02*
X272458027Y-195736185D01*
X272458027Y-195736185D02*
X272529455Y-195807614D01*
X272529455Y-195807614D02*
X272600884Y-195950471D01*
X272600884Y-195950471D02*
X272600884Y-196307614D01*
X272600884Y-196307614D02*
X272529455Y-196450471D01*
X272529455Y-196450471D02*
X272458027Y-196521900D01*
X272458027Y-196521900D02*
X272315169Y-196593328D01*
X272315169Y-196593328D02*
X271886598Y-196593328D01*
X271886598Y-196593328D02*
X271743741Y-196521900D01*
X271743741Y-196521900D02*
X271672312Y-196450471D01*
X273529455Y-195093328D02*
X273672312Y-195093328D01*
X273672312Y-195093328D02*
X273815169Y-195164757D01*
X273815169Y-195164757D02*
X273886598Y-195236185D01*
X273886598Y-195236185D02*
X273958026Y-195379042D01*
X273958026Y-195379042D02*
X274029455Y-195664757D01*
X274029455Y-195664757D02*
X274029455Y-196021900D01*
X274029455Y-196021900D02*
X273958026Y-196307614D01*
X273958026Y-196307614D02*
X273886598Y-196450471D01*
X273886598Y-196450471D02*
X273815169Y-196521900D01*
X273815169Y-196521900D02*
X273672312Y-196593328D01*
X273672312Y-196593328D02*
X273529455Y-196593328D01*
X273529455Y-196593328D02*
X273386598Y-196521900D01*
X273386598Y-196521900D02*
X273315169Y-196450471D01*
X273315169Y-196450471D02*
X273243740Y-196307614D01*
X273243740Y-196307614D02*
X273172312Y-196021900D01*
X273172312Y-196021900D02*
X273172312Y-195664757D01*
X273172312Y-195664757D02*
X273243740Y-195379042D01*
X273243740Y-195379042D02*
X273315169Y-195236185D01*
X273315169Y-195236185D02*
X273386598Y-195164757D01*
X273386598Y-195164757D02*
X273529455Y-195093328D01*
D10*
D11*
X177002200Y-187507200D02*
X285002200Y-187507200D01*
D10*
D13*
X178693928Y-188211638D02*
X179836785Y-188211638D01*
X179015357Y-190211638D02*
X179265357Y-188211638D01*
X180253452Y-190211638D02*
X180420119Y-188878304D01*
X180503452Y-188211638D02*
X180396309Y-188306876D01*
X180396309Y-188306876D02*
X180479643Y-188402114D01*
X180479643Y-188402114D02*
X180586786Y-188306876D01*
X180586786Y-188306876D02*
X180503452Y-188211638D01*
X180503452Y-188211638D02*
X180479643Y-188402114D01*
X181086786Y-188878304D02*
X181848690Y-188878304D01*
X181455833Y-188211638D02*
X181241548Y-189925923D01*
X181241548Y-189925923D02*
X181312976Y-190116400D01*
X181312976Y-190116400D02*
X181491548Y-190211638D01*
X181491548Y-190211638D02*
X181682024Y-190211638D01*
X182634405Y-190211638D02*
X182455833Y-190116400D01*
X182455833Y-190116400D02*
X182384405Y-189925923D01*
X182384405Y-189925923D02*
X182598690Y-188211638D01*
X184170119Y-190116400D02*
X183967738Y-190211638D01*
X183967738Y-190211638D02*
X183586785Y-190211638D01*
X183586785Y-190211638D02*
X183408214Y-190116400D01*
X183408214Y-190116400D02*
X183336785Y-189925923D01*
X183336785Y-189925923D02*
X183432024Y-189164019D01*
X183432024Y-189164019D02*
X183551071Y-188973542D01*
X183551071Y-188973542D02*
X183753452Y-188878304D01*
X183753452Y-188878304D02*
X184134404Y-188878304D01*
X184134404Y-188878304D02*
X184312976Y-188973542D01*
X184312976Y-188973542D02*
X184384404Y-189164019D01*
X184384404Y-189164019D02*
X184360595Y-189354495D01*
X184360595Y-189354495D02*
X183384404Y-189544971D01*
X185134405Y-190021161D02*
X185217738Y-190116400D01*
X185217738Y-190116400D02*
X185110595Y-190211638D01*
X185110595Y-190211638D02*
X185027262Y-190116400D01*
X185027262Y-190116400D02*
X185134405Y-190021161D01*
X185134405Y-190021161D02*
X185110595Y-190211638D01*
X185265357Y-188973542D02*
X185348690Y-189068780D01*
X185348690Y-189068780D02*
X185241548Y-189164019D01*
X185241548Y-189164019D02*
X185158214Y-189068780D01*
X185158214Y-189068780D02*
X185265357Y-188973542D01*
X185265357Y-188973542D02*
X185241548Y-189164019D01*
X187562977Y-189640209D02*
X188515358Y-189640209D01*
X187301072Y-190211638D02*
X188217739Y-188211638D01*
X188217739Y-188211638D02*
X188634405Y-190211638D01*
X189301072Y-190211638D02*
X189551072Y-188211638D01*
X189551072Y-188211638D02*
X190039167Y-189640209D01*
X190039167Y-189640209D02*
X190884406Y-188211638D01*
X190884406Y-188211638D02*
X190634406Y-190211638D01*
X191503453Y-190116400D02*
X191777262Y-190211638D01*
X191777262Y-190211638D02*
X192253453Y-190211638D01*
X192253453Y-190211638D02*
X192455834Y-190116400D01*
X192455834Y-190116400D02*
X192562977Y-190021161D01*
X192562977Y-190021161D02*
X192682024Y-189830685D01*
X192682024Y-189830685D02*
X192705834Y-189640209D01*
X192705834Y-189640209D02*
X192634405Y-189449733D01*
X192634405Y-189449733D02*
X192551072Y-189354495D01*
X192551072Y-189354495D02*
X192372501Y-189259257D01*
X192372501Y-189259257D02*
X192003453Y-189164019D01*
X192003453Y-189164019D02*
X191824881Y-189068780D01*
X191824881Y-189068780D02*
X191741548Y-188973542D01*
X191741548Y-188973542D02*
X191670120Y-188783066D01*
X191670120Y-188783066D02*
X191693929Y-188592590D01*
X191693929Y-188592590D02*
X191812977Y-188402114D01*
X191812977Y-188402114D02*
X191920120Y-188306876D01*
X191920120Y-188306876D02*
X192122501Y-188211638D01*
X192122501Y-188211638D02*
X192598691Y-188211638D01*
X192598691Y-188211638D02*
X192872501Y-188306876D01*
X193467739Y-189640209D02*
X194420120Y-189640209D01*
X193205834Y-190211638D02*
X194122501Y-188211638D01*
X194122501Y-188211638D02*
X194539167Y-190211638D01*
X195170120Y-188211638D02*
X196312977Y-188211638D01*
X195491549Y-190211638D02*
X195741549Y-188211638D01*
X198229645Y-189640209D02*
X199182026Y-189640209D01*
X197967740Y-190211638D02*
X198884407Y-188211638D01*
X198884407Y-188211638D02*
X199301073Y-190211638D01*
X199884407Y-190116400D02*
X200158216Y-190211638D01*
X200158216Y-190211638D02*
X200634407Y-190211638D01*
X200634407Y-190211638D02*
X200836788Y-190116400D01*
X200836788Y-190116400D02*
X200943931Y-190021161D01*
X200943931Y-190021161D02*
X201062978Y-189830685D01*
X201062978Y-189830685D02*
X201086788Y-189640209D01*
X201086788Y-189640209D02*
X201015359Y-189449733D01*
X201015359Y-189449733D02*
X200932026Y-189354495D01*
X200932026Y-189354495D02*
X200753455Y-189259257D01*
X200753455Y-189259257D02*
X200384407Y-189164019D01*
X200384407Y-189164019D02*
X200205835Y-189068780D01*
X200205835Y-189068780D02*
X200122502Y-188973542D01*
X200122502Y-188973542D02*
X200051074Y-188783066D01*
X200051074Y-188783066D02*
X200074883Y-188592590D01*
X200074883Y-188592590D02*
X200193931Y-188402114D01*
X200193931Y-188402114D02*
X200301074Y-188306876D01*
X200301074Y-188306876D02*
X200503455Y-188211638D01*
X200503455Y-188211638D02*
X200979645Y-188211638D01*
X200979645Y-188211638D02*
X201253455Y-188306876D01*
X203039169Y-190021161D02*
X202932026Y-190116400D01*
X202932026Y-190116400D02*
X202634407Y-190211638D01*
X202634407Y-190211638D02*
X202443931Y-190211638D01*
X202443931Y-190211638D02*
X202170121Y-190116400D01*
X202170121Y-190116400D02*
X202003455Y-189925923D01*
X202003455Y-189925923D02*
X201932026Y-189735447D01*
X201932026Y-189735447D02*
X201884407Y-189354495D01*
X201884407Y-189354495D02*
X201920121Y-189068780D01*
X201920121Y-189068780D02*
X202062978Y-188687828D01*
X202062978Y-188687828D02*
X202182026Y-188497352D01*
X202182026Y-188497352D02*
X202396312Y-188306876D01*
X202396312Y-188306876D02*
X202693931Y-188211638D01*
X202693931Y-188211638D02*
X202884407Y-188211638D01*
X202884407Y-188211638D02*
X203158217Y-188306876D01*
X203158217Y-188306876D02*
X203241550Y-188402114D01*
X204003455Y-189164019D02*
X204670121Y-189164019D01*
X204824883Y-190211638D02*
X203872502Y-190211638D01*
X203872502Y-190211638D02*
X204122502Y-188211638D01*
X204122502Y-188211638D02*
X205074883Y-188211638D01*
X205682026Y-190211638D02*
X205932026Y-188211638D01*
X205932026Y-188211638D02*
X206824883Y-190211638D01*
X206824883Y-190211638D02*
X207074883Y-188211638D01*
X207741550Y-188211638D02*
X208884407Y-188211638D01*
X208062979Y-190211638D02*
X208312979Y-188211638D01*
X210741551Y-190116400D02*
X211015360Y-190211638D01*
X211015360Y-190211638D02*
X211491551Y-190211638D01*
X211491551Y-190211638D02*
X211693932Y-190116400D01*
X211693932Y-190116400D02*
X211801075Y-190021161D01*
X211801075Y-190021161D02*
X211920122Y-189830685D01*
X211920122Y-189830685D02*
X211943932Y-189640209D01*
X211943932Y-189640209D02*
X211872503Y-189449733D01*
X211872503Y-189449733D02*
X211789170Y-189354495D01*
X211789170Y-189354495D02*
X211610599Y-189259257D01*
X211610599Y-189259257D02*
X211241551Y-189164019D01*
X211241551Y-189164019D02*
X211062979Y-189068780D01*
X211062979Y-189068780D02*
X210979646Y-188973542D01*
X210979646Y-188973542D02*
X210908218Y-188783066D01*
X210908218Y-188783066D02*
X210932027Y-188592590D01*
X210932027Y-188592590D02*
X211051075Y-188402114D01*
X211051075Y-188402114D02*
X211158218Y-188306876D01*
X211158218Y-188306876D02*
X211360599Y-188211638D01*
X211360599Y-188211638D02*
X211836789Y-188211638D01*
X211836789Y-188211638D02*
X212110599Y-188306876D01*
X212729646Y-190211638D02*
X212979646Y-188211638D01*
X212979646Y-188211638D02*
X213455837Y-188211638D01*
X213455837Y-188211638D02*
X213729646Y-188306876D01*
X213729646Y-188306876D02*
X213896313Y-188497352D01*
X213896313Y-188497352D02*
X213967741Y-188687828D01*
X213967741Y-188687828D02*
X214015361Y-189068780D01*
X214015361Y-189068780D02*
X213979646Y-189354495D01*
X213979646Y-189354495D02*
X213836789Y-189735447D01*
X213836789Y-189735447D02*
X213717741Y-189925923D01*
X213717741Y-189925923D02*
X213503456Y-190116400D01*
X213503456Y-190116400D02*
X213205837Y-190211638D01*
X213205837Y-190211638D02*
X212729646Y-190211638D01*
X215872503Y-190211638D02*
X215324884Y-189259257D01*
X214729646Y-190211638D02*
X214979646Y-188211638D01*
X214979646Y-188211638D02*
X215741551Y-188211638D01*
X215741551Y-188211638D02*
X215920122Y-188306876D01*
X215920122Y-188306876D02*
X216003456Y-188402114D01*
X216003456Y-188402114D02*
X216074884Y-188592590D01*
X216074884Y-188592590D02*
X216039170Y-188878304D01*
X216039170Y-188878304D02*
X215920122Y-189068780D01*
X215920122Y-189068780D02*
X215812980Y-189164019D01*
X215812980Y-189164019D02*
X215610599Y-189259257D01*
X215610599Y-189259257D02*
X214848694Y-189259257D01*
D10*
D11*
X178958026Y-185607614D02*
X178458026Y-185607614D01*
X178458026Y-186393328D02*
X178458026Y-184893328D01*
X178458026Y-184893328D02*
X179172312Y-184893328D01*
X179743740Y-186393328D02*
X179743740Y-185393328D01*
X179743740Y-184893328D02*
X179672312Y-184964757D01*
X179672312Y-184964757D02*
X179743740Y-185036185D01*
X179743740Y-185036185D02*
X179815169Y-184964757D01*
X179815169Y-184964757D02*
X179743740Y-184893328D01*
X179743740Y-184893328D02*
X179743740Y-185036185D01*
X180672312Y-186393328D02*
X180529455Y-186321900D01*
X180529455Y-186321900D02*
X180458026Y-186179042D01*
X180458026Y-186179042D02*
X180458026Y-184893328D01*
X181815169Y-186321900D02*
X181672312Y-186393328D01*
X181672312Y-186393328D02*
X181386598Y-186393328D01*
X181386598Y-186393328D02*
X181243740Y-186321900D01*
X181243740Y-186321900D02*
X181172312Y-186179042D01*
X181172312Y-186179042D02*
X181172312Y-185607614D01*
X181172312Y-185607614D02*
X181243740Y-185464757D01*
X181243740Y-185464757D02*
X181386598Y-185393328D01*
X181386598Y-185393328D02*
X181672312Y-185393328D01*
X181672312Y-185393328D02*
X181815169Y-185464757D01*
X181815169Y-185464757D02*
X181886598Y-185607614D01*
X181886598Y-185607614D02*
X181886598Y-185750471D01*
X181886598Y-185750471D02*
X181172312Y-185893328D01*
X182529454Y-186250471D02*
X182600883Y-186321900D01*
X182600883Y-186321900D02*
X182529454Y-186393328D01*
X182529454Y-186393328D02*
X182458026Y-186321900D01*
X182458026Y-186321900D02*
X182529454Y-186250471D01*
X182529454Y-186250471D02*
X182529454Y-186393328D01*
X182529454Y-185464757D02*
X182600883Y-185536185D01*
X182600883Y-185536185D02*
X182529454Y-185607614D01*
X182529454Y-185607614D02*
X182458026Y-185536185D01*
X182458026Y-185536185D02*
X182529454Y-185464757D01*
X182529454Y-185464757D02*
X182529454Y-185607614D01*
X184315169Y-185964757D02*
X185029455Y-185964757D01*
X184172312Y-186393328D02*
X184672312Y-184893328D01*
X184672312Y-184893328D02*
X185172312Y-186393328D01*
X185672311Y-186393328D02*
X185672311Y-184893328D01*
X185672311Y-184893328D02*
X186172311Y-185964757D01*
X186172311Y-185964757D02*
X186672311Y-184893328D01*
X186672311Y-184893328D02*
X186672311Y-186393328D01*
X187315169Y-186321900D02*
X187529455Y-186393328D01*
X187529455Y-186393328D02*
X187886597Y-186393328D01*
X187886597Y-186393328D02*
X188029455Y-186321900D01*
X188029455Y-186321900D02*
X188100883Y-186250471D01*
X188100883Y-186250471D02*
X188172312Y-186107614D01*
X188172312Y-186107614D02*
X188172312Y-185964757D01*
X188172312Y-185964757D02*
X188100883Y-185821900D01*
X188100883Y-185821900D02*
X188029455Y-185750471D01*
X188029455Y-185750471D02*
X187886597Y-185679042D01*
X187886597Y-185679042D02*
X187600883Y-185607614D01*
X187600883Y-185607614D02*
X187458026Y-185536185D01*
X187458026Y-185536185D02*
X187386597Y-185464757D01*
X187386597Y-185464757D02*
X187315169Y-185321900D01*
X187315169Y-185321900D02*
X187315169Y-185179042D01*
X187315169Y-185179042D02*
X187386597Y-185036185D01*
X187386597Y-185036185D02*
X187458026Y-184964757D01*
X187458026Y-184964757D02*
X187600883Y-184893328D01*
X187600883Y-184893328D02*
X187958026Y-184893328D01*
X187958026Y-184893328D02*
X188172312Y-184964757D01*
X188743740Y-185964757D02*
X189458026Y-185964757D01*
X188600883Y-186393328D02*
X189100883Y-184893328D01*
X189100883Y-184893328D02*
X189600883Y-186393328D01*
X189886597Y-184893328D02*
X190743740Y-184893328D01*
X190315168Y-186393328D02*
X190315168Y-184893328D01*
X190886597Y-186536185D02*
X192029454Y-186536185D01*
X192315168Y-186321900D02*
X192529454Y-186393328D01*
X192529454Y-186393328D02*
X192886596Y-186393328D01*
X192886596Y-186393328D02*
X193029454Y-186321900D01*
X193029454Y-186321900D02*
X193100882Y-186250471D01*
X193100882Y-186250471D02*
X193172311Y-186107614D01*
X193172311Y-186107614D02*
X193172311Y-185964757D01*
X193172311Y-185964757D02*
X193100882Y-185821900D01*
X193100882Y-185821900D02*
X193029454Y-185750471D01*
X193029454Y-185750471D02*
X192886596Y-185679042D01*
X192886596Y-185679042D02*
X192600882Y-185607614D01*
X192600882Y-185607614D02*
X192458025Y-185536185D01*
X192458025Y-185536185D02*
X192386596Y-185464757D01*
X192386596Y-185464757D02*
X192315168Y-185321900D01*
X192315168Y-185321900D02*
X192315168Y-185179042D01*
X192315168Y-185179042D02*
X192386596Y-185036185D01*
X192386596Y-185036185D02*
X192458025Y-184964757D01*
X192458025Y-184964757D02*
X192600882Y-184893328D01*
X192600882Y-184893328D02*
X192958025Y-184893328D01*
X192958025Y-184893328D02*
X193172311Y-184964757D01*
X193815167Y-186393328D02*
X193815167Y-184893328D01*
X193815167Y-184893328D02*
X194172310Y-184893328D01*
X194172310Y-184893328D02*
X194386596Y-184964757D01*
X194386596Y-184964757D02*
X194529453Y-185107614D01*
X194529453Y-185107614D02*
X194600882Y-185250471D01*
X194600882Y-185250471D02*
X194672310Y-185536185D01*
X194672310Y-185536185D02*
X194672310Y-185750471D01*
X194672310Y-185750471D02*
X194600882Y-186036185D01*
X194600882Y-186036185D02*
X194529453Y-186179042D01*
X194529453Y-186179042D02*
X194386596Y-186321900D01*
X194386596Y-186321900D02*
X194172310Y-186393328D01*
X194172310Y-186393328D02*
X193815167Y-186393328D01*
X196172310Y-186393328D02*
X195672310Y-185679042D01*
X195315167Y-186393328D02*
X195315167Y-184893328D01*
X195315167Y-184893328D02*
X195886596Y-184893328D01*
X195886596Y-184893328D02*
X196029453Y-184964757D01*
X196029453Y-184964757D02*
X196100882Y-185036185D01*
X196100882Y-185036185D02*
X196172310Y-185179042D01*
X196172310Y-185179042D02*
X196172310Y-185393328D01*
X196172310Y-185393328D02*
X196100882Y-185536185D01*
X196100882Y-185536185D02*
X196029453Y-185607614D01*
X196029453Y-185607614D02*
X195886596Y-185679042D01*
X195886596Y-185679042D02*
X195315167Y-185679042D01*
X196815167Y-186250471D02*
X196886596Y-186321900D01*
X196886596Y-186321900D02*
X196815167Y-186393328D01*
X196815167Y-186393328D02*
X196743739Y-186321900D01*
X196743739Y-186321900D02*
X196815167Y-186250471D01*
X196815167Y-186250471D02*
X196815167Y-186393328D01*
X197529453Y-186393328D02*
X197529453Y-184893328D01*
X197672311Y-185821900D02*
X198100882Y-186393328D01*
X198100882Y-185393328D02*
X197529453Y-185964757D01*
X198743739Y-186393328D02*
X198743739Y-185393328D01*
X198743739Y-184893328D02*
X198672311Y-184964757D01*
X198672311Y-184964757D02*
X198743739Y-185036185D01*
X198743739Y-185036185D02*
X198815168Y-184964757D01*
X198815168Y-184964757D02*
X198743739Y-184893328D01*
X198743739Y-184893328D02*
X198743739Y-185036185D01*
X200100883Y-186321900D02*
X199958025Y-186393328D01*
X199958025Y-186393328D02*
X199672311Y-186393328D01*
X199672311Y-186393328D02*
X199529454Y-186321900D01*
X199529454Y-186321900D02*
X199458025Y-186250471D01*
X199458025Y-186250471D02*
X199386597Y-186107614D01*
X199386597Y-186107614D02*
X199386597Y-185679042D01*
X199386597Y-185679042D02*
X199458025Y-185536185D01*
X199458025Y-185536185D02*
X199529454Y-185464757D01*
X199529454Y-185464757D02*
X199672311Y-185393328D01*
X199672311Y-185393328D02*
X199958025Y-185393328D01*
X199958025Y-185393328D02*
X200100883Y-185464757D01*
X201386597Y-186393328D02*
X201386597Y-185607614D01*
X201386597Y-185607614D02*
X201315168Y-185464757D01*
X201315168Y-185464757D02*
X201172311Y-185393328D01*
X201172311Y-185393328D02*
X200886597Y-185393328D01*
X200886597Y-185393328D02*
X200743739Y-185464757D01*
X201386597Y-186321900D02*
X201243739Y-186393328D01*
X201243739Y-186393328D02*
X200886597Y-186393328D01*
X200886597Y-186393328D02*
X200743739Y-186321900D01*
X200743739Y-186321900D02*
X200672311Y-186179042D01*
X200672311Y-186179042D02*
X200672311Y-186036185D01*
X200672311Y-186036185D02*
X200743739Y-185893328D01*
X200743739Y-185893328D02*
X200886597Y-185821900D01*
X200886597Y-185821900D02*
X201243739Y-185821900D01*
X201243739Y-185821900D02*
X201386597Y-185750471D01*
X202743740Y-186393328D02*
X202743740Y-184893328D01*
X202743740Y-186321900D02*
X202600882Y-186393328D01*
X202600882Y-186393328D02*
X202315168Y-186393328D01*
X202315168Y-186393328D02*
X202172311Y-186321900D01*
X202172311Y-186321900D02*
X202100882Y-186250471D01*
X202100882Y-186250471D02*
X202029454Y-186107614D01*
X202029454Y-186107614D02*
X202029454Y-185679042D01*
X202029454Y-185679042D02*
X202100882Y-185536185D01*
X202100882Y-185536185D02*
X202172311Y-185464757D01*
X202172311Y-185464757D02*
X202315168Y-185393328D01*
X202315168Y-185393328D02*
X202600882Y-185393328D01*
X202600882Y-185393328D02*
X202743740Y-185464757D01*
X203100883Y-186536185D02*
X204243740Y-186536185D01*
X204600882Y-185393328D02*
X204600882Y-186893328D01*
X204600882Y-185464757D02*
X204743740Y-185393328D01*
X204743740Y-185393328D02*
X205029454Y-185393328D01*
X205029454Y-185393328D02*
X205172311Y-185464757D01*
X205172311Y-185464757D02*
X205243740Y-185536185D01*
X205243740Y-185536185D02*
X205315168Y-185679042D01*
X205315168Y-185679042D02*
X205315168Y-186107614D01*
X205315168Y-186107614D02*
X205243740Y-186250471D01*
X205243740Y-186250471D02*
X205172311Y-186321900D01*
X205172311Y-186321900D02*
X205029454Y-186393328D01*
X205029454Y-186393328D02*
X204743740Y-186393328D01*
X204743740Y-186393328D02*
X204600882Y-186321900D01*
X206600883Y-186321900D02*
X206458025Y-186393328D01*
X206458025Y-186393328D02*
X206172311Y-186393328D01*
X206172311Y-186393328D02*
X206029454Y-186321900D01*
X206029454Y-186321900D02*
X205958025Y-186250471D01*
X205958025Y-186250471D02*
X205886597Y-186107614D01*
X205886597Y-186107614D02*
X205886597Y-185679042D01*
X205886597Y-185679042D02*
X205958025Y-185536185D01*
X205958025Y-185536185D02*
X206029454Y-185464757D01*
X206029454Y-185464757D02*
X206172311Y-185393328D01*
X206172311Y-185393328D02*
X206458025Y-185393328D01*
X206458025Y-185393328D02*
X206600883Y-185464757D01*
X207243739Y-186393328D02*
X207243739Y-184893328D01*
X207243739Y-185464757D02*
X207386597Y-185393328D01*
X207386597Y-185393328D02*
X207672311Y-185393328D01*
X207672311Y-185393328D02*
X207815168Y-185464757D01*
X207815168Y-185464757D02*
X207886597Y-185536185D01*
X207886597Y-185536185D02*
X207958025Y-185679042D01*
X207958025Y-185679042D02*
X207958025Y-186107614D01*
X207958025Y-186107614D02*
X207886597Y-186250471D01*
X207886597Y-186250471D02*
X207815168Y-186321900D01*
X207815168Y-186321900D02*
X207672311Y-186393328D01*
X207672311Y-186393328D02*
X207386597Y-186393328D01*
X207386597Y-186393328D02*
X207243739Y-186321900D01*
D10*
D11*
X177002200Y-181507200D02*
X285002200Y-181507200D01*
D10*
D11*
X178386598Y-183621900D02*
X178600884Y-183693328D01*
X178600884Y-183693328D02*
X178958026Y-183693328D01*
X178958026Y-183693328D02*
X179100884Y-183621900D01*
X179100884Y-183621900D02*
X179172312Y-183550471D01*
X179172312Y-183550471D02*
X179243741Y-183407614D01*
X179243741Y-183407614D02*
X179243741Y-183264757D01*
X179243741Y-183264757D02*
X179172312Y-183121900D01*
X179172312Y-183121900D02*
X179100884Y-183050471D01*
X179100884Y-183050471D02*
X178958026Y-182979042D01*
X178958026Y-182979042D02*
X178672312Y-182907614D01*
X178672312Y-182907614D02*
X178529455Y-182836185D01*
X178529455Y-182836185D02*
X178458026Y-182764757D01*
X178458026Y-182764757D02*
X178386598Y-182621900D01*
X178386598Y-182621900D02*
X178386598Y-182479042D01*
X178386598Y-182479042D02*
X178458026Y-182336185D01*
X178458026Y-182336185D02*
X178529455Y-182264757D01*
X178529455Y-182264757D02*
X178672312Y-182193328D01*
X178672312Y-182193328D02*
X179029455Y-182193328D01*
X179029455Y-182193328D02*
X179243741Y-182264757D01*
X179886597Y-183693328D02*
X179886597Y-182193328D01*
X180529455Y-183693328D02*
X180529455Y-182907614D01*
X180529455Y-182907614D02*
X180458026Y-182764757D01*
X180458026Y-182764757D02*
X180315169Y-182693328D01*
X180315169Y-182693328D02*
X180100883Y-182693328D01*
X180100883Y-182693328D02*
X179958026Y-182764757D01*
X179958026Y-182764757D02*
X179886597Y-182836185D01*
X181815169Y-183621900D02*
X181672312Y-183693328D01*
X181672312Y-183693328D02*
X181386598Y-183693328D01*
X181386598Y-183693328D02*
X181243740Y-183621900D01*
X181243740Y-183621900D02*
X181172312Y-183479042D01*
X181172312Y-183479042D02*
X181172312Y-182907614D01*
X181172312Y-182907614D02*
X181243740Y-182764757D01*
X181243740Y-182764757D02*
X181386598Y-182693328D01*
X181386598Y-182693328D02*
X181672312Y-182693328D01*
X181672312Y-182693328D02*
X181815169Y-182764757D01*
X181815169Y-182764757D02*
X181886598Y-182907614D01*
X181886598Y-182907614D02*
X181886598Y-183050471D01*
X181886598Y-183050471D02*
X181172312Y-183193328D01*
X183100883Y-183621900D02*
X182958026Y-183693328D01*
X182958026Y-183693328D02*
X182672312Y-183693328D01*
X182672312Y-183693328D02*
X182529454Y-183621900D01*
X182529454Y-183621900D02*
X182458026Y-183479042D01*
X182458026Y-183479042D02*
X182458026Y-182907614D01*
X182458026Y-182907614D02*
X182529454Y-182764757D01*
X182529454Y-182764757D02*
X182672312Y-182693328D01*
X182672312Y-182693328D02*
X182958026Y-182693328D01*
X182958026Y-182693328D02*
X183100883Y-182764757D01*
X183100883Y-182764757D02*
X183172312Y-182907614D01*
X183172312Y-182907614D02*
X183172312Y-183050471D01*
X183172312Y-183050471D02*
X182458026Y-183193328D01*
X183600883Y-182693328D02*
X184172311Y-182693328D01*
X183815168Y-182193328D02*
X183815168Y-183479042D01*
X183815168Y-183479042D02*
X183886597Y-183621900D01*
X183886597Y-183621900D02*
X184029454Y-183693328D01*
X184029454Y-183693328D02*
X184172311Y-183693328D01*
X184672311Y-183550471D02*
X184743740Y-183621900D01*
X184743740Y-183621900D02*
X184672311Y-183693328D01*
X184672311Y-183693328D02*
X184600883Y-183621900D01*
X184600883Y-183621900D02*
X184672311Y-183550471D01*
X184672311Y-183550471D02*
X184672311Y-183693328D01*
X184672311Y-182764757D02*
X184743740Y-182836185D01*
X184743740Y-182836185D02*
X184672311Y-182907614D01*
X184672311Y-182907614D02*
X184600883Y-182836185D01*
X184600883Y-182836185D02*
X184672311Y-182764757D01*
X184672311Y-182764757D02*
X184672311Y-182907614D01*
D10*
D12*
X178485282Y-180256957D02*
X179199568Y-180256957D01*
X178342425Y-180685528D02*
X178842425Y-179185528D01*
X178842425Y-179185528D02*
X179342425Y-180685528D01*
X179842424Y-180685528D02*
X179842424Y-179185528D01*
X179842424Y-179185528D02*
X180342424Y-180256957D01*
X180342424Y-180256957D02*
X180842424Y-179185528D01*
X180842424Y-179185528D02*
X180842424Y-180685528D01*
X181485282Y-180614100D02*
X181699568Y-180685528D01*
X181699568Y-180685528D02*
X182056710Y-180685528D01*
X182056710Y-180685528D02*
X182199568Y-180614100D01*
X182199568Y-180614100D02*
X182270996Y-180542671D01*
X182270996Y-180542671D02*
X182342425Y-180399814D01*
X182342425Y-180399814D02*
X182342425Y-180256957D01*
X182342425Y-180256957D02*
X182270996Y-180114100D01*
X182270996Y-180114100D02*
X182199568Y-180042671D01*
X182199568Y-180042671D02*
X182056710Y-179971242D01*
X182056710Y-179971242D02*
X181770996Y-179899814D01*
X181770996Y-179899814D02*
X181628139Y-179828385D01*
X181628139Y-179828385D02*
X181556710Y-179756957D01*
X181556710Y-179756957D02*
X181485282Y-179614100D01*
X181485282Y-179614100D02*
X181485282Y-179471242D01*
X181485282Y-179471242D02*
X181556710Y-179328385D01*
X181556710Y-179328385D02*
X181628139Y-179256957D01*
X181628139Y-179256957D02*
X181770996Y-179185528D01*
X181770996Y-179185528D02*
X182128139Y-179185528D01*
X182128139Y-179185528D02*
X182342425Y-179256957D01*
X182913853Y-180256957D02*
X183628139Y-180256957D01*
X182770996Y-180685528D02*
X183270996Y-179185528D01*
X183270996Y-179185528D02*
X183770996Y-180685528D01*
X184056710Y-179185528D02*
X184913853Y-179185528D01*
X184485281Y-180685528D02*
X184485281Y-179185528D01*
D10*
D11*
X197002200Y-191507200D02*
X197002200Y-194507200D01*
D10*
D11*
X261002200Y-191507200D02*
X261002200Y-198007200D01*
D14*
%TO.C,C294*%
X114080800Y-109940000D03*
X114080800Y-110630000D03*
%TD*%
D15*
%TO.C,C331*%
X146000800Y-144560000D03*
X145310800Y-144560000D03*
%TD*%
%TO.C,C354*%
X133409000Y-119200000D03*
X132719000Y-119200000D03*
%TD*%
D16*
%TO.C,C190*%
X107480800Y-119320000D03*
X107480800Y-118630000D03*
%TD*%
D14*
%TO.C,C309*%
X114530800Y-128855000D03*
X114530800Y-129545000D03*
%TD*%
D17*
%TO.C,R135*%
X130979000Y-121080000D03*
X131669000Y-121080000D03*
%TD*%
D15*
%TO.C,C178*%
X142855800Y-110030000D03*
X142165800Y-110030000D03*
%TD*%
D16*
%TO.C,C110*%
X160783301Y-120425300D03*
X160783301Y-119735300D03*
%TD*%
D14*
%TO.C,R154*%
X109350800Y-97310000D03*
X109350800Y-98000000D03*
%TD*%
D17*
%TO.C,C203*%
X142060800Y-144570000D03*
X142750800Y-144570000D03*
%TD*%
D15*
%TO.C,R101*%
X138015800Y-110080000D03*
X137325800Y-110080000D03*
%TD*%
%TO.C,C188*%
X107125800Y-133530000D03*
X106435800Y-133530000D03*
%TD*%
D18*
%TO.C,C200*%
X131955372Y-115640331D03*
X132443276Y-116128235D03*
%TD*%
D15*
%TO.C,C230*%
X133740800Y-117190000D03*
X133050800Y-117190000D03*
%TD*%
%TO.C,C307*%
X114030800Y-126230000D03*
X113340800Y-126230000D03*
%TD*%
D16*
%TO.C,R132*%
X106880800Y-106175000D03*
X106880800Y-105485000D03*
%TD*%
D15*
%TO.C,C229*%
X96775800Y-120530000D03*
X96085800Y-120530000D03*
%TD*%
D17*
%TO.C,C316*%
X111785800Y-126230000D03*
X112475800Y-126230000D03*
%TD*%
D19*
%TO.C,U42*%
X104355800Y-99805000D03*
X105405800Y-99805000D03*
X104355800Y-98755000D03*
X105405800Y-98755000D03*
D20*
X105855800Y-101230000D03*
X105205800Y-101230000D03*
X104555800Y-101230000D03*
X103905800Y-101230000D03*
D21*
X102930800Y-100255000D03*
X102930800Y-99605000D03*
X102930800Y-98955000D03*
X102930800Y-98305000D03*
D20*
X103905800Y-97330000D03*
X104555800Y-97330000D03*
X105205800Y-97330000D03*
X105855800Y-97330000D03*
D21*
X106830800Y-98305000D03*
X106830800Y-98955000D03*
X106830800Y-99605000D03*
X106830800Y-100255000D03*
%TD*%
D15*
%TO.C,R122*%
X99175800Y-113780000D03*
X98485800Y-113780000D03*
%TD*%
%TO.C,C207*%
X96745800Y-118130000D03*
X96055800Y-118130000D03*
%TD*%
D17*
%TO.C,C355*%
X133515800Y-121380000D03*
X134205800Y-121380000D03*
%TD*%
%TO.C,C204*%
X144115800Y-129130000D03*
X144805800Y-129130000D03*
%TD*%
D14*
%TO.C,C220*%
X127740800Y-132995000D03*
X127740800Y-133685000D03*
%TD*%
%TO.C,R164*%
X142400800Y-130580000D03*
X142400800Y-131270000D03*
%TD*%
D15*
%TO.C,R118*%
X99255800Y-116330000D03*
X98565800Y-116330000D03*
%TD*%
%TO.C,R115*%
X99125800Y-106980000D03*
X98435800Y-106980000D03*
%TD*%
D14*
%TO.C,R173*%
X141290800Y-130485000D03*
X141290800Y-131175000D03*
%TD*%
D22*
%TO.C,C222*%
X143180800Y-123730000D03*
X142220800Y-123730000D03*
%TD*%
D14*
%TO.C,C296*%
X115680800Y-114640000D03*
X115680800Y-115330000D03*
%TD*%
D17*
%TO.C,C290*%
X111115800Y-107280000D03*
X111805800Y-107280000D03*
%TD*%
%TO.C,R94*%
X105835800Y-116280000D03*
X106525800Y-116280000D03*
%TD*%
D18*
%TO.C,C106*%
X165109349Y-128946348D03*
X165597253Y-129434252D03*
%TD*%
D23*
%TO.C,C109*%
X157993301Y-130780300D03*
X157993301Y-129820300D03*
%TD*%
D15*
%TO.C,C292*%
X113375800Y-107280000D03*
X112685800Y-107280000D03*
%TD*%
D22*
%TO.C,C191*%
X96110800Y-114630000D03*
X95150800Y-114630000D03*
%TD*%
D15*
%TO.C,C236*%
X137630800Y-112680000D03*
X136940800Y-112680000D03*
%TD*%
%TO.C,R127*%
X99170800Y-111230000D03*
X98480800Y-111230000D03*
%TD*%
D17*
%TO.C,C311*%
X107640800Y-134330000D03*
X108330800Y-134330000D03*
%TD*%
D15*
%TO.C,R100*%
X140215800Y-110080000D03*
X139525800Y-110080000D03*
%TD*%
D24*
%TO.C,C215*%
X137660800Y-105280000D03*
X137660800Y-106240000D03*
%TD*%
D14*
%TO.C,R78*%
X138930800Y-100605000D03*
X138930800Y-101295000D03*
%TD*%
%TO.C,C319*%
X110180800Y-132785000D03*
X110180800Y-133475000D03*
%TD*%
D16*
%TO.C,C227*%
X137680800Y-118425000D03*
X137680800Y-117735000D03*
%TD*%
D14*
%TO.C,R168*%
X143970800Y-130715000D03*
X143970800Y-131405000D03*
%TD*%
D15*
%TO.C,C337*%
X139585800Y-145520000D03*
X138895800Y-145520000D03*
%TD*%
%TO.C,R163*%
X99330800Y-122280000D03*
X98640800Y-122280000D03*
%TD*%
D17*
%TO.C,C300*%
X112915800Y-116230000D03*
X113605800Y-116230000D03*
%TD*%
D14*
%TO.C,C350*%
X130634000Y-126910000D03*
X130634000Y-127600000D03*
%TD*%
D23*
%TO.C,C218*%
X134530800Y-109330000D03*
X134530800Y-108370000D03*
%TD*%
D16*
%TO.C,R153*%
X108230800Y-100460000D03*
X108230800Y-99770000D03*
%TD*%
%TO.C,C339*%
X144630800Y-125375000D03*
X144630800Y-124685000D03*
%TD*%
D15*
%TO.C,C301*%
X111820800Y-116280000D03*
X111130800Y-116280000D03*
%TD*%
%TO.C,C289*%
X108645800Y-108280000D03*
X107955800Y-108280000D03*
%TD*%
D25*
%TO.C,C257*%
X128630800Y-108942500D03*
X128630800Y-105992500D03*
%TD*%
D14*
%TO.C,C361*%
X146810800Y-147105000D03*
X146810800Y-147795000D03*
%TD*%
%TO.C,R167*%
X138790800Y-130525000D03*
X138790800Y-131215000D03*
%TD*%
D17*
%TO.C,C312*%
X113635800Y-135280000D03*
X114325800Y-135280000D03*
%TD*%
D15*
%TO.C,C286*%
X104680800Y-107280000D03*
X103990800Y-107280000D03*
%TD*%
%TO.C,C205*%
X96745800Y-113030000D03*
X96055800Y-113030000D03*
%TD*%
D22*
%TO.C,C125*%
X161523301Y-131560300D03*
X160563301Y-131560300D03*
%TD*%
D16*
%TO.C,R56*%
X162523301Y-132385300D03*
X162523301Y-131695300D03*
%TD*%
%TO.C,C262*%
X106030800Y-104625000D03*
X106030800Y-103935000D03*
%TD*%
D15*
%TO.C,C285*%
X102945800Y-116330000D03*
X102255800Y-116330000D03*
%TD*%
D16*
%TO.C,C250*%
X101770800Y-96895000D03*
X101770800Y-96205000D03*
%TD*%
D15*
%TO.C,C341*%
X135550800Y-144540000D03*
X134860800Y-144540000D03*
%TD*%
%TO.C,C174*%
X142760800Y-103335000D03*
X142070800Y-103335000D03*
%TD*%
D24*
%TO.C,C241*%
X137680800Y-119830000D03*
X137680800Y-120790000D03*
%TD*%
D15*
%TO.C,C287*%
X104680800Y-116230000D03*
X103990800Y-116230000D03*
%TD*%
D25*
%TO.C,C213*%
X132230800Y-108892500D03*
X132230800Y-105942500D03*
%TD*%
D15*
%TO.C,R128*%
X99180800Y-112930000D03*
X98490800Y-112930000D03*
%TD*%
D14*
%TO.C,C342*%
X143180800Y-117435000D03*
X143180800Y-118125000D03*
%TD*%
D17*
%TO.C,R165*%
X148060800Y-127010000D03*
X148750800Y-127010000D03*
%TD*%
D15*
%TO.C,C280*%
X144830800Y-115080000D03*
X144140800Y-115080000D03*
%TD*%
D17*
%TO.C,C297*%
X107085800Y-115330000D03*
X107775800Y-115330000D03*
%TD*%
%TO.C,C314*%
X110085800Y-135280000D03*
X110775800Y-135280000D03*
%TD*%
D15*
%TO.C,C330*%
X145320800Y-145820000D03*
X144630800Y-145820000D03*
%TD*%
%TO.C,C293*%
X114970800Y-107280000D03*
X114280800Y-107280000D03*
%TD*%
%TO.C,C284*%
X102945800Y-107180000D03*
X102255800Y-107180000D03*
%TD*%
D16*
%TO.C,C261*%
X107730800Y-104605000D03*
X107730800Y-103915000D03*
%TD*%
D26*
%TO.C,R157*%
X114448300Y-94305000D03*
X116273300Y-94305000D03*
%TD*%
D23*
%TO.C,C206*%
X138450800Y-129345000D03*
X138450800Y-128385000D03*
%TD*%
D14*
%TO.C,C349*%
X134894000Y-124980000D03*
X134894000Y-125670000D03*
%TD*%
D23*
%TO.C,C165*%
X135624000Y-122390000D03*
X135624000Y-121430000D03*
%TD*%
D14*
%TO.C,R140*%
X141440800Y-148780000D03*
X141440800Y-149470000D03*
%TD*%
%TO.C,R178*%
X135790800Y-129930000D03*
X135790800Y-130620000D03*
%TD*%
D15*
%TO.C,R130*%
X127745800Y-116325000D03*
X127055800Y-116325000D03*
%TD*%
D14*
%TO.C,R181*%
X133670800Y-127015000D03*
X133670800Y-127705000D03*
%TD*%
D15*
%TO.C,R110*%
X99325800Y-118880000D03*
X98635800Y-118880000D03*
%TD*%
D14*
%TO.C,C363*%
X148430800Y-152145000D03*
X148430800Y-152835000D03*
%TD*%
D15*
%TO.C,R107*%
X125475800Y-122280000D03*
X124785800Y-122280000D03*
%TD*%
D17*
%TO.C,R171*%
X148045800Y-126220000D03*
X148735800Y-126220000D03*
%TD*%
D27*
%TO.C,C256*%
X138236848Y-122373952D03*
X138724752Y-121886048D03*
%TD*%
D15*
%TO.C,C340*%
X141320800Y-145540000D03*
X140630800Y-145540000D03*
%TD*%
D26*
%TO.C,R156*%
X110675800Y-94285000D03*
X112500800Y-94285000D03*
%TD*%
D17*
%TO.C,C189*%
X109990800Y-126230000D03*
X110680800Y-126230000D03*
%TD*%
D18*
%TO.C,C356*%
X128992896Y-123492096D03*
X129480800Y-123980000D03*
%TD*%
D23*
%TO.C,C105*%
X159773301Y-120400300D03*
X159773301Y-119440300D03*
%TD*%
D28*
%TO.C,C173*%
X143720800Y-110080000D03*
X144680800Y-110080000D03*
%TD*%
D14*
%TO.C,R147*%
X143180800Y-130585000D03*
X143180800Y-131275000D03*
%TD*%
D18*
%TO.C,C232*%
X132866848Y-122696048D03*
X133354752Y-123183952D03*
%TD*%
D15*
%TO.C,R121*%
X99275800Y-117180000D03*
X98585800Y-117180000D03*
%TD*%
D17*
%TO.C,C352*%
X130179000Y-130590000D03*
X130869000Y-130590000D03*
%TD*%
D16*
%TO.C,C108*%
X156223301Y-122080300D03*
X156223301Y-121390300D03*
%TD*%
D15*
%TO.C,C332*%
X135630800Y-153540000D03*
X134940800Y-153540000D03*
%TD*%
D14*
%TO.C,R180*%
X133060800Y-130205000D03*
X133060800Y-130895000D03*
%TD*%
D17*
%TO.C,C328*%
X142215800Y-153610000D03*
X142905800Y-153610000D03*
%TD*%
D15*
%TO.C,C327*%
X137255800Y-153530000D03*
X136565800Y-153530000D03*
%TD*%
D14*
%TO.C,R176*%
X137850800Y-130640000D03*
X137850800Y-131330000D03*
%TD*%
D17*
%TO.C,C107*%
X161888301Y-130050300D03*
X162578301Y-130050300D03*
%TD*%
D28*
%TO.C,C97*%
X160153301Y-129060300D03*
X161113301Y-129060300D03*
%TD*%
D15*
%TO.C,C346*%
X135144000Y-127940000D03*
X134454000Y-127940000D03*
%TD*%
%TO.C,C333*%
X144515800Y-153610000D03*
X143825800Y-153610000D03*
%TD*%
%TO.C,R141*%
X139585800Y-153570000D03*
X138895800Y-153570000D03*
%TD*%
D23*
%TO.C,C194*%
X110030800Y-103810000D03*
X110030800Y-102850000D03*
%TD*%
D15*
%TO.C,C315*%
X109080800Y-127230000D03*
X108390800Y-127230000D03*
%TD*%
D29*
%TO.C,C279*%
X133874752Y-125236048D03*
X133386848Y-125723952D03*
%TD*%
D16*
%TO.C,C351*%
X145880800Y-123295000D03*
X145880800Y-122605000D03*
%TD*%
D17*
%TO.C,C187*%
X109440800Y-107280000D03*
X110130800Y-107280000D03*
%TD*%
D15*
%TO.C,C313*%
X112375800Y-135280000D03*
X111685800Y-135280000D03*
%TD*%
%TO.C,R119*%
X99125800Y-109530000D03*
X98435800Y-109530000D03*
%TD*%
D16*
%TO.C,R125*%
X106030800Y-106180000D03*
X106030800Y-105490000D03*
%TD*%
D28*
%TO.C,C103*%
X159343301Y-132640300D03*
X160303301Y-132640300D03*
%TD*%
D15*
%TO.C,R98*%
X107615800Y-135530000D03*
X106925800Y-135530000D03*
%TD*%
D18*
%TO.C,C329*%
X129892896Y-115492096D03*
X130380800Y-115980000D03*
%TD*%
%TO.C,C226*%
X134313122Y-117912322D03*
X134801026Y-118400226D03*
%TD*%
D15*
%TO.C,C306*%
X107430800Y-127230000D03*
X106740800Y-127230000D03*
%TD*%
%TO.C,R103*%
X141165800Y-124530000D03*
X140475800Y-124530000D03*
%TD*%
%TO.C,R124*%
X99180800Y-114630000D03*
X98490800Y-114630000D03*
%TD*%
D17*
%TO.C,C264*%
X141184000Y-109170000D03*
X141874000Y-109170000D03*
%TD*%
D15*
%TO.C,C310*%
X113030800Y-128230000D03*
X112340800Y-128230000D03*
%TD*%
D17*
%TO.C,C320*%
X112535800Y-134080000D03*
X113225800Y-134080000D03*
%TD*%
D14*
%TO.C,R139*%
X140290800Y-148770000D03*
X140290800Y-149460000D03*
%TD*%
D17*
%TO.C,C336*%
X143685800Y-144560000D03*
X144375800Y-144560000D03*
%TD*%
D15*
%TO.C,R114*%
X99330800Y-120580000D03*
X98640800Y-120580000D03*
%TD*%
%TO.C,C291*%
X112630800Y-109530000D03*
X111940800Y-109530000D03*
%TD*%
D17*
%TO.C,C295*%
X109485800Y-116280000D03*
X110175800Y-116280000D03*
%TD*%
D16*
%TO.C,R113*%
X105180800Y-106150000D03*
X105180800Y-105460000D03*
%TD*%
D14*
%TO.C,R88*%
X144120800Y-100645000D03*
X144120800Y-101335000D03*
%TD*%
%TO.C,R106*%
X126880800Y-126280000D03*
X126880800Y-126970000D03*
%TD*%
D15*
%TO.C,C304*%
X103345800Y-135330000D03*
X102655800Y-135330000D03*
%TD*%
%TO.C,C260*%
X96730800Y-110380000D03*
X96040800Y-110380000D03*
%TD*%
%TO.C,R120*%
X99180800Y-112080000D03*
X98490800Y-112080000D03*
%TD*%
D24*
%TO.C,C171*%
X146380800Y-116100000D03*
X146380800Y-117060000D03*
%TD*%
D15*
%TO.C,R123*%
X99125800Y-110380000D03*
X98435800Y-110380000D03*
%TD*%
%TO.C,C202*%
X139255800Y-151880000D03*
X138565800Y-151880000D03*
%TD*%
D17*
%TO.C,R89*%
X144510800Y-108380000D03*
X145200800Y-108380000D03*
%TD*%
D14*
%TO.C,C344*%
X137980800Y-124205000D03*
X137980800Y-124895000D03*
%TD*%
D15*
%TO.C,R112*%
X99125800Y-108680000D03*
X98435800Y-108680000D03*
%TD*%
%TO.C,C335*%
X137295800Y-144540000D03*
X136605800Y-144540000D03*
%TD*%
D22*
%TO.C,C353*%
X128290800Y-115440000D03*
X127330800Y-115440000D03*
%TD*%
D18*
%TO.C,C357*%
X130836848Y-118486048D03*
X131324752Y-118973952D03*
%TD*%
D14*
%TO.C,C208*%
X139460800Y-148770000D03*
X139460800Y-149460000D03*
%TD*%
%TO.C,C263*%
X130574000Y-113235000D03*
X130574000Y-113925000D03*
%TD*%
D23*
%TO.C,C228*%
X126850800Y-109160000D03*
X126850800Y-108200000D03*
%TD*%
D15*
%TO.C,C308*%
X115725800Y-126230000D03*
X115035800Y-126230000D03*
%TD*%
D14*
%TO.C,R175*%
X139600800Y-130520000D03*
X139600800Y-131210000D03*
%TD*%
D17*
%TO.C,C224*%
X134715800Y-120480000D03*
X135405800Y-120480000D03*
%TD*%
D22*
%TO.C,C192*%
X96110800Y-105580000D03*
X95150800Y-105580000D03*
%TD*%
D14*
%TO.C,C323*%
X142370800Y-151085000D03*
X142370800Y-151775000D03*
%TD*%
D18*
%TO.C,C225*%
X133892896Y-122632096D03*
X134380800Y-123120000D03*
%TD*%
D15*
%TO.C,C305*%
X103395800Y-126130000D03*
X102705800Y-126130000D03*
%TD*%
D17*
%TO.C,R170*%
X148058300Y-124020000D03*
X148748300Y-124020000D03*
%TD*%
D30*
%TO.C,C162*%
X130444000Y-132555000D03*
X130444000Y-135505000D03*
%TD*%
D31*
%TO.C,C217*%
X139068300Y-108130000D03*
X136118300Y-108130000D03*
%TD*%
D14*
%TO.C,R104*%
X138960800Y-143430000D03*
X138960800Y-144120000D03*
%TD*%
D15*
%TO.C,C231*%
X96730800Y-107880000D03*
X96040800Y-107880000D03*
%TD*%
D22*
%TO.C,C193*%
X96430800Y-122790000D03*
X95470800Y-122790000D03*
%TD*%
D15*
%TO.C,R108*%
X125480800Y-121480000D03*
X124790800Y-121480000D03*
%TD*%
D17*
%TO.C,C278*%
X136385800Y-124480000D03*
X137075800Y-124480000D03*
%TD*%
D15*
%TO.C,R95*%
X109180800Y-119330000D03*
X108490800Y-119330000D03*
%TD*%
D16*
%TO.C,R131*%
X108530800Y-106225000D03*
X108530800Y-105535000D03*
%TD*%
D14*
%TO.C,C324*%
X142780800Y-125190000D03*
X142780800Y-125880000D03*
%TD*%
D17*
%TO.C,R166*%
X145255800Y-131310000D03*
X145945800Y-131310000D03*
%TD*%
D15*
%TO.C,R111*%
X99305800Y-118030000D03*
X98615800Y-118030000D03*
%TD*%
%TO.C,C197*%
X96745800Y-116480000D03*
X96055800Y-116480000D03*
%TD*%
%TO.C,C347*%
X136079000Y-126840000D03*
X135389000Y-126840000D03*
%TD*%
%TO.C,C321*%
X105105800Y-135230000D03*
X104415800Y-135230000D03*
%TD*%
%TO.C,R129*%
X99225800Y-115480000D03*
X98535800Y-115480000D03*
%TD*%
D32*
%TO.C,C101*%
X159027253Y-129264252D03*
X158539349Y-128776348D03*
%TD*%
D24*
%TO.C,C166*%
X143364000Y-119680000D03*
X143364000Y-120640000D03*
%TD*%
D14*
%TO.C,R77*%
X136420800Y-100645000D03*
X136420800Y-101335000D03*
%TD*%
D17*
%TO.C,R172*%
X148040800Y-125360000D03*
X148730800Y-125360000D03*
%TD*%
%TO.C,R169*%
X148030800Y-127850000D03*
X148720800Y-127850000D03*
%TD*%
D33*
%TO.C,C223*%
X132620211Y-123769411D03*
X131941389Y-123090589D03*
%TD*%
D27*
%TO.C,C182*%
X140686848Y-112823952D03*
X141174752Y-112336048D03*
%TD*%
D17*
%TO.C,C338*%
X145760800Y-153610000D03*
X146450800Y-153610000D03*
%TD*%
%TO.C,C198*%
X144710800Y-152440000D03*
X145400800Y-152440000D03*
%TD*%
D14*
%TO.C,R177*%
X136640800Y-129900000D03*
X136640800Y-130590000D03*
%TD*%
D17*
%TO.C,R96*%
X108340800Y-118530000D03*
X109030800Y-118530000D03*
%TD*%
D15*
%TO.C,C288*%
X106830800Y-108280000D03*
X106140800Y-108280000D03*
%TD*%
D14*
%TO.C,C212*%
X135810800Y-105235000D03*
X135810800Y-105925000D03*
%TD*%
%TO.C,C334*%
X141930800Y-128085000D03*
X141930800Y-128775000D03*
%TD*%
D29*
%TO.C,C343*%
X132698478Y-110712322D03*
X132210574Y-111200226D03*
%TD*%
D14*
%TO.C,C216*%
X136710800Y-105235000D03*
X136710800Y-105925000D03*
%TD*%
%TO.C,C362*%
X142290800Y-148780000D03*
X142290800Y-149470000D03*
%TD*%
%TO.C,C299*%
X109680800Y-113785000D03*
X109680800Y-114475000D03*
%TD*%
D15*
%TO.C,C326*%
X147700800Y-144510000D03*
X147010800Y-144510000D03*
%TD*%
D27*
%TO.C,C219*%
X135136848Y-119250226D03*
X135624752Y-118762322D03*
%TD*%
D14*
%TO.C,C180*%
X145480800Y-118235000D03*
X145480800Y-118925000D03*
%TD*%
D15*
%TO.C,C253*%
X113410800Y-96865000D03*
X112720800Y-96865000D03*
%TD*%
%TO.C,R116*%
X99330800Y-119730000D03*
X98640800Y-119730000D03*
%TD*%
D34*
%TO.C,C234*%
X140591389Y-121919411D03*
X141270211Y-121240589D03*
%TD*%
D15*
%TO.C,C317*%
X105130800Y-126230000D03*
X104440800Y-126230000D03*
%TD*%
D23*
%TO.C,C214*%
X136030800Y-117510000D03*
X136030800Y-116550000D03*
%TD*%
D14*
%TO.C,C318*%
X116280800Y-133680000D03*
X116280800Y-134370000D03*
%TD*%
D17*
%TO.C,C104*%
X163980800Y-120535000D03*
X164670800Y-120535000D03*
%TD*%
D14*
%TO.C,R79*%
X141510800Y-100605000D03*
X141510800Y-101295000D03*
%TD*%
D17*
%TO.C,C176*%
X143285800Y-113680000D03*
X143975800Y-113680000D03*
%TD*%
D15*
%TO.C,R117*%
X99125800Y-107830000D03*
X98435800Y-107830000D03*
%TD*%
D14*
%TO.C,R174*%
X140440800Y-130525000D03*
X140440800Y-131215000D03*
%TD*%
D27*
%TO.C,C281*%
X140710574Y-116800226D03*
X141198478Y-116312322D03*
%TD*%
D16*
%TO.C,R133*%
X107730800Y-106195000D03*
X107730800Y-105505000D03*
%TD*%
D14*
%TO.C,R151*%
X107220800Y-95280000D03*
X107220800Y-95970000D03*
%TD*%
D17*
%TO.C,C111*%
X159743301Y-130560300D03*
X160433301Y-130560300D03*
%TD*%
D15*
%TO.C,R109*%
X128480800Y-126330000D03*
X127790800Y-126330000D03*
%TD*%
D16*
%TO.C,R155*%
X109370800Y-100450000D03*
X109370800Y-99760000D03*
%TD*%
D17*
%TO.C,C325*%
X139690800Y-152660000D03*
X140380800Y-152660000D03*
%TD*%
D15*
%TO.C,C239*%
X136880800Y-115080000D03*
X136190800Y-115080000D03*
%TD*%
D24*
%TO.C,C172*%
X128640800Y-133130000D03*
X128640800Y-134090000D03*
%TD*%
D32*
%TO.C,C243*%
X133874752Y-116023952D03*
X133386848Y-115536048D03*
%TD*%
D14*
%TO.C,R136*%
X135450800Y-123255000D03*
X135450800Y-123945000D03*
%TD*%
%TO.C,R152*%
X108210800Y-97320000D03*
X108210800Y-98010000D03*
%TD*%
D15*
%TO.C,C186*%
X106670800Y-114530000D03*
X105980800Y-114530000D03*
%TD*%
D34*
%TO.C,C164*%
X132654000Y-112690000D03*
X133332822Y-112011178D03*
%TD*%
D14*
%TO.C,R179*%
X134920800Y-129960000D03*
X134920800Y-130650000D03*
%TD*%
D15*
%TO.C,R126*%
X99330800Y-121430000D03*
X98640800Y-121430000D03*
%TD*%
D17*
%TO.C,C255*%
X139235800Y-117480000D03*
X139925800Y-117480000D03*
%TD*%
%TO.C,C298*%
X111785800Y-115030000D03*
X112475800Y-115030000D03*
%TD*%
D35*
X179890800Y-160820000D02*
X179890800Y-81820000D01*
X87890800Y-81820000D02*
G75*
G02*
X94390800Y-75320000I6500000J0D01*
G01*
X94390800Y-167320000D02*
X173390800Y-167320000D01*
X173390800Y-75320000D02*
X94390800Y-75320000D01*
X179890800Y-160820000D02*
G75*
G02*
X173390800Y-167320000I-6500000J0D01*
G01*
X94390800Y-167320000D02*
G75*
G02*
X87890800Y-160820000I0J6500000D01*
G01*
X87890800Y-81820000D02*
X87890800Y-160820000D01*
X173390800Y-75320000D02*
G75*
G02*
X179890800Y-81820000I0J-6500000D01*
G01*
M02*
