%TF.GenerationSoftware,KiCad,Pcbnew,9.0.7*%
%TF.CreationDate,2026-03-25T15:14:34-04:00*%
%TF.ProjectId,AMSAT_SDR,414d5341-545f-4534-9452-2e6b69636164,WA1CYB-revB*%
%TF.SameCoordinates,Original*%
%TF.FileFunction,Legend,Top*%
%TF.FilePolarity,Positive*%
%FSLAX46Y46*%
G04 Gerber Fmt 4.6, Leading zero omitted, Abs format (unit mm)*
G04 Created by KiCad (PCBNEW 9.0.7) date 2026-03-25 15:14:34*
%MOMM*%
%LPD*%
G01*
G04 APERTURE LIST*
%ADD10C,0.100000*%
%ADD11C,0.150000*%
%ADD12C,0.300000*%
%ADD13C,0.400000*%
%ADD14C,0.225000*%
%ADD15C,0.209252*%
%ADD16C,0.200000*%
%ADD17C,0.120000*%
%ADD18C,0.127000*%
%ADD19C,0.152400*%
%ADD20C,0.000000*%
%ADD21C,0.250000*%
%TA.AperFunction,Profile*%
%ADD22C,0.050000*%
%TD*%
G04 APERTURE END LIST*
D10*
D11*
X177002200Y-166007200D02*
X285002200Y-166007200D01*
X285002200Y-198007200D01*
X177002200Y-198007200D01*
X177002200Y-166007200D01*
D10*
D11*
X10000000Y-10000000D02*
X287002200Y-10000000D01*
X287002200Y-200007200D01*
X10000000Y-200007200D01*
X10000000Y-10000000D01*
D10*
D11*
X12000000Y-12000000D02*
X285002200Y-12000000D01*
X285002200Y-198007200D01*
X12000000Y-198007200D01*
X12000000Y-12000000D01*
D10*
D11*
X60000000Y-12000000D02*
X60000000Y-10000000D01*
D10*
D11*
X110000000Y-12000000D02*
X110000000Y-10000000D01*
D10*
D11*
X160000000Y-12000000D02*
X160000000Y-10000000D01*
D10*
D11*
X210000000Y-12000000D02*
X210000000Y-10000000D01*
D10*
D11*
X260000000Y-12000000D02*
X260000000Y-10000000D01*
D10*
D11*
X36089160Y-11593604D02*
X35346303Y-11593604D01*
X35717731Y-11593604D02*
X35717731Y-10293604D01*
X35717731Y-10293604D02*
X35593922Y-10479319D01*
X35593922Y-10479319D02*
X35470112Y-10603128D01*
X35470112Y-10603128D02*
X35346303Y-10665033D01*
D10*
D11*
X85346303Y-10417414D02*
X85408207Y-10355509D01*
X85408207Y-10355509D02*
X85532017Y-10293604D01*
X85532017Y-10293604D02*
X85841541Y-10293604D01*
X85841541Y-10293604D02*
X85965350Y-10355509D01*
X85965350Y-10355509D02*
X86027255Y-10417414D01*
X86027255Y-10417414D02*
X86089160Y-10541223D01*
X86089160Y-10541223D02*
X86089160Y-10665033D01*
X86089160Y-10665033D02*
X86027255Y-10850747D01*
X86027255Y-10850747D02*
X85284398Y-11593604D01*
X85284398Y-11593604D02*
X86089160Y-11593604D01*
D10*
D11*
X135284398Y-10293604D02*
X136089160Y-10293604D01*
X136089160Y-10293604D02*
X135655826Y-10788842D01*
X135655826Y-10788842D02*
X135841541Y-10788842D01*
X135841541Y-10788842D02*
X135965350Y-10850747D01*
X135965350Y-10850747D02*
X136027255Y-10912652D01*
X136027255Y-10912652D02*
X136089160Y-11036461D01*
X136089160Y-11036461D02*
X136089160Y-11345985D01*
X136089160Y-11345985D02*
X136027255Y-11469795D01*
X136027255Y-11469795D02*
X135965350Y-11531700D01*
X135965350Y-11531700D02*
X135841541Y-11593604D01*
X135841541Y-11593604D02*
X135470112Y-11593604D01*
X135470112Y-11593604D02*
X135346303Y-11531700D01*
X135346303Y-11531700D02*
X135284398Y-11469795D01*
D10*
D11*
X185965350Y-10726938D02*
X185965350Y-11593604D01*
X185655826Y-10231700D02*
X185346303Y-11160271D01*
X185346303Y-11160271D02*
X186151064Y-11160271D01*
D10*
D11*
X236027255Y-10293604D02*
X235408207Y-10293604D01*
X235408207Y-10293604D02*
X235346303Y-10912652D01*
X235346303Y-10912652D02*
X235408207Y-10850747D01*
X235408207Y-10850747D02*
X235532017Y-10788842D01*
X235532017Y-10788842D02*
X235841541Y-10788842D01*
X235841541Y-10788842D02*
X235965350Y-10850747D01*
X235965350Y-10850747D02*
X236027255Y-10912652D01*
X236027255Y-10912652D02*
X236089160Y-11036461D01*
X236089160Y-11036461D02*
X236089160Y-11345985D01*
X236089160Y-11345985D02*
X236027255Y-11469795D01*
X236027255Y-11469795D02*
X235965350Y-11531700D01*
X235965350Y-11531700D02*
X235841541Y-11593604D01*
X235841541Y-11593604D02*
X235532017Y-11593604D01*
X235532017Y-11593604D02*
X235408207Y-11531700D01*
X235408207Y-11531700D02*
X235346303Y-11469795D01*
D10*
D11*
X285965350Y-10293604D02*
X285717731Y-10293604D01*
X285717731Y-10293604D02*
X285593922Y-10355509D01*
X285593922Y-10355509D02*
X285532017Y-10417414D01*
X285532017Y-10417414D02*
X285408207Y-10603128D01*
X285408207Y-10603128D02*
X285346303Y-10850747D01*
X285346303Y-10850747D02*
X285346303Y-11345985D01*
X285346303Y-11345985D02*
X285408207Y-11469795D01*
X285408207Y-11469795D02*
X285470112Y-11531700D01*
X285470112Y-11531700D02*
X285593922Y-11593604D01*
X285593922Y-11593604D02*
X285841541Y-11593604D01*
X285841541Y-11593604D02*
X285965350Y-11531700D01*
X285965350Y-11531700D02*
X286027255Y-11469795D01*
X286027255Y-11469795D02*
X286089160Y-11345985D01*
X286089160Y-11345985D02*
X286089160Y-11036461D01*
X286089160Y-11036461D02*
X286027255Y-10912652D01*
X286027255Y-10912652D02*
X285965350Y-10850747D01*
X285965350Y-10850747D02*
X285841541Y-10788842D01*
X285841541Y-10788842D02*
X285593922Y-10788842D01*
X285593922Y-10788842D02*
X285470112Y-10850747D01*
X285470112Y-10850747D02*
X285408207Y-10912652D01*
X285408207Y-10912652D02*
X285346303Y-11036461D01*
D10*
D11*
X60000000Y-198007200D02*
X60000000Y-200007200D01*
D10*
D11*
X110000000Y-198007200D02*
X110000000Y-200007200D01*
D10*
D11*
X160000000Y-198007200D02*
X160000000Y-200007200D01*
D10*
D11*
X210000000Y-198007200D02*
X210000000Y-200007200D01*
D10*
D11*
X260000000Y-198007200D02*
X260000000Y-200007200D01*
D10*
D11*
X36089160Y-199600804D02*
X35346303Y-199600804D01*
X35717731Y-199600804D02*
X35717731Y-198300804D01*
X35717731Y-198300804D02*
X35593922Y-198486519D01*
X35593922Y-198486519D02*
X35470112Y-198610328D01*
X35470112Y-198610328D02*
X35346303Y-198672233D01*
D10*
D11*
X85346303Y-198424614D02*
X85408207Y-198362709D01*
X85408207Y-198362709D02*
X85532017Y-198300804D01*
X85532017Y-198300804D02*
X85841541Y-198300804D01*
X85841541Y-198300804D02*
X85965350Y-198362709D01*
X85965350Y-198362709D02*
X86027255Y-198424614D01*
X86027255Y-198424614D02*
X86089160Y-198548423D01*
X86089160Y-198548423D02*
X86089160Y-198672233D01*
X86089160Y-198672233D02*
X86027255Y-198857947D01*
X86027255Y-198857947D02*
X85284398Y-199600804D01*
X85284398Y-199600804D02*
X86089160Y-199600804D01*
D10*
D11*
X135284398Y-198300804D02*
X136089160Y-198300804D01*
X136089160Y-198300804D02*
X135655826Y-198796042D01*
X135655826Y-198796042D02*
X135841541Y-198796042D01*
X135841541Y-198796042D02*
X135965350Y-198857947D01*
X135965350Y-198857947D02*
X136027255Y-198919852D01*
X136027255Y-198919852D02*
X136089160Y-199043661D01*
X136089160Y-199043661D02*
X136089160Y-199353185D01*
X136089160Y-199353185D02*
X136027255Y-199476995D01*
X136027255Y-199476995D02*
X135965350Y-199538900D01*
X135965350Y-199538900D02*
X135841541Y-199600804D01*
X135841541Y-199600804D02*
X135470112Y-199600804D01*
X135470112Y-199600804D02*
X135346303Y-199538900D01*
X135346303Y-199538900D02*
X135284398Y-199476995D01*
D10*
D11*
X185965350Y-198734138D02*
X185965350Y-199600804D01*
X185655826Y-198238900D02*
X185346303Y-199167471D01*
X185346303Y-199167471D02*
X186151064Y-199167471D01*
D10*
D11*
X236027255Y-198300804D02*
X235408207Y-198300804D01*
X235408207Y-198300804D02*
X235346303Y-198919852D01*
X235346303Y-198919852D02*
X235408207Y-198857947D01*
X235408207Y-198857947D02*
X235532017Y-198796042D01*
X235532017Y-198796042D02*
X235841541Y-198796042D01*
X235841541Y-198796042D02*
X235965350Y-198857947D01*
X235965350Y-198857947D02*
X236027255Y-198919852D01*
X236027255Y-198919852D02*
X236089160Y-199043661D01*
X236089160Y-199043661D02*
X236089160Y-199353185D01*
X236089160Y-199353185D02*
X236027255Y-199476995D01*
X236027255Y-199476995D02*
X235965350Y-199538900D01*
X235965350Y-199538900D02*
X235841541Y-199600804D01*
X235841541Y-199600804D02*
X235532017Y-199600804D01*
X235532017Y-199600804D02*
X235408207Y-199538900D01*
X235408207Y-199538900D02*
X235346303Y-199476995D01*
D10*
D11*
X285965350Y-198300804D02*
X285717731Y-198300804D01*
X285717731Y-198300804D02*
X285593922Y-198362709D01*
X285593922Y-198362709D02*
X285532017Y-198424614D01*
X285532017Y-198424614D02*
X285408207Y-198610328D01*
X285408207Y-198610328D02*
X285346303Y-198857947D01*
X285346303Y-198857947D02*
X285346303Y-199353185D01*
X285346303Y-199353185D02*
X285408207Y-199476995D01*
X285408207Y-199476995D02*
X285470112Y-199538900D01*
X285470112Y-199538900D02*
X285593922Y-199600804D01*
X285593922Y-199600804D02*
X285841541Y-199600804D01*
X285841541Y-199600804D02*
X285965350Y-199538900D01*
X285965350Y-199538900D02*
X286027255Y-199476995D01*
X286027255Y-199476995D02*
X286089160Y-199353185D01*
X286089160Y-199353185D02*
X286089160Y-199043661D01*
X286089160Y-199043661D02*
X286027255Y-198919852D01*
X286027255Y-198919852D02*
X285965350Y-198857947D01*
X285965350Y-198857947D02*
X285841541Y-198796042D01*
X285841541Y-198796042D02*
X285593922Y-198796042D01*
X285593922Y-198796042D02*
X285470112Y-198857947D01*
X285470112Y-198857947D02*
X285408207Y-198919852D01*
X285408207Y-198919852D02*
X285346303Y-199043661D01*
D10*
D11*
X10000000Y-60000000D02*
X12000000Y-60000000D01*
D10*
D11*
X10000000Y-110000000D02*
X12000000Y-110000000D01*
D10*
D11*
X10000000Y-160000000D02*
X12000000Y-160000000D01*
D10*
D11*
X10690476Y-35222176D02*
X11309523Y-35222176D01*
X10566666Y-35593604D02*
X10999999Y-34293604D01*
X10999999Y-34293604D02*
X11433333Y-35593604D01*
D10*
D11*
X11092857Y-84912652D02*
X11278571Y-84974557D01*
X11278571Y-84974557D02*
X11340476Y-85036461D01*
X11340476Y-85036461D02*
X11402380Y-85160271D01*
X11402380Y-85160271D02*
X11402380Y-85345985D01*
X11402380Y-85345985D02*
X11340476Y-85469795D01*
X11340476Y-85469795D02*
X11278571Y-85531700D01*
X11278571Y-85531700D02*
X11154761Y-85593604D01*
X11154761Y-85593604D02*
X10659523Y-85593604D01*
X10659523Y-85593604D02*
X10659523Y-84293604D01*
X10659523Y-84293604D02*
X11092857Y-84293604D01*
X11092857Y-84293604D02*
X11216666Y-84355509D01*
X11216666Y-84355509D02*
X11278571Y-84417414D01*
X11278571Y-84417414D02*
X11340476Y-84541223D01*
X11340476Y-84541223D02*
X11340476Y-84665033D01*
X11340476Y-84665033D02*
X11278571Y-84788842D01*
X11278571Y-84788842D02*
X11216666Y-84850747D01*
X11216666Y-84850747D02*
X11092857Y-84912652D01*
X11092857Y-84912652D02*
X10659523Y-84912652D01*
D10*
D11*
X11402380Y-135469795D02*
X11340476Y-135531700D01*
X11340476Y-135531700D02*
X11154761Y-135593604D01*
X11154761Y-135593604D02*
X11030952Y-135593604D01*
X11030952Y-135593604D02*
X10845238Y-135531700D01*
X10845238Y-135531700D02*
X10721428Y-135407890D01*
X10721428Y-135407890D02*
X10659523Y-135284080D01*
X10659523Y-135284080D02*
X10597619Y-135036461D01*
X10597619Y-135036461D02*
X10597619Y-134850747D01*
X10597619Y-134850747D02*
X10659523Y-134603128D01*
X10659523Y-134603128D02*
X10721428Y-134479319D01*
X10721428Y-134479319D02*
X10845238Y-134355509D01*
X10845238Y-134355509D02*
X11030952Y-134293604D01*
X11030952Y-134293604D02*
X11154761Y-134293604D01*
X11154761Y-134293604D02*
X11340476Y-134355509D01*
X11340476Y-134355509D02*
X11402380Y-134417414D01*
D10*
D11*
X10659523Y-185593604D02*
X10659523Y-184293604D01*
X10659523Y-184293604D02*
X10969047Y-184293604D01*
X10969047Y-184293604D02*
X11154761Y-184355509D01*
X11154761Y-184355509D02*
X11278571Y-184479319D01*
X11278571Y-184479319D02*
X11340476Y-184603128D01*
X11340476Y-184603128D02*
X11402380Y-184850747D01*
X11402380Y-184850747D02*
X11402380Y-185036461D01*
X11402380Y-185036461D02*
X11340476Y-185284080D01*
X11340476Y-185284080D02*
X11278571Y-185407890D01*
X11278571Y-185407890D02*
X11154761Y-185531700D01*
X11154761Y-185531700D02*
X10969047Y-185593604D01*
X10969047Y-185593604D02*
X10659523Y-185593604D01*
D10*
D11*
X287002200Y-60000000D02*
X285002200Y-60000000D01*
D10*
D11*
X287002200Y-110000000D02*
X285002200Y-110000000D01*
D10*
D11*
X287002200Y-160000000D02*
X285002200Y-160000000D01*
D10*
D11*
X285692676Y-35222176D02*
X286311723Y-35222176D01*
X285568866Y-35593604D02*
X286002199Y-34293604D01*
X286002199Y-34293604D02*
X286435533Y-35593604D01*
D10*
D11*
X286095057Y-84912652D02*
X286280771Y-84974557D01*
X286280771Y-84974557D02*
X286342676Y-85036461D01*
X286342676Y-85036461D02*
X286404580Y-85160271D01*
X286404580Y-85160271D02*
X286404580Y-85345985D01*
X286404580Y-85345985D02*
X286342676Y-85469795D01*
X286342676Y-85469795D02*
X286280771Y-85531700D01*
X286280771Y-85531700D02*
X286156961Y-85593604D01*
X286156961Y-85593604D02*
X285661723Y-85593604D01*
X285661723Y-85593604D02*
X285661723Y-84293604D01*
X285661723Y-84293604D02*
X286095057Y-84293604D01*
X286095057Y-84293604D02*
X286218866Y-84355509D01*
X286218866Y-84355509D02*
X286280771Y-84417414D01*
X286280771Y-84417414D02*
X286342676Y-84541223D01*
X286342676Y-84541223D02*
X286342676Y-84665033D01*
X286342676Y-84665033D02*
X286280771Y-84788842D01*
X286280771Y-84788842D02*
X286218866Y-84850747D01*
X286218866Y-84850747D02*
X286095057Y-84912652D01*
X286095057Y-84912652D02*
X285661723Y-84912652D01*
D10*
D11*
X286404580Y-135469795D02*
X286342676Y-135531700D01*
X286342676Y-135531700D02*
X286156961Y-135593604D01*
X286156961Y-135593604D02*
X286033152Y-135593604D01*
X286033152Y-135593604D02*
X285847438Y-135531700D01*
X285847438Y-135531700D02*
X285723628Y-135407890D01*
X285723628Y-135407890D02*
X285661723Y-135284080D01*
X285661723Y-135284080D02*
X285599819Y-135036461D01*
X285599819Y-135036461D02*
X285599819Y-134850747D01*
X285599819Y-134850747D02*
X285661723Y-134603128D01*
X285661723Y-134603128D02*
X285723628Y-134479319D01*
X285723628Y-134479319D02*
X285847438Y-134355509D01*
X285847438Y-134355509D02*
X286033152Y-134293604D01*
X286033152Y-134293604D02*
X286156961Y-134293604D01*
X286156961Y-134293604D02*
X286342676Y-134355509D01*
X286342676Y-134355509D02*
X286404580Y-134417414D01*
D10*
D11*
X285661723Y-185593604D02*
X285661723Y-184293604D01*
X285661723Y-184293604D02*
X285971247Y-184293604D01*
X285971247Y-184293604D02*
X286156961Y-184355509D01*
X286156961Y-184355509D02*
X286280771Y-184479319D01*
X286280771Y-184479319D02*
X286342676Y-184603128D01*
X286342676Y-184603128D02*
X286404580Y-184850747D01*
X286404580Y-184850747D02*
X286404580Y-185036461D01*
X286404580Y-185036461D02*
X286342676Y-185284080D01*
X286342676Y-185284080D02*
X286280771Y-185407890D01*
X286280771Y-185407890D02*
X286156961Y-185531700D01*
X286156961Y-185531700D02*
X285971247Y-185593604D01*
X285971247Y-185593604D02*
X285661723Y-185593604D01*
D10*
D11*
X200458026Y-193793328D02*
X200458026Y-192293328D01*
X200458026Y-192293328D02*
X200815169Y-192293328D01*
X200815169Y-192293328D02*
X201029455Y-192364757D01*
X201029455Y-192364757D02*
X201172312Y-192507614D01*
X201172312Y-192507614D02*
X201243741Y-192650471D01*
X201243741Y-192650471D02*
X201315169Y-192936185D01*
X201315169Y-192936185D02*
X201315169Y-193150471D01*
X201315169Y-193150471D02*
X201243741Y-193436185D01*
X201243741Y-193436185D02*
X201172312Y-193579042D01*
X201172312Y-193579042D02*
X201029455Y-193721900D01*
X201029455Y-193721900D02*
X200815169Y-193793328D01*
X200815169Y-193793328D02*
X200458026Y-193793328D01*
X202600884Y-193793328D02*
X202600884Y-193007614D01*
X202600884Y-193007614D02*
X202529455Y-192864757D01*
X202529455Y-192864757D02*
X202386598Y-192793328D01*
X202386598Y-192793328D02*
X202100884Y-192793328D01*
X202100884Y-192793328D02*
X201958026Y-192864757D01*
X202600884Y-193721900D02*
X202458026Y-193793328D01*
X202458026Y-193793328D02*
X202100884Y-193793328D01*
X202100884Y-193793328D02*
X201958026Y-193721900D01*
X201958026Y-193721900D02*
X201886598Y-193579042D01*
X201886598Y-193579042D02*
X201886598Y-193436185D01*
X201886598Y-193436185D02*
X201958026Y-193293328D01*
X201958026Y-193293328D02*
X202100884Y-193221900D01*
X202100884Y-193221900D02*
X202458026Y-193221900D01*
X202458026Y-193221900D02*
X202600884Y-193150471D01*
X203100884Y-192793328D02*
X203672312Y-192793328D01*
X203315169Y-192293328D02*
X203315169Y-193579042D01*
X203315169Y-193579042D02*
X203386598Y-193721900D01*
X203386598Y-193721900D02*
X203529455Y-193793328D01*
X203529455Y-193793328D02*
X203672312Y-193793328D01*
X204743741Y-193721900D02*
X204600884Y-193793328D01*
X204600884Y-193793328D02*
X204315170Y-193793328D01*
X204315170Y-193793328D02*
X204172312Y-193721900D01*
X204172312Y-193721900D02*
X204100884Y-193579042D01*
X204100884Y-193579042D02*
X204100884Y-193007614D01*
X204100884Y-193007614D02*
X204172312Y-192864757D01*
X204172312Y-192864757D02*
X204315170Y-192793328D01*
X204315170Y-192793328D02*
X204600884Y-192793328D01*
X204600884Y-192793328D02*
X204743741Y-192864757D01*
X204743741Y-192864757D02*
X204815170Y-193007614D01*
X204815170Y-193007614D02*
X204815170Y-193150471D01*
X204815170Y-193150471D02*
X204100884Y-193293328D01*
X205458026Y-193650471D02*
X205529455Y-193721900D01*
X205529455Y-193721900D02*
X205458026Y-193793328D01*
X205458026Y-193793328D02*
X205386598Y-193721900D01*
X205386598Y-193721900D02*
X205458026Y-193650471D01*
X205458026Y-193650471D02*
X205458026Y-193793328D01*
X205458026Y-192864757D02*
X205529455Y-192936185D01*
X205529455Y-192936185D02*
X205458026Y-193007614D01*
X205458026Y-193007614D02*
X205386598Y-192936185D01*
X205386598Y-192936185D02*
X205458026Y-192864757D01*
X205458026Y-192864757D02*
X205458026Y-193007614D01*
X207243741Y-192436185D02*
X207315169Y-192364757D01*
X207315169Y-192364757D02*
X207458027Y-192293328D01*
X207458027Y-192293328D02*
X207815169Y-192293328D01*
X207815169Y-192293328D02*
X207958027Y-192364757D01*
X207958027Y-192364757D02*
X208029455Y-192436185D01*
X208029455Y-192436185D02*
X208100884Y-192579042D01*
X208100884Y-192579042D02*
X208100884Y-192721900D01*
X208100884Y-192721900D02*
X208029455Y-192936185D01*
X208029455Y-192936185D02*
X207172312Y-193793328D01*
X207172312Y-193793328D02*
X208100884Y-193793328D01*
X209029455Y-192293328D02*
X209172312Y-192293328D01*
X209172312Y-192293328D02*
X209315169Y-192364757D01*
X209315169Y-192364757D02*
X209386598Y-192436185D01*
X209386598Y-192436185D02*
X209458026Y-192579042D01*
X209458026Y-192579042D02*
X209529455Y-192864757D01*
X209529455Y-192864757D02*
X209529455Y-193221900D01*
X209529455Y-193221900D02*
X209458026Y-193507614D01*
X209458026Y-193507614D02*
X209386598Y-193650471D01*
X209386598Y-193650471D02*
X209315169Y-193721900D01*
X209315169Y-193721900D02*
X209172312Y-193793328D01*
X209172312Y-193793328D02*
X209029455Y-193793328D01*
X209029455Y-193793328D02*
X208886598Y-193721900D01*
X208886598Y-193721900D02*
X208815169Y-193650471D01*
X208815169Y-193650471D02*
X208743740Y-193507614D01*
X208743740Y-193507614D02*
X208672312Y-193221900D01*
X208672312Y-193221900D02*
X208672312Y-192864757D01*
X208672312Y-192864757D02*
X208743740Y-192579042D01*
X208743740Y-192579042D02*
X208815169Y-192436185D01*
X208815169Y-192436185D02*
X208886598Y-192364757D01*
X208886598Y-192364757D02*
X209029455Y-192293328D01*
X210100883Y-192436185D02*
X210172311Y-192364757D01*
X210172311Y-192364757D02*
X210315169Y-192293328D01*
X210315169Y-192293328D02*
X210672311Y-192293328D01*
X210672311Y-192293328D02*
X210815169Y-192364757D01*
X210815169Y-192364757D02*
X210886597Y-192436185D01*
X210886597Y-192436185D02*
X210958026Y-192579042D01*
X210958026Y-192579042D02*
X210958026Y-192721900D01*
X210958026Y-192721900D02*
X210886597Y-192936185D01*
X210886597Y-192936185D02*
X210029454Y-193793328D01*
X210029454Y-193793328D02*
X210958026Y-193793328D01*
X212243740Y-192293328D02*
X211958025Y-192293328D01*
X211958025Y-192293328D02*
X211815168Y-192364757D01*
X211815168Y-192364757D02*
X211743740Y-192436185D01*
X211743740Y-192436185D02*
X211600882Y-192650471D01*
X211600882Y-192650471D02*
X211529454Y-192936185D01*
X211529454Y-192936185D02*
X211529454Y-193507614D01*
X211529454Y-193507614D02*
X211600882Y-193650471D01*
X211600882Y-193650471D02*
X211672311Y-193721900D01*
X211672311Y-193721900D02*
X211815168Y-193793328D01*
X211815168Y-193793328D02*
X212100882Y-193793328D01*
X212100882Y-193793328D02*
X212243740Y-193721900D01*
X212243740Y-193721900D02*
X212315168Y-193650471D01*
X212315168Y-193650471D02*
X212386597Y-193507614D01*
X212386597Y-193507614D02*
X212386597Y-193150471D01*
X212386597Y-193150471D02*
X212315168Y-193007614D01*
X212315168Y-193007614D02*
X212243740Y-192936185D01*
X212243740Y-192936185D02*
X212100882Y-192864757D01*
X212100882Y-192864757D02*
X211815168Y-192864757D01*
X211815168Y-192864757D02*
X211672311Y-192936185D01*
X211672311Y-192936185D02*
X211600882Y-193007614D01*
X211600882Y-193007614D02*
X211529454Y-193150471D01*
X213029453Y-193221900D02*
X214172311Y-193221900D01*
X215172311Y-192293328D02*
X215315168Y-192293328D01*
X215315168Y-192293328D02*
X215458025Y-192364757D01*
X215458025Y-192364757D02*
X215529454Y-192436185D01*
X215529454Y-192436185D02*
X215600882Y-192579042D01*
X215600882Y-192579042D02*
X215672311Y-192864757D01*
X215672311Y-192864757D02*
X215672311Y-193221900D01*
X215672311Y-193221900D02*
X215600882Y-193507614D01*
X215600882Y-193507614D02*
X215529454Y-193650471D01*
X215529454Y-193650471D02*
X215458025Y-193721900D01*
X215458025Y-193721900D02*
X215315168Y-193793328D01*
X215315168Y-193793328D02*
X215172311Y-193793328D01*
X215172311Y-193793328D02*
X215029454Y-193721900D01*
X215029454Y-193721900D02*
X214958025Y-193650471D01*
X214958025Y-193650471D02*
X214886596Y-193507614D01*
X214886596Y-193507614D02*
X214815168Y-193221900D01*
X214815168Y-193221900D02*
X214815168Y-192864757D01*
X214815168Y-192864757D02*
X214886596Y-192579042D01*
X214886596Y-192579042D02*
X214958025Y-192436185D01*
X214958025Y-192436185D02*
X215029454Y-192364757D01*
X215029454Y-192364757D02*
X215172311Y-192293328D01*
X216172310Y-192293328D02*
X217100882Y-192293328D01*
X217100882Y-192293328D02*
X216600882Y-192864757D01*
X216600882Y-192864757D02*
X216815167Y-192864757D01*
X216815167Y-192864757D02*
X216958025Y-192936185D01*
X216958025Y-192936185D02*
X217029453Y-193007614D01*
X217029453Y-193007614D02*
X217100882Y-193150471D01*
X217100882Y-193150471D02*
X217100882Y-193507614D01*
X217100882Y-193507614D02*
X217029453Y-193650471D01*
X217029453Y-193650471D02*
X216958025Y-193721900D01*
X216958025Y-193721900D02*
X216815167Y-193793328D01*
X216815167Y-193793328D02*
X216386596Y-193793328D01*
X216386596Y-193793328D02*
X216243739Y-193721900D01*
X216243739Y-193721900D02*
X216172310Y-193650471D01*
X217743738Y-193221900D02*
X218886596Y-193221900D01*
X219886596Y-192293328D02*
X220029453Y-192293328D01*
X220029453Y-192293328D02*
X220172310Y-192364757D01*
X220172310Y-192364757D02*
X220243739Y-192436185D01*
X220243739Y-192436185D02*
X220315167Y-192579042D01*
X220315167Y-192579042D02*
X220386596Y-192864757D01*
X220386596Y-192864757D02*
X220386596Y-193221900D01*
X220386596Y-193221900D02*
X220315167Y-193507614D01*
X220315167Y-193507614D02*
X220243739Y-193650471D01*
X220243739Y-193650471D02*
X220172310Y-193721900D01*
X220172310Y-193721900D02*
X220029453Y-193793328D01*
X220029453Y-193793328D02*
X219886596Y-193793328D01*
X219886596Y-193793328D02*
X219743739Y-193721900D01*
X219743739Y-193721900D02*
X219672310Y-193650471D01*
X219672310Y-193650471D02*
X219600881Y-193507614D01*
X219600881Y-193507614D02*
X219529453Y-193221900D01*
X219529453Y-193221900D02*
X219529453Y-192864757D01*
X219529453Y-192864757D02*
X219600881Y-192579042D01*
X219600881Y-192579042D02*
X219672310Y-192436185D01*
X219672310Y-192436185D02*
X219743739Y-192364757D01*
X219743739Y-192364757D02*
X219886596Y-192293328D01*
X221100881Y-193793328D02*
X221386595Y-193793328D01*
X221386595Y-193793328D02*
X221529452Y-193721900D01*
X221529452Y-193721900D02*
X221600881Y-193650471D01*
X221600881Y-193650471D02*
X221743738Y-193436185D01*
X221743738Y-193436185D02*
X221815167Y-193150471D01*
X221815167Y-193150471D02*
X221815167Y-192579042D01*
X221815167Y-192579042D02*
X221743738Y-192436185D01*
X221743738Y-192436185D02*
X221672310Y-192364757D01*
X221672310Y-192364757D02*
X221529452Y-192293328D01*
X221529452Y-192293328D02*
X221243738Y-192293328D01*
X221243738Y-192293328D02*
X221100881Y-192364757D01*
X221100881Y-192364757D02*
X221029452Y-192436185D01*
X221029452Y-192436185D02*
X220958024Y-192579042D01*
X220958024Y-192579042D02*
X220958024Y-192936185D01*
X220958024Y-192936185D02*
X221029452Y-193079042D01*
X221029452Y-193079042D02*
X221100881Y-193150471D01*
X221100881Y-193150471D02*
X221243738Y-193221900D01*
X221243738Y-193221900D02*
X221529452Y-193221900D01*
X221529452Y-193221900D02*
X221672310Y-193150471D01*
X221672310Y-193150471D02*
X221743738Y-193079042D01*
X221743738Y-193079042D02*
X221815167Y-192936185D01*
D10*
D11*
X177002200Y-194507200D02*
X285002200Y-194507200D01*
D10*
D11*
X178458026Y-196593328D02*
X178458026Y-195093328D01*
X179315169Y-196593328D02*
X178672312Y-195736185D01*
X179315169Y-195093328D02*
X178458026Y-195950471D01*
X179958026Y-196593328D02*
X179958026Y-195593328D01*
X179958026Y-195093328D02*
X179886598Y-195164757D01*
X179886598Y-195164757D02*
X179958026Y-195236185D01*
X179958026Y-195236185D02*
X180029455Y-195164757D01*
X180029455Y-195164757D02*
X179958026Y-195093328D01*
X179958026Y-195093328D02*
X179958026Y-195236185D01*
X181529455Y-196450471D02*
X181458027Y-196521900D01*
X181458027Y-196521900D02*
X181243741Y-196593328D01*
X181243741Y-196593328D02*
X181100884Y-196593328D01*
X181100884Y-196593328D02*
X180886598Y-196521900D01*
X180886598Y-196521900D02*
X180743741Y-196379042D01*
X180743741Y-196379042D02*
X180672312Y-196236185D01*
X180672312Y-196236185D02*
X180600884Y-195950471D01*
X180600884Y-195950471D02*
X180600884Y-195736185D01*
X180600884Y-195736185D02*
X180672312Y-195450471D01*
X180672312Y-195450471D02*
X180743741Y-195307614D01*
X180743741Y-195307614D02*
X180886598Y-195164757D01*
X180886598Y-195164757D02*
X181100884Y-195093328D01*
X181100884Y-195093328D02*
X181243741Y-195093328D01*
X181243741Y-195093328D02*
X181458027Y-195164757D01*
X181458027Y-195164757D02*
X181529455Y-195236185D01*
X182815170Y-196593328D02*
X182815170Y-195807614D01*
X182815170Y-195807614D02*
X182743741Y-195664757D01*
X182743741Y-195664757D02*
X182600884Y-195593328D01*
X182600884Y-195593328D02*
X182315170Y-195593328D01*
X182315170Y-195593328D02*
X182172312Y-195664757D01*
X182815170Y-196521900D02*
X182672312Y-196593328D01*
X182672312Y-196593328D02*
X182315170Y-196593328D01*
X182315170Y-196593328D02*
X182172312Y-196521900D01*
X182172312Y-196521900D02*
X182100884Y-196379042D01*
X182100884Y-196379042D02*
X182100884Y-196236185D01*
X182100884Y-196236185D02*
X182172312Y-196093328D01*
X182172312Y-196093328D02*
X182315170Y-196021900D01*
X182315170Y-196021900D02*
X182672312Y-196021900D01*
X182672312Y-196021900D02*
X182815170Y-195950471D01*
X184172313Y-196593328D02*
X184172313Y-195093328D01*
X184172313Y-196521900D02*
X184029455Y-196593328D01*
X184029455Y-196593328D02*
X183743741Y-196593328D01*
X183743741Y-196593328D02*
X183600884Y-196521900D01*
X183600884Y-196521900D02*
X183529455Y-196450471D01*
X183529455Y-196450471D02*
X183458027Y-196307614D01*
X183458027Y-196307614D02*
X183458027Y-195879042D01*
X183458027Y-195879042D02*
X183529455Y-195736185D01*
X183529455Y-195736185D02*
X183600884Y-195664757D01*
X183600884Y-195664757D02*
X183743741Y-195593328D01*
X183743741Y-195593328D02*
X184029455Y-195593328D01*
X184029455Y-195593328D02*
X184172313Y-195664757D01*
X186029455Y-195807614D02*
X186529455Y-195807614D01*
X186743741Y-196593328D02*
X186029455Y-196593328D01*
X186029455Y-196593328D02*
X186029455Y-195093328D01*
X186029455Y-195093328D02*
X186743741Y-195093328D01*
X187386598Y-196450471D02*
X187458027Y-196521900D01*
X187458027Y-196521900D02*
X187386598Y-196593328D01*
X187386598Y-196593328D02*
X187315170Y-196521900D01*
X187315170Y-196521900D02*
X187386598Y-196450471D01*
X187386598Y-196450471D02*
X187386598Y-196593328D01*
X188100884Y-196593328D02*
X188100884Y-195093328D01*
X188100884Y-195093328D02*
X188458027Y-195093328D01*
X188458027Y-195093328D02*
X188672313Y-195164757D01*
X188672313Y-195164757D02*
X188815170Y-195307614D01*
X188815170Y-195307614D02*
X188886599Y-195450471D01*
X188886599Y-195450471D02*
X188958027Y-195736185D01*
X188958027Y-195736185D02*
X188958027Y-195950471D01*
X188958027Y-195950471D02*
X188886599Y-196236185D01*
X188886599Y-196236185D02*
X188815170Y-196379042D01*
X188815170Y-196379042D02*
X188672313Y-196521900D01*
X188672313Y-196521900D02*
X188458027Y-196593328D01*
X188458027Y-196593328D02*
X188100884Y-196593328D01*
X189600884Y-196450471D02*
X189672313Y-196521900D01*
X189672313Y-196521900D02*
X189600884Y-196593328D01*
X189600884Y-196593328D02*
X189529456Y-196521900D01*
X189529456Y-196521900D02*
X189600884Y-196450471D01*
X189600884Y-196450471D02*
X189600884Y-196593328D01*
X190243742Y-196164757D02*
X190958028Y-196164757D01*
X190100885Y-196593328D02*
X190600885Y-195093328D01*
X190600885Y-195093328D02*
X191100885Y-196593328D01*
X191600884Y-196450471D02*
X191672313Y-196521900D01*
X191672313Y-196521900D02*
X191600884Y-196593328D01*
X191600884Y-196593328D02*
X191529456Y-196521900D01*
X191529456Y-196521900D02*
X191600884Y-196450471D01*
X191600884Y-196450471D02*
X191600884Y-196593328D01*
X193529456Y-196593328D02*
X193815170Y-196593328D01*
X193815170Y-196593328D02*
X193958027Y-196521900D01*
X193958027Y-196521900D02*
X194029456Y-196450471D01*
X194029456Y-196450471D02*
X194172313Y-196236185D01*
X194172313Y-196236185D02*
X194243742Y-195950471D01*
X194243742Y-195950471D02*
X194243742Y-195379042D01*
X194243742Y-195379042D02*
X194172313Y-195236185D01*
X194172313Y-195236185D02*
X194100885Y-195164757D01*
X194100885Y-195164757D02*
X193958027Y-195093328D01*
X193958027Y-195093328D02*
X193672313Y-195093328D01*
X193672313Y-195093328D02*
X193529456Y-195164757D01*
X193529456Y-195164757D02*
X193458027Y-195236185D01*
X193458027Y-195236185D02*
X193386599Y-195379042D01*
X193386599Y-195379042D02*
X193386599Y-195736185D01*
X193386599Y-195736185D02*
X193458027Y-195879042D01*
X193458027Y-195879042D02*
X193529456Y-195950471D01*
X193529456Y-195950471D02*
X193672313Y-196021900D01*
X193672313Y-196021900D02*
X193958027Y-196021900D01*
X193958027Y-196021900D02*
X194100885Y-195950471D01*
X194100885Y-195950471D02*
X194172313Y-195879042D01*
X194172313Y-195879042D02*
X194243742Y-195736185D01*
X194886598Y-196450471D02*
X194958027Y-196521900D01*
X194958027Y-196521900D02*
X194886598Y-196593328D01*
X194886598Y-196593328D02*
X194815170Y-196521900D01*
X194815170Y-196521900D02*
X194886598Y-196450471D01*
X194886598Y-196450471D02*
X194886598Y-196593328D01*
X195886599Y-195093328D02*
X196029456Y-195093328D01*
X196029456Y-195093328D02*
X196172313Y-195164757D01*
X196172313Y-195164757D02*
X196243742Y-195236185D01*
X196243742Y-195236185D02*
X196315170Y-195379042D01*
X196315170Y-195379042D02*
X196386599Y-195664757D01*
X196386599Y-195664757D02*
X196386599Y-196021900D01*
X196386599Y-196021900D02*
X196315170Y-196307614D01*
X196315170Y-196307614D02*
X196243742Y-196450471D01*
X196243742Y-196450471D02*
X196172313Y-196521900D01*
X196172313Y-196521900D02*
X196029456Y-196593328D01*
X196029456Y-196593328D02*
X195886599Y-196593328D01*
X195886599Y-196593328D02*
X195743742Y-196521900D01*
X195743742Y-196521900D02*
X195672313Y-196450471D01*
X195672313Y-196450471D02*
X195600884Y-196307614D01*
X195600884Y-196307614D02*
X195529456Y-196021900D01*
X195529456Y-196021900D02*
X195529456Y-195664757D01*
X195529456Y-195664757D02*
X195600884Y-195379042D01*
X195600884Y-195379042D02*
X195672313Y-195236185D01*
X195672313Y-195236185D02*
X195743742Y-195164757D01*
X195743742Y-195164757D02*
X195886599Y-195093328D01*
X197029455Y-196450471D02*
X197100884Y-196521900D01*
X197100884Y-196521900D02*
X197029455Y-196593328D01*
X197029455Y-196593328D02*
X196958027Y-196521900D01*
X196958027Y-196521900D02*
X197029455Y-196450471D01*
X197029455Y-196450471D02*
X197029455Y-196593328D01*
X197600884Y-195093328D02*
X198600884Y-195093328D01*
X198600884Y-195093328D02*
X197958027Y-196593328D01*
D10*
D11*
X177002200Y-191507200D02*
X285002200Y-191507200D01*
D10*
D12*
X264413853Y-193785528D02*
X263913853Y-193071242D01*
X263556710Y-193785528D02*
X263556710Y-192285528D01*
X263556710Y-192285528D02*
X264128139Y-192285528D01*
X264128139Y-192285528D02*
X264270996Y-192356957D01*
X264270996Y-192356957D02*
X264342425Y-192428385D01*
X264342425Y-192428385D02*
X264413853Y-192571242D01*
X264413853Y-192571242D02*
X264413853Y-192785528D01*
X264413853Y-192785528D02*
X264342425Y-192928385D01*
X264342425Y-192928385D02*
X264270996Y-192999814D01*
X264270996Y-192999814D02*
X264128139Y-193071242D01*
X264128139Y-193071242D02*
X263556710Y-193071242D01*
X265628139Y-193714100D02*
X265485282Y-193785528D01*
X265485282Y-193785528D02*
X265199568Y-193785528D01*
X265199568Y-193785528D02*
X265056710Y-193714100D01*
X265056710Y-193714100D02*
X264985282Y-193571242D01*
X264985282Y-193571242D02*
X264985282Y-192999814D01*
X264985282Y-192999814D02*
X265056710Y-192856957D01*
X265056710Y-192856957D02*
X265199568Y-192785528D01*
X265199568Y-192785528D02*
X265485282Y-192785528D01*
X265485282Y-192785528D02*
X265628139Y-192856957D01*
X265628139Y-192856957D02*
X265699568Y-192999814D01*
X265699568Y-192999814D02*
X265699568Y-193142671D01*
X265699568Y-193142671D02*
X264985282Y-193285528D01*
X266199567Y-192785528D02*
X266556710Y-193785528D01*
X266556710Y-193785528D02*
X266913853Y-192785528D01*
X267485281Y-193642671D02*
X267556710Y-193714100D01*
X267556710Y-193714100D02*
X267485281Y-193785528D01*
X267485281Y-193785528D02*
X267413853Y-193714100D01*
X267413853Y-193714100D02*
X267485281Y-193642671D01*
X267485281Y-193642671D02*
X267485281Y-193785528D01*
X267485281Y-192856957D02*
X267556710Y-192928385D01*
X267556710Y-192928385D02*
X267485281Y-192999814D01*
X267485281Y-192999814D02*
X267413853Y-192928385D01*
X267413853Y-192928385D02*
X267485281Y-192856957D01*
X267485281Y-192856957D02*
X267485281Y-192999814D01*
X269199567Y-192285528D02*
X269556710Y-193785528D01*
X269556710Y-193785528D02*
X269842424Y-192714100D01*
X269842424Y-192714100D02*
X270128139Y-193785528D01*
X270128139Y-193785528D02*
X270485282Y-192285528D01*
X270985282Y-193356957D02*
X271699568Y-193356957D01*
X270842425Y-193785528D02*
X271342425Y-192285528D01*
X271342425Y-192285528D02*
X271842425Y-193785528D01*
X273128139Y-193785528D02*
X272270996Y-193785528D01*
X272699567Y-193785528D02*
X272699567Y-192285528D01*
X272699567Y-192285528D02*
X272556710Y-192499814D01*
X272556710Y-192499814D02*
X272413853Y-192642671D01*
X272413853Y-192642671D02*
X272270996Y-192714100D01*
X274628138Y-193642671D02*
X274556710Y-193714100D01*
X274556710Y-193714100D02*
X274342424Y-193785528D01*
X274342424Y-193785528D02*
X274199567Y-193785528D01*
X274199567Y-193785528D02*
X273985281Y-193714100D01*
X273985281Y-193714100D02*
X273842424Y-193571242D01*
X273842424Y-193571242D02*
X273770995Y-193428385D01*
X273770995Y-193428385D02*
X273699567Y-193142671D01*
X273699567Y-193142671D02*
X273699567Y-192928385D01*
X273699567Y-192928385D02*
X273770995Y-192642671D01*
X273770995Y-192642671D02*
X273842424Y-192499814D01*
X273842424Y-192499814D02*
X273985281Y-192356957D01*
X273985281Y-192356957D02*
X274199567Y-192285528D01*
X274199567Y-192285528D02*
X274342424Y-192285528D01*
X274342424Y-192285528D02*
X274556710Y-192356957D01*
X274556710Y-192356957D02*
X274628138Y-192428385D01*
X275556710Y-193071242D02*
X275556710Y-193785528D01*
X275056710Y-192285528D02*
X275556710Y-193071242D01*
X275556710Y-193071242D02*
X276056710Y-192285528D01*
X277056709Y-192999814D02*
X277270995Y-193071242D01*
X277270995Y-193071242D02*
X277342424Y-193142671D01*
X277342424Y-193142671D02*
X277413852Y-193285528D01*
X277413852Y-193285528D02*
X277413852Y-193499814D01*
X277413852Y-193499814D02*
X277342424Y-193642671D01*
X277342424Y-193642671D02*
X277270995Y-193714100D01*
X277270995Y-193714100D02*
X277128138Y-193785528D01*
X277128138Y-193785528D02*
X276556709Y-193785528D01*
X276556709Y-193785528D02*
X276556709Y-192285528D01*
X276556709Y-192285528D02*
X277056709Y-192285528D01*
X277056709Y-192285528D02*
X277199567Y-192356957D01*
X277199567Y-192356957D02*
X277270995Y-192428385D01*
X277270995Y-192428385D02*
X277342424Y-192571242D01*
X277342424Y-192571242D02*
X277342424Y-192714100D01*
X277342424Y-192714100D02*
X277270995Y-192856957D01*
X277270995Y-192856957D02*
X277199567Y-192928385D01*
X277199567Y-192928385D02*
X277056709Y-192999814D01*
X277056709Y-192999814D02*
X276556709Y-192999814D01*
X278056709Y-193214100D02*
X279199567Y-193214100D01*
X279913852Y-193785528D02*
X279913852Y-192785528D01*
X279913852Y-193071242D02*
X279985281Y-192928385D01*
X279985281Y-192928385D02*
X280056710Y-192856957D01*
X280056710Y-192856957D02*
X280199567Y-192785528D01*
X280199567Y-192785528D02*
X280342424Y-192785528D01*
X281413852Y-193714100D02*
X281270995Y-193785528D01*
X281270995Y-193785528D02*
X280985281Y-193785528D01*
X280985281Y-193785528D02*
X280842423Y-193714100D01*
X280842423Y-193714100D02*
X280770995Y-193571242D01*
X280770995Y-193571242D02*
X280770995Y-192999814D01*
X280770995Y-192999814D02*
X280842423Y-192856957D01*
X280842423Y-192856957D02*
X280985281Y-192785528D01*
X280985281Y-192785528D02*
X281270995Y-192785528D01*
X281270995Y-192785528D02*
X281413852Y-192856957D01*
X281413852Y-192856957D02*
X281485281Y-192999814D01*
X281485281Y-192999814D02*
X281485281Y-193142671D01*
X281485281Y-193142671D02*
X280770995Y-193285528D01*
X281985280Y-192785528D02*
X282342423Y-193785528D01*
X282342423Y-193785528D02*
X282699566Y-192785528D01*
X283770994Y-192999814D02*
X283985280Y-193071242D01*
X283985280Y-193071242D02*
X284056709Y-193142671D01*
X284056709Y-193142671D02*
X284128137Y-193285528D01*
X284128137Y-193285528D02*
X284128137Y-193499814D01*
X284128137Y-193499814D02*
X284056709Y-193642671D01*
X284056709Y-193642671D02*
X283985280Y-193714100D01*
X283985280Y-193714100D02*
X283842423Y-193785528D01*
X283842423Y-193785528D02*
X283270994Y-193785528D01*
X283270994Y-193785528D02*
X283270994Y-192285528D01*
X283270994Y-192285528D02*
X283770994Y-192285528D01*
X283770994Y-192285528D02*
X283913852Y-192356957D01*
X283913852Y-192356957D02*
X283985280Y-192428385D01*
X283985280Y-192428385D02*
X284056709Y-192571242D01*
X284056709Y-192571242D02*
X284056709Y-192714100D01*
X284056709Y-192714100D02*
X283985280Y-192856957D01*
X283985280Y-192856957D02*
X283913852Y-192928385D01*
X283913852Y-192928385D02*
X283770994Y-192999814D01*
X283770994Y-192999814D02*
X283270994Y-192999814D01*
D10*
D11*
X178386598Y-193721900D02*
X178600884Y-193793328D01*
X178600884Y-193793328D02*
X178958026Y-193793328D01*
X178958026Y-193793328D02*
X179100884Y-193721900D01*
X179100884Y-193721900D02*
X179172312Y-193650471D01*
X179172312Y-193650471D02*
X179243741Y-193507614D01*
X179243741Y-193507614D02*
X179243741Y-193364757D01*
X179243741Y-193364757D02*
X179172312Y-193221900D01*
X179172312Y-193221900D02*
X179100884Y-193150471D01*
X179100884Y-193150471D02*
X178958026Y-193079042D01*
X178958026Y-193079042D02*
X178672312Y-193007614D01*
X178672312Y-193007614D02*
X178529455Y-192936185D01*
X178529455Y-192936185D02*
X178458026Y-192864757D01*
X178458026Y-192864757D02*
X178386598Y-192721900D01*
X178386598Y-192721900D02*
X178386598Y-192579042D01*
X178386598Y-192579042D02*
X178458026Y-192436185D01*
X178458026Y-192436185D02*
X178529455Y-192364757D01*
X178529455Y-192364757D02*
X178672312Y-192293328D01*
X178672312Y-192293328D02*
X179029455Y-192293328D01*
X179029455Y-192293328D02*
X179243741Y-192364757D01*
X179886597Y-193793328D02*
X179886597Y-192793328D01*
X179886597Y-192293328D02*
X179815169Y-192364757D01*
X179815169Y-192364757D02*
X179886597Y-192436185D01*
X179886597Y-192436185D02*
X179958026Y-192364757D01*
X179958026Y-192364757D02*
X179886597Y-192293328D01*
X179886597Y-192293328D02*
X179886597Y-192436185D01*
X180458026Y-192793328D02*
X181243741Y-192793328D01*
X181243741Y-192793328D02*
X180458026Y-193793328D01*
X180458026Y-193793328D02*
X181243741Y-193793328D01*
X182386598Y-193721900D02*
X182243741Y-193793328D01*
X182243741Y-193793328D02*
X181958027Y-193793328D01*
X181958027Y-193793328D02*
X181815169Y-193721900D01*
X181815169Y-193721900D02*
X181743741Y-193579042D01*
X181743741Y-193579042D02*
X181743741Y-193007614D01*
X181743741Y-193007614D02*
X181815169Y-192864757D01*
X181815169Y-192864757D02*
X181958027Y-192793328D01*
X181958027Y-192793328D02*
X182243741Y-192793328D01*
X182243741Y-192793328D02*
X182386598Y-192864757D01*
X182386598Y-192864757D02*
X182458027Y-193007614D01*
X182458027Y-193007614D02*
X182458027Y-193150471D01*
X182458027Y-193150471D02*
X181743741Y-193293328D01*
X183100883Y-193650471D02*
X183172312Y-193721900D01*
X183172312Y-193721900D02*
X183100883Y-193793328D01*
X183100883Y-193793328D02*
X183029455Y-193721900D01*
X183029455Y-193721900D02*
X183100883Y-193650471D01*
X183100883Y-193650471D02*
X183100883Y-193793328D01*
X183100883Y-192864757D02*
X183172312Y-192936185D01*
X183172312Y-192936185D02*
X183100883Y-193007614D01*
X183100883Y-193007614D02*
X183029455Y-192936185D01*
X183029455Y-192936185D02*
X183100883Y-192864757D01*
X183100883Y-192864757D02*
X183100883Y-193007614D01*
X184886598Y-193364757D02*
X185600884Y-193364757D01*
X184743741Y-193793328D02*
X185243741Y-192293328D01*
X185243741Y-192293328D02*
X185743741Y-193793328D01*
X186886598Y-192793328D02*
X186886598Y-193793328D01*
X186529455Y-192221900D02*
X186172312Y-193293328D01*
X186172312Y-193293328D02*
X187100883Y-193293328D01*
D10*
D11*
X263458026Y-196593328D02*
X263458026Y-195093328D01*
X264815170Y-196593328D02*
X264815170Y-195093328D01*
X264815170Y-196521900D02*
X264672312Y-196593328D01*
X264672312Y-196593328D02*
X264386598Y-196593328D01*
X264386598Y-196593328D02*
X264243741Y-196521900D01*
X264243741Y-196521900D02*
X264172312Y-196450471D01*
X264172312Y-196450471D02*
X264100884Y-196307614D01*
X264100884Y-196307614D02*
X264100884Y-195879042D01*
X264100884Y-195879042D02*
X264172312Y-195736185D01*
X264172312Y-195736185D02*
X264243741Y-195664757D01*
X264243741Y-195664757D02*
X264386598Y-195593328D01*
X264386598Y-195593328D02*
X264672312Y-195593328D01*
X264672312Y-195593328D02*
X264815170Y-195664757D01*
X265529455Y-196450471D02*
X265600884Y-196521900D01*
X265600884Y-196521900D02*
X265529455Y-196593328D01*
X265529455Y-196593328D02*
X265458027Y-196521900D01*
X265458027Y-196521900D02*
X265529455Y-196450471D01*
X265529455Y-196450471D02*
X265529455Y-196593328D01*
X265529455Y-195664757D02*
X265600884Y-195736185D01*
X265600884Y-195736185D02*
X265529455Y-195807614D01*
X265529455Y-195807614D02*
X265458027Y-195736185D01*
X265458027Y-195736185D02*
X265529455Y-195664757D01*
X265529455Y-195664757D02*
X265529455Y-195807614D01*
X268172313Y-196593328D02*
X267315170Y-196593328D01*
X267743741Y-196593328D02*
X267743741Y-195093328D01*
X267743741Y-195093328D02*
X267600884Y-195307614D01*
X267600884Y-195307614D02*
X267458027Y-195450471D01*
X267458027Y-195450471D02*
X267315170Y-195521900D01*
X268672312Y-195093328D02*
X269672312Y-195093328D01*
X269672312Y-195093328D02*
X269029455Y-196593328D01*
X271315169Y-195021900D02*
X270029455Y-196950471D01*
X271672312Y-195093328D02*
X272600884Y-195093328D01*
X272600884Y-195093328D02*
X272100884Y-195664757D01*
X272100884Y-195664757D02*
X272315169Y-195664757D01*
X272315169Y-195664757D02*
X272458027Y-195736185D01*
X272458027Y-195736185D02*
X272529455Y-195807614D01*
X272529455Y-195807614D02*
X272600884Y-195950471D01*
X272600884Y-195950471D02*
X272600884Y-196307614D01*
X272600884Y-196307614D02*
X272529455Y-196450471D01*
X272529455Y-196450471D02*
X272458027Y-196521900D01*
X272458027Y-196521900D02*
X272315169Y-196593328D01*
X272315169Y-196593328D02*
X271886598Y-196593328D01*
X271886598Y-196593328D02*
X271743741Y-196521900D01*
X271743741Y-196521900D02*
X271672312Y-196450471D01*
X273529455Y-195093328D02*
X273672312Y-195093328D01*
X273672312Y-195093328D02*
X273815169Y-195164757D01*
X273815169Y-195164757D02*
X273886598Y-195236185D01*
X273886598Y-195236185D02*
X273958026Y-195379042D01*
X273958026Y-195379042D02*
X274029455Y-195664757D01*
X274029455Y-195664757D02*
X274029455Y-196021900D01*
X274029455Y-196021900D02*
X273958026Y-196307614D01*
X273958026Y-196307614D02*
X273886598Y-196450471D01*
X273886598Y-196450471D02*
X273815169Y-196521900D01*
X273815169Y-196521900D02*
X273672312Y-196593328D01*
X273672312Y-196593328D02*
X273529455Y-196593328D01*
X273529455Y-196593328D02*
X273386598Y-196521900D01*
X273386598Y-196521900D02*
X273315169Y-196450471D01*
X273315169Y-196450471D02*
X273243740Y-196307614D01*
X273243740Y-196307614D02*
X273172312Y-196021900D01*
X273172312Y-196021900D02*
X273172312Y-195664757D01*
X273172312Y-195664757D02*
X273243740Y-195379042D01*
X273243740Y-195379042D02*
X273315169Y-195236185D01*
X273315169Y-195236185D02*
X273386598Y-195164757D01*
X273386598Y-195164757D02*
X273529455Y-195093328D01*
D10*
D11*
X177002200Y-187507200D02*
X285002200Y-187507200D01*
D10*
D13*
X178693928Y-188211638D02*
X179836785Y-188211638D01*
X179015357Y-190211638D02*
X179265357Y-188211638D01*
X180253452Y-190211638D02*
X180420119Y-188878304D01*
X180503452Y-188211638D02*
X180396309Y-188306876D01*
X180396309Y-188306876D02*
X180479643Y-188402114D01*
X180479643Y-188402114D02*
X180586786Y-188306876D01*
X180586786Y-188306876D02*
X180503452Y-188211638D01*
X180503452Y-188211638D02*
X180479643Y-188402114D01*
X181086786Y-188878304D02*
X181848690Y-188878304D01*
X181455833Y-188211638D02*
X181241548Y-189925923D01*
X181241548Y-189925923D02*
X181312976Y-190116400D01*
X181312976Y-190116400D02*
X181491548Y-190211638D01*
X181491548Y-190211638D02*
X181682024Y-190211638D01*
X182634405Y-190211638D02*
X182455833Y-190116400D01*
X182455833Y-190116400D02*
X182384405Y-189925923D01*
X182384405Y-189925923D02*
X182598690Y-188211638D01*
X184170119Y-190116400D02*
X183967738Y-190211638D01*
X183967738Y-190211638D02*
X183586785Y-190211638D01*
X183586785Y-190211638D02*
X183408214Y-190116400D01*
X183408214Y-190116400D02*
X183336785Y-189925923D01*
X183336785Y-189925923D02*
X183432024Y-189164019D01*
X183432024Y-189164019D02*
X183551071Y-188973542D01*
X183551071Y-188973542D02*
X183753452Y-188878304D01*
X183753452Y-188878304D02*
X184134404Y-188878304D01*
X184134404Y-188878304D02*
X184312976Y-188973542D01*
X184312976Y-188973542D02*
X184384404Y-189164019D01*
X184384404Y-189164019D02*
X184360595Y-189354495D01*
X184360595Y-189354495D02*
X183384404Y-189544971D01*
X185134405Y-190021161D02*
X185217738Y-190116400D01*
X185217738Y-190116400D02*
X185110595Y-190211638D01*
X185110595Y-190211638D02*
X185027262Y-190116400D01*
X185027262Y-190116400D02*
X185134405Y-190021161D01*
X185134405Y-190021161D02*
X185110595Y-190211638D01*
X185265357Y-188973542D02*
X185348690Y-189068780D01*
X185348690Y-189068780D02*
X185241548Y-189164019D01*
X185241548Y-189164019D02*
X185158214Y-189068780D01*
X185158214Y-189068780D02*
X185265357Y-188973542D01*
X185265357Y-188973542D02*
X185241548Y-189164019D01*
X187562977Y-189640209D02*
X188515358Y-189640209D01*
X187301072Y-190211638D02*
X188217739Y-188211638D01*
X188217739Y-188211638D02*
X188634405Y-190211638D01*
X189301072Y-190211638D02*
X189551072Y-188211638D01*
X189551072Y-188211638D02*
X190039167Y-189640209D01*
X190039167Y-189640209D02*
X190884406Y-188211638D01*
X190884406Y-188211638D02*
X190634406Y-190211638D01*
X191503453Y-190116400D02*
X191777262Y-190211638D01*
X191777262Y-190211638D02*
X192253453Y-190211638D01*
X192253453Y-190211638D02*
X192455834Y-190116400D01*
X192455834Y-190116400D02*
X192562977Y-190021161D01*
X192562977Y-190021161D02*
X192682024Y-189830685D01*
X192682024Y-189830685D02*
X192705834Y-189640209D01*
X192705834Y-189640209D02*
X192634405Y-189449733D01*
X192634405Y-189449733D02*
X192551072Y-189354495D01*
X192551072Y-189354495D02*
X192372501Y-189259257D01*
X192372501Y-189259257D02*
X192003453Y-189164019D01*
X192003453Y-189164019D02*
X191824881Y-189068780D01*
X191824881Y-189068780D02*
X191741548Y-188973542D01*
X191741548Y-188973542D02*
X191670120Y-188783066D01*
X191670120Y-188783066D02*
X191693929Y-188592590D01*
X191693929Y-188592590D02*
X191812977Y-188402114D01*
X191812977Y-188402114D02*
X191920120Y-188306876D01*
X191920120Y-188306876D02*
X192122501Y-188211638D01*
X192122501Y-188211638D02*
X192598691Y-188211638D01*
X192598691Y-188211638D02*
X192872501Y-188306876D01*
X193467739Y-189640209D02*
X194420120Y-189640209D01*
X193205834Y-190211638D02*
X194122501Y-188211638D01*
X194122501Y-188211638D02*
X194539167Y-190211638D01*
X195170120Y-188211638D02*
X196312977Y-188211638D01*
X195491549Y-190211638D02*
X195741549Y-188211638D01*
X198229645Y-189640209D02*
X199182026Y-189640209D01*
X197967740Y-190211638D02*
X198884407Y-188211638D01*
X198884407Y-188211638D02*
X199301073Y-190211638D01*
X199884407Y-190116400D02*
X200158216Y-190211638D01*
X200158216Y-190211638D02*
X200634407Y-190211638D01*
X200634407Y-190211638D02*
X200836788Y-190116400D01*
X200836788Y-190116400D02*
X200943931Y-190021161D01*
X200943931Y-190021161D02*
X201062978Y-189830685D01*
X201062978Y-189830685D02*
X201086788Y-189640209D01*
X201086788Y-189640209D02*
X201015359Y-189449733D01*
X201015359Y-189449733D02*
X200932026Y-189354495D01*
X200932026Y-189354495D02*
X200753455Y-189259257D01*
X200753455Y-189259257D02*
X200384407Y-189164019D01*
X200384407Y-189164019D02*
X200205835Y-189068780D01*
X200205835Y-189068780D02*
X200122502Y-188973542D01*
X200122502Y-188973542D02*
X200051074Y-188783066D01*
X200051074Y-188783066D02*
X200074883Y-188592590D01*
X200074883Y-188592590D02*
X200193931Y-188402114D01*
X200193931Y-188402114D02*
X200301074Y-188306876D01*
X200301074Y-188306876D02*
X200503455Y-188211638D01*
X200503455Y-188211638D02*
X200979645Y-188211638D01*
X200979645Y-188211638D02*
X201253455Y-188306876D01*
X203039169Y-190021161D02*
X202932026Y-190116400D01*
X202932026Y-190116400D02*
X202634407Y-190211638D01*
X202634407Y-190211638D02*
X202443931Y-190211638D01*
X202443931Y-190211638D02*
X202170121Y-190116400D01*
X202170121Y-190116400D02*
X202003455Y-189925923D01*
X202003455Y-189925923D02*
X201932026Y-189735447D01*
X201932026Y-189735447D02*
X201884407Y-189354495D01*
X201884407Y-189354495D02*
X201920121Y-189068780D01*
X201920121Y-189068780D02*
X202062978Y-188687828D01*
X202062978Y-188687828D02*
X202182026Y-188497352D01*
X202182026Y-188497352D02*
X202396312Y-188306876D01*
X202396312Y-188306876D02*
X202693931Y-188211638D01*
X202693931Y-188211638D02*
X202884407Y-188211638D01*
X202884407Y-188211638D02*
X203158217Y-188306876D01*
X203158217Y-188306876D02*
X203241550Y-188402114D01*
X204003455Y-189164019D02*
X204670121Y-189164019D01*
X204824883Y-190211638D02*
X203872502Y-190211638D01*
X203872502Y-190211638D02*
X204122502Y-188211638D01*
X204122502Y-188211638D02*
X205074883Y-188211638D01*
X205682026Y-190211638D02*
X205932026Y-188211638D01*
X205932026Y-188211638D02*
X206824883Y-190211638D01*
X206824883Y-190211638D02*
X207074883Y-188211638D01*
X207741550Y-188211638D02*
X208884407Y-188211638D01*
X208062979Y-190211638D02*
X208312979Y-188211638D01*
X210741551Y-190116400D02*
X211015360Y-190211638D01*
X211015360Y-190211638D02*
X211491551Y-190211638D01*
X211491551Y-190211638D02*
X211693932Y-190116400D01*
X211693932Y-190116400D02*
X211801075Y-190021161D01*
X211801075Y-190021161D02*
X211920122Y-189830685D01*
X211920122Y-189830685D02*
X211943932Y-189640209D01*
X211943932Y-189640209D02*
X211872503Y-189449733D01*
X211872503Y-189449733D02*
X211789170Y-189354495D01*
X211789170Y-189354495D02*
X211610599Y-189259257D01*
X211610599Y-189259257D02*
X211241551Y-189164019D01*
X211241551Y-189164019D02*
X211062979Y-189068780D01*
X211062979Y-189068780D02*
X210979646Y-188973542D01*
X210979646Y-188973542D02*
X210908218Y-188783066D01*
X210908218Y-188783066D02*
X210932027Y-188592590D01*
X210932027Y-188592590D02*
X211051075Y-188402114D01*
X211051075Y-188402114D02*
X211158218Y-188306876D01*
X211158218Y-188306876D02*
X211360599Y-188211638D01*
X211360599Y-188211638D02*
X211836789Y-188211638D01*
X211836789Y-188211638D02*
X212110599Y-188306876D01*
X212729646Y-190211638D02*
X212979646Y-188211638D01*
X212979646Y-188211638D02*
X213455837Y-188211638D01*
X213455837Y-188211638D02*
X213729646Y-188306876D01*
X213729646Y-188306876D02*
X213896313Y-188497352D01*
X213896313Y-188497352D02*
X213967741Y-188687828D01*
X213967741Y-188687828D02*
X214015361Y-189068780D01*
X214015361Y-189068780D02*
X213979646Y-189354495D01*
X213979646Y-189354495D02*
X213836789Y-189735447D01*
X213836789Y-189735447D02*
X213717741Y-189925923D01*
X213717741Y-189925923D02*
X213503456Y-190116400D01*
X213503456Y-190116400D02*
X213205837Y-190211638D01*
X213205837Y-190211638D02*
X212729646Y-190211638D01*
X215872503Y-190211638D02*
X215324884Y-189259257D01*
X214729646Y-190211638D02*
X214979646Y-188211638D01*
X214979646Y-188211638D02*
X215741551Y-188211638D01*
X215741551Y-188211638D02*
X215920122Y-188306876D01*
X215920122Y-188306876D02*
X216003456Y-188402114D01*
X216003456Y-188402114D02*
X216074884Y-188592590D01*
X216074884Y-188592590D02*
X216039170Y-188878304D01*
X216039170Y-188878304D02*
X215920122Y-189068780D01*
X215920122Y-189068780D02*
X215812980Y-189164019D01*
X215812980Y-189164019D02*
X215610599Y-189259257D01*
X215610599Y-189259257D02*
X214848694Y-189259257D01*
D10*
D11*
X178958026Y-185607614D02*
X178458026Y-185607614D01*
X178458026Y-186393328D02*
X178458026Y-184893328D01*
X178458026Y-184893328D02*
X179172312Y-184893328D01*
X179743740Y-186393328D02*
X179743740Y-185393328D01*
X179743740Y-184893328D02*
X179672312Y-184964757D01*
X179672312Y-184964757D02*
X179743740Y-185036185D01*
X179743740Y-185036185D02*
X179815169Y-184964757D01*
X179815169Y-184964757D02*
X179743740Y-184893328D01*
X179743740Y-184893328D02*
X179743740Y-185036185D01*
X180672312Y-186393328D02*
X180529455Y-186321900D01*
X180529455Y-186321900D02*
X180458026Y-186179042D01*
X180458026Y-186179042D02*
X180458026Y-184893328D01*
X181815169Y-186321900D02*
X181672312Y-186393328D01*
X181672312Y-186393328D02*
X181386598Y-186393328D01*
X181386598Y-186393328D02*
X181243740Y-186321900D01*
X181243740Y-186321900D02*
X181172312Y-186179042D01*
X181172312Y-186179042D02*
X181172312Y-185607614D01*
X181172312Y-185607614D02*
X181243740Y-185464757D01*
X181243740Y-185464757D02*
X181386598Y-185393328D01*
X181386598Y-185393328D02*
X181672312Y-185393328D01*
X181672312Y-185393328D02*
X181815169Y-185464757D01*
X181815169Y-185464757D02*
X181886598Y-185607614D01*
X181886598Y-185607614D02*
X181886598Y-185750471D01*
X181886598Y-185750471D02*
X181172312Y-185893328D01*
X182529454Y-186250471D02*
X182600883Y-186321900D01*
X182600883Y-186321900D02*
X182529454Y-186393328D01*
X182529454Y-186393328D02*
X182458026Y-186321900D01*
X182458026Y-186321900D02*
X182529454Y-186250471D01*
X182529454Y-186250471D02*
X182529454Y-186393328D01*
X182529454Y-185464757D02*
X182600883Y-185536185D01*
X182600883Y-185536185D02*
X182529454Y-185607614D01*
X182529454Y-185607614D02*
X182458026Y-185536185D01*
X182458026Y-185536185D02*
X182529454Y-185464757D01*
X182529454Y-185464757D02*
X182529454Y-185607614D01*
X184315169Y-185964757D02*
X185029455Y-185964757D01*
X184172312Y-186393328D02*
X184672312Y-184893328D01*
X184672312Y-184893328D02*
X185172312Y-186393328D01*
X185672311Y-186393328D02*
X185672311Y-184893328D01*
X185672311Y-184893328D02*
X186172311Y-185964757D01*
X186172311Y-185964757D02*
X186672311Y-184893328D01*
X186672311Y-184893328D02*
X186672311Y-186393328D01*
X187315169Y-186321900D02*
X187529455Y-186393328D01*
X187529455Y-186393328D02*
X187886597Y-186393328D01*
X187886597Y-186393328D02*
X188029455Y-186321900D01*
X188029455Y-186321900D02*
X188100883Y-186250471D01*
X188100883Y-186250471D02*
X188172312Y-186107614D01*
X188172312Y-186107614D02*
X188172312Y-185964757D01*
X188172312Y-185964757D02*
X188100883Y-185821900D01*
X188100883Y-185821900D02*
X188029455Y-185750471D01*
X188029455Y-185750471D02*
X187886597Y-185679042D01*
X187886597Y-185679042D02*
X187600883Y-185607614D01*
X187600883Y-185607614D02*
X187458026Y-185536185D01*
X187458026Y-185536185D02*
X187386597Y-185464757D01*
X187386597Y-185464757D02*
X187315169Y-185321900D01*
X187315169Y-185321900D02*
X187315169Y-185179042D01*
X187315169Y-185179042D02*
X187386597Y-185036185D01*
X187386597Y-185036185D02*
X187458026Y-184964757D01*
X187458026Y-184964757D02*
X187600883Y-184893328D01*
X187600883Y-184893328D02*
X187958026Y-184893328D01*
X187958026Y-184893328D02*
X188172312Y-184964757D01*
X188743740Y-185964757D02*
X189458026Y-185964757D01*
X188600883Y-186393328D02*
X189100883Y-184893328D01*
X189100883Y-184893328D02*
X189600883Y-186393328D01*
X189886597Y-184893328D02*
X190743740Y-184893328D01*
X190315168Y-186393328D02*
X190315168Y-184893328D01*
X190886597Y-186536185D02*
X192029454Y-186536185D01*
X192315168Y-186321900D02*
X192529454Y-186393328D01*
X192529454Y-186393328D02*
X192886596Y-186393328D01*
X192886596Y-186393328D02*
X193029454Y-186321900D01*
X193029454Y-186321900D02*
X193100882Y-186250471D01*
X193100882Y-186250471D02*
X193172311Y-186107614D01*
X193172311Y-186107614D02*
X193172311Y-185964757D01*
X193172311Y-185964757D02*
X193100882Y-185821900D01*
X193100882Y-185821900D02*
X193029454Y-185750471D01*
X193029454Y-185750471D02*
X192886596Y-185679042D01*
X192886596Y-185679042D02*
X192600882Y-185607614D01*
X192600882Y-185607614D02*
X192458025Y-185536185D01*
X192458025Y-185536185D02*
X192386596Y-185464757D01*
X192386596Y-185464757D02*
X192315168Y-185321900D01*
X192315168Y-185321900D02*
X192315168Y-185179042D01*
X192315168Y-185179042D02*
X192386596Y-185036185D01*
X192386596Y-185036185D02*
X192458025Y-184964757D01*
X192458025Y-184964757D02*
X192600882Y-184893328D01*
X192600882Y-184893328D02*
X192958025Y-184893328D01*
X192958025Y-184893328D02*
X193172311Y-184964757D01*
X193815167Y-186393328D02*
X193815167Y-184893328D01*
X193815167Y-184893328D02*
X194172310Y-184893328D01*
X194172310Y-184893328D02*
X194386596Y-184964757D01*
X194386596Y-184964757D02*
X194529453Y-185107614D01*
X194529453Y-185107614D02*
X194600882Y-185250471D01*
X194600882Y-185250471D02*
X194672310Y-185536185D01*
X194672310Y-185536185D02*
X194672310Y-185750471D01*
X194672310Y-185750471D02*
X194600882Y-186036185D01*
X194600882Y-186036185D02*
X194529453Y-186179042D01*
X194529453Y-186179042D02*
X194386596Y-186321900D01*
X194386596Y-186321900D02*
X194172310Y-186393328D01*
X194172310Y-186393328D02*
X193815167Y-186393328D01*
X196172310Y-186393328D02*
X195672310Y-185679042D01*
X195315167Y-186393328D02*
X195315167Y-184893328D01*
X195315167Y-184893328D02*
X195886596Y-184893328D01*
X195886596Y-184893328D02*
X196029453Y-184964757D01*
X196029453Y-184964757D02*
X196100882Y-185036185D01*
X196100882Y-185036185D02*
X196172310Y-185179042D01*
X196172310Y-185179042D02*
X196172310Y-185393328D01*
X196172310Y-185393328D02*
X196100882Y-185536185D01*
X196100882Y-185536185D02*
X196029453Y-185607614D01*
X196029453Y-185607614D02*
X195886596Y-185679042D01*
X195886596Y-185679042D02*
X195315167Y-185679042D01*
X196815167Y-186250471D02*
X196886596Y-186321900D01*
X196886596Y-186321900D02*
X196815167Y-186393328D01*
X196815167Y-186393328D02*
X196743739Y-186321900D01*
X196743739Y-186321900D02*
X196815167Y-186250471D01*
X196815167Y-186250471D02*
X196815167Y-186393328D01*
X197529453Y-186393328D02*
X197529453Y-184893328D01*
X197672311Y-185821900D02*
X198100882Y-186393328D01*
X198100882Y-185393328D02*
X197529453Y-185964757D01*
X198743739Y-186393328D02*
X198743739Y-185393328D01*
X198743739Y-184893328D02*
X198672311Y-184964757D01*
X198672311Y-184964757D02*
X198743739Y-185036185D01*
X198743739Y-185036185D02*
X198815168Y-184964757D01*
X198815168Y-184964757D02*
X198743739Y-184893328D01*
X198743739Y-184893328D02*
X198743739Y-185036185D01*
X200100883Y-186321900D02*
X199958025Y-186393328D01*
X199958025Y-186393328D02*
X199672311Y-186393328D01*
X199672311Y-186393328D02*
X199529454Y-186321900D01*
X199529454Y-186321900D02*
X199458025Y-186250471D01*
X199458025Y-186250471D02*
X199386597Y-186107614D01*
X199386597Y-186107614D02*
X199386597Y-185679042D01*
X199386597Y-185679042D02*
X199458025Y-185536185D01*
X199458025Y-185536185D02*
X199529454Y-185464757D01*
X199529454Y-185464757D02*
X199672311Y-185393328D01*
X199672311Y-185393328D02*
X199958025Y-185393328D01*
X199958025Y-185393328D02*
X200100883Y-185464757D01*
X201386597Y-186393328D02*
X201386597Y-185607614D01*
X201386597Y-185607614D02*
X201315168Y-185464757D01*
X201315168Y-185464757D02*
X201172311Y-185393328D01*
X201172311Y-185393328D02*
X200886597Y-185393328D01*
X200886597Y-185393328D02*
X200743739Y-185464757D01*
X201386597Y-186321900D02*
X201243739Y-186393328D01*
X201243739Y-186393328D02*
X200886597Y-186393328D01*
X200886597Y-186393328D02*
X200743739Y-186321900D01*
X200743739Y-186321900D02*
X200672311Y-186179042D01*
X200672311Y-186179042D02*
X200672311Y-186036185D01*
X200672311Y-186036185D02*
X200743739Y-185893328D01*
X200743739Y-185893328D02*
X200886597Y-185821900D01*
X200886597Y-185821900D02*
X201243739Y-185821900D01*
X201243739Y-185821900D02*
X201386597Y-185750471D01*
X202743740Y-186393328D02*
X202743740Y-184893328D01*
X202743740Y-186321900D02*
X202600882Y-186393328D01*
X202600882Y-186393328D02*
X202315168Y-186393328D01*
X202315168Y-186393328D02*
X202172311Y-186321900D01*
X202172311Y-186321900D02*
X202100882Y-186250471D01*
X202100882Y-186250471D02*
X202029454Y-186107614D01*
X202029454Y-186107614D02*
X202029454Y-185679042D01*
X202029454Y-185679042D02*
X202100882Y-185536185D01*
X202100882Y-185536185D02*
X202172311Y-185464757D01*
X202172311Y-185464757D02*
X202315168Y-185393328D01*
X202315168Y-185393328D02*
X202600882Y-185393328D01*
X202600882Y-185393328D02*
X202743740Y-185464757D01*
X203100883Y-186536185D02*
X204243740Y-186536185D01*
X204600882Y-185393328D02*
X204600882Y-186893328D01*
X204600882Y-185464757D02*
X204743740Y-185393328D01*
X204743740Y-185393328D02*
X205029454Y-185393328D01*
X205029454Y-185393328D02*
X205172311Y-185464757D01*
X205172311Y-185464757D02*
X205243740Y-185536185D01*
X205243740Y-185536185D02*
X205315168Y-185679042D01*
X205315168Y-185679042D02*
X205315168Y-186107614D01*
X205315168Y-186107614D02*
X205243740Y-186250471D01*
X205243740Y-186250471D02*
X205172311Y-186321900D01*
X205172311Y-186321900D02*
X205029454Y-186393328D01*
X205029454Y-186393328D02*
X204743740Y-186393328D01*
X204743740Y-186393328D02*
X204600882Y-186321900D01*
X206600883Y-186321900D02*
X206458025Y-186393328D01*
X206458025Y-186393328D02*
X206172311Y-186393328D01*
X206172311Y-186393328D02*
X206029454Y-186321900D01*
X206029454Y-186321900D02*
X205958025Y-186250471D01*
X205958025Y-186250471D02*
X205886597Y-186107614D01*
X205886597Y-186107614D02*
X205886597Y-185679042D01*
X205886597Y-185679042D02*
X205958025Y-185536185D01*
X205958025Y-185536185D02*
X206029454Y-185464757D01*
X206029454Y-185464757D02*
X206172311Y-185393328D01*
X206172311Y-185393328D02*
X206458025Y-185393328D01*
X206458025Y-185393328D02*
X206600883Y-185464757D01*
X207243739Y-186393328D02*
X207243739Y-184893328D01*
X207243739Y-185464757D02*
X207386597Y-185393328D01*
X207386597Y-185393328D02*
X207672311Y-185393328D01*
X207672311Y-185393328D02*
X207815168Y-185464757D01*
X207815168Y-185464757D02*
X207886597Y-185536185D01*
X207886597Y-185536185D02*
X207958025Y-185679042D01*
X207958025Y-185679042D02*
X207958025Y-186107614D01*
X207958025Y-186107614D02*
X207886597Y-186250471D01*
X207886597Y-186250471D02*
X207815168Y-186321900D01*
X207815168Y-186321900D02*
X207672311Y-186393328D01*
X207672311Y-186393328D02*
X207386597Y-186393328D01*
X207386597Y-186393328D02*
X207243739Y-186321900D01*
D10*
D11*
X177002200Y-181507200D02*
X285002200Y-181507200D01*
D10*
D11*
X178386598Y-183621900D02*
X178600884Y-183693328D01*
X178600884Y-183693328D02*
X178958026Y-183693328D01*
X178958026Y-183693328D02*
X179100884Y-183621900D01*
X179100884Y-183621900D02*
X179172312Y-183550471D01*
X179172312Y-183550471D02*
X179243741Y-183407614D01*
X179243741Y-183407614D02*
X179243741Y-183264757D01*
X179243741Y-183264757D02*
X179172312Y-183121900D01*
X179172312Y-183121900D02*
X179100884Y-183050471D01*
X179100884Y-183050471D02*
X178958026Y-182979042D01*
X178958026Y-182979042D02*
X178672312Y-182907614D01*
X178672312Y-182907614D02*
X178529455Y-182836185D01*
X178529455Y-182836185D02*
X178458026Y-182764757D01*
X178458026Y-182764757D02*
X178386598Y-182621900D01*
X178386598Y-182621900D02*
X178386598Y-182479042D01*
X178386598Y-182479042D02*
X178458026Y-182336185D01*
X178458026Y-182336185D02*
X178529455Y-182264757D01*
X178529455Y-182264757D02*
X178672312Y-182193328D01*
X178672312Y-182193328D02*
X179029455Y-182193328D01*
X179029455Y-182193328D02*
X179243741Y-182264757D01*
X179886597Y-183693328D02*
X179886597Y-182193328D01*
X180529455Y-183693328D02*
X180529455Y-182907614D01*
X180529455Y-182907614D02*
X180458026Y-182764757D01*
X180458026Y-182764757D02*
X180315169Y-182693328D01*
X180315169Y-182693328D02*
X180100883Y-182693328D01*
X180100883Y-182693328D02*
X179958026Y-182764757D01*
X179958026Y-182764757D02*
X179886597Y-182836185D01*
X181815169Y-183621900D02*
X181672312Y-183693328D01*
X181672312Y-183693328D02*
X181386598Y-183693328D01*
X181386598Y-183693328D02*
X181243740Y-183621900D01*
X181243740Y-183621900D02*
X181172312Y-183479042D01*
X181172312Y-183479042D02*
X181172312Y-182907614D01*
X181172312Y-182907614D02*
X181243740Y-182764757D01*
X181243740Y-182764757D02*
X181386598Y-182693328D01*
X181386598Y-182693328D02*
X181672312Y-182693328D01*
X181672312Y-182693328D02*
X181815169Y-182764757D01*
X181815169Y-182764757D02*
X181886598Y-182907614D01*
X181886598Y-182907614D02*
X181886598Y-183050471D01*
X181886598Y-183050471D02*
X181172312Y-183193328D01*
X183100883Y-183621900D02*
X182958026Y-183693328D01*
X182958026Y-183693328D02*
X182672312Y-183693328D01*
X182672312Y-183693328D02*
X182529454Y-183621900D01*
X182529454Y-183621900D02*
X182458026Y-183479042D01*
X182458026Y-183479042D02*
X182458026Y-182907614D01*
X182458026Y-182907614D02*
X182529454Y-182764757D01*
X182529454Y-182764757D02*
X182672312Y-182693328D01*
X182672312Y-182693328D02*
X182958026Y-182693328D01*
X182958026Y-182693328D02*
X183100883Y-182764757D01*
X183100883Y-182764757D02*
X183172312Y-182907614D01*
X183172312Y-182907614D02*
X183172312Y-183050471D01*
X183172312Y-183050471D02*
X182458026Y-183193328D01*
X183600883Y-182693328D02*
X184172311Y-182693328D01*
X183815168Y-182193328D02*
X183815168Y-183479042D01*
X183815168Y-183479042D02*
X183886597Y-183621900D01*
X183886597Y-183621900D02*
X184029454Y-183693328D01*
X184029454Y-183693328D02*
X184172311Y-183693328D01*
X184672311Y-183550471D02*
X184743740Y-183621900D01*
X184743740Y-183621900D02*
X184672311Y-183693328D01*
X184672311Y-183693328D02*
X184600883Y-183621900D01*
X184600883Y-183621900D02*
X184672311Y-183550471D01*
X184672311Y-183550471D02*
X184672311Y-183693328D01*
X184672311Y-182764757D02*
X184743740Y-182836185D01*
X184743740Y-182836185D02*
X184672311Y-182907614D01*
X184672311Y-182907614D02*
X184600883Y-182836185D01*
X184600883Y-182836185D02*
X184672311Y-182764757D01*
X184672311Y-182764757D02*
X184672311Y-182907614D01*
D10*
D12*
X178485282Y-180256957D02*
X179199568Y-180256957D01*
X178342425Y-180685528D02*
X178842425Y-179185528D01*
X178842425Y-179185528D02*
X179342425Y-180685528D01*
X179842424Y-180685528D02*
X179842424Y-179185528D01*
X179842424Y-179185528D02*
X180342424Y-180256957D01*
X180342424Y-180256957D02*
X180842424Y-179185528D01*
X180842424Y-179185528D02*
X180842424Y-180685528D01*
X181485282Y-180614100D02*
X181699568Y-180685528D01*
X181699568Y-180685528D02*
X182056710Y-180685528D01*
X182056710Y-180685528D02*
X182199568Y-180614100D01*
X182199568Y-180614100D02*
X182270996Y-180542671D01*
X182270996Y-180542671D02*
X182342425Y-180399814D01*
X182342425Y-180399814D02*
X182342425Y-180256957D01*
X182342425Y-180256957D02*
X182270996Y-180114100D01*
X182270996Y-180114100D02*
X182199568Y-180042671D01*
X182199568Y-180042671D02*
X182056710Y-179971242D01*
X182056710Y-179971242D02*
X181770996Y-179899814D01*
X181770996Y-179899814D02*
X181628139Y-179828385D01*
X181628139Y-179828385D02*
X181556710Y-179756957D01*
X181556710Y-179756957D02*
X181485282Y-179614100D01*
X181485282Y-179614100D02*
X181485282Y-179471242D01*
X181485282Y-179471242D02*
X181556710Y-179328385D01*
X181556710Y-179328385D02*
X181628139Y-179256957D01*
X181628139Y-179256957D02*
X181770996Y-179185528D01*
X181770996Y-179185528D02*
X182128139Y-179185528D01*
X182128139Y-179185528D02*
X182342425Y-179256957D01*
X182913853Y-180256957D02*
X183628139Y-180256957D01*
X182770996Y-180685528D02*
X183270996Y-179185528D01*
X183270996Y-179185528D02*
X183770996Y-180685528D01*
X184056710Y-179185528D02*
X184913853Y-179185528D01*
X184485281Y-180685528D02*
X184485281Y-179185528D01*
D10*
D11*
X197002200Y-191507200D02*
X197002200Y-194507200D01*
D10*
D11*
X261002200Y-191507200D02*
X261002200Y-198007200D01*
D14*
X98536500Y-86710000D02*
G75*
G02*
X98311500Y-86710000I-112500J0D01*
G01*
X98311500Y-86710000D02*
G75*
G02*
X98536500Y-86710000I112500J0D01*
G01*
D11*
X177423289Y-155988750D02*
G75*
G02*
X177238899Y-155988750I-92195J0D01*
G01*
X177238899Y-155988750D02*
G75*
G02*
X177423289Y-155988750I92195J0D01*
G01*
D14*
X94466500Y-106740000D02*
G75*
G02*
X94241500Y-106740000I-112500J0D01*
G01*
X94241500Y-106740000D02*
G75*
G02*
X94466500Y-106740000I112500J0D01*
G01*
X167459125Y-112414392D02*
G75*
G02*
X167234125Y-112414392I-112500J0D01*
G01*
X167234125Y-112414392D02*
G75*
G02*
X167459125Y-112414392I112500J0D01*
G01*
X153376724Y-102258585D02*
G75*
G02*
X153151724Y-102258585I-112500J0D01*
G01*
X153151724Y-102258585D02*
G75*
G02*
X153376724Y-102258585I112500J0D01*
G01*
X137046500Y-96170000D02*
G75*
G02*
X136821500Y-96170000I-112500J0D01*
G01*
X136821500Y-96170000D02*
G75*
G02*
X137046500Y-96170000I112500J0D01*
G01*
X141478399Y-102334784D02*
G75*
G02*
X141253399Y-102334784I-112500J0D01*
G01*
X141253399Y-102334784D02*
G75*
G02*
X141478399Y-102334784I112500J0D01*
G01*
X105786500Y-81770000D02*
G75*
G02*
X105561500Y-81770000I-112500J0D01*
G01*
X105561500Y-81770000D02*
G75*
G02*
X105786500Y-81770000I112500J0D01*
G01*
X121433633Y-99402165D02*
G75*
G02*
X121208633Y-99402165I-112500J0D01*
G01*
X121208633Y-99402165D02*
G75*
G02*
X121433633Y-99402165I112500J0D01*
G01*
X144905551Y-101634453D02*
G75*
G02*
X144680551Y-101634453I-112500J0D01*
G01*
X144680551Y-101634453D02*
G75*
G02*
X144905551Y-101634453I112500J0D01*
G01*
X168033301Y-163236295D02*
G75*
G02*
X167808301Y-163236295I-112500J0D01*
G01*
X167808301Y-163236295D02*
G75*
G02*
X168033301Y-163236295I112500J0D01*
G01*
X127840534Y-83868769D02*
G75*
G02*
X127615534Y-83868769I-112500J0D01*
G01*
X127615534Y-83868769D02*
G75*
G02*
X127840534Y-83868769I112500J0D01*
G01*
X168126584Y-133787186D02*
G75*
G02*
X167901584Y-133787186I-112500J0D01*
G01*
X167901584Y-133787186D02*
G75*
G02*
X168126584Y-133787186I112500J0D01*
G01*
X124506500Y-80090000D02*
G75*
G02*
X124281500Y-80090000I-112500J0D01*
G01*
X124281500Y-80090000D02*
G75*
G02*
X124506500Y-80090000I112500J0D01*
G01*
X111996171Y-150395654D02*
G75*
G02*
X111771171Y-150395654I-112500J0D01*
G01*
X111771171Y-150395654D02*
G75*
G02*
X111996171Y-150395654I112500J0D01*
G01*
X154095410Y-112320104D02*
G75*
G02*
X153870410Y-112320104I-112500J0D01*
G01*
X153870410Y-112320104D02*
G75*
G02*
X154095410Y-112320104I112500J0D01*
G01*
D11*
X135596195Y-101560000D02*
G75*
G02*
X135411805Y-101560000I-92195J0D01*
G01*
X135411805Y-101560000D02*
G75*
G02*
X135596195Y-101560000I92195J0D01*
G01*
D14*
X99641899Y-98949216D02*
G75*
G02*
X99416899Y-98949216I-112500J0D01*
G01*
X99416899Y-98949216D02*
G75*
G02*
X99641899Y-98949216I112500J0D01*
G01*
X138911710Y-102324983D02*
G75*
G02*
X138686710Y-102324983I-112500J0D01*
G01*
X138686710Y-102324983D02*
G75*
G02*
X138911710Y-102324983I112500J0D01*
G01*
X95826500Y-95030000D02*
G75*
G02*
X95601500Y-95030000I-112500J0D01*
G01*
X95601500Y-95030000D02*
G75*
G02*
X95826500Y-95030000I112500J0D01*
G01*
X170748065Y-98486231D02*
G75*
G02*
X170523065Y-98486231I-112500J0D01*
G01*
X170523065Y-98486231D02*
G75*
G02*
X170748065Y-98486231I112500J0D01*
G01*
X172317993Y-145605607D02*
G75*
G02*
X172092993Y-145605607I-112500J0D01*
G01*
X172092993Y-145605607D02*
G75*
G02*
X172317993Y-145605607I112500J0D01*
G01*
X151408769Y-157829148D02*
G75*
G02*
X151183769Y-157829148I-112500J0D01*
G01*
X151183769Y-157829148D02*
G75*
G02*
X151408769Y-157829148I112500J0D01*
G01*
X172188252Y-114831264D02*
G75*
G02*
X171963252Y-114831264I-112500J0D01*
G01*
X171963252Y-114831264D02*
G75*
G02*
X172188252Y-114831264I112500J0D01*
G01*
X148640138Y-104169919D02*
G75*
G02*
X148415138Y-104169919I-112500J0D01*
G01*
X148415138Y-104169919D02*
G75*
G02*
X148640138Y-104169919I112500J0D01*
G01*
X166640452Y-145829029D02*
G75*
G02*
X166415452Y-145829029I-112500J0D01*
G01*
X166415452Y-145829029D02*
G75*
G02*
X166640452Y-145829029I112500J0D01*
G01*
X163392493Y-111919567D02*
G75*
G02*
X163167493Y-111919567I-112500J0D01*
G01*
X163167493Y-111919567D02*
G75*
G02*
X163392493Y-111919567I112500J0D01*
G01*
X124536500Y-90180000D02*
G75*
G02*
X124311500Y-90180000I-112500J0D01*
G01*
X124311500Y-90180000D02*
G75*
G02*
X124536500Y-90180000I112500J0D01*
G01*
X156327415Y-131702844D02*
G75*
G02*
X156102415Y-131702844I-112500J0D01*
G01*
X156102415Y-131702844D02*
G75*
G02*
X156327415Y-131702844I112500J0D01*
G01*
X105746500Y-157890000D02*
G75*
G02*
X105521500Y-157890000I-112500J0D01*
G01*
X105521500Y-157890000D02*
G75*
G02*
X105746500Y-157890000I112500J0D01*
G01*
X170946500Y-107360000D02*
G75*
G02*
X170721500Y-107360000I-112500J0D01*
G01*
X170721500Y-107360000D02*
G75*
G02*
X170946500Y-107360000I112500J0D01*
G01*
D15*
X160976395Y-86594972D02*
G75*
G02*
X160767143Y-86594972I-104626J0D01*
G01*
X160767143Y-86594972D02*
G75*
G02*
X160976395Y-86594972I104626J0D01*
G01*
D14*
X172765871Y-138715607D02*
G75*
G02*
X172540871Y-138715607I-112500J0D01*
G01*
X172540871Y-138715607D02*
G75*
G02*
X172765871Y-138715607I112500J0D01*
G01*
X175026500Y-125590000D02*
G75*
G02*
X174801500Y-125590000I-112500J0D01*
G01*
X174801500Y-125590000D02*
G75*
G02*
X175026500Y-125590000I112500J0D01*
G01*
X113406500Y-156310000D02*
G75*
G02*
X113181500Y-156310000I-112500J0D01*
G01*
X113181500Y-156310000D02*
G75*
G02*
X113406500Y-156310000I112500J0D01*
G01*
X131166500Y-155550000D02*
G75*
G02*
X130941500Y-155550000I-112500J0D01*
G01*
X130941500Y-155550000D02*
G75*
G02*
X131166500Y-155550000I112500J0D01*
G01*
X164779209Y-102971475D02*
G75*
G02*
X164554209Y-102971475I-112500J0D01*
G01*
X164554209Y-102971475D02*
G75*
G02*
X164779209Y-102971475I112500J0D01*
G01*
X101897920Y-92590752D02*
G75*
G02*
X101672920Y-92590752I-112500J0D01*
G01*
X101672920Y-92590752D02*
G75*
G02*
X101897920Y-92590752I112500J0D01*
G01*
X144166500Y-103030000D02*
G75*
G02*
X143941500Y-103030000I-112500J0D01*
G01*
X143941500Y-103030000D02*
G75*
G02*
X144166500Y-103030000I112500J0D01*
G01*
X105166500Y-82990000D02*
G75*
G02*
X104941500Y-82990000I-112500J0D01*
G01*
X104941500Y-82990000D02*
G75*
G02*
X105166500Y-82990000I112500J0D01*
G01*
D11*
X97177557Y-107243615D02*
X97787081Y-107243615D01*
X97482319Y-107548377D02*
X97482319Y-106938853D01*
X138575670Y-156135982D02*
X139185194Y-156135982D01*
X138880432Y-156440744D02*
X138880432Y-155831220D01*
X125522207Y-78112390D02*
X125446017Y-78074295D01*
X125446017Y-78074295D02*
X125331731Y-78074295D01*
X125331731Y-78074295D02*
X125217445Y-78112390D01*
X125217445Y-78112390D02*
X125141255Y-78188580D01*
X125141255Y-78188580D02*
X125103160Y-78264771D01*
X125103160Y-78264771D02*
X125065064Y-78417152D01*
X125065064Y-78417152D02*
X125065064Y-78531438D01*
X125065064Y-78531438D02*
X125103160Y-78683819D01*
X125103160Y-78683819D02*
X125141255Y-78760009D01*
X125141255Y-78760009D02*
X125217445Y-78836200D01*
X125217445Y-78836200D02*
X125331731Y-78874295D01*
X125331731Y-78874295D02*
X125407922Y-78874295D01*
X125407922Y-78874295D02*
X125522207Y-78836200D01*
X125522207Y-78836200D02*
X125560303Y-78798104D01*
X125560303Y-78798104D02*
X125560303Y-78531438D01*
X125560303Y-78531438D02*
X125407922Y-78531438D01*
X125903160Y-78874295D02*
X125903160Y-78074295D01*
X125903160Y-78074295D02*
X126207922Y-78074295D01*
X126207922Y-78074295D02*
X126284112Y-78112390D01*
X126284112Y-78112390D02*
X126322207Y-78150485D01*
X126322207Y-78150485D02*
X126360303Y-78226676D01*
X126360303Y-78226676D02*
X126360303Y-78340961D01*
X126360303Y-78340961D02*
X126322207Y-78417152D01*
X126322207Y-78417152D02*
X126284112Y-78455247D01*
X126284112Y-78455247D02*
X126207922Y-78493342D01*
X126207922Y-78493342D02*
X125903160Y-78493342D01*
X126703160Y-78874295D02*
X126703160Y-78074295D01*
X127236493Y-78074295D02*
X127388874Y-78074295D01*
X127388874Y-78074295D02*
X127465064Y-78112390D01*
X127465064Y-78112390D02*
X127541255Y-78188580D01*
X127541255Y-78188580D02*
X127579350Y-78340961D01*
X127579350Y-78340961D02*
X127579350Y-78607628D01*
X127579350Y-78607628D02*
X127541255Y-78760009D01*
X127541255Y-78760009D02*
X127465064Y-78836200D01*
X127465064Y-78836200D02*
X127388874Y-78874295D01*
X127388874Y-78874295D02*
X127236493Y-78874295D01*
X127236493Y-78874295D02*
X127160302Y-78836200D01*
X127160302Y-78836200D02*
X127084112Y-78760009D01*
X127084112Y-78760009D02*
X127046016Y-78607628D01*
X127046016Y-78607628D02*
X127046016Y-78340961D01*
X127046016Y-78340961D02*
X127084112Y-78188580D01*
X127084112Y-78188580D02*
X127160302Y-78112390D01*
X127160302Y-78112390D02*
X127236493Y-78074295D01*
X147462924Y-118750675D02*
X148072448Y-118750675D01*
X147767686Y-119055437D02*
X147767686Y-118445913D01*
D16*
X89836054Y-90721695D02*
X89836054Y-91369314D01*
X89836054Y-91369314D02*
X89874149Y-91445504D01*
X89874149Y-91445504D02*
X89912244Y-91483600D01*
X89912244Y-91483600D02*
X89988435Y-91521695D01*
X89988435Y-91521695D02*
X90140816Y-91521695D01*
X90140816Y-91521695D02*
X90217006Y-91483600D01*
X90217006Y-91483600D02*
X90255101Y-91445504D01*
X90255101Y-91445504D02*
X90293197Y-91369314D01*
X90293197Y-91369314D02*
X90293197Y-90721695D01*
X90636053Y-91483600D02*
X90750339Y-91521695D01*
X90750339Y-91521695D02*
X90940815Y-91521695D01*
X90940815Y-91521695D02*
X91017006Y-91483600D01*
X91017006Y-91483600D02*
X91055101Y-91445504D01*
X91055101Y-91445504D02*
X91093196Y-91369314D01*
X91093196Y-91369314D02*
X91093196Y-91293123D01*
X91093196Y-91293123D02*
X91055101Y-91216933D01*
X91055101Y-91216933D02*
X91017006Y-91178838D01*
X91017006Y-91178838D02*
X90940815Y-91140742D01*
X90940815Y-91140742D02*
X90788434Y-91102647D01*
X90788434Y-91102647D02*
X90712244Y-91064552D01*
X90712244Y-91064552D02*
X90674149Y-91026457D01*
X90674149Y-91026457D02*
X90636053Y-90950266D01*
X90636053Y-90950266D02*
X90636053Y-90874076D01*
X90636053Y-90874076D02*
X90674149Y-90797885D01*
X90674149Y-90797885D02*
X90712244Y-90759790D01*
X90712244Y-90759790D02*
X90788434Y-90721695D01*
X90788434Y-90721695D02*
X90978911Y-90721695D01*
X90978911Y-90721695D02*
X91093196Y-90759790D01*
X91702720Y-91102647D02*
X91817006Y-91140742D01*
X91817006Y-91140742D02*
X91855101Y-91178838D01*
X91855101Y-91178838D02*
X91893197Y-91255028D01*
X91893197Y-91255028D02*
X91893197Y-91369314D01*
X91893197Y-91369314D02*
X91855101Y-91445504D01*
X91855101Y-91445504D02*
X91817006Y-91483600D01*
X91817006Y-91483600D02*
X91740816Y-91521695D01*
X91740816Y-91521695D02*
X91436054Y-91521695D01*
X91436054Y-91521695D02*
X91436054Y-90721695D01*
X91436054Y-90721695D02*
X91702720Y-90721695D01*
X91702720Y-90721695D02*
X91778911Y-90759790D01*
X91778911Y-90759790D02*
X91817006Y-90797885D01*
X91817006Y-90797885D02*
X91855101Y-90874076D01*
X91855101Y-90874076D02*
X91855101Y-90950266D01*
X91855101Y-90950266D02*
X91817006Y-91026457D01*
X91817006Y-91026457D02*
X91778911Y-91064552D01*
X91778911Y-91064552D02*
X91702720Y-91102647D01*
X91702720Y-91102647D02*
X91436054Y-91102647D01*
D11*
X99724112Y-163614295D02*
X99343160Y-163614295D01*
X99343160Y-163614295D02*
X99305064Y-163995247D01*
X99305064Y-163995247D02*
X99343160Y-163957152D01*
X99343160Y-163957152D02*
X99419350Y-163919057D01*
X99419350Y-163919057D02*
X99609826Y-163919057D01*
X99609826Y-163919057D02*
X99686017Y-163957152D01*
X99686017Y-163957152D02*
X99724112Y-163995247D01*
X99724112Y-163995247D02*
X99762207Y-164071438D01*
X99762207Y-164071438D02*
X99762207Y-164261914D01*
X99762207Y-164261914D02*
X99724112Y-164338104D01*
X99724112Y-164338104D02*
X99686017Y-164376200D01*
X99686017Y-164376200D02*
X99609826Y-164414295D01*
X99609826Y-164414295D02*
X99419350Y-164414295D01*
X99419350Y-164414295D02*
X99343160Y-164376200D01*
X99343160Y-164376200D02*
X99305064Y-164338104D01*
X100105065Y-164338104D02*
X100143160Y-164376200D01*
X100143160Y-164376200D02*
X100105065Y-164414295D01*
X100105065Y-164414295D02*
X100066969Y-164376200D01*
X100066969Y-164376200D02*
X100105065Y-164338104D01*
X100105065Y-164338104D02*
X100105065Y-164414295D01*
X100866969Y-163614295D02*
X100486017Y-163614295D01*
X100486017Y-163614295D02*
X100447921Y-163995247D01*
X100447921Y-163995247D02*
X100486017Y-163957152D01*
X100486017Y-163957152D02*
X100562207Y-163919057D01*
X100562207Y-163919057D02*
X100752683Y-163919057D01*
X100752683Y-163919057D02*
X100828874Y-163957152D01*
X100828874Y-163957152D02*
X100866969Y-163995247D01*
X100866969Y-163995247D02*
X100905064Y-164071438D01*
X100905064Y-164071438D02*
X100905064Y-164261914D01*
X100905064Y-164261914D02*
X100866969Y-164338104D01*
X100866969Y-164338104D02*
X100828874Y-164376200D01*
X100828874Y-164376200D02*
X100752683Y-164414295D01*
X100752683Y-164414295D02*
X100562207Y-164414295D01*
X100562207Y-164414295D02*
X100486017Y-164376200D01*
X100486017Y-164376200D02*
X100447921Y-164338104D01*
X101247922Y-164109533D02*
X101857446Y-164109533D01*
X102657445Y-164414295D02*
X102200302Y-164414295D01*
X102428874Y-164414295D02*
X102428874Y-163614295D01*
X102428874Y-163614295D02*
X102352683Y-163728580D01*
X102352683Y-163728580D02*
X102276493Y-163804771D01*
X102276493Y-163804771D02*
X102200302Y-163842866D01*
X103114588Y-163957152D02*
X103038398Y-163919057D01*
X103038398Y-163919057D02*
X103000303Y-163880961D01*
X103000303Y-163880961D02*
X102962207Y-163804771D01*
X102962207Y-163804771D02*
X102962207Y-163766676D01*
X102962207Y-163766676D02*
X103000303Y-163690485D01*
X103000303Y-163690485D02*
X103038398Y-163652390D01*
X103038398Y-163652390D02*
X103114588Y-163614295D01*
X103114588Y-163614295D02*
X103266969Y-163614295D01*
X103266969Y-163614295D02*
X103343160Y-163652390D01*
X103343160Y-163652390D02*
X103381255Y-163690485D01*
X103381255Y-163690485D02*
X103419350Y-163766676D01*
X103419350Y-163766676D02*
X103419350Y-163804771D01*
X103419350Y-163804771D02*
X103381255Y-163880961D01*
X103381255Y-163880961D02*
X103343160Y-163919057D01*
X103343160Y-163919057D02*
X103266969Y-163957152D01*
X103266969Y-163957152D02*
X103114588Y-163957152D01*
X103114588Y-163957152D02*
X103038398Y-163995247D01*
X103038398Y-163995247D02*
X103000303Y-164033342D01*
X103000303Y-164033342D02*
X102962207Y-164109533D01*
X102962207Y-164109533D02*
X102962207Y-164261914D01*
X102962207Y-164261914D02*
X103000303Y-164338104D01*
X103000303Y-164338104D02*
X103038398Y-164376200D01*
X103038398Y-164376200D02*
X103114588Y-164414295D01*
X103114588Y-164414295D02*
X103266969Y-164414295D01*
X103266969Y-164414295D02*
X103343160Y-164376200D01*
X103343160Y-164376200D02*
X103381255Y-164338104D01*
X103381255Y-164338104D02*
X103419350Y-164261914D01*
X103419350Y-164261914D02*
X103419350Y-164109533D01*
X103419350Y-164109533D02*
X103381255Y-164033342D01*
X103381255Y-164033342D02*
X103343160Y-163995247D01*
X103343160Y-163995247D02*
X103266969Y-163957152D01*
X103647922Y-163614295D02*
X103914589Y-164414295D01*
X103914589Y-164414295D02*
X104181255Y-163614295D01*
X175425831Y-140153338D02*
X175425831Y-139658100D01*
X175425831Y-139658100D02*
X175730593Y-139924766D01*
X175730593Y-139924766D02*
X175730593Y-139810481D01*
X175730593Y-139810481D02*
X175768688Y-139734290D01*
X175768688Y-139734290D02*
X175806783Y-139696195D01*
X175806783Y-139696195D02*
X175882974Y-139658100D01*
X175882974Y-139658100D02*
X176073450Y-139658100D01*
X176073450Y-139658100D02*
X176149640Y-139696195D01*
X176149640Y-139696195D02*
X176187736Y-139734290D01*
X176187736Y-139734290D02*
X176225831Y-139810481D01*
X176225831Y-139810481D02*
X176225831Y-140039052D01*
X176225831Y-140039052D02*
X176187736Y-140115243D01*
X176187736Y-140115243D02*
X176149640Y-140153338D01*
X175502021Y-138743814D02*
X175463926Y-138705718D01*
X175463926Y-138705718D02*
X175425831Y-138629528D01*
X175425831Y-138629528D02*
X175425831Y-138439052D01*
X175425831Y-138439052D02*
X175463926Y-138362861D01*
X175463926Y-138362861D02*
X175502021Y-138324766D01*
X175502021Y-138324766D02*
X175578212Y-138286671D01*
X175578212Y-138286671D02*
X175654402Y-138286671D01*
X175654402Y-138286671D02*
X175768688Y-138324766D01*
X175768688Y-138324766D02*
X176225831Y-138781909D01*
X176225831Y-138781909D02*
X176225831Y-138286671D01*
X176225831Y-136915242D02*
X176225831Y-137372385D01*
X176225831Y-137143813D02*
X175425831Y-137143813D01*
X175425831Y-137143813D02*
X175540116Y-137220004D01*
X175540116Y-137220004D02*
X175616307Y-137296194D01*
X175616307Y-137296194D02*
X175654402Y-137372385D01*
X175425831Y-135810479D02*
X175425831Y-135734289D01*
X175425831Y-135734289D02*
X175463926Y-135658098D01*
X175463926Y-135658098D02*
X175502021Y-135620003D01*
X175502021Y-135620003D02*
X175578212Y-135581908D01*
X175578212Y-135581908D02*
X175730593Y-135543813D01*
X175730593Y-135543813D02*
X175921069Y-135543813D01*
X175921069Y-135543813D02*
X176073450Y-135581908D01*
X176073450Y-135581908D02*
X176149640Y-135620003D01*
X176149640Y-135620003D02*
X176187736Y-135658098D01*
X176187736Y-135658098D02*
X176225831Y-135734289D01*
X176225831Y-135734289D02*
X176225831Y-135810479D01*
X176225831Y-135810479D02*
X176187736Y-135886670D01*
X176187736Y-135886670D02*
X176149640Y-135924765D01*
X176149640Y-135924765D02*
X176073450Y-135962860D01*
X176073450Y-135962860D02*
X175921069Y-136000956D01*
X175921069Y-136000956D02*
X175730593Y-136000956D01*
X175730593Y-136000956D02*
X175578212Y-135962860D01*
X175578212Y-135962860D02*
X175502021Y-135924765D01*
X175502021Y-135924765D02*
X175463926Y-135886670D01*
X175463926Y-135886670D02*
X175425831Y-135810479D01*
X89882577Y-150289901D02*
X90492101Y-150289901D01*
X90187339Y-150594663D02*
X90187339Y-149985139D01*
X144945995Y-132355490D02*
X145555519Y-132355490D01*
X145250757Y-132660252D02*
X145250757Y-132050728D01*
X109942207Y-163562390D02*
X109866017Y-163524295D01*
X109866017Y-163524295D02*
X109751731Y-163524295D01*
X109751731Y-163524295D02*
X109637445Y-163562390D01*
X109637445Y-163562390D02*
X109561255Y-163638580D01*
X109561255Y-163638580D02*
X109523160Y-163714771D01*
X109523160Y-163714771D02*
X109485064Y-163867152D01*
X109485064Y-163867152D02*
X109485064Y-163981438D01*
X109485064Y-163981438D02*
X109523160Y-164133819D01*
X109523160Y-164133819D02*
X109561255Y-164210009D01*
X109561255Y-164210009D02*
X109637445Y-164286200D01*
X109637445Y-164286200D02*
X109751731Y-164324295D01*
X109751731Y-164324295D02*
X109827922Y-164324295D01*
X109827922Y-164324295D02*
X109942207Y-164286200D01*
X109942207Y-164286200D02*
X109980303Y-164248104D01*
X109980303Y-164248104D02*
X109980303Y-163981438D01*
X109980303Y-163981438D02*
X109827922Y-163981438D01*
X110323160Y-164324295D02*
X110323160Y-163524295D01*
X110323160Y-163524295D02*
X110780303Y-164324295D01*
X110780303Y-164324295D02*
X110780303Y-163524295D01*
X111161255Y-164324295D02*
X111161255Y-163524295D01*
X111161255Y-163524295D02*
X111351731Y-163524295D01*
X111351731Y-163524295D02*
X111466017Y-163562390D01*
X111466017Y-163562390D02*
X111542207Y-163638580D01*
X111542207Y-163638580D02*
X111580302Y-163714771D01*
X111580302Y-163714771D02*
X111618398Y-163867152D01*
X111618398Y-163867152D02*
X111618398Y-163981438D01*
X111618398Y-163981438D02*
X111580302Y-164133819D01*
X111580302Y-164133819D02*
X111542207Y-164210009D01*
X111542207Y-164210009D02*
X111466017Y-164286200D01*
X111466017Y-164286200D02*
X111351731Y-164324295D01*
X111351731Y-164324295D02*
X111161255Y-164324295D01*
X147709127Y-108671839D02*
X148318651Y-108671839D01*
X148013889Y-108976601D02*
X148013889Y-108367077D01*
X176616390Y-143751792D02*
X176578295Y-143827982D01*
X176578295Y-143827982D02*
X176578295Y-143942268D01*
X176578295Y-143942268D02*
X176616390Y-144056554D01*
X176616390Y-144056554D02*
X176692580Y-144132744D01*
X176692580Y-144132744D02*
X176768771Y-144170839D01*
X176768771Y-144170839D02*
X176921152Y-144208935D01*
X176921152Y-144208935D02*
X177035438Y-144208935D01*
X177035438Y-144208935D02*
X177187819Y-144170839D01*
X177187819Y-144170839D02*
X177264009Y-144132744D01*
X177264009Y-144132744D02*
X177340200Y-144056554D01*
X177340200Y-144056554D02*
X177378295Y-143942268D01*
X177378295Y-143942268D02*
X177378295Y-143866077D01*
X177378295Y-143866077D02*
X177340200Y-143751792D01*
X177340200Y-143751792D02*
X177302104Y-143713696D01*
X177302104Y-143713696D02*
X177035438Y-143713696D01*
X177035438Y-143713696D02*
X177035438Y-143866077D01*
X177378295Y-143370839D02*
X176578295Y-143370839D01*
X176578295Y-143370839D02*
X176578295Y-143066077D01*
X176578295Y-143066077D02*
X176616390Y-142989887D01*
X176616390Y-142989887D02*
X176654485Y-142951792D01*
X176654485Y-142951792D02*
X176730676Y-142913696D01*
X176730676Y-142913696D02*
X176844961Y-142913696D01*
X176844961Y-142913696D02*
X176921152Y-142951792D01*
X176921152Y-142951792D02*
X176959247Y-142989887D01*
X176959247Y-142989887D02*
X176997342Y-143066077D01*
X176997342Y-143066077D02*
X176997342Y-143370839D01*
X176578295Y-142418458D02*
X176578295Y-142266077D01*
X176578295Y-142266077D02*
X176616390Y-142189887D01*
X176616390Y-142189887D02*
X176692580Y-142113696D01*
X176692580Y-142113696D02*
X176844961Y-142075601D01*
X176844961Y-142075601D02*
X177111628Y-142075601D01*
X177111628Y-142075601D02*
X177264009Y-142113696D01*
X177264009Y-142113696D02*
X177340200Y-142189887D01*
X177340200Y-142189887D02*
X177378295Y-142266077D01*
X177378295Y-142266077D02*
X177378295Y-142418458D01*
X177378295Y-142418458D02*
X177340200Y-142494649D01*
X177340200Y-142494649D02*
X177264009Y-142570839D01*
X177264009Y-142570839D02*
X177111628Y-142608935D01*
X177111628Y-142608935D02*
X176844961Y-142608935D01*
X176844961Y-142608935D02*
X176692580Y-142570839D01*
X176692580Y-142570839D02*
X176616390Y-142494649D01*
X176616390Y-142494649D02*
X176578295Y-142418458D01*
X137732160Y-105859508D02*
X138341684Y-105859508D01*
X138036922Y-106164270D02*
X138036922Y-105554746D01*
X107823160Y-165269533D02*
X108432684Y-165269533D01*
X164350118Y-87071372D02*
X164959642Y-87071372D01*
X164654880Y-87376134D02*
X164654880Y-86766610D01*
X151613658Y-138555056D02*
X152223182Y-138555056D01*
X151918420Y-138859818D02*
X151918420Y-138250294D01*
X90895990Y-101757127D02*
X91505514Y-101757127D01*
X91200752Y-102061889D02*
X91200752Y-101452365D01*
X124177887Y-154651576D02*
X124787411Y-154651576D01*
X124482649Y-154956338D02*
X124482649Y-154346814D01*
X115777333Y-161352295D02*
X115777333Y-161923723D01*
X115777333Y-161923723D02*
X115739238Y-162038009D01*
X115739238Y-162038009D02*
X115663047Y-162114200D01*
X115663047Y-162114200D02*
X115548762Y-162152295D01*
X115548762Y-162152295D02*
X115472571Y-162152295D01*
X116577333Y-162152295D02*
X116120190Y-162152295D01*
X116348762Y-162152295D02*
X116348762Y-161352295D01*
X116348762Y-161352295D02*
X116272571Y-161466580D01*
X116272571Y-161466580D02*
X116196381Y-161542771D01*
X116196381Y-161542771D02*
X116120190Y-161580866D01*
X91916695Y-143206021D02*
X92526219Y-143206021D01*
X92221457Y-143510783D02*
X92221457Y-142901259D01*
X168553160Y-83583386D02*
X169162684Y-83583386D01*
X164441316Y-83084266D02*
X165050840Y-83084266D01*
X106993943Y-86525412D02*
X106460609Y-86525412D01*
X106536800Y-86525412D02*
X106498705Y-86487317D01*
X106498705Y-86487317D02*
X106460609Y-86411127D01*
X106460609Y-86411127D02*
X106460609Y-86296841D01*
X106460609Y-86296841D02*
X106498705Y-86220650D01*
X106498705Y-86220650D02*
X106574895Y-86182555D01*
X106574895Y-86182555D02*
X106993943Y-86182555D01*
X106574895Y-86182555D02*
X106498705Y-86144460D01*
X106498705Y-86144460D02*
X106460609Y-86068269D01*
X106460609Y-86068269D02*
X106460609Y-85953984D01*
X106460609Y-85953984D02*
X106498705Y-85877793D01*
X106498705Y-85877793D02*
X106574895Y-85839698D01*
X106574895Y-85839698D02*
X106993943Y-85839698D01*
X106993943Y-85458745D02*
X106460609Y-85458745D01*
X106193943Y-85458745D02*
X106232038Y-85496841D01*
X106232038Y-85496841D02*
X106270133Y-85458745D01*
X106270133Y-85458745D02*
X106232038Y-85420650D01*
X106232038Y-85420650D02*
X106193943Y-85458745D01*
X106193943Y-85458745D02*
X106270133Y-85458745D01*
X106955848Y-84734936D02*
X106993943Y-84811127D01*
X106993943Y-84811127D02*
X106993943Y-84963508D01*
X106993943Y-84963508D02*
X106955848Y-85039698D01*
X106955848Y-85039698D02*
X106917752Y-85077793D01*
X106917752Y-85077793D02*
X106841562Y-85115889D01*
X106841562Y-85115889D02*
X106612990Y-85115889D01*
X106612990Y-85115889D02*
X106536800Y-85077793D01*
X106536800Y-85077793D02*
X106498705Y-85039698D01*
X106498705Y-85039698D02*
X106460609Y-84963508D01*
X106460609Y-84963508D02*
X106460609Y-84811127D01*
X106460609Y-84811127D02*
X106498705Y-84734936D01*
X106993943Y-84392079D02*
X106460609Y-84392079D01*
X106612990Y-84392079D02*
X106536800Y-84353984D01*
X106536800Y-84353984D02*
X106498705Y-84315889D01*
X106498705Y-84315889D02*
X106460609Y-84239698D01*
X106460609Y-84239698D02*
X106460609Y-84163508D01*
X106993943Y-83782556D02*
X106955848Y-83858746D01*
X106955848Y-83858746D02*
X106917752Y-83896841D01*
X106917752Y-83896841D02*
X106841562Y-83934937D01*
X106841562Y-83934937D02*
X106612990Y-83934937D01*
X106612990Y-83934937D02*
X106536800Y-83896841D01*
X106536800Y-83896841D02*
X106498705Y-83858746D01*
X106498705Y-83858746D02*
X106460609Y-83782556D01*
X106460609Y-83782556D02*
X106460609Y-83668270D01*
X106460609Y-83668270D02*
X106498705Y-83592079D01*
X106498705Y-83592079D02*
X106536800Y-83553984D01*
X106536800Y-83553984D02*
X106612990Y-83515889D01*
X106612990Y-83515889D02*
X106841562Y-83515889D01*
X106841562Y-83515889D02*
X106917752Y-83553984D01*
X106917752Y-83553984D02*
X106955848Y-83592079D01*
X106955848Y-83592079D02*
X106993943Y-83668270D01*
X106993943Y-83668270D02*
X106993943Y-83782556D01*
X106955848Y-82601603D02*
X106993943Y-82487317D01*
X106993943Y-82487317D02*
X106993943Y-82296841D01*
X106993943Y-82296841D02*
X106955848Y-82220650D01*
X106955848Y-82220650D02*
X106917752Y-82182555D01*
X106917752Y-82182555D02*
X106841562Y-82144460D01*
X106841562Y-82144460D02*
X106765371Y-82144460D01*
X106765371Y-82144460D02*
X106689181Y-82182555D01*
X106689181Y-82182555D02*
X106651086Y-82220650D01*
X106651086Y-82220650D02*
X106612990Y-82296841D01*
X106612990Y-82296841D02*
X106574895Y-82449222D01*
X106574895Y-82449222D02*
X106536800Y-82525412D01*
X106536800Y-82525412D02*
X106498705Y-82563507D01*
X106498705Y-82563507D02*
X106422514Y-82601603D01*
X106422514Y-82601603D02*
X106346324Y-82601603D01*
X106346324Y-82601603D02*
X106270133Y-82563507D01*
X106270133Y-82563507D02*
X106232038Y-82525412D01*
X106232038Y-82525412D02*
X106193943Y-82449222D01*
X106193943Y-82449222D02*
X106193943Y-82258745D01*
X106193943Y-82258745D02*
X106232038Y-82144460D01*
X106993943Y-81801602D02*
X106193943Y-81801602D01*
X106193943Y-81801602D02*
X106193943Y-81611126D01*
X106193943Y-81611126D02*
X106232038Y-81496840D01*
X106232038Y-81496840D02*
X106308228Y-81420650D01*
X106308228Y-81420650D02*
X106384419Y-81382555D01*
X106384419Y-81382555D02*
X106536800Y-81344459D01*
X106536800Y-81344459D02*
X106651086Y-81344459D01*
X106651086Y-81344459D02*
X106803467Y-81382555D01*
X106803467Y-81382555D02*
X106879657Y-81420650D01*
X106879657Y-81420650D02*
X106955848Y-81496840D01*
X106955848Y-81496840D02*
X106993943Y-81611126D01*
X106993943Y-81611126D02*
X106993943Y-81801602D01*
X168612152Y-86220541D02*
X169221676Y-86220541D01*
X168916914Y-86525303D02*
X168916914Y-85915779D01*
D16*
X142189387Y-95057219D02*
X142189387Y-95771504D01*
X142189387Y-95771504D02*
X142141768Y-95914361D01*
X142141768Y-95914361D02*
X142046530Y-96009600D01*
X142046530Y-96009600D02*
X141903673Y-96057219D01*
X141903673Y-96057219D02*
X141808435Y-96057219D01*
X142522721Y-95057219D02*
X143094149Y-95057219D01*
X142808435Y-96057219D02*
X142808435Y-95057219D01*
X143379864Y-95771504D02*
X143856054Y-95771504D01*
X143284626Y-96057219D02*
X143617959Y-95057219D01*
X143617959Y-95057219D02*
X143951292Y-96057219D01*
X144808435Y-95104838D02*
X144713197Y-95057219D01*
X144713197Y-95057219D02*
X144570340Y-95057219D01*
X144570340Y-95057219D02*
X144427483Y-95104838D01*
X144427483Y-95104838D02*
X144332245Y-95200076D01*
X144332245Y-95200076D02*
X144284626Y-95295314D01*
X144284626Y-95295314D02*
X144237007Y-95485790D01*
X144237007Y-95485790D02*
X144237007Y-95628647D01*
X144237007Y-95628647D02*
X144284626Y-95819123D01*
X144284626Y-95819123D02*
X144332245Y-95914361D01*
X144332245Y-95914361D02*
X144427483Y-96009600D01*
X144427483Y-96009600D02*
X144570340Y-96057219D01*
X144570340Y-96057219D02*
X144665578Y-96057219D01*
X144665578Y-96057219D02*
X144808435Y-96009600D01*
X144808435Y-96009600D02*
X144856054Y-95961980D01*
X144856054Y-95961980D02*
X144856054Y-95628647D01*
X144856054Y-95628647D02*
X144665578Y-95628647D01*
D11*
X177347271Y-133295888D02*
X177309176Y-133372078D01*
X177309176Y-133372078D02*
X177309176Y-133486364D01*
X177309176Y-133486364D02*
X177347271Y-133600650D01*
X177347271Y-133600650D02*
X177423461Y-133676840D01*
X177423461Y-133676840D02*
X177499652Y-133714935D01*
X177499652Y-133714935D02*
X177652033Y-133753031D01*
X177652033Y-133753031D02*
X177766319Y-133753031D01*
X177766319Y-133753031D02*
X177918700Y-133714935D01*
X177918700Y-133714935D02*
X177994890Y-133676840D01*
X177994890Y-133676840D02*
X178071081Y-133600650D01*
X178071081Y-133600650D02*
X178109176Y-133486364D01*
X178109176Y-133486364D02*
X178109176Y-133410173D01*
X178109176Y-133410173D02*
X178071081Y-133295888D01*
X178071081Y-133295888D02*
X178032985Y-133257792D01*
X178032985Y-133257792D02*
X177766319Y-133257792D01*
X177766319Y-133257792D02*
X177766319Y-133410173D01*
X178109176Y-132914935D02*
X177309176Y-132914935D01*
X177309176Y-132914935D02*
X178109176Y-132457792D01*
X178109176Y-132457792D02*
X177309176Y-132457792D01*
X178109176Y-132076840D02*
X177309176Y-132076840D01*
X177309176Y-132076840D02*
X177309176Y-131886364D01*
X177309176Y-131886364D02*
X177347271Y-131772078D01*
X177347271Y-131772078D02*
X177423461Y-131695888D01*
X177423461Y-131695888D02*
X177499652Y-131657793D01*
X177499652Y-131657793D02*
X177652033Y-131619697D01*
X177652033Y-131619697D02*
X177766319Y-131619697D01*
X177766319Y-131619697D02*
X177918700Y-131657793D01*
X177918700Y-131657793D02*
X177994890Y-131695888D01*
X177994890Y-131695888D02*
X178071081Y-131772078D01*
X178071081Y-131772078D02*
X178109176Y-131886364D01*
X178109176Y-131886364D02*
X178109176Y-132076840D01*
X130895902Y-132261473D02*
X131505426Y-132261473D01*
X131200664Y-132566235D02*
X131200664Y-131956711D01*
X92588792Y-112296138D02*
X93198316Y-112296138D01*
X92893554Y-112600900D02*
X92893554Y-111991376D01*
X125113980Y-119578894D02*
X125723504Y-119578894D01*
X125418742Y-119883656D02*
X125418742Y-119274132D01*
X160883342Y-150486372D02*
X161492866Y-150486372D01*
X161188104Y-150791134D02*
X161188104Y-150181610D01*
X130045102Y-157976452D02*
X129778435Y-157595499D01*
X129587959Y-157976452D02*
X129587959Y-157176452D01*
X129587959Y-157176452D02*
X129892721Y-157176452D01*
X129892721Y-157176452D02*
X129968911Y-157214547D01*
X129968911Y-157214547D02*
X130007006Y-157252642D01*
X130007006Y-157252642D02*
X130045102Y-157328833D01*
X130045102Y-157328833D02*
X130045102Y-157443118D01*
X130045102Y-157443118D02*
X130007006Y-157519309D01*
X130007006Y-157519309D02*
X129968911Y-157557404D01*
X129968911Y-157557404D02*
X129892721Y-157595499D01*
X129892721Y-157595499D02*
X129587959Y-157595499D01*
X130311768Y-157176452D02*
X130845102Y-157976452D01*
X130845102Y-157176452D02*
X130311768Y-157976452D01*
X131111768Y-157252642D02*
X131149864Y-157214547D01*
X131149864Y-157214547D02*
X131226054Y-157176452D01*
X131226054Y-157176452D02*
X131416530Y-157176452D01*
X131416530Y-157176452D02*
X131492721Y-157214547D01*
X131492721Y-157214547D02*
X131530816Y-157252642D01*
X131530816Y-157252642D02*
X131568911Y-157328833D01*
X131568911Y-157328833D02*
X131568911Y-157405023D01*
X131568911Y-157405023D02*
X131530816Y-157519309D01*
X131530816Y-157519309D02*
X131073673Y-157976452D01*
X131073673Y-157976452D02*
X131568911Y-157976452D01*
X131721293Y-158052642D02*
X132330816Y-158052642D01*
X132521293Y-157976452D02*
X132521293Y-157176452D01*
X132521293Y-157176452D02*
X132711769Y-157176452D01*
X132711769Y-157176452D02*
X132826055Y-157214547D01*
X132826055Y-157214547D02*
X132902245Y-157290737D01*
X132902245Y-157290737D02*
X132940340Y-157366928D01*
X132940340Y-157366928D02*
X132978436Y-157519309D01*
X132978436Y-157519309D02*
X132978436Y-157633595D01*
X132978436Y-157633595D02*
X132940340Y-157785976D01*
X132940340Y-157785976D02*
X132902245Y-157862166D01*
X132902245Y-157862166D02*
X132826055Y-157938357D01*
X132826055Y-157938357D02*
X132711769Y-157976452D01*
X132711769Y-157976452D02*
X132521293Y-157976452D01*
X133321293Y-157976452D02*
X133321293Y-157443118D01*
X133321293Y-157176452D02*
X133283197Y-157214547D01*
X133283197Y-157214547D02*
X133321293Y-157252642D01*
X133321293Y-157252642D02*
X133359388Y-157214547D01*
X133359388Y-157214547D02*
X133321293Y-157176452D01*
X133321293Y-157176452D02*
X133321293Y-157252642D01*
X133702245Y-157976452D02*
X133702245Y-157443118D01*
X133702245Y-157595499D02*
X133740340Y-157519309D01*
X133740340Y-157519309D02*
X133778435Y-157481214D01*
X133778435Y-157481214D02*
X133854626Y-157443118D01*
X133854626Y-157443118D02*
X133930816Y-157443118D01*
X134502245Y-157938357D02*
X134426054Y-157976452D01*
X134426054Y-157976452D02*
X134273673Y-157976452D01*
X134273673Y-157976452D02*
X134197483Y-157938357D01*
X134197483Y-157938357D02*
X134159387Y-157862166D01*
X134159387Y-157862166D02*
X134159387Y-157557404D01*
X134159387Y-157557404D02*
X134197483Y-157481214D01*
X134197483Y-157481214D02*
X134273673Y-157443118D01*
X134273673Y-157443118D02*
X134426054Y-157443118D01*
X134426054Y-157443118D02*
X134502245Y-157481214D01*
X134502245Y-157481214D02*
X134540340Y-157557404D01*
X134540340Y-157557404D02*
X134540340Y-157633595D01*
X134540340Y-157633595D02*
X134159387Y-157709785D01*
X135226054Y-157938357D02*
X135149863Y-157976452D01*
X135149863Y-157976452D02*
X134997482Y-157976452D01*
X134997482Y-157976452D02*
X134921292Y-157938357D01*
X134921292Y-157938357D02*
X134883197Y-157900261D01*
X134883197Y-157900261D02*
X134845101Y-157824071D01*
X134845101Y-157824071D02*
X134845101Y-157595499D01*
X134845101Y-157595499D02*
X134883197Y-157519309D01*
X134883197Y-157519309D02*
X134921292Y-157481214D01*
X134921292Y-157481214D02*
X134997482Y-157443118D01*
X134997482Y-157443118D02*
X135149863Y-157443118D01*
X135149863Y-157443118D02*
X135226054Y-157481214D01*
X135454625Y-157443118D02*
X135759387Y-157443118D01*
X135568911Y-157176452D02*
X135568911Y-157862166D01*
X135568911Y-157862166D02*
X135607006Y-157938357D01*
X135607006Y-157938357D02*
X135683196Y-157976452D01*
X135683196Y-157976452D02*
X135759387Y-157976452D01*
X136445101Y-157976452D02*
X135987958Y-157976452D01*
X136216530Y-157976452D02*
X136216530Y-157176452D01*
X136216530Y-157176452D02*
X136140339Y-157290737D01*
X136140339Y-157290737D02*
X136064149Y-157366928D01*
X136064149Y-157366928D02*
X135987958Y-157405023D01*
X162413160Y-85490822D02*
X162413160Y-84690822D01*
X162413160Y-84690822D02*
X162717922Y-84690822D01*
X162717922Y-84690822D02*
X162794112Y-84728917D01*
X162794112Y-84728917D02*
X162832207Y-84767012D01*
X162832207Y-84767012D02*
X162870303Y-84843203D01*
X162870303Y-84843203D02*
X162870303Y-84957488D01*
X162870303Y-84957488D02*
X162832207Y-85033679D01*
X162832207Y-85033679D02*
X162794112Y-85071774D01*
X162794112Y-85071774D02*
X162717922Y-85109869D01*
X162717922Y-85109869D02*
X162413160Y-85109869D01*
X163175064Y-85262250D02*
X163556017Y-85262250D01*
X163098874Y-85490822D02*
X163365541Y-84690822D01*
X163365541Y-84690822D02*
X163632207Y-85490822D01*
X130281396Y-162372551D02*
X130014729Y-161991598D01*
X129824253Y-162372551D02*
X129824253Y-161572551D01*
X129824253Y-161572551D02*
X130129015Y-161572551D01*
X130129015Y-161572551D02*
X130205205Y-161610646D01*
X130205205Y-161610646D02*
X130243300Y-161648741D01*
X130243300Y-161648741D02*
X130281396Y-161724932D01*
X130281396Y-161724932D02*
X130281396Y-161839217D01*
X130281396Y-161839217D02*
X130243300Y-161915408D01*
X130243300Y-161915408D02*
X130205205Y-161953503D01*
X130205205Y-161953503D02*
X130129015Y-161991598D01*
X130129015Y-161991598D02*
X129824253Y-161991598D01*
X130548062Y-161572551D02*
X131081396Y-162372551D01*
X131081396Y-161572551D02*
X130548062Y-162372551D01*
X131805205Y-162372551D02*
X131348062Y-162372551D01*
X131576634Y-162372551D02*
X131576634Y-161572551D01*
X131576634Y-161572551D02*
X131500443Y-161686836D01*
X131500443Y-161686836D02*
X131424253Y-161763027D01*
X131424253Y-161763027D02*
X131348062Y-161801122D01*
X131957587Y-162448741D02*
X132567110Y-162448741D01*
X132757587Y-162372551D02*
X132757587Y-161572551D01*
X132757587Y-161572551D02*
X132948063Y-161572551D01*
X132948063Y-161572551D02*
X133062349Y-161610646D01*
X133062349Y-161610646D02*
X133138539Y-161686836D01*
X133138539Y-161686836D02*
X133176634Y-161763027D01*
X133176634Y-161763027D02*
X133214730Y-161915408D01*
X133214730Y-161915408D02*
X133214730Y-162029694D01*
X133214730Y-162029694D02*
X133176634Y-162182075D01*
X133176634Y-162182075D02*
X133138539Y-162258265D01*
X133138539Y-162258265D02*
X133062349Y-162334456D01*
X133062349Y-162334456D02*
X132948063Y-162372551D01*
X132948063Y-162372551D02*
X132757587Y-162372551D01*
X133557587Y-162372551D02*
X133557587Y-161839217D01*
X133557587Y-161572551D02*
X133519491Y-161610646D01*
X133519491Y-161610646D02*
X133557587Y-161648741D01*
X133557587Y-161648741D02*
X133595682Y-161610646D01*
X133595682Y-161610646D02*
X133557587Y-161572551D01*
X133557587Y-161572551D02*
X133557587Y-161648741D01*
X133938539Y-162372551D02*
X133938539Y-161839217D01*
X133938539Y-161991598D02*
X133976634Y-161915408D01*
X133976634Y-161915408D02*
X134014729Y-161877313D01*
X134014729Y-161877313D02*
X134090920Y-161839217D01*
X134090920Y-161839217D02*
X134167110Y-161839217D01*
X134738539Y-162334456D02*
X134662348Y-162372551D01*
X134662348Y-162372551D02*
X134509967Y-162372551D01*
X134509967Y-162372551D02*
X134433777Y-162334456D01*
X134433777Y-162334456D02*
X134395681Y-162258265D01*
X134395681Y-162258265D02*
X134395681Y-161953503D01*
X134395681Y-161953503D02*
X134433777Y-161877313D01*
X134433777Y-161877313D02*
X134509967Y-161839217D01*
X134509967Y-161839217D02*
X134662348Y-161839217D01*
X134662348Y-161839217D02*
X134738539Y-161877313D01*
X134738539Y-161877313D02*
X134776634Y-161953503D01*
X134776634Y-161953503D02*
X134776634Y-162029694D01*
X134776634Y-162029694D02*
X134395681Y-162105884D01*
X135462348Y-162334456D02*
X135386157Y-162372551D01*
X135386157Y-162372551D02*
X135233776Y-162372551D01*
X135233776Y-162372551D02*
X135157586Y-162334456D01*
X135157586Y-162334456D02*
X135119491Y-162296360D01*
X135119491Y-162296360D02*
X135081395Y-162220170D01*
X135081395Y-162220170D02*
X135081395Y-161991598D01*
X135081395Y-161991598D02*
X135119491Y-161915408D01*
X135119491Y-161915408D02*
X135157586Y-161877313D01*
X135157586Y-161877313D02*
X135233776Y-161839217D01*
X135233776Y-161839217D02*
X135386157Y-161839217D01*
X135386157Y-161839217D02*
X135462348Y-161877313D01*
X135690919Y-161839217D02*
X135995681Y-161839217D01*
X135805205Y-161572551D02*
X135805205Y-162258265D01*
X135805205Y-162258265D02*
X135843300Y-162334456D01*
X135843300Y-162334456D02*
X135919490Y-162372551D01*
X135919490Y-162372551D02*
X135995681Y-162372551D01*
X136681395Y-162372551D02*
X136224252Y-162372551D01*
X136452824Y-162372551D02*
X136452824Y-161572551D01*
X136452824Y-161572551D02*
X136376633Y-161686836D01*
X136376633Y-161686836D02*
X136300443Y-161763027D01*
X136300443Y-161763027D02*
X136224252Y-161801122D01*
X105303160Y-165289533D02*
X105912684Y-165289533D01*
X105607922Y-165594295D02*
X105607922Y-164984771D01*
X147678279Y-115024900D02*
X148287803Y-115024900D01*
X147983041Y-115329662D02*
X147983041Y-114720138D01*
X117294444Y-141885064D02*
X117903968Y-141885064D01*
X117599206Y-142189826D02*
X117599206Y-141580302D01*
X136478891Y-83535746D02*
X137088415Y-83535746D01*
X136783653Y-83840508D02*
X136783653Y-83230984D01*
X116323138Y-123920873D02*
X116932662Y-123920873D01*
X116627900Y-124225635D02*
X116627900Y-123616111D01*
X177737333Y-103012295D02*
X177737333Y-103583723D01*
X177737333Y-103583723D02*
X177699238Y-103698009D01*
X177699238Y-103698009D02*
X177623047Y-103774200D01*
X177623047Y-103774200D02*
X177508762Y-103812295D01*
X177508762Y-103812295D02*
X177432571Y-103812295D01*
X178499238Y-103012295D02*
X178118286Y-103012295D01*
X178118286Y-103012295D02*
X178080190Y-103393247D01*
X178080190Y-103393247D02*
X178118286Y-103355152D01*
X178118286Y-103355152D02*
X178194476Y-103317057D01*
X178194476Y-103317057D02*
X178384952Y-103317057D01*
X178384952Y-103317057D02*
X178461143Y-103355152D01*
X178461143Y-103355152D02*
X178499238Y-103393247D01*
X178499238Y-103393247D02*
X178537333Y-103469438D01*
X178537333Y-103469438D02*
X178537333Y-103659914D01*
X178537333Y-103659914D02*
X178499238Y-103736104D01*
X178499238Y-103736104D02*
X178461143Y-103774200D01*
X178461143Y-103774200D02*
X178384952Y-103812295D01*
X178384952Y-103812295D02*
X178194476Y-103812295D01*
X178194476Y-103812295D02*
X178118286Y-103774200D01*
X178118286Y-103774200D02*
X178080190Y-103736104D01*
X91864475Y-86542295D02*
X91864475Y-87113723D01*
X91864475Y-87113723D02*
X91826380Y-87228009D01*
X91826380Y-87228009D02*
X91750189Y-87304200D01*
X91750189Y-87304200D02*
X91635904Y-87342295D01*
X91635904Y-87342295D02*
X91559713Y-87342295D01*
X92207332Y-86618485D02*
X92245428Y-86580390D01*
X92245428Y-86580390D02*
X92321618Y-86542295D01*
X92321618Y-86542295D02*
X92512094Y-86542295D01*
X92512094Y-86542295D02*
X92588285Y-86580390D01*
X92588285Y-86580390D02*
X92626380Y-86618485D01*
X92626380Y-86618485D02*
X92664475Y-86694676D01*
X92664475Y-86694676D02*
X92664475Y-86770866D01*
X92664475Y-86770866D02*
X92626380Y-86885152D01*
X92626380Y-86885152D02*
X92169237Y-87342295D01*
X92169237Y-87342295D02*
X92664475Y-87342295D01*
X93007333Y-87342295D02*
X93007333Y-86542295D01*
X93007333Y-86847057D02*
X93083523Y-86808961D01*
X93083523Y-86808961D02*
X93235904Y-86808961D01*
X93235904Y-86808961D02*
X93312095Y-86847057D01*
X93312095Y-86847057D02*
X93350190Y-86885152D01*
X93350190Y-86885152D02*
X93388285Y-86961342D01*
X93388285Y-86961342D02*
X93388285Y-87189914D01*
X93388285Y-87189914D02*
X93350190Y-87266104D01*
X93350190Y-87266104D02*
X93312095Y-87304200D01*
X93312095Y-87304200D02*
X93235904Y-87342295D01*
X93235904Y-87342295D02*
X93083523Y-87342295D01*
X93083523Y-87342295D02*
X93007333Y-87304200D01*
X94150190Y-87342295D02*
X93693047Y-87342295D01*
X93921619Y-87342295D02*
X93921619Y-86542295D01*
X93921619Y-86542295D02*
X93845428Y-86656580D01*
X93845428Y-86656580D02*
X93769238Y-86732771D01*
X93769238Y-86732771D02*
X93693047Y-86770866D01*
X106497333Y-78042295D02*
X106497333Y-78613723D01*
X106497333Y-78613723D02*
X106459238Y-78728009D01*
X106459238Y-78728009D02*
X106383047Y-78804200D01*
X106383047Y-78804200D02*
X106268762Y-78842295D01*
X106268762Y-78842295D02*
X106192571Y-78842295D01*
X106840190Y-78118485D02*
X106878286Y-78080390D01*
X106878286Y-78080390D02*
X106954476Y-78042295D01*
X106954476Y-78042295D02*
X107144952Y-78042295D01*
X107144952Y-78042295D02*
X107221143Y-78080390D01*
X107221143Y-78080390D02*
X107259238Y-78118485D01*
X107259238Y-78118485D02*
X107297333Y-78194676D01*
X107297333Y-78194676D02*
X107297333Y-78270866D01*
X107297333Y-78270866D02*
X107259238Y-78385152D01*
X107259238Y-78385152D02*
X106802095Y-78842295D01*
X106802095Y-78842295D02*
X107297333Y-78842295D01*
X164922010Y-97870395D02*
X164922010Y-98441823D01*
X164922010Y-98441823D02*
X164883915Y-98556109D01*
X164883915Y-98556109D02*
X164807724Y-98632300D01*
X164807724Y-98632300D02*
X164693439Y-98670395D01*
X164693439Y-98670395D02*
X164617248Y-98670395D01*
X165722010Y-98670395D02*
X165264867Y-98670395D01*
X165493439Y-98670395D02*
X165493439Y-97870395D01*
X165493439Y-97870395D02*
X165417248Y-97984680D01*
X165417248Y-97984680D02*
X165341058Y-98060871D01*
X165341058Y-98060871D02*
X165264867Y-98098966D01*
X166407725Y-98137061D02*
X166407725Y-98670395D01*
X166217249Y-97832300D02*
X166026772Y-98403728D01*
X166026772Y-98403728D02*
X166522011Y-98403728D01*
X157853523Y-77762295D02*
X157853523Y-78333723D01*
X157853523Y-78333723D02*
X157815428Y-78448009D01*
X157815428Y-78448009D02*
X157739237Y-78524200D01*
X157739237Y-78524200D02*
X157624952Y-78562295D01*
X157624952Y-78562295D02*
X157548761Y-78562295D01*
X158158285Y-78562295D02*
X158577333Y-78028961D01*
X158158285Y-78028961D02*
X158577333Y-78562295D01*
X159301142Y-78562295D02*
X158843999Y-78562295D01*
X159072571Y-78562295D02*
X159072571Y-77762295D01*
X159072571Y-77762295D02*
X158996380Y-77876580D01*
X158996380Y-77876580D02*
X158920190Y-77952771D01*
X158920190Y-77952771D02*
X158843999Y-77990866D01*
X153924000Y-136394819D02*
X153924000Y-136632914D01*
X153685905Y-136537676D02*
X153924000Y-136632914D01*
X153924000Y-136632914D02*
X154162095Y-136537676D01*
X153781143Y-136823390D02*
X153924000Y-136632914D01*
X153924000Y-136632914D02*
X154066857Y-136823390D01*
X116414132Y-158038723D02*
X116795085Y-158038723D01*
X116337942Y-158267295D02*
X116604609Y-157467295D01*
X116604609Y-157467295D02*
X116871275Y-158267295D01*
X117137942Y-157733961D02*
X117137942Y-158267295D01*
X117137942Y-157810152D02*
X117176037Y-157772057D01*
X117176037Y-157772057D02*
X117252227Y-157733961D01*
X117252227Y-157733961D02*
X117366513Y-157733961D01*
X117366513Y-157733961D02*
X117442704Y-157772057D01*
X117442704Y-157772057D02*
X117480799Y-157848247D01*
X117480799Y-157848247D02*
X117480799Y-158267295D01*
X117747466Y-157733961D02*
X118052228Y-157733961D01*
X117861752Y-157467295D02*
X117861752Y-158153009D01*
X117861752Y-158153009D02*
X117899847Y-158229200D01*
X117899847Y-158229200D02*
X117976037Y-158267295D01*
X117976037Y-158267295D02*
X118052228Y-158267295D01*
X118623657Y-158229200D02*
X118547466Y-158267295D01*
X118547466Y-158267295D02*
X118395085Y-158267295D01*
X118395085Y-158267295D02*
X118318895Y-158229200D01*
X118318895Y-158229200D02*
X118280799Y-158153009D01*
X118280799Y-158153009D02*
X118280799Y-157848247D01*
X118280799Y-157848247D02*
X118318895Y-157772057D01*
X118318895Y-157772057D02*
X118395085Y-157733961D01*
X118395085Y-157733961D02*
X118547466Y-157733961D01*
X118547466Y-157733961D02*
X118623657Y-157772057D01*
X118623657Y-157772057D02*
X118661752Y-157848247D01*
X118661752Y-157848247D02*
X118661752Y-157924438D01*
X118661752Y-157924438D02*
X118280799Y-158000628D01*
X119004609Y-157733961D02*
X119004609Y-158267295D01*
X119004609Y-157810152D02*
X119042704Y-157772057D01*
X119042704Y-157772057D02*
X119118894Y-157733961D01*
X119118894Y-157733961D02*
X119233180Y-157733961D01*
X119233180Y-157733961D02*
X119309371Y-157772057D01*
X119309371Y-157772057D02*
X119347466Y-157848247D01*
X119347466Y-157848247D02*
X119347466Y-158267295D01*
X119728419Y-157733961D02*
X119728419Y-158267295D01*
X119728419Y-157810152D02*
X119766514Y-157772057D01*
X119766514Y-157772057D02*
X119842704Y-157733961D01*
X119842704Y-157733961D02*
X119956990Y-157733961D01*
X119956990Y-157733961D02*
X120033181Y-157772057D01*
X120033181Y-157772057D02*
X120071276Y-157848247D01*
X120071276Y-157848247D02*
X120071276Y-158267295D01*
X120795086Y-158267295D02*
X120795086Y-157848247D01*
X120795086Y-157848247D02*
X120756991Y-157772057D01*
X120756991Y-157772057D02*
X120680800Y-157733961D01*
X120680800Y-157733961D02*
X120528419Y-157733961D01*
X120528419Y-157733961D02*
X120452229Y-157772057D01*
X120795086Y-158229200D02*
X120718895Y-158267295D01*
X120718895Y-158267295D02*
X120528419Y-158267295D01*
X120528419Y-158267295D02*
X120452229Y-158229200D01*
X120452229Y-158229200D02*
X120414133Y-158153009D01*
X120414133Y-158153009D02*
X120414133Y-158076819D01*
X120414133Y-158076819D02*
X120452229Y-158000628D01*
X120452229Y-158000628D02*
X120528419Y-157962533D01*
X120528419Y-157962533D02*
X120718895Y-157962533D01*
X120718895Y-157962533D02*
X120795086Y-157924438D01*
X120985563Y-158343485D02*
X121595086Y-158343485D01*
X121785563Y-158267295D02*
X121785563Y-157733961D01*
X121785563Y-157467295D02*
X121747467Y-157505390D01*
X121747467Y-157505390D02*
X121785563Y-157543485D01*
X121785563Y-157543485D02*
X121823658Y-157505390D01*
X121823658Y-157505390D02*
X121785563Y-157467295D01*
X121785563Y-157467295D02*
X121785563Y-157543485D01*
X122166515Y-157733961D02*
X122166515Y-158267295D01*
X122166515Y-157810152D02*
X122204610Y-157772057D01*
X122204610Y-157772057D02*
X122280800Y-157733961D01*
X122280800Y-157733961D02*
X122395086Y-157733961D01*
X122395086Y-157733961D02*
X122471277Y-157772057D01*
X122471277Y-157772057D02*
X122509372Y-157848247D01*
X122509372Y-157848247D02*
X122509372Y-158267295D01*
X153674000Y-143344819D02*
X153674000Y-143582914D01*
X153435905Y-143487676D02*
X153674000Y-143582914D01*
X153674000Y-143582914D02*
X153912095Y-143487676D01*
X153531143Y-143773390D02*
X153674000Y-143582914D01*
X153674000Y-143582914D02*
X153816857Y-143773390D01*
X122751900Y-160080819D02*
X122751900Y-160318914D01*
X122513805Y-160223676D02*
X122751900Y-160318914D01*
X122751900Y-160318914D02*
X122989995Y-160223676D01*
X122609043Y-160509390D02*
X122751900Y-160318914D01*
X122751900Y-160318914D02*
X122894757Y-160509390D01*
X136793619Y-165179998D02*
X137031714Y-165179998D01*
X136936476Y-165418093D02*
X137031714Y-165179998D01*
X137031714Y-165179998D02*
X136936476Y-164941903D01*
X137222190Y-165322855D02*
X137031714Y-165179998D01*
X137031714Y-165179998D02*
X137222190Y-165037141D01*
X132109580Y-77762295D02*
X132109580Y-78333723D01*
X132109580Y-78333723D02*
X132071485Y-78448009D01*
X132071485Y-78448009D02*
X131995294Y-78524200D01*
X131995294Y-78524200D02*
X131881009Y-78562295D01*
X131881009Y-78562295D02*
X131804818Y-78562295D01*
X132909580Y-78562295D02*
X132452437Y-78562295D01*
X132681009Y-78562295D02*
X132681009Y-77762295D01*
X132681009Y-77762295D02*
X132604818Y-77876580D01*
X132604818Y-77876580D02*
X132528628Y-77952771D01*
X132528628Y-77952771D02*
X132452437Y-77990866D01*
X133671485Y-78562295D02*
X133214342Y-78562295D01*
X133442914Y-78562295D02*
X133442914Y-77762295D01*
X133442914Y-77762295D02*
X133366723Y-77876580D01*
X133366723Y-77876580D02*
X133290533Y-77952771D01*
X133290533Y-77952771D02*
X133214342Y-77990866D01*
X163898819Y-79189999D02*
X164136914Y-79189999D01*
X164041676Y-79428094D02*
X164136914Y-79189999D01*
X164136914Y-79189999D02*
X164041676Y-78951904D01*
X164327390Y-79332856D02*
X164136914Y-79189999D01*
X164136914Y-79189999D02*
X164327390Y-79047142D01*
X169858819Y-101409999D02*
X170096914Y-101409999D01*
X170001676Y-101648094D02*
X170096914Y-101409999D01*
X170096914Y-101409999D02*
X170001676Y-101171904D01*
X170287390Y-101552856D02*
X170096914Y-101409999D01*
X170096914Y-101409999D02*
X170287390Y-101267142D01*
X104634475Y-90642295D02*
X104634475Y-91213723D01*
X104634475Y-91213723D02*
X104596380Y-91328009D01*
X104596380Y-91328009D02*
X104520189Y-91404200D01*
X104520189Y-91404200D02*
X104405904Y-91442295D01*
X104405904Y-91442295D02*
X104329713Y-91442295D01*
X104977332Y-90718485D02*
X105015428Y-90680390D01*
X105015428Y-90680390D02*
X105091618Y-90642295D01*
X105091618Y-90642295D02*
X105282094Y-90642295D01*
X105282094Y-90642295D02*
X105358285Y-90680390D01*
X105358285Y-90680390D02*
X105396380Y-90718485D01*
X105396380Y-90718485D02*
X105434475Y-90794676D01*
X105434475Y-90794676D02*
X105434475Y-90870866D01*
X105434475Y-90870866D02*
X105396380Y-90985152D01*
X105396380Y-90985152D02*
X104939237Y-91442295D01*
X104939237Y-91442295D02*
X105434475Y-91442295D01*
X106120190Y-91442295D02*
X106120190Y-91023247D01*
X106120190Y-91023247D02*
X106082095Y-90947057D01*
X106082095Y-90947057D02*
X106005904Y-90908961D01*
X106005904Y-90908961D02*
X105853523Y-90908961D01*
X105853523Y-90908961D02*
X105777333Y-90947057D01*
X106120190Y-91404200D02*
X106043999Y-91442295D01*
X106043999Y-91442295D02*
X105853523Y-91442295D01*
X105853523Y-91442295D02*
X105777333Y-91404200D01*
X105777333Y-91404200D02*
X105739237Y-91328009D01*
X105739237Y-91328009D02*
X105739237Y-91251819D01*
X105739237Y-91251819D02*
X105777333Y-91175628D01*
X105777333Y-91175628D02*
X105853523Y-91137533D01*
X105853523Y-91137533D02*
X106043999Y-91137533D01*
X106043999Y-91137533D02*
X106120190Y-91099438D01*
X106920190Y-91442295D02*
X106463047Y-91442295D01*
X106691619Y-91442295D02*
X106691619Y-90642295D01*
X106691619Y-90642295D02*
X106615428Y-90756580D01*
X106615428Y-90756580D02*
X106539238Y-90832771D01*
X106539238Y-90832771D02*
X106463047Y-90870866D01*
X158348800Y-93083760D02*
X158348800Y-93321855D01*
X158110705Y-93226617D02*
X158348800Y-93321855D01*
X158348800Y-93321855D02*
X158586895Y-93226617D01*
X158205943Y-93512331D02*
X158348800Y-93321855D01*
X158348800Y-93321855D02*
X158491657Y-93512331D01*
X173977436Y-107298538D02*
X174548864Y-107298538D01*
X174548864Y-107298538D02*
X174663150Y-107336633D01*
X174663150Y-107336633D02*
X174739341Y-107412824D01*
X174739341Y-107412824D02*
X174777436Y-107527109D01*
X174777436Y-107527109D02*
X174777436Y-107603300D01*
X173977436Y-106574728D02*
X173977436Y-106727109D01*
X173977436Y-106727109D02*
X174015531Y-106803300D01*
X174015531Y-106803300D02*
X174053626Y-106841395D01*
X174053626Y-106841395D02*
X174167912Y-106917585D01*
X174167912Y-106917585D02*
X174320293Y-106955681D01*
X174320293Y-106955681D02*
X174625055Y-106955681D01*
X174625055Y-106955681D02*
X174701245Y-106917585D01*
X174701245Y-106917585D02*
X174739341Y-106879490D01*
X174739341Y-106879490D02*
X174777436Y-106803300D01*
X174777436Y-106803300D02*
X174777436Y-106650919D01*
X174777436Y-106650919D02*
X174739341Y-106574728D01*
X174739341Y-106574728D02*
X174701245Y-106536633D01*
X174701245Y-106536633D02*
X174625055Y-106498538D01*
X174625055Y-106498538D02*
X174434579Y-106498538D01*
X174434579Y-106498538D02*
X174358388Y-106536633D01*
X174358388Y-106536633D02*
X174320293Y-106574728D01*
X174320293Y-106574728D02*
X174282198Y-106650919D01*
X174282198Y-106650919D02*
X174282198Y-106803300D01*
X174282198Y-106803300D02*
X174320293Y-106879490D01*
X174320293Y-106879490D02*
X174358388Y-106917585D01*
X174358388Y-106917585D02*
X174434579Y-106955681D01*
X156029605Y-132986895D02*
X156029605Y-132510705D01*
X156315320Y-133082133D02*
X155315320Y-132748800D01*
X155315320Y-132748800D02*
X156315320Y-132415467D01*
X166962547Y-132679975D02*
X165962547Y-132679975D01*
X165962547Y-132679975D02*
X166676832Y-132346642D01*
X166676832Y-132346642D02*
X165962547Y-132013309D01*
X165962547Y-132013309D02*
X166962547Y-132013309D01*
X156119706Y-120700255D02*
X156691134Y-120700255D01*
X156405420Y-120700255D02*
X156405420Y-121700255D01*
X156405420Y-121700255D02*
X156500658Y-121557398D01*
X156500658Y-121557398D02*
X156595896Y-121462160D01*
X156595896Y-121462160D02*
X156691134Y-121414541D01*
X155738753Y-121605017D02*
X155691134Y-121652636D01*
X155691134Y-121652636D02*
X155595896Y-121700255D01*
X155595896Y-121700255D02*
X155357801Y-121700255D01*
X155357801Y-121700255D02*
X155262563Y-121652636D01*
X155262563Y-121652636D02*
X155214944Y-121605017D01*
X155214944Y-121605017D02*
X155167325Y-121509779D01*
X155167325Y-121509779D02*
X155167325Y-121414541D01*
X155167325Y-121414541D02*
X155214944Y-121271684D01*
X155214944Y-121271684D02*
X155786372Y-120700255D01*
X155786372Y-120700255D02*
X155167325Y-120700255D01*
X155679378Y-130445854D02*
X156250806Y-130445854D01*
X155965092Y-130445854D02*
X155965092Y-131445854D01*
X155965092Y-131445854D02*
X156060330Y-131302997D01*
X156060330Y-131302997D02*
X156155568Y-131207759D01*
X156155568Y-131207759D02*
X156250806Y-131160140D01*
X92953047Y-129534343D02*
X92953047Y-129801009D01*
X93372095Y-129801009D02*
X92572095Y-129801009D01*
X92572095Y-129801009D02*
X92572095Y-129420057D01*
X93372095Y-129115295D02*
X92572095Y-129115295D01*
X92572095Y-129115295D02*
X92572095Y-128810533D01*
X92572095Y-128810533D02*
X92610190Y-128734343D01*
X92610190Y-128734343D02*
X92648285Y-128696248D01*
X92648285Y-128696248D02*
X92724476Y-128658152D01*
X92724476Y-128658152D02*
X92838761Y-128658152D01*
X92838761Y-128658152D02*
X92914952Y-128696248D01*
X92914952Y-128696248D02*
X92953047Y-128734343D01*
X92953047Y-128734343D02*
X92991142Y-128810533D01*
X92991142Y-128810533D02*
X92991142Y-129115295D01*
X92610190Y-127896248D02*
X92572095Y-127972438D01*
X92572095Y-127972438D02*
X92572095Y-128086724D01*
X92572095Y-128086724D02*
X92610190Y-128201010D01*
X92610190Y-128201010D02*
X92686380Y-128277200D01*
X92686380Y-128277200D02*
X92762571Y-128315295D01*
X92762571Y-128315295D02*
X92914952Y-128353391D01*
X92914952Y-128353391D02*
X93029238Y-128353391D01*
X93029238Y-128353391D02*
X93181619Y-128315295D01*
X93181619Y-128315295D02*
X93257809Y-128277200D01*
X93257809Y-128277200D02*
X93334000Y-128201010D01*
X93334000Y-128201010D02*
X93372095Y-128086724D01*
X93372095Y-128086724D02*
X93372095Y-128010533D01*
X93372095Y-128010533D02*
X93334000Y-127896248D01*
X93334000Y-127896248D02*
X93295904Y-127858152D01*
X93295904Y-127858152D02*
X93029238Y-127858152D01*
X93029238Y-127858152D02*
X93029238Y-128010533D01*
X93143523Y-127553391D02*
X93143523Y-127172438D01*
X93372095Y-127629581D02*
X92572095Y-127362914D01*
X92572095Y-127362914D02*
X93372095Y-127096248D01*
X93448285Y-127020058D02*
X93448285Y-126410534D01*
X93372095Y-126220057D02*
X92572095Y-126220057D01*
X92572095Y-126220057D02*
X92572095Y-125915295D01*
X92572095Y-125915295D02*
X92610190Y-125839105D01*
X92610190Y-125839105D02*
X92648285Y-125801010D01*
X92648285Y-125801010D02*
X92724476Y-125762914D01*
X92724476Y-125762914D02*
X92838761Y-125762914D01*
X92838761Y-125762914D02*
X92914952Y-125801010D01*
X92914952Y-125801010D02*
X92953047Y-125839105D01*
X92953047Y-125839105D02*
X92991142Y-125915295D01*
X92991142Y-125915295D02*
X92991142Y-126220057D01*
X93372095Y-125420057D02*
X92838761Y-125420057D01*
X92991142Y-125420057D02*
X92914952Y-125381962D01*
X92914952Y-125381962D02*
X92876857Y-125343867D01*
X92876857Y-125343867D02*
X92838761Y-125267676D01*
X92838761Y-125267676D02*
X92838761Y-125191486D01*
X92838761Y-124581962D02*
X93486380Y-124581962D01*
X93486380Y-124581962D02*
X93562571Y-124620057D01*
X93562571Y-124620057D02*
X93600666Y-124658153D01*
X93600666Y-124658153D02*
X93638761Y-124734343D01*
X93638761Y-124734343D02*
X93638761Y-124848629D01*
X93638761Y-124848629D02*
X93600666Y-124924819D01*
X93334000Y-124581962D02*
X93372095Y-124658153D01*
X93372095Y-124658153D02*
X93372095Y-124810534D01*
X93372095Y-124810534D02*
X93334000Y-124886724D01*
X93334000Y-124886724D02*
X93295904Y-124924819D01*
X93295904Y-124924819D02*
X93219714Y-124962915D01*
X93219714Y-124962915D02*
X92991142Y-124962915D01*
X92991142Y-124962915D02*
X92914952Y-124924819D01*
X92914952Y-124924819D02*
X92876857Y-124886724D01*
X92876857Y-124886724D02*
X92838761Y-124810534D01*
X92838761Y-124810534D02*
X92838761Y-124658153D01*
X92838761Y-124658153D02*
X92876857Y-124581962D01*
X93372095Y-124201009D02*
X92838761Y-124201009D01*
X92914952Y-124201009D02*
X92876857Y-124162914D01*
X92876857Y-124162914D02*
X92838761Y-124086724D01*
X92838761Y-124086724D02*
X92838761Y-123972438D01*
X92838761Y-123972438D02*
X92876857Y-123896247D01*
X92876857Y-123896247D02*
X92953047Y-123858152D01*
X92953047Y-123858152D02*
X93372095Y-123858152D01*
X92953047Y-123858152D02*
X92876857Y-123820057D01*
X92876857Y-123820057D02*
X92838761Y-123743866D01*
X92838761Y-123743866D02*
X92838761Y-123629581D01*
X92838761Y-123629581D02*
X92876857Y-123553390D01*
X92876857Y-123553390D02*
X92953047Y-123515295D01*
X92953047Y-123515295D02*
X93372095Y-123515295D01*
X93372095Y-122715295D02*
X93372095Y-123172438D01*
X93372095Y-122943866D02*
X92572095Y-122943866D01*
X92572095Y-122943866D02*
X92686380Y-123020057D01*
X92686380Y-123020057D02*
X92762571Y-123096247D01*
X92762571Y-123096247D02*
X92800666Y-123172438D01*
X170053727Y-77573113D02*
X170053727Y-78287398D01*
X170053727Y-78287398D02*
X170006108Y-78430255D01*
X170006108Y-78430255D02*
X169910870Y-78525494D01*
X169910870Y-78525494D02*
X169768013Y-78573113D01*
X169768013Y-78573113D02*
X169672775Y-78573113D01*
X171053727Y-78573113D02*
X170482299Y-78573113D01*
X170768013Y-78573113D02*
X170768013Y-77573113D01*
X170768013Y-77573113D02*
X170672775Y-77715970D01*
X170672775Y-77715970D02*
X170577537Y-77811208D01*
X170577537Y-77811208D02*
X170482299Y-77858827D01*
X171672775Y-77573113D02*
X171768013Y-77573113D01*
X171768013Y-77573113D02*
X171863251Y-77620732D01*
X171863251Y-77620732D02*
X171910870Y-77668351D01*
X171910870Y-77668351D02*
X171958489Y-77763589D01*
X171958489Y-77763589D02*
X172006108Y-77954065D01*
X172006108Y-77954065D02*
X172006108Y-78192160D01*
X172006108Y-78192160D02*
X171958489Y-78382636D01*
X171958489Y-78382636D02*
X171910870Y-78477874D01*
X171910870Y-78477874D02*
X171863251Y-78525494D01*
X171863251Y-78525494D02*
X171768013Y-78573113D01*
X171768013Y-78573113D02*
X171672775Y-78573113D01*
X171672775Y-78573113D02*
X171577537Y-78525494D01*
X171577537Y-78525494D02*
X171529918Y-78477874D01*
X171529918Y-78477874D02*
X171482299Y-78382636D01*
X171482299Y-78382636D02*
X171434680Y-78192160D01*
X171434680Y-78192160D02*
X171434680Y-77954065D01*
X171434680Y-77954065D02*
X171482299Y-77763589D01*
X171482299Y-77763589D02*
X171529918Y-77668351D01*
X171529918Y-77668351D02*
X171577537Y-77620732D01*
X171577537Y-77620732D02*
X171672775Y-77573113D01*
X136787045Y-161674819D02*
X137025140Y-161674819D01*
X136929902Y-161912914D02*
X137025140Y-161674819D01*
X137025140Y-161674819D02*
X136929902Y-161436724D01*
X137215616Y-161817676D02*
X137025140Y-161674819D01*
X137025140Y-161674819D02*
X137215616Y-161531962D01*
D17*
%TO.C,C11*%
X165104580Y-101080000D02*
X164823420Y-101080000D01*
X165104580Y-102100000D02*
X164823420Y-102100000D01*
%TO.C,U45*%
X172484000Y-87200000D02*
X175204000Y-87200000D01*
X172484000Y-88180000D02*
X172484000Y-87200000D01*
X172484000Y-90940000D02*
X172484000Y-91920000D01*
X175064000Y-91920000D02*
X172484000Y-91920000D01*
X176084000Y-91990000D02*
X175604000Y-91990000D01*
X175844000Y-91660000D01*
X176084000Y-91990000D01*
G36*
X176084000Y-91990000D02*
G01*
X175604000Y-91990000D01*
X175844000Y-91660000D01*
X176084000Y-91990000D01*
G37*
%TO.C,U16*%
X94524000Y-133325000D02*
X94904000Y-133325000D01*
X93594000Y-134950000D02*
X93404000Y-135090000D01*
X93404000Y-134810000D01*
X93594000Y-134950000D01*
G36*
X93594000Y-134950000D02*
G01*
X93404000Y-135090000D01*
X93404000Y-134810000D01*
X93594000Y-134950000D01*
G37*
D11*
%TO.C,Jx1*%
X159714000Y-77770000D02*
X160214000Y-77270000D01*
X159714000Y-78570000D02*
X159714000Y-77770000D01*
X160214000Y-77270000D02*
X163814000Y-77270000D01*
X160214000Y-79070000D02*
X159714000Y-78570000D01*
X163814000Y-77270000D02*
X164314000Y-77770000D01*
X163814000Y-79070000D02*
X160214000Y-79070000D01*
X164314000Y-77770000D02*
X164314000Y-78570000D01*
X164314000Y-78570000D02*
X163814000Y-79070000D01*
%TO.C,AmpPwr1*%
X166464000Y-83090000D02*
X166964000Y-82590000D01*
X166464000Y-86690000D02*
X166464000Y-83090000D01*
X166964000Y-82590000D02*
X167764000Y-82590000D01*
X166964000Y-87190000D02*
X166464000Y-86690000D01*
X167764000Y-82590000D02*
X168264000Y-83090000D01*
X167764000Y-87190000D02*
X166964000Y-87190000D01*
X168264000Y-83090000D02*
X168264000Y-86690000D01*
X168264000Y-86690000D02*
X167764000Y-87190000D01*
D16*
%TO.C,IC6*%
X116280800Y-126230000D02*
G75*
G02*
X116080800Y-126230000I-100000J0D01*
G01*
X116080800Y-126230000D02*
G75*
G02*
X116280800Y-126230000I100000J0D01*
G01*
D17*
%TO.C,U5*%
X146694000Y-157740000D02*
X146104000Y-157740000D01*
X146694000Y-157740000D02*
X146694000Y-158080000D01*
X146694000Y-158080000D02*
X147274000Y-158080000D01*
X146399000Y-156600000D02*
X146119000Y-156600000D01*
X146399000Y-156320000D01*
X146399000Y-156600000D01*
G36*
X146399000Y-156600000D02*
G01*
X146119000Y-156600000D01*
X146399000Y-156320000D01*
X146399000Y-156600000D01*
G37*
%TO.C,U38*%
X127284000Y-130190000D02*
X127284000Y-111970000D01*
X128284000Y-110970000D02*
X146504000Y-110970000D01*
X146504000Y-110970000D02*
X146504000Y-130190000D01*
X146504000Y-130190000D02*
X127284000Y-130190000D01*
X127284000Y-110970000D02*
X126784000Y-110970000D01*
X127284000Y-110470000D01*
X127284000Y-110970000D01*
G36*
X127284000Y-110970000D02*
G01*
X126784000Y-110970000D01*
X127284000Y-110470000D01*
X127284000Y-110970000D01*
G37*
D16*
%TO.C,IC5*%
X115780800Y-107230000D02*
G75*
G02*
X115580800Y-107230000I-100000J0D01*
G01*
X115580800Y-107230000D02*
G75*
G02*
X115780800Y-107230000I100000J0D01*
G01*
D17*
%TO.C,U8*%
X143524000Y-164450000D02*
X142934000Y-164450000D01*
X143524000Y-164450000D02*
X143524000Y-164790000D01*
X143524000Y-164790000D02*
X144104000Y-164790000D01*
X143229000Y-163310000D02*
X142949000Y-163310000D01*
X143229000Y-163030000D01*
X143229000Y-163310000D01*
G36*
X143229000Y-163310000D02*
G01*
X142949000Y-163310000D01*
X143229000Y-163030000D01*
X143229000Y-163310000D01*
G37*
D18*
%TO.C,U17*%
X135929000Y-87000000D02*
X139459000Y-87000000D01*
X139459000Y-92000000D02*
X135929000Y-92000000D01*
D16*
X140694000Y-92600000D02*
G75*
G02*
X140494000Y-92600000I-100000J0D01*
G01*
X140494000Y-92600000D02*
G75*
G02*
X140694000Y-92600000I100000J0D01*
G01*
D10*
%TO.C,FL1*%
X156324000Y-91230000D02*
X154324000Y-91230000D01*
X156324000Y-93210000D02*
X154324000Y-93210000D01*
D19*
%TO.C,U20*%
X154632300Y-135648300D02*
X154632300Y-136347161D01*
X154632300Y-139292839D02*
X154632300Y-139991700D01*
X154632300Y-139991700D02*
X155331161Y-139991700D01*
X155331161Y-135648300D02*
X154632300Y-135648300D01*
X158975700Y-135648300D02*
X158276839Y-135648300D01*
X158975700Y-136347161D02*
X158975700Y-135648300D01*
D11*
%TO.C,RX1_Direct1*%
X130394000Y-163730000D02*
X130894000Y-163230000D01*
X130394000Y-164530000D02*
X130394000Y-163730000D01*
X130894000Y-163230000D02*
X134494000Y-163230000D01*
X130894000Y-165030000D02*
X130394000Y-164530000D01*
X134494000Y-163230000D02*
X134994000Y-163730000D01*
X134494000Y-165030000D02*
X130894000Y-165030000D01*
X134994000Y-163730000D02*
X134994000Y-164530000D01*
X134994000Y-164530000D02*
X134494000Y-165030000D01*
%TO.C,TX1A_Direct1*%
X173428854Y-133811097D02*
X173928854Y-133311097D01*
X173428854Y-137411097D02*
X173428854Y-133811097D01*
X173928854Y-133311097D02*
X174728854Y-133311097D01*
X173928854Y-137911097D02*
X173428854Y-137411097D01*
X174728854Y-133311097D02*
X175228854Y-133811097D01*
X174728854Y-137911097D02*
X173928854Y-137911097D01*
X175228854Y-133811097D02*
X175228854Y-137411097D01*
X175228854Y-137411097D02*
X174728854Y-137911097D01*
D19*
%TO.C,U18*%
X154177301Y-142613299D02*
X154177301Y-143312160D01*
X154177301Y-146257838D02*
X154177301Y-146956699D01*
X154177301Y-146956699D02*
X154876162Y-146956699D01*
X154876162Y-142613299D02*
X154177301Y-142613299D01*
X157821840Y-146956699D02*
X158520701Y-146956699D01*
X158520701Y-142613299D02*
X157821840Y-142613299D01*
X158520701Y-143312160D02*
X158520701Y-142613299D01*
X158520701Y-146956699D02*
X158520701Y-146257838D01*
D17*
%TO.C,U9*%
X162564000Y-146790000D02*
X162564000Y-148600000D01*
X162564000Y-146790000D02*
X172964000Y-146790000D01*
X162584000Y-156030000D02*
X162584000Y-157230000D01*
X172964000Y-147990000D02*
X172964000Y-146790000D01*
X172984000Y-157230000D02*
X162584000Y-157230000D01*
X172984000Y-157230000D02*
X172984000Y-156030000D01*
X162954000Y-149330000D02*
X162714000Y-148994000D01*
X163194000Y-148994000D01*
X162954000Y-149330000D01*
G36*
X162954000Y-149330000D02*
G01*
X162714000Y-148994000D01*
X163194000Y-148994000D01*
X162954000Y-149330000D01*
G37*
%TO.C,U15*%
X112461500Y-99580000D02*
X112911500Y-99580000D01*
X112461500Y-100030000D02*
X112461500Y-99580000D01*
X112461500Y-103800000D02*
X112461500Y-103350000D01*
X112911500Y-103800000D02*
X112461500Y-103800000D01*
X116231500Y-99580000D02*
X116681500Y-99580000D01*
X116681500Y-99580000D02*
X116681500Y-100030000D01*
X116681500Y-103350000D02*
X116681500Y-103800000D01*
X116681500Y-103800000D02*
X116231500Y-103800000D01*
X113561500Y-104660000D02*
X113081500Y-104660000D01*
X113321500Y-104330000D01*
X113561500Y-104660000D01*
G36*
X113561500Y-104660000D02*
G01*
X113081500Y-104660000D01*
X113321500Y-104330000D01*
X113561500Y-104660000D01*
G37*
D11*
%TO.C,AmpPwr2*%
X162124000Y-83260000D02*
X162624000Y-82760000D01*
X162124000Y-86860000D02*
X162124000Y-83260000D01*
X162624000Y-82760000D02*
X163424000Y-82760000D01*
X162624000Y-87360000D02*
X162124000Y-86860000D01*
X163424000Y-82760000D02*
X163924000Y-83260000D01*
X163424000Y-87360000D02*
X162624000Y-87360000D01*
X163924000Y-83260000D02*
X163924000Y-86860000D01*
X163924000Y-86860000D02*
X163424000Y-87360000D01*
D19*
%TO.C,U3*%
X123463100Y-160029100D02*
X123463100Y-160458360D01*
X123463100Y-163841640D02*
X123463100Y-164270900D01*
X123463100Y-164270900D02*
X123892360Y-164270900D01*
X123892360Y-160029100D02*
X123463100Y-160029100D01*
X127275640Y-164270900D02*
X127704900Y-164270900D01*
X127704900Y-160029100D02*
X127275640Y-160029100D01*
X127704900Y-160458360D02*
X127704900Y-160029100D01*
X127704900Y-164270900D02*
X127704900Y-163841640D01*
D20*
G36*
X126028500Y-164855100D02*
G01*
X125647500Y-164855100D01*
X125647500Y-164601100D01*
X126028500Y-164601100D01*
X126028500Y-164855100D01*
G37*
G36*
X126536500Y-159698900D02*
G01*
X126155500Y-159698900D01*
X126155500Y-159444900D01*
X126536500Y-159444900D01*
X126536500Y-159698900D01*
G37*
%TO.C,U10*%
G36*
X136378300Y-163070500D02*
G01*
X136124300Y-163070500D01*
X136124300Y-162689500D01*
X136378300Y-162689500D01*
X136378300Y-163070500D01*
G37*
D17*
%TO.C,U37*%
X172621500Y-93030000D02*
X175341500Y-93030000D01*
X172621500Y-94010000D02*
X172621500Y-93030000D01*
X172621500Y-96770000D02*
X172621500Y-97750000D01*
X175201500Y-97750000D02*
X172621500Y-97750000D01*
X176221500Y-97920000D02*
X175741500Y-97920000D01*
X175981500Y-97590000D01*
X176221500Y-97920000D01*
G36*
X176221500Y-97920000D02*
G01*
X175741500Y-97920000D01*
X175981500Y-97590000D01*
X176221500Y-97920000D01*
G37*
D11*
%TO.C,TX2A_Direct1*%
X159694000Y-107920000D02*
X160194000Y-107420000D01*
X159694000Y-108720000D02*
X159694000Y-107920000D01*
X160194000Y-107420000D02*
X163794000Y-107420000D01*
X160194000Y-109220000D02*
X159694000Y-108720000D01*
X163794000Y-107420000D02*
X164294000Y-107920000D01*
X163794000Y-109220000D02*
X160194000Y-109220000D01*
X164294000Y-107920000D02*
X164294000Y-108720000D01*
X164294000Y-108720000D02*
X163794000Y-109220000D01*
D17*
%TO.C,U19*%
X175274000Y-129870000D02*
X175274000Y-130210000D01*
X175274000Y-131350000D02*
X175274000Y-131690000D01*
X177094000Y-129870000D02*
X177094000Y-130210000D01*
X177094000Y-129870000D02*
X177344000Y-129870000D01*
X177094000Y-131350000D02*
X177094000Y-131690000D01*
X177624000Y-129120000D02*
X177344000Y-129120000D01*
X177344000Y-128840000D01*
X177624000Y-129120000D01*
G36*
X177624000Y-129120000D02*
G01*
X177344000Y-129120000D01*
X177344000Y-128840000D01*
X177624000Y-129120000D01*
G37*
D19*
%TO.C,U1*%
X161997700Y-79769701D02*
X161997700Y-79965662D01*
X161997700Y-81834340D02*
X161997700Y-82030301D01*
X161997700Y-82030301D02*
X162193661Y-82030301D01*
X162193661Y-79769701D02*
X161997700Y-79769701D01*
X164062339Y-82030301D02*
X164258300Y-82030301D01*
X164258300Y-79769701D02*
X164062339Y-79769701D01*
X164258300Y-79965662D02*
X164258300Y-79769701D01*
X164258300Y-82030301D02*
X164258300Y-81834340D01*
D20*
G36*
X164944100Y-81590500D02*
G01*
X164690100Y-81590500D01*
X164690100Y-81209500D01*
X164944100Y-81209500D01*
X164944100Y-81590500D01*
G37*
%TO.C,U24*%
G36*
X166142900Y-104594500D02*
G01*
X165888900Y-104594500D01*
X165888900Y-104213500D01*
X166142900Y-104213500D01*
X166142900Y-104594500D01*
G37*
G36*
X171299100Y-105102500D02*
G01*
X171045100Y-105102500D01*
X171045100Y-104721500D01*
X171299100Y-104721500D01*
X171299100Y-105102500D01*
G37*
D17*
%TO.C,R5*%
X110069000Y-104042936D02*
X110069000Y-104497064D01*
X111539000Y-104042936D02*
X111539000Y-104497064D01*
D11*
%TO.C,RX2_Direct1*%
X130364000Y-159010000D02*
X130864000Y-158510000D01*
X130364000Y-159810000D02*
X130364000Y-159010000D01*
X130864000Y-158510000D02*
X134464000Y-158510000D01*
X130864000Y-160310000D02*
X130364000Y-159810000D01*
X134464000Y-158510000D02*
X134964000Y-159010000D01*
X134464000Y-160310000D02*
X130864000Y-160310000D01*
X134964000Y-159010000D02*
X134964000Y-159810000D01*
X134964000Y-159810000D02*
X134464000Y-160310000D01*
D17*
%TO.C,U7*%
X141734000Y-155360000D02*
X141454000Y-155360000D01*
X141734000Y-155080000D01*
X141734000Y-155360000D01*
G36*
X141734000Y-155360000D02*
G01*
X141454000Y-155360000D01*
X141734000Y-155080000D01*
X141734000Y-155360000D01*
G37*
D20*
%TO.C,U12*%
G36*
X160729800Y-92709999D02*
G01*
X160348800Y-92709999D01*
X160348800Y-92455999D01*
X160729800Y-92455999D01*
X160729800Y-92709999D01*
G37*
D16*
%TO.C,IC7*%
X148425798Y-144565000D02*
G75*
G02*
X148225798Y-144565000I-100000J0D01*
G01*
X148225798Y-144565000D02*
G75*
G02*
X148425798Y-144565000I100000J0D01*
G01*
%TO.C,L2*%
X173534000Y-123880000D02*
X173534000Y-124180000D01*
D18*
%TO.C,J13*%
X109234800Y-92595000D02*
X110236800Y-92595000D01*
D16*
X111910800Y-78070000D02*
G75*
G02*
X111710800Y-78070000I-100000J0D01*
G01*
X111710800Y-78070000D02*
G75*
G02*
X111910800Y-78070000I100000J0D01*
G01*
D17*
%TO.C,C66*%
X115545800Y-143331252D02*
X115545800Y-142808748D01*
X117015800Y-143331252D02*
X117015800Y-142808748D01*
%TO.C,U23*%
X159664000Y-103300000D02*
X159664000Y-103640000D01*
X159664000Y-103300000D02*
X159914000Y-103300000D01*
X160194000Y-102550000D02*
X159914000Y-102550000D01*
X159914000Y-102270000D01*
X160194000Y-102550000D01*
G36*
X160194000Y-102550000D02*
G01*
X159914000Y-102550000D01*
X159914000Y-102270000D01*
X160194000Y-102550000D01*
G37*
%TO.C,U13*%
X159204000Y-88310000D02*
X159204000Y-88650000D01*
X159204000Y-89790000D02*
X159204000Y-90130000D01*
X161024000Y-88310000D02*
X161024000Y-88650000D01*
X161024000Y-88310000D02*
X161274000Y-88310000D01*
X161024000Y-89790000D02*
X161024000Y-90130000D01*
X161554000Y-87560000D02*
X161274000Y-87560000D01*
X161274000Y-87280000D01*
X161554000Y-87560000D01*
G36*
X161554000Y-87560000D02*
G01*
X161274000Y-87560000D01*
X161274000Y-87280000D01*
X161554000Y-87560000D01*
G37*
D21*
%TO.C,IC9*%
X148499000Y-80040000D02*
G75*
G02*
X148249000Y-80040000I-125000J0D01*
G01*
X148249000Y-80040000D02*
G75*
G02*
X148499000Y-80040000I125000J0D01*
G01*
D17*
%TO.C,U6*%
X145884000Y-159690000D02*
X145604000Y-159690000D01*
X145884000Y-159410000D01*
X145884000Y-159690000D01*
G36*
X145884000Y-159690000D02*
G01*
X145604000Y-159690000D01*
X145884000Y-159410000D01*
X145884000Y-159690000D01*
G37*
D21*
%TO.C,IC3*%
X154869297Y-96766332D02*
G75*
G02*
X154619297Y-96766332I-125000J0D01*
G01*
X154619297Y-96766332D02*
G75*
G02*
X154869297Y-96766332I125000J0D01*
G01*
D20*
%TO.C,U11*%
G36*
X136383500Y-159830501D02*
G01*
X136129500Y-159830501D01*
X136129500Y-159449501D01*
X136383500Y-159449501D01*
X136383500Y-159830501D01*
G37*
%TD*%
D22*
X179890800Y-160820000D02*
X179890800Y-81820000D01*
X87890800Y-81820000D02*
G75*
G02*
X94390800Y-75320000I6500000J0D01*
G01*
X94390800Y-167320000D02*
X173390800Y-167320000D01*
X173390800Y-75320000D02*
X94390800Y-75320000D01*
X179890800Y-160820000D02*
G75*
G02*
X173390800Y-167320000I-6500000J0D01*
G01*
X94390800Y-167320000D02*
G75*
G02*
X87890800Y-160820000I0J6500000D01*
G01*
X87890800Y-81820000D02*
X87890800Y-160820000D01*
X173390800Y-75320000D02*
G75*
G02*
X179890800Y-81820000I0J-6500000D01*
G01*
M02*
