%TF.GenerationSoftware,KiCad,Pcbnew,9.0.7*%
%TF.CreationDate,2026-03-25T15:14:34-04:00*%
%TF.ProjectId,AMSAT_SDR,414d5341-545f-4534-9452-2e6b69636164,WA1CYB-revB*%
%TF.SameCoordinates,Original*%
%TF.FileFunction,Legend,Bot*%
%TF.FilePolarity,Positive*%
%FSLAX46Y46*%
G04 Gerber Fmt 4.6, Leading zero omitted, Abs format (unit mm)*
G04 Created by KiCad (PCBNEW 9.0.7) date 2026-03-25 15:14:34*
%MOMM*%
%LPD*%
G01*
G04 APERTURE LIST*
%ADD10C,0.100000*%
%ADD11C,0.150000*%
%ADD12C,0.300000*%
%ADD13C,0.400000*%
%ADD14C,0.175000*%
%ADD15C,0.586566*%
%ADD16C,0.120000*%
%TA.AperFunction,Profile*%
%ADD17C,0.050000*%
%TD*%
G04 APERTURE END LIST*
D10*
D11*
X177002200Y-166007200D02*
X285002200Y-166007200D01*
X285002200Y-198007200D01*
X177002200Y-198007200D01*
X177002200Y-166007200D01*
D10*
D11*
X10000000Y-10000000D02*
X287002200Y-10000000D01*
X287002200Y-200007200D01*
X10000000Y-200007200D01*
X10000000Y-10000000D01*
D10*
D11*
X12000000Y-12000000D02*
X285002200Y-12000000D01*
X285002200Y-198007200D01*
X12000000Y-198007200D01*
X12000000Y-12000000D01*
D10*
D11*
X60000000Y-12000000D02*
X60000000Y-10000000D01*
D10*
D11*
X110000000Y-12000000D02*
X110000000Y-10000000D01*
D10*
D11*
X160000000Y-12000000D02*
X160000000Y-10000000D01*
D10*
D11*
X210000000Y-12000000D02*
X210000000Y-10000000D01*
D10*
D11*
X260000000Y-12000000D02*
X260000000Y-10000000D01*
D10*
D11*
X36089160Y-11593604D02*
X35346303Y-11593604D01*
X35717731Y-11593604D02*
X35717731Y-10293604D01*
X35717731Y-10293604D02*
X35593922Y-10479319D01*
X35593922Y-10479319D02*
X35470112Y-10603128D01*
X35470112Y-10603128D02*
X35346303Y-10665033D01*
D10*
D11*
X85346303Y-10417414D02*
X85408207Y-10355509D01*
X85408207Y-10355509D02*
X85532017Y-10293604D01*
X85532017Y-10293604D02*
X85841541Y-10293604D01*
X85841541Y-10293604D02*
X85965350Y-10355509D01*
X85965350Y-10355509D02*
X86027255Y-10417414D01*
X86027255Y-10417414D02*
X86089160Y-10541223D01*
X86089160Y-10541223D02*
X86089160Y-10665033D01*
X86089160Y-10665033D02*
X86027255Y-10850747D01*
X86027255Y-10850747D02*
X85284398Y-11593604D01*
X85284398Y-11593604D02*
X86089160Y-11593604D01*
D10*
D11*
X135284398Y-10293604D02*
X136089160Y-10293604D01*
X136089160Y-10293604D02*
X135655826Y-10788842D01*
X135655826Y-10788842D02*
X135841541Y-10788842D01*
X135841541Y-10788842D02*
X135965350Y-10850747D01*
X135965350Y-10850747D02*
X136027255Y-10912652D01*
X136027255Y-10912652D02*
X136089160Y-11036461D01*
X136089160Y-11036461D02*
X136089160Y-11345985D01*
X136089160Y-11345985D02*
X136027255Y-11469795D01*
X136027255Y-11469795D02*
X135965350Y-11531700D01*
X135965350Y-11531700D02*
X135841541Y-11593604D01*
X135841541Y-11593604D02*
X135470112Y-11593604D01*
X135470112Y-11593604D02*
X135346303Y-11531700D01*
X135346303Y-11531700D02*
X135284398Y-11469795D01*
D10*
D11*
X185965350Y-10726938D02*
X185965350Y-11593604D01*
X185655826Y-10231700D02*
X185346303Y-11160271D01*
X185346303Y-11160271D02*
X186151064Y-11160271D01*
D10*
D11*
X236027255Y-10293604D02*
X235408207Y-10293604D01*
X235408207Y-10293604D02*
X235346303Y-10912652D01*
X235346303Y-10912652D02*
X235408207Y-10850747D01*
X235408207Y-10850747D02*
X235532017Y-10788842D01*
X235532017Y-10788842D02*
X235841541Y-10788842D01*
X235841541Y-10788842D02*
X235965350Y-10850747D01*
X235965350Y-10850747D02*
X236027255Y-10912652D01*
X236027255Y-10912652D02*
X236089160Y-11036461D01*
X236089160Y-11036461D02*
X236089160Y-11345985D01*
X236089160Y-11345985D02*
X236027255Y-11469795D01*
X236027255Y-11469795D02*
X235965350Y-11531700D01*
X235965350Y-11531700D02*
X235841541Y-11593604D01*
X235841541Y-11593604D02*
X235532017Y-11593604D01*
X235532017Y-11593604D02*
X235408207Y-11531700D01*
X235408207Y-11531700D02*
X235346303Y-11469795D01*
D10*
D11*
X285965350Y-10293604D02*
X285717731Y-10293604D01*
X285717731Y-10293604D02*
X285593922Y-10355509D01*
X285593922Y-10355509D02*
X285532017Y-10417414D01*
X285532017Y-10417414D02*
X285408207Y-10603128D01*
X285408207Y-10603128D02*
X285346303Y-10850747D01*
X285346303Y-10850747D02*
X285346303Y-11345985D01*
X285346303Y-11345985D02*
X285408207Y-11469795D01*
X285408207Y-11469795D02*
X285470112Y-11531700D01*
X285470112Y-11531700D02*
X285593922Y-11593604D01*
X285593922Y-11593604D02*
X285841541Y-11593604D01*
X285841541Y-11593604D02*
X285965350Y-11531700D01*
X285965350Y-11531700D02*
X286027255Y-11469795D01*
X286027255Y-11469795D02*
X286089160Y-11345985D01*
X286089160Y-11345985D02*
X286089160Y-11036461D01*
X286089160Y-11036461D02*
X286027255Y-10912652D01*
X286027255Y-10912652D02*
X285965350Y-10850747D01*
X285965350Y-10850747D02*
X285841541Y-10788842D01*
X285841541Y-10788842D02*
X285593922Y-10788842D01*
X285593922Y-10788842D02*
X285470112Y-10850747D01*
X285470112Y-10850747D02*
X285408207Y-10912652D01*
X285408207Y-10912652D02*
X285346303Y-11036461D01*
D10*
D11*
X60000000Y-198007200D02*
X60000000Y-200007200D01*
D10*
D11*
X110000000Y-198007200D02*
X110000000Y-200007200D01*
D10*
D11*
X160000000Y-198007200D02*
X160000000Y-200007200D01*
D10*
D11*
X210000000Y-198007200D02*
X210000000Y-200007200D01*
D10*
D11*
X260000000Y-198007200D02*
X260000000Y-200007200D01*
D10*
D11*
X36089160Y-199600804D02*
X35346303Y-199600804D01*
X35717731Y-199600804D02*
X35717731Y-198300804D01*
X35717731Y-198300804D02*
X35593922Y-198486519D01*
X35593922Y-198486519D02*
X35470112Y-198610328D01*
X35470112Y-198610328D02*
X35346303Y-198672233D01*
D10*
D11*
X85346303Y-198424614D02*
X85408207Y-198362709D01*
X85408207Y-198362709D02*
X85532017Y-198300804D01*
X85532017Y-198300804D02*
X85841541Y-198300804D01*
X85841541Y-198300804D02*
X85965350Y-198362709D01*
X85965350Y-198362709D02*
X86027255Y-198424614D01*
X86027255Y-198424614D02*
X86089160Y-198548423D01*
X86089160Y-198548423D02*
X86089160Y-198672233D01*
X86089160Y-198672233D02*
X86027255Y-198857947D01*
X86027255Y-198857947D02*
X85284398Y-199600804D01*
X85284398Y-199600804D02*
X86089160Y-199600804D01*
D10*
D11*
X135284398Y-198300804D02*
X136089160Y-198300804D01*
X136089160Y-198300804D02*
X135655826Y-198796042D01*
X135655826Y-198796042D02*
X135841541Y-198796042D01*
X135841541Y-198796042D02*
X135965350Y-198857947D01*
X135965350Y-198857947D02*
X136027255Y-198919852D01*
X136027255Y-198919852D02*
X136089160Y-199043661D01*
X136089160Y-199043661D02*
X136089160Y-199353185D01*
X136089160Y-199353185D02*
X136027255Y-199476995D01*
X136027255Y-199476995D02*
X135965350Y-199538900D01*
X135965350Y-199538900D02*
X135841541Y-199600804D01*
X135841541Y-199600804D02*
X135470112Y-199600804D01*
X135470112Y-199600804D02*
X135346303Y-199538900D01*
X135346303Y-199538900D02*
X135284398Y-199476995D01*
D10*
D11*
X185965350Y-198734138D02*
X185965350Y-199600804D01*
X185655826Y-198238900D02*
X185346303Y-199167471D01*
X185346303Y-199167471D02*
X186151064Y-199167471D01*
D10*
D11*
X236027255Y-198300804D02*
X235408207Y-198300804D01*
X235408207Y-198300804D02*
X235346303Y-198919852D01*
X235346303Y-198919852D02*
X235408207Y-198857947D01*
X235408207Y-198857947D02*
X235532017Y-198796042D01*
X235532017Y-198796042D02*
X235841541Y-198796042D01*
X235841541Y-198796042D02*
X235965350Y-198857947D01*
X235965350Y-198857947D02*
X236027255Y-198919852D01*
X236027255Y-198919852D02*
X236089160Y-199043661D01*
X236089160Y-199043661D02*
X236089160Y-199353185D01*
X236089160Y-199353185D02*
X236027255Y-199476995D01*
X236027255Y-199476995D02*
X235965350Y-199538900D01*
X235965350Y-199538900D02*
X235841541Y-199600804D01*
X235841541Y-199600804D02*
X235532017Y-199600804D01*
X235532017Y-199600804D02*
X235408207Y-199538900D01*
X235408207Y-199538900D02*
X235346303Y-199476995D01*
D10*
D11*
X285965350Y-198300804D02*
X285717731Y-198300804D01*
X285717731Y-198300804D02*
X285593922Y-198362709D01*
X285593922Y-198362709D02*
X285532017Y-198424614D01*
X285532017Y-198424614D02*
X285408207Y-198610328D01*
X285408207Y-198610328D02*
X285346303Y-198857947D01*
X285346303Y-198857947D02*
X285346303Y-199353185D01*
X285346303Y-199353185D02*
X285408207Y-199476995D01*
X285408207Y-199476995D02*
X285470112Y-199538900D01*
X285470112Y-199538900D02*
X285593922Y-199600804D01*
X285593922Y-199600804D02*
X285841541Y-199600804D01*
X285841541Y-199600804D02*
X285965350Y-199538900D01*
X285965350Y-199538900D02*
X286027255Y-199476995D01*
X286027255Y-199476995D02*
X286089160Y-199353185D01*
X286089160Y-199353185D02*
X286089160Y-199043661D01*
X286089160Y-199043661D02*
X286027255Y-198919852D01*
X286027255Y-198919852D02*
X285965350Y-198857947D01*
X285965350Y-198857947D02*
X285841541Y-198796042D01*
X285841541Y-198796042D02*
X285593922Y-198796042D01*
X285593922Y-198796042D02*
X285470112Y-198857947D01*
X285470112Y-198857947D02*
X285408207Y-198919852D01*
X285408207Y-198919852D02*
X285346303Y-199043661D01*
D10*
D11*
X10000000Y-60000000D02*
X12000000Y-60000000D01*
D10*
D11*
X10000000Y-110000000D02*
X12000000Y-110000000D01*
D10*
D11*
X10000000Y-160000000D02*
X12000000Y-160000000D01*
D10*
D11*
X10690476Y-35222176D02*
X11309523Y-35222176D01*
X10566666Y-35593604D02*
X10999999Y-34293604D01*
X10999999Y-34293604D02*
X11433333Y-35593604D01*
D10*
D11*
X11092857Y-84912652D02*
X11278571Y-84974557D01*
X11278571Y-84974557D02*
X11340476Y-85036461D01*
X11340476Y-85036461D02*
X11402380Y-85160271D01*
X11402380Y-85160271D02*
X11402380Y-85345985D01*
X11402380Y-85345985D02*
X11340476Y-85469795D01*
X11340476Y-85469795D02*
X11278571Y-85531700D01*
X11278571Y-85531700D02*
X11154761Y-85593604D01*
X11154761Y-85593604D02*
X10659523Y-85593604D01*
X10659523Y-85593604D02*
X10659523Y-84293604D01*
X10659523Y-84293604D02*
X11092857Y-84293604D01*
X11092857Y-84293604D02*
X11216666Y-84355509D01*
X11216666Y-84355509D02*
X11278571Y-84417414D01*
X11278571Y-84417414D02*
X11340476Y-84541223D01*
X11340476Y-84541223D02*
X11340476Y-84665033D01*
X11340476Y-84665033D02*
X11278571Y-84788842D01*
X11278571Y-84788842D02*
X11216666Y-84850747D01*
X11216666Y-84850747D02*
X11092857Y-84912652D01*
X11092857Y-84912652D02*
X10659523Y-84912652D01*
D10*
D11*
X11402380Y-135469795D02*
X11340476Y-135531700D01*
X11340476Y-135531700D02*
X11154761Y-135593604D01*
X11154761Y-135593604D02*
X11030952Y-135593604D01*
X11030952Y-135593604D02*
X10845238Y-135531700D01*
X10845238Y-135531700D02*
X10721428Y-135407890D01*
X10721428Y-135407890D02*
X10659523Y-135284080D01*
X10659523Y-135284080D02*
X10597619Y-135036461D01*
X10597619Y-135036461D02*
X10597619Y-134850747D01*
X10597619Y-134850747D02*
X10659523Y-134603128D01*
X10659523Y-134603128D02*
X10721428Y-134479319D01*
X10721428Y-134479319D02*
X10845238Y-134355509D01*
X10845238Y-134355509D02*
X11030952Y-134293604D01*
X11030952Y-134293604D02*
X11154761Y-134293604D01*
X11154761Y-134293604D02*
X11340476Y-134355509D01*
X11340476Y-134355509D02*
X11402380Y-134417414D01*
D10*
D11*
X10659523Y-185593604D02*
X10659523Y-184293604D01*
X10659523Y-184293604D02*
X10969047Y-184293604D01*
X10969047Y-184293604D02*
X11154761Y-184355509D01*
X11154761Y-184355509D02*
X11278571Y-184479319D01*
X11278571Y-184479319D02*
X11340476Y-184603128D01*
X11340476Y-184603128D02*
X11402380Y-184850747D01*
X11402380Y-184850747D02*
X11402380Y-185036461D01*
X11402380Y-185036461D02*
X11340476Y-185284080D01*
X11340476Y-185284080D02*
X11278571Y-185407890D01*
X11278571Y-185407890D02*
X11154761Y-185531700D01*
X11154761Y-185531700D02*
X10969047Y-185593604D01*
X10969047Y-185593604D02*
X10659523Y-185593604D01*
D10*
D11*
X287002200Y-60000000D02*
X285002200Y-60000000D01*
D10*
D11*
X287002200Y-110000000D02*
X285002200Y-110000000D01*
D10*
D11*
X287002200Y-160000000D02*
X285002200Y-160000000D01*
D10*
D11*
X285692676Y-35222176D02*
X286311723Y-35222176D01*
X285568866Y-35593604D02*
X286002199Y-34293604D01*
X286002199Y-34293604D02*
X286435533Y-35593604D01*
D10*
D11*
X286095057Y-84912652D02*
X286280771Y-84974557D01*
X286280771Y-84974557D02*
X286342676Y-85036461D01*
X286342676Y-85036461D02*
X286404580Y-85160271D01*
X286404580Y-85160271D02*
X286404580Y-85345985D01*
X286404580Y-85345985D02*
X286342676Y-85469795D01*
X286342676Y-85469795D02*
X286280771Y-85531700D01*
X286280771Y-85531700D02*
X286156961Y-85593604D01*
X286156961Y-85593604D02*
X285661723Y-85593604D01*
X285661723Y-85593604D02*
X285661723Y-84293604D01*
X285661723Y-84293604D02*
X286095057Y-84293604D01*
X286095057Y-84293604D02*
X286218866Y-84355509D01*
X286218866Y-84355509D02*
X286280771Y-84417414D01*
X286280771Y-84417414D02*
X286342676Y-84541223D01*
X286342676Y-84541223D02*
X286342676Y-84665033D01*
X286342676Y-84665033D02*
X286280771Y-84788842D01*
X286280771Y-84788842D02*
X286218866Y-84850747D01*
X286218866Y-84850747D02*
X286095057Y-84912652D01*
X286095057Y-84912652D02*
X285661723Y-84912652D01*
D10*
D11*
X286404580Y-135469795D02*
X286342676Y-135531700D01*
X286342676Y-135531700D02*
X286156961Y-135593604D01*
X286156961Y-135593604D02*
X286033152Y-135593604D01*
X286033152Y-135593604D02*
X285847438Y-135531700D01*
X285847438Y-135531700D02*
X285723628Y-135407890D01*
X285723628Y-135407890D02*
X285661723Y-135284080D01*
X285661723Y-135284080D02*
X285599819Y-135036461D01*
X285599819Y-135036461D02*
X285599819Y-134850747D01*
X285599819Y-134850747D02*
X285661723Y-134603128D01*
X285661723Y-134603128D02*
X285723628Y-134479319D01*
X285723628Y-134479319D02*
X285847438Y-134355509D01*
X285847438Y-134355509D02*
X286033152Y-134293604D01*
X286033152Y-134293604D02*
X286156961Y-134293604D01*
X286156961Y-134293604D02*
X286342676Y-134355509D01*
X286342676Y-134355509D02*
X286404580Y-134417414D01*
D10*
D11*
X285661723Y-185593604D02*
X285661723Y-184293604D01*
X285661723Y-184293604D02*
X285971247Y-184293604D01*
X285971247Y-184293604D02*
X286156961Y-184355509D01*
X286156961Y-184355509D02*
X286280771Y-184479319D01*
X286280771Y-184479319D02*
X286342676Y-184603128D01*
X286342676Y-184603128D02*
X286404580Y-184850747D01*
X286404580Y-184850747D02*
X286404580Y-185036461D01*
X286404580Y-185036461D02*
X286342676Y-185284080D01*
X286342676Y-185284080D02*
X286280771Y-185407890D01*
X286280771Y-185407890D02*
X286156961Y-185531700D01*
X286156961Y-185531700D02*
X285971247Y-185593604D01*
X285971247Y-185593604D02*
X285661723Y-185593604D01*
D10*
D11*
X200458026Y-193793328D02*
X200458026Y-192293328D01*
X200458026Y-192293328D02*
X200815169Y-192293328D01*
X200815169Y-192293328D02*
X201029455Y-192364757D01*
X201029455Y-192364757D02*
X201172312Y-192507614D01*
X201172312Y-192507614D02*
X201243741Y-192650471D01*
X201243741Y-192650471D02*
X201315169Y-192936185D01*
X201315169Y-192936185D02*
X201315169Y-193150471D01*
X201315169Y-193150471D02*
X201243741Y-193436185D01*
X201243741Y-193436185D02*
X201172312Y-193579042D01*
X201172312Y-193579042D02*
X201029455Y-193721900D01*
X201029455Y-193721900D02*
X200815169Y-193793328D01*
X200815169Y-193793328D02*
X200458026Y-193793328D01*
X202600884Y-193793328D02*
X202600884Y-193007614D01*
X202600884Y-193007614D02*
X202529455Y-192864757D01*
X202529455Y-192864757D02*
X202386598Y-192793328D01*
X202386598Y-192793328D02*
X202100884Y-192793328D01*
X202100884Y-192793328D02*
X201958026Y-192864757D01*
X202600884Y-193721900D02*
X202458026Y-193793328D01*
X202458026Y-193793328D02*
X202100884Y-193793328D01*
X202100884Y-193793328D02*
X201958026Y-193721900D01*
X201958026Y-193721900D02*
X201886598Y-193579042D01*
X201886598Y-193579042D02*
X201886598Y-193436185D01*
X201886598Y-193436185D02*
X201958026Y-193293328D01*
X201958026Y-193293328D02*
X202100884Y-193221900D01*
X202100884Y-193221900D02*
X202458026Y-193221900D01*
X202458026Y-193221900D02*
X202600884Y-193150471D01*
X203100884Y-192793328D02*
X203672312Y-192793328D01*
X203315169Y-192293328D02*
X203315169Y-193579042D01*
X203315169Y-193579042D02*
X203386598Y-193721900D01*
X203386598Y-193721900D02*
X203529455Y-193793328D01*
X203529455Y-193793328D02*
X203672312Y-193793328D01*
X204743741Y-193721900D02*
X204600884Y-193793328D01*
X204600884Y-193793328D02*
X204315170Y-193793328D01*
X204315170Y-193793328D02*
X204172312Y-193721900D01*
X204172312Y-193721900D02*
X204100884Y-193579042D01*
X204100884Y-193579042D02*
X204100884Y-193007614D01*
X204100884Y-193007614D02*
X204172312Y-192864757D01*
X204172312Y-192864757D02*
X204315170Y-192793328D01*
X204315170Y-192793328D02*
X204600884Y-192793328D01*
X204600884Y-192793328D02*
X204743741Y-192864757D01*
X204743741Y-192864757D02*
X204815170Y-193007614D01*
X204815170Y-193007614D02*
X204815170Y-193150471D01*
X204815170Y-193150471D02*
X204100884Y-193293328D01*
X205458026Y-193650471D02*
X205529455Y-193721900D01*
X205529455Y-193721900D02*
X205458026Y-193793328D01*
X205458026Y-193793328D02*
X205386598Y-193721900D01*
X205386598Y-193721900D02*
X205458026Y-193650471D01*
X205458026Y-193650471D02*
X205458026Y-193793328D01*
X205458026Y-192864757D02*
X205529455Y-192936185D01*
X205529455Y-192936185D02*
X205458026Y-193007614D01*
X205458026Y-193007614D02*
X205386598Y-192936185D01*
X205386598Y-192936185D02*
X205458026Y-192864757D01*
X205458026Y-192864757D02*
X205458026Y-193007614D01*
X207243741Y-192436185D02*
X207315169Y-192364757D01*
X207315169Y-192364757D02*
X207458027Y-192293328D01*
X207458027Y-192293328D02*
X207815169Y-192293328D01*
X207815169Y-192293328D02*
X207958027Y-192364757D01*
X207958027Y-192364757D02*
X208029455Y-192436185D01*
X208029455Y-192436185D02*
X208100884Y-192579042D01*
X208100884Y-192579042D02*
X208100884Y-192721900D01*
X208100884Y-192721900D02*
X208029455Y-192936185D01*
X208029455Y-192936185D02*
X207172312Y-193793328D01*
X207172312Y-193793328D02*
X208100884Y-193793328D01*
X209029455Y-192293328D02*
X209172312Y-192293328D01*
X209172312Y-192293328D02*
X209315169Y-192364757D01*
X209315169Y-192364757D02*
X209386598Y-192436185D01*
X209386598Y-192436185D02*
X209458026Y-192579042D01*
X209458026Y-192579042D02*
X209529455Y-192864757D01*
X209529455Y-192864757D02*
X209529455Y-193221900D01*
X209529455Y-193221900D02*
X209458026Y-193507614D01*
X209458026Y-193507614D02*
X209386598Y-193650471D01*
X209386598Y-193650471D02*
X209315169Y-193721900D01*
X209315169Y-193721900D02*
X209172312Y-193793328D01*
X209172312Y-193793328D02*
X209029455Y-193793328D01*
X209029455Y-193793328D02*
X208886598Y-193721900D01*
X208886598Y-193721900D02*
X208815169Y-193650471D01*
X208815169Y-193650471D02*
X208743740Y-193507614D01*
X208743740Y-193507614D02*
X208672312Y-193221900D01*
X208672312Y-193221900D02*
X208672312Y-192864757D01*
X208672312Y-192864757D02*
X208743740Y-192579042D01*
X208743740Y-192579042D02*
X208815169Y-192436185D01*
X208815169Y-192436185D02*
X208886598Y-192364757D01*
X208886598Y-192364757D02*
X209029455Y-192293328D01*
X210100883Y-192436185D02*
X210172311Y-192364757D01*
X210172311Y-192364757D02*
X210315169Y-192293328D01*
X210315169Y-192293328D02*
X210672311Y-192293328D01*
X210672311Y-192293328D02*
X210815169Y-192364757D01*
X210815169Y-192364757D02*
X210886597Y-192436185D01*
X210886597Y-192436185D02*
X210958026Y-192579042D01*
X210958026Y-192579042D02*
X210958026Y-192721900D01*
X210958026Y-192721900D02*
X210886597Y-192936185D01*
X210886597Y-192936185D02*
X210029454Y-193793328D01*
X210029454Y-193793328D02*
X210958026Y-193793328D01*
X212243740Y-192293328D02*
X211958025Y-192293328D01*
X211958025Y-192293328D02*
X211815168Y-192364757D01*
X211815168Y-192364757D02*
X211743740Y-192436185D01*
X211743740Y-192436185D02*
X211600882Y-192650471D01*
X211600882Y-192650471D02*
X211529454Y-192936185D01*
X211529454Y-192936185D02*
X211529454Y-193507614D01*
X211529454Y-193507614D02*
X211600882Y-193650471D01*
X211600882Y-193650471D02*
X211672311Y-193721900D01*
X211672311Y-193721900D02*
X211815168Y-193793328D01*
X211815168Y-193793328D02*
X212100882Y-193793328D01*
X212100882Y-193793328D02*
X212243740Y-193721900D01*
X212243740Y-193721900D02*
X212315168Y-193650471D01*
X212315168Y-193650471D02*
X212386597Y-193507614D01*
X212386597Y-193507614D02*
X212386597Y-193150471D01*
X212386597Y-193150471D02*
X212315168Y-193007614D01*
X212315168Y-193007614D02*
X212243740Y-192936185D01*
X212243740Y-192936185D02*
X212100882Y-192864757D01*
X212100882Y-192864757D02*
X211815168Y-192864757D01*
X211815168Y-192864757D02*
X211672311Y-192936185D01*
X211672311Y-192936185D02*
X211600882Y-193007614D01*
X211600882Y-193007614D02*
X211529454Y-193150471D01*
X213029453Y-193221900D02*
X214172311Y-193221900D01*
X215172311Y-192293328D02*
X215315168Y-192293328D01*
X215315168Y-192293328D02*
X215458025Y-192364757D01*
X215458025Y-192364757D02*
X215529454Y-192436185D01*
X215529454Y-192436185D02*
X215600882Y-192579042D01*
X215600882Y-192579042D02*
X215672311Y-192864757D01*
X215672311Y-192864757D02*
X215672311Y-193221900D01*
X215672311Y-193221900D02*
X215600882Y-193507614D01*
X215600882Y-193507614D02*
X215529454Y-193650471D01*
X215529454Y-193650471D02*
X215458025Y-193721900D01*
X215458025Y-193721900D02*
X215315168Y-193793328D01*
X215315168Y-193793328D02*
X215172311Y-193793328D01*
X215172311Y-193793328D02*
X215029454Y-193721900D01*
X215029454Y-193721900D02*
X214958025Y-193650471D01*
X214958025Y-193650471D02*
X214886596Y-193507614D01*
X214886596Y-193507614D02*
X214815168Y-193221900D01*
X214815168Y-193221900D02*
X214815168Y-192864757D01*
X214815168Y-192864757D02*
X214886596Y-192579042D01*
X214886596Y-192579042D02*
X214958025Y-192436185D01*
X214958025Y-192436185D02*
X215029454Y-192364757D01*
X215029454Y-192364757D02*
X215172311Y-192293328D01*
X216172310Y-192293328D02*
X217100882Y-192293328D01*
X217100882Y-192293328D02*
X216600882Y-192864757D01*
X216600882Y-192864757D02*
X216815167Y-192864757D01*
X216815167Y-192864757D02*
X216958025Y-192936185D01*
X216958025Y-192936185D02*
X217029453Y-193007614D01*
X217029453Y-193007614D02*
X217100882Y-193150471D01*
X217100882Y-193150471D02*
X217100882Y-193507614D01*
X217100882Y-193507614D02*
X217029453Y-193650471D01*
X217029453Y-193650471D02*
X216958025Y-193721900D01*
X216958025Y-193721900D02*
X216815167Y-193793328D01*
X216815167Y-193793328D02*
X216386596Y-193793328D01*
X216386596Y-193793328D02*
X216243739Y-193721900D01*
X216243739Y-193721900D02*
X216172310Y-193650471D01*
X217743738Y-193221900D02*
X218886596Y-193221900D01*
X219886596Y-192293328D02*
X220029453Y-192293328D01*
X220029453Y-192293328D02*
X220172310Y-192364757D01*
X220172310Y-192364757D02*
X220243739Y-192436185D01*
X220243739Y-192436185D02*
X220315167Y-192579042D01*
X220315167Y-192579042D02*
X220386596Y-192864757D01*
X220386596Y-192864757D02*
X220386596Y-193221900D01*
X220386596Y-193221900D02*
X220315167Y-193507614D01*
X220315167Y-193507614D02*
X220243739Y-193650471D01*
X220243739Y-193650471D02*
X220172310Y-193721900D01*
X220172310Y-193721900D02*
X220029453Y-193793328D01*
X220029453Y-193793328D02*
X219886596Y-193793328D01*
X219886596Y-193793328D02*
X219743739Y-193721900D01*
X219743739Y-193721900D02*
X219672310Y-193650471D01*
X219672310Y-193650471D02*
X219600881Y-193507614D01*
X219600881Y-193507614D02*
X219529453Y-193221900D01*
X219529453Y-193221900D02*
X219529453Y-192864757D01*
X219529453Y-192864757D02*
X219600881Y-192579042D01*
X219600881Y-192579042D02*
X219672310Y-192436185D01*
X219672310Y-192436185D02*
X219743739Y-192364757D01*
X219743739Y-192364757D02*
X219886596Y-192293328D01*
X221100881Y-193793328D02*
X221386595Y-193793328D01*
X221386595Y-193793328D02*
X221529452Y-193721900D01*
X221529452Y-193721900D02*
X221600881Y-193650471D01*
X221600881Y-193650471D02*
X221743738Y-193436185D01*
X221743738Y-193436185D02*
X221815167Y-193150471D01*
X221815167Y-193150471D02*
X221815167Y-192579042D01*
X221815167Y-192579042D02*
X221743738Y-192436185D01*
X221743738Y-192436185D02*
X221672310Y-192364757D01*
X221672310Y-192364757D02*
X221529452Y-192293328D01*
X221529452Y-192293328D02*
X221243738Y-192293328D01*
X221243738Y-192293328D02*
X221100881Y-192364757D01*
X221100881Y-192364757D02*
X221029452Y-192436185D01*
X221029452Y-192436185D02*
X220958024Y-192579042D01*
X220958024Y-192579042D02*
X220958024Y-192936185D01*
X220958024Y-192936185D02*
X221029452Y-193079042D01*
X221029452Y-193079042D02*
X221100881Y-193150471D01*
X221100881Y-193150471D02*
X221243738Y-193221900D01*
X221243738Y-193221900D02*
X221529452Y-193221900D01*
X221529452Y-193221900D02*
X221672310Y-193150471D01*
X221672310Y-193150471D02*
X221743738Y-193079042D01*
X221743738Y-193079042D02*
X221815167Y-192936185D01*
D10*
D11*
X177002200Y-194507200D02*
X285002200Y-194507200D01*
D10*
D11*
X178458026Y-196593328D02*
X178458026Y-195093328D01*
X179315169Y-196593328D02*
X178672312Y-195736185D01*
X179315169Y-195093328D02*
X178458026Y-195950471D01*
X179958026Y-196593328D02*
X179958026Y-195593328D01*
X179958026Y-195093328D02*
X179886598Y-195164757D01*
X179886598Y-195164757D02*
X179958026Y-195236185D01*
X179958026Y-195236185D02*
X180029455Y-195164757D01*
X180029455Y-195164757D02*
X179958026Y-195093328D01*
X179958026Y-195093328D02*
X179958026Y-195236185D01*
X181529455Y-196450471D02*
X181458027Y-196521900D01*
X181458027Y-196521900D02*
X181243741Y-196593328D01*
X181243741Y-196593328D02*
X181100884Y-196593328D01*
X181100884Y-196593328D02*
X180886598Y-196521900D01*
X180886598Y-196521900D02*
X180743741Y-196379042D01*
X180743741Y-196379042D02*
X180672312Y-196236185D01*
X180672312Y-196236185D02*
X180600884Y-195950471D01*
X180600884Y-195950471D02*
X180600884Y-195736185D01*
X180600884Y-195736185D02*
X180672312Y-195450471D01*
X180672312Y-195450471D02*
X180743741Y-195307614D01*
X180743741Y-195307614D02*
X180886598Y-195164757D01*
X180886598Y-195164757D02*
X181100884Y-195093328D01*
X181100884Y-195093328D02*
X181243741Y-195093328D01*
X181243741Y-195093328D02*
X181458027Y-195164757D01*
X181458027Y-195164757D02*
X181529455Y-195236185D01*
X182815170Y-196593328D02*
X182815170Y-195807614D01*
X182815170Y-195807614D02*
X182743741Y-195664757D01*
X182743741Y-195664757D02*
X182600884Y-195593328D01*
X182600884Y-195593328D02*
X182315170Y-195593328D01*
X182315170Y-195593328D02*
X182172312Y-195664757D01*
X182815170Y-196521900D02*
X182672312Y-196593328D01*
X182672312Y-196593328D02*
X182315170Y-196593328D01*
X182315170Y-196593328D02*
X182172312Y-196521900D01*
X182172312Y-196521900D02*
X182100884Y-196379042D01*
X182100884Y-196379042D02*
X182100884Y-196236185D01*
X182100884Y-196236185D02*
X182172312Y-196093328D01*
X182172312Y-196093328D02*
X182315170Y-196021900D01*
X182315170Y-196021900D02*
X182672312Y-196021900D01*
X182672312Y-196021900D02*
X182815170Y-195950471D01*
X184172313Y-196593328D02*
X184172313Y-195093328D01*
X184172313Y-196521900D02*
X184029455Y-196593328D01*
X184029455Y-196593328D02*
X183743741Y-196593328D01*
X183743741Y-196593328D02*
X183600884Y-196521900D01*
X183600884Y-196521900D02*
X183529455Y-196450471D01*
X183529455Y-196450471D02*
X183458027Y-196307614D01*
X183458027Y-196307614D02*
X183458027Y-195879042D01*
X183458027Y-195879042D02*
X183529455Y-195736185D01*
X183529455Y-195736185D02*
X183600884Y-195664757D01*
X183600884Y-195664757D02*
X183743741Y-195593328D01*
X183743741Y-195593328D02*
X184029455Y-195593328D01*
X184029455Y-195593328D02*
X184172313Y-195664757D01*
X186029455Y-195807614D02*
X186529455Y-195807614D01*
X186743741Y-196593328D02*
X186029455Y-196593328D01*
X186029455Y-196593328D02*
X186029455Y-195093328D01*
X186029455Y-195093328D02*
X186743741Y-195093328D01*
X187386598Y-196450471D02*
X187458027Y-196521900D01*
X187458027Y-196521900D02*
X187386598Y-196593328D01*
X187386598Y-196593328D02*
X187315170Y-196521900D01*
X187315170Y-196521900D02*
X187386598Y-196450471D01*
X187386598Y-196450471D02*
X187386598Y-196593328D01*
X188100884Y-196593328D02*
X188100884Y-195093328D01*
X188100884Y-195093328D02*
X188458027Y-195093328D01*
X188458027Y-195093328D02*
X188672313Y-195164757D01*
X188672313Y-195164757D02*
X188815170Y-195307614D01*
X188815170Y-195307614D02*
X188886599Y-195450471D01*
X188886599Y-195450471D02*
X188958027Y-195736185D01*
X188958027Y-195736185D02*
X188958027Y-195950471D01*
X188958027Y-195950471D02*
X188886599Y-196236185D01*
X188886599Y-196236185D02*
X188815170Y-196379042D01*
X188815170Y-196379042D02*
X188672313Y-196521900D01*
X188672313Y-196521900D02*
X188458027Y-196593328D01*
X188458027Y-196593328D02*
X188100884Y-196593328D01*
X189600884Y-196450471D02*
X189672313Y-196521900D01*
X189672313Y-196521900D02*
X189600884Y-196593328D01*
X189600884Y-196593328D02*
X189529456Y-196521900D01*
X189529456Y-196521900D02*
X189600884Y-196450471D01*
X189600884Y-196450471D02*
X189600884Y-196593328D01*
X190243742Y-196164757D02*
X190958028Y-196164757D01*
X190100885Y-196593328D02*
X190600885Y-195093328D01*
X190600885Y-195093328D02*
X191100885Y-196593328D01*
X191600884Y-196450471D02*
X191672313Y-196521900D01*
X191672313Y-196521900D02*
X191600884Y-196593328D01*
X191600884Y-196593328D02*
X191529456Y-196521900D01*
X191529456Y-196521900D02*
X191600884Y-196450471D01*
X191600884Y-196450471D02*
X191600884Y-196593328D01*
X193529456Y-196593328D02*
X193815170Y-196593328D01*
X193815170Y-196593328D02*
X193958027Y-196521900D01*
X193958027Y-196521900D02*
X194029456Y-196450471D01*
X194029456Y-196450471D02*
X194172313Y-196236185D01*
X194172313Y-196236185D02*
X194243742Y-195950471D01*
X194243742Y-195950471D02*
X194243742Y-195379042D01*
X194243742Y-195379042D02*
X194172313Y-195236185D01*
X194172313Y-195236185D02*
X194100885Y-195164757D01*
X194100885Y-195164757D02*
X193958027Y-195093328D01*
X193958027Y-195093328D02*
X193672313Y-195093328D01*
X193672313Y-195093328D02*
X193529456Y-195164757D01*
X193529456Y-195164757D02*
X193458027Y-195236185D01*
X193458027Y-195236185D02*
X193386599Y-195379042D01*
X193386599Y-195379042D02*
X193386599Y-195736185D01*
X193386599Y-195736185D02*
X193458027Y-195879042D01*
X193458027Y-195879042D02*
X193529456Y-195950471D01*
X193529456Y-195950471D02*
X193672313Y-196021900D01*
X193672313Y-196021900D02*
X193958027Y-196021900D01*
X193958027Y-196021900D02*
X194100885Y-195950471D01*
X194100885Y-195950471D02*
X194172313Y-195879042D01*
X194172313Y-195879042D02*
X194243742Y-195736185D01*
X194886598Y-196450471D02*
X194958027Y-196521900D01*
X194958027Y-196521900D02*
X194886598Y-196593328D01*
X194886598Y-196593328D02*
X194815170Y-196521900D01*
X194815170Y-196521900D02*
X194886598Y-196450471D01*
X194886598Y-196450471D02*
X194886598Y-196593328D01*
X195886599Y-195093328D02*
X196029456Y-195093328D01*
X196029456Y-195093328D02*
X196172313Y-195164757D01*
X196172313Y-195164757D02*
X196243742Y-195236185D01*
X196243742Y-195236185D02*
X196315170Y-195379042D01*
X196315170Y-195379042D02*
X196386599Y-195664757D01*
X196386599Y-195664757D02*
X196386599Y-196021900D01*
X196386599Y-196021900D02*
X196315170Y-196307614D01*
X196315170Y-196307614D02*
X196243742Y-196450471D01*
X196243742Y-196450471D02*
X196172313Y-196521900D01*
X196172313Y-196521900D02*
X196029456Y-196593328D01*
X196029456Y-196593328D02*
X195886599Y-196593328D01*
X195886599Y-196593328D02*
X195743742Y-196521900D01*
X195743742Y-196521900D02*
X195672313Y-196450471D01*
X195672313Y-196450471D02*
X195600884Y-196307614D01*
X195600884Y-196307614D02*
X195529456Y-196021900D01*
X195529456Y-196021900D02*
X195529456Y-195664757D01*
X195529456Y-195664757D02*
X195600884Y-195379042D01*
X195600884Y-195379042D02*
X195672313Y-195236185D01*
X195672313Y-195236185D02*
X195743742Y-195164757D01*
X195743742Y-195164757D02*
X195886599Y-195093328D01*
X197029455Y-196450471D02*
X197100884Y-196521900D01*
X197100884Y-196521900D02*
X197029455Y-196593328D01*
X197029455Y-196593328D02*
X196958027Y-196521900D01*
X196958027Y-196521900D02*
X197029455Y-196450471D01*
X197029455Y-196450471D02*
X197029455Y-196593328D01*
X197600884Y-195093328D02*
X198600884Y-195093328D01*
X198600884Y-195093328D02*
X197958027Y-196593328D01*
D10*
D11*
X177002200Y-191507200D02*
X285002200Y-191507200D01*
D10*
D12*
X264413853Y-193785528D02*
X263913853Y-193071242D01*
X263556710Y-193785528D02*
X263556710Y-192285528D01*
X263556710Y-192285528D02*
X264128139Y-192285528D01*
X264128139Y-192285528D02*
X264270996Y-192356957D01*
X264270996Y-192356957D02*
X264342425Y-192428385D01*
X264342425Y-192428385D02*
X264413853Y-192571242D01*
X264413853Y-192571242D02*
X264413853Y-192785528D01*
X264413853Y-192785528D02*
X264342425Y-192928385D01*
X264342425Y-192928385D02*
X264270996Y-192999814D01*
X264270996Y-192999814D02*
X264128139Y-193071242D01*
X264128139Y-193071242D02*
X263556710Y-193071242D01*
X265628139Y-193714100D02*
X265485282Y-193785528D01*
X265485282Y-193785528D02*
X265199568Y-193785528D01*
X265199568Y-193785528D02*
X265056710Y-193714100D01*
X265056710Y-193714100D02*
X264985282Y-193571242D01*
X264985282Y-193571242D02*
X264985282Y-192999814D01*
X264985282Y-192999814D02*
X265056710Y-192856957D01*
X265056710Y-192856957D02*
X265199568Y-192785528D01*
X265199568Y-192785528D02*
X265485282Y-192785528D01*
X265485282Y-192785528D02*
X265628139Y-192856957D01*
X265628139Y-192856957D02*
X265699568Y-192999814D01*
X265699568Y-192999814D02*
X265699568Y-193142671D01*
X265699568Y-193142671D02*
X264985282Y-193285528D01*
X266199567Y-192785528D02*
X266556710Y-193785528D01*
X266556710Y-193785528D02*
X266913853Y-192785528D01*
X267485281Y-193642671D02*
X267556710Y-193714100D01*
X267556710Y-193714100D02*
X267485281Y-193785528D01*
X267485281Y-193785528D02*
X267413853Y-193714100D01*
X267413853Y-193714100D02*
X267485281Y-193642671D01*
X267485281Y-193642671D02*
X267485281Y-193785528D01*
X267485281Y-192856957D02*
X267556710Y-192928385D01*
X267556710Y-192928385D02*
X267485281Y-192999814D01*
X267485281Y-192999814D02*
X267413853Y-192928385D01*
X267413853Y-192928385D02*
X267485281Y-192856957D01*
X267485281Y-192856957D02*
X267485281Y-192999814D01*
X269199567Y-192285528D02*
X269556710Y-193785528D01*
X269556710Y-193785528D02*
X269842424Y-192714100D01*
X269842424Y-192714100D02*
X270128139Y-193785528D01*
X270128139Y-193785528D02*
X270485282Y-192285528D01*
X270985282Y-193356957D02*
X271699568Y-193356957D01*
X270842425Y-193785528D02*
X271342425Y-192285528D01*
X271342425Y-192285528D02*
X271842425Y-193785528D01*
X273128139Y-193785528D02*
X272270996Y-193785528D01*
X272699567Y-193785528D02*
X272699567Y-192285528D01*
X272699567Y-192285528D02*
X272556710Y-192499814D01*
X272556710Y-192499814D02*
X272413853Y-192642671D01*
X272413853Y-192642671D02*
X272270996Y-192714100D01*
X274628138Y-193642671D02*
X274556710Y-193714100D01*
X274556710Y-193714100D02*
X274342424Y-193785528D01*
X274342424Y-193785528D02*
X274199567Y-193785528D01*
X274199567Y-193785528D02*
X273985281Y-193714100D01*
X273985281Y-193714100D02*
X273842424Y-193571242D01*
X273842424Y-193571242D02*
X273770995Y-193428385D01*
X273770995Y-193428385D02*
X273699567Y-193142671D01*
X273699567Y-193142671D02*
X273699567Y-192928385D01*
X273699567Y-192928385D02*
X273770995Y-192642671D01*
X273770995Y-192642671D02*
X273842424Y-192499814D01*
X273842424Y-192499814D02*
X273985281Y-192356957D01*
X273985281Y-192356957D02*
X274199567Y-192285528D01*
X274199567Y-192285528D02*
X274342424Y-192285528D01*
X274342424Y-192285528D02*
X274556710Y-192356957D01*
X274556710Y-192356957D02*
X274628138Y-192428385D01*
X275556710Y-193071242D02*
X275556710Y-193785528D01*
X275056710Y-192285528D02*
X275556710Y-193071242D01*
X275556710Y-193071242D02*
X276056710Y-192285528D01*
X277056709Y-192999814D02*
X277270995Y-193071242D01*
X277270995Y-193071242D02*
X277342424Y-193142671D01*
X277342424Y-193142671D02*
X277413852Y-193285528D01*
X277413852Y-193285528D02*
X277413852Y-193499814D01*
X277413852Y-193499814D02*
X277342424Y-193642671D01*
X277342424Y-193642671D02*
X277270995Y-193714100D01*
X277270995Y-193714100D02*
X277128138Y-193785528D01*
X277128138Y-193785528D02*
X276556709Y-193785528D01*
X276556709Y-193785528D02*
X276556709Y-192285528D01*
X276556709Y-192285528D02*
X277056709Y-192285528D01*
X277056709Y-192285528D02*
X277199567Y-192356957D01*
X277199567Y-192356957D02*
X277270995Y-192428385D01*
X277270995Y-192428385D02*
X277342424Y-192571242D01*
X277342424Y-192571242D02*
X277342424Y-192714100D01*
X277342424Y-192714100D02*
X277270995Y-192856957D01*
X277270995Y-192856957D02*
X277199567Y-192928385D01*
X277199567Y-192928385D02*
X277056709Y-192999814D01*
X277056709Y-192999814D02*
X276556709Y-192999814D01*
X278056709Y-193214100D02*
X279199567Y-193214100D01*
X279913852Y-193785528D02*
X279913852Y-192785528D01*
X279913852Y-193071242D02*
X279985281Y-192928385D01*
X279985281Y-192928385D02*
X280056710Y-192856957D01*
X280056710Y-192856957D02*
X280199567Y-192785528D01*
X280199567Y-192785528D02*
X280342424Y-192785528D01*
X281413852Y-193714100D02*
X281270995Y-193785528D01*
X281270995Y-193785528D02*
X280985281Y-193785528D01*
X280985281Y-193785528D02*
X280842423Y-193714100D01*
X280842423Y-193714100D02*
X280770995Y-193571242D01*
X280770995Y-193571242D02*
X280770995Y-192999814D01*
X280770995Y-192999814D02*
X280842423Y-192856957D01*
X280842423Y-192856957D02*
X280985281Y-192785528D01*
X280985281Y-192785528D02*
X281270995Y-192785528D01*
X281270995Y-192785528D02*
X281413852Y-192856957D01*
X281413852Y-192856957D02*
X281485281Y-192999814D01*
X281485281Y-192999814D02*
X281485281Y-193142671D01*
X281485281Y-193142671D02*
X280770995Y-193285528D01*
X281985280Y-192785528D02*
X282342423Y-193785528D01*
X282342423Y-193785528D02*
X282699566Y-192785528D01*
X283770994Y-192999814D02*
X283985280Y-193071242D01*
X283985280Y-193071242D02*
X284056709Y-193142671D01*
X284056709Y-193142671D02*
X284128137Y-193285528D01*
X284128137Y-193285528D02*
X284128137Y-193499814D01*
X284128137Y-193499814D02*
X284056709Y-193642671D01*
X284056709Y-193642671D02*
X283985280Y-193714100D01*
X283985280Y-193714100D02*
X283842423Y-193785528D01*
X283842423Y-193785528D02*
X283270994Y-193785528D01*
X283270994Y-193785528D02*
X283270994Y-192285528D01*
X283270994Y-192285528D02*
X283770994Y-192285528D01*
X283770994Y-192285528D02*
X283913852Y-192356957D01*
X283913852Y-192356957D02*
X283985280Y-192428385D01*
X283985280Y-192428385D02*
X284056709Y-192571242D01*
X284056709Y-192571242D02*
X284056709Y-192714100D01*
X284056709Y-192714100D02*
X283985280Y-192856957D01*
X283985280Y-192856957D02*
X283913852Y-192928385D01*
X283913852Y-192928385D02*
X283770994Y-192999814D01*
X283770994Y-192999814D02*
X283270994Y-192999814D01*
D10*
D11*
X178386598Y-193721900D02*
X178600884Y-193793328D01*
X178600884Y-193793328D02*
X178958026Y-193793328D01*
X178958026Y-193793328D02*
X179100884Y-193721900D01*
X179100884Y-193721900D02*
X179172312Y-193650471D01*
X179172312Y-193650471D02*
X179243741Y-193507614D01*
X179243741Y-193507614D02*
X179243741Y-193364757D01*
X179243741Y-193364757D02*
X179172312Y-193221900D01*
X179172312Y-193221900D02*
X179100884Y-193150471D01*
X179100884Y-193150471D02*
X178958026Y-193079042D01*
X178958026Y-193079042D02*
X178672312Y-193007614D01*
X178672312Y-193007614D02*
X178529455Y-192936185D01*
X178529455Y-192936185D02*
X178458026Y-192864757D01*
X178458026Y-192864757D02*
X178386598Y-192721900D01*
X178386598Y-192721900D02*
X178386598Y-192579042D01*
X178386598Y-192579042D02*
X178458026Y-192436185D01*
X178458026Y-192436185D02*
X178529455Y-192364757D01*
X178529455Y-192364757D02*
X178672312Y-192293328D01*
X178672312Y-192293328D02*
X179029455Y-192293328D01*
X179029455Y-192293328D02*
X179243741Y-192364757D01*
X179886597Y-193793328D02*
X179886597Y-192793328D01*
X179886597Y-192293328D02*
X179815169Y-192364757D01*
X179815169Y-192364757D02*
X179886597Y-192436185D01*
X179886597Y-192436185D02*
X179958026Y-192364757D01*
X179958026Y-192364757D02*
X179886597Y-192293328D01*
X179886597Y-192293328D02*
X179886597Y-192436185D01*
X180458026Y-192793328D02*
X181243741Y-192793328D01*
X181243741Y-192793328D02*
X180458026Y-193793328D01*
X180458026Y-193793328D02*
X181243741Y-193793328D01*
X182386598Y-193721900D02*
X182243741Y-193793328D01*
X182243741Y-193793328D02*
X181958027Y-193793328D01*
X181958027Y-193793328D02*
X181815169Y-193721900D01*
X181815169Y-193721900D02*
X181743741Y-193579042D01*
X181743741Y-193579042D02*
X181743741Y-193007614D01*
X181743741Y-193007614D02*
X181815169Y-192864757D01*
X181815169Y-192864757D02*
X181958027Y-192793328D01*
X181958027Y-192793328D02*
X182243741Y-192793328D01*
X182243741Y-192793328D02*
X182386598Y-192864757D01*
X182386598Y-192864757D02*
X182458027Y-193007614D01*
X182458027Y-193007614D02*
X182458027Y-193150471D01*
X182458027Y-193150471D02*
X181743741Y-193293328D01*
X183100883Y-193650471D02*
X183172312Y-193721900D01*
X183172312Y-193721900D02*
X183100883Y-193793328D01*
X183100883Y-193793328D02*
X183029455Y-193721900D01*
X183029455Y-193721900D02*
X183100883Y-193650471D01*
X183100883Y-193650471D02*
X183100883Y-193793328D01*
X183100883Y-192864757D02*
X183172312Y-192936185D01*
X183172312Y-192936185D02*
X183100883Y-193007614D01*
X183100883Y-193007614D02*
X183029455Y-192936185D01*
X183029455Y-192936185D02*
X183100883Y-192864757D01*
X183100883Y-192864757D02*
X183100883Y-193007614D01*
X184886598Y-193364757D02*
X185600884Y-193364757D01*
X184743741Y-193793328D02*
X185243741Y-192293328D01*
X185243741Y-192293328D02*
X185743741Y-193793328D01*
X186886598Y-192793328D02*
X186886598Y-193793328D01*
X186529455Y-192221900D02*
X186172312Y-193293328D01*
X186172312Y-193293328D02*
X187100883Y-193293328D01*
D10*
D11*
X263458026Y-196593328D02*
X263458026Y-195093328D01*
X264815170Y-196593328D02*
X264815170Y-195093328D01*
X264815170Y-196521900D02*
X264672312Y-196593328D01*
X264672312Y-196593328D02*
X264386598Y-196593328D01*
X264386598Y-196593328D02*
X264243741Y-196521900D01*
X264243741Y-196521900D02*
X264172312Y-196450471D01*
X264172312Y-196450471D02*
X264100884Y-196307614D01*
X264100884Y-196307614D02*
X264100884Y-195879042D01*
X264100884Y-195879042D02*
X264172312Y-195736185D01*
X264172312Y-195736185D02*
X264243741Y-195664757D01*
X264243741Y-195664757D02*
X264386598Y-195593328D01*
X264386598Y-195593328D02*
X264672312Y-195593328D01*
X264672312Y-195593328D02*
X264815170Y-195664757D01*
X265529455Y-196450471D02*
X265600884Y-196521900D01*
X265600884Y-196521900D02*
X265529455Y-196593328D01*
X265529455Y-196593328D02*
X265458027Y-196521900D01*
X265458027Y-196521900D02*
X265529455Y-196450471D01*
X265529455Y-196450471D02*
X265529455Y-196593328D01*
X265529455Y-195664757D02*
X265600884Y-195736185D01*
X265600884Y-195736185D02*
X265529455Y-195807614D01*
X265529455Y-195807614D02*
X265458027Y-195736185D01*
X265458027Y-195736185D02*
X265529455Y-195664757D01*
X265529455Y-195664757D02*
X265529455Y-195807614D01*
X268172313Y-196593328D02*
X267315170Y-196593328D01*
X267743741Y-196593328D02*
X267743741Y-195093328D01*
X267743741Y-195093328D02*
X267600884Y-195307614D01*
X267600884Y-195307614D02*
X267458027Y-195450471D01*
X267458027Y-195450471D02*
X267315170Y-195521900D01*
X269029455Y-195736185D02*
X268886598Y-195664757D01*
X268886598Y-195664757D02*
X268815169Y-195593328D01*
X268815169Y-195593328D02*
X268743741Y-195450471D01*
X268743741Y-195450471D02*
X268743741Y-195379042D01*
X268743741Y-195379042D02*
X268815169Y-195236185D01*
X268815169Y-195236185D02*
X268886598Y-195164757D01*
X268886598Y-195164757D02*
X269029455Y-195093328D01*
X269029455Y-195093328D02*
X269315169Y-195093328D01*
X269315169Y-195093328D02*
X269458027Y-195164757D01*
X269458027Y-195164757D02*
X269529455Y-195236185D01*
X269529455Y-195236185D02*
X269600884Y-195379042D01*
X269600884Y-195379042D02*
X269600884Y-195450471D01*
X269600884Y-195450471D02*
X269529455Y-195593328D01*
X269529455Y-195593328D02*
X269458027Y-195664757D01*
X269458027Y-195664757D02*
X269315169Y-195736185D01*
X269315169Y-195736185D02*
X269029455Y-195736185D01*
X269029455Y-195736185D02*
X268886598Y-195807614D01*
X268886598Y-195807614D02*
X268815169Y-195879042D01*
X268815169Y-195879042D02*
X268743741Y-196021900D01*
X268743741Y-196021900D02*
X268743741Y-196307614D01*
X268743741Y-196307614D02*
X268815169Y-196450471D01*
X268815169Y-196450471D02*
X268886598Y-196521900D01*
X268886598Y-196521900D02*
X269029455Y-196593328D01*
X269029455Y-196593328D02*
X269315169Y-196593328D01*
X269315169Y-196593328D02*
X269458027Y-196521900D01*
X269458027Y-196521900D02*
X269529455Y-196450471D01*
X269529455Y-196450471D02*
X269600884Y-196307614D01*
X269600884Y-196307614D02*
X269600884Y-196021900D01*
X269600884Y-196021900D02*
X269529455Y-195879042D01*
X269529455Y-195879042D02*
X269458027Y-195807614D01*
X269458027Y-195807614D02*
X269315169Y-195736185D01*
X271315169Y-195021900D02*
X270029455Y-196950471D01*
X271672312Y-195093328D02*
X272600884Y-195093328D01*
X272600884Y-195093328D02*
X272100884Y-195664757D01*
X272100884Y-195664757D02*
X272315169Y-195664757D01*
X272315169Y-195664757D02*
X272458027Y-195736185D01*
X272458027Y-195736185D02*
X272529455Y-195807614D01*
X272529455Y-195807614D02*
X272600884Y-195950471D01*
X272600884Y-195950471D02*
X272600884Y-196307614D01*
X272600884Y-196307614D02*
X272529455Y-196450471D01*
X272529455Y-196450471D02*
X272458027Y-196521900D01*
X272458027Y-196521900D02*
X272315169Y-196593328D01*
X272315169Y-196593328D02*
X271886598Y-196593328D01*
X271886598Y-196593328D02*
X271743741Y-196521900D01*
X271743741Y-196521900D02*
X271672312Y-196450471D01*
X273529455Y-195093328D02*
X273672312Y-195093328D01*
X273672312Y-195093328D02*
X273815169Y-195164757D01*
X273815169Y-195164757D02*
X273886598Y-195236185D01*
X273886598Y-195236185D02*
X273958026Y-195379042D01*
X273958026Y-195379042D02*
X274029455Y-195664757D01*
X274029455Y-195664757D02*
X274029455Y-196021900D01*
X274029455Y-196021900D02*
X273958026Y-196307614D01*
X273958026Y-196307614D02*
X273886598Y-196450471D01*
X273886598Y-196450471D02*
X273815169Y-196521900D01*
X273815169Y-196521900D02*
X273672312Y-196593328D01*
X273672312Y-196593328D02*
X273529455Y-196593328D01*
X273529455Y-196593328D02*
X273386598Y-196521900D01*
X273386598Y-196521900D02*
X273315169Y-196450471D01*
X273315169Y-196450471D02*
X273243740Y-196307614D01*
X273243740Y-196307614D02*
X273172312Y-196021900D01*
X273172312Y-196021900D02*
X273172312Y-195664757D01*
X273172312Y-195664757D02*
X273243740Y-195379042D01*
X273243740Y-195379042D02*
X273315169Y-195236185D01*
X273315169Y-195236185D02*
X273386598Y-195164757D01*
X273386598Y-195164757D02*
X273529455Y-195093328D01*
D10*
D11*
X177002200Y-187507200D02*
X285002200Y-187507200D01*
D10*
D13*
X178693928Y-188211638D02*
X179836785Y-188211638D01*
X179015357Y-190211638D02*
X179265357Y-188211638D01*
X180253452Y-190211638D02*
X180420119Y-188878304D01*
X180503452Y-188211638D02*
X180396309Y-188306876D01*
X180396309Y-188306876D02*
X180479643Y-188402114D01*
X180479643Y-188402114D02*
X180586786Y-188306876D01*
X180586786Y-188306876D02*
X180503452Y-188211638D01*
X180503452Y-188211638D02*
X180479643Y-188402114D01*
X181086786Y-188878304D02*
X181848690Y-188878304D01*
X181455833Y-188211638D02*
X181241548Y-189925923D01*
X181241548Y-189925923D02*
X181312976Y-190116400D01*
X181312976Y-190116400D02*
X181491548Y-190211638D01*
X181491548Y-190211638D02*
X181682024Y-190211638D01*
X182634405Y-190211638D02*
X182455833Y-190116400D01*
X182455833Y-190116400D02*
X182384405Y-189925923D01*
X182384405Y-189925923D02*
X182598690Y-188211638D01*
X184170119Y-190116400D02*
X183967738Y-190211638D01*
X183967738Y-190211638D02*
X183586785Y-190211638D01*
X183586785Y-190211638D02*
X183408214Y-190116400D01*
X183408214Y-190116400D02*
X183336785Y-189925923D01*
X183336785Y-189925923D02*
X183432024Y-189164019D01*
X183432024Y-189164019D02*
X183551071Y-188973542D01*
X183551071Y-188973542D02*
X183753452Y-188878304D01*
X183753452Y-188878304D02*
X184134404Y-188878304D01*
X184134404Y-188878304D02*
X184312976Y-188973542D01*
X184312976Y-188973542D02*
X184384404Y-189164019D01*
X184384404Y-189164019D02*
X184360595Y-189354495D01*
X184360595Y-189354495D02*
X183384404Y-189544971D01*
X185134405Y-190021161D02*
X185217738Y-190116400D01*
X185217738Y-190116400D02*
X185110595Y-190211638D01*
X185110595Y-190211638D02*
X185027262Y-190116400D01*
X185027262Y-190116400D02*
X185134405Y-190021161D01*
X185134405Y-190021161D02*
X185110595Y-190211638D01*
X185265357Y-188973542D02*
X185348690Y-189068780D01*
X185348690Y-189068780D02*
X185241548Y-189164019D01*
X185241548Y-189164019D02*
X185158214Y-189068780D01*
X185158214Y-189068780D02*
X185265357Y-188973542D01*
X185265357Y-188973542D02*
X185241548Y-189164019D01*
X187562977Y-189640209D02*
X188515358Y-189640209D01*
X187301072Y-190211638D02*
X188217739Y-188211638D01*
X188217739Y-188211638D02*
X188634405Y-190211638D01*
X189301072Y-190211638D02*
X189551072Y-188211638D01*
X189551072Y-188211638D02*
X190039167Y-189640209D01*
X190039167Y-189640209D02*
X190884406Y-188211638D01*
X190884406Y-188211638D02*
X190634406Y-190211638D01*
X191503453Y-190116400D02*
X191777262Y-190211638D01*
X191777262Y-190211638D02*
X192253453Y-190211638D01*
X192253453Y-190211638D02*
X192455834Y-190116400D01*
X192455834Y-190116400D02*
X192562977Y-190021161D01*
X192562977Y-190021161D02*
X192682024Y-189830685D01*
X192682024Y-189830685D02*
X192705834Y-189640209D01*
X192705834Y-189640209D02*
X192634405Y-189449733D01*
X192634405Y-189449733D02*
X192551072Y-189354495D01*
X192551072Y-189354495D02*
X192372501Y-189259257D01*
X192372501Y-189259257D02*
X192003453Y-189164019D01*
X192003453Y-189164019D02*
X191824881Y-189068780D01*
X191824881Y-189068780D02*
X191741548Y-188973542D01*
X191741548Y-188973542D02*
X191670120Y-188783066D01*
X191670120Y-188783066D02*
X191693929Y-188592590D01*
X191693929Y-188592590D02*
X191812977Y-188402114D01*
X191812977Y-188402114D02*
X191920120Y-188306876D01*
X191920120Y-188306876D02*
X192122501Y-188211638D01*
X192122501Y-188211638D02*
X192598691Y-188211638D01*
X192598691Y-188211638D02*
X192872501Y-188306876D01*
X193467739Y-189640209D02*
X194420120Y-189640209D01*
X193205834Y-190211638D02*
X194122501Y-188211638D01*
X194122501Y-188211638D02*
X194539167Y-190211638D01*
X195170120Y-188211638D02*
X196312977Y-188211638D01*
X195491549Y-190211638D02*
X195741549Y-188211638D01*
X198229645Y-189640209D02*
X199182026Y-189640209D01*
X197967740Y-190211638D02*
X198884407Y-188211638D01*
X198884407Y-188211638D02*
X199301073Y-190211638D01*
X199884407Y-190116400D02*
X200158216Y-190211638D01*
X200158216Y-190211638D02*
X200634407Y-190211638D01*
X200634407Y-190211638D02*
X200836788Y-190116400D01*
X200836788Y-190116400D02*
X200943931Y-190021161D01*
X200943931Y-190021161D02*
X201062978Y-189830685D01*
X201062978Y-189830685D02*
X201086788Y-189640209D01*
X201086788Y-189640209D02*
X201015359Y-189449733D01*
X201015359Y-189449733D02*
X200932026Y-189354495D01*
X200932026Y-189354495D02*
X200753455Y-189259257D01*
X200753455Y-189259257D02*
X200384407Y-189164019D01*
X200384407Y-189164019D02*
X200205835Y-189068780D01*
X200205835Y-189068780D02*
X200122502Y-188973542D01*
X200122502Y-188973542D02*
X200051074Y-188783066D01*
X200051074Y-188783066D02*
X200074883Y-188592590D01*
X200074883Y-188592590D02*
X200193931Y-188402114D01*
X200193931Y-188402114D02*
X200301074Y-188306876D01*
X200301074Y-188306876D02*
X200503455Y-188211638D01*
X200503455Y-188211638D02*
X200979645Y-188211638D01*
X200979645Y-188211638D02*
X201253455Y-188306876D01*
X203039169Y-190021161D02*
X202932026Y-190116400D01*
X202932026Y-190116400D02*
X202634407Y-190211638D01*
X202634407Y-190211638D02*
X202443931Y-190211638D01*
X202443931Y-190211638D02*
X202170121Y-190116400D01*
X202170121Y-190116400D02*
X202003455Y-189925923D01*
X202003455Y-189925923D02*
X201932026Y-189735447D01*
X201932026Y-189735447D02*
X201884407Y-189354495D01*
X201884407Y-189354495D02*
X201920121Y-189068780D01*
X201920121Y-189068780D02*
X202062978Y-188687828D01*
X202062978Y-188687828D02*
X202182026Y-188497352D01*
X202182026Y-188497352D02*
X202396312Y-188306876D01*
X202396312Y-188306876D02*
X202693931Y-188211638D01*
X202693931Y-188211638D02*
X202884407Y-188211638D01*
X202884407Y-188211638D02*
X203158217Y-188306876D01*
X203158217Y-188306876D02*
X203241550Y-188402114D01*
X204003455Y-189164019D02*
X204670121Y-189164019D01*
X204824883Y-190211638D02*
X203872502Y-190211638D01*
X203872502Y-190211638D02*
X204122502Y-188211638D01*
X204122502Y-188211638D02*
X205074883Y-188211638D01*
X205682026Y-190211638D02*
X205932026Y-188211638D01*
X205932026Y-188211638D02*
X206824883Y-190211638D01*
X206824883Y-190211638D02*
X207074883Y-188211638D01*
X207741550Y-188211638D02*
X208884407Y-188211638D01*
X208062979Y-190211638D02*
X208312979Y-188211638D01*
X210741551Y-190116400D02*
X211015360Y-190211638D01*
X211015360Y-190211638D02*
X211491551Y-190211638D01*
X211491551Y-190211638D02*
X211693932Y-190116400D01*
X211693932Y-190116400D02*
X211801075Y-190021161D01*
X211801075Y-190021161D02*
X211920122Y-189830685D01*
X211920122Y-189830685D02*
X211943932Y-189640209D01*
X211943932Y-189640209D02*
X211872503Y-189449733D01*
X211872503Y-189449733D02*
X211789170Y-189354495D01*
X211789170Y-189354495D02*
X211610599Y-189259257D01*
X211610599Y-189259257D02*
X211241551Y-189164019D01*
X211241551Y-189164019D02*
X211062979Y-189068780D01*
X211062979Y-189068780D02*
X210979646Y-188973542D01*
X210979646Y-188973542D02*
X210908218Y-188783066D01*
X210908218Y-188783066D02*
X210932027Y-188592590D01*
X210932027Y-188592590D02*
X211051075Y-188402114D01*
X211051075Y-188402114D02*
X211158218Y-188306876D01*
X211158218Y-188306876D02*
X211360599Y-188211638D01*
X211360599Y-188211638D02*
X211836789Y-188211638D01*
X211836789Y-188211638D02*
X212110599Y-188306876D01*
X212729646Y-190211638D02*
X212979646Y-188211638D01*
X212979646Y-188211638D02*
X213455837Y-188211638D01*
X213455837Y-188211638D02*
X213729646Y-188306876D01*
X213729646Y-188306876D02*
X213896313Y-188497352D01*
X213896313Y-188497352D02*
X213967741Y-188687828D01*
X213967741Y-188687828D02*
X214015361Y-189068780D01*
X214015361Y-189068780D02*
X213979646Y-189354495D01*
X213979646Y-189354495D02*
X213836789Y-189735447D01*
X213836789Y-189735447D02*
X213717741Y-189925923D01*
X213717741Y-189925923D02*
X213503456Y-190116400D01*
X213503456Y-190116400D02*
X213205837Y-190211638D01*
X213205837Y-190211638D02*
X212729646Y-190211638D01*
X215872503Y-190211638D02*
X215324884Y-189259257D01*
X214729646Y-190211638D02*
X214979646Y-188211638D01*
X214979646Y-188211638D02*
X215741551Y-188211638D01*
X215741551Y-188211638D02*
X215920122Y-188306876D01*
X215920122Y-188306876D02*
X216003456Y-188402114D01*
X216003456Y-188402114D02*
X216074884Y-188592590D01*
X216074884Y-188592590D02*
X216039170Y-188878304D01*
X216039170Y-188878304D02*
X215920122Y-189068780D01*
X215920122Y-189068780D02*
X215812980Y-189164019D01*
X215812980Y-189164019D02*
X215610599Y-189259257D01*
X215610599Y-189259257D02*
X214848694Y-189259257D01*
D10*
D11*
X178958026Y-185607614D02*
X178458026Y-185607614D01*
X178458026Y-186393328D02*
X178458026Y-184893328D01*
X178458026Y-184893328D02*
X179172312Y-184893328D01*
X179743740Y-186393328D02*
X179743740Y-185393328D01*
X179743740Y-184893328D02*
X179672312Y-184964757D01*
X179672312Y-184964757D02*
X179743740Y-185036185D01*
X179743740Y-185036185D02*
X179815169Y-184964757D01*
X179815169Y-184964757D02*
X179743740Y-184893328D01*
X179743740Y-184893328D02*
X179743740Y-185036185D01*
X180672312Y-186393328D02*
X180529455Y-186321900D01*
X180529455Y-186321900D02*
X180458026Y-186179042D01*
X180458026Y-186179042D02*
X180458026Y-184893328D01*
X181815169Y-186321900D02*
X181672312Y-186393328D01*
X181672312Y-186393328D02*
X181386598Y-186393328D01*
X181386598Y-186393328D02*
X181243740Y-186321900D01*
X181243740Y-186321900D02*
X181172312Y-186179042D01*
X181172312Y-186179042D02*
X181172312Y-185607614D01*
X181172312Y-185607614D02*
X181243740Y-185464757D01*
X181243740Y-185464757D02*
X181386598Y-185393328D01*
X181386598Y-185393328D02*
X181672312Y-185393328D01*
X181672312Y-185393328D02*
X181815169Y-185464757D01*
X181815169Y-185464757D02*
X181886598Y-185607614D01*
X181886598Y-185607614D02*
X181886598Y-185750471D01*
X181886598Y-185750471D02*
X181172312Y-185893328D01*
X182529454Y-186250471D02*
X182600883Y-186321900D01*
X182600883Y-186321900D02*
X182529454Y-186393328D01*
X182529454Y-186393328D02*
X182458026Y-186321900D01*
X182458026Y-186321900D02*
X182529454Y-186250471D01*
X182529454Y-186250471D02*
X182529454Y-186393328D01*
X182529454Y-185464757D02*
X182600883Y-185536185D01*
X182600883Y-185536185D02*
X182529454Y-185607614D01*
X182529454Y-185607614D02*
X182458026Y-185536185D01*
X182458026Y-185536185D02*
X182529454Y-185464757D01*
X182529454Y-185464757D02*
X182529454Y-185607614D01*
X184315169Y-185964757D02*
X185029455Y-185964757D01*
X184172312Y-186393328D02*
X184672312Y-184893328D01*
X184672312Y-184893328D02*
X185172312Y-186393328D01*
X185672311Y-186393328D02*
X185672311Y-184893328D01*
X185672311Y-184893328D02*
X186172311Y-185964757D01*
X186172311Y-185964757D02*
X186672311Y-184893328D01*
X186672311Y-184893328D02*
X186672311Y-186393328D01*
X187315169Y-186321900D02*
X187529455Y-186393328D01*
X187529455Y-186393328D02*
X187886597Y-186393328D01*
X187886597Y-186393328D02*
X188029455Y-186321900D01*
X188029455Y-186321900D02*
X188100883Y-186250471D01*
X188100883Y-186250471D02*
X188172312Y-186107614D01*
X188172312Y-186107614D02*
X188172312Y-185964757D01*
X188172312Y-185964757D02*
X188100883Y-185821900D01*
X188100883Y-185821900D02*
X188029455Y-185750471D01*
X188029455Y-185750471D02*
X187886597Y-185679042D01*
X187886597Y-185679042D02*
X187600883Y-185607614D01*
X187600883Y-185607614D02*
X187458026Y-185536185D01*
X187458026Y-185536185D02*
X187386597Y-185464757D01*
X187386597Y-185464757D02*
X187315169Y-185321900D01*
X187315169Y-185321900D02*
X187315169Y-185179042D01*
X187315169Y-185179042D02*
X187386597Y-185036185D01*
X187386597Y-185036185D02*
X187458026Y-184964757D01*
X187458026Y-184964757D02*
X187600883Y-184893328D01*
X187600883Y-184893328D02*
X187958026Y-184893328D01*
X187958026Y-184893328D02*
X188172312Y-184964757D01*
X188743740Y-185964757D02*
X189458026Y-185964757D01*
X188600883Y-186393328D02*
X189100883Y-184893328D01*
X189100883Y-184893328D02*
X189600883Y-186393328D01*
X189886597Y-184893328D02*
X190743740Y-184893328D01*
X190315168Y-186393328D02*
X190315168Y-184893328D01*
X190886597Y-186536185D02*
X192029454Y-186536185D01*
X192315168Y-186321900D02*
X192529454Y-186393328D01*
X192529454Y-186393328D02*
X192886596Y-186393328D01*
X192886596Y-186393328D02*
X193029454Y-186321900D01*
X193029454Y-186321900D02*
X193100882Y-186250471D01*
X193100882Y-186250471D02*
X193172311Y-186107614D01*
X193172311Y-186107614D02*
X193172311Y-185964757D01*
X193172311Y-185964757D02*
X193100882Y-185821900D01*
X193100882Y-185821900D02*
X193029454Y-185750471D01*
X193029454Y-185750471D02*
X192886596Y-185679042D01*
X192886596Y-185679042D02*
X192600882Y-185607614D01*
X192600882Y-185607614D02*
X192458025Y-185536185D01*
X192458025Y-185536185D02*
X192386596Y-185464757D01*
X192386596Y-185464757D02*
X192315168Y-185321900D01*
X192315168Y-185321900D02*
X192315168Y-185179042D01*
X192315168Y-185179042D02*
X192386596Y-185036185D01*
X192386596Y-185036185D02*
X192458025Y-184964757D01*
X192458025Y-184964757D02*
X192600882Y-184893328D01*
X192600882Y-184893328D02*
X192958025Y-184893328D01*
X192958025Y-184893328D02*
X193172311Y-184964757D01*
X193815167Y-186393328D02*
X193815167Y-184893328D01*
X193815167Y-184893328D02*
X194172310Y-184893328D01*
X194172310Y-184893328D02*
X194386596Y-184964757D01*
X194386596Y-184964757D02*
X194529453Y-185107614D01*
X194529453Y-185107614D02*
X194600882Y-185250471D01*
X194600882Y-185250471D02*
X194672310Y-185536185D01*
X194672310Y-185536185D02*
X194672310Y-185750471D01*
X194672310Y-185750471D02*
X194600882Y-186036185D01*
X194600882Y-186036185D02*
X194529453Y-186179042D01*
X194529453Y-186179042D02*
X194386596Y-186321900D01*
X194386596Y-186321900D02*
X194172310Y-186393328D01*
X194172310Y-186393328D02*
X193815167Y-186393328D01*
X196172310Y-186393328D02*
X195672310Y-185679042D01*
X195315167Y-186393328D02*
X195315167Y-184893328D01*
X195315167Y-184893328D02*
X195886596Y-184893328D01*
X195886596Y-184893328D02*
X196029453Y-184964757D01*
X196029453Y-184964757D02*
X196100882Y-185036185D01*
X196100882Y-185036185D02*
X196172310Y-185179042D01*
X196172310Y-185179042D02*
X196172310Y-185393328D01*
X196172310Y-185393328D02*
X196100882Y-185536185D01*
X196100882Y-185536185D02*
X196029453Y-185607614D01*
X196029453Y-185607614D02*
X195886596Y-185679042D01*
X195886596Y-185679042D02*
X195315167Y-185679042D01*
X196815167Y-186250471D02*
X196886596Y-186321900D01*
X196886596Y-186321900D02*
X196815167Y-186393328D01*
X196815167Y-186393328D02*
X196743739Y-186321900D01*
X196743739Y-186321900D02*
X196815167Y-186250471D01*
X196815167Y-186250471D02*
X196815167Y-186393328D01*
X197529453Y-186393328D02*
X197529453Y-184893328D01*
X197672311Y-185821900D02*
X198100882Y-186393328D01*
X198100882Y-185393328D02*
X197529453Y-185964757D01*
X198743739Y-186393328D02*
X198743739Y-185393328D01*
X198743739Y-184893328D02*
X198672311Y-184964757D01*
X198672311Y-184964757D02*
X198743739Y-185036185D01*
X198743739Y-185036185D02*
X198815168Y-184964757D01*
X198815168Y-184964757D02*
X198743739Y-184893328D01*
X198743739Y-184893328D02*
X198743739Y-185036185D01*
X200100883Y-186321900D02*
X199958025Y-186393328D01*
X199958025Y-186393328D02*
X199672311Y-186393328D01*
X199672311Y-186393328D02*
X199529454Y-186321900D01*
X199529454Y-186321900D02*
X199458025Y-186250471D01*
X199458025Y-186250471D02*
X199386597Y-186107614D01*
X199386597Y-186107614D02*
X199386597Y-185679042D01*
X199386597Y-185679042D02*
X199458025Y-185536185D01*
X199458025Y-185536185D02*
X199529454Y-185464757D01*
X199529454Y-185464757D02*
X199672311Y-185393328D01*
X199672311Y-185393328D02*
X199958025Y-185393328D01*
X199958025Y-185393328D02*
X200100883Y-185464757D01*
X201386597Y-186393328D02*
X201386597Y-185607614D01*
X201386597Y-185607614D02*
X201315168Y-185464757D01*
X201315168Y-185464757D02*
X201172311Y-185393328D01*
X201172311Y-185393328D02*
X200886597Y-185393328D01*
X200886597Y-185393328D02*
X200743739Y-185464757D01*
X201386597Y-186321900D02*
X201243739Y-186393328D01*
X201243739Y-186393328D02*
X200886597Y-186393328D01*
X200886597Y-186393328D02*
X200743739Y-186321900D01*
X200743739Y-186321900D02*
X200672311Y-186179042D01*
X200672311Y-186179042D02*
X200672311Y-186036185D01*
X200672311Y-186036185D02*
X200743739Y-185893328D01*
X200743739Y-185893328D02*
X200886597Y-185821900D01*
X200886597Y-185821900D02*
X201243739Y-185821900D01*
X201243739Y-185821900D02*
X201386597Y-185750471D01*
X202743740Y-186393328D02*
X202743740Y-184893328D01*
X202743740Y-186321900D02*
X202600882Y-186393328D01*
X202600882Y-186393328D02*
X202315168Y-186393328D01*
X202315168Y-186393328D02*
X202172311Y-186321900D01*
X202172311Y-186321900D02*
X202100882Y-186250471D01*
X202100882Y-186250471D02*
X202029454Y-186107614D01*
X202029454Y-186107614D02*
X202029454Y-185679042D01*
X202029454Y-185679042D02*
X202100882Y-185536185D01*
X202100882Y-185536185D02*
X202172311Y-185464757D01*
X202172311Y-185464757D02*
X202315168Y-185393328D01*
X202315168Y-185393328D02*
X202600882Y-185393328D01*
X202600882Y-185393328D02*
X202743740Y-185464757D01*
X203100883Y-186536185D02*
X204243740Y-186536185D01*
X204600882Y-185393328D02*
X204600882Y-186893328D01*
X204600882Y-185464757D02*
X204743740Y-185393328D01*
X204743740Y-185393328D02*
X205029454Y-185393328D01*
X205029454Y-185393328D02*
X205172311Y-185464757D01*
X205172311Y-185464757D02*
X205243740Y-185536185D01*
X205243740Y-185536185D02*
X205315168Y-185679042D01*
X205315168Y-185679042D02*
X205315168Y-186107614D01*
X205315168Y-186107614D02*
X205243740Y-186250471D01*
X205243740Y-186250471D02*
X205172311Y-186321900D01*
X205172311Y-186321900D02*
X205029454Y-186393328D01*
X205029454Y-186393328D02*
X204743740Y-186393328D01*
X204743740Y-186393328D02*
X204600882Y-186321900D01*
X206600883Y-186321900D02*
X206458025Y-186393328D01*
X206458025Y-186393328D02*
X206172311Y-186393328D01*
X206172311Y-186393328D02*
X206029454Y-186321900D01*
X206029454Y-186321900D02*
X205958025Y-186250471D01*
X205958025Y-186250471D02*
X205886597Y-186107614D01*
X205886597Y-186107614D02*
X205886597Y-185679042D01*
X205886597Y-185679042D02*
X205958025Y-185536185D01*
X205958025Y-185536185D02*
X206029454Y-185464757D01*
X206029454Y-185464757D02*
X206172311Y-185393328D01*
X206172311Y-185393328D02*
X206458025Y-185393328D01*
X206458025Y-185393328D02*
X206600883Y-185464757D01*
X207243739Y-186393328D02*
X207243739Y-184893328D01*
X207243739Y-185464757D02*
X207386597Y-185393328D01*
X207386597Y-185393328D02*
X207672311Y-185393328D01*
X207672311Y-185393328D02*
X207815168Y-185464757D01*
X207815168Y-185464757D02*
X207886597Y-185536185D01*
X207886597Y-185536185D02*
X207958025Y-185679042D01*
X207958025Y-185679042D02*
X207958025Y-186107614D01*
X207958025Y-186107614D02*
X207886597Y-186250471D01*
X207886597Y-186250471D02*
X207815168Y-186321900D01*
X207815168Y-186321900D02*
X207672311Y-186393328D01*
X207672311Y-186393328D02*
X207386597Y-186393328D01*
X207386597Y-186393328D02*
X207243739Y-186321900D01*
D10*
D11*
X177002200Y-181507200D02*
X285002200Y-181507200D01*
D10*
D11*
X178386598Y-183621900D02*
X178600884Y-183693328D01*
X178600884Y-183693328D02*
X178958026Y-183693328D01*
X178958026Y-183693328D02*
X179100884Y-183621900D01*
X179100884Y-183621900D02*
X179172312Y-183550471D01*
X179172312Y-183550471D02*
X179243741Y-183407614D01*
X179243741Y-183407614D02*
X179243741Y-183264757D01*
X179243741Y-183264757D02*
X179172312Y-183121900D01*
X179172312Y-183121900D02*
X179100884Y-183050471D01*
X179100884Y-183050471D02*
X178958026Y-182979042D01*
X178958026Y-182979042D02*
X178672312Y-182907614D01*
X178672312Y-182907614D02*
X178529455Y-182836185D01*
X178529455Y-182836185D02*
X178458026Y-182764757D01*
X178458026Y-182764757D02*
X178386598Y-182621900D01*
X178386598Y-182621900D02*
X178386598Y-182479042D01*
X178386598Y-182479042D02*
X178458026Y-182336185D01*
X178458026Y-182336185D02*
X178529455Y-182264757D01*
X178529455Y-182264757D02*
X178672312Y-182193328D01*
X178672312Y-182193328D02*
X179029455Y-182193328D01*
X179029455Y-182193328D02*
X179243741Y-182264757D01*
X179886597Y-183693328D02*
X179886597Y-182193328D01*
X180529455Y-183693328D02*
X180529455Y-182907614D01*
X180529455Y-182907614D02*
X180458026Y-182764757D01*
X180458026Y-182764757D02*
X180315169Y-182693328D01*
X180315169Y-182693328D02*
X180100883Y-182693328D01*
X180100883Y-182693328D02*
X179958026Y-182764757D01*
X179958026Y-182764757D02*
X179886597Y-182836185D01*
X181815169Y-183621900D02*
X181672312Y-183693328D01*
X181672312Y-183693328D02*
X181386598Y-183693328D01*
X181386598Y-183693328D02*
X181243740Y-183621900D01*
X181243740Y-183621900D02*
X181172312Y-183479042D01*
X181172312Y-183479042D02*
X181172312Y-182907614D01*
X181172312Y-182907614D02*
X181243740Y-182764757D01*
X181243740Y-182764757D02*
X181386598Y-182693328D01*
X181386598Y-182693328D02*
X181672312Y-182693328D01*
X181672312Y-182693328D02*
X181815169Y-182764757D01*
X181815169Y-182764757D02*
X181886598Y-182907614D01*
X181886598Y-182907614D02*
X181886598Y-183050471D01*
X181886598Y-183050471D02*
X181172312Y-183193328D01*
X183100883Y-183621900D02*
X182958026Y-183693328D01*
X182958026Y-183693328D02*
X182672312Y-183693328D01*
X182672312Y-183693328D02*
X182529454Y-183621900D01*
X182529454Y-183621900D02*
X182458026Y-183479042D01*
X182458026Y-183479042D02*
X182458026Y-182907614D01*
X182458026Y-182907614D02*
X182529454Y-182764757D01*
X182529454Y-182764757D02*
X182672312Y-182693328D01*
X182672312Y-182693328D02*
X182958026Y-182693328D01*
X182958026Y-182693328D02*
X183100883Y-182764757D01*
X183100883Y-182764757D02*
X183172312Y-182907614D01*
X183172312Y-182907614D02*
X183172312Y-183050471D01*
X183172312Y-183050471D02*
X182458026Y-183193328D01*
X183600883Y-182693328D02*
X184172311Y-182693328D01*
X183815168Y-182193328D02*
X183815168Y-183479042D01*
X183815168Y-183479042D02*
X183886597Y-183621900D01*
X183886597Y-183621900D02*
X184029454Y-183693328D01*
X184029454Y-183693328D02*
X184172311Y-183693328D01*
X184672311Y-183550471D02*
X184743740Y-183621900D01*
X184743740Y-183621900D02*
X184672311Y-183693328D01*
X184672311Y-183693328D02*
X184600883Y-183621900D01*
X184600883Y-183621900D02*
X184672311Y-183550471D01*
X184672311Y-183550471D02*
X184672311Y-183693328D01*
X184672311Y-182764757D02*
X184743740Y-182836185D01*
X184743740Y-182836185D02*
X184672311Y-182907614D01*
X184672311Y-182907614D02*
X184600883Y-182836185D01*
X184600883Y-182836185D02*
X184672311Y-182764757D01*
X184672311Y-182764757D02*
X184672311Y-182907614D01*
D10*
D12*
X178485282Y-180256957D02*
X179199568Y-180256957D01*
X178342425Y-180685528D02*
X178842425Y-179185528D01*
X178842425Y-179185528D02*
X179342425Y-180685528D01*
X179842424Y-180685528D02*
X179842424Y-179185528D01*
X179842424Y-179185528D02*
X180342424Y-180256957D01*
X180342424Y-180256957D02*
X180842424Y-179185528D01*
X180842424Y-179185528D02*
X180842424Y-180685528D01*
X181485282Y-180614100D02*
X181699568Y-180685528D01*
X181699568Y-180685528D02*
X182056710Y-180685528D01*
X182056710Y-180685528D02*
X182199568Y-180614100D01*
X182199568Y-180614100D02*
X182270996Y-180542671D01*
X182270996Y-180542671D02*
X182342425Y-180399814D01*
X182342425Y-180399814D02*
X182342425Y-180256957D01*
X182342425Y-180256957D02*
X182270996Y-180114100D01*
X182270996Y-180114100D02*
X182199568Y-180042671D01*
X182199568Y-180042671D02*
X182056710Y-179971242D01*
X182056710Y-179971242D02*
X181770996Y-179899814D01*
X181770996Y-179899814D02*
X181628139Y-179828385D01*
X181628139Y-179828385D02*
X181556710Y-179756957D01*
X181556710Y-179756957D02*
X181485282Y-179614100D01*
X181485282Y-179614100D02*
X181485282Y-179471242D01*
X181485282Y-179471242D02*
X181556710Y-179328385D01*
X181556710Y-179328385D02*
X181628139Y-179256957D01*
X181628139Y-179256957D02*
X181770996Y-179185528D01*
X181770996Y-179185528D02*
X182128139Y-179185528D01*
X182128139Y-179185528D02*
X182342425Y-179256957D01*
X182913853Y-180256957D02*
X183628139Y-180256957D01*
X182770996Y-180685528D02*
X183270996Y-179185528D01*
X183270996Y-179185528D02*
X183770996Y-180685528D01*
X184056710Y-179185528D02*
X184913853Y-179185528D01*
X184485281Y-180685528D02*
X184485281Y-179185528D01*
D10*
D11*
X197002200Y-191507200D02*
X197002200Y-194507200D01*
D10*
D11*
X261002200Y-191507200D02*
X261002200Y-198007200D01*
D14*
X106631500Y-101770000D02*
G75*
G02*
X106456500Y-101770000I-87500J0D01*
G01*
X106456500Y-101770000D02*
G75*
G02*
X106631500Y-101770000I87500J0D01*
G01*
D15*
X127557283Y-111370000D02*
G75*
G02*
X126970717Y-111370000I-293283J0D01*
G01*
X126970717Y-111370000D02*
G75*
G02*
X127557283Y-111370000I293283J0D01*
G01*
D11*
X135357914Y-162385218D02*
X135624581Y-162004265D01*
X135815057Y-162385218D02*
X135815057Y-161585218D01*
X135815057Y-161585218D02*
X135510295Y-161585218D01*
X135510295Y-161585218D02*
X135434105Y-161623313D01*
X135434105Y-161623313D02*
X135396010Y-161661408D01*
X135396010Y-161661408D02*
X135357914Y-161737599D01*
X135357914Y-161737599D02*
X135357914Y-161851884D01*
X135357914Y-161851884D02*
X135396010Y-161928075D01*
X135396010Y-161928075D02*
X135434105Y-161966170D01*
X135434105Y-161966170D02*
X135510295Y-162004265D01*
X135510295Y-162004265D02*
X135815057Y-162004265D01*
X135091248Y-161585218D02*
X134557914Y-162385218D01*
X134557914Y-161585218D02*
X135091248Y-162385218D01*
X133834105Y-162385218D02*
X134291248Y-162385218D01*
X134062676Y-162385218D02*
X134062676Y-161585218D01*
X134062676Y-161585218D02*
X134138867Y-161699503D01*
X134138867Y-161699503D02*
X134215057Y-161775694D01*
X134215057Y-161775694D02*
X134291248Y-161813789D01*
X133681724Y-162461408D02*
X133072200Y-162461408D01*
X132881723Y-162385218D02*
X132881723Y-161585218D01*
X132881723Y-161585218D02*
X132691247Y-161585218D01*
X132691247Y-161585218D02*
X132576961Y-161623313D01*
X132576961Y-161623313D02*
X132500771Y-161699503D01*
X132500771Y-161699503D02*
X132462676Y-161775694D01*
X132462676Y-161775694D02*
X132424580Y-161928075D01*
X132424580Y-161928075D02*
X132424580Y-162042361D01*
X132424580Y-162042361D02*
X132462676Y-162194742D01*
X132462676Y-162194742D02*
X132500771Y-162270932D01*
X132500771Y-162270932D02*
X132576961Y-162347123D01*
X132576961Y-162347123D02*
X132691247Y-162385218D01*
X132691247Y-162385218D02*
X132881723Y-162385218D01*
X132081723Y-162385218D02*
X132081723Y-161851884D01*
X132081723Y-161585218D02*
X132119819Y-161623313D01*
X132119819Y-161623313D02*
X132081723Y-161661408D01*
X132081723Y-161661408D02*
X132043628Y-161623313D01*
X132043628Y-161623313D02*
X132081723Y-161585218D01*
X132081723Y-161585218D02*
X132081723Y-161661408D01*
X131700771Y-162385218D02*
X131700771Y-161851884D01*
X131700771Y-162004265D02*
X131662676Y-161928075D01*
X131662676Y-161928075D02*
X131624581Y-161889980D01*
X131624581Y-161889980D02*
X131548390Y-161851884D01*
X131548390Y-161851884D02*
X131472200Y-161851884D01*
X130900771Y-162347123D02*
X130976962Y-162385218D01*
X130976962Y-162385218D02*
X131129343Y-162385218D01*
X131129343Y-162385218D02*
X131205533Y-162347123D01*
X131205533Y-162347123D02*
X131243629Y-162270932D01*
X131243629Y-162270932D02*
X131243629Y-161966170D01*
X131243629Y-161966170D02*
X131205533Y-161889980D01*
X131205533Y-161889980D02*
X131129343Y-161851884D01*
X131129343Y-161851884D02*
X130976962Y-161851884D01*
X130976962Y-161851884D02*
X130900771Y-161889980D01*
X130900771Y-161889980D02*
X130862676Y-161966170D01*
X130862676Y-161966170D02*
X130862676Y-162042361D01*
X130862676Y-162042361D02*
X131243629Y-162118551D01*
X130176962Y-162347123D02*
X130253153Y-162385218D01*
X130253153Y-162385218D02*
X130405534Y-162385218D01*
X130405534Y-162385218D02*
X130481724Y-162347123D01*
X130481724Y-162347123D02*
X130519819Y-162309027D01*
X130519819Y-162309027D02*
X130557915Y-162232837D01*
X130557915Y-162232837D02*
X130557915Y-162004265D01*
X130557915Y-162004265D02*
X130519819Y-161928075D01*
X130519819Y-161928075D02*
X130481724Y-161889980D01*
X130481724Y-161889980D02*
X130405534Y-161851884D01*
X130405534Y-161851884D02*
X130253153Y-161851884D01*
X130253153Y-161851884D02*
X130176962Y-161889980D01*
X129948391Y-161851884D02*
X129643629Y-161851884D01*
X129834105Y-161585218D02*
X129834105Y-162270932D01*
X129834105Y-162270932D02*
X129796010Y-162347123D01*
X129796010Y-162347123D02*
X129719820Y-162385218D01*
X129719820Y-162385218D02*
X129643629Y-162385218D01*
X128957915Y-162385218D02*
X129415058Y-162385218D01*
X129186486Y-162385218D02*
X129186486Y-161585218D01*
X129186486Y-161585218D02*
X129262677Y-161699503D01*
X129262677Y-161699503D02*
X129338867Y-161775694D01*
X129338867Y-161775694D02*
X129415058Y-161813789D01*
X150521030Y-98854295D02*
X150025792Y-98854295D01*
X150025792Y-98854295D02*
X150292458Y-99159057D01*
X150292458Y-99159057D02*
X150178173Y-99159057D01*
X150178173Y-99159057D02*
X150101982Y-99197152D01*
X150101982Y-99197152D02*
X150063887Y-99235247D01*
X150063887Y-99235247D02*
X150025792Y-99311438D01*
X150025792Y-99311438D02*
X150025792Y-99501914D01*
X150025792Y-99501914D02*
X150063887Y-99578104D01*
X150063887Y-99578104D02*
X150101982Y-99616200D01*
X150101982Y-99616200D02*
X150178173Y-99654295D01*
X150178173Y-99654295D02*
X150406744Y-99654295D01*
X150406744Y-99654295D02*
X150482935Y-99616200D01*
X150482935Y-99616200D02*
X150521030Y-99578104D01*
X149682934Y-99578104D02*
X149644839Y-99616200D01*
X149644839Y-99616200D02*
X149682934Y-99654295D01*
X149682934Y-99654295D02*
X149721030Y-99616200D01*
X149721030Y-99616200D02*
X149682934Y-99578104D01*
X149682934Y-99578104D02*
X149682934Y-99654295D01*
X149378173Y-98854295D02*
X148882935Y-98854295D01*
X148882935Y-98854295D02*
X149149601Y-99159057D01*
X149149601Y-99159057D02*
X149035316Y-99159057D01*
X149035316Y-99159057D02*
X148959125Y-99197152D01*
X148959125Y-99197152D02*
X148921030Y-99235247D01*
X148921030Y-99235247D02*
X148882935Y-99311438D01*
X148882935Y-99311438D02*
X148882935Y-99501914D01*
X148882935Y-99501914D02*
X148921030Y-99578104D01*
X148921030Y-99578104D02*
X148959125Y-99616200D01*
X148959125Y-99616200D02*
X149035316Y-99654295D01*
X149035316Y-99654295D02*
X149263887Y-99654295D01*
X149263887Y-99654295D02*
X149340078Y-99616200D01*
X149340078Y-99616200D02*
X149378173Y-99578104D01*
X148654363Y-98854295D02*
X148387696Y-99654295D01*
X148387696Y-99654295D02*
X148121030Y-98854295D01*
X132389556Y-132507598D02*
X131780033Y-132507598D01*
X132084794Y-132812360D02*
X132084794Y-132202836D01*
X161980329Y-83746319D02*
X161370806Y-83746319D01*
X175378295Y-135901541D02*
X175378295Y-135977731D01*
X175378295Y-135977731D02*
X175416390Y-136053922D01*
X175416390Y-136053922D02*
X175454485Y-136092017D01*
X175454485Y-136092017D02*
X175530676Y-136130112D01*
X175530676Y-136130112D02*
X175683057Y-136168207D01*
X175683057Y-136168207D02*
X175873533Y-136168207D01*
X175873533Y-136168207D02*
X176025914Y-136130112D01*
X176025914Y-136130112D02*
X176102104Y-136092017D01*
X176102104Y-136092017D02*
X176140200Y-136053922D01*
X176140200Y-136053922D02*
X176178295Y-135977731D01*
X176178295Y-135977731D02*
X176178295Y-135901541D01*
X176178295Y-135901541D02*
X176140200Y-135825350D01*
X176140200Y-135825350D02*
X176102104Y-135787255D01*
X176102104Y-135787255D02*
X176025914Y-135749160D01*
X176025914Y-135749160D02*
X175873533Y-135711064D01*
X175873533Y-135711064D02*
X175683057Y-135711064D01*
X175683057Y-135711064D02*
X175530676Y-135749160D01*
X175530676Y-135749160D02*
X175454485Y-135787255D01*
X175454485Y-135787255D02*
X175416390Y-135825350D01*
X175416390Y-135825350D02*
X175378295Y-135901541D01*
X176178295Y-137539636D02*
X176178295Y-137082493D01*
X176178295Y-137311065D02*
X175378295Y-137311065D01*
X175378295Y-137311065D02*
X175492580Y-137234874D01*
X175492580Y-137234874D02*
X175568771Y-137158684D01*
X175568771Y-137158684D02*
X175606866Y-137082493D01*
X175454485Y-138453922D02*
X175416390Y-138492018D01*
X175416390Y-138492018D02*
X175378295Y-138568208D01*
X175378295Y-138568208D02*
X175378295Y-138758684D01*
X175378295Y-138758684D02*
X175416390Y-138834875D01*
X175416390Y-138834875D02*
X175454485Y-138872970D01*
X175454485Y-138872970D02*
X175530676Y-138911065D01*
X175530676Y-138911065D02*
X175606866Y-138911065D01*
X175606866Y-138911065D02*
X175721152Y-138872970D01*
X175721152Y-138872970D02*
X176178295Y-138415827D01*
X176178295Y-138415827D02*
X176178295Y-138911065D01*
X175378295Y-139787256D02*
X175378295Y-140282494D01*
X175378295Y-140282494D02*
X175683057Y-140015828D01*
X175683057Y-140015828D02*
X175683057Y-140130113D01*
X175683057Y-140130113D02*
X175721152Y-140206304D01*
X175721152Y-140206304D02*
X175759247Y-140244399D01*
X175759247Y-140244399D02*
X175835438Y-140282494D01*
X175835438Y-140282494D02*
X176025914Y-140282494D01*
X176025914Y-140282494D02*
X176102104Y-140244399D01*
X176102104Y-140244399D02*
X176140200Y-140206304D01*
X176140200Y-140206304D02*
X176178295Y-140130113D01*
X176178295Y-140130113D02*
X176178295Y-139901542D01*
X176178295Y-139901542D02*
X176140200Y-139825351D01*
X176140200Y-139825351D02*
X176102104Y-139787256D01*
X162073609Y-86570163D02*
X161464086Y-86570163D01*
X161768847Y-86874925D02*
X161768847Y-86265401D01*
X160004770Y-144135982D02*
X160461913Y-144135982D01*
X160233341Y-144135982D02*
X160233341Y-143335982D01*
X160233341Y-143335982D02*
X160309532Y-143450267D01*
X160309532Y-143450267D02*
X160385722Y-143526458D01*
X160385722Y-143526458D02*
X160461913Y-143564553D01*
X159776198Y-143335982D02*
X159509531Y-144135982D01*
X159509531Y-144135982D02*
X159242865Y-143335982D01*
X159052389Y-143335982D02*
X158557151Y-143335982D01*
X158557151Y-143335982D02*
X158823817Y-143640744D01*
X158823817Y-143640744D02*
X158709532Y-143640744D01*
X158709532Y-143640744D02*
X158633341Y-143678839D01*
X158633341Y-143678839D02*
X158595246Y-143716934D01*
X158595246Y-143716934D02*
X158557151Y-143793125D01*
X158557151Y-143793125D02*
X158557151Y-143983601D01*
X158557151Y-143983601D02*
X158595246Y-144059791D01*
X158595246Y-144059791D02*
X158633341Y-144097887D01*
X158633341Y-144097887D02*
X158709532Y-144135982D01*
X158709532Y-144135982D02*
X158938103Y-144135982D01*
X158938103Y-144135982D02*
X159014294Y-144097887D01*
X159014294Y-144097887D02*
X159052389Y-144059791D01*
X158252389Y-143907410D02*
X157871436Y-143907410D01*
X158328579Y-144135982D02*
X158061912Y-143335982D01*
X158061912Y-143335982D02*
X157795246Y-144135982D01*
X157347607Y-137142627D02*
X157804750Y-137142627D01*
X157576178Y-137142627D02*
X157576178Y-136342627D01*
X157576178Y-136342627D02*
X157652369Y-136456912D01*
X157652369Y-136456912D02*
X157728559Y-136533103D01*
X157728559Y-136533103D02*
X157804750Y-136571198D01*
X157119035Y-136342627D02*
X156852368Y-137142627D01*
X156852368Y-137142627D02*
X156585702Y-136342627D01*
X156395226Y-136342627D02*
X155899988Y-136342627D01*
X155899988Y-136342627D02*
X156166654Y-136647389D01*
X156166654Y-136647389D02*
X156052369Y-136647389D01*
X156052369Y-136647389D02*
X155976178Y-136685484D01*
X155976178Y-136685484D02*
X155938083Y-136723579D01*
X155938083Y-136723579D02*
X155899988Y-136799770D01*
X155899988Y-136799770D02*
X155899988Y-136990246D01*
X155899988Y-136990246D02*
X155938083Y-137066436D01*
X155938083Y-137066436D02*
X155976178Y-137104532D01*
X155976178Y-137104532D02*
X156052369Y-137142627D01*
X156052369Y-137142627D02*
X156280940Y-137142627D01*
X156280940Y-137142627D02*
X156357131Y-137104532D01*
X156357131Y-137104532D02*
X156395226Y-137066436D01*
X155290464Y-136723579D02*
X155176178Y-136761674D01*
X155176178Y-136761674D02*
X155138083Y-136799770D01*
X155138083Y-136799770D02*
X155099987Y-136875960D01*
X155099987Y-136875960D02*
X155099987Y-136990246D01*
X155099987Y-136990246D02*
X155138083Y-137066436D01*
X155138083Y-137066436D02*
X155176178Y-137104532D01*
X155176178Y-137104532D02*
X155252368Y-137142627D01*
X155252368Y-137142627D02*
X155557130Y-137142627D01*
X155557130Y-137142627D02*
X155557130Y-136342627D01*
X155557130Y-136342627D02*
X155290464Y-136342627D01*
X155290464Y-136342627D02*
X155214273Y-136380722D01*
X155214273Y-136380722D02*
X155176178Y-136418817D01*
X155176178Y-136418817D02*
X155138083Y-136495008D01*
X155138083Y-136495008D02*
X155138083Y-136571198D01*
X155138083Y-136571198D02*
X155176178Y-136647389D01*
X155176178Y-136647389D02*
X155214273Y-136685484D01*
X155214273Y-136685484D02*
X155290464Y-136723579D01*
X155290464Y-136723579D02*
X155557130Y-136723579D01*
X124704466Y-153030839D02*
X124704466Y-152421316D01*
X124399704Y-152726077D02*
X125009228Y-152726077D01*
X124399704Y-151621316D02*
X124399704Y-152078459D01*
X124399704Y-151849887D02*
X125199704Y-151849887D01*
X125199704Y-151849887D02*
X125085419Y-151926078D01*
X125085419Y-151926078D02*
X125009228Y-152002268D01*
X125009228Y-152002268D02*
X124971133Y-152078459D01*
X125199704Y-151392744D02*
X124399704Y-151126077D01*
X124399704Y-151126077D02*
X125199704Y-150859411D01*
X125199704Y-150440363D02*
X125199704Y-150364173D01*
X125199704Y-150364173D02*
X125161609Y-150287982D01*
X125161609Y-150287982D02*
X125123514Y-150249887D01*
X125123514Y-150249887D02*
X125047323Y-150211792D01*
X125047323Y-150211792D02*
X124894942Y-150173697D01*
X124894942Y-150173697D02*
X124704466Y-150173697D01*
X124704466Y-150173697D02*
X124552085Y-150211792D01*
X124552085Y-150211792D02*
X124475895Y-150249887D01*
X124475895Y-150249887D02*
X124437800Y-150287982D01*
X124437800Y-150287982D02*
X124399704Y-150364173D01*
X124399704Y-150364173D02*
X124399704Y-150440363D01*
X124399704Y-150440363D02*
X124437800Y-150516554D01*
X124437800Y-150516554D02*
X124475895Y-150554649D01*
X124475895Y-150554649D02*
X124552085Y-150592744D01*
X124552085Y-150592744D02*
X124704466Y-150630840D01*
X124704466Y-150630840D02*
X124894942Y-150630840D01*
X124894942Y-150630840D02*
X125047323Y-150592744D01*
X125047323Y-150592744D02*
X125123514Y-150554649D01*
X125123514Y-150554649D02*
X125161609Y-150516554D01*
X125161609Y-150516554D02*
X125199704Y-150440363D01*
X138359704Y-111543696D02*
X138740657Y-111810363D01*
X138359704Y-112000839D02*
X139159704Y-112000839D01*
X139159704Y-112000839D02*
X139159704Y-111696077D01*
X139159704Y-111696077D02*
X139121609Y-111619887D01*
X139121609Y-111619887D02*
X139083514Y-111581792D01*
X139083514Y-111581792D02*
X139007323Y-111543696D01*
X139007323Y-111543696D02*
X138893038Y-111543696D01*
X138893038Y-111543696D02*
X138816847Y-111581792D01*
X138816847Y-111581792D02*
X138778752Y-111619887D01*
X138778752Y-111619887D02*
X138740657Y-111696077D01*
X138740657Y-111696077D02*
X138740657Y-112000839D01*
X138397800Y-111238935D02*
X138359704Y-111124649D01*
X138359704Y-111124649D02*
X138359704Y-110934173D01*
X138359704Y-110934173D02*
X138397800Y-110857982D01*
X138397800Y-110857982D02*
X138435895Y-110819887D01*
X138435895Y-110819887D02*
X138512085Y-110781792D01*
X138512085Y-110781792D02*
X138588276Y-110781792D01*
X138588276Y-110781792D02*
X138664466Y-110819887D01*
X138664466Y-110819887D02*
X138702561Y-110857982D01*
X138702561Y-110857982D02*
X138740657Y-110934173D01*
X138740657Y-110934173D02*
X138778752Y-111086554D01*
X138778752Y-111086554D02*
X138816847Y-111162744D01*
X138816847Y-111162744D02*
X138854942Y-111200839D01*
X138854942Y-111200839D02*
X138931133Y-111238935D01*
X138931133Y-111238935D02*
X139007323Y-111238935D01*
X139007323Y-111238935D02*
X139083514Y-111200839D01*
X139083514Y-111200839D02*
X139121609Y-111162744D01*
X139121609Y-111162744D02*
X139159704Y-111086554D01*
X139159704Y-111086554D02*
X139159704Y-110896077D01*
X139159704Y-110896077D02*
X139121609Y-110781792D01*
X139159704Y-110553220D02*
X139159704Y-110096077D01*
X138359704Y-110324649D02*
X139159704Y-110324649D01*
X138664466Y-109829410D02*
X138664466Y-109219887D01*
X111305792Y-163502390D02*
X111381982Y-163464295D01*
X111381982Y-163464295D02*
X111496268Y-163464295D01*
X111496268Y-163464295D02*
X111610554Y-163502390D01*
X111610554Y-163502390D02*
X111686744Y-163578580D01*
X111686744Y-163578580D02*
X111724839Y-163654771D01*
X111724839Y-163654771D02*
X111762935Y-163807152D01*
X111762935Y-163807152D02*
X111762935Y-163921438D01*
X111762935Y-163921438D02*
X111724839Y-164073819D01*
X111724839Y-164073819D02*
X111686744Y-164150009D01*
X111686744Y-164150009D02*
X111610554Y-164226200D01*
X111610554Y-164226200D02*
X111496268Y-164264295D01*
X111496268Y-164264295D02*
X111420077Y-164264295D01*
X111420077Y-164264295D02*
X111305792Y-164226200D01*
X111305792Y-164226200D02*
X111267696Y-164188104D01*
X111267696Y-164188104D02*
X111267696Y-163921438D01*
X111267696Y-163921438D02*
X111420077Y-163921438D01*
X110924839Y-164264295D02*
X110924839Y-163464295D01*
X110924839Y-163464295D02*
X110467696Y-164264295D01*
X110467696Y-164264295D02*
X110467696Y-163464295D01*
X110086744Y-164264295D02*
X110086744Y-163464295D01*
X110086744Y-163464295D02*
X109896268Y-163464295D01*
X109896268Y-163464295D02*
X109781982Y-163502390D01*
X109781982Y-163502390D02*
X109705792Y-163578580D01*
X109705792Y-163578580D02*
X109667697Y-163654771D01*
X109667697Y-163654771D02*
X109629601Y-163807152D01*
X109629601Y-163807152D02*
X109629601Y-163921438D01*
X109629601Y-163921438D02*
X109667697Y-164073819D01*
X109667697Y-164073819D02*
X109705792Y-164150009D01*
X109705792Y-164150009D02*
X109781982Y-164226200D01*
X109781982Y-164226200D02*
X109896268Y-164264295D01*
X109896268Y-164264295D02*
X110086744Y-164264295D01*
X92318731Y-152106526D02*
X92318731Y-151497003D01*
X92013969Y-151801764D02*
X92623493Y-151801764D01*
X92013969Y-150697003D02*
X92013969Y-151154146D01*
X92013969Y-150925574D02*
X92813969Y-150925574D01*
X92813969Y-150925574D02*
X92699684Y-151001765D01*
X92699684Y-151001765D02*
X92623493Y-151077955D01*
X92623493Y-151077955D02*
X92585398Y-151154146D01*
X92090160Y-150354145D02*
X92052065Y-150316050D01*
X92052065Y-150316050D02*
X92013969Y-150354145D01*
X92013969Y-150354145D02*
X92052065Y-150392241D01*
X92052065Y-150392241D02*
X92090160Y-150354145D01*
X92090160Y-150354145D02*
X92013969Y-150354145D01*
X92471112Y-149858908D02*
X92509207Y-149935098D01*
X92509207Y-149935098D02*
X92547303Y-149973193D01*
X92547303Y-149973193D02*
X92623493Y-150011289D01*
X92623493Y-150011289D02*
X92661588Y-150011289D01*
X92661588Y-150011289D02*
X92737779Y-149973193D01*
X92737779Y-149973193D02*
X92775874Y-149935098D01*
X92775874Y-149935098D02*
X92813969Y-149858908D01*
X92813969Y-149858908D02*
X92813969Y-149706527D01*
X92813969Y-149706527D02*
X92775874Y-149630336D01*
X92775874Y-149630336D02*
X92737779Y-149592241D01*
X92737779Y-149592241D02*
X92661588Y-149554146D01*
X92661588Y-149554146D02*
X92623493Y-149554146D01*
X92623493Y-149554146D02*
X92547303Y-149592241D01*
X92547303Y-149592241D02*
X92509207Y-149630336D01*
X92509207Y-149630336D02*
X92471112Y-149706527D01*
X92471112Y-149706527D02*
X92471112Y-149858908D01*
X92471112Y-149858908D02*
X92433017Y-149935098D01*
X92433017Y-149935098D02*
X92394922Y-149973193D01*
X92394922Y-149973193D02*
X92318731Y-150011289D01*
X92318731Y-150011289D02*
X92166350Y-150011289D01*
X92166350Y-150011289D02*
X92090160Y-149973193D01*
X92090160Y-149973193D02*
X92052065Y-149935098D01*
X92052065Y-149935098D02*
X92013969Y-149858908D01*
X92013969Y-149858908D02*
X92013969Y-149706527D01*
X92013969Y-149706527D02*
X92052065Y-149630336D01*
X92052065Y-149630336D02*
X92090160Y-149592241D01*
X92090160Y-149592241D02*
X92166350Y-149554146D01*
X92166350Y-149554146D02*
X92318731Y-149554146D01*
X92318731Y-149554146D02*
X92394922Y-149592241D01*
X92394922Y-149592241D02*
X92433017Y-149630336D01*
X92433017Y-149630336D02*
X92471112Y-149706527D01*
X92813969Y-149325574D02*
X92013969Y-149058907D01*
X92013969Y-149058907D02*
X92813969Y-148792241D01*
X164456425Y-109261864D02*
X163999282Y-109261864D01*
X164227854Y-110061864D02*
X164227854Y-109261864D01*
X163808806Y-109261864D02*
X163275472Y-110061864D01*
X163275472Y-109261864D02*
X163808806Y-110061864D01*
X163008806Y-109338054D02*
X162970710Y-109299959D01*
X162970710Y-109299959D02*
X162894520Y-109261864D01*
X162894520Y-109261864D02*
X162704044Y-109261864D01*
X162704044Y-109261864D02*
X162627853Y-109299959D01*
X162627853Y-109299959D02*
X162589758Y-109338054D01*
X162589758Y-109338054D02*
X162551663Y-109414245D01*
X162551663Y-109414245D02*
X162551663Y-109490435D01*
X162551663Y-109490435D02*
X162589758Y-109604721D01*
X162589758Y-109604721D02*
X163046901Y-110061864D01*
X163046901Y-110061864D02*
X162551663Y-110061864D01*
X162246901Y-109833292D02*
X161865948Y-109833292D01*
X162323091Y-110061864D02*
X162056424Y-109261864D01*
X162056424Y-109261864D02*
X161789758Y-110061864D01*
X161713568Y-110138054D02*
X161104044Y-110138054D01*
X160913567Y-110061864D02*
X160913567Y-109261864D01*
X160913567Y-109261864D02*
X160723091Y-109261864D01*
X160723091Y-109261864D02*
X160608805Y-109299959D01*
X160608805Y-109299959D02*
X160532615Y-109376149D01*
X160532615Y-109376149D02*
X160494520Y-109452340D01*
X160494520Y-109452340D02*
X160456424Y-109604721D01*
X160456424Y-109604721D02*
X160456424Y-109719007D01*
X160456424Y-109719007D02*
X160494520Y-109871388D01*
X160494520Y-109871388D02*
X160532615Y-109947578D01*
X160532615Y-109947578D02*
X160608805Y-110023769D01*
X160608805Y-110023769D02*
X160723091Y-110061864D01*
X160723091Y-110061864D02*
X160913567Y-110061864D01*
X160113567Y-110061864D02*
X160113567Y-109528530D01*
X160113567Y-109261864D02*
X160151663Y-109299959D01*
X160151663Y-109299959D02*
X160113567Y-109338054D01*
X160113567Y-109338054D02*
X160075472Y-109299959D01*
X160075472Y-109299959D02*
X160113567Y-109261864D01*
X160113567Y-109261864D02*
X160113567Y-109338054D01*
X159732615Y-110061864D02*
X159732615Y-109528530D01*
X159732615Y-109680911D02*
X159694520Y-109604721D01*
X159694520Y-109604721D02*
X159656425Y-109566626D01*
X159656425Y-109566626D02*
X159580234Y-109528530D01*
X159580234Y-109528530D02*
X159504044Y-109528530D01*
X158932615Y-110023769D02*
X159008806Y-110061864D01*
X159008806Y-110061864D02*
X159161187Y-110061864D01*
X159161187Y-110061864D02*
X159237377Y-110023769D01*
X159237377Y-110023769D02*
X159275473Y-109947578D01*
X159275473Y-109947578D02*
X159275473Y-109642816D01*
X159275473Y-109642816D02*
X159237377Y-109566626D01*
X159237377Y-109566626D02*
X159161187Y-109528530D01*
X159161187Y-109528530D02*
X159008806Y-109528530D01*
X159008806Y-109528530D02*
X158932615Y-109566626D01*
X158932615Y-109566626D02*
X158894520Y-109642816D01*
X158894520Y-109642816D02*
X158894520Y-109719007D01*
X158894520Y-109719007D02*
X159275473Y-109795197D01*
X158208806Y-110023769D02*
X158284997Y-110061864D01*
X158284997Y-110061864D02*
X158437378Y-110061864D01*
X158437378Y-110061864D02*
X158513568Y-110023769D01*
X158513568Y-110023769D02*
X158551663Y-109985673D01*
X158551663Y-109985673D02*
X158589759Y-109909483D01*
X158589759Y-109909483D02*
X158589759Y-109680911D01*
X158589759Y-109680911D02*
X158551663Y-109604721D01*
X158551663Y-109604721D02*
X158513568Y-109566626D01*
X158513568Y-109566626D02*
X158437378Y-109528530D01*
X158437378Y-109528530D02*
X158284997Y-109528530D01*
X158284997Y-109528530D02*
X158208806Y-109566626D01*
X157980235Y-109528530D02*
X157675473Y-109528530D01*
X157865949Y-109261864D02*
X157865949Y-109947578D01*
X157865949Y-109947578D02*
X157827854Y-110023769D01*
X157827854Y-110023769D02*
X157751664Y-110061864D01*
X157751664Y-110061864D02*
X157675473Y-110061864D01*
X156989759Y-110061864D02*
X157446902Y-110061864D01*
X157218330Y-110061864D02*
X157218330Y-109261864D01*
X157218330Y-109261864D02*
X157294521Y-109376149D01*
X157294521Y-109376149D02*
X157370711Y-109452340D01*
X157370711Y-109452340D02*
X157446902Y-109490435D01*
X105834839Y-165249533D02*
X105225316Y-165249533D01*
X105530077Y-165554295D02*
X105530077Y-164944771D01*
X172466126Y-132061608D02*
X172466126Y-132518751D01*
X173266126Y-132290179D02*
X172466126Y-132290179D01*
X172466126Y-132709227D02*
X173266126Y-133242561D01*
X172466126Y-133242561D02*
X173266126Y-132709227D01*
X173266126Y-133966370D02*
X173266126Y-133509227D01*
X173266126Y-133737799D02*
X172466126Y-133737799D01*
X172466126Y-133737799D02*
X172580411Y-133661608D01*
X172580411Y-133661608D02*
X172656602Y-133585418D01*
X172656602Y-133585418D02*
X172694697Y-133509227D01*
X173037554Y-134271132D02*
X173037554Y-134652085D01*
X173266126Y-134194942D02*
X172466126Y-134461609D01*
X172466126Y-134461609D02*
X173266126Y-134728275D01*
X173342316Y-134804466D02*
X173342316Y-135413989D01*
X173266126Y-135604466D02*
X172466126Y-135604466D01*
X172466126Y-135604466D02*
X172466126Y-135794942D01*
X172466126Y-135794942D02*
X172504221Y-135909228D01*
X172504221Y-135909228D02*
X172580411Y-135985418D01*
X172580411Y-135985418D02*
X172656602Y-136023513D01*
X172656602Y-136023513D02*
X172808983Y-136061609D01*
X172808983Y-136061609D02*
X172923269Y-136061609D01*
X172923269Y-136061609D02*
X173075650Y-136023513D01*
X173075650Y-136023513D02*
X173151840Y-135985418D01*
X173151840Y-135985418D02*
X173228031Y-135909228D01*
X173228031Y-135909228D02*
X173266126Y-135794942D01*
X173266126Y-135794942D02*
X173266126Y-135604466D01*
X173266126Y-136404466D02*
X172732792Y-136404466D01*
X172466126Y-136404466D02*
X172504221Y-136366370D01*
X172504221Y-136366370D02*
X172542316Y-136404466D01*
X172542316Y-136404466D02*
X172504221Y-136442561D01*
X172504221Y-136442561D02*
X172466126Y-136404466D01*
X172466126Y-136404466D02*
X172542316Y-136404466D01*
X173266126Y-136785418D02*
X172732792Y-136785418D01*
X172885173Y-136785418D02*
X172808983Y-136823513D01*
X172808983Y-136823513D02*
X172770888Y-136861608D01*
X172770888Y-136861608D02*
X172732792Y-136937799D01*
X172732792Y-136937799D02*
X172732792Y-137013989D01*
X173228031Y-137585418D02*
X173266126Y-137509227D01*
X173266126Y-137509227D02*
X173266126Y-137356846D01*
X173266126Y-137356846D02*
X173228031Y-137280656D01*
X173228031Y-137280656D02*
X173151840Y-137242560D01*
X173151840Y-137242560D02*
X172847078Y-137242560D01*
X172847078Y-137242560D02*
X172770888Y-137280656D01*
X172770888Y-137280656D02*
X172732792Y-137356846D01*
X172732792Y-137356846D02*
X172732792Y-137509227D01*
X172732792Y-137509227D02*
X172770888Y-137585418D01*
X172770888Y-137585418D02*
X172847078Y-137623513D01*
X172847078Y-137623513D02*
X172923269Y-137623513D01*
X172923269Y-137623513D02*
X172999459Y-137242560D01*
X173228031Y-138309227D02*
X173266126Y-138233036D01*
X173266126Y-138233036D02*
X173266126Y-138080655D01*
X173266126Y-138080655D02*
X173228031Y-138004465D01*
X173228031Y-138004465D02*
X173189935Y-137966370D01*
X173189935Y-137966370D02*
X173113745Y-137928274D01*
X173113745Y-137928274D02*
X172885173Y-137928274D01*
X172885173Y-137928274D02*
X172808983Y-137966370D01*
X172808983Y-137966370D02*
X172770888Y-138004465D01*
X172770888Y-138004465D02*
X172732792Y-138080655D01*
X172732792Y-138080655D02*
X172732792Y-138233036D01*
X172732792Y-138233036D02*
X172770888Y-138309227D01*
X172732792Y-138537798D02*
X172732792Y-138842560D01*
X172466126Y-138652084D02*
X173151840Y-138652084D01*
X173151840Y-138652084D02*
X173228031Y-138690179D01*
X173228031Y-138690179D02*
X173266126Y-138766369D01*
X173266126Y-138766369D02*
X173266126Y-138842560D01*
X173266126Y-139528274D02*
X173266126Y-139071131D01*
X173266126Y-139299703D02*
X172466126Y-139299703D01*
X172466126Y-139299703D02*
X172580411Y-139223512D01*
X172580411Y-139223512D02*
X172656602Y-139147322D01*
X172656602Y-139147322D02*
X172694697Y-139071131D01*
X122604466Y-145370839D02*
X122604466Y-144761316D01*
X122299704Y-145066077D02*
X122909228Y-145066077D01*
X123099704Y-144456554D02*
X123099704Y-143961316D01*
X123099704Y-143961316D02*
X122794942Y-144227982D01*
X122794942Y-144227982D02*
X122794942Y-144113697D01*
X122794942Y-144113697D02*
X122756847Y-144037506D01*
X122756847Y-144037506D02*
X122718752Y-143999411D01*
X122718752Y-143999411D02*
X122642561Y-143961316D01*
X122642561Y-143961316D02*
X122452085Y-143961316D01*
X122452085Y-143961316D02*
X122375895Y-143999411D01*
X122375895Y-143999411D02*
X122337800Y-144037506D01*
X122337800Y-144037506D02*
X122299704Y-144113697D01*
X122299704Y-144113697D02*
X122299704Y-144342268D01*
X122299704Y-144342268D02*
X122337800Y-144418459D01*
X122337800Y-144418459D02*
X122375895Y-144456554D01*
X122375895Y-143618458D02*
X122337800Y-143580363D01*
X122337800Y-143580363D02*
X122299704Y-143618458D01*
X122299704Y-143618458D02*
X122337800Y-143656554D01*
X122337800Y-143656554D02*
X122375895Y-143618458D01*
X122375895Y-143618458D02*
X122299704Y-143618458D01*
X123099704Y-143313697D02*
X123099704Y-142818459D01*
X123099704Y-142818459D02*
X122794942Y-143085125D01*
X122794942Y-143085125D02*
X122794942Y-142970840D01*
X122794942Y-142970840D02*
X122756847Y-142894649D01*
X122756847Y-142894649D02*
X122718752Y-142856554D01*
X122718752Y-142856554D02*
X122642561Y-142818459D01*
X122642561Y-142818459D02*
X122452085Y-142818459D01*
X122452085Y-142818459D02*
X122375895Y-142856554D01*
X122375895Y-142856554D02*
X122337800Y-142894649D01*
X122337800Y-142894649D02*
X122299704Y-142970840D01*
X122299704Y-142970840D02*
X122299704Y-143199411D01*
X122299704Y-143199411D02*
X122337800Y-143275602D01*
X122337800Y-143275602D02*
X122375895Y-143313697D01*
X123099704Y-142589887D02*
X122299704Y-142323220D01*
X122299704Y-142323220D02*
X123099704Y-142056554D01*
X108384839Y-165269533D02*
X107775316Y-165269533D01*
X176741990Y-131695789D02*
X176703895Y-131619599D01*
X176703895Y-131619599D02*
X176703895Y-131505313D01*
X176703895Y-131505313D02*
X176741990Y-131391027D01*
X176741990Y-131391027D02*
X176818180Y-131314837D01*
X176818180Y-131314837D02*
X176894371Y-131276742D01*
X176894371Y-131276742D02*
X177046752Y-131238646D01*
X177046752Y-131238646D02*
X177161038Y-131238646D01*
X177161038Y-131238646D02*
X177313419Y-131276742D01*
X177313419Y-131276742D02*
X177389609Y-131314837D01*
X177389609Y-131314837D02*
X177465800Y-131391027D01*
X177465800Y-131391027D02*
X177503895Y-131505313D01*
X177503895Y-131505313D02*
X177503895Y-131581504D01*
X177503895Y-131581504D02*
X177465800Y-131695789D01*
X177465800Y-131695789D02*
X177427704Y-131733885D01*
X177427704Y-131733885D02*
X177161038Y-131733885D01*
X177161038Y-131733885D02*
X177161038Y-131581504D01*
X177503895Y-132076742D02*
X176703895Y-132076742D01*
X176703895Y-132076742D02*
X177503895Y-132533885D01*
X177503895Y-132533885D02*
X176703895Y-132533885D01*
X177503895Y-132914837D02*
X176703895Y-132914837D01*
X176703895Y-132914837D02*
X176703895Y-133105313D01*
X176703895Y-133105313D02*
X176741990Y-133219599D01*
X176741990Y-133219599D02*
X176818180Y-133295789D01*
X176818180Y-133295789D02*
X176894371Y-133333884D01*
X176894371Y-133333884D02*
X177046752Y-133371980D01*
X177046752Y-133371980D02*
X177161038Y-133371980D01*
X177161038Y-133371980D02*
X177313419Y-133333884D01*
X177313419Y-133333884D02*
X177389609Y-133295789D01*
X177389609Y-133295789D02*
X177465800Y-133219599D01*
X177465800Y-133219599D02*
X177503895Y-133105313D01*
X177503895Y-133105313D02*
X177503895Y-132914837D01*
X118005477Y-134685440D02*
X117624524Y-134685440D01*
X118081667Y-134914012D02*
X117815000Y-134114012D01*
X117815000Y-134114012D02*
X117548334Y-134914012D01*
X117243572Y-134914012D02*
X117091191Y-134914012D01*
X117091191Y-134914012D02*
X117015001Y-134875917D01*
X117015001Y-134875917D02*
X116976905Y-134837821D01*
X116976905Y-134837821D02*
X116900715Y-134723536D01*
X116900715Y-134723536D02*
X116862620Y-134571155D01*
X116862620Y-134571155D02*
X116862620Y-134266393D01*
X116862620Y-134266393D02*
X116900715Y-134190202D01*
X116900715Y-134190202D02*
X116938810Y-134152107D01*
X116938810Y-134152107D02*
X117015001Y-134114012D01*
X117015001Y-134114012D02*
X117167382Y-134114012D01*
X117167382Y-134114012D02*
X117243572Y-134152107D01*
X117243572Y-134152107D02*
X117281667Y-134190202D01*
X117281667Y-134190202D02*
X117319763Y-134266393D01*
X117319763Y-134266393D02*
X117319763Y-134456869D01*
X117319763Y-134456869D02*
X117281667Y-134533059D01*
X117281667Y-134533059D02*
X117243572Y-134571155D01*
X117243572Y-134571155D02*
X117167382Y-134609250D01*
X117167382Y-134609250D02*
X117015001Y-134609250D01*
X117015001Y-134609250D02*
X116938810Y-134571155D01*
X116938810Y-134571155D02*
X116900715Y-134533059D01*
X116900715Y-134533059D02*
X116862620Y-134456869D01*
X135324839Y-98054295D02*
X135324839Y-97254295D01*
X135324839Y-97254295D02*
X135020077Y-97254295D01*
X135020077Y-97254295D02*
X134943887Y-97292390D01*
X134943887Y-97292390D02*
X134905792Y-97330485D01*
X134905792Y-97330485D02*
X134867696Y-97406676D01*
X134867696Y-97406676D02*
X134867696Y-97520961D01*
X134867696Y-97520961D02*
X134905792Y-97597152D01*
X134905792Y-97597152D02*
X134943887Y-97635247D01*
X134943887Y-97635247D02*
X135020077Y-97673342D01*
X135020077Y-97673342D02*
X135324839Y-97673342D01*
X134105792Y-98054295D02*
X134562935Y-98054295D01*
X134334363Y-98054295D02*
X134334363Y-97254295D01*
X134334363Y-97254295D02*
X134410554Y-97368580D01*
X134410554Y-97368580D02*
X134486744Y-97444771D01*
X134486744Y-97444771D02*
X134562935Y-97482866D01*
X92464466Y-145990839D02*
X92464466Y-145381316D01*
X92159704Y-145686077D02*
X92769228Y-145686077D01*
X92159704Y-144581316D02*
X92159704Y-145038459D01*
X92159704Y-144809887D02*
X92959704Y-144809887D01*
X92959704Y-144809887D02*
X92845419Y-144886078D01*
X92845419Y-144886078D02*
X92769228Y-144962268D01*
X92769228Y-144962268D02*
X92731133Y-145038459D01*
X92235895Y-144238458D02*
X92197800Y-144200363D01*
X92197800Y-144200363D02*
X92159704Y-144238458D01*
X92159704Y-144238458D02*
X92197800Y-144276554D01*
X92197800Y-144276554D02*
X92235895Y-144238458D01*
X92235895Y-144238458D02*
X92159704Y-144238458D01*
X92959704Y-143933697D02*
X92959704Y-143438459D01*
X92959704Y-143438459D02*
X92654942Y-143705125D01*
X92654942Y-143705125D02*
X92654942Y-143590840D01*
X92654942Y-143590840D02*
X92616847Y-143514649D01*
X92616847Y-143514649D02*
X92578752Y-143476554D01*
X92578752Y-143476554D02*
X92502561Y-143438459D01*
X92502561Y-143438459D02*
X92312085Y-143438459D01*
X92312085Y-143438459D02*
X92235895Y-143476554D01*
X92235895Y-143476554D02*
X92197800Y-143514649D01*
X92197800Y-143514649D02*
X92159704Y-143590840D01*
X92159704Y-143590840D02*
X92159704Y-143819411D01*
X92159704Y-143819411D02*
X92197800Y-143895602D01*
X92197800Y-143895602D02*
X92235895Y-143933697D01*
X92959704Y-142714649D02*
X92959704Y-143095601D01*
X92959704Y-143095601D02*
X92578752Y-143133697D01*
X92578752Y-143133697D02*
X92616847Y-143095601D01*
X92616847Y-143095601D02*
X92654942Y-143019411D01*
X92654942Y-143019411D02*
X92654942Y-142828935D01*
X92654942Y-142828935D02*
X92616847Y-142752744D01*
X92616847Y-142752744D02*
X92578752Y-142714649D01*
X92578752Y-142714649D02*
X92502561Y-142676554D01*
X92502561Y-142676554D02*
X92312085Y-142676554D01*
X92312085Y-142676554D02*
X92235895Y-142714649D01*
X92235895Y-142714649D02*
X92197800Y-142752744D01*
X92197800Y-142752744D02*
X92159704Y-142828935D01*
X92159704Y-142828935D02*
X92159704Y-143019411D01*
X92159704Y-143019411D02*
X92197800Y-143095601D01*
X92197800Y-143095601D02*
X92235895Y-143133697D01*
X92959704Y-142447982D02*
X92159704Y-142181315D01*
X92159704Y-142181315D02*
X92959704Y-141914649D01*
X103573887Y-163434295D02*
X103954839Y-163434295D01*
X103954839Y-163434295D02*
X103992935Y-163815247D01*
X103992935Y-163815247D02*
X103954839Y-163777152D01*
X103954839Y-163777152D02*
X103878649Y-163739057D01*
X103878649Y-163739057D02*
X103688173Y-163739057D01*
X103688173Y-163739057D02*
X103611982Y-163777152D01*
X103611982Y-163777152D02*
X103573887Y-163815247D01*
X103573887Y-163815247D02*
X103535792Y-163891438D01*
X103535792Y-163891438D02*
X103535792Y-164081914D01*
X103535792Y-164081914D02*
X103573887Y-164158104D01*
X103573887Y-164158104D02*
X103611982Y-164196200D01*
X103611982Y-164196200D02*
X103688173Y-164234295D01*
X103688173Y-164234295D02*
X103878649Y-164234295D01*
X103878649Y-164234295D02*
X103954839Y-164196200D01*
X103954839Y-164196200D02*
X103992935Y-164158104D01*
X103192934Y-164158104D02*
X103154839Y-164196200D01*
X103154839Y-164196200D02*
X103192934Y-164234295D01*
X103192934Y-164234295D02*
X103231030Y-164196200D01*
X103231030Y-164196200D02*
X103192934Y-164158104D01*
X103192934Y-164158104D02*
X103192934Y-164234295D01*
X102431030Y-163434295D02*
X102811982Y-163434295D01*
X102811982Y-163434295D02*
X102850078Y-163815247D01*
X102850078Y-163815247D02*
X102811982Y-163777152D01*
X102811982Y-163777152D02*
X102735792Y-163739057D01*
X102735792Y-163739057D02*
X102545316Y-163739057D01*
X102545316Y-163739057D02*
X102469125Y-163777152D01*
X102469125Y-163777152D02*
X102431030Y-163815247D01*
X102431030Y-163815247D02*
X102392935Y-163891438D01*
X102392935Y-163891438D02*
X102392935Y-164081914D01*
X102392935Y-164081914D02*
X102431030Y-164158104D01*
X102431030Y-164158104D02*
X102469125Y-164196200D01*
X102469125Y-164196200D02*
X102545316Y-164234295D01*
X102545316Y-164234295D02*
X102735792Y-164234295D01*
X102735792Y-164234295D02*
X102811982Y-164196200D01*
X102811982Y-164196200D02*
X102850078Y-164158104D01*
X102050077Y-163929533D02*
X101440554Y-163929533D01*
X100640554Y-164234295D02*
X101097697Y-164234295D01*
X100869125Y-164234295D02*
X100869125Y-163434295D01*
X100869125Y-163434295D02*
X100945316Y-163548580D01*
X100945316Y-163548580D02*
X101021506Y-163624771D01*
X101021506Y-163624771D02*
X101097697Y-163662866D01*
X100183411Y-163777152D02*
X100259601Y-163739057D01*
X100259601Y-163739057D02*
X100297696Y-163700961D01*
X100297696Y-163700961D02*
X100335792Y-163624771D01*
X100335792Y-163624771D02*
X100335792Y-163586676D01*
X100335792Y-163586676D02*
X100297696Y-163510485D01*
X100297696Y-163510485D02*
X100259601Y-163472390D01*
X100259601Y-163472390D02*
X100183411Y-163434295D01*
X100183411Y-163434295D02*
X100031030Y-163434295D01*
X100031030Y-163434295D02*
X99954839Y-163472390D01*
X99954839Y-163472390D02*
X99916744Y-163510485D01*
X99916744Y-163510485D02*
X99878649Y-163586676D01*
X99878649Y-163586676D02*
X99878649Y-163624771D01*
X99878649Y-163624771D02*
X99916744Y-163700961D01*
X99916744Y-163700961D02*
X99954839Y-163739057D01*
X99954839Y-163739057D02*
X100031030Y-163777152D01*
X100031030Y-163777152D02*
X100183411Y-163777152D01*
X100183411Y-163777152D02*
X100259601Y-163815247D01*
X100259601Y-163815247D02*
X100297696Y-163853342D01*
X100297696Y-163853342D02*
X100335792Y-163929533D01*
X100335792Y-163929533D02*
X100335792Y-164081914D01*
X100335792Y-164081914D02*
X100297696Y-164158104D01*
X100297696Y-164158104D02*
X100259601Y-164196200D01*
X100259601Y-164196200D02*
X100183411Y-164234295D01*
X100183411Y-164234295D02*
X100031030Y-164234295D01*
X100031030Y-164234295D02*
X99954839Y-164196200D01*
X99954839Y-164196200D02*
X99916744Y-164158104D01*
X99916744Y-164158104D02*
X99878649Y-164081914D01*
X99878649Y-164081914D02*
X99878649Y-163929533D01*
X99878649Y-163929533D02*
X99916744Y-163853342D01*
X99916744Y-163853342D02*
X99954839Y-163815247D01*
X99954839Y-163815247D02*
X100031030Y-163777152D01*
X99650077Y-163434295D02*
X99383410Y-164234295D01*
X99383410Y-164234295D02*
X99116744Y-163434295D01*
X149002935Y-146175723D02*
X148621982Y-146175723D01*
X149079125Y-146404295D02*
X148812458Y-145604295D01*
X148812458Y-145604295D02*
X148545792Y-146404295D01*
X147860078Y-146404295D02*
X148317221Y-146404295D01*
X148088649Y-146404295D02*
X148088649Y-145604295D01*
X148088649Y-145604295D02*
X148164840Y-145718580D01*
X148164840Y-145718580D02*
X148241030Y-145794771D01*
X148241030Y-145794771D02*
X148317221Y-145832866D01*
X171749684Y-76787858D02*
X171749684Y-77359286D01*
X171749684Y-77359286D02*
X171787779Y-77473572D01*
X171787779Y-77473572D02*
X171863970Y-77549763D01*
X171863970Y-77549763D02*
X171978255Y-77587858D01*
X171978255Y-77587858D02*
X172054446Y-77587858D01*
X170949684Y-77587858D02*
X171406827Y-77587858D01*
X171178255Y-77587858D02*
X171178255Y-76787858D01*
X171178255Y-76787858D02*
X171254446Y-76902143D01*
X171254446Y-76902143D02*
X171330636Y-76978334D01*
X171330636Y-76978334D02*
X171406827Y-77016429D01*
X170454445Y-76787858D02*
X170378255Y-76787858D01*
X170378255Y-76787858D02*
X170302064Y-76825953D01*
X170302064Y-76825953D02*
X170263969Y-76864048D01*
X170263969Y-76864048D02*
X170225874Y-76940239D01*
X170225874Y-76940239D02*
X170187779Y-77092620D01*
X170187779Y-77092620D02*
X170187779Y-77283096D01*
X170187779Y-77283096D02*
X170225874Y-77435477D01*
X170225874Y-77435477D02*
X170263969Y-77511667D01*
X170263969Y-77511667D02*
X170302064Y-77549763D01*
X170302064Y-77549763D02*
X170378255Y-77587858D01*
X170378255Y-77587858D02*
X170454445Y-77587858D01*
X170454445Y-77587858D02*
X170530636Y-77549763D01*
X170530636Y-77549763D02*
X170568731Y-77511667D01*
X170568731Y-77511667D02*
X170606826Y-77435477D01*
X170606826Y-77435477D02*
X170644922Y-77283096D01*
X170644922Y-77283096D02*
X170644922Y-77092620D01*
X170644922Y-77092620D02*
X170606826Y-76940239D01*
X170606826Y-76940239D02*
X170568731Y-76864048D01*
X170568731Y-76864048D02*
X170530636Y-76825953D01*
X170530636Y-76825953D02*
X170454445Y-76787858D01*
X169844921Y-77283096D02*
X169235398Y-77283096D01*
X168397302Y-77587858D02*
X168663969Y-77206905D01*
X168854445Y-77587858D02*
X168854445Y-76787858D01*
X168854445Y-76787858D02*
X168549683Y-76787858D01*
X168549683Y-76787858D02*
X168473493Y-76825953D01*
X168473493Y-76825953D02*
X168435398Y-76864048D01*
X168435398Y-76864048D02*
X168397302Y-76940239D01*
X168397302Y-76940239D02*
X168397302Y-77054524D01*
X168397302Y-77054524D02*
X168435398Y-77130715D01*
X168435398Y-77130715D02*
X168473493Y-77168810D01*
X168473493Y-77168810D02*
X168549683Y-77206905D01*
X168549683Y-77206905D02*
X168854445Y-77206905D01*
X167787779Y-77168810D02*
X168054445Y-77168810D01*
X168054445Y-77587858D02*
X168054445Y-76787858D01*
X168054445Y-76787858D02*
X167673493Y-76787858D01*
X166606826Y-76787858D02*
X166454445Y-76787858D01*
X166454445Y-76787858D02*
X166378255Y-76825953D01*
X166378255Y-76825953D02*
X166302064Y-76902143D01*
X166302064Y-76902143D02*
X166263969Y-77054524D01*
X166263969Y-77054524D02*
X166263969Y-77321191D01*
X166263969Y-77321191D02*
X166302064Y-77473572D01*
X166302064Y-77473572D02*
X166378255Y-77549763D01*
X166378255Y-77549763D02*
X166454445Y-77587858D01*
X166454445Y-77587858D02*
X166606826Y-77587858D01*
X166606826Y-77587858D02*
X166683017Y-77549763D01*
X166683017Y-77549763D02*
X166759207Y-77473572D01*
X166759207Y-77473572D02*
X166797303Y-77321191D01*
X166797303Y-77321191D02*
X166797303Y-77054524D01*
X166797303Y-77054524D02*
X166759207Y-76902143D01*
X166759207Y-76902143D02*
X166683017Y-76825953D01*
X166683017Y-76825953D02*
X166606826Y-76787858D01*
X165921112Y-76787858D02*
X165921112Y-77435477D01*
X165921112Y-77435477D02*
X165883017Y-77511667D01*
X165883017Y-77511667D02*
X165844922Y-77549763D01*
X165844922Y-77549763D02*
X165768731Y-77587858D01*
X165768731Y-77587858D02*
X165616350Y-77587858D01*
X165616350Y-77587858D02*
X165540160Y-77549763D01*
X165540160Y-77549763D02*
X165502065Y-77511667D01*
X165502065Y-77511667D02*
X165463969Y-77435477D01*
X165463969Y-77435477D02*
X165463969Y-76787858D01*
X165197303Y-76787858D02*
X164740160Y-76787858D01*
X164968732Y-77587858D02*
X164968732Y-76787858D01*
X167595792Y-82032390D02*
X167671982Y-81994295D01*
X167671982Y-81994295D02*
X167786268Y-81994295D01*
X167786268Y-81994295D02*
X167900554Y-82032390D01*
X167900554Y-82032390D02*
X167976744Y-82108580D01*
X167976744Y-82108580D02*
X168014839Y-82184771D01*
X168014839Y-82184771D02*
X168052935Y-82337152D01*
X168052935Y-82337152D02*
X168052935Y-82451438D01*
X168052935Y-82451438D02*
X168014839Y-82603819D01*
X168014839Y-82603819D02*
X167976744Y-82680009D01*
X167976744Y-82680009D02*
X167900554Y-82756200D01*
X167900554Y-82756200D02*
X167786268Y-82794295D01*
X167786268Y-82794295D02*
X167710077Y-82794295D01*
X167710077Y-82794295D02*
X167595792Y-82756200D01*
X167595792Y-82756200D02*
X167557696Y-82718104D01*
X167557696Y-82718104D02*
X167557696Y-82451438D01*
X167557696Y-82451438D02*
X167710077Y-82451438D01*
X167214839Y-82794295D02*
X167214839Y-81994295D01*
X167214839Y-81994295D02*
X166757696Y-82794295D01*
X166757696Y-82794295D02*
X166757696Y-81994295D01*
X166376744Y-82794295D02*
X166376744Y-81994295D01*
X166376744Y-81994295D02*
X166186268Y-81994295D01*
X166186268Y-81994295D02*
X166071982Y-82032390D01*
X166071982Y-82032390D02*
X165995792Y-82108580D01*
X165995792Y-82108580D02*
X165957697Y-82184771D01*
X165957697Y-82184771D02*
X165919601Y-82337152D01*
X165919601Y-82337152D02*
X165919601Y-82451438D01*
X165919601Y-82451438D02*
X165957697Y-82603819D01*
X165957697Y-82603819D02*
X165995792Y-82680009D01*
X165995792Y-82680009D02*
X166071982Y-82756200D01*
X166071982Y-82756200D02*
X166186268Y-82794295D01*
X166186268Y-82794295D02*
X166376744Y-82794295D01*
X127625661Y-109666011D02*
X127016138Y-109666011D01*
X127320899Y-109970773D02*
X127320899Y-109361249D01*
X108975141Y-157184245D02*
X109356093Y-157184245D01*
X109356093Y-157184245D02*
X109394189Y-157565197D01*
X109394189Y-157565197D02*
X109356093Y-157527102D01*
X109356093Y-157527102D02*
X109279903Y-157489007D01*
X109279903Y-157489007D02*
X109089427Y-157489007D01*
X109089427Y-157489007D02*
X109013236Y-157527102D01*
X109013236Y-157527102D02*
X108975141Y-157565197D01*
X108975141Y-157565197D02*
X108937046Y-157641388D01*
X108937046Y-157641388D02*
X108937046Y-157831864D01*
X108937046Y-157831864D02*
X108975141Y-157908054D01*
X108975141Y-157908054D02*
X109013236Y-157946150D01*
X109013236Y-157946150D02*
X109089427Y-157984245D01*
X109089427Y-157984245D02*
X109279903Y-157984245D01*
X109279903Y-157984245D02*
X109356093Y-157946150D01*
X109356093Y-157946150D02*
X109394189Y-157908054D01*
X108708474Y-157184245D02*
X108441807Y-157984245D01*
X108441807Y-157984245D02*
X108175141Y-157184245D01*
X108975141Y-159272200D02*
X109356093Y-159272200D01*
X109356093Y-159272200D02*
X109356093Y-158472200D01*
X108594189Y-159272200D02*
X108670379Y-159234105D01*
X108670379Y-159234105D02*
X108708474Y-159196009D01*
X108708474Y-159196009D02*
X108746570Y-159119819D01*
X108746570Y-159119819D02*
X108746570Y-158891247D01*
X108746570Y-158891247D02*
X108708474Y-158815057D01*
X108708474Y-158815057D02*
X108670379Y-158776962D01*
X108670379Y-158776962D02*
X108594189Y-158738866D01*
X108594189Y-158738866D02*
X108479903Y-158738866D01*
X108479903Y-158738866D02*
X108403712Y-158776962D01*
X108403712Y-158776962D02*
X108365617Y-158815057D01*
X108365617Y-158815057D02*
X108327522Y-158891247D01*
X108327522Y-158891247D02*
X108327522Y-159119819D01*
X108327522Y-159119819D02*
X108365617Y-159196009D01*
X108365617Y-159196009D02*
X108403712Y-159234105D01*
X108403712Y-159234105D02*
X108479903Y-159272200D01*
X108479903Y-159272200D02*
X108594189Y-159272200D01*
X107641807Y-159234105D02*
X107717998Y-159272200D01*
X107717998Y-159272200D02*
X107870379Y-159272200D01*
X107870379Y-159272200D02*
X107946569Y-159234105D01*
X107946569Y-159234105D02*
X107984664Y-159196009D01*
X107984664Y-159196009D02*
X108022760Y-159119819D01*
X108022760Y-159119819D02*
X108022760Y-158891247D01*
X108022760Y-158891247D02*
X107984664Y-158815057D01*
X107984664Y-158815057D02*
X107946569Y-158776962D01*
X107946569Y-158776962D02*
X107870379Y-158738866D01*
X107870379Y-158738866D02*
X107717998Y-158738866D01*
X107717998Y-158738866D02*
X107641807Y-158776962D01*
X106956093Y-159272200D02*
X106956093Y-158853152D01*
X106956093Y-158853152D02*
X106994188Y-158776962D01*
X106994188Y-158776962D02*
X107070379Y-158738866D01*
X107070379Y-158738866D02*
X107222760Y-158738866D01*
X107222760Y-158738866D02*
X107298950Y-158776962D01*
X106956093Y-159234105D02*
X107032284Y-159272200D01*
X107032284Y-159272200D02*
X107222760Y-159272200D01*
X107222760Y-159272200D02*
X107298950Y-159234105D01*
X107298950Y-159234105D02*
X107337046Y-159157914D01*
X107337046Y-159157914D02*
X107337046Y-159081724D01*
X107337046Y-159081724D02*
X107298950Y-159005533D01*
X107298950Y-159005533D02*
X107222760Y-158967438D01*
X107222760Y-158967438D02*
X107032284Y-158967438D01*
X107032284Y-158967438D02*
X106956093Y-158929343D01*
X106460855Y-159272200D02*
X106537045Y-159234105D01*
X106537045Y-159234105D02*
X106575140Y-159157914D01*
X106575140Y-159157914D02*
X106575140Y-158472200D01*
X168588061Y-83751549D02*
X168588061Y-83370597D01*
X168588061Y-83370597D02*
X168969013Y-83332501D01*
X168969013Y-83332501D02*
X168930918Y-83370597D01*
X168930918Y-83370597D02*
X168892823Y-83446787D01*
X168892823Y-83446787D02*
X168892823Y-83637263D01*
X168892823Y-83637263D02*
X168930918Y-83713454D01*
X168930918Y-83713454D02*
X168969013Y-83751549D01*
X168969013Y-83751549D02*
X169045204Y-83789644D01*
X169045204Y-83789644D02*
X169235680Y-83789644D01*
X169235680Y-83789644D02*
X169311870Y-83751549D01*
X169311870Y-83751549D02*
X169349966Y-83713454D01*
X169349966Y-83713454D02*
X169388061Y-83637263D01*
X169388061Y-83637263D02*
X169388061Y-83446787D01*
X169388061Y-83446787D02*
X169349966Y-83370597D01*
X169349966Y-83370597D02*
X169311870Y-83332501D01*
X169311870Y-84132502D02*
X169349966Y-84170597D01*
X169349966Y-84170597D02*
X169388061Y-84132502D01*
X169388061Y-84132502D02*
X169349966Y-84094406D01*
X169349966Y-84094406D02*
X169311870Y-84132502D01*
X169311870Y-84132502D02*
X169388061Y-84132502D01*
X168588061Y-84894406D02*
X168588061Y-84513454D01*
X168588061Y-84513454D02*
X168969013Y-84475358D01*
X168969013Y-84475358D02*
X168930918Y-84513454D01*
X168930918Y-84513454D02*
X168892823Y-84589644D01*
X168892823Y-84589644D02*
X168892823Y-84780120D01*
X168892823Y-84780120D02*
X168930918Y-84856311D01*
X168930918Y-84856311D02*
X168969013Y-84894406D01*
X168969013Y-84894406D02*
X169045204Y-84932501D01*
X169045204Y-84932501D02*
X169235680Y-84932501D01*
X169235680Y-84932501D02*
X169311870Y-84894406D01*
X169311870Y-84894406D02*
X169349966Y-84856311D01*
X169349966Y-84856311D02*
X169388061Y-84780120D01*
X169388061Y-84780120D02*
X169388061Y-84589644D01*
X169388061Y-84589644D02*
X169349966Y-84513454D01*
X169349966Y-84513454D02*
X169311870Y-84475358D01*
X169083299Y-85275359D02*
X169083299Y-85884883D01*
X169388061Y-86303930D02*
X169388061Y-86456311D01*
X169388061Y-86456311D02*
X169349966Y-86532501D01*
X169349966Y-86532501D02*
X169311870Y-86570597D01*
X169311870Y-86570597D02*
X169197585Y-86646787D01*
X169197585Y-86646787D02*
X169045204Y-86684882D01*
X169045204Y-86684882D02*
X168740442Y-86684882D01*
X168740442Y-86684882D02*
X168664251Y-86646787D01*
X168664251Y-86646787D02*
X168626156Y-86608692D01*
X168626156Y-86608692D02*
X168588061Y-86532501D01*
X168588061Y-86532501D02*
X168588061Y-86380120D01*
X168588061Y-86380120D02*
X168626156Y-86303930D01*
X168626156Y-86303930D02*
X168664251Y-86265835D01*
X168664251Y-86265835D02*
X168740442Y-86227739D01*
X168740442Y-86227739D02*
X168930918Y-86227739D01*
X168930918Y-86227739D02*
X169007108Y-86265835D01*
X169007108Y-86265835D02*
X169045204Y-86303930D01*
X169045204Y-86303930D02*
X169083299Y-86380120D01*
X169083299Y-86380120D02*
X169083299Y-86532501D01*
X169083299Y-86532501D02*
X169045204Y-86608692D01*
X169045204Y-86608692D02*
X169007108Y-86646787D01*
X169007108Y-86646787D02*
X168930918Y-86684882D01*
X168588061Y-86913454D02*
X169388061Y-87180121D01*
X169388061Y-87180121D02*
X168588061Y-87446787D01*
X164724748Y-82868664D02*
X163924748Y-82868664D01*
X163924748Y-82868664D02*
X163924748Y-83173426D01*
X163924748Y-83173426D02*
X163962843Y-83249616D01*
X163962843Y-83249616D02*
X164000938Y-83287711D01*
X164000938Y-83287711D02*
X164077129Y-83325807D01*
X164077129Y-83325807D02*
X164191414Y-83325807D01*
X164191414Y-83325807D02*
X164267605Y-83287711D01*
X164267605Y-83287711D02*
X164305700Y-83249616D01*
X164305700Y-83249616D02*
X164343795Y-83173426D01*
X164343795Y-83173426D02*
X164343795Y-82868664D01*
X164496176Y-83630568D02*
X164496176Y-84011521D01*
X164724748Y-83554378D02*
X163924748Y-83821045D01*
X163924748Y-83821045D02*
X164724748Y-84087711D01*
X163924748Y-85344854D02*
X163924748Y-84963902D01*
X163924748Y-84963902D02*
X164305700Y-84925806D01*
X164305700Y-84925806D02*
X164267605Y-84963902D01*
X164267605Y-84963902D02*
X164229510Y-85040092D01*
X164229510Y-85040092D02*
X164229510Y-85230568D01*
X164229510Y-85230568D02*
X164267605Y-85306759D01*
X164267605Y-85306759D02*
X164305700Y-85344854D01*
X164305700Y-85344854D02*
X164381891Y-85382949D01*
X164381891Y-85382949D02*
X164572367Y-85382949D01*
X164572367Y-85382949D02*
X164648557Y-85344854D01*
X164648557Y-85344854D02*
X164686653Y-85306759D01*
X164686653Y-85306759D02*
X164724748Y-85230568D01*
X164724748Y-85230568D02*
X164724748Y-85040092D01*
X164724748Y-85040092D02*
X164686653Y-84963902D01*
X164686653Y-84963902D02*
X164648557Y-84925806D01*
X164419986Y-85725807D02*
X164419986Y-86335331D01*
X164724748Y-87135330D02*
X164724748Y-86678187D01*
X164724748Y-86906759D02*
X163924748Y-86906759D01*
X163924748Y-86906759D02*
X164039033Y-86830568D01*
X164039033Y-86830568D02*
X164115224Y-86754378D01*
X164115224Y-86754378D02*
X164153319Y-86678187D01*
X164000938Y-87440092D02*
X163962843Y-87478188D01*
X163962843Y-87478188D02*
X163924748Y-87554378D01*
X163924748Y-87554378D02*
X163924748Y-87744854D01*
X163924748Y-87744854D02*
X163962843Y-87821045D01*
X163962843Y-87821045D02*
X164000938Y-87859140D01*
X164000938Y-87859140D02*
X164077129Y-87897235D01*
X164077129Y-87897235D02*
X164153319Y-87897235D01*
X164153319Y-87897235D02*
X164267605Y-87859140D01*
X164267605Y-87859140D02*
X164724748Y-87401997D01*
X164724748Y-87401997D02*
X164724748Y-87897235D01*
X163924748Y-88125807D02*
X164724748Y-88392474D01*
X164724748Y-88392474D02*
X163924748Y-88659140D01*
X163761796Y-77426602D02*
X163761796Y-76626602D01*
X163761796Y-76626602D02*
X163457034Y-76626602D01*
X163457034Y-76626602D02*
X163380844Y-76664697D01*
X163380844Y-76664697D02*
X163342749Y-76702792D01*
X163342749Y-76702792D02*
X163304653Y-76778983D01*
X163304653Y-76778983D02*
X163304653Y-76893268D01*
X163304653Y-76893268D02*
X163342749Y-76969459D01*
X163342749Y-76969459D02*
X163380844Y-77007554D01*
X163380844Y-77007554D02*
X163457034Y-77045649D01*
X163457034Y-77045649D02*
X163761796Y-77045649D01*
X162618939Y-77426602D02*
X162618939Y-77007554D01*
X162618939Y-77007554D02*
X162657034Y-76931364D01*
X162657034Y-76931364D02*
X162733225Y-76893268D01*
X162733225Y-76893268D02*
X162885606Y-76893268D01*
X162885606Y-76893268D02*
X162961796Y-76931364D01*
X162618939Y-77388507D02*
X162695130Y-77426602D01*
X162695130Y-77426602D02*
X162885606Y-77426602D01*
X162885606Y-77426602D02*
X162961796Y-77388507D01*
X162961796Y-77388507D02*
X162999892Y-77312316D01*
X162999892Y-77312316D02*
X162999892Y-77236126D01*
X162999892Y-77236126D02*
X162961796Y-77159935D01*
X162961796Y-77159935D02*
X162885606Y-77121840D01*
X162885606Y-77121840D02*
X162695130Y-77121840D01*
X162695130Y-77121840D02*
X162618939Y-77083745D01*
X162352272Y-76893268D02*
X162047510Y-76893268D01*
X162237986Y-76626602D02*
X162237986Y-77312316D01*
X162237986Y-77312316D02*
X162199891Y-77388507D01*
X162199891Y-77388507D02*
X162123701Y-77426602D01*
X162123701Y-77426602D02*
X162047510Y-77426602D01*
X161780843Y-77426602D02*
X161780843Y-76626602D01*
X161437986Y-77426602D02*
X161437986Y-77007554D01*
X161437986Y-77007554D02*
X161476081Y-76931364D01*
X161476081Y-76931364D02*
X161552272Y-76893268D01*
X161552272Y-76893268D02*
X161666558Y-76893268D01*
X161666558Y-76893268D02*
X161742748Y-76931364D01*
X161742748Y-76931364D02*
X161780843Y-76969459D01*
X159990366Y-77350411D02*
X160028462Y-77388507D01*
X160028462Y-77388507D02*
X160142747Y-77426602D01*
X160142747Y-77426602D02*
X160218938Y-77426602D01*
X160218938Y-77426602D02*
X160333224Y-77388507D01*
X160333224Y-77388507D02*
X160409414Y-77312316D01*
X160409414Y-77312316D02*
X160447509Y-77236126D01*
X160447509Y-77236126D02*
X160485605Y-77083745D01*
X160485605Y-77083745D02*
X160485605Y-76969459D01*
X160485605Y-76969459D02*
X160447509Y-76817078D01*
X160447509Y-76817078D02*
X160409414Y-76740887D01*
X160409414Y-76740887D02*
X160333224Y-76664697D01*
X160333224Y-76664697D02*
X160218938Y-76626602D01*
X160218938Y-76626602D02*
X160142747Y-76626602D01*
X160142747Y-76626602D02*
X160028462Y-76664697D01*
X160028462Y-76664697D02*
X159990366Y-76702792D01*
X124944839Y-80594295D02*
X124944839Y-79794295D01*
X124944839Y-79794295D02*
X124640077Y-79794295D01*
X124640077Y-79794295D02*
X124563887Y-79832390D01*
X124563887Y-79832390D02*
X124525792Y-79870485D01*
X124525792Y-79870485D02*
X124487696Y-79946676D01*
X124487696Y-79946676D02*
X124487696Y-80060961D01*
X124487696Y-80060961D02*
X124525792Y-80137152D01*
X124525792Y-80137152D02*
X124563887Y-80175247D01*
X124563887Y-80175247D02*
X124640077Y-80213342D01*
X124640077Y-80213342D02*
X124944839Y-80213342D01*
X123725792Y-80594295D02*
X124182935Y-80594295D01*
X123954363Y-80594295D02*
X123954363Y-79794295D01*
X123954363Y-79794295D02*
X124030554Y-79908580D01*
X124030554Y-79908580D02*
X124106744Y-79984771D01*
X124106744Y-79984771D02*
X124182935Y-80022866D01*
X93534839Y-127694295D02*
X93534839Y-126894295D01*
X93534839Y-126894295D02*
X93230077Y-126894295D01*
X93230077Y-126894295D02*
X93153887Y-126932390D01*
X93153887Y-126932390D02*
X93115792Y-126970485D01*
X93115792Y-126970485D02*
X93077696Y-127046676D01*
X93077696Y-127046676D02*
X93077696Y-127160961D01*
X93077696Y-127160961D02*
X93115792Y-127237152D01*
X93115792Y-127237152D02*
X93153887Y-127275247D01*
X93153887Y-127275247D02*
X93230077Y-127313342D01*
X93230077Y-127313342D02*
X93534839Y-127313342D01*
X92734839Y-127694295D02*
X92734839Y-127160961D01*
X92734839Y-127313342D02*
X92696744Y-127237152D01*
X92696744Y-127237152D02*
X92658649Y-127199057D01*
X92658649Y-127199057D02*
X92582458Y-127160961D01*
X92582458Y-127160961D02*
X92506268Y-127160961D01*
X91896744Y-127160961D02*
X91896744Y-127808580D01*
X91896744Y-127808580D02*
X91934839Y-127884771D01*
X91934839Y-127884771D02*
X91972935Y-127922866D01*
X91972935Y-127922866D02*
X92049125Y-127960961D01*
X92049125Y-127960961D02*
X92163411Y-127960961D01*
X92163411Y-127960961D02*
X92239601Y-127922866D01*
X91896744Y-127656200D02*
X91972935Y-127694295D01*
X91972935Y-127694295D02*
X92125316Y-127694295D01*
X92125316Y-127694295D02*
X92201506Y-127656200D01*
X92201506Y-127656200D02*
X92239601Y-127618104D01*
X92239601Y-127618104D02*
X92277697Y-127541914D01*
X92277697Y-127541914D02*
X92277697Y-127313342D01*
X92277697Y-127313342D02*
X92239601Y-127237152D01*
X92239601Y-127237152D02*
X92201506Y-127199057D01*
X92201506Y-127199057D02*
X92125316Y-127160961D01*
X92125316Y-127160961D02*
X91972935Y-127160961D01*
X91972935Y-127160961D02*
X91896744Y-127199057D01*
X91515791Y-127694295D02*
X91515791Y-127160961D01*
X91515791Y-127237152D02*
X91477696Y-127199057D01*
X91477696Y-127199057D02*
X91401506Y-127160961D01*
X91401506Y-127160961D02*
X91287220Y-127160961D01*
X91287220Y-127160961D02*
X91211029Y-127199057D01*
X91211029Y-127199057D02*
X91172934Y-127275247D01*
X91172934Y-127275247D02*
X91172934Y-127694295D01*
X91172934Y-127275247D02*
X91134839Y-127199057D01*
X91134839Y-127199057D02*
X91058648Y-127160961D01*
X91058648Y-127160961D02*
X90944363Y-127160961D01*
X90944363Y-127160961D02*
X90868172Y-127199057D01*
X90868172Y-127199057D02*
X90830077Y-127275247D01*
X90830077Y-127275247D02*
X90830077Y-127694295D01*
X90030077Y-127694295D02*
X90487220Y-127694295D01*
X90258648Y-127694295D02*
X90258648Y-126894295D01*
X90258648Y-126894295D02*
X90334839Y-127008580D01*
X90334839Y-127008580D02*
X90411029Y-127084771D01*
X90411029Y-127084771D02*
X90487220Y-127122866D01*
X119713753Y-158325445D02*
X119713753Y-158896873D01*
X119713753Y-158896873D02*
X119751848Y-159011159D01*
X119751848Y-159011159D02*
X119828039Y-159087350D01*
X119828039Y-159087350D02*
X119942324Y-159125445D01*
X119942324Y-159125445D02*
X120018515Y-159125445D01*
X118913753Y-159125445D02*
X119370896Y-159125445D01*
X119142324Y-159125445D02*
X119142324Y-158325445D01*
X119142324Y-158325445D02*
X119218515Y-158439730D01*
X119218515Y-158439730D02*
X119294705Y-158515921D01*
X119294705Y-158515921D02*
X119370896Y-158554016D01*
X92915792Y-124472390D02*
X92991982Y-124434295D01*
X92991982Y-124434295D02*
X93106268Y-124434295D01*
X93106268Y-124434295D02*
X93220554Y-124472390D01*
X93220554Y-124472390D02*
X93296744Y-124548580D01*
X93296744Y-124548580D02*
X93334839Y-124624771D01*
X93334839Y-124624771D02*
X93372935Y-124777152D01*
X93372935Y-124777152D02*
X93372935Y-124891438D01*
X93372935Y-124891438D02*
X93334839Y-125043819D01*
X93334839Y-125043819D02*
X93296744Y-125120009D01*
X93296744Y-125120009D02*
X93220554Y-125196200D01*
X93220554Y-125196200D02*
X93106268Y-125234295D01*
X93106268Y-125234295D02*
X93030077Y-125234295D01*
X93030077Y-125234295D02*
X92915792Y-125196200D01*
X92915792Y-125196200D02*
X92877696Y-125158104D01*
X92877696Y-125158104D02*
X92877696Y-124891438D01*
X92877696Y-124891438D02*
X93030077Y-124891438D01*
X92534839Y-125234295D02*
X92534839Y-124434295D01*
X92534839Y-124434295D02*
X92077696Y-125234295D01*
X92077696Y-125234295D02*
X92077696Y-124434295D01*
X91696744Y-125234295D02*
X91696744Y-124434295D01*
X91696744Y-124434295D02*
X91506268Y-124434295D01*
X91506268Y-124434295D02*
X91391982Y-124472390D01*
X91391982Y-124472390D02*
X91315792Y-124548580D01*
X91315792Y-124548580D02*
X91277697Y-124624771D01*
X91277697Y-124624771D02*
X91239601Y-124777152D01*
X91239601Y-124777152D02*
X91239601Y-124891438D01*
X91239601Y-124891438D02*
X91277697Y-125043819D01*
X91277697Y-125043819D02*
X91315792Y-125120009D01*
X91315792Y-125120009D02*
X91391982Y-125196200D01*
X91391982Y-125196200D02*
X91506268Y-125234295D01*
X91506268Y-125234295D02*
X91696744Y-125234295D01*
X169375637Y-77697603D02*
X170175637Y-78230937D01*
X169375637Y-78230937D02*
X170175637Y-77697603D01*
X170175637Y-78535699D02*
X169642303Y-78535699D01*
X169718494Y-78535699D02*
X169680399Y-78573794D01*
X169680399Y-78573794D02*
X169642303Y-78649984D01*
X169642303Y-78649984D02*
X169642303Y-78764270D01*
X169642303Y-78764270D02*
X169680399Y-78840461D01*
X169680399Y-78840461D02*
X169756589Y-78878556D01*
X169756589Y-78878556D02*
X170175637Y-78878556D01*
X169756589Y-78878556D02*
X169680399Y-78916651D01*
X169680399Y-78916651D02*
X169642303Y-78992842D01*
X169642303Y-78992842D02*
X169642303Y-79107127D01*
X169642303Y-79107127D02*
X169680399Y-79183318D01*
X169680399Y-79183318D02*
X169756589Y-79221413D01*
X169756589Y-79221413D02*
X170175637Y-79221413D01*
X170175637Y-79602366D02*
X169642303Y-79602366D01*
X169375637Y-79602366D02*
X169413732Y-79564270D01*
X169413732Y-79564270D02*
X169451827Y-79602366D01*
X169451827Y-79602366D02*
X169413732Y-79640461D01*
X169413732Y-79640461D02*
X169375637Y-79602366D01*
X169375637Y-79602366D02*
X169451827Y-79602366D01*
X169642303Y-79869032D02*
X169642303Y-80173794D01*
X169375637Y-79983318D02*
X170061351Y-79983318D01*
X170061351Y-79983318D02*
X170137542Y-80021413D01*
X170137542Y-80021413D02*
X170175637Y-80097603D01*
X170175637Y-80097603D02*
X170175637Y-80173794D01*
X174073608Y-107066183D02*
X173692655Y-107066183D01*
X174149798Y-107294755D02*
X173883131Y-106494755D01*
X173883131Y-106494755D02*
X173616465Y-107294755D01*
X173349798Y-106761421D02*
X173349798Y-107294755D01*
X173349798Y-106837612D02*
X173311703Y-106799517D01*
X173311703Y-106799517D02*
X173235513Y-106761421D01*
X173235513Y-106761421D02*
X173121227Y-106761421D01*
X173121227Y-106761421D02*
X173045036Y-106799517D01*
X173045036Y-106799517D02*
X173006941Y-106875707D01*
X173006941Y-106875707D02*
X173006941Y-107294755D01*
X172283131Y-107294755D02*
X172283131Y-106875707D01*
X172283131Y-106875707D02*
X172321226Y-106799517D01*
X172321226Y-106799517D02*
X172397417Y-106761421D01*
X172397417Y-106761421D02*
X172549798Y-106761421D01*
X172549798Y-106761421D02*
X172625988Y-106799517D01*
X172283131Y-107256660D02*
X172359322Y-107294755D01*
X172359322Y-107294755D02*
X172549798Y-107294755D01*
X172549798Y-107294755D02*
X172625988Y-107256660D01*
X172625988Y-107256660D02*
X172664084Y-107180469D01*
X172664084Y-107180469D02*
X172664084Y-107104279D01*
X172664084Y-107104279D02*
X172625988Y-107028088D01*
X172625988Y-107028088D02*
X172549798Y-106989993D01*
X172549798Y-106989993D02*
X172359322Y-106989993D01*
X172359322Y-106989993D02*
X172283131Y-106951898D01*
X171787893Y-107294755D02*
X171864083Y-107256660D01*
X171864083Y-107256660D02*
X171902178Y-107180469D01*
X171902178Y-107180469D02*
X171902178Y-106494755D01*
X171368845Y-107294755D02*
X171445035Y-107256660D01*
X171445035Y-107256660D02*
X171483130Y-107218564D01*
X171483130Y-107218564D02*
X171521226Y-107142374D01*
X171521226Y-107142374D02*
X171521226Y-106913802D01*
X171521226Y-106913802D02*
X171483130Y-106837612D01*
X171483130Y-106837612D02*
X171445035Y-106799517D01*
X171445035Y-106799517D02*
X171368845Y-106761421D01*
X171368845Y-106761421D02*
X171254559Y-106761421D01*
X171254559Y-106761421D02*
X171178368Y-106799517D01*
X171178368Y-106799517D02*
X171140273Y-106837612D01*
X171140273Y-106837612D02*
X171102178Y-106913802D01*
X171102178Y-106913802D02*
X171102178Y-107142374D01*
X171102178Y-107142374D02*
X171140273Y-107218564D01*
X171140273Y-107218564D02*
X171178368Y-107256660D01*
X171178368Y-107256660D02*
X171254559Y-107294755D01*
X171254559Y-107294755D02*
X171368845Y-107294755D01*
X170416463Y-106761421D02*
X170416463Y-107409040D01*
X170416463Y-107409040D02*
X170454558Y-107485231D01*
X170454558Y-107485231D02*
X170492654Y-107523326D01*
X170492654Y-107523326D02*
X170568844Y-107561421D01*
X170568844Y-107561421D02*
X170683130Y-107561421D01*
X170683130Y-107561421D02*
X170759320Y-107523326D01*
X170416463Y-107256660D02*
X170492654Y-107294755D01*
X170492654Y-107294755D02*
X170645035Y-107294755D01*
X170645035Y-107294755D02*
X170721225Y-107256660D01*
X170721225Y-107256660D02*
X170759320Y-107218564D01*
X170759320Y-107218564D02*
X170797416Y-107142374D01*
X170797416Y-107142374D02*
X170797416Y-106913802D01*
X170797416Y-106913802D02*
X170759320Y-106837612D01*
X170759320Y-106837612D02*
X170721225Y-106799517D01*
X170721225Y-106799517D02*
X170645035Y-106761421D01*
X170645035Y-106761421D02*
X170492654Y-106761421D01*
X170492654Y-106761421D02*
X170416463Y-106799517D01*
X169464082Y-107256660D02*
X169349796Y-107294755D01*
X169349796Y-107294755D02*
X169159320Y-107294755D01*
X169159320Y-107294755D02*
X169083129Y-107256660D01*
X169083129Y-107256660D02*
X169045034Y-107218564D01*
X169045034Y-107218564D02*
X169006939Y-107142374D01*
X169006939Y-107142374D02*
X169006939Y-107066183D01*
X169006939Y-107066183D02*
X169045034Y-106989993D01*
X169045034Y-106989993D02*
X169083129Y-106951898D01*
X169083129Y-106951898D02*
X169159320Y-106913802D01*
X169159320Y-106913802D02*
X169311701Y-106875707D01*
X169311701Y-106875707D02*
X169387891Y-106837612D01*
X169387891Y-106837612D02*
X169425986Y-106799517D01*
X169425986Y-106799517D02*
X169464082Y-106723326D01*
X169464082Y-106723326D02*
X169464082Y-106647136D01*
X169464082Y-106647136D02*
X169425986Y-106570945D01*
X169425986Y-106570945D02*
X169387891Y-106532850D01*
X169387891Y-106532850D02*
X169311701Y-106494755D01*
X169311701Y-106494755D02*
X169121224Y-106494755D01*
X169121224Y-106494755D02*
X169006939Y-106532850D01*
X168740272Y-106494755D02*
X168549796Y-107294755D01*
X168549796Y-107294755D02*
X168397415Y-106723326D01*
X168397415Y-106723326D02*
X168245034Y-107294755D01*
X168245034Y-107294755D02*
X168054558Y-106494755D01*
X176639331Y-142423613D02*
X176601236Y-142347423D01*
X176601236Y-142347423D02*
X176601236Y-142233137D01*
X176601236Y-142233137D02*
X176639331Y-142118851D01*
X176639331Y-142118851D02*
X176715521Y-142042661D01*
X176715521Y-142042661D02*
X176791712Y-142004566D01*
X176791712Y-142004566D02*
X176944093Y-141966470D01*
X176944093Y-141966470D02*
X177058379Y-141966470D01*
X177058379Y-141966470D02*
X177210760Y-142004566D01*
X177210760Y-142004566D02*
X177286950Y-142042661D01*
X177286950Y-142042661D02*
X177363141Y-142118851D01*
X177363141Y-142118851D02*
X177401236Y-142233137D01*
X177401236Y-142233137D02*
X177401236Y-142309328D01*
X177401236Y-142309328D02*
X177363141Y-142423613D01*
X177363141Y-142423613D02*
X177325045Y-142461709D01*
X177325045Y-142461709D02*
X177058379Y-142461709D01*
X177058379Y-142461709D02*
X177058379Y-142309328D01*
X177401236Y-142804566D02*
X176601236Y-142804566D01*
X176601236Y-142804566D02*
X177401236Y-143261709D01*
X177401236Y-143261709D02*
X176601236Y-143261709D01*
X177401236Y-143642661D02*
X176601236Y-143642661D01*
X176601236Y-143642661D02*
X176601236Y-143833137D01*
X176601236Y-143833137D02*
X176639331Y-143947423D01*
X176639331Y-143947423D02*
X176715521Y-144023613D01*
X176715521Y-144023613D02*
X176791712Y-144061708D01*
X176791712Y-144061708D02*
X176944093Y-144099804D01*
X176944093Y-144099804D02*
X177058379Y-144099804D01*
X177058379Y-144099804D02*
X177210760Y-144061708D01*
X177210760Y-144061708D02*
X177286950Y-144023613D01*
X177286950Y-144023613D02*
X177363141Y-143947423D01*
X177363141Y-143947423D02*
X177401236Y-143833137D01*
X177401236Y-143833137D02*
X177401236Y-143642661D01*
X116772935Y-107905723D02*
X116391982Y-107905723D01*
X116849125Y-108134295D02*
X116582458Y-107334295D01*
X116582458Y-107334295D02*
X116315792Y-108134295D01*
X115630078Y-108134295D02*
X116087221Y-108134295D01*
X115858649Y-108134295D02*
X115858649Y-107334295D01*
X115858649Y-107334295D02*
X115934840Y-107448580D01*
X115934840Y-107448580D02*
X116011030Y-107524771D01*
X116011030Y-107524771D02*
X116087221Y-107562866D01*
X163911621Y-100550383D02*
X163911621Y-101121811D01*
X163911621Y-101121811D02*
X163949716Y-101236097D01*
X163949716Y-101236097D02*
X164025907Y-101312288D01*
X164025907Y-101312288D02*
X164140192Y-101350383D01*
X164140192Y-101350383D02*
X164216383Y-101350383D01*
X163111621Y-101350383D02*
X163568764Y-101350383D01*
X163340192Y-101350383D02*
X163340192Y-100550383D01*
X163340192Y-100550383D02*
X163416383Y-100664668D01*
X163416383Y-100664668D02*
X163492573Y-100740859D01*
X163492573Y-100740859D02*
X163568764Y-100778954D01*
X162425906Y-100817049D02*
X162425906Y-101350383D01*
X162616382Y-100512288D02*
X162806859Y-101083716D01*
X162806859Y-101083716D02*
X162311620Y-101083716D01*
X161473525Y-100550383D02*
X160940191Y-101350383D01*
X160940191Y-100550383D02*
X161473525Y-101350383D01*
X160673525Y-100626573D02*
X160635429Y-100588478D01*
X160635429Y-100588478D02*
X160559239Y-100550383D01*
X160559239Y-100550383D02*
X160368763Y-100550383D01*
X160368763Y-100550383D02*
X160292572Y-100588478D01*
X160292572Y-100588478D02*
X160254477Y-100626573D01*
X160254477Y-100626573D02*
X160216382Y-100702764D01*
X160216382Y-100702764D02*
X160216382Y-100778954D01*
X160216382Y-100778954D02*
X160254477Y-100893240D01*
X160254477Y-100893240D02*
X160711620Y-101350383D01*
X160711620Y-101350383D02*
X160216382Y-101350383D01*
X158806857Y-101350383D02*
X159073524Y-100969430D01*
X159264000Y-101350383D02*
X159264000Y-100550383D01*
X159264000Y-100550383D02*
X158959238Y-100550383D01*
X158959238Y-100550383D02*
X158883048Y-100588478D01*
X158883048Y-100588478D02*
X158844953Y-100626573D01*
X158844953Y-100626573D02*
X158806857Y-100702764D01*
X158806857Y-100702764D02*
X158806857Y-100817049D01*
X158806857Y-100817049D02*
X158844953Y-100893240D01*
X158844953Y-100893240D02*
X158883048Y-100931335D01*
X158883048Y-100931335D02*
X158959238Y-100969430D01*
X158959238Y-100969430D02*
X159264000Y-100969430D01*
X158197334Y-100931335D02*
X158464000Y-100931335D01*
X158464000Y-101350383D02*
X158464000Y-100550383D01*
X158464000Y-100550383D02*
X158083048Y-100550383D01*
X149312935Y-153855723D02*
X148931982Y-153855723D01*
X149389125Y-154084295D02*
X149122458Y-153284295D01*
X149122458Y-153284295D02*
X148855792Y-154084295D01*
X148551030Y-154084295D02*
X148398649Y-154084295D01*
X148398649Y-154084295D02*
X148322459Y-154046200D01*
X148322459Y-154046200D02*
X148284363Y-154008104D01*
X148284363Y-154008104D02*
X148208173Y-153893819D01*
X148208173Y-153893819D02*
X148170078Y-153741438D01*
X148170078Y-153741438D02*
X148170078Y-153436676D01*
X148170078Y-153436676D02*
X148208173Y-153360485D01*
X148208173Y-153360485D02*
X148246268Y-153322390D01*
X148246268Y-153322390D02*
X148322459Y-153284295D01*
X148322459Y-153284295D02*
X148474840Y-153284295D01*
X148474840Y-153284295D02*
X148551030Y-153322390D01*
X148551030Y-153322390D02*
X148589125Y-153360485D01*
X148589125Y-153360485D02*
X148627221Y-153436676D01*
X148627221Y-153436676D02*
X148627221Y-153627152D01*
X148627221Y-153627152D02*
X148589125Y-153703342D01*
X148589125Y-153703342D02*
X148551030Y-153741438D01*
X148551030Y-153741438D02*
X148474840Y-153779533D01*
X148474840Y-153779533D02*
X148322459Y-153779533D01*
X148322459Y-153779533D02*
X148246268Y-153741438D01*
X148246268Y-153741438D02*
X148208173Y-153703342D01*
X148208173Y-153703342D02*
X148170078Y-153627152D01*
X172853348Y-102584628D02*
X172586682Y-102584628D01*
X172472396Y-103003676D02*
X172853348Y-103003676D01*
X172853348Y-103003676D02*
X172853348Y-102203676D01*
X172853348Y-102203676D02*
X172472396Y-102203676D01*
X172205729Y-103003676D02*
X171786681Y-102470342D01*
X172205729Y-102470342D02*
X171786681Y-103003676D01*
X171596205Y-102470342D02*
X171291443Y-102470342D01*
X171481919Y-102203676D02*
X171481919Y-102889390D01*
X171481919Y-102889390D02*
X171443824Y-102965581D01*
X171443824Y-102965581D02*
X171367634Y-103003676D01*
X171367634Y-103003676D02*
X171291443Y-103003676D01*
X173005729Y-104215440D02*
X173043825Y-104253536D01*
X173043825Y-104253536D02*
X173158110Y-104291631D01*
X173158110Y-104291631D02*
X173234301Y-104291631D01*
X173234301Y-104291631D02*
X173348587Y-104253536D01*
X173348587Y-104253536D02*
X173424777Y-104177345D01*
X173424777Y-104177345D02*
X173462872Y-104101155D01*
X173462872Y-104101155D02*
X173500968Y-103948774D01*
X173500968Y-103948774D02*
X173500968Y-103834488D01*
X173500968Y-103834488D02*
X173462872Y-103682107D01*
X173462872Y-103682107D02*
X173424777Y-103605916D01*
X173424777Y-103605916D02*
X173348587Y-103529726D01*
X173348587Y-103529726D02*
X173234301Y-103491631D01*
X173234301Y-103491631D02*
X173158110Y-103491631D01*
X173158110Y-103491631D02*
X173043825Y-103529726D01*
X173043825Y-103529726D02*
X173005729Y-103567821D01*
X172548587Y-104291631D02*
X172624777Y-104253536D01*
X172624777Y-104253536D02*
X172662872Y-104177345D01*
X172662872Y-104177345D02*
X172662872Y-103491631D01*
X172129539Y-104291631D02*
X172205729Y-104253536D01*
X172205729Y-104253536D02*
X172243824Y-104215440D01*
X172243824Y-104215440D02*
X172281920Y-104139250D01*
X172281920Y-104139250D02*
X172281920Y-103910678D01*
X172281920Y-103910678D02*
X172243824Y-103834488D01*
X172243824Y-103834488D02*
X172205729Y-103796393D01*
X172205729Y-103796393D02*
X172129539Y-103758297D01*
X172129539Y-103758297D02*
X172015253Y-103758297D01*
X172015253Y-103758297D02*
X171939062Y-103796393D01*
X171939062Y-103796393D02*
X171900967Y-103834488D01*
X171900967Y-103834488D02*
X171862872Y-103910678D01*
X171862872Y-103910678D02*
X171862872Y-104139250D01*
X171862872Y-104139250D02*
X171900967Y-104215440D01*
X171900967Y-104215440D02*
X171939062Y-104253536D01*
X171939062Y-104253536D02*
X172015253Y-104291631D01*
X172015253Y-104291631D02*
X172129539Y-104291631D01*
X171177157Y-104253536D02*
X171253348Y-104291631D01*
X171253348Y-104291631D02*
X171405729Y-104291631D01*
X171405729Y-104291631D02*
X171481919Y-104253536D01*
X171481919Y-104253536D02*
X171520014Y-104215440D01*
X171520014Y-104215440D02*
X171558110Y-104139250D01*
X171558110Y-104139250D02*
X171558110Y-103910678D01*
X171558110Y-103910678D02*
X171520014Y-103834488D01*
X171520014Y-103834488D02*
X171481919Y-103796393D01*
X171481919Y-103796393D02*
X171405729Y-103758297D01*
X171405729Y-103758297D02*
X171253348Y-103758297D01*
X171253348Y-103758297D02*
X171177157Y-103796393D01*
X170834300Y-104291631D02*
X170834300Y-103491631D01*
X170758110Y-103986869D02*
X170529538Y-104291631D01*
X170529538Y-103758297D02*
X170834300Y-104063059D01*
X140353105Y-108994348D02*
X139743582Y-108994348D01*
X140048343Y-109299110D02*
X140048343Y-108689586D01*
X166352146Y-83597147D02*
X165742623Y-83597147D01*
X166327941Y-86144736D02*
X165718418Y-86144736D01*
X166023179Y-86449498D02*
X166023179Y-85839974D01*
X131453472Y-109594315D02*
X130843949Y-109594315D01*
X131148710Y-109899077D02*
X131148710Y-109289553D01*
X117242935Y-126445723D02*
X116861982Y-126445723D01*
X117319125Y-126674295D02*
X117052458Y-125874295D01*
X117052458Y-125874295D02*
X116785792Y-126674295D01*
X116100078Y-126674295D02*
X116557221Y-126674295D01*
X116328649Y-126674295D02*
X116328649Y-125874295D01*
X116328649Y-125874295D02*
X116404840Y-125988580D01*
X116404840Y-125988580D02*
X116481030Y-126064771D01*
X116481030Y-126064771D02*
X116557221Y-126102866D01*
X162849670Y-79489744D02*
X162811575Y-79413554D01*
X162811575Y-79413554D02*
X162811575Y-79299268D01*
X162811575Y-79299268D02*
X162849670Y-79184982D01*
X162849670Y-79184982D02*
X162925860Y-79108792D01*
X162925860Y-79108792D02*
X163002051Y-79070697D01*
X163002051Y-79070697D02*
X163154432Y-79032601D01*
X163154432Y-79032601D02*
X163268718Y-79032601D01*
X163268718Y-79032601D02*
X163421099Y-79070697D01*
X163421099Y-79070697D02*
X163497289Y-79108792D01*
X163497289Y-79108792D02*
X163573480Y-79184982D01*
X163573480Y-79184982D02*
X163611575Y-79299268D01*
X163611575Y-79299268D02*
X163611575Y-79375459D01*
X163611575Y-79375459D02*
X163573480Y-79489744D01*
X163573480Y-79489744D02*
X163535384Y-79527840D01*
X163535384Y-79527840D02*
X163268718Y-79527840D01*
X163268718Y-79527840D02*
X163268718Y-79375459D01*
X163611575Y-79870697D02*
X162811575Y-79870697D01*
X162811575Y-79870697D02*
X163611575Y-80327840D01*
X163611575Y-80327840D02*
X162811575Y-80327840D01*
X163611575Y-80708792D02*
X162811575Y-80708792D01*
X162811575Y-80708792D02*
X162811575Y-80899268D01*
X162811575Y-80899268D02*
X162849670Y-81013554D01*
X162849670Y-81013554D02*
X162925860Y-81089744D01*
X162925860Y-81089744D02*
X163002051Y-81127839D01*
X163002051Y-81127839D02*
X163154432Y-81165935D01*
X163154432Y-81165935D02*
X163268718Y-81165935D01*
X163268718Y-81165935D02*
X163421099Y-81127839D01*
X163421099Y-81127839D02*
X163497289Y-81089744D01*
X163497289Y-81089744D02*
X163573480Y-81013554D01*
X163573480Y-81013554D02*
X163611575Y-80899268D01*
X163611575Y-80899268D02*
X163611575Y-80708792D01*
X135671067Y-158096373D02*
X135937734Y-157715420D01*
X136128210Y-158096373D02*
X136128210Y-157296373D01*
X136128210Y-157296373D02*
X135823448Y-157296373D01*
X135823448Y-157296373D02*
X135747258Y-157334468D01*
X135747258Y-157334468D02*
X135709163Y-157372563D01*
X135709163Y-157372563D02*
X135671067Y-157448754D01*
X135671067Y-157448754D02*
X135671067Y-157563039D01*
X135671067Y-157563039D02*
X135709163Y-157639230D01*
X135709163Y-157639230D02*
X135747258Y-157677325D01*
X135747258Y-157677325D02*
X135823448Y-157715420D01*
X135823448Y-157715420D02*
X136128210Y-157715420D01*
X135404401Y-157296373D02*
X134871067Y-158096373D01*
X134871067Y-157296373D02*
X135404401Y-158096373D01*
X134604401Y-157372563D02*
X134566305Y-157334468D01*
X134566305Y-157334468D02*
X134490115Y-157296373D01*
X134490115Y-157296373D02*
X134299639Y-157296373D01*
X134299639Y-157296373D02*
X134223448Y-157334468D01*
X134223448Y-157334468D02*
X134185353Y-157372563D01*
X134185353Y-157372563D02*
X134147258Y-157448754D01*
X134147258Y-157448754D02*
X134147258Y-157524944D01*
X134147258Y-157524944D02*
X134185353Y-157639230D01*
X134185353Y-157639230D02*
X134642496Y-158096373D01*
X134642496Y-158096373D02*
X134147258Y-158096373D01*
X133994877Y-158172563D02*
X133385353Y-158172563D01*
X133194876Y-158096373D02*
X133194876Y-157296373D01*
X133194876Y-157296373D02*
X133004400Y-157296373D01*
X133004400Y-157296373D02*
X132890114Y-157334468D01*
X132890114Y-157334468D02*
X132813924Y-157410658D01*
X132813924Y-157410658D02*
X132775829Y-157486849D01*
X132775829Y-157486849D02*
X132737733Y-157639230D01*
X132737733Y-157639230D02*
X132737733Y-157753516D01*
X132737733Y-157753516D02*
X132775829Y-157905897D01*
X132775829Y-157905897D02*
X132813924Y-157982087D01*
X132813924Y-157982087D02*
X132890114Y-158058278D01*
X132890114Y-158058278D02*
X133004400Y-158096373D01*
X133004400Y-158096373D02*
X133194876Y-158096373D01*
X132394876Y-158096373D02*
X132394876Y-157563039D01*
X132394876Y-157296373D02*
X132432972Y-157334468D01*
X132432972Y-157334468D02*
X132394876Y-157372563D01*
X132394876Y-157372563D02*
X132356781Y-157334468D01*
X132356781Y-157334468D02*
X132394876Y-157296373D01*
X132394876Y-157296373D02*
X132394876Y-157372563D01*
X132013924Y-158096373D02*
X132013924Y-157563039D01*
X132013924Y-157715420D02*
X131975829Y-157639230D01*
X131975829Y-157639230D02*
X131937734Y-157601135D01*
X131937734Y-157601135D02*
X131861543Y-157563039D01*
X131861543Y-157563039D02*
X131785353Y-157563039D01*
X131213924Y-158058278D02*
X131290115Y-158096373D01*
X131290115Y-158096373D02*
X131442496Y-158096373D01*
X131442496Y-158096373D02*
X131518686Y-158058278D01*
X131518686Y-158058278D02*
X131556782Y-157982087D01*
X131556782Y-157982087D02*
X131556782Y-157677325D01*
X131556782Y-157677325D02*
X131518686Y-157601135D01*
X131518686Y-157601135D02*
X131442496Y-157563039D01*
X131442496Y-157563039D02*
X131290115Y-157563039D01*
X131290115Y-157563039D02*
X131213924Y-157601135D01*
X131213924Y-157601135D02*
X131175829Y-157677325D01*
X131175829Y-157677325D02*
X131175829Y-157753516D01*
X131175829Y-157753516D02*
X131556782Y-157829706D01*
X130490115Y-158058278D02*
X130566306Y-158096373D01*
X130566306Y-158096373D02*
X130718687Y-158096373D01*
X130718687Y-158096373D02*
X130794877Y-158058278D01*
X130794877Y-158058278D02*
X130832972Y-158020182D01*
X130832972Y-158020182D02*
X130871068Y-157943992D01*
X130871068Y-157943992D02*
X130871068Y-157715420D01*
X130871068Y-157715420D02*
X130832972Y-157639230D01*
X130832972Y-157639230D02*
X130794877Y-157601135D01*
X130794877Y-157601135D02*
X130718687Y-157563039D01*
X130718687Y-157563039D02*
X130566306Y-157563039D01*
X130566306Y-157563039D02*
X130490115Y-157601135D01*
X130261544Y-157563039D02*
X129956782Y-157563039D01*
X130147258Y-157296373D02*
X130147258Y-157982087D01*
X130147258Y-157982087D02*
X130109163Y-158058278D01*
X130109163Y-158058278D02*
X130032973Y-158096373D01*
X130032973Y-158096373D02*
X129956782Y-158096373D01*
X129271068Y-158096373D02*
X129728211Y-158096373D01*
X129499639Y-158096373D02*
X129499639Y-157296373D01*
X129499639Y-157296373D02*
X129575830Y-157410658D01*
X129575830Y-157410658D02*
X129652020Y-157486849D01*
X129652020Y-157486849D02*
X129728211Y-157524944D01*
X175616268Y-100584295D02*
X175616268Y-101155723D01*
X175616268Y-101155723D02*
X175654363Y-101270009D01*
X175654363Y-101270009D02*
X175730554Y-101346200D01*
X175730554Y-101346200D02*
X175844839Y-101384295D01*
X175844839Y-101384295D02*
X175921030Y-101384295D01*
X174854363Y-100584295D02*
X175235315Y-100584295D01*
X175235315Y-100584295D02*
X175273411Y-100965247D01*
X175273411Y-100965247D02*
X175235315Y-100927152D01*
X175235315Y-100927152D02*
X175159125Y-100889057D01*
X175159125Y-100889057D02*
X174968649Y-100889057D01*
X174968649Y-100889057D02*
X174892458Y-100927152D01*
X174892458Y-100927152D02*
X174854363Y-100965247D01*
X174854363Y-100965247D02*
X174816268Y-101041438D01*
X174816268Y-101041438D02*
X174816268Y-101231914D01*
X174816268Y-101231914D02*
X174854363Y-101308104D01*
X174854363Y-101308104D02*
X174892458Y-101346200D01*
X174892458Y-101346200D02*
X174968649Y-101384295D01*
X174968649Y-101384295D02*
X175159125Y-101384295D01*
X175159125Y-101384295D02*
X175235315Y-101346200D01*
X175235315Y-101346200D02*
X175273411Y-101308104D01*
X117335887Y-115754765D02*
X116954934Y-115754765D01*
X117412077Y-115983337D02*
X117145410Y-115183337D01*
X117145410Y-115183337D02*
X116878744Y-115983337D01*
X116573982Y-115983337D02*
X116421601Y-115983337D01*
X116421601Y-115983337D02*
X116345411Y-115945242D01*
X116345411Y-115945242D02*
X116307315Y-115907146D01*
X116307315Y-115907146D02*
X116231125Y-115792861D01*
X116231125Y-115792861D02*
X116193030Y-115640480D01*
X116193030Y-115640480D02*
X116193030Y-115335718D01*
X116193030Y-115335718D02*
X116231125Y-115259527D01*
X116231125Y-115259527D02*
X116269220Y-115221432D01*
X116269220Y-115221432D02*
X116345411Y-115183337D01*
X116345411Y-115183337D02*
X116497792Y-115183337D01*
X116497792Y-115183337D02*
X116573982Y-115221432D01*
X116573982Y-115221432D02*
X116612077Y-115259527D01*
X116612077Y-115259527D02*
X116650173Y-115335718D01*
X116650173Y-115335718D02*
X116650173Y-115526194D01*
X116650173Y-115526194D02*
X116612077Y-115602384D01*
X116612077Y-115602384D02*
X116573982Y-115640480D01*
X116573982Y-115640480D02*
X116497792Y-115678575D01*
X116497792Y-115678575D02*
X116345411Y-115678575D01*
X116345411Y-115678575D02*
X116269220Y-115640480D01*
X116269220Y-115640480D02*
X116231125Y-115602384D01*
X116231125Y-115602384D02*
X116193030Y-115526194D01*
X154731736Y-121087773D02*
X154160308Y-121087773D01*
X154446022Y-121087773D02*
X154446022Y-122087773D01*
X154446022Y-122087773D02*
X154350784Y-121944916D01*
X154350784Y-121944916D02*
X154255546Y-121849678D01*
X154255546Y-121849678D02*
X154160308Y-121802059D01*
X155112689Y-121992535D02*
X155160308Y-122040154D01*
X155160308Y-122040154D02*
X155255546Y-122087773D01*
X155255546Y-122087773D02*
X155493641Y-122087773D01*
X155493641Y-122087773D02*
X155588879Y-122040154D01*
X155588879Y-122040154D02*
X155636498Y-121992535D01*
X155636498Y-121992535D02*
X155684117Y-121897297D01*
X155684117Y-121897297D02*
X155684117Y-121802059D01*
X155684117Y-121802059D02*
X155636498Y-121659202D01*
X155636498Y-121659202D02*
X155065070Y-121087773D01*
X155065070Y-121087773D02*
X155684117Y-121087773D01*
X156049395Y-130629879D02*
X155477967Y-130629879D01*
X155763681Y-130629879D02*
X155763681Y-131629879D01*
X155763681Y-131629879D02*
X155668443Y-131487022D01*
X155668443Y-131487022D02*
X155573205Y-131391784D01*
X155573205Y-131391784D02*
X155477967Y-131344165D01*
X166958513Y-132017345D02*
X165958513Y-132017345D01*
X165958513Y-132017345D02*
X166672798Y-132350678D01*
X166672798Y-132350678D02*
X165958513Y-132684011D01*
X165958513Y-132684011D02*
X166958513Y-132684011D01*
X156813104Y-132091905D02*
X156813104Y-132568095D01*
X157098819Y-131996667D02*
X156098819Y-132330000D01*
X156098819Y-132330000D02*
X157098819Y-132663333D01*
X121900469Y-81797430D02*
X121329041Y-81797430D01*
X121614755Y-82797430D02*
X121614755Y-81797430D01*
X120995707Y-82797430D02*
X120995707Y-81797430D01*
X120995707Y-81797430D02*
X120614755Y-81797430D01*
X120614755Y-81797430D02*
X120519517Y-81845049D01*
X120519517Y-81845049D02*
X120471898Y-81892668D01*
X120471898Y-81892668D02*
X120424279Y-81987906D01*
X120424279Y-81987906D02*
X120424279Y-82130763D01*
X120424279Y-82130763D02*
X120471898Y-82226001D01*
X120471898Y-82226001D02*
X120519517Y-82273620D01*
X120519517Y-82273620D02*
X120614755Y-82321239D01*
X120614755Y-82321239D02*
X120995707Y-82321239D01*
X120090945Y-81797430D02*
X119424279Y-81797430D01*
X119424279Y-81797430D02*
X119852850Y-82797430D01*
X121806674Y-86836633D02*
X121235246Y-86836633D01*
X121520960Y-87836633D02*
X121520960Y-86836633D01*
X120901912Y-87836633D02*
X120901912Y-86836633D01*
X120901912Y-86836633D02*
X120520960Y-86836633D01*
X120520960Y-86836633D02*
X120425722Y-86884252D01*
X120425722Y-86884252D02*
X120378103Y-86931871D01*
X120378103Y-86931871D02*
X120330484Y-87027109D01*
X120330484Y-87027109D02*
X120330484Y-87169966D01*
X120330484Y-87169966D02*
X120378103Y-87265204D01*
X120378103Y-87265204D02*
X120425722Y-87312823D01*
X120425722Y-87312823D02*
X120520960Y-87360442D01*
X120520960Y-87360442D02*
X120901912Y-87360442D01*
X119473341Y-86836633D02*
X119663817Y-86836633D01*
X119663817Y-86836633D02*
X119759055Y-86884252D01*
X119759055Y-86884252D02*
X119806674Y-86931871D01*
X119806674Y-86931871D02*
X119901912Y-87074728D01*
X119901912Y-87074728D02*
X119949531Y-87265204D01*
X119949531Y-87265204D02*
X119949531Y-87646156D01*
X119949531Y-87646156D02*
X119901912Y-87741394D01*
X119901912Y-87741394D02*
X119854293Y-87789014D01*
X119854293Y-87789014D02*
X119759055Y-87836633D01*
X119759055Y-87836633D02*
X119568579Y-87836633D01*
X119568579Y-87836633D02*
X119473341Y-87789014D01*
X119473341Y-87789014D02*
X119425722Y-87741394D01*
X119425722Y-87741394D02*
X119378103Y-87646156D01*
X119378103Y-87646156D02*
X119378103Y-87408061D01*
X119378103Y-87408061D02*
X119425722Y-87312823D01*
X119425722Y-87312823D02*
X119473341Y-87265204D01*
X119473341Y-87265204D02*
X119568579Y-87217585D01*
X119568579Y-87217585D02*
X119759055Y-87217585D01*
X119759055Y-87217585D02*
X119854293Y-87265204D01*
X119854293Y-87265204D02*
X119901912Y-87312823D01*
X119901912Y-87312823D02*
X119949531Y-87408061D01*
X121882315Y-84266352D02*
X121310887Y-84266352D01*
X121596601Y-85266352D02*
X121596601Y-84266352D01*
X120977553Y-85266352D02*
X120977553Y-84266352D01*
X120977553Y-84266352D02*
X120596601Y-84266352D01*
X120596601Y-84266352D02*
X120501363Y-84313971D01*
X120501363Y-84313971D02*
X120453744Y-84361590D01*
X120453744Y-84361590D02*
X120406125Y-84456828D01*
X120406125Y-84456828D02*
X120406125Y-84599685D01*
X120406125Y-84599685D02*
X120453744Y-84694923D01*
X120453744Y-84694923D02*
X120501363Y-84742542D01*
X120501363Y-84742542D02*
X120596601Y-84790161D01*
X120596601Y-84790161D02*
X120977553Y-84790161D01*
X119501363Y-84266352D02*
X119977553Y-84266352D01*
X119977553Y-84266352D02*
X120025172Y-84742542D01*
X120025172Y-84742542D02*
X119977553Y-84694923D01*
X119977553Y-84694923D02*
X119882315Y-84647304D01*
X119882315Y-84647304D02*
X119644220Y-84647304D01*
X119644220Y-84647304D02*
X119548982Y-84694923D01*
X119548982Y-84694923D02*
X119501363Y-84742542D01*
X119501363Y-84742542D02*
X119453744Y-84837780D01*
X119453744Y-84837780D02*
X119453744Y-85075875D01*
X119453744Y-85075875D02*
X119501363Y-85171113D01*
X119501363Y-85171113D02*
X119548982Y-85218733D01*
X119548982Y-85218733D02*
X119644220Y-85266352D01*
X119644220Y-85266352D02*
X119882315Y-85266352D01*
X119882315Y-85266352D02*
X119977553Y-85218733D01*
X119977553Y-85218733D02*
X120025172Y-85171113D01*
D16*
%TO.C,C162*%
X129534000Y-133318748D02*
X129534000Y-134741252D01*
X131354000Y-133318748D02*
X131354000Y-134741252D01*
%TD*%
D17*
X179890800Y-160820000D02*
X179890800Y-81820000D01*
X87890800Y-81820000D02*
G75*
G02*
X94390800Y-75320000I6500000J0D01*
G01*
X94390800Y-167320000D02*
X173390800Y-167320000D01*
X173390800Y-75320000D02*
X94390800Y-75320000D01*
X179890800Y-160820000D02*
G75*
G02*
X173390800Y-167320000I-6500000J0D01*
G01*
X94390800Y-167320000D02*
G75*
G02*
X87890800Y-160820000I0J6500000D01*
G01*
X87890800Y-81820000D02*
X87890800Y-160820000D01*
X173390800Y-75320000D02*
G75*
G02*
X179890800Y-81820000I0J-6500000D01*
G01*
M02*
