%TF.GenerationSoftware,KiCad,Pcbnew,9.0.7*%
%TF.CreationDate,2026-03-25T15:14:35-04:00*%
%TF.ProjectId,AMSAT_SDR,414d5341-545f-4534-9452-2e6b69636164,WA1CYB-revB*%
%TF.SameCoordinates,Original*%
%TF.FileFunction,Other,User*%
%FSLAX46Y46*%
G04 Gerber Fmt 4.6, Leading zero omitted, Abs format (unit mm)*
G04 Created by KiCad (PCBNEW 9.0.7) date 2026-03-25 15:14:35*
%MOMM*%
%LPD*%
G01*
G04 APERTURE LIST*
%ADD10C,0.100000*%
%ADD11C,0.150000*%
%ADD12C,0.300000*%
%ADD13C,0.400000*%
%ADD14C,0.254000*%
%TA.AperFunction,Profile*%
%ADD15C,0.050000*%
%TD*%
G04 APERTURE END LIST*
D10*
D11*
X177002200Y-166007200D02*
X285002200Y-166007200D01*
X285002200Y-198007200D01*
X177002200Y-198007200D01*
X177002200Y-166007200D01*
D10*
D11*
X10000000Y-10000000D02*
X287002200Y-10000000D01*
X287002200Y-200007200D01*
X10000000Y-200007200D01*
X10000000Y-10000000D01*
D10*
D11*
X12000000Y-12000000D02*
X285002200Y-12000000D01*
X285002200Y-198007200D01*
X12000000Y-198007200D01*
X12000000Y-12000000D01*
D10*
D11*
X60000000Y-12000000D02*
X60000000Y-10000000D01*
D10*
D11*
X110000000Y-12000000D02*
X110000000Y-10000000D01*
D10*
D11*
X160000000Y-12000000D02*
X160000000Y-10000000D01*
D10*
D11*
X210000000Y-12000000D02*
X210000000Y-10000000D01*
D10*
D11*
X260000000Y-12000000D02*
X260000000Y-10000000D01*
D10*
D11*
X36089160Y-11593604D02*
X35346303Y-11593604D01*
X35717731Y-11593604D02*
X35717731Y-10293604D01*
X35717731Y-10293604D02*
X35593922Y-10479319D01*
X35593922Y-10479319D02*
X35470112Y-10603128D01*
X35470112Y-10603128D02*
X35346303Y-10665033D01*
D10*
D11*
X85346303Y-10417414D02*
X85408207Y-10355509D01*
X85408207Y-10355509D02*
X85532017Y-10293604D01*
X85532017Y-10293604D02*
X85841541Y-10293604D01*
X85841541Y-10293604D02*
X85965350Y-10355509D01*
X85965350Y-10355509D02*
X86027255Y-10417414D01*
X86027255Y-10417414D02*
X86089160Y-10541223D01*
X86089160Y-10541223D02*
X86089160Y-10665033D01*
X86089160Y-10665033D02*
X86027255Y-10850747D01*
X86027255Y-10850747D02*
X85284398Y-11593604D01*
X85284398Y-11593604D02*
X86089160Y-11593604D01*
D10*
D11*
X135284398Y-10293604D02*
X136089160Y-10293604D01*
X136089160Y-10293604D02*
X135655826Y-10788842D01*
X135655826Y-10788842D02*
X135841541Y-10788842D01*
X135841541Y-10788842D02*
X135965350Y-10850747D01*
X135965350Y-10850747D02*
X136027255Y-10912652D01*
X136027255Y-10912652D02*
X136089160Y-11036461D01*
X136089160Y-11036461D02*
X136089160Y-11345985D01*
X136089160Y-11345985D02*
X136027255Y-11469795D01*
X136027255Y-11469795D02*
X135965350Y-11531700D01*
X135965350Y-11531700D02*
X135841541Y-11593604D01*
X135841541Y-11593604D02*
X135470112Y-11593604D01*
X135470112Y-11593604D02*
X135346303Y-11531700D01*
X135346303Y-11531700D02*
X135284398Y-11469795D01*
D10*
D11*
X185965350Y-10726938D02*
X185965350Y-11593604D01*
X185655826Y-10231700D02*
X185346303Y-11160271D01*
X185346303Y-11160271D02*
X186151064Y-11160271D01*
D10*
D11*
X236027255Y-10293604D02*
X235408207Y-10293604D01*
X235408207Y-10293604D02*
X235346303Y-10912652D01*
X235346303Y-10912652D02*
X235408207Y-10850747D01*
X235408207Y-10850747D02*
X235532017Y-10788842D01*
X235532017Y-10788842D02*
X235841541Y-10788842D01*
X235841541Y-10788842D02*
X235965350Y-10850747D01*
X235965350Y-10850747D02*
X236027255Y-10912652D01*
X236027255Y-10912652D02*
X236089160Y-11036461D01*
X236089160Y-11036461D02*
X236089160Y-11345985D01*
X236089160Y-11345985D02*
X236027255Y-11469795D01*
X236027255Y-11469795D02*
X235965350Y-11531700D01*
X235965350Y-11531700D02*
X235841541Y-11593604D01*
X235841541Y-11593604D02*
X235532017Y-11593604D01*
X235532017Y-11593604D02*
X235408207Y-11531700D01*
X235408207Y-11531700D02*
X235346303Y-11469795D01*
D10*
D11*
X285965350Y-10293604D02*
X285717731Y-10293604D01*
X285717731Y-10293604D02*
X285593922Y-10355509D01*
X285593922Y-10355509D02*
X285532017Y-10417414D01*
X285532017Y-10417414D02*
X285408207Y-10603128D01*
X285408207Y-10603128D02*
X285346303Y-10850747D01*
X285346303Y-10850747D02*
X285346303Y-11345985D01*
X285346303Y-11345985D02*
X285408207Y-11469795D01*
X285408207Y-11469795D02*
X285470112Y-11531700D01*
X285470112Y-11531700D02*
X285593922Y-11593604D01*
X285593922Y-11593604D02*
X285841541Y-11593604D01*
X285841541Y-11593604D02*
X285965350Y-11531700D01*
X285965350Y-11531700D02*
X286027255Y-11469795D01*
X286027255Y-11469795D02*
X286089160Y-11345985D01*
X286089160Y-11345985D02*
X286089160Y-11036461D01*
X286089160Y-11036461D02*
X286027255Y-10912652D01*
X286027255Y-10912652D02*
X285965350Y-10850747D01*
X285965350Y-10850747D02*
X285841541Y-10788842D01*
X285841541Y-10788842D02*
X285593922Y-10788842D01*
X285593922Y-10788842D02*
X285470112Y-10850747D01*
X285470112Y-10850747D02*
X285408207Y-10912652D01*
X285408207Y-10912652D02*
X285346303Y-11036461D01*
D10*
D11*
X60000000Y-198007200D02*
X60000000Y-200007200D01*
D10*
D11*
X110000000Y-198007200D02*
X110000000Y-200007200D01*
D10*
D11*
X160000000Y-198007200D02*
X160000000Y-200007200D01*
D10*
D11*
X210000000Y-198007200D02*
X210000000Y-200007200D01*
D10*
D11*
X260000000Y-198007200D02*
X260000000Y-200007200D01*
D10*
D11*
X36089160Y-199600804D02*
X35346303Y-199600804D01*
X35717731Y-199600804D02*
X35717731Y-198300804D01*
X35717731Y-198300804D02*
X35593922Y-198486519D01*
X35593922Y-198486519D02*
X35470112Y-198610328D01*
X35470112Y-198610328D02*
X35346303Y-198672233D01*
D10*
D11*
X85346303Y-198424614D02*
X85408207Y-198362709D01*
X85408207Y-198362709D02*
X85532017Y-198300804D01*
X85532017Y-198300804D02*
X85841541Y-198300804D01*
X85841541Y-198300804D02*
X85965350Y-198362709D01*
X85965350Y-198362709D02*
X86027255Y-198424614D01*
X86027255Y-198424614D02*
X86089160Y-198548423D01*
X86089160Y-198548423D02*
X86089160Y-198672233D01*
X86089160Y-198672233D02*
X86027255Y-198857947D01*
X86027255Y-198857947D02*
X85284398Y-199600804D01*
X85284398Y-199600804D02*
X86089160Y-199600804D01*
D10*
D11*
X135284398Y-198300804D02*
X136089160Y-198300804D01*
X136089160Y-198300804D02*
X135655826Y-198796042D01*
X135655826Y-198796042D02*
X135841541Y-198796042D01*
X135841541Y-198796042D02*
X135965350Y-198857947D01*
X135965350Y-198857947D02*
X136027255Y-198919852D01*
X136027255Y-198919852D02*
X136089160Y-199043661D01*
X136089160Y-199043661D02*
X136089160Y-199353185D01*
X136089160Y-199353185D02*
X136027255Y-199476995D01*
X136027255Y-199476995D02*
X135965350Y-199538900D01*
X135965350Y-199538900D02*
X135841541Y-199600804D01*
X135841541Y-199600804D02*
X135470112Y-199600804D01*
X135470112Y-199600804D02*
X135346303Y-199538900D01*
X135346303Y-199538900D02*
X135284398Y-199476995D01*
D10*
D11*
X185965350Y-198734138D02*
X185965350Y-199600804D01*
X185655826Y-198238900D02*
X185346303Y-199167471D01*
X185346303Y-199167471D02*
X186151064Y-199167471D01*
D10*
D11*
X236027255Y-198300804D02*
X235408207Y-198300804D01*
X235408207Y-198300804D02*
X235346303Y-198919852D01*
X235346303Y-198919852D02*
X235408207Y-198857947D01*
X235408207Y-198857947D02*
X235532017Y-198796042D01*
X235532017Y-198796042D02*
X235841541Y-198796042D01*
X235841541Y-198796042D02*
X235965350Y-198857947D01*
X235965350Y-198857947D02*
X236027255Y-198919852D01*
X236027255Y-198919852D02*
X236089160Y-199043661D01*
X236089160Y-199043661D02*
X236089160Y-199353185D01*
X236089160Y-199353185D02*
X236027255Y-199476995D01*
X236027255Y-199476995D02*
X235965350Y-199538900D01*
X235965350Y-199538900D02*
X235841541Y-199600804D01*
X235841541Y-199600804D02*
X235532017Y-199600804D01*
X235532017Y-199600804D02*
X235408207Y-199538900D01*
X235408207Y-199538900D02*
X235346303Y-199476995D01*
D10*
D11*
X285965350Y-198300804D02*
X285717731Y-198300804D01*
X285717731Y-198300804D02*
X285593922Y-198362709D01*
X285593922Y-198362709D02*
X285532017Y-198424614D01*
X285532017Y-198424614D02*
X285408207Y-198610328D01*
X285408207Y-198610328D02*
X285346303Y-198857947D01*
X285346303Y-198857947D02*
X285346303Y-199353185D01*
X285346303Y-199353185D02*
X285408207Y-199476995D01*
X285408207Y-199476995D02*
X285470112Y-199538900D01*
X285470112Y-199538900D02*
X285593922Y-199600804D01*
X285593922Y-199600804D02*
X285841541Y-199600804D01*
X285841541Y-199600804D02*
X285965350Y-199538900D01*
X285965350Y-199538900D02*
X286027255Y-199476995D01*
X286027255Y-199476995D02*
X286089160Y-199353185D01*
X286089160Y-199353185D02*
X286089160Y-199043661D01*
X286089160Y-199043661D02*
X286027255Y-198919852D01*
X286027255Y-198919852D02*
X285965350Y-198857947D01*
X285965350Y-198857947D02*
X285841541Y-198796042D01*
X285841541Y-198796042D02*
X285593922Y-198796042D01*
X285593922Y-198796042D02*
X285470112Y-198857947D01*
X285470112Y-198857947D02*
X285408207Y-198919852D01*
X285408207Y-198919852D02*
X285346303Y-199043661D01*
D10*
D11*
X10000000Y-60000000D02*
X12000000Y-60000000D01*
D10*
D11*
X10000000Y-110000000D02*
X12000000Y-110000000D01*
D10*
D11*
X10000000Y-160000000D02*
X12000000Y-160000000D01*
D10*
D11*
X10690476Y-35222176D02*
X11309523Y-35222176D01*
X10566666Y-35593604D02*
X10999999Y-34293604D01*
X10999999Y-34293604D02*
X11433333Y-35593604D01*
D10*
D11*
X11092857Y-84912652D02*
X11278571Y-84974557D01*
X11278571Y-84974557D02*
X11340476Y-85036461D01*
X11340476Y-85036461D02*
X11402380Y-85160271D01*
X11402380Y-85160271D02*
X11402380Y-85345985D01*
X11402380Y-85345985D02*
X11340476Y-85469795D01*
X11340476Y-85469795D02*
X11278571Y-85531700D01*
X11278571Y-85531700D02*
X11154761Y-85593604D01*
X11154761Y-85593604D02*
X10659523Y-85593604D01*
X10659523Y-85593604D02*
X10659523Y-84293604D01*
X10659523Y-84293604D02*
X11092857Y-84293604D01*
X11092857Y-84293604D02*
X11216666Y-84355509D01*
X11216666Y-84355509D02*
X11278571Y-84417414D01*
X11278571Y-84417414D02*
X11340476Y-84541223D01*
X11340476Y-84541223D02*
X11340476Y-84665033D01*
X11340476Y-84665033D02*
X11278571Y-84788842D01*
X11278571Y-84788842D02*
X11216666Y-84850747D01*
X11216666Y-84850747D02*
X11092857Y-84912652D01*
X11092857Y-84912652D02*
X10659523Y-84912652D01*
D10*
D11*
X11402380Y-135469795D02*
X11340476Y-135531700D01*
X11340476Y-135531700D02*
X11154761Y-135593604D01*
X11154761Y-135593604D02*
X11030952Y-135593604D01*
X11030952Y-135593604D02*
X10845238Y-135531700D01*
X10845238Y-135531700D02*
X10721428Y-135407890D01*
X10721428Y-135407890D02*
X10659523Y-135284080D01*
X10659523Y-135284080D02*
X10597619Y-135036461D01*
X10597619Y-135036461D02*
X10597619Y-134850747D01*
X10597619Y-134850747D02*
X10659523Y-134603128D01*
X10659523Y-134603128D02*
X10721428Y-134479319D01*
X10721428Y-134479319D02*
X10845238Y-134355509D01*
X10845238Y-134355509D02*
X11030952Y-134293604D01*
X11030952Y-134293604D02*
X11154761Y-134293604D01*
X11154761Y-134293604D02*
X11340476Y-134355509D01*
X11340476Y-134355509D02*
X11402380Y-134417414D01*
D10*
D11*
X10659523Y-185593604D02*
X10659523Y-184293604D01*
X10659523Y-184293604D02*
X10969047Y-184293604D01*
X10969047Y-184293604D02*
X11154761Y-184355509D01*
X11154761Y-184355509D02*
X11278571Y-184479319D01*
X11278571Y-184479319D02*
X11340476Y-184603128D01*
X11340476Y-184603128D02*
X11402380Y-184850747D01*
X11402380Y-184850747D02*
X11402380Y-185036461D01*
X11402380Y-185036461D02*
X11340476Y-185284080D01*
X11340476Y-185284080D02*
X11278571Y-185407890D01*
X11278571Y-185407890D02*
X11154761Y-185531700D01*
X11154761Y-185531700D02*
X10969047Y-185593604D01*
X10969047Y-185593604D02*
X10659523Y-185593604D01*
D10*
D11*
X287002200Y-60000000D02*
X285002200Y-60000000D01*
D10*
D11*
X287002200Y-110000000D02*
X285002200Y-110000000D01*
D10*
D11*
X287002200Y-160000000D02*
X285002200Y-160000000D01*
D10*
D11*
X285692676Y-35222176D02*
X286311723Y-35222176D01*
X285568866Y-35593604D02*
X286002199Y-34293604D01*
X286002199Y-34293604D02*
X286435533Y-35593604D01*
D10*
D11*
X286095057Y-84912652D02*
X286280771Y-84974557D01*
X286280771Y-84974557D02*
X286342676Y-85036461D01*
X286342676Y-85036461D02*
X286404580Y-85160271D01*
X286404580Y-85160271D02*
X286404580Y-85345985D01*
X286404580Y-85345985D02*
X286342676Y-85469795D01*
X286342676Y-85469795D02*
X286280771Y-85531700D01*
X286280771Y-85531700D02*
X286156961Y-85593604D01*
X286156961Y-85593604D02*
X285661723Y-85593604D01*
X285661723Y-85593604D02*
X285661723Y-84293604D01*
X285661723Y-84293604D02*
X286095057Y-84293604D01*
X286095057Y-84293604D02*
X286218866Y-84355509D01*
X286218866Y-84355509D02*
X286280771Y-84417414D01*
X286280771Y-84417414D02*
X286342676Y-84541223D01*
X286342676Y-84541223D02*
X286342676Y-84665033D01*
X286342676Y-84665033D02*
X286280771Y-84788842D01*
X286280771Y-84788842D02*
X286218866Y-84850747D01*
X286218866Y-84850747D02*
X286095057Y-84912652D01*
X286095057Y-84912652D02*
X285661723Y-84912652D01*
D10*
D11*
X286404580Y-135469795D02*
X286342676Y-135531700D01*
X286342676Y-135531700D02*
X286156961Y-135593604D01*
X286156961Y-135593604D02*
X286033152Y-135593604D01*
X286033152Y-135593604D02*
X285847438Y-135531700D01*
X285847438Y-135531700D02*
X285723628Y-135407890D01*
X285723628Y-135407890D02*
X285661723Y-135284080D01*
X285661723Y-135284080D02*
X285599819Y-135036461D01*
X285599819Y-135036461D02*
X285599819Y-134850747D01*
X285599819Y-134850747D02*
X285661723Y-134603128D01*
X285661723Y-134603128D02*
X285723628Y-134479319D01*
X285723628Y-134479319D02*
X285847438Y-134355509D01*
X285847438Y-134355509D02*
X286033152Y-134293604D01*
X286033152Y-134293604D02*
X286156961Y-134293604D01*
X286156961Y-134293604D02*
X286342676Y-134355509D01*
X286342676Y-134355509D02*
X286404580Y-134417414D01*
D10*
D11*
X285661723Y-185593604D02*
X285661723Y-184293604D01*
X285661723Y-184293604D02*
X285971247Y-184293604D01*
X285971247Y-184293604D02*
X286156961Y-184355509D01*
X286156961Y-184355509D02*
X286280771Y-184479319D01*
X286280771Y-184479319D02*
X286342676Y-184603128D01*
X286342676Y-184603128D02*
X286404580Y-184850747D01*
X286404580Y-184850747D02*
X286404580Y-185036461D01*
X286404580Y-185036461D02*
X286342676Y-185284080D01*
X286342676Y-185284080D02*
X286280771Y-185407890D01*
X286280771Y-185407890D02*
X286156961Y-185531700D01*
X286156961Y-185531700D02*
X285971247Y-185593604D01*
X285971247Y-185593604D02*
X285661723Y-185593604D01*
D10*
D11*
X200458026Y-193793328D02*
X200458026Y-192293328D01*
X200458026Y-192293328D02*
X200815169Y-192293328D01*
X200815169Y-192293328D02*
X201029455Y-192364757D01*
X201029455Y-192364757D02*
X201172312Y-192507614D01*
X201172312Y-192507614D02*
X201243741Y-192650471D01*
X201243741Y-192650471D02*
X201315169Y-192936185D01*
X201315169Y-192936185D02*
X201315169Y-193150471D01*
X201315169Y-193150471D02*
X201243741Y-193436185D01*
X201243741Y-193436185D02*
X201172312Y-193579042D01*
X201172312Y-193579042D02*
X201029455Y-193721900D01*
X201029455Y-193721900D02*
X200815169Y-193793328D01*
X200815169Y-193793328D02*
X200458026Y-193793328D01*
X202600884Y-193793328D02*
X202600884Y-193007614D01*
X202600884Y-193007614D02*
X202529455Y-192864757D01*
X202529455Y-192864757D02*
X202386598Y-192793328D01*
X202386598Y-192793328D02*
X202100884Y-192793328D01*
X202100884Y-192793328D02*
X201958026Y-192864757D01*
X202600884Y-193721900D02*
X202458026Y-193793328D01*
X202458026Y-193793328D02*
X202100884Y-193793328D01*
X202100884Y-193793328D02*
X201958026Y-193721900D01*
X201958026Y-193721900D02*
X201886598Y-193579042D01*
X201886598Y-193579042D02*
X201886598Y-193436185D01*
X201886598Y-193436185D02*
X201958026Y-193293328D01*
X201958026Y-193293328D02*
X202100884Y-193221900D01*
X202100884Y-193221900D02*
X202458026Y-193221900D01*
X202458026Y-193221900D02*
X202600884Y-193150471D01*
X203100884Y-192793328D02*
X203672312Y-192793328D01*
X203315169Y-192293328D02*
X203315169Y-193579042D01*
X203315169Y-193579042D02*
X203386598Y-193721900D01*
X203386598Y-193721900D02*
X203529455Y-193793328D01*
X203529455Y-193793328D02*
X203672312Y-193793328D01*
X204743741Y-193721900D02*
X204600884Y-193793328D01*
X204600884Y-193793328D02*
X204315170Y-193793328D01*
X204315170Y-193793328D02*
X204172312Y-193721900D01*
X204172312Y-193721900D02*
X204100884Y-193579042D01*
X204100884Y-193579042D02*
X204100884Y-193007614D01*
X204100884Y-193007614D02*
X204172312Y-192864757D01*
X204172312Y-192864757D02*
X204315170Y-192793328D01*
X204315170Y-192793328D02*
X204600884Y-192793328D01*
X204600884Y-192793328D02*
X204743741Y-192864757D01*
X204743741Y-192864757D02*
X204815170Y-193007614D01*
X204815170Y-193007614D02*
X204815170Y-193150471D01*
X204815170Y-193150471D02*
X204100884Y-193293328D01*
X205458026Y-193650471D02*
X205529455Y-193721900D01*
X205529455Y-193721900D02*
X205458026Y-193793328D01*
X205458026Y-193793328D02*
X205386598Y-193721900D01*
X205386598Y-193721900D02*
X205458026Y-193650471D01*
X205458026Y-193650471D02*
X205458026Y-193793328D01*
X205458026Y-192864757D02*
X205529455Y-192936185D01*
X205529455Y-192936185D02*
X205458026Y-193007614D01*
X205458026Y-193007614D02*
X205386598Y-192936185D01*
X205386598Y-192936185D02*
X205458026Y-192864757D01*
X205458026Y-192864757D02*
X205458026Y-193007614D01*
X207243741Y-192436185D02*
X207315169Y-192364757D01*
X207315169Y-192364757D02*
X207458027Y-192293328D01*
X207458027Y-192293328D02*
X207815169Y-192293328D01*
X207815169Y-192293328D02*
X207958027Y-192364757D01*
X207958027Y-192364757D02*
X208029455Y-192436185D01*
X208029455Y-192436185D02*
X208100884Y-192579042D01*
X208100884Y-192579042D02*
X208100884Y-192721900D01*
X208100884Y-192721900D02*
X208029455Y-192936185D01*
X208029455Y-192936185D02*
X207172312Y-193793328D01*
X207172312Y-193793328D02*
X208100884Y-193793328D01*
X209029455Y-192293328D02*
X209172312Y-192293328D01*
X209172312Y-192293328D02*
X209315169Y-192364757D01*
X209315169Y-192364757D02*
X209386598Y-192436185D01*
X209386598Y-192436185D02*
X209458026Y-192579042D01*
X209458026Y-192579042D02*
X209529455Y-192864757D01*
X209529455Y-192864757D02*
X209529455Y-193221900D01*
X209529455Y-193221900D02*
X209458026Y-193507614D01*
X209458026Y-193507614D02*
X209386598Y-193650471D01*
X209386598Y-193650471D02*
X209315169Y-193721900D01*
X209315169Y-193721900D02*
X209172312Y-193793328D01*
X209172312Y-193793328D02*
X209029455Y-193793328D01*
X209029455Y-193793328D02*
X208886598Y-193721900D01*
X208886598Y-193721900D02*
X208815169Y-193650471D01*
X208815169Y-193650471D02*
X208743740Y-193507614D01*
X208743740Y-193507614D02*
X208672312Y-193221900D01*
X208672312Y-193221900D02*
X208672312Y-192864757D01*
X208672312Y-192864757D02*
X208743740Y-192579042D01*
X208743740Y-192579042D02*
X208815169Y-192436185D01*
X208815169Y-192436185D02*
X208886598Y-192364757D01*
X208886598Y-192364757D02*
X209029455Y-192293328D01*
X210100883Y-192436185D02*
X210172311Y-192364757D01*
X210172311Y-192364757D02*
X210315169Y-192293328D01*
X210315169Y-192293328D02*
X210672311Y-192293328D01*
X210672311Y-192293328D02*
X210815169Y-192364757D01*
X210815169Y-192364757D02*
X210886597Y-192436185D01*
X210886597Y-192436185D02*
X210958026Y-192579042D01*
X210958026Y-192579042D02*
X210958026Y-192721900D01*
X210958026Y-192721900D02*
X210886597Y-192936185D01*
X210886597Y-192936185D02*
X210029454Y-193793328D01*
X210029454Y-193793328D02*
X210958026Y-193793328D01*
X212243740Y-192293328D02*
X211958025Y-192293328D01*
X211958025Y-192293328D02*
X211815168Y-192364757D01*
X211815168Y-192364757D02*
X211743740Y-192436185D01*
X211743740Y-192436185D02*
X211600882Y-192650471D01*
X211600882Y-192650471D02*
X211529454Y-192936185D01*
X211529454Y-192936185D02*
X211529454Y-193507614D01*
X211529454Y-193507614D02*
X211600882Y-193650471D01*
X211600882Y-193650471D02*
X211672311Y-193721900D01*
X211672311Y-193721900D02*
X211815168Y-193793328D01*
X211815168Y-193793328D02*
X212100882Y-193793328D01*
X212100882Y-193793328D02*
X212243740Y-193721900D01*
X212243740Y-193721900D02*
X212315168Y-193650471D01*
X212315168Y-193650471D02*
X212386597Y-193507614D01*
X212386597Y-193507614D02*
X212386597Y-193150471D01*
X212386597Y-193150471D02*
X212315168Y-193007614D01*
X212315168Y-193007614D02*
X212243740Y-192936185D01*
X212243740Y-192936185D02*
X212100882Y-192864757D01*
X212100882Y-192864757D02*
X211815168Y-192864757D01*
X211815168Y-192864757D02*
X211672311Y-192936185D01*
X211672311Y-192936185D02*
X211600882Y-193007614D01*
X211600882Y-193007614D02*
X211529454Y-193150471D01*
X213029453Y-193221900D02*
X214172311Y-193221900D01*
X215172311Y-192293328D02*
X215315168Y-192293328D01*
X215315168Y-192293328D02*
X215458025Y-192364757D01*
X215458025Y-192364757D02*
X215529454Y-192436185D01*
X215529454Y-192436185D02*
X215600882Y-192579042D01*
X215600882Y-192579042D02*
X215672311Y-192864757D01*
X215672311Y-192864757D02*
X215672311Y-193221900D01*
X215672311Y-193221900D02*
X215600882Y-193507614D01*
X215600882Y-193507614D02*
X215529454Y-193650471D01*
X215529454Y-193650471D02*
X215458025Y-193721900D01*
X215458025Y-193721900D02*
X215315168Y-193793328D01*
X215315168Y-193793328D02*
X215172311Y-193793328D01*
X215172311Y-193793328D02*
X215029454Y-193721900D01*
X215029454Y-193721900D02*
X214958025Y-193650471D01*
X214958025Y-193650471D02*
X214886596Y-193507614D01*
X214886596Y-193507614D02*
X214815168Y-193221900D01*
X214815168Y-193221900D02*
X214815168Y-192864757D01*
X214815168Y-192864757D02*
X214886596Y-192579042D01*
X214886596Y-192579042D02*
X214958025Y-192436185D01*
X214958025Y-192436185D02*
X215029454Y-192364757D01*
X215029454Y-192364757D02*
X215172311Y-192293328D01*
X216172310Y-192293328D02*
X217100882Y-192293328D01*
X217100882Y-192293328D02*
X216600882Y-192864757D01*
X216600882Y-192864757D02*
X216815167Y-192864757D01*
X216815167Y-192864757D02*
X216958025Y-192936185D01*
X216958025Y-192936185D02*
X217029453Y-193007614D01*
X217029453Y-193007614D02*
X217100882Y-193150471D01*
X217100882Y-193150471D02*
X217100882Y-193507614D01*
X217100882Y-193507614D02*
X217029453Y-193650471D01*
X217029453Y-193650471D02*
X216958025Y-193721900D01*
X216958025Y-193721900D02*
X216815167Y-193793328D01*
X216815167Y-193793328D02*
X216386596Y-193793328D01*
X216386596Y-193793328D02*
X216243739Y-193721900D01*
X216243739Y-193721900D02*
X216172310Y-193650471D01*
X217743738Y-193221900D02*
X218886596Y-193221900D01*
X219886596Y-192293328D02*
X220029453Y-192293328D01*
X220029453Y-192293328D02*
X220172310Y-192364757D01*
X220172310Y-192364757D02*
X220243739Y-192436185D01*
X220243739Y-192436185D02*
X220315167Y-192579042D01*
X220315167Y-192579042D02*
X220386596Y-192864757D01*
X220386596Y-192864757D02*
X220386596Y-193221900D01*
X220386596Y-193221900D02*
X220315167Y-193507614D01*
X220315167Y-193507614D02*
X220243739Y-193650471D01*
X220243739Y-193650471D02*
X220172310Y-193721900D01*
X220172310Y-193721900D02*
X220029453Y-193793328D01*
X220029453Y-193793328D02*
X219886596Y-193793328D01*
X219886596Y-193793328D02*
X219743739Y-193721900D01*
X219743739Y-193721900D02*
X219672310Y-193650471D01*
X219672310Y-193650471D02*
X219600881Y-193507614D01*
X219600881Y-193507614D02*
X219529453Y-193221900D01*
X219529453Y-193221900D02*
X219529453Y-192864757D01*
X219529453Y-192864757D02*
X219600881Y-192579042D01*
X219600881Y-192579042D02*
X219672310Y-192436185D01*
X219672310Y-192436185D02*
X219743739Y-192364757D01*
X219743739Y-192364757D02*
X219886596Y-192293328D01*
X221100881Y-193793328D02*
X221386595Y-193793328D01*
X221386595Y-193793328D02*
X221529452Y-193721900D01*
X221529452Y-193721900D02*
X221600881Y-193650471D01*
X221600881Y-193650471D02*
X221743738Y-193436185D01*
X221743738Y-193436185D02*
X221815167Y-193150471D01*
X221815167Y-193150471D02*
X221815167Y-192579042D01*
X221815167Y-192579042D02*
X221743738Y-192436185D01*
X221743738Y-192436185D02*
X221672310Y-192364757D01*
X221672310Y-192364757D02*
X221529452Y-192293328D01*
X221529452Y-192293328D02*
X221243738Y-192293328D01*
X221243738Y-192293328D02*
X221100881Y-192364757D01*
X221100881Y-192364757D02*
X221029452Y-192436185D01*
X221029452Y-192436185D02*
X220958024Y-192579042D01*
X220958024Y-192579042D02*
X220958024Y-192936185D01*
X220958024Y-192936185D02*
X221029452Y-193079042D01*
X221029452Y-193079042D02*
X221100881Y-193150471D01*
X221100881Y-193150471D02*
X221243738Y-193221900D01*
X221243738Y-193221900D02*
X221529452Y-193221900D01*
X221529452Y-193221900D02*
X221672310Y-193150471D01*
X221672310Y-193150471D02*
X221743738Y-193079042D01*
X221743738Y-193079042D02*
X221815167Y-192936185D01*
D10*
D11*
X177002200Y-194507200D02*
X285002200Y-194507200D01*
D10*
D11*
X178458026Y-196593328D02*
X178458026Y-195093328D01*
X179315169Y-196593328D02*
X178672312Y-195736185D01*
X179315169Y-195093328D02*
X178458026Y-195950471D01*
X179958026Y-196593328D02*
X179958026Y-195593328D01*
X179958026Y-195093328D02*
X179886598Y-195164757D01*
X179886598Y-195164757D02*
X179958026Y-195236185D01*
X179958026Y-195236185D02*
X180029455Y-195164757D01*
X180029455Y-195164757D02*
X179958026Y-195093328D01*
X179958026Y-195093328D02*
X179958026Y-195236185D01*
X181529455Y-196450471D02*
X181458027Y-196521900D01*
X181458027Y-196521900D02*
X181243741Y-196593328D01*
X181243741Y-196593328D02*
X181100884Y-196593328D01*
X181100884Y-196593328D02*
X180886598Y-196521900D01*
X180886598Y-196521900D02*
X180743741Y-196379042D01*
X180743741Y-196379042D02*
X180672312Y-196236185D01*
X180672312Y-196236185D02*
X180600884Y-195950471D01*
X180600884Y-195950471D02*
X180600884Y-195736185D01*
X180600884Y-195736185D02*
X180672312Y-195450471D01*
X180672312Y-195450471D02*
X180743741Y-195307614D01*
X180743741Y-195307614D02*
X180886598Y-195164757D01*
X180886598Y-195164757D02*
X181100884Y-195093328D01*
X181100884Y-195093328D02*
X181243741Y-195093328D01*
X181243741Y-195093328D02*
X181458027Y-195164757D01*
X181458027Y-195164757D02*
X181529455Y-195236185D01*
X182815170Y-196593328D02*
X182815170Y-195807614D01*
X182815170Y-195807614D02*
X182743741Y-195664757D01*
X182743741Y-195664757D02*
X182600884Y-195593328D01*
X182600884Y-195593328D02*
X182315170Y-195593328D01*
X182315170Y-195593328D02*
X182172312Y-195664757D01*
X182815170Y-196521900D02*
X182672312Y-196593328D01*
X182672312Y-196593328D02*
X182315170Y-196593328D01*
X182315170Y-196593328D02*
X182172312Y-196521900D01*
X182172312Y-196521900D02*
X182100884Y-196379042D01*
X182100884Y-196379042D02*
X182100884Y-196236185D01*
X182100884Y-196236185D02*
X182172312Y-196093328D01*
X182172312Y-196093328D02*
X182315170Y-196021900D01*
X182315170Y-196021900D02*
X182672312Y-196021900D01*
X182672312Y-196021900D02*
X182815170Y-195950471D01*
X184172313Y-196593328D02*
X184172313Y-195093328D01*
X184172313Y-196521900D02*
X184029455Y-196593328D01*
X184029455Y-196593328D02*
X183743741Y-196593328D01*
X183743741Y-196593328D02*
X183600884Y-196521900D01*
X183600884Y-196521900D02*
X183529455Y-196450471D01*
X183529455Y-196450471D02*
X183458027Y-196307614D01*
X183458027Y-196307614D02*
X183458027Y-195879042D01*
X183458027Y-195879042D02*
X183529455Y-195736185D01*
X183529455Y-195736185D02*
X183600884Y-195664757D01*
X183600884Y-195664757D02*
X183743741Y-195593328D01*
X183743741Y-195593328D02*
X184029455Y-195593328D01*
X184029455Y-195593328D02*
X184172313Y-195664757D01*
X186029455Y-195807614D02*
X186529455Y-195807614D01*
X186743741Y-196593328D02*
X186029455Y-196593328D01*
X186029455Y-196593328D02*
X186029455Y-195093328D01*
X186029455Y-195093328D02*
X186743741Y-195093328D01*
X187386598Y-196450471D02*
X187458027Y-196521900D01*
X187458027Y-196521900D02*
X187386598Y-196593328D01*
X187386598Y-196593328D02*
X187315170Y-196521900D01*
X187315170Y-196521900D02*
X187386598Y-196450471D01*
X187386598Y-196450471D02*
X187386598Y-196593328D01*
X188100884Y-196593328D02*
X188100884Y-195093328D01*
X188100884Y-195093328D02*
X188458027Y-195093328D01*
X188458027Y-195093328D02*
X188672313Y-195164757D01*
X188672313Y-195164757D02*
X188815170Y-195307614D01*
X188815170Y-195307614D02*
X188886599Y-195450471D01*
X188886599Y-195450471D02*
X188958027Y-195736185D01*
X188958027Y-195736185D02*
X188958027Y-195950471D01*
X188958027Y-195950471D02*
X188886599Y-196236185D01*
X188886599Y-196236185D02*
X188815170Y-196379042D01*
X188815170Y-196379042D02*
X188672313Y-196521900D01*
X188672313Y-196521900D02*
X188458027Y-196593328D01*
X188458027Y-196593328D02*
X188100884Y-196593328D01*
X189600884Y-196450471D02*
X189672313Y-196521900D01*
X189672313Y-196521900D02*
X189600884Y-196593328D01*
X189600884Y-196593328D02*
X189529456Y-196521900D01*
X189529456Y-196521900D02*
X189600884Y-196450471D01*
X189600884Y-196450471D02*
X189600884Y-196593328D01*
X190243742Y-196164757D02*
X190958028Y-196164757D01*
X190100885Y-196593328D02*
X190600885Y-195093328D01*
X190600885Y-195093328D02*
X191100885Y-196593328D01*
X191600884Y-196450471D02*
X191672313Y-196521900D01*
X191672313Y-196521900D02*
X191600884Y-196593328D01*
X191600884Y-196593328D02*
X191529456Y-196521900D01*
X191529456Y-196521900D02*
X191600884Y-196450471D01*
X191600884Y-196450471D02*
X191600884Y-196593328D01*
X193529456Y-196593328D02*
X193815170Y-196593328D01*
X193815170Y-196593328D02*
X193958027Y-196521900D01*
X193958027Y-196521900D02*
X194029456Y-196450471D01*
X194029456Y-196450471D02*
X194172313Y-196236185D01*
X194172313Y-196236185D02*
X194243742Y-195950471D01*
X194243742Y-195950471D02*
X194243742Y-195379042D01*
X194243742Y-195379042D02*
X194172313Y-195236185D01*
X194172313Y-195236185D02*
X194100885Y-195164757D01*
X194100885Y-195164757D02*
X193958027Y-195093328D01*
X193958027Y-195093328D02*
X193672313Y-195093328D01*
X193672313Y-195093328D02*
X193529456Y-195164757D01*
X193529456Y-195164757D02*
X193458027Y-195236185D01*
X193458027Y-195236185D02*
X193386599Y-195379042D01*
X193386599Y-195379042D02*
X193386599Y-195736185D01*
X193386599Y-195736185D02*
X193458027Y-195879042D01*
X193458027Y-195879042D02*
X193529456Y-195950471D01*
X193529456Y-195950471D02*
X193672313Y-196021900D01*
X193672313Y-196021900D02*
X193958027Y-196021900D01*
X193958027Y-196021900D02*
X194100885Y-195950471D01*
X194100885Y-195950471D02*
X194172313Y-195879042D01*
X194172313Y-195879042D02*
X194243742Y-195736185D01*
X194886598Y-196450471D02*
X194958027Y-196521900D01*
X194958027Y-196521900D02*
X194886598Y-196593328D01*
X194886598Y-196593328D02*
X194815170Y-196521900D01*
X194815170Y-196521900D02*
X194886598Y-196450471D01*
X194886598Y-196450471D02*
X194886598Y-196593328D01*
X195886599Y-195093328D02*
X196029456Y-195093328D01*
X196029456Y-195093328D02*
X196172313Y-195164757D01*
X196172313Y-195164757D02*
X196243742Y-195236185D01*
X196243742Y-195236185D02*
X196315170Y-195379042D01*
X196315170Y-195379042D02*
X196386599Y-195664757D01*
X196386599Y-195664757D02*
X196386599Y-196021900D01*
X196386599Y-196021900D02*
X196315170Y-196307614D01*
X196315170Y-196307614D02*
X196243742Y-196450471D01*
X196243742Y-196450471D02*
X196172313Y-196521900D01*
X196172313Y-196521900D02*
X196029456Y-196593328D01*
X196029456Y-196593328D02*
X195886599Y-196593328D01*
X195886599Y-196593328D02*
X195743742Y-196521900D01*
X195743742Y-196521900D02*
X195672313Y-196450471D01*
X195672313Y-196450471D02*
X195600884Y-196307614D01*
X195600884Y-196307614D02*
X195529456Y-196021900D01*
X195529456Y-196021900D02*
X195529456Y-195664757D01*
X195529456Y-195664757D02*
X195600884Y-195379042D01*
X195600884Y-195379042D02*
X195672313Y-195236185D01*
X195672313Y-195236185D02*
X195743742Y-195164757D01*
X195743742Y-195164757D02*
X195886599Y-195093328D01*
X197029455Y-196450471D02*
X197100884Y-196521900D01*
X197100884Y-196521900D02*
X197029455Y-196593328D01*
X197029455Y-196593328D02*
X196958027Y-196521900D01*
X196958027Y-196521900D02*
X197029455Y-196450471D01*
X197029455Y-196450471D02*
X197029455Y-196593328D01*
X197600884Y-195093328D02*
X198600884Y-195093328D01*
X198600884Y-195093328D02*
X197958027Y-196593328D01*
D10*
D11*
X177002200Y-191507200D02*
X285002200Y-191507200D01*
D10*
D12*
X264413853Y-193785528D02*
X263913853Y-193071242D01*
X263556710Y-193785528D02*
X263556710Y-192285528D01*
X263556710Y-192285528D02*
X264128139Y-192285528D01*
X264128139Y-192285528D02*
X264270996Y-192356957D01*
X264270996Y-192356957D02*
X264342425Y-192428385D01*
X264342425Y-192428385D02*
X264413853Y-192571242D01*
X264413853Y-192571242D02*
X264413853Y-192785528D01*
X264413853Y-192785528D02*
X264342425Y-192928385D01*
X264342425Y-192928385D02*
X264270996Y-192999814D01*
X264270996Y-192999814D02*
X264128139Y-193071242D01*
X264128139Y-193071242D02*
X263556710Y-193071242D01*
X265628139Y-193714100D02*
X265485282Y-193785528D01*
X265485282Y-193785528D02*
X265199568Y-193785528D01*
X265199568Y-193785528D02*
X265056710Y-193714100D01*
X265056710Y-193714100D02*
X264985282Y-193571242D01*
X264985282Y-193571242D02*
X264985282Y-192999814D01*
X264985282Y-192999814D02*
X265056710Y-192856957D01*
X265056710Y-192856957D02*
X265199568Y-192785528D01*
X265199568Y-192785528D02*
X265485282Y-192785528D01*
X265485282Y-192785528D02*
X265628139Y-192856957D01*
X265628139Y-192856957D02*
X265699568Y-192999814D01*
X265699568Y-192999814D02*
X265699568Y-193142671D01*
X265699568Y-193142671D02*
X264985282Y-193285528D01*
X266199567Y-192785528D02*
X266556710Y-193785528D01*
X266556710Y-193785528D02*
X266913853Y-192785528D01*
X267485281Y-193642671D02*
X267556710Y-193714100D01*
X267556710Y-193714100D02*
X267485281Y-193785528D01*
X267485281Y-193785528D02*
X267413853Y-193714100D01*
X267413853Y-193714100D02*
X267485281Y-193642671D01*
X267485281Y-193642671D02*
X267485281Y-193785528D01*
X267485281Y-192856957D02*
X267556710Y-192928385D01*
X267556710Y-192928385D02*
X267485281Y-192999814D01*
X267485281Y-192999814D02*
X267413853Y-192928385D01*
X267413853Y-192928385D02*
X267485281Y-192856957D01*
X267485281Y-192856957D02*
X267485281Y-192999814D01*
X269199567Y-192285528D02*
X269556710Y-193785528D01*
X269556710Y-193785528D02*
X269842424Y-192714100D01*
X269842424Y-192714100D02*
X270128139Y-193785528D01*
X270128139Y-193785528D02*
X270485282Y-192285528D01*
X270985282Y-193356957D02*
X271699568Y-193356957D01*
X270842425Y-193785528D02*
X271342425Y-192285528D01*
X271342425Y-192285528D02*
X271842425Y-193785528D01*
X273128139Y-193785528D02*
X272270996Y-193785528D01*
X272699567Y-193785528D02*
X272699567Y-192285528D01*
X272699567Y-192285528D02*
X272556710Y-192499814D01*
X272556710Y-192499814D02*
X272413853Y-192642671D01*
X272413853Y-192642671D02*
X272270996Y-192714100D01*
X274628138Y-193642671D02*
X274556710Y-193714100D01*
X274556710Y-193714100D02*
X274342424Y-193785528D01*
X274342424Y-193785528D02*
X274199567Y-193785528D01*
X274199567Y-193785528D02*
X273985281Y-193714100D01*
X273985281Y-193714100D02*
X273842424Y-193571242D01*
X273842424Y-193571242D02*
X273770995Y-193428385D01*
X273770995Y-193428385D02*
X273699567Y-193142671D01*
X273699567Y-193142671D02*
X273699567Y-192928385D01*
X273699567Y-192928385D02*
X273770995Y-192642671D01*
X273770995Y-192642671D02*
X273842424Y-192499814D01*
X273842424Y-192499814D02*
X273985281Y-192356957D01*
X273985281Y-192356957D02*
X274199567Y-192285528D01*
X274199567Y-192285528D02*
X274342424Y-192285528D01*
X274342424Y-192285528D02*
X274556710Y-192356957D01*
X274556710Y-192356957D02*
X274628138Y-192428385D01*
X275556710Y-193071242D02*
X275556710Y-193785528D01*
X275056710Y-192285528D02*
X275556710Y-193071242D01*
X275556710Y-193071242D02*
X276056710Y-192285528D01*
X277056709Y-192999814D02*
X277270995Y-193071242D01*
X277270995Y-193071242D02*
X277342424Y-193142671D01*
X277342424Y-193142671D02*
X277413852Y-193285528D01*
X277413852Y-193285528D02*
X277413852Y-193499814D01*
X277413852Y-193499814D02*
X277342424Y-193642671D01*
X277342424Y-193642671D02*
X277270995Y-193714100D01*
X277270995Y-193714100D02*
X277128138Y-193785528D01*
X277128138Y-193785528D02*
X276556709Y-193785528D01*
X276556709Y-193785528D02*
X276556709Y-192285528D01*
X276556709Y-192285528D02*
X277056709Y-192285528D01*
X277056709Y-192285528D02*
X277199567Y-192356957D01*
X277199567Y-192356957D02*
X277270995Y-192428385D01*
X277270995Y-192428385D02*
X277342424Y-192571242D01*
X277342424Y-192571242D02*
X277342424Y-192714100D01*
X277342424Y-192714100D02*
X277270995Y-192856957D01*
X277270995Y-192856957D02*
X277199567Y-192928385D01*
X277199567Y-192928385D02*
X277056709Y-192999814D01*
X277056709Y-192999814D02*
X276556709Y-192999814D01*
X278056709Y-193214100D02*
X279199567Y-193214100D01*
X279913852Y-193785528D02*
X279913852Y-192785528D01*
X279913852Y-193071242D02*
X279985281Y-192928385D01*
X279985281Y-192928385D02*
X280056710Y-192856957D01*
X280056710Y-192856957D02*
X280199567Y-192785528D01*
X280199567Y-192785528D02*
X280342424Y-192785528D01*
X281413852Y-193714100D02*
X281270995Y-193785528D01*
X281270995Y-193785528D02*
X280985281Y-193785528D01*
X280985281Y-193785528D02*
X280842423Y-193714100D01*
X280842423Y-193714100D02*
X280770995Y-193571242D01*
X280770995Y-193571242D02*
X280770995Y-192999814D01*
X280770995Y-192999814D02*
X280842423Y-192856957D01*
X280842423Y-192856957D02*
X280985281Y-192785528D01*
X280985281Y-192785528D02*
X281270995Y-192785528D01*
X281270995Y-192785528D02*
X281413852Y-192856957D01*
X281413852Y-192856957D02*
X281485281Y-192999814D01*
X281485281Y-192999814D02*
X281485281Y-193142671D01*
X281485281Y-193142671D02*
X280770995Y-193285528D01*
X281985280Y-192785528D02*
X282342423Y-193785528D01*
X282342423Y-193785528D02*
X282699566Y-192785528D01*
X283770994Y-192999814D02*
X283985280Y-193071242D01*
X283985280Y-193071242D02*
X284056709Y-193142671D01*
X284056709Y-193142671D02*
X284128137Y-193285528D01*
X284128137Y-193285528D02*
X284128137Y-193499814D01*
X284128137Y-193499814D02*
X284056709Y-193642671D01*
X284056709Y-193642671D02*
X283985280Y-193714100D01*
X283985280Y-193714100D02*
X283842423Y-193785528D01*
X283842423Y-193785528D02*
X283270994Y-193785528D01*
X283270994Y-193785528D02*
X283270994Y-192285528D01*
X283270994Y-192285528D02*
X283770994Y-192285528D01*
X283770994Y-192285528D02*
X283913852Y-192356957D01*
X283913852Y-192356957D02*
X283985280Y-192428385D01*
X283985280Y-192428385D02*
X284056709Y-192571242D01*
X284056709Y-192571242D02*
X284056709Y-192714100D01*
X284056709Y-192714100D02*
X283985280Y-192856957D01*
X283985280Y-192856957D02*
X283913852Y-192928385D01*
X283913852Y-192928385D02*
X283770994Y-192999814D01*
X283770994Y-192999814D02*
X283270994Y-192999814D01*
D10*
D11*
X178386598Y-193721900D02*
X178600884Y-193793328D01*
X178600884Y-193793328D02*
X178958026Y-193793328D01*
X178958026Y-193793328D02*
X179100884Y-193721900D01*
X179100884Y-193721900D02*
X179172312Y-193650471D01*
X179172312Y-193650471D02*
X179243741Y-193507614D01*
X179243741Y-193507614D02*
X179243741Y-193364757D01*
X179243741Y-193364757D02*
X179172312Y-193221900D01*
X179172312Y-193221900D02*
X179100884Y-193150471D01*
X179100884Y-193150471D02*
X178958026Y-193079042D01*
X178958026Y-193079042D02*
X178672312Y-193007614D01*
X178672312Y-193007614D02*
X178529455Y-192936185D01*
X178529455Y-192936185D02*
X178458026Y-192864757D01*
X178458026Y-192864757D02*
X178386598Y-192721900D01*
X178386598Y-192721900D02*
X178386598Y-192579042D01*
X178386598Y-192579042D02*
X178458026Y-192436185D01*
X178458026Y-192436185D02*
X178529455Y-192364757D01*
X178529455Y-192364757D02*
X178672312Y-192293328D01*
X178672312Y-192293328D02*
X179029455Y-192293328D01*
X179029455Y-192293328D02*
X179243741Y-192364757D01*
X179886597Y-193793328D02*
X179886597Y-192793328D01*
X179886597Y-192293328D02*
X179815169Y-192364757D01*
X179815169Y-192364757D02*
X179886597Y-192436185D01*
X179886597Y-192436185D02*
X179958026Y-192364757D01*
X179958026Y-192364757D02*
X179886597Y-192293328D01*
X179886597Y-192293328D02*
X179886597Y-192436185D01*
X180458026Y-192793328D02*
X181243741Y-192793328D01*
X181243741Y-192793328D02*
X180458026Y-193793328D01*
X180458026Y-193793328D02*
X181243741Y-193793328D01*
X182386598Y-193721900D02*
X182243741Y-193793328D01*
X182243741Y-193793328D02*
X181958027Y-193793328D01*
X181958027Y-193793328D02*
X181815169Y-193721900D01*
X181815169Y-193721900D02*
X181743741Y-193579042D01*
X181743741Y-193579042D02*
X181743741Y-193007614D01*
X181743741Y-193007614D02*
X181815169Y-192864757D01*
X181815169Y-192864757D02*
X181958027Y-192793328D01*
X181958027Y-192793328D02*
X182243741Y-192793328D01*
X182243741Y-192793328D02*
X182386598Y-192864757D01*
X182386598Y-192864757D02*
X182458027Y-193007614D01*
X182458027Y-193007614D02*
X182458027Y-193150471D01*
X182458027Y-193150471D02*
X181743741Y-193293328D01*
X183100883Y-193650471D02*
X183172312Y-193721900D01*
X183172312Y-193721900D02*
X183100883Y-193793328D01*
X183100883Y-193793328D02*
X183029455Y-193721900D01*
X183029455Y-193721900D02*
X183100883Y-193650471D01*
X183100883Y-193650471D02*
X183100883Y-193793328D01*
X183100883Y-192864757D02*
X183172312Y-192936185D01*
X183172312Y-192936185D02*
X183100883Y-193007614D01*
X183100883Y-193007614D02*
X183029455Y-192936185D01*
X183029455Y-192936185D02*
X183100883Y-192864757D01*
X183100883Y-192864757D02*
X183100883Y-193007614D01*
X184886598Y-193364757D02*
X185600884Y-193364757D01*
X184743741Y-193793328D02*
X185243741Y-192293328D01*
X185243741Y-192293328D02*
X185743741Y-193793328D01*
X186886598Y-192793328D02*
X186886598Y-193793328D01*
X186529455Y-192221900D02*
X186172312Y-193293328D01*
X186172312Y-193293328D02*
X187100883Y-193293328D01*
D10*
D11*
X263458026Y-196593328D02*
X263458026Y-195093328D01*
X264815170Y-196593328D02*
X264815170Y-195093328D01*
X264815170Y-196521900D02*
X264672312Y-196593328D01*
X264672312Y-196593328D02*
X264386598Y-196593328D01*
X264386598Y-196593328D02*
X264243741Y-196521900D01*
X264243741Y-196521900D02*
X264172312Y-196450471D01*
X264172312Y-196450471D02*
X264100884Y-196307614D01*
X264100884Y-196307614D02*
X264100884Y-195879042D01*
X264100884Y-195879042D02*
X264172312Y-195736185D01*
X264172312Y-195736185D02*
X264243741Y-195664757D01*
X264243741Y-195664757D02*
X264386598Y-195593328D01*
X264386598Y-195593328D02*
X264672312Y-195593328D01*
X264672312Y-195593328D02*
X264815170Y-195664757D01*
X265529455Y-196450471D02*
X265600884Y-196521900D01*
X265600884Y-196521900D02*
X265529455Y-196593328D01*
X265529455Y-196593328D02*
X265458027Y-196521900D01*
X265458027Y-196521900D02*
X265529455Y-196450471D01*
X265529455Y-196450471D02*
X265529455Y-196593328D01*
X265529455Y-195664757D02*
X265600884Y-195736185D01*
X265600884Y-195736185D02*
X265529455Y-195807614D01*
X265529455Y-195807614D02*
X265458027Y-195736185D01*
X265458027Y-195736185D02*
X265529455Y-195664757D01*
X265529455Y-195664757D02*
X265529455Y-195807614D01*
X267315170Y-195236185D02*
X267386598Y-195164757D01*
X267386598Y-195164757D02*
X267529456Y-195093328D01*
X267529456Y-195093328D02*
X267886598Y-195093328D01*
X267886598Y-195093328D02*
X268029456Y-195164757D01*
X268029456Y-195164757D02*
X268100884Y-195236185D01*
X268100884Y-195236185D02*
X268172313Y-195379042D01*
X268172313Y-195379042D02*
X268172313Y-195521900D01*
X268172313Y-195521900D02*
X268100884Y-195736185D01*
X268100884Y-195736185D02*
X267243741Y-196593328D01*
X267243741Y-196593328D02*
X268172313Y-196593328D01*
X268886598Y-196593328D02*
X269172312Y-196593328D01*
X269172312Y-196593328D02*
X269315169Y-196521900D01*
X269315169Y-196521900D02*
X269386598Y-196450471D01*
X269386598Y-196450471D02*
X269529455Y-196236185D01*
X269529455Y-196236185D02*
X269600884Y-195950471D01*
X269600884Y-195950471D02*
X269600884Y-195379042D01*
X269600884Y-195379042D02*
X269529455Y-195236185D01*
X269529455Y-195236185D02*
X269458027Y-195164757D01*
X269458027Y-195164757D02*
X269315169Y-195093328D01*
X269315169Y-195093328D02*
X269029455Y-195093328D01*
X269029455Y-195093328D02*
X268886598Y-195164757D01*
X268886598Y-195164757D02*
X268815169Y-195236185D01*
X268815169Y-195236185D02*
X268743741Y-195379042D01*
X268743741Y-195379042D02*
X268743741Y-195736185D01*
X268743741Y-195736185D02*
X268815169Y-195879042D01*
X268815169Y-195879042D02*
X268886598Y-195950471D01*
X268886598Y-195950471D02*
X269029455Y-196021900D01*
X269029455Y-196021900D02*
X269315169Y-196021900D01*
X269315169Y-196021900D02*
X269458027Y-195950471D01*
X269458027Y-195950471D02*
X269529455Y-195879042D01*
X269529455Y-195879042D02*
X269600884Y-195736185D01*
X271315169Y-195021900D02*
X270029455Y-196950471D01*
X271672312Y-195093328D02*
X272600884Y-195093328D01*
X272600884Y-195093328D02*
X272100884Y-195664757D01*
X272100884Y-195664757D02*
X272315169Y-195664757D01*
X272315169Y-195664757D02*
X272458027Y-195736185D01*
X272458027Y-195736185D02*
X272529455Y-195807614D01*
X272529455Y-195807614D02*
X272600884Y-195950471D01*
X272600884Y-195950471D02*
X272600884Y-196307614D01*
X272600884Y-196307614D02*
X272529455Y-196450471D01*
X272529455Y-196450471D02*
X272458027Y-196521900D01*
X272458027Y-196521900D02*
X272315169Y-196593328D01*
X272315169Y-196593328D02*
X271886598Y-196593328D01*
X271886598Y-196593328D02*
X271743741Y-196521900D01*
X271743741Y-196521900D02*
X271672312Y-196450471D01*
X273529455Y-195093328D02*
X273672312Y-195093328D01*
X273672312Y-195093328D02*
X273815169Y-195164757D01*
X273815169Y-195164757D02*
X273886598Y-195236185D01*
X273886598Y-195236185D02*
X273958026Y-195379042D01*
X273958026Y-195379042D02*
X274029455Y-195664757D01*
X274029455Y-195664757D02*
X274029455Y-196021900D01*
X274029455Y-196021900D02*
X273958026Y-196307614D01*
X273958026Y-196307614D02*
X273886598Y-196450471D01*
X273886598Y-196450471D02*
X273815169Y-196521900D01*
X273815169Y-196521900D02*
X273672312Y-196593328D01*
X273672312Y-196593328D02*
X273529455Y-196593328D01*
X273529455Y-196593328D02*
X273386598Y-196521900D01*
X273386598Y-196521900D02*
X273315169Y-196450471D01*
X273315169Y-196450471D02*
X273243740Y-196307614D01*
X273243740Y-196307614D02*
X273172312Y-196021900D01*
X273172312Y-196021900D02*
X273172312Y-195664757D01*
X273172312Y-195664757D02*
X273243740Y-195379042D01*
X273243740Y-195379042D02*
X273315169Y-195236185D01*
X273315169Y-195236185D02*
X273386598Y-195164757D01*
X273386598Y-195164757D02*
X273529455Y-195093328D01*
D10*
D11*
X177002200Y-187507200D02*
X285002200Y-187507200D01*
D10*
D13*
X178693928Y-188211638D02*
X179836785Y-188211638D01*
X179015357Y-190211638D02*
X179265357Y-188211638D01*
X180253452Y-190211638D02*
X180420119Y-188878304D01*
X180503452Y-188211638D02*
X180396309Y-188306876D01*
X180396309Y-188306876D02*
X180479643Y-188402114D01*
X180479643Y-188402114D02*
X180586786Y-188306876D01*
X180586786Y-188306876D02*
X180503452Y-188211638D01*
X180503452Y-188211638D02*
X180479643Y-188402114D01*
X181086786Y-188878304D02*
X181848690Y-188878304D01*
X181455833Y-188211638D02*
X181241548Y-189925923D01*
X181241548Y-189925923D02*
X181312976Y-190116400D01*
X181312976Y-190116400D02*
X181491548Y-190211638D01*
X181491548Y-190211638D02*
X181682024Y-190211638D01*
X182634405Y-190211638D02*
X182455833Y-190116400D01*
X182455833Y-190116400D02*
X182384405Y-189925923D01*
X182384405Y-189925923D02*
X182598690Y-188211638D01*
X184170119Y-190116400D02*
X183967738Y-190211638D01*
X183967738Y-190211638D02*
X183586785Y-190211638D01*
X183586785Y-190211638D02*
X183408214Y-190116400D01*
X183408214Y-190116400D02*
X183336785Y-189925923D01*
X183336785Y-189925923D02*
X183432024Y-189164019D01*
X183432024Y-189164019D02*
X183551071Y-188973542D01*
X183551071Y-188973542D02*
X183753452Y-188878304D01*
X183753452Y-188878304D02*
X184134404Y-188878304D01*
X184134404Y-188878304D02*
X184312976Y-188973542D01*
X184312976Y-188973542D02*
X184384404Y-189164019D01*
X184384404Y-189164019D02*
X184360595Y-189354495D01*
X184360595Y-189354495D02*
X183384404Y-189544971D01*
X185134405Y-190021161D02*
X185217738Y-190116400D01*
X185217738Y-190116400D02*
X185110595Y-190211638D01*
X185110595Y-190211638D02*
X185027262Y-190116400D01*
X185027262Y-190116400D02*
X185134405Y-190021161D01*
X185134405Y-190021161D02*
X185110595Y-190211638D01*
X185265357Y-188973542D02*
X185348690Y-189068780D01*
X185348690Y-189068780D02*
X185241548Y-189164019D01*
X185241548Y-189164019D02*
X185158214Y-189068780D01*
X185158214Y-189068780D02*
X185265357Y-188973542D01*
X185265357Y-188973542D02*
X185241548Y-189164019D01*
X187562977Y-189640209D02*
X188515358Y-189640209D01*
X187301072Y-190211638D02*
X188217739Y-188211638D01*
X188217739Y-188211638D02*
X188634405Y-190211638D01*
X189301072Y-190211638D02*
X189551072Y-188211638D01*
X189551072Y-188211638D02*
X190039167Y-189640209D01*
X190039167Y-189640209D02*
X190884406Y-188211638D01*
X190884406Y-188211638D02*
X190634406Y-190211638D01*
X191503453Y-190116400D02*
X191777262Y-190211638D01*
X191777262Y-190211638D02*
X192253453Y-190211638D01*
X192253453Y-190211638D02*
X192455834Y-190116400D01*
X192455834Y-190116400D02*
X192562977Y-190021161D01*
X192562977Y-190021161D02*
X192682024Y-189830685D01*
X192682024Y-189830685D02*
X192705834Y-189640209D01*
X192705834Y-189640209D02*
X192634405Y-189449733D01*
X192634405Y-189449733D02*
X192551072Y-189354495D01*
X192551072Y-189354495D02*
X192372501Y-189259257D01*
X192372501Y-189259257D02*
X192003453Y-189164019D01*
X192003453Y-189164019D02*
X191824881Y-189068780D01*
X191824881Y-189068780D02*
X191741548Y-188973542D01*
X191741548Y-188973542D02*
X191670120Y-188783066D01*
X191670120Y-188783066D02*
X191693929Y-188592590D01*
X191693929Y-188592590D02*
X191812977Y-188402114D01*
X191812977Y-188402114D02*
X191920120Y-188306876D01*
X191920120Y-188306876D02*
X192122501Y-188211638D01*
X192122501Y-188211638D02*
X192598691Y-188211638D01*
X192598691Y-188211638D02*
X192872501Y-188306876D01*
X193467739Y-189640209D02*
X194420120Y-189640209D01*
X193205834Y-190211638D02*
X194122501Y-188211638D01*
X194122501Y-188211638D02*
X194539167Y-190211638D01*
X195170120Y-188211638D02*
X196312977Y-188211638D01*
X195491549Y-190211638D02*
X195741549Y-188211638D01*
X198229645Y-189640209D02*
X199182026Y-189640209D01*
X197967740Y-190211638D02*
X198884407Y-188211638D01*
X198884407Y-188211638D02*
X199301073Y-190211638D01*
X199884407Y-190116400D02*
X200158216Y-190211638D01*
X200158216Y-190211638D02*
X200634407Y-190211638D01*
X200634407Y-190211638D02*
X200836788Y-190116400D01*
X200836788Y-190116400D02*
X200943931Y-190021161D01*
X200943931Y-190021161D02*
X201062978Y-189830685D01*
X201062978Y-189830685D02*
X201086788Y-189640209D01*
X201086788Y-189640209D02*
X201015359Y-189449733D01*
X201015359Y-189449733D02*
X200932026Y-189354495D01*
X200932026Y-189354495D02*
X200753455Y-189259257D01*
X200753455Y-189259257D02*
X200384407Y-189164019D01*
X200384407Y-189164019D02*
X200205835Y-189068780D01*
X200205835Y-189068780D02*
X200122502Y-188973542D01*
X200122502Y-188973542D02*
X200051074Y-188783066D01*
X200051074Y-188783066D02*
X200074883Y-188592590D01*
X200074883Y-188592590D02*
X200193931Y-188402114D01*
X200193931Y-188402114D02*
X200301074Y-188306876D01*
X200301074Y-188306876D02*
X200503455Y-188211638D01*
X200503455Y-188211638D02*
X200979645Y-188211638D01*
X200979645Y-188211638D02*
X201253455Y-188306876D01*
X203039169Y-190021161D02*
X202932026Y-190116400D01*
X202932026Y-190116400D02*
X202634407Y-190211638D01*
X202634407Y-190211638D02*
X202443931Y-190211638D01*
X202443931Y-190211638D02*
X202170121Y-190116400D01*
X202170121Y-190116400D02*
X202003455Y-189925923D01*
X202003455Y-189925923D02*
X201932026Y-189735447D01*
X201932026Y-189735447D02*
X201884407Y-189354495D01*
X201884407Y-189354495D02*
X201920121Y-189068780D01*
X201920121Y-189068780D02*
X202062978Y-188687828D01*
X202062978Y-188687828D02*
X202182026Y-188497352D01*
X202182026Y-188497352D02*
X202396312Y-188306876D01*
X202396312Y-188306876D02*
X202693931Y-188211638D01*
X202693931Y-188211638D02*
X202884407Y-188211638D01*
X202884407Y-188211638D02*
X203158217Y-188306876D01*
X203158217Y-188306876D02*
X203241550Y-188402114D01*
X204003455Y-189164019D02*
X204670121Y-189164019D01*
X204824883Y-190211638D02*
X203872502Y-190211638D01*
X203872502Y-190211638D02*
X204122502Y-188211638D01*
X204122502Y-188211638D02*
X205074883Y-188211638D01*
X205682026Y-190211638D02*
X205932026Y-188211638D01*
X205932026Y-188211638D02*
X206824883Y-190211638D01*
X206824883Y-190211638D02*
X207074883Y-188211638D01*
X207741550Y-188211638D02*
X208884407Y-188211638D01*
X208062979Y-190211638D02*
X208312979Y-188211638D01*
X210741551Y-190116400D02*
X211015360Y-190211638D01*
X211015360Y-190211638D02*
X211491551Y-190211638D01*
X211491551Y-190211638D02*
X211693932Y-190116400D01*
X211693932Y-190116400D02*
X211801075Y-190021161D01*
X211801075Y-190021161D02*
X211920122Y-189830685D01*
X211920122Y-189830685D02*
X211943932Y-189640209D01*
X211943932Y-189640209D02*
X211872503Y-189449733D01*
X211872503Y-189449733D02*
X211789170Y-189354495D01*
X211789170Y-189354495D02*
X211610599Y-189259257D01*
X211610599Y-189259257D02*
X211241551Y-189164019D01*
X211241551Y-189164019D02*
X211062979Y-189068780D01*
X211062979Y-189068780D02*
X210979646Y-188973542D01*
X210979646Y-188973542D02*
X210908218Y-188783066D01*
X210908218Y-188783066D02*
X210932027Y-188592590D01*
X210932027Y-188592590D02*
X211051075Y-188402114D01*
X211051075Y-188402114D02*
X211158218Y-188306876D01*
X211158218Y-188306876D02*
X211360599Y-188211638D01*
X211360599Y-188211638D02*
X211836789Y-188211638D01*
X211836789Y-188211638D02*
X212110599Y-188306876D01*
X212729646Y-190211638D02*
X212979646Y-188211638D01*
X212979646Y-188211638D02*
X213455837Y-188211638D01*
X213455837Y-188211638D02*
X213729646Y-188306876D01*
X213729646Y-188306876D02*
X213896313Y-188497352D01*
X213896313Y-188497352D02*
X213967741Y-188687828D01*
X213967741Y-188687828D02*
X214015361Y-189068780D01*
X214015361Y-189068780D02*
X213979646Y-189354495D01*
X213979646Y-189354495D02*
X213836789Y-189735447D01*
X213836789Y-189735447D02*
X213717741Y-189925923D01*
X213717741Y-189925923D02*
X213503456Y-190116400D01*
X213503456Y-190116400D02*
X213205837Y-190211638D01*
X213205837Y-190211638D02*
X212729646Y-190211638D01*
X215872503Y-190211638D02*
X215324884Y-189259257D01*
X214729646Y-190211638D02*
X214979646Y-188211638D01*
X214979646Y-188211638D02*
X215741551Y-188211638D01*
X215741551Y-188211638D02*
X215920122Y-188306876D01*
X215920122Y-188306876D02*
X216003456Y-188402114D01*
X216003456Y-188402114D02*
X216074884Y-188592590D01*
X216074884Y-188592590D02*
X216039170Y-188878304D01*
X216039170Y-188878304D02*
X215920122Y-189068780D01*
X215920122Y-189068780D02*
X215812980Y-189164019D01*
X215812980Y-189164019D02*
X215610599Y-189259257D01*
X215610599Y-189259257D02*
X214848694Y-189259257D01*
D10*
D11*
X178958026Y-185607614D02*
X178458026Y-185607614D01*
X178458026Y-186393328D02*
X178458026Y-184893328D01*
X178458026Y-184893328D02*
X179172312Y-184893328D01*
X179743740Y-186393328D02*
X179743740Y-185393328D01*
X179743740Y-184893328D02*
X179672312Y-184964757D01*
X179672312Y-184964757D02*
X179743740Y-185036185D01*
X179743740Y-185036185D02*
X179815169Y-184964757D01*
X179815169Y-184964757D02*
X179743740Y-184893328D01*
X179743740Y-184893328D02*
X179743740Y-185036185D01*
X180672312Y-186393328D02*
X180529455Y-186321900D01*
X180529455Y-186321900D02*
X180458026Y-186179042D01*
X180458026Y-186179042D02*
X180458026Y-184893328D01*
X181815169Y-186321900D02*
X181672312Y-186393328D01*
X181672312Y-186393328D02*
X181386598Y-186393328D01*
X181386598Y-186393328D02*
X181243740Y-186321900D01*
X181243740Y-186321900D02*
X181172312Y-186179042D01*
X181172312Y-186179042D02*
X181172312Y-185607614D01*
X181172312Y-185607614D02*
X181243740Y-185464757D01*
X181243740Y-185464757D02*
X181386598Y-185393328D01*
X181386598Y-185393328D02*
X181672312Y-185393328D01*
X181672312Y-185393328D02*
X181815169Y-185464757D01*
X181815169Y-185464757D02*
X181886598Y-185607614D01*
X181886598Y-185607614D02*
X181886598Y-185750471D01*
X181886598Y-185750471D02*
X181172312Y-185893328D01*
X182529454Y-186250471D02*
X182600883Y-186321900D01*
X182600883Y-186321900D02*
X182529454Y-186393328D01*
X182529454Y-186393328D02*
X182458026Y-186321900D01*
X182458026Y-186321900D02*
X182529454Y-186250471D01*
X182529454Y-186250471D02*
X182529454Y-186393328D01*
X182529454Y-185464757D02*
X182600883Y-185536185D01*
X182600883Y-185536185D02*
X182529454Y-185607614D01*
X182529454Y-185607614D02*
X182458026Y-185536185D01*
X182458026Y-185536185D02*
X182529454Y-185464757D01*
X182529454Y-185464757D02*
X182529454Y-185607614D01*
X184315169Y-185964757D02*
X185029455Y-185964757D01*
X184172312Y-186393328D02*
X184672312Y-184893328D01*
X184672312Y-184893328D02*
X185172312Y-186393328D01*
X185672311Y-186393328D02*
X185672311Y-184893328D01*
X185672311Y-184893328D02*
X186172311Y-185964757D01*
X186172311Y-185964757D02*
X186672311Y-184893328D01*
X186672311Y-184893328D02*
X186672311Y-186393328D01*
X187315169Y-186321900D02*
X187529455Y-186393328D01*
X187529455Y-186393328D02*
X187886597Y-186393328D01*
X187886597Y-186393328D02*
X188029455Y-186321900D01*
X188029455Y-186321900D02*
X188100883Y-186250471D01*
X188100883Y-186250471D02*
X188172312Y-186107614D01*
X188172312Y-186107614D02*
X188172312Y-185964757D01*
X188172312Y-185964757D02*
X188100883Y-185821900D01*
X188100883Y-185821900D02*
X188029455Y-185750471D01*
X188029455Y-185750471D02*
X187886597Y-185679042D01*
X187886597Y-185679042D02*
X187600883Y-185607614D01*
X187600883Y-185607614D02*
X187458026Y-185536185D01*
X187458026Y-185536185D02*
X187386597Y-185464757D01*
X187386597Y-185464757D02*
X187315169Y-185321900D01*
X187315169Y-185321900D02*
X187315169Y-185179042D01*
X187315169Y-185179042D02*
X187386597Y-185036185D01*
X187386597Y-185036185D02*
X187458026Y-184964757D01*
X187458026Y-184964757D02*
X187600883Y-184893328D01*
X187600883Y-184893328D02*
X187958026Y-184893328D01*
X187958026Y-184893328D02*
X188172312Y-184964757D01*
X188743740Y-185964757D02*
X189458026Y-185964757D01*
X188600883Y-186393328D02*
X189100883Y-184893328D01*
X189100883Y-184893328D02*
X189600883Y-186393328D01*
X189886597Y-184893328D02*
X190743740Y-184893328D01*
X190315168Y-186393328D02*
X190315168Y-184893328D01*
X190886597Y-186536185D02*
X192029454Y-186536185D01*
X192315168Y-186321900D02*
X192529454Y-186393328D01*
X192529454Y-186393328D02*
X192886596Y-186393328D01*
X192886596Y-186393328D02*
X193029454Y-186321900D01*
X193029454Y-186321900D02*
X193100882Y-186250471D01*
X193100882Y-186250471D02*
X193172311Y-186107614D01*
X193172311Y-186107614D02*
X193172311Y-185964757D01*
X193172311Y-185964757D02*
X193100882Y-185821900D01*
X193100882Y-185821900D02*
X193029454Y-185750471D01*
X193029454Y-185750471D02*
X192886596Y-185679042D01*
X192886596Y-185679042D02*
X192600882Y-185607614D01*
X192600882Y-185607614D02*
X192458025Y-185536185D01*
X192458025Y-185536185D02*
X192386596Y-185464757D01*
X192386596Y-185464757D02*
X192315168Y-185321900D01*
X192315168Y-185321900D02*
X192315168Y-185179042D01*
X192315168Y-185179042D02*
X192386596Y-185036185D01*
X192386596Y-185036185D02*
X192458025Y-184964757D01*
X192458025Y-184964757D02*
X192600882Y-184893328D01*
X192600882Y-184893328D02*
X192958025Y-184893328D01*
X192958025Y-184893328D02*
X193172311Y-184964757D01*
X193815167Y-186393328D02*
X193815167Y-184893328D01*
X193815167Y-184893328D02*
X194172310Y-184893328D01*
X194172310Y-184893328D02*
X194386596Y-184964757D01*
X194386596Y-184964757D02*
X194529453Y-185107614D01*
X194529453Y-185107614D02*
X194600882Y-185250471D01*
X194600882Y-185250471D02*
X194672310Y-185536185D01*
X194672310Y-185536185D02*
X194672310Y-185750471D01*
X194672310Y-185750471D02*
X194600882Y-186036185D01*
X194600882Y-186036185D02*
X194529453Y-186179042D01*
X194529453Y-186179042D02*
X194386596Y-186321900D01*
X194386596Y-186321900D02*
X194172310Y-186393328D01*
X194172310Y-186393328D02*
X193815167Y-186393328D01*
X196172310Y-186393328D02*
X195672310Y-185679042D01*
X195315167Y-186393328D02*
X195315167Y-184893328D01*
X195315167Y-184893328D02*
X195886596Y-184893328D01*
X195886596Y-184893328D02*
X196029453Y-184964757D01*
X196029453Y-184964757D02*
X196100882Y-185036185D01*
X196100882Y-185036185D02*
X196172310Y-185179042D01*
X196172310Y-185179042D02*
X196172310Y-185393328D01*
X196172310Y-185393328D02*
X196100882Y-185536185D01*
X196100882Y-185536185D02*
X196029453Y-185607614D01*
X196029453Y-185607614D02*
X195886596Y-185679042D01*
X195886596Y-185679042D02*
X195315167Y-185679042D01*
X196815167Y-186250471D02*
X196886596Y-186321900D01*
X196886596Y-186321900D02*
X196815167Y-186393328D01*
X196815167Y-186393328D02*
X196743739Y-186321900D01*
X196743739Y-186321900D02*
X196815167Y-186250471D01*
X196815167Y-186250471D02*
X196815167Y-186393328D01*
X197529453Y-186393328D02*
X197529453Y-184893328D01*
X197672311Y-185821900D02*
X198100882Y-186393328D01*
X198100882Y-185393328D02*
X197529453Y-185964757D01*
X198743739Y-186393328D02*
X198743739Y-185393328D01*
X198743739Y-184893328D02*
X198672311Y-184964757D01*
X198672311Y-184964757D02*
X198743739Y-185036185D01*
X198743739Y-185036185D02*
X198815168Y-184964757D01*
X198815168Y-184964757D02*
X198743739Y-184893328D01*
X198743739Y-184893328D02*
X198743739Y-185036185D01*
X200100883Y-186321900D02*
X199958025Y-186393328D01*
X199958025Y-186393328D02*
X199672311Y-186393328D01*
X199672311Y-186393328D02*
X199529454Y-186321900D01*
X199529454Y-186321900D02*
X199458025Y-186250471D01*
X199458025Y-186250471D02*
X199386597Y-186107614D01*
X199386597Y-186107614D02*
X199386597Y-185679042D01*
X199386597Y-185679042D02*
X199458025Y-185536185D01*
X199458025Y-185536185D02*
X199529454Y-185464757D01*
X199529454Y-185464757D02*
X199672311Y-185393328D01*
X199672311Y-185393328D02*
X199958025Y-185393328D01*
X199958025Y-185393328D02*
X200100883Y-185464757D01*
X201386597Y-186393328D02*
X201386597Y-185607614D01*
X201386597Y-185607614D02*
X201315168Y-185464757D01*
X201315168Y-185464757D02*
X201172311Y-185393328D01*
X201172311Y-185393328D02*
X200886597Y-185393328D01*
X200886597Y-185393328D02*
X200743739Y-185464757D01*
X201386597Y-186321900D02*
X201243739Y-186393328D01*
X201243739Y-186393328D02*
X200886597Y-186393328D01*
X200886597Y-186393328D02*
X200743739Y-186321900D01*
X200743739Y-186321900D02*
X200672311Y-186179042D01*
X200672311Y-186179042D02*
X200672311Y-186036185D01*
X200672311Y-186036185D02*
X200743739Y-185893328D01*
X200743739Y-185893328D02*
X200886597Y-185821900D01*
X200886597Y-185821900D02*
X201243739Y-185821900D01*
X201243739Y-185821900D02*
X201386597Y-185750471D01*
X202743740Y-186393328D02*
X202743740Y-184893328D01*
X202743740Y-186321900D02*
X202600882Y-186393328D01*
X202600882Y-186393328D02*
X202315168Y-186393328D01*
X202315168Y-186393328D02*
X202172311Y-186321900D01*
X202172311Y-186321900D02*
X202100882Y-186250471D01*
X202100882Y-186250471D02*
X202029454Y-186107614D01*
X202029454Y-186107614D02*
X202029454Y-185679042D01*
X202029454Y-185679042D02*
X202100882Y-185536185D01*
X202100882Y-185536185D02*
X202172311Y-185464757D01*
X202172311Y-185464757D02*
X202315168Y-185393328D01*
X202315168Y-185393328D02*
X202600882Y-185393328D01*
X202600882Y-185393328D02*
X202743740Y-185464757D01*
X203100883Y-186536185D02*
X204243740Y-186536185D01*
X204600882Y-185393328D02*
X204600882Y-186893328D01*
X204600882Y-185464757D02*
X204743740Y-185393328D01*
X204743740Y-185393328D02*
X205029454Y-185393328D01*
X205029454Y-185393328D02*
X205172311Y-185464757D01*
X205172311Y-185464757D02*
X205243740Y-185536185D01*
X205243740Y-185536185D02*
X205315168Y-185679042D01*
X205315168Y-185679042D02*
X205315168Y-186107614D01*
X205315168Y-186107614D02*
X205243740Y-186250471D01*
X205243740Y-186250471D02*
X205172311Y-186321900D01*
X205172311Y-186321900D02*
X205029454Y-186393328D01*
X205029454Y-186393328D02*
X204743740Y-186393328D01*
X204743740Y-186393328D02*
X204600882Y-186321900D01*
X206600883Y-186321900D02*
X206458025Y-186393328D01*
X206458025Y-186393328D02*
X206172311Y-186393328D01*
X206172311Y-186393328D02*
X206029454Y-186321900D01*
X206029454Y-186321900D02*
X205958025Y-186250471D01*
X205958025Y-186250471D02*
X205886597Y-186107614D01*
X205886597Y-186107614D02*
X205886597Y-185679042D01*
X205886597Y-185679042D02*
X205958025Y-185536185D01*
X205958025Y-185536185D02*
X206029454Y-185464757D01*
X206029454Y-185464757D02*
X206172311Y-185393328D01*
X206172311Y-185393328D02*
X206458025Y-185393328D01*
X206458025Y-185393328D02*
X206600883Y-185464757D01*
X207243739Y-186393328D02*
X207243739Y-184893328D01*
X207243739Y-185464757D02*
X207386597Y-185393328D01*
X207386597Y-185393328D02*
X207672311Y-185393328D01*
X207672311Y-185393328D02*
X207815168Y-185464757D01*
X207815168Y-185464757D02*
X207886597Y-185536185D01*
X207886597Y-185536185D02*
X207958025Y-185679042D01*
X207958025Y-185679042D02*
X207958025Y-186107614D01*
X207958025Y-186107614D02*
X207886597Y-186250471D01*
X207886597Y-186250471D02*
X207815168Y-186321900D01*
X207815168Y-186321900D02*
X207672311Y-186393328D01*
X207672311Y-186393328D02*
X207386597Y-186393328D01*
X207386597Y-186393328D02*
X207243739Y-186321900D01*
D10*
D11*
X177002200Y-181507200D02*
X285002200Y-181507200D01*
D10*
D11*
X178386598Y-183621900D02*
X178600884Y-183693328D01*
X178600884Y-183693328D02*
X178958026Y-183693328D01*
X178958026Y-183693328D02*
X179100884Y-183621900D01*
X179100884Y-183621900D02*
X179172312Y-183550471D01*
X179172312Y-183550471D02*
X179243741Y-183407614D01*
X179243741Y-183407614D02*
X179243741Y-183264757D01*
X179243741Y-183264757D02*
X179172312Y-183121900D01*
X179172312Y-183121900D02*
X179100884Y-183050471D01*
X179100884Y-183050471D02*
X178958026Y-182979042D01*
X178958026Y-182979042D02*
X178672312Y-182907614D01*
X178672312Y-182907614D02*
X178529455Y-182836185D01*
X178529455Y-182836185D02*
X178458026Y-182764757D01*
X178458026Y-182764757D02*
X178386598Y-182621900D01*
X178386598Y-182621900D02*
X178386598Y-182479042D01*
X178386598Y-182479042D02*
X178458026Y-182336185D01*
X178458026Y-182336185D02*
X178529455Y-182264757D01*
X178529455Y-182264757D02*
X178672312Y-182193328D01*
X178672312Y-182193328D02*
X179029455Y-182193328D01*
X179029455Y-182193328D02*
X179243741Y-182264757D01*
X179886597Y-183693328D02*
X179886597Y-182193328D01*
X180529455Y-183693328D02*
X180529455Y-182907614D01*
X180529455Y-182907614D02*
X180458026Y-182764757D01*
X180458026Y-182764757D02*
X180315169Y-182693328D01*
X180315169Y-182693328D02*
X180100883Y-182693328D01*
X180100883Y-182693328D02*
X179958026Y-182764757D01*
X179958026Y-182764757D02*
X179886597Y-182836185D01*
X181815169Y-183621900D02*
X181672312Y-183693328D01*
X181672312Y-183693328D02*
X181386598Y-183693328D01*
X181386598Y-183693328D02*
X181243740Y-183621900D01*
X181243740Y-183621900D02*
X181172312Y-183479042D01*
X181172312Y-183479042D02*
X181172312Y-182907614D01*
X181172312Y-182907614D02*
X181243740Y-182764757D01*
X181243740Y-182764757D02*
X181386598Y-182693328D01*
X181386598Y-182693328D02*
X181672312Y-182693328D01*
X181672312Y-182693328D02*
X181815169Y-182764757D01*
X181815169Y-182764757D02*
X181886598Y-182907614D01*
X181886598Y-182907614D02*
X181886598Y-183050471D01*
X181886598Y-183050471D02*
X181172312Y-183193328D01*
X183100883Y-183621900D02*
X182958026Y-183693328D01*
X182958026Y-183693328D02*
X182672312Y-183693328D01*
X182672312Y-183693328D02*
X182529454Y-183621900D01*
X182529454Y-183621900D02*
X182458026Y-183479042D01*
X182458026Y-183479042D02*
X182458026Y-182907614D01*
X182458026Y-182907614D02*
X182529454Y-182764757D01*
X182529454Y-182764757D02*
X182672312Y-182693328D01*
X182672312Y-182693328D02*
X182958026Y-182693328D01*
X182958026Y-182693328D02*
X183100883Y-182764757D01*
X183100883Y-182764757D02*
X183172312Y-182907614D01*
X183172312Y-182907614D02*
X183172312Y-183050471D01*
X183172312Y-183050471D02*
X182458026Y-183193328D01*
X183600883Y-182693328D02*
X184172311Y-182693328D01*
X183815168Y-182193328D02*
X183815168Y-183479042D01*
X183815168Y-183479042D02*
X183886597Y-183621900D01*
X183886597Y-183621900D02*
X184029454Y-183693328D01*
X184029454Y-183693328D02*
X184172311Y-183693328D01*
X184672311Y-183550471D02*
X184743740Y-183621900D01*
X184743740Y-183621900D02*
X184672311Y-183693328D01*
X184672311Y-183693328D02*
X184600883Y-183621900D01*
X184600883Y-183621900D02*
X184672311Y-183550471D01*
X184672311Y-183550471D02*
X184672311Y-183693328D01*
X184672311Y-182764757D02*
X184743740Y-182836185D01*
X184743740Y-182836185D02*
X184672311Y-182907614D01*
X184672311Y-182907614D02*
X184600883Y-182836185D01*
X184600883Y-182836185D02*
X184672311Y-182764757D01*
X184672311Y-182764757D02*
X184672311Y-182907614D01*
D10*
D12*
X178485282Y-180256957D02*
X179199568Y-180256957D01*
X178342425Y-180685528D02*
X178842425Y-179185528D01*
X178842425Y-179185528D02*
X179342425Y-180685528D01*
X179842424Y-180685528D02*
X179842424Y-179185528D01*
X179842424Y-179185528D02*
X180342424Y-180256957D01*
X180342424Y-180256957D02*
X180842424Y-179185528D01*
X180842424Y-179185528D02*
X180842424Y-180685528D01*
X181485282Y-180614100D02*
X181699568Y-180685528D01*
X181699568Y-180685528D02*
X182056710Y-180685528D01*
X182056710Y-180685528D02*
X182199568Y-180614100D01*
X182199568Y-180614100D02*
X182270996Y-180542671D01*
X182270996Y-180542671D02*
X182342425Y-180399814D01*
X182342425Y-180399814D02*
X182342425Y-180256957D01*
X182342425Y-180256957D02*
X182270996Y-180114100D01*
X182270996Y-180114100D02*
X182199568Y-180042671D01*
X182199568Y-180042671D02*
X182056710Y-179971242D01*
X182056710Y-179971242D02*
X181770996Y-179899814D01*
X181770996Y-179899814D02*
X181628139Y-179828385D01*
X181628139Y-179828385D02*
X181556710Y-179756957D01*
X181556710Y-179756957D02*
X181485282Y-179614100D01*
X181485282Y-179614100D02*
X181485282Y-179471242D01*
X181485282Y-179471242D02*
X181556710Y-179328385D01*
X181556710Y-179328385D02*
X181628139Y-179256957D01*
X181628139Y-179256957D02*
X181770996Y-179185528D01*
X181770996Y-179185528D02*
X182128139Y-179185528D01*
X182128139Y-179185528D02*
X182342425Y-179256957D01*
X182913853Y-180256957D02*
X183628139Y-180256957D01*
X182770996Y-180685528D02*
X183270996Y-179185528D01*
X183270996Y-179185528D02*
X183770996Y-180685528D01*
X184056710Y-179185528D02*
X184913853Y-179185528D01*
X184485281Y-180685528D02*
X184485281Y-179185528D01*
D10*
D11*
X197002200Y-191507200D02*
X197002200Y-194507200D01*
D10*
D11*
X261002200Y-191507200D02*
X261002200Y-198007200D01*
D10*
X163290214Y-89775175D02*
X163314024Y-89798984D01*
X163314024Y-89798984D02*
X163337833Y-89870413D01*
X163337833Y-89870413D02*
X163337833Y-89918032D01*
X163337833Y-89918032D02*
X163314024Y-89989460D01*
X163314024Y-89989460D02*
X163266404Y-90037079D01*
X163266404Y-90037079D02*
X163218785Y-90060889D01*
X163218785Y-90060889D02*
X163123547Y-90084698D01*
X163123547Y-90084698D02*
X163052119Y-90084698D01*
X163052119Y-90084698D02*
X162956881Y-90060889D01*
X162956881Y-90060889D02*
X162909262Y-90037079D01*
X162909262Y-90037079D02*
X162861643Y-89989460D01*
X162861643Y-89989460D02*
X162837833Y-89918032D01*
X162837833Y-89918032D02*
X162837833Y-89870413D01*
X162837833Y-89870413D02*
X162861643Y-89798984D01*
X162861643Y-89798984D02*
X162885452Y-89775175D01*
X162837833Y-89608508D02*
X162837833Y-89298984D01*
X162837833Y-89298984D02*
X163028309Y-89465651D01*
X163028309Y-89465651D02*
X163028309Y-89394222D01*
X163028309Y-89394222D02*
X163052119Y-89346603D01*
X163052119Y-89346603D02*
X163075928Y-89322794D01*
X163075928Y-89322794D02*
X163123547Y-89298984D01*
X163123547Y-89298984D02*
X163242595Y-89298984D01*
X163242595Y-89298984D02*
X163290214Y-89322794D01*
X163290214Y-89322794D02*
X163314024Y-89346603D01*
X163314024Y-89346603D02*
X163337833Y-89394222D01*
X163337833Y-89394222D02*
X163337833Y-89537079D01*
X163337833Y-89537079D02*
X163314024Y-89584698D01*
X163314024Y-89584698D02*
X163290214Y-89608508D01*
X162837833Y-88870413D02*
X162837833Y-88965651D01*
X162837833Y-88965651D02*
X162861643Y-89013270D01*
X162861643Y-89013270D02*
X162885452Y-89037080D01*
X162885452Y-89037080D02*
X162956881Y-89084699D01*
X162956881Y-89084699D02*
X163052119Y-89108508D01*
X163052119Y-89108508D02*
X163242595Y-89108508D01*
X163242595Y-89108508D02*
X163290214Y-89084699D01*
X163290214Y-89084699D02*
X163314024Y-89060889D01*
X163314024Y-89060889D02*
X163337833Y-89013270D01*
X163337833Y-89013270D02*
X163337833Y-88918032D01*
X163337833Y-88918032D02*
X163314024Y-88870413D01*
X163314024Y-88870413D02*
X163290214Y-88846604D01*
X163290214Y-88846604D02*
X163242595Y-88822794D01*
X163242595Y-88822794D02*
X163123547Y-88822794D01*
X163123547Y-88822794D02*
X163075928Y-88846604D01*
X163075928Y-88846604D02*
X163052119Y-88870413D01*
X163052119Y-88870413D02*
X163028309Y-88918032D01*
X163028309Y-88918032D02*
X163028309Y-89013270D01*
X163028309Y-89013270D02*
X163052119Y-89060889D01*
X163052119Y-89060889D02*
X163075928Y-89084699D01*
X163075928Y-89084699D02*
X163123547Y-89108508D01*
X163052119Y-88537080D02*
X163028309Y-88584699D01*
X163028309Y-88584699D02*
X163004500Y-88608509D01*
X163004500Y-88608509D02*
X162956881Y-88632318D01*
X162956881Y-88632318D02*
X162933071Y-88632318D01*
X162933071Y-88632318D02*
X162885452Y-88608509D01*
X162885452Y-88608509D02*
X162861643Y-88584699D01*
X162861643Y-88584699D02*
X162837833Y-88537080D01*
X162837833Y-88537080D02*
X162837833Y-88441842D01*
X162837833Y-88441842D02*
X162861643Y-88394223D01*
X162861643Y-88394223D02*
X162885452Y-88370414D01*
X162885452Y-88370414D02*
X162933071Y-88346604D01*
X162933071Y-88346604D02*
X162956881Y-88346604D01*
X162956881Y-88346604D02*
X163004500Y-88370414D01*
X163004500Y-88370414D02*
X163028309Y-88394223D01*
X163028309Y-88394223D02*
X163052119Y-88441842D01*
X163052119Y-88441842D02*
X163052119Y-88537080D01*
X163052119Y-88537080D02*
X163075928Y-88584699D01*
X163075928Y-88584699D02*
X163099738Y-88608509D01*
X163099738Y-88608509D02*
X163147357Y-88632318D01*
X163147357Y-88632318D02*
X163242595Y-88632318D01*
X163242595Y-88632318D02*
X163290214Y-88608509D01*
X163290214Y-88608509D02*
X163314024Y-88584699D01*
X163314024Y-88584699D02*
X163337833Y-88537080D01*
X163337833Y-88537080D02*
X163337833Y-88441842D01*
X163337833Y-88441842D02*
X163314024Y-88394223D01*
X163314024Y-88394223D02*
X163290214Y-88370414D01*
X163290214Y-88370414D02*
X163242595Y-88346604D01*
X163242595Y-88346604D02*
X163147357Y-88346604D01*
X163147357Y-88346604D02*
X163099738Y-88370414D01*
X163099738Y-88370414D02*
X163075928Y-88394223D01*
X163075928Y-88394223D02*
X163052119Y-88441842D01*
X156492121Y-82222510D02*
X156468312Y-82246320D01*
X156468312Y-82246320D02*
X156396883Y-82270129D01*
X156396883Y-82270129D02*
X156349264Y-82270129D01*
X156349264Y-82270129D02*
X156277836Y-82246320D01*
X156277836Y-82246320D02*
X156230217Y-82198700D01*
X156230217Y-82198700D02*
X156206407Y-82151081D01*
X156206407Y-82151081D02*
X156182598Y-82055843D01*
X156182598Y-82055843D02*
X156182598Y-81984415D01*
X156182598Y-81984415D02*
X156206407Y-81889177D01*
X156206407Y-81889177D02*
X156230217Y-81841558D01*
X156230217Y-81841558D02*
X156277836Y-81793939D01*
X156277836Y-81793939D02*
X156349264Y-81770129D01*
X156349264Y-81770129D02*
X156396883Y-81770129D01*
X156396883Y-81770129D02*
X156468312Y-81793939D01*
X156468312Y-81793939D02*
X156492121Y-81817748D01*
X156682598Y-81817748D02*
X156706407Y-81793939D01*
X156706407Y-81793939D02*
X156754026Y-81770129D01*
X156754026Y-81770129D02*
X156873074Y-81770129D01*
X156873074Y-81770129D02*
X156920693Y-81793939D01*
X156920693Y-81793939D02*
X156944502Y-81817748D01*
X156944502Y-81817748D02*
X156968312Y-81865367D01*
X156968312Y-81865367D02*
X156968312Y-81912986D01*
X156968312Y-81912986D02*
X156944502Y-81984415D01*
X156944502Y-81984415D02*
X156658788Y-82270129D01*
X156658788Y-82270129D02*
X156968312Y-82270129D01*
X157396883Y-81936796D02*
X157396883Y-82270129D01*
X157277835Y-81746320D02*
X157158788Y-82103462D01*
X157158788Y-82103462D02*
X157468311Y-82103462D01*
X157634978Y-81817748D02*
X157658787Y-81793939D01*
X157658787Y-81793939D02*
X157706406Y-81770129D01*
X157706406Y-81770129D02*
X157825454Y-81770129D01*
X157825454Y-81770129D02*
X157873073Y-81793939D01*
X157873073Y-81793939D02*
X157896882Y-81817748D01*
X157896882Y-81817748D02*
X157920692Y-81865367D01*
X157920692Y-81865367D02*
X157920692Y-81912986D01*
X157920692Y-81912986D02*
X157896882Y-81984415D01*
X157896882Y-81984415D02*
X157611168Y-82270129D01*
X157611168Y-82270129D02*
X157920692Y-82270129D01*
X159928172Y-92280201D02*
X159904363Y-92304011D01*
X159904363Y-92304011D02*
X159832934Y-92327820D01*
X159832934Y-92327820D02*
X159785315Y-92327820D01*
X159785315Y-92327820D02*
X159713887Y-92304011D01*
X159713887Y-92304011D02*
X159666268Y-92256391D01*
X159666268Y-92256391D02*
X159642458Y-92208772D01*
X159642458Y-92208772D02*
X159618649Y-92113534D01*
X159618649Y-92113534D02*
X159618649Y-92042106D01*
X159618649Y-92042106D02*
X159642458Y-91946868D01*
X159642458Y-91946868D02*
X159666268Y-91899249D01*
X159666268Y-91899249D02*
X159713887Y-91851630D01*
X159713887Y-91851630D02*
X159785315Y-91827820D01*
X159785315Y-91827820D02*
X159832934Y-91827820D01*
X159832934Y-91827820D02*
X159904363Y-91851630D01*
X159904363Y-91851630D02*
X159928172Y-91875439D01*
X160404363Y-92327820D02*
X160118649Y-92327820D01*
X160261506Y-92327820D02*
X160261506Y-91827820D01*
X160261506Y-91827820D02*
X160213887Y-91899249D01*
X160213887Y-91899249D02*
X160166268Y-91946868D01*
X160166268Y-91946868D02*
X160118649Y-91970677D01*
X160856743Y-91827820D02*
X160618648Y-91827820D01*
X160618648Y-91827820D02*
X160594839Y-92065915D01*
X160594839Y-92065915D02*
X160618648Y-92042106D01*
X160618648Y-92042106D02*
X160666267Y-92018296D01*
X160666267Y-92018296D02*
X160785315Y-92018296D01*
X160785315Y-92018296D02*
X160832934Y-92042106D01*
X160832934Y-92042106D02*
X160856743Y-92065915D01*
X160856743Y-92065915D02*
X160880553Y-92113534D01*
X160880553Y-92113534D02*
X160880553Y-92232582D01*
X160880553Y-92232582D02*
X160856743Y-92280201D01*
X160856743Y-92280201D02*
X160832934Y-92304011D01*
X160832934Y-92304011D02*
X160785315Y-92327820D01*
X160785315Y-92327820D02*
X160666267Y-92327820D01*
X160666267Y-92327820D02*
X160618648Y-92304011D01*
X160618648Y-92304011D02*
X160594839Y-92280201D01*
X161332933Y-91827820D02*
X161094838Y-91827820D01*
X161094838Y-91827820D02*
X161071029Y-92065915D01*
X161071029Y-92065915D02*
X161094838Y-92042106D01*
X161094838Y-92042106D02*
X161142457Y-92018296D01*
X161142457Y-92018296D02*
X161261505Y-92018296D01*
X161261505Y-92018296D02*
X161309124Y-92042106D01*
X161309124Y-92042106D02*
X161332933Y-92065915D01*
X161332933Y-92065915D02*
X161356743Y-92113534D01*
X161356743Y-92113534D02*
X161356743Y-92232582D01*
X161356743Y-92232582D02*
X161332933Y-92280201D01*
X161332933Y-92280201D02*
X161309124Y-92304011D01*
X161309124Y-92304011D02*
X161261505Y-92327820D01*
X161261505Y-92327820D02*
X161142457Y-92327820D01*
X161142457Y-92327820D02*
X161094838Y-92304011D01*
X161094838Y-92304011D02*
X161071029Y-92280201D01*
X177656667Y-114550882D02*
X177680477Y-114574691D01*
X177680477Y-114574691D02*
X177704286Y-114646120D01*
X177704286Y-114646120D02*
X177704286Y-114693739D01*
X177704286Y-114693739D02*
X177680477Y-114765167D01*
X177680477Y-114765167D02*
X177632857Y-114812786D01*
X177632857Y-114812786D02*
X177585238Y-114836596D01*
X177585238Y-114836596D02*
X177490000Y-114860405D01*
X177490000Y-114860405D02*
X177418572Y-114860405D01*
X177418572Y-114860405D02*
X177323334Y-114836596D01*
X177323334Y-114836596D02*
X177275715Y-114812786D01*
X177275715Y-114812786D02*
X177228096Y-114765167D01*
X177228096Y-114765167D02*
X177204286Y-114693739D01*
X177204286Y-114693739D02*
X177204286Y-114646120D01*
X177204286Y-114646120D02*
X177228096Y-114574691D01*
X177228096Y-114574691D02*
X177251905Y-114550882D01*
X177704286Y-114074691D02*
X177704286Y-114360405D01*
X177704286Y-114217548D02*
X177204286Y-114217548D01*
X177204286Y-114217548D02*
X177275715Y-114265167D01*
X177275715Y-114265167D02*
X177323334Y-114312786D01*
X177323334Y-114312786D02*
X177347143Y-114360405D01*
X177204286Y-113908025D02*
X177204286Y-113598501D01*
X177204286Y-113598501D02*
X177394762Y-113765168D01*
X177394762Y-113765168D02*
X177394762Y-113693739D01*
X177394762Y-113693739D02*
X177418572Y-113646120D01*
X177418572Y-113646120D02*
X177442381Y-113622311D01*
X177442381Y-113622311D02*
X177490000Y-113598501D01*
X177490000Y-113598501D02*
X177609048Y-113598501D01*
X177609048Y-113598501D02*
X177656667Y-113622311D01*
X177656667Y-113622311D02*
X177680477Y-113646120D01*
X177680477Y-113646120D02*
X177704286Y-113693739D01*
X177704286Y-113693739D02*
X177704286Y-113836596D01*
X177704286Y-113836596D02*
X177680477Y-113884215D01*
X177680477Y-113884215D02*
X177656667Y-113908025D01*
X177204286Y-113431835D02*
X177204286Y-113122311D01*
X177204286Y-113122311D02*
X177394762Y-113288978D01*
X177394762Y-113288978D02*
X177394762Y-113217549D01*
X177394762Y-113217549D02*
X177418572Y-113169930D01*
X177418572Y-113169930D02*
X177442381Y-113146121D01*
X177442381Y-113146121D02*
X177490000Y-113122311D01*
X177490000Y-113122311D02*
X177609048Y-113122311D01*
X177609048Y-113122311D02*
X177656667Y-113146121D01*
X177656667Y-113146121D02*
X177680477Y-113169930D01*
X177680477Y-113169930D02*
X177704286Y-113217549D01*
X177704286Y-113217549D02*
X177704286Y-113360406D01*
X177704286Y-113360406D02*
X177680477Y-113408025D01*
X177680477Y-113408025D02*
X177656667Y-113431835D01*
D11*
X172852922Y-90366827D02*
X172852922Y-91176350D01*
X172852922Y-91176350D02*
X172900541Y-91271588D01*
X172900541Y-91271588D02*
X172948160Y-91319208D01*
X172948160Y-91319208D02*
X173043398Y-91366827D01*
X173043398Y-91366827D02*
X173233874Y-91366827D01*
X173233874Y-91366827D02*
X173329112Y-91319208D01*
X173329112Y-91319208D02*
X173376731Y-91271588D01*
X173376731Y-91271588D02*
X173424350Y-91176350D01*
X173424350Y-91176350D02*
X173424350Y-90366827D01*
X174329112Y-90700160D02*
X174329112Y-91366827D01*
X174091017Y-90319208D02*
X173852922Y-91033493D01*
X173852922Y-91033493D02*
X174471969Y-91033493D01*
X175329112Y-90366827D02*
X174852922Y-90366827D01*
X174852922Y-90366827D02*
X174805303Y-90843017D01*
X174805303Y-90843017D02*
X174852922Y-90795398D01*
X174852922Y-90795398D02*
X174948160Y-90747779D01*
X174948160Y-90747779D02*
X175186255Y-90747779D01*
X175186255Y-90747779D02*
X175281493Y-90795398D01*
X175281493Y-90795398D02*
X175329112Y-90843017D01*
X175329112Y-90843017D02*
X175376731Y-90938255D01*
X175376731Y-90938255D02*
X175376731Y-91176350D01*
X175376731Y-91176350D02*
X175329112Y-91271588D01*
X175329112Y-91271588D02*
X175281493Y-91319208D01*
X175281493Y-91319208D02*
X175186255Y-91366827D01*
X175186255Y-91366827D02*
X174948160Y-91366827D01*
X174948160Y-91366827D02*
X174852922Y-91319208D01*
X174852922Y-91319208D02*
X174805303Y-91271588D01*
D10*
X167736958Y-89973997D02*
X167498863Y-89973997D01*
X167498863Y-89973997D02*
X167498863Y-89473997D01*
X167879816Y-89521616D02*
X167903625Y-89497807D01*
X167903625Y-89497807D02*
X167951244Y-89473997D01*
X167951244Y-89473997D02*
X168070292Y-89473997D01*
X168070292Y-89473997D02*
X168117911Y-89497807D01*
X168117911Y-89497807D02*
X168141720Y-89521616D01*
X168141720Y-89521616D02*
X168165530Y-89569235D01*
X168165530Y-89569235D02*
X168165530Y-89616854D01*
X168165530Y-89616854D02*
X168141720Y-89688283D01*
X168141720Y-89688283D02*
X167856006Y-89973997D01*
X167856006Y-89973997D02*
X168165530Y-89973997D01*
X168403625Y-89973997D02*
X168498863Y-89973997D01*
X168498863Y-89973997D02*
X168546482Y-89950188D01*
X168546482Y-89950188D02*
X168570291Y-89926378D01*
X168570291Y-89926378D02*
X168617910Y-89854949D01*
X168617910Y-89854949D02*
X168641720Y-89759711D01*
X168641720Y-89759711D02*
X168641720Y-89569235D01*
X168641720Y-89569235D02*
X168617910Y-89521616D01*
X168617910Y-89521616D02*
X168594101Y-89497807D01*
X168594101Y-89497807D02*
X168546482Y-89473997D01*
X168546482Y-89473997D02*
X168451244Y-89473997D01*
X168451244Y-89473997D02*
X168403625Y-89497807D01*
X168403625Y-89497807D02*
X168379815Y-89521616D01*
X168379815Y-89521616D02*
X168356006Y-89569235D01*
X168356006Y-89569235D02*
X168356006Y-89688283D01*
X168356006Y-89688283D02*
X168379815Y-89735902D01*
X168379815Y-89735902D02*
X168403625Y-89759711D01*
X168403625Y-89759711D02*
X168451244Y-89783521D01*
X168451244Y-89783521D02*
X168546482Y-89783521D01*
X168546482Y-89783521D02*
X168594101Y-89759711D01*
X168594101Y-89759711D02*
X168617910Y-89735902D01*
X168617910Y-89735902D02*
X168641720Y-89688283D01*
X166786898Y-92136825D02*
X166810708Y-92160634D01*
X166810708Y-92160634D02*
X166834517Y-92232063D01*
X166834517Y-92232063D02*
X166834517Y-92279682D01*
X166834517Y-92279682D02*
X166810708Y-92351110D01*
X166810708Y-92351110D02*
X166763088Y-92398729D01*
X166763088Y-92398729D02*
X166715469Y-92422539D01*
X166715469Y-92422539D02*
X166620231Y-92446348D01*
X166620231Y-92446348D02*
X166548803Y-92446348D01*
X166548803Y-92446348D02*
X166453565Y-92422539D01*
X166453565Y-92422539D02*
X166405946Y-92398729D01*
X166405946Y-92398729D02*
X166358327Y-92351110D01*
X166358327Y-92351110D02*
X166334517Y-92279682D01*
X166334517Y-92279682D02*
X166334517Y-92232063D01*
X166334517Y-92232063D02*
X166358327Y-92160634D01*
X166358327Y-92160634D02*
X166382136Y-92136825D01*
X166834517Y-91660634D02*
X166834517Y-91946348D01*
X166834517Y-91803491D02*
X166334517Y-91803491D01*
X166334517Y-91803491D02*
X166405946Y-91851110D01*
X166405946Y-91851110D02*
X166453565Y-91898729D01*
X166453565Y-91898729D02*
X166477374Y-91946348D01*
X166334517Y-91232063D02*
X166334517Y-91327301D01*
X166334517Y-91327301D02*
X166358327Y-91374920D01*
X166358327Y-91374920D02*
X166382136Y-91398730D01*
X166382136Y-91398730D02*
X166453565Y-91446349D01*
X166453565Y-91446349D02*
X166548803Y-91470158D01*
X166548803Y-91470158D02*
X166739279Y-91470158D01*
X166739279Y-91470158D02*
X166786898Y-91446349D01*
X166786898Y-91446349D02*
X166810708Y-91422539D01*
X166810708Y-91422539D02*
X166834517Y-91374920D01*
X166834517Y-91374920D02*
X166834517Y-91279682D01*
X166834517Y-91279682D02*
X166810708Y-91232063D01*
X166810708Y-91232063D02*
X166786898Y-91208254D01*
X166786898Y-91208254D02*
X166739279Y-91184444D01*
X166739279Y-91184444D02*
X166620231Y-91184444D01*
X166620231Y-91184444D02*
X166572612Y-91208254D01*
X166572612Y-91208254D02*
X166548803Y-91232063D01*
X166548803Y-91232063D02*
X166524993Y-91279682D01*
X166524993Y-91279682D02*
X166524993Y-91374920D01*
X166524993Y-91374920D02*
X166548803Y-91422539D01*
X166548803Y-91422539D02*
X166572612Y-91446349D01*
X166572612Y-91446349D02*
X166620231Y-91470158D01*
X166334517Y-90874921D02*
X166334517Y-90827302D01*
X166334517Y-90827302D02*
X166358327Y-90779683D01*
X166358327Y-90779683D02*
X166382136Y-90755873D01*
X166382136Y-90755873D02*
X166429755Y-90732064D01*
X166429755Y-90732064D02*
X166524993Y-90708254D01*
X166524993Y-90708254D02*
X166644041Y-90708254D01*
X166644041Y-90708254D02*
X166739279Y-90732064D01*
X166739279Y-90732064D02*
X166786898Y-90755873D01*
X166786898Y-90755873D02*
X166810708Y-90779683D01*
X166810708Y-90779683D02*
X166834517Y-90827302D01*
X166834517Y-90827302D02*
X166834517Y-90874921D01*
X166834517Y-90874921D02*
X166810708Y-90922540D01*
X166810708Y-90922540D02*
X166786898Y-90946349D01*
X166786898Y-90946349D02*
X166739279Y-90970159D01*
X166739279Y-90970159D02*
X166644041Y-90993968D01*
X166644041Y-90993968D02*
X166524993Y-90993968D01*
X166524993Y-90993968D02*
X166429755Y-90970159D01*
X166429755Y-90970159D02*
X166382136Y-90946349D01*
X166382136Y-90946349D02*
X166358327Y-90922540D01*
X166358327Y-90922540D02*
X166334517Y-90874921D01*
X156306253Y-148033857D02*
X156282444Y-148057667D01*
X156282444Y-148057667D02*
X156211015Y-148081476D01*
X156211015Y-148081476D02*
X156163396Y-148081476D01*
X156163396Y-148081476D02*
X156091968Y-148057667D01*
X156091968Y-148057667D02*
X156044349Y-148010047D01*
X156044349Y-148010047D02*
X156020539Y-147962428D01*
X156020539Y-147962428D02*
X155996730Y-147867190D01*
X155996730Y-147867190D02*
X155996730Y-147795762D01*
X155996730Y-147795762D02*
X156020539Y-147700524D01*
X156020539Y-147700524D02*
X156044349Y-147652905D01*
X156044349Y-147652905D02*
X156091968Y-147605286D01*
X156091968Y-147605286D02*
X156163396Y-147581476D01*
X156163396Y-147581476D02*
X156211015Y-147581476D01*
X156211015Y-147581476D02*
X156282444Y-147605286D01*
X156282444Y-147605286D02*
X156306253Y-147629095D01*
X156591968Y-147795762D02*
X156544349Y-147771952D01*
X156544349Y-147771952D02*
X156520539Y-147748143D01*
X156520539Y-147748143D02*
X156496730Y-147700524D01*
X156496730Y-147700524D02*
X156496730Y-147676714D01*
X156496730Y-147676714D02*
X156520539Y-147629095D01*
X156520539Y-147629095D02*
X156544349Y-147605286D01*
X156544349Y-147605286D02*
X156591968Y-147581476D01*
X156591968Y-147581476D02*
X156687206Y-147581476D01*
X156687206Y-147581476D02*
X156734825Y-147605286D01*
X156734825Y-147605286D02*
X156758634Y-147629095D01*
X156758634Y-147629095D02*
X156782444Y-147676714D01*
X156782444Y-147676714D02*
X156782444Y-147700524D01*
X156782444Y-147700524D02*
X156758634Y-147748143D01*
X156758634Y-147748143D02*
X156734825Y-147771952D01*
X156734825Y-147771952D02*
X156687206Y-147795762D01*
X156687206Y-147795762D02*
X156591968Y-147795762D01*
X156591968Y-147795762D02*
X156544349Y-147819571D01*
X156544349Y-147819571D02*
X156520539Y-147843381D01*
X156520539Y-147843381D02*
X156496730Y-147891000D01*
X156496730Y-147891000D02*
X156496730Y-147986238D01*
X156496730Y-147986238D02*
X156520539Y-148033857D01*
X156520539Y-148033857D02*
X156544349Y-148057667D01*
X156544349Y-148057667D02*
X156591968Y-148081476D01*
X156591968Y-148081476D02*
X156687206Y-148081476D01*
X156687206Y-148081476D02*
X156734825Y-148057667D01*
X156734825Y-148057667D02*
X156758634Y-148033857D01*
X156758634Y-148033857D02*
X156782444Y-147986238D01*
X156782444Y-147986238D02*
X156782444Y-147891000D01*
X156782444Y-147891000D02*
X156758634Y-147843381D01*
X156758634Y-147843381D02*
X156734825Y-147819571D01*
X156734825Y-147819571D02*
X156687206Y-147795762D01*
X157211015Y-147581476D02*
X157115777Y-147581476D01*
X157115777Y-147581476D02*
X157068158Y-147605286D01*
X157068158Y-147605286D02*
X157044348Y-147629095D01*
X157044348Y-147629095D02*
X156996729Y-147700524D01*
X156996729Y-147700524D02*
X156972920Y-147795762D01*
X156972920Y-147795762D02*
X156972920Y-147986238D01*
X156972920Y-147986238D02*
X156996729Y-148033857D01*
X156996729Y-148033857D02*
X157020539Y-148057667D01*
X157020539Y-148057667D02*
X157068158Y-148081476D01*
X157068158Y-148081476D02*
X157163396Y-148081476D01*
X157163396Y-148081476D02*
X157211015Y-148057667D01*
X157211015Y-148057667D02*
X157234824Y-148033857D01*
X157234824Y-148033857D02*
X157258634Y-147986238D01*
X157258634Y-147986238D02*
X157258634Y-147867190D01*
X157258634Y-147867190D02*
X157234824Y-147819571D01*
X157234824Y-147819571D02*
X157211015Y-147795762D01*
X157211015Y-147795762D02*
X157163396Y-147771952D01*
X157163396Y-147771952D02*
X157068158Y-147771952D01*
X157068158Y-147771952D02*
X157020539Y-147795762D01*
X157020539Y-147795762D02*
X156996729Y-147819571D01*
X156996729Y-147819571D02*
X156972920Y-147867190D01*
X166270316Y-89976574D02*
X166294126Y-90000383D01*
X166294126Y-90000383D02*
X166317935Y-90071812D01*
X166317935Y-90071812D02*
X166317935Y-90119431D01*
X166317935Y-90119431D02*
X166294126Y-90190859D01*
X166294126Y-90190859D02*
X166246506Y-90238478D01*
X166246506Y-90238478D02*
X166198887Y-90262288D01*
X166198887Y-90262288D02*
X166103649Y-90286097D01*
X166103649Y-90286097D02*
X166032221Y-90286097D01*
X166032221Y-90286097D02*
X165936983Y-90262288D01*
X165936983Y-90262288D02*
X165889364Y-90238478D01*
X165889364Y-90238478D02*
X165841745Y-90190859D01*
X165841745Y-90190859D02*
X165817935Y-90119431D01*
X165817935Y-90119431D02*
X165817935Y-90071812D01*
X165817935Y-90071812D02*
X165841745Y-90000383D01*
X165841745Y-90000383D02*
X165865554Y-89976574D01*
X166317935Y-89500383D02*
X166317935Y-89786097D01*
X166317935Y-89643240D02*
X165817935Y-89643240D01*
X165817935Y-89643240D02*
X165889364Y-89690859D01*
X165889364Y-89690859D02*
X165936983Y-89738478D01*
X165936983Y-89738478D02*
X165960792Y-89786097D01*
X165817935Y-89048003D02*
X165817935Y-89286098D01*
X165817935Y-89286098D02*
X166056030Y-89309907D01*
X166056030Y-89309907D02*
X166032221Y-89286098D01*
X166032221Y-89286098D02*
X166008411Y-89238479D01*
X166008411Y-89238479D02*
X166008411Y-89119431D01*
X166008411Y-89119431D02*
X166032221Y-89071812D01*
X166032221Y-89071812D02*
X166056030Y-89048003D01*
X166056030Y-89048003D02*
X166103649Y-89024193D01*
X166103649Y-89024193D02*
X166222697Y-89024193D01*
X166222697Y-89024193D02*
X166270316Y-89048003D01*
X166270316Y-89048003D02*
X166294126Y-89071812D01*
X166294126Y-89071812D02*
X166317935Y-89119431D01*
X166317935Y-89119431D02*
X166317935Y-89238479D01*
X166317935Y-89238479D02*
X166294126Y-89286098D01*
X166294126Y-89286098D02*
X166270316Y-89309907D01*
X166317935Y-88786098D02*
X166317935Y-88690860D01*
X166317935Y-88690860D02*
X166294126Y-88643241D01*
X166294126Y-88643241D02*
X166270316Y-88619432D01*
X166270316Y-88619432D02*
X166198887Y-88571813D01*
X166198887Y-88571813D02*
X166103649Y-88548003D01*
X166103649Y-88548003D02*
X165913173Y-88548003D01*
X165913173Y-88548003D02*
X165865554Y-88571813D01*
X165865554Y-88571813D02*
X165841745Y-88595622D01*
X165841745Y-88595622D02*
X165817935Y-88643241D01*
X165817935Y-88643241D02*
X165817935Y-88738479D01*
X165817935Y-88738479D02*
X165841745Y-88786098D01*
X165841745Y-88786098D02*
X165865554Y-88809908D01*
X165865554Y-88809908D02*
X165913173Y-88833717D01*
X165913173Y-88833717D02*
X166032221Y-88833717D01*
X166032221Y-88833717D02*
X166079840Y-88809908D01*
X166079840Y-88809908D02*
X166103649Y-88786098D01*
X166103649Y-88786098D02*
X166127459Y-88738479D01*
X166127459Y-88738479D02*
X166127459Y-88643241D01*
X166127459Y-88643241D02*
X166103649Y-88595622D01*
X166103649Y-88595622D02*
X166079840Y-88571813D01*
X166079840Y-88571813D02*
X166032221Y-88548003D01*
D11*
X98605266Y-157693860D02*
X98652886Y-157741479D01*
X98652886Y-157741479D02*
X98700505Y-157884336D01*
X98700505Y-157884336D02*
X98700505Y-157979574D01*
X98700505Y-157979574D02*
X98652886Y-158122431D01*
X98652886Y-158122431D02*
X98557647Y-158217669D01*
X98557647Y-158217669D02*
X98462409Y-158265288D01*
X98462409Y-158265288D02*
X98271933Y-158312907D01*
X98271933Y-158312907D02*
X98129076Y-158312907D01*
X98129076Y-158312907D02*
X97938600Y-158265288D01*
X97938600Y-158265288D02*
X97843362Y-158217669D01*
X97843362Y-158217669D02*
X97748124Y-158122431D01*
X97748124Y-158122431D02*
X97700505Y-157979574D01*
X97700505Y-157979574D02*
X97700505Y-157884336D01*
X97700505Y-157884336D02*
X97748124Y-157741479D01*
X97748124Y-157741479D02*
X97795743Y-157693860D01*
X97700505Y-156836717D02*
X97700505Y-157027193D01*
X97700505Y-157027193D02*
X97748124Y-157122431D01*
X97748124Y-157122431D02*
X97795743Y-157170050D01*
X97795743Y-157170050D02*
X97938600Y-157265288D01*
X97938600Y-157265288D02*
X98129076Y-157312907D01*
X98129076Y-157312907D02*
X98510028Y-157312907D01*
X98510028Y-157312907D02*
X98605266Y-157265288D01*
X98605266Y-157265288D02*
X98652886Y-157217669D01*
X98652886Y-157217669D02*
X98700505Y-157122431D01*
X98700505Y-157122431D02*
X98700505Y-156931955D01*
X98700505Y-156931955D02*
X98652886Y-156836717D01*
X98652886Y-156836717D02*
X98605266Y-156789098D01*
X98605266Y-156789098D02*
X98510028Y-156741479D01*
X98510028Y-156741479D02*
X98271933Y-156741479D01*
X98271933Y-156741479D02*
X98176695Y-156789098D01*
X98176695Y-156789098D02*
X98129076Y-156836717D01*
X98129076Y-156836717D02*
X98081457Y-156931955D01*
X98081457Y-156931955D02*
X98081457Y-157122431D01*
X98081457Y-157122431D02*
X98129076Y-157217669D01*
X98129076Y-157217669D02*
X98176695Y-157265288D01*
X98176695Y-157265288D02*
X98271933Y-157312907D01*
X97700505Y-155836717D02*
X97700505Y-156312907D01*
X97700505Y-156312907D02*
X98176695Y-156360526D01*
X98176695Y-156360526D02*
X98129076Y-156312907D01*
X98129076Y-156312907D02*
X98081457Y-156217669D01*
X98081457Y-156217669D02*
X98081457Y-155979574D01*
X98081457Y-155979574D02*
X98129076Y-155884336D01*
X98129076Y-155884336D02*
X98176695Y-155836717D01*
X98176695Y-155836717D02*
X98271933Y-155789098D01*
X98271933Y-155789098D02*
X98510028Y-155789098D01*
X98510028Y-155789098D02*
X98605266Y-155836717D01*
X98605266Y-155836717D02*
X98652886Y-155884336D01*
X98652886Y-155884336D02*
X98700505Y-155979574D01*
X98700505Y-155979574D02*
X98700505Y-156217669D01*
X98700505Y-156217669D02*
X98652886Y-156312907D01*
X98652886Y-156312907D02*
X98605266Y-156360526D01*
D10*
X146254408Y-82222510D02*
X146230599Y-82246320D01*
X146230599Y-82246320D02*
X146159170Y-82270129D01*
X146159170Y-82270129D02*
X146111551Y-82270129D01*
X146111551Y-82270129D02*
X146040123Y-82246320D01*
X146040123Y-82246320D02*
X145992504Y-82198700D01*
X145992504Y-82198700D02*
X145968694Y-82151081D01*
X145968694Y-82151081D02*
X145944885Y-82055843D01*
X145944885Y-82055843D02*
X145944885Y-81984415D01*
X145944885Y-81984415D02*
X145968694Y-81889177D01*
X145968694Y-81889177D02*
X145992504Y-81841558D01*
X145992504Y-81841558D02*
X146040123Y-81793939D01*
X146040123Y-81793939D02*
X146111551Y-81770129D01*
X146111551Y-81770129D02*
X146159170Y-81770129D01*
X146159170Y-81770129D02*
X146230599Y-81793939D01*
X146230599Y-81793939D02*
X146254408Y-81817748D01*
X146444885Y-81817748D02*
X146468694Y-81793939D01*
X146468694Y-81793939D02*
X146516313Y-81770129D01*
X146516313Y-81770129D02*
X146635361Y-81770129D01*
X146635361Y-81770129D02*
X146682980Y-81793939D01*
X146682980Y-81793939D02*
X146706789Y-81817748D01*
X146706789Y-81817748D02*
X146730599Y-81865367D01*
X146730599Y-81865367D02*
X146730599Y-81912986D01*
X146730599Y-81912986D02*
X146706789Y-81984415D01*
X146706789Y-81984415D02*
X146421075Y-82270129D01*
X146421075Y-82270129D02*
X146730599Y-82270129D01*
X146897265Y-81770129D02*
X147230598Y-81770129D01*
X147230598Y-81770129D02*
X147016313Y-82270129D01*
X147397265Y-81817748D02*
X147421074Y-81793939D01*
X147421074Y-81793939D02*
X147468693Y-81770129D01*
X147468693Y-81770129D02*
X147587741Y-81770129D01*
X147587741Y-81770129D02*
X147635360Y-81793939D01*
X147635360Y-81793939D02*
X147659169Y-81817748D01*
X147659169Y-81817748D02*
X147682979Y-81865367D01*
X147682979Y-81865367D02*
X147682979Y-81912986D01*
X147682979Y-81912986D02*
X147659169Y-81984415D01*
X147659169Y-81984415D02*
X147373455Y-82270129D01*
X147373455Y-82270129D02*
X147682979Y-82270129D01*
X169312571Y-93596109D02*
X169074476Y-93596109D01*
X169074476Y-93596109D02*
X169074476Y-93096109D01*
X169455429Y-93143728D02*
X169479238Y-93119919D01*
X169479238Y-93119919D02*
X169526857Y-93096109D01*
X169526857Y-93096109D02*
X169645905Y-93096109D01*
X169645905Y-93096109D02*
X169693524Y-93119919D01*
X169693524Y-93119919D02*
X169717333Y-93143728D01*
X169717333Y-93143728D02*
X169741143Y-93191347D01*
X169741143Y-93191347D02*
X169741143Y-93238966D01*
X169741143Y-93238966D02*
X169717333Y-93310395D01*
X169717333Y-93310395D02*
X169431619Y-93596109D01*
X169431619Y-93596109D02*
X169741143Y-93596109D01*
X169907809Y-93096109D02*
X170217333Y-93096109D01*
X170217333Y-93096109D02*
X170050666Y-93286585D01*
X170050666Y-93286585D02*
X170122095Y-93286585D01*
X170122095Y-93286585D02*
X170169714Y-93310395D01*
X170169714Y-93310395D02*
X170193523Y-93334204D01*
X170193523Y-93334204D02*
X170217333Y-93381823D01*
X170217333Y-93381823D02*
X170217333Y-93500871D01*
X170217333Y-93500871D02*
X170193523Y-93548490D01*
X170193523Y-93548490D02*
X170169714Y-93572300D01*
X170169714Y-93572300D02*
X170122095Y-93596109D01*
X170122095Y-93596109D02*
X169979238Y-93596109D01*
X169979238Y-93596109D02*
X169931619Y-93572300D01*
X169931619Y-93572300D02*
X169907809Y-93548490D01*
X158135790Y-83842698D02*
X158111981Y-83866508D01*
X158111981Y-83866508D02*
X158040552Y-83890317D01*
X158040552Y-83890317D02*
X157992933Y-83890317D01*
X157992933Y-83890317D02*
X157921505Y-83866508D01*
X157921505Y-83866508D02*
X157873886Y-83818888D01*
X157873886Y-83818888D02*
X157850076Y-83771269D01*
X157850076Y-83771269D02*
X157826267Y-83676031D01*
X157826267Y-83676031D02*
X157826267Y-83604603D01*
X157826267Y-83604603D02*
X157850076Y-83509365D01*
X157850076Y-83509365D02*
X157873886Y-83461746D01*
X157873886Y-83461746D02*
X157921505Y-83414127D01*
X157921505Y-83414127D02*
X157992933Y-83390317D01*
X157992933Y-83390317D02*
X158040552Y-83390317D01*
X158040552Y-83390317D02*
X158111981Y-83414127D01*
X158111981Y-83414127D02*
X158135790Y-83437936D01*
X158302457Y-83390317D02*
X158611981Y-83390317D01*
X158611981Y-83390317D02*
X158445314Y-83580793D01*
X158445314Y-83580793D02*
X158516743Y-83580793D01*
X158516743Y-83580793D02*
X158564362Y-83604603D01*
X158564362Y-83604603D02*
X158588171Y-83628412D01*
X158588171Y-83628412D02*
X158611981Y-83676031D01*
X158611981Y-83676031D02*
X158611981Y-83795079D01*
X158611981Y-83795079D02*
X158588171Y-83842698D01*
X158588171Y-83842698D02*
X158564362Y-83866508D01*
X158564362Y-83866508D02*
X158516743Y-83890317D01*
X158516743Y-83890317D02*
X158373886Y-83890317D01*
X158373886Y-83890317D02*
X158326267Y-83866508D01*
X158326267Y-83866508D02*
X158302457Y-83842698D01*
X159040552Y-83390317D02*
X158945314Y-83390317D01*
X158945314Y-83390317D02*
X158897695Y-83414127D01*
X158897695Y-83414127D02*
X158873885Y-83437936D01*
X158873885Y-83437936D02*
X158826266Y-83509365D01*
X158826266Y-83509365D02*
X158802457Y-83604603D01*
X158802457Y-83604603D02*
X158802457Y-83795079D01*
X158802457Y-83795079D02*
X158826266Y-83842698D01*
X158826266Y-83842698D02*
X158850076Y-83866508D01*
X158850076Y-83866508D02*
X158897695Y-83890317D01*
X158897695Y-83890317D02*
X158992933Y-83890317D01*
X158992933Y-83890317D02*
X159040552Y-83866508D01*
X159040552Y-83866508D02*
X159064361Y-83842698D01*
X159064361Y-83842698D02*
X159088171Y-83795079D01*
X159088171Y-83795079D02*
X159088171Y-83676031D01*
X159088171Y-83676031D02*
X159064361Y-83628412D01*
X159064361Y-83628412D02*
X159040552Y-83604603D01*
X159040552Y-83604603D02*
X158992933Y-83580793D01*
X158992933Y-83580793D02*
X158897695Y-83580793D01*
X158897695Y-83580793D02*
X158850076Y-83604603D01*
X158850076Y-83604603D02*
X158826266Y-83628412D01*
X158826266Y-83628412D02*
X158802457Y-83676031D01*
X159516742Y-83390317D02*
X159421504Y-83390317D01*
X159421504Y-83390317D02*
X159373885Y-83414127D01*
X159373885Y-83414127D02*
X159350075Y-83437936D01*
X159350075Y-83437936D02*
X159302456Y-83509365D01*
X159302456Y-83509365D02*
X159278647Y-83604603D01*
X159278647Y-83604603D02*
X159278647Y-83795079D01*
X159278647Y-83795079D02*
X159302456Y-83842698D01*
X159302456Y-83842698D02*
X159326266Y-83866508D01*
X159326266Y-83866508D02*
X159373885Y-83890317D01*
X159373885Y-83890317D02*
X159469123Y-83890317D01*
X159469123Y-83890317D02*
X159516742Y-83866508D01*
X159516742Y-83866508D02*
X159540551Y-83842698D01*
X159540551Y-83842698D02*
X159564361Y-83795079D01*
X159564361Y-83795079D02*
X159564361Y-83676031D01*
X159564361Y-83676031D02*
X159540551Y-83628412D01*
X159540551Y-83628412D02*
X159516742Y-83604603D01*
X159516742Y-83604603D02*
X159469123Y-83580793D01*
X159469123Y-83580793D02*
X159373885Y-83580793D01*
X159373885Y-83580793D02*
X159326266Y-83604603D01*
X159326266Y-83604603D02*
X159302456Y-83628412D01*
X159302456Y-83628412D02*
X159278647Y-83676031D01*
X175253432Y-92718513D02*
X175229623Y-92742323D01*
X175229623Y-92742323D02*
X175158194Y-92766132D01*
X175158194Y-92766132D02*
X175110575Y-92766132D01*
X175110575Y-92766132D02*
X175039147Y-92742323D01*
X175039147Y-92742323D02*
X174991528Y-92694703D01*
X174991528Y-92694703D02*
X174967718Y-92647084D01*
X174967718Y-92647084D02*
X174943909Y-92551846D01*
X174943909Y-92551846D02*
X174943909Y-92480418D01*
X174943909Y-92480418D02*
X174967718Y-92385180D01*
X174967718Y-92385180D02*
X174991528Y-92337561D01*
X174991528Y-92337561D02*
X175039147Y-92289942D01*
X175039147Y-92289942D02*
X175110575Y-92266132D01*
X175110575Y-92266132D02*
X175158194Y-92266132D01*
X175158194Y-92266132D02*
X175229623Y-92289942D01*
X175229623Y-92289942D02*
X175253432Y-92313751D01*
X175729623Y-92766132D02*
X175443909Y-92766132D01*
X175586766Y-92766132D02*
X175586766Y-92266132D01*
X175586766Y-92266132D02*
X175539147Y-92337561D01*
X175539147Y-92337561D02*
X175491528Y-92385180D01*
X175491528Y-92385180D02*
X175443909Y-92408989D01*
X176182003Y-92266132D02*
X175943908Y-92266132D01*
X175943908Y-92266132D02*
X175920099Y-92504227D01*
X175920099Y-92504227D02*
X175943908Y-92480418D01*
X175943908Y-92480418D02*
X175991527Y-92456608D01*
X175991527Y-92456608D02*
X176110575Y-92456608D01*
X176110575Y-92456608D02*
X176158194Y-92480418D01*
X176158194Y-92480418D02*
X176182003Y-92504227D01*
X176182003Y-92504227D02*
X176205813Y-92551846D01*
X176205813Y-92551846D02*
X176205813Y-92670894D01*
X176205813Y-92670894D02*
X176182003Y-92718513D01*
X176182003Y-92718513D02*
X176158194Y-92742323D01*
X176158194Y-92742323D02*
X176110575Y-92766132D01*
X176110575Y-92766132D02*
X175991527Y-92766132D01*
X175991527Y-92766132D02*
X175943908Y-92742323D01*
X175943908Y-92742323D02*
X175920099Y-92718513D01*
X176491527Y-92480418D02*
X176443908Y-92456608D01*
X176443908Y-92456608D02*
X176420098Y-92432799D01*
X176420098Y-92432799D02*
X176396289Y-92385180D01*
X176396289Y-92385180D02*
X176396289Y-92361370D01*
X176396289Y-92361370D02*
X176420098Y-92313751D01*
X176420098Y-92313751D02*
X176443908Y-92289942D01*
X176443908Y-92289942D02*
X176491527Y-92266132D01*
X176491527Y-92266132D02*
X176586765Y-92266132D01*
X176586765Y-92266132D02*
X176634384Y-92289942D01*
X176634384Y-92289942D02*
X176658193Y-92313751D01*
X176658193Y-92313751D02*
X176682003Y-92361370D01*
X176682003Y-92361370D02*
X176682003Y-92385180D01*
X176682003Y-92385180D02*
X176658193Y-92432799D01*
X176658193Y-92432799D02*
X176634384Y-92456608D01*
X176634384Y-92456608D02*
X176586765Y-92480418D01*
X176586765Y-92480418D02*
X176491527Y-92480418D01*
X176491527Y-92480418D02*
X176443908Y-92504227D01*
X176443908Y-92504227D02*
X176420098Y-92528037D01*
X176420098Y-92528037D02*
X176396289Y-92575656D01*
X176396289Y-92575656D02*
X176396289Y-92670894D01*
X176396289Y-92670894D02*
X176420098Y-92718513D01*
X176420098Y-92718513D02*
X176443908Y-92742323D01*
X176443908Y-92742323D02*
X176491527Y-92766132D01*
X176491527Y-92766132D02*
X176586765Y-92766132D01*
X176586765Y-92766132D02*
X176634384Y-92742323D01*
X176634384Y-92742323D02*
X176658193Y-92718513D01*
X176658193Y-92718513D02*
X176682003Y-92670894D01*
X176682003Y-92670894D02*
X176682003Y-92575656D01*
X176682003Y-92575656D02*
X176658193Y-92528037D01*
X176658193Y-92528037D02*
X176634384Y-92504227D01*
X176634384Y-92504227D02*
X176586765Y-92480418D01*
X110862283Y-141356343D02*
X110838474Y-141380153D01*
X110838474Y-141380153D02*
X110767045Y-141403962D01*
X110767045Y-141403962D02*
X110719426Y-141403962D01*
X110719426Y-141403962D02*
X110647998Y-141380153D01*
X110647998Y-141380153D02*
X110600379Y-141332533D01*
X110600379Y-141332533D02*
X110576569Y-141284914D01*
X110576569Y-141284914D02*
X110552760Y-141189676D01*
X110552760Y-141189676D02*
X110552760Y-141118248D01*
X110552760Y-141118248D02*
X110576569Y-141023010D01*
X110576569Y-141023010D02*
X110600379Y-140975391D01*
X110600379Y-140975391D02*
X110647998Y-140927772D01*
X110647998Y-140927772D02*
X110719426Y-140903962D01*
X110719426Y-140903962D02*
X110767045Y-140903962D01*
X110767045Y-140903962D02*
X110838474Y-140927772D01*
X110838474Y-140927772D02*
X110862283Y-140951581D01*
X111028950Y-140903962D02*
X111362283Y-140903962D01*
X111362283Y-140903962D02*
X111147998Y-141403962D01*
X111505140Y-140903962D02*
X111814664Y-140903962D01*
X111814664Y-140903962D02*
X111647997Y-141094438D01*
X111647997Y-141094438D02*
X111719426Y-141094438D01*
X111719426Y-141094438D02*
X111767045Y-141118248D01*
X111767045Y-141118248D02*
X111790854Y-141142057D01*
X111790854Y-141142057D02*
X111814664Y-141189676D01*
X111814664Y-141189676D02*
X111814664Y-141308724D01*
X111814664Y-141308724D02*
X111790854Y-141356343D01*
X111790854Y-141356343D02*
X111767045Y-141380153D01*
X111767045Y-141380153D02*
X111719426Y-141403962D01*
X111719426Y-141403962D02*
X111576569Y-141403962D01*
X111576569Y-141403962D02*
X111528950Y-141380153D01*
X111528950Y-141380153D02*
X111505140Y-141356343D01*
D11*
X101665040Y-150366286D02*
X101617421Y-150413906D01*
X101617421Y-150413906D02*
X101474564Y-150461525D01*
X101474564Y-150461525D02*
X101379326Y-150461525D01*
X101379326Y-150461525D02*
X101236469Y-150413906D01*
X101236469Y-150413906D02*
X101141231Y-150318667D01*
X101141231Y-150318667D02*
X101093612Y-150223429D01*
X101093612Y-150223429D02*
X101045993Y-150032953D01*
X101045993Y-150032953D02*
X101045993Y-149890096D01*
X101045993Y-149890096D02*
X101093612Y-149699620D01*
X101093612Y-149699620D02*
X101141231Y-149604382D01*
X101141231Y-149604382D02*
X101236469Y-149509144D01*
X101236469Y-149509144D02*
X101379326Y-149461525D01*
X101379326Y-149461525D02*
X101474564Y-149461525D01*
X101474564Y-149461525D02*
X101617421Y-149509144D01*
X101617421Y-149509144D02*
X101665040Y-149556763D01*
X101998374Y-149461525D02*
X102665040Y-149461525D01*
X102665040Y-149461525D02*
X102236469Y-150461525D01*
X103474564Y-149794858D02*
X103474564Y-150461525D01*
X103236469Y-149413906D02*
X102998374Y-150128191D01*
X102998374Y-150128191D02*
X103617421Y-150128191D01*
X168500824Y-119156715D02*
X168453205Y-119204335D01*
X168453205Y-119204335D02*
X168310348Y-119251954D01*
X168310348Y-119251954D02*
X168215110Y-119251954D01*
X168215110Y-119251954D02*
X168072253Y-119204335D01*
X168072253Y-119204335D02*
X167977015Y-119109096D01*
X167977015Y-119109096D02*
X167929396Y-119013858D01*
X167929396Y-119013858D02*
X167881777Y-118823382D01*
X167881777Y-118823382D02*
X167881777Y-118680525D01*
X167881777Y-118680525D02*
X167929396Y-118490049D01*
X167929396Y-118490049D02*
X167977015Y-118394811D01*
X167977015Y-118394811D02*
X168072253Y-118299573D01*
X168072253Y-118299573D02*
X168215110Y-118251954D01*
X168215110Y-118251954D02*
X168310348Y-118251954D01*
X168310348Y-118251954D02*
X168453205Y-118299573D01*
X168453205Y-118299573D02*
X168500824Y-118347192D01*
X169453205Y-119251954D02*
X168881777Y-119251954D01*
X169167491Y-119251954D02*
X169167491Y-118251954D01*
X169167491Y-118251954D02*
X169072253Y-118394811D01*
X169072253Y-118394811D02*
X168977015Y-118490049D01*
X168977015Y-118490049D02*
X168881777Y-118537668D01*
X169834158Y-118347192D02*
X169881777Y-118299573D01*
X169881777Y-118299573D02*
X169977015Y-118251954D01*
X169977015Y-118251954D02*
X170215110Y-118251954D01*
X170215110Y-118251954D02*
X170310348Y-118299573D01*
X170310348Y-118299573D02*
X170357967Y-118347192D01*
X170357967Y-118347192D02*
X170405586Y-118442430D01*
X170405586Y-118442430D02*
X170405586Y-118537668D01*
X170405586Y-118537668D02*
X170357967Y-118680525D01*
X170357967Y-118680525D02*
X169786539Y-119251954D01*
X169786539Y-119251954D02*
X170405586Y-119251954D01*
X170738920Y-118251954D02*
X171405586Y-118251954D01*
X171405586Y-118251954D02*
X170977015Y-119251954D01*
X93349438Y-141765921D02*
X93397058Y-141813540D01*
X93397058Y-141813540D02*
X93444677Y-141956397D01*
X93444677Y-141956397D02*
X93444677Y-142051635D01*
X93444677Y-142051635D02*
X93397058Y-142194492D01*
X93397058Y-142194492D02*
X93301819Y-142289730D01*
X93301819Y-142289730D02*
X93206581Y-142337349D01*
X93206581Y-142337349D02*
X93016105Y-142384968D01*
X93016105Y-142384968D02*
X92873248Y-142384968D01*
X92873248Y-142384968D02*
X92682772Y-142337349D01*
X92682772Y-142337349D02*
X92587534Y-142289730D01*
X92587534Y-142289730D02*
X92492296Y-142194492D01*
X92492296Y-142194492D02*
X92444677Y-142051635D01*
X92444677Y-142051635D02*
X92444677Y-141956397D01*
X92444677Y-141956397D02*
X92492296Y-141813540D01*
X92492296Y-141813540D02*
X92539915Y-141765921D01*
X92444677Y-141432587D02*
X92444677Y-140765921D01*
X92444677Y-140765921D02*
X93444677Y-141194492D01*
X92873248Y-140242111D02*
X92825629Y-140337349D01*
X92825629Y-140337349D02*
X92778010Y-140384968D01*
X92778010Y-140384968D02*
X92682772Y-140432587D01*
X92682772Y-140432587D02*
X92635153Y-140432587D01*
X92635153Y-140432587D02*
X92539915Y-140384968D01*
X92539915Y-140384968D02*
X92492296Y-140337349D01*
X92492296Y-140337349D02*
X92444677Y-140242111D01*
X92444677Y-140242111D02*
X92444677Y-140051635D01*
X92444677Y-140051635D02*
X92492296Y-139956397D01*
X92492296Y-139956397D02*
X92539915Y-139908778D01*
X92539915Y-139908778D02*
X92635153Y-139861159D01*
X92635153Y-139861159D02*
X92682772Y-139861159D01*
X92682772Y-139861159D02*
X92778010Y-139908778D01*
X92778010Y-139908778D02*
X92825629Y-139956397D01*
X92825629Y-139956397D02*
X92873248Y-140051635D01*
X92873248Y-140051635D02*
X92873248Y-140242111D01*
X92873248Y-140242111D02*
X92920867Y-140337349D01*
X92920867Y-140337349D02*
X92968486Y-140384968D01*
X92968486Y-140384968D02*
X93063724Y-140432587D01*
X93063724Y-140432587D02*
X93254200Y-140432587D01*
X93254200Y-140432587D02*
X93349438Y-140384968D01*
X93349438Y-140384968D02*
X93397058Y-140337349D01*
X93397058Y-140337349D02*
X93444677Y-140242111D01*
X93444677Y-140242111D02*
X93444677Y-140051635D01*
X93444677Y-140051635D02*
X93397058Y-139956397D01*
X93397058Y-139956397D02*
X93349438Y-139908778D01*
X93349438Y-139908778D02*
X93254200Y-139861159D01*
X93254200Y-139861159D02*
X93063724Y-139861159D01*
X93063724Y-139861159D02*
X92968486Y-139908778D01*
X92968486Y-139908778D02*
X92920867Y-139956397D01*
X92920867Y-139956397D02*
X92873248Y-140051635D01*
X166159878Y-119399600D02*
X166207498Y-119447219D01*
X166207498Y-119447219D02*
X166255117Y-119590076D01*
X166255117Y-119590076D02*
X166255117Y-119685314D01*
X166255117Y-119685314D02*
X166207498Y-119828171D01*
X166207498Y-119828171D02*
X166112259Y-119923409D01*
X166112259Y-119923409D02*
X166017021Y-119971028D01*
X166017021Y-119971028D02*
X165826545Y-120018647D01*
X165826545Y-120018647D02*
X165683688Y-120018647D01*
X165683688Y-120018647D02*
X165493212Y-119971028D01*
X165493212Y-119971028D02*
X165397974Y-119923409D01*
X165397974Y-119923409D02*
X165302736Y-119828171D01*
X165302736Y-119828171D02*
X165255117Y-119685314D01*
X165255117Y-119685314D02*
X165255117Y-119590076D01*
X165255117Y-119590076D02*
X165302736Y-119447219D01*
X165302736Y-119447219D02*
X165350355Y-119399600D01*
X166255117Y-118447219D02*
X166255117Y-119018647D01*
X166255117Y-118732933D02*
X165255117Y-118732933D01*
X165255117Y-118732933D02*
X165397974Y-118828171D01*
X165397974Y-118828171D02*
X165493212Y-118923409D01*
X165493212Y-118923409D02*
X165540831Y-119018647D01*
X165588450Y-117590076D02*
X166255117Y-117590076D01*
X165207498Y-117828171D02*
X165921783Y-118066266D01*
X165921783Y-118066266D02*
X165921783Y-117447219D01*
X165350355Y-117113885D02*
X165302736Y-117066266D01*
X165302736Y-117066266D02*
X165255117Y-116971028D01*
X165255117Y-116971028D02*
X165255117Y-116732933D01*
X165255117Y-116732933D02*
X165302736Y-116637695D01*
X165302736Y-116637695D02*
X165350355Y-116590076D01*
X165350355Y-116590076D02*
X165445593Y-116542457D01*
X165445593Y-116542457D02*
X165540831Y-116542457D01*
X165540831Y-116542457D02*
X165683688Y-116590076D01*
X165683688Y-116590076D02*
X166255117Y-117161504D01*
X166255117Y-117161504D02*
X166255117Y-116542457D01*
D10*
X158473980Y-148294200D02*
X158235885Y-148460866D01*
X158473980Y-148579914D02*
X157973980Y-148579914D01*
X157973980Y-148579914D02*
X157973980Y-148389438D01*
X157973980Y-148389438D02*
X157997790Y-148341819D01*
X157997790Y-148341819D02*
X158021599Y-148318009D01*
X158021599Y-148318009D02*
X158069218Y-148294200D01*
X158069218Y-148294200D02*
X158140647Y-148294200D01*
X158140647Y-148294200D02*
X158188266Y-148318009D01*
X158188266Y-148318009D02*
X158212075Y-148341819D01*
X158212075Y-148341819D02*
X158235885Y-148389438D01*
X158235885Y-148389438D02*
X158235885Y-148579914D01*
X158473980Y-147818009D02*
X158473980Y-148103723D01*
X158473980Y-147960866D02*
X157973980Y-147960866D01*
X157973980Y-147960866D02*
X158045409Y-148008485D01*
X158045409Y-148008485D02*
X158093028Y-148056104D01*
X158093028Y-148056104D02*
X158116837Y-148103723D01*
X158188266Y-147532295D02*
X158164456Y-147579914D01*
X158164456Y-147579914D02*
X158140647Y-147603724D01*
X158140647Y-147603724D02*
X158093028Y-147627533D01*
X158093028Y-147627533D02*
X158069218Y-147627533D01*
X158069218Y-147627533D02*
X158021599Y-147603724D01*
X158021599Y-147603724D02*
X157997790Y-147579914D01*
X157997790Y-147579914D02*
X157973980Y-147532295D01*
X157973980Y-147532295D02*
X157973980Y-147437057D01*
X157973980Y-147437057D02*
X157997790Y-147389438D01*
X157997790Y-147389438D02*
X158021599Y-147365629D01*
X158021599Y-147365629D02*
X158069218Y-147341819D01*
X158069218Y-147341819D02*
X158093028Y-147341819D01*
X158093028Y-147341819D02*
X158140647Y-147365629D01*
X158140647Y-147365629D02*
X158164456Y-147389438D01*
X158164456Y-147389438D02*
X158188266Y-147437057D01*
X158188266Y-147437057D02*
X158188266Y-147532295D01*
X158188266Y-147532295D02*
X158212075Y-147579914D01*
X158212075Y-147579914D02*
X158235885Y-147603724D01*
X158235885Y-147603724D02*
X158283504Y-147627533D01*
X158283504Y-147627533D02*
X158378742Y-147627533D01*
X158378742Y-147627533D02*
X158426361Y-147603724D01*
X158426361Y-147603724D02*
X158450171Y-147579914D01*
X158450171Y-147579914D02*
X158473980Y-147532295D01*
X158473980Y-147532295D02*
X158473980Y-147437057D01*
X158473980Y-147437057D02*
X158450171Y-147389438D01*
X158450171Y-147389438D02*
X158426361Y-147365629D01*
X158426361Y-147365629D02*
X158378742Y-147341819D01*
X158378742Y-147341819D02*
X158283504Y-147341819D01*
X158283504Y-147341819D02*
X158235885Y-147365629D01*
X158235885Y-147365629D02*
X158212075Y-147389438D01*
X158212075Y-147389438D02*
X158188266Y-147437057D01*
X160037750Y-82175548D02*
X160013941Y-82199358D01*
X160013941Y-82199358D02*
X159942512Y-82223167D01*
X159942512Y-82223167D02*
X159894893Y-82223167D01*
X159894893Y-82223167D02*
X159823465Y-82199358D01*
X159823465Y-82199358D02*
X159775846Y-82151738D01*
X159775846Y-82151738D02*
X159752036Y-82104119D01*
X159752036Y-82104119D02*
X159728227Y-82008881D01*
X159728227Y-82008881D02*
X159728227Y-81937453D01*
X159728227Y-81937453D02*
X159752036Y-81842215D01*
X159752036Y-81842215D02*
X159775846Y-81794596D01*
X159775846Y-81794596D02*
X159823465Y-81746977D01*
X159823465Y-81746977D02*
X159894893Y-81723167D01*
X159894893Y-81723167D02*
X159942512Y-81723167D01*
X159942512Y-81723167D02*
X160013941Y-81746977D01*
X160013941Y-81746977D02*
X160037750Y-81770786D01*
X160204417Y-81723167D02*
X160513941Y-81723167D01*
X160513941Y-81723167D02*
X160347274Y-81913643D01*
X160347274Y-81913643D02*
X160418703Y-81913643D01*
X160418703Y-81913643D02*
X160466322Y-81937453D01*
X160466322Y-81937453D02*
X160490131Y-81961262D01*
X160490131Y-81961262D02*
X160513941Y-82008881D01*
X160513941Y-82008881D02*
X160513941Y-82127929D01*
X160513941Y-82127929D02*
X160490131Y-82175548D01*
X160490131Y-82175548D02*
X160466322Y-82199358D01*
X160466322Y-82199358D02*
X160418703Y-82223167D01*
X160418703Y-82223167D02*
X160275846Y-82223167D01*
X160275846Y-82223167D02*
X160228227Y-82199358D01*
X160228227Y-82199358D02*
X160204417Y-82175548D01*
X160942512Y-81723167D02*
X160847274Y-81723167D01*
X160847274Y-81723167D02*
X160799655Y-81746977D01*
X160799655Y-81746977D02*
X160775845Y-81770786D01*
X160775845Y-81770786D02*
X160728226Y-81842215D01*
X160728226Y-81842215D02*
X160704417Y-81937453D01*
X160704417Y-81937453D02*
X160704417Y-82127929D01*
X160704417Y-82127929D02*
X160728226Y-82175548D01*
X160728226Y-82175548D02*
X160752036Y-82199358D01*
X160752036Y-82199358D02*
X160799655Y-82223167D01*
X160799655Y-82223167D02*
X160894893Y-82223167D01*
X160894893Y-82223167D02*
X160942512Y-82199358D01*
X160942512Y-82199358D02*
X160966321Y-82175548D01*
X160966321Y-82175548D02*
X160990131Y-82127929D01*
X160990131Y-82127929D02*
X160990131Y-82008881D01*
X160990131Y-82008881D02*
X160966321Y-81961262D01*
X160966321Y-81961262D02*
X160942512Y-81937453D01*
X160942512Y-81937453D02*
X160894893Y-81913643D01*
X160894893Y-81913643D02*
X160799655Y-81913643D01*
X160799655Y-81913643D02*
X160752036Y-81937453D01*
X160752036Y-81937453D02*
X160728226Y-81961262D01*
X160728226Y-81961262D02*
X160704417Y-82008881D01*
X161442511Y-81723167D02*
X161204416Y-81723167D01*
X161204416Y-81723167D02*
X161180607Y-81961262D01*
X161180607Y-81961262D02*
X161204416Y-81937453D01*
X161204416Y-81937453D02*
X161252035Y-81913643D01*
X161252035Y-81913643D02*
X161371083Y-81913643D01*
X161371083Y-81913643D02*
X161418702Y-81937453D01*
X161418702Y-81937453D02*
X161442511Y-81961262D01*
X161442511Y-81961262D02*
X161466321Y-82008881D01*
X161466321Y-82008881D02*
X161466321Y-82127929D01*
X161466321Y-82127929D02*
X161442511Y-82175548D01*
X161442511Y-82175548D02*
X161418702Y-82199358D01*
X161418702Y-82199358D02*
X161371083Y-82223167D01*
X161371083Y-82223167D02*
X161252035Y-82223167D01*
X161252035Y-82223167D02*
X161204416Y-82199358D01*
X161204416Y-82199358D02*
X161180607Y-82175548D01*
X154178987Y-139704216D02*
X153940892Y-139870882D01*
X154178987Y-139989930D02*
X153678987Y-139989930D01*
X153678987Y-139989930D02*
X153678987Y-139799454D01*
X153678987Y-139799454D02*
X153702797Y-139751835D01*
X153702797Y-139751835D02*
X153726606Y-139728025D01*
X153726606Y-139728025D02*
X153774225Y-139704216D01*
X153774225Y-139704216D02*
X153845654Y-139704216D01*
X153845654Y-139704216D02*
X153893273Y-139728025D01*
X153893273Y-139728025D02*
X153917082Y-139751835D01*
X153917082Y-139751835D02*
X153940892Y-139799454D01*
X153940892Y-139799454D02*
X153940892Y-139989930D01*
X153726606Y-139513739D02*
X153702797Y-139489930D01*
X153702797Y-139489930D02*
X153678987Y-139442311D01*
X153678987Y-139442311D02*
X153678987Y-139323263D01*
X153678987Y-139323263D02*
X153702797Y-139275644D01*
X153702797Y-139275644D02*
X153726606Y-139251835D01*
X153726606Y-139251835D02*
X153774225Y-139228025D01*
X153774225Y-139228025D02*
X153821844Y-139228025D01*
X153821844Y-139228025D02*
X153893273Y-139251835D01*
X153893273Y-139251835D02*
X154178987Y-139537549D01*
X154178987Y-139537549D02*
X154178987Y-139228025D01*
X153678987Y-138918502D02*
X153678987Y-138870883D01*
X153678987Y-138870883D02*
X153702797Y-138823264D01*
X153702797Y-138823264D02*
X153726606Y-138799454D01*
X153726606Y-138799454D02*
X153774225Y-138775645D01*
X153774225Y-138775645D02*
X153869463Y-138751835D01*
X153869463Y-138751835D02*
X153988511Y-138751835D01*
X153988511Y-138751835D02*
X154083749Y-138775645D01*
X154083749Y-138775645D02*
X154131368Y-138799454D01*
X154131368Y-138799454D02*
X154155178Y-138823264D01*
X154155178Y-138823264D02*
X154178987Y-138870883D01*
X154178987Y-138870883D02*
X154178987Y-138918502D01*
X154178987Y-138918502D02*
X154155178Y-138966121D01*
X154155178Y-138966121D02*
X154131368Y-138989930D01*
X154131368Y-138989930D02*
X154083749Y-139013740D01*
X154083749Y-139013740D02*
X153988511Y-139037549D01*
X153988511Y-139037549D02*
X153869463Y-139037549D01*
X153869463Y-139037549D02*
X153774225Y-139013740D01*
X153774225Y-139013740D02*
X153726606Y-138989930D01*
X153726606Y-138989930D02*
X153702797Y-138966121D01*
X153702797Y-138966121D02*
X153678987Y-138918502D01*
X151310649Y-101156016D02*
X151286840Y-101179826D01*
X151286840Y-101179826D02*
X151215411Y-101203635D01*
X151215411Y-101203635D02*
X151167792Y-101203635D01*
X151167792Y-101203635D02*
X151096364Y-101179826D01*
X151096364Y-101179826D02*
X151048745Y-101132206D01*
X151048745Y-101132206D02*
X151024935Y-101084587D01*
X151024935Y-101084587D02*
X151001126Y-100989349D01*
X151001126Y-100989349D02*
X151001126Y-100917921D01*
X151001126Y-100917921D02*
X151024935Y-100822683D01*
X151024935Y-100822683D02*
X151048745Y-100775064D01*
X151048745Y-100775064D02*
X151096364Y-100727445D01*
X151096364Y-100727445D02*
X151167792Y-100703635D01*
X151167792Y-100703635D02*
X151215411Y-100703635D01*
X151215411Y-100703635D02*
X151286840Y-100727445D01*
X151286840Y-100727445D02*
X151310649Y-100751254D01*
X151786840Y-101203635D02*
X151501126Y-101203635D01*
X151643983Y-101203635D02*
X151643983Y-100703635D01*
X151643983Y-100703635D02*
X151596364Y-100775064D01*
X151596364Y-100775064D02*
X151548745Y-100822683D01*
X151548745Y-100822683D02*
X151501126Y-100846492D01*
X152024935Y-101203635D02*
X152120173Y-101203635D01*
X152120173Y-101203635D02*
X152167792Y-101179826D01*
X152167792Y-101179826D02*
X152191601Y-101156016D01*
X152191601Y-101156016D02*
X152239220Y-101084587D01*
X152239220Y-101084587D02*
X152263030Y-100989349D01*
X152263030Y-100989349D02*
X152263030Y-100798873D01*
X152263030Y-100798873D02*
X152239220Y-100751254D01*
X152239220Y-100751254D02*
X152215411Y-100727445D01*
X152215411Y-100727445D02*
X152167792Y-100703635D01*
X152167792Y-100703635D02*
X152072554Y-100703635D01*
X152072554Y-100703635D02*
X152024935Y-100727445D01*
X152024935Y-100727445D02*
X152001125Y-100751254D01*
X152001125Y-100751254D02*
X151977316Y-100798873D01*
X151977316Y-100798873D02*
X151977316Y-100917921D01*
X151977316Y-100917921D02*
X152001125Y-100965540D01*
X152001125Y-100965540D02*
X152024935Y-100989349D01*
X152024935Y-100989349D02*
X152072554Y-101013159D01*
X152072554Y-101013159D02*
X152167792Y-101013159D01*
X152167792Y-101013159D02*
X152215411Y-100989349D01*
X152215411Y-100989349D02*
X152239220Y-100965540D01*
X152239220Y-100965540D02*
X152263030Y-100917921D01*
X152715410Y-100703635D02*
X152477315Y-100703635D01*
X152477315Y-100703635D02*
X152453506Y-100941730D01*
X152453506Y-100941730D02*
X152477315Y-100917921D01*
X152477315Y-100917921D02*
X152524934Y-100894111D01*
X152524934Y-100894111D02*
X152643982Y-100894111D01*
X152643982Y-100894111D02*
X152691601Y-100917921D01*
X152691601Y-100917921D02*
X152715410Y-100941730D01*
X152715410Y-100941730D02*
X152739220Y-100989349D01*
X152739220Y-100989349D02*
X152739220Y-101108397D01*
X152739220Y-101108397D02*
X152715410Y-101156016D01*
X152715410Y-101156016D02*
X152691601Y-101179826D01*
X152691601Y-101179826D02*
X152643982Y-101203635D01*
X152643982Y-101203635D02*
X152524934Y-101203635D01*
X152524934Y-101203635D02*
X152477315Y-101179826D01*
X152477315Y-101179826D02*
X152453506Y-101156016D01*
D14*
X154386619Y-92129080D02*
X153963285Y-92129080D01*
X153963285Y-92794318D02*
X153963285Y-91524318D01*
X153963285Y-91524318D02*
X154568047Y-91524318D01*
X155656618Y-92794318D02*
X155051856Y-92794318D01*
X155051856Y-92794318D02*
X155051856Y-91524318D01*
X156745190Y-92794318D02*
X156019475Y-92794318D01*
X156382332Y-92794318D02*
X156382332Y-91524318D01*
X156382332Y-91524318D02*
X156261380Y-91705746D01*
X156261380Y-91705746D02*
X156140428Y-91826699D01*
X156140428Y-91826699D02*
X156019475Y-91887175D01*
D10*
X158521589Y-88497272D02*
X158545399Y-88521081D01*
X158545399Y-88521081D02*
X158569208Y-88592510D01*
X158569208Y-88592510D02*
X158569208Y-88640129D01*
X158569208Y-88640129D02*
X158545399Y-88711557D01*
X158545399Y-88711557D02*
X158497779Y-88759176D01*
X158497779Y-88759176D02*
X158450160Y-88782986D01*
X158450160Y-88782986D02*
X158354922Y-88806795D01*
X158354922Y-88806795D02*
X158283494Y-88806795D01*
X158283494Y-88806795D02*
X158188256Y-88782986D01*
X158188256Y-88782986D02*
X158140637Y-88759176D01*
X158140637Y-88759176D02*
X158093018Y-88711557D01*
X158093018Y-88711557D02*
X158069208Y-88640129D01*
X158069208Y-88640129D02*
X158069208Y-88592510D01*
X158069208Y-88592510D02*
X158093018Y-88521081D01*
X158093018Y-88521081D02*
X158116827Y-88497272D01*
X158069208Y-88330605D02*
X158069208Y-88021081D01*
X158069208Y-88021081D02*
X158259684Y-88187748D01*
X158259684Y-88187748D02*
X158259684Y-88116319D01*
X158259684Y-88116319D02*
X158283494Y-88068700D01*
X158283494Y-88068700D02*
X158307303Y-88044891D01*
X158307303Y-88044891D02*
X158354922Y-88021081D01*
X158354922Y-88021081D02*
X158473970Y-88021081D01*
X158473970Y-88021081D02*
X158521589Y-88044891D01*
X158521589Y-88044891D02*
X158545399Y-88068700D01*
X158545399Y-88068700D02*
X158569208Y-88116319D01*
X158569208Y-88116319D02*
X158569208Y-88259176D01*
X158569208Y-88259176D02*
X158545399Y-88306795D01*
X158545399Y-88306795D02*
X158521589Y-88330605D01*
X158069208Y-87592510D02*
X158069208Y-87687748D01*
X158069208Y-87687748D02*
X158093018Y-87735367D01*
X158093018Y-87735367D02*
X158116827Y-87759177D01*
X158116827Y-87759177D02*
X158188256Y-87806796D01*
X158188256Y-87806796D02*
X158283494Y-87830605D01*
X158283494Y-87830605D02*
X158473970Y-87830605D01*
X158473970Y-87830605D02*
X158521589Y-87806796D01*
X158521589Y-87806796D02*
X158545399Y-87782986D01*
X158545399Y-87782986D02*
X158569208Y-87735367D01*
X158569208Y-87735367D02*
X158569208Y-87640129D01*
X158569208Y-87640129D02*
X158545399Y-87592510D01*
X158545399Y-87592510D02*
X158521589Y-87568701D01*
X158521589Y-87568701D02*
X158473970Y-87544891D01*
X158473970Y-87544891D02*
X158354922Y-87544891D01*
X158354922Y-87544891D02*
X158307303Y-87568701D01*
X158307303Y-87568701D02*
X158283494Y-87592510D01*
X158283494Y-87592510D02*
X158259684Y-87640129D01*
X158259684Y-87640129D02*
X158259684Y-87735367D01*
X158259684Y-87735367D02*
X158283494Y-87782986D01*
X158283494Y-87782986D02*
X158307303Y-87806796D01*
X158307303Y-87806796D02*
X158354922Y-87830605D01*
X158069208Y-87378225D02*
X158069208Y-87044892D01*
X158069208Y-87044892D02*
X158569208Y-87259177D01*
X157325067Y-95004653D02*
X157158401Y-94766558D01*
X157039353Y-95004653D02*
X157039353Y-94504653D01*
X157039353Y-94504653D02*
X157229829Y-94504653D01*
X157229829Y-94504653D02*
X157277448Y-94528463D01*
X157277448Y-94528463D02*
X157301258Y-94552272D01*
X157301258Y-94552272D02*
X157325067Y-94599891D01*
X157325067Y-94599891D02*
X157325067Y-94671320D01*
X157325067Y-94671320D02*
X157301258Y-94718939D01*
X157301258Y-94718939D02*
X157277448Y-94742748D01*
X157277448Y-94742748D02*
X157229829Y-94766558D01*
X157229829Y-94766558D02*
X157039353Y-94766558D01*
X157563163Y-95004653D02*
X157658401Y-95004653D01*
X157658401Y-95004653D02*
X157706020Y-94980844D01*
X157706020Y-94980844D02*
X157729829Y-94957034D01*
X157729829Y-94957034D02*
X157777448Y-94885605D01*
X157777448Y-94885605D02*
X157801258Y-94790367D01*
X157801258Y-94790367D02*
X157801258Y-94599891D01*
X157801258Y-94599891D02*
X157777448Y-94552272D01*
X157777448Y-94552272D02*
X157753639Y-94528463D01*
X157753639Y-94528463D02*
X157706020Y-94504653D01*
X157706020Y-94504653D02*
X157610782Y-94504653D01*
X157610782Y-94504653D02*
X157563163Y-94528463D01*
X157563163Y-94528463D02*
X157539353Y-94552272D01*
X157539353Y-94552272D02*
X157515544Y-94599891D01*
X157515544Y-94599891D02*
X157515544Y-94718939D01*
X157515544Y-94718939D02*
X157539353Y-94766558D01*
X157539353Y-94766558D02*
X157563163Y-94790367D01*
X157563163Y-94790367D02*
X157610782Y-94814177D01*
X157610782Y-94814177D02*
X157706020Y-94814177D01*
X157706020Y-94814177D02*
X157753639Y-94790367D01*
X157753639Y-94790367D02*
X157777448Y-94766558D01*
X157777448Y-94766558D02*
X157801258Y-94718939D01*
X157991734Y-94552272D02*
X158015543Y-94528463D01*
X158015543Y-94528463D02*
X158063162Y-94504653D01*
X158063162Y-94504653D02*
X158182210Y-94504653D01*
X158182210Y-94504653D02*
X158229829Y-94528463D01*
X158229829Y-94528463D02*
X158253638Y-94552272D01*
X158253638Y-94552272D02*
X158277448Y-94599891D01*
X158277448Y-94599891D02*
X158277448Y-94647510D01*
X158277448Y-94647510D02*
X158253638Y-94718939D01*
X158253638Y-94718939D02*
X157967924Y-95004653D01*
X157967924Y-95004653D02*
X158277448Y-95004653D01*
X171921116Y-132370226D02*
X171897307Y-132394036D01*
X171897307Y-132394036D02*
X171825878Y-132417845D01*
X171825878Y-132417845D02*
X171778259Y-132417845D01*
X171778259Y-132417845D02*
X171706831Y-132394036D01*
X171706831Y-132394036D02*
X171659212Y-132346416D01*
X171659212Y-132346416D02*
X171635402Y-132298797D01*
X171635402Y-132298797D02*
X171611593Y-132203559D01*
X171611593Y-132203559D02*
X171611593Y-132132131D01*
X171611593Y-132132131D02*
X171635402Y-132036893D01*
X171635402Y-132036893D02*
X171659212Y-131989274D01*
X171659212Y-131989274D02*
X171706831Y-131941655D01*
X171706831Y-131941655D02*
X171778259Y-131917845D01*
X171778259Y-131917845D02*
X171825878Y-131917845D01*
X171825878Y-131917845D02*
X171897307Y-131941655D01*
X171897307Y-131941655D02*
X171921116Y-131965464D01*
X172397307Y-132417845D02*
X172111593Y-132417845D01*
X172254450Y-132417845D02*
X172254450Y-131917845D01*
X172254450Y-131917845D02*
X172206831Y-131989274D01*
X172206831Y-131989274D02*
X172159212Y-132036893D01*
X172159212Y-132036893D02*
X172111593Y-132060702D01*
X172563973Y-131917845D02*
X172873497Y-131917845D01*
X172873497Y-131917845D02*
X172706830Y-132108321D01*
X172706830Y-132108321D02*
X172778259Y-132108321D01*
X172778259Y-132108321D02*
X172825878Y-132132131D01*
X172825878Y-132132131D02*
X172849687Y-132155940D01*
X172849687Y-132155940D02*
X172873497Y-132203559D01*
X172873497Y-132203559D02*
X172873497Y-132322607D01*
X172873497Y-132322607D02*
X172849687Y-132370226D01*
X172849687Y-132370226D02*
X172825878Y-132394036D01*
X172825878Y-132394036D02*
X172778259Y-132417845D01*
X172778259Y-132417845D02*
X172635402Y-132417845D01*
X172635402Y-132417845D02*
X172587783Y-132394036D01*
X172587783Y-132394036D02*
X172563973Y-132370226D01*
X173111592Y-132417845D02*
X173206830Y-132417845D01*
X173206830Y-132417845D02*
X173254449Y-132394036D01*
X173254449Y-132394036D02*
X173278258Y-132370226D01*
X173278258Y-132370226D02*
X173325877Y-132298797D01*
X173325877Y-132298797D02*
X173349687Y-132203559D01*
X173349687Y-132203559D02*
X173349687Y-132013083D01*
X173349687Y-132013083D02*
X173325877Y-131965464D01*
X173325877Y-131965464D02*
X173302068Y-131941655D01*
X173302068Y-131941655D02*
X173254449Y-131917845D01*
X173254449Y-131917845D02*
X173159211Y-131917845D01*
X173159211Y-131917845D02*
X173111592Y-131941655D01*
X173111592Y-131941655D02*
X173087782Y-131965464D01*
X173087782Y-131965464D02*
X173063973Y-132013083D01*
X173063973Y-132013083D02*
X173063973Y-132132131D01*
X173063973Y-132132131D02*
X173087782Y-132179750D01*
X173087782Y-132179750D02*
X173111592Y-132203559D01*
X173111592Y-132203559D02*
X173159211Y-132227369D01*
X173159211Y-132227369D02*
X173254449Y-132227369D01*
X173254449Y-132227369D02*
X173302068Y-132203559D01*
X173302068Y-132203559D02*
X173325877Y-132179750D01*
X173325877Y-132179750D02*
X173349687Y-132132131D01*
X161337032Y-95896274D02*
X161313223Y-95920084D01*
X161313223Y-95920084D02*
X161241794Y-95943893D01*
X161241794Y-95943893D02*
X161194175Y-95943893D01*
X161194175Y-95943893D02*
X161122747Y-95920084D01*
X161122747Y-95920084D02*
X161075128Y-95872464D01*
X161075128Y-95872464D02*
X161051318Y-95824845D01*
X161051318Y-95824845D02*
X161027509Y-95729607D01*
X161027509Y-95729607D02*
X161027509Y-95658179D01*
X161027509Y-95658179D02*
X161051318Y-95562941D01*
X161051318Y-95562941D02*
X161075128Y-95515322D01*
X161075128Y-95515322D02*
X161122747Y-95467703D01*
X161122747Y-95467703D02*
X161194175Y-95443893D01*
X161194175Y-95443893D02*
X161241794Y-95443893D01*
X161241794Y-95443893D02*
X161313223Y-95467703D01*
X161313223Y-95467703D02*
X161337032Y-95491512D01*
X161503699Y-95443893D02*
X161813223Y-95443893D01*
X161813223Y-95443893D02*
X161646556Y-95634369D01*
X161646556Y-95634369D02*
X161717985Y-95634369D01*
X161717985Y-95634369D02*
X161765604Y-95658179D01*
X161765604Y-95658179D02*
X161789413Y-95681988D01*
X161789413Y-95681988D02*
X161813223Y-95729607D01*
X161813223Y-95729607D02*
X161813223Y-95848655D01*
X161813223Y-95848655D02*
X161789413Y-95896274D01*
X161789413Y-95896274D02*
X161765604Y-95920084D01*
X161765604Y-95920084D02*
X161717985Y-95943893D01*
X161717985Y-95943893D02*
X161575128Y-95943893D01*
X161575128Y-95943893D02*
X161527509Y-95920084D01*
X161527509Y-95920084D02*
X161503699Y-95896274D01*
X162241794Y-95443893D02*
X162146556Y-95443893D01*
X162146556Y-95443893D02*
X162098937Y-95467703D01*
X162098937Y-95467703D02*
X162075127Y-95491512D01*
X162075127Y-95491512D02*
X162027508Y-95562941D01*
X162027508Y-95562941D02*
X162003699Y-95658179D01*
X162003699Y-95658179D02*
X162003699Y-95848655D01*
X162003699Y-95848655D02*
X162027508Y-95896274D01*
X162027508Y-95896274D02*
X162051318Y-95920084D01*
X162051318Y-95920084D02*
X162098937Y-95943893D01*
X162098937Y-95943893D02*
X162194175Y-95943893D01*
X162194175Y-95943893D02*
X162241794Y-95920084D01*
X162241794Y-95920084D02*
X162265603Y-95896274D01*
X162265603Y-95896274D02*
X162289413Y-95848655D01*
X162289413Y-95848655D02*
X162289413Y-95729607D01*
X162289413Y-95729607D02*
X162265603Y-95681988D01*
X162265603Y-95681988D02*
X162241794Y-95658179D01*
X162241794Y-95658179D02*
X162194175Y-95634369D01*
X162194175Y-95634369D02*
X162098937Y-95634369D01*
X162098937Y-95634369D02*
X162051318Y-95658179D01*
X162051318Y-95658179D02*
X162027508Y-95681988D01*
X162027508Y-95681988D02*
X162003699Y-95729607D01*
X162717984Y-95610560D02*
X162717984Y-95943893D01*
X162598936Y-95420084D02*
X162479889Y-95777226D01*
X162479889Y-95777226D02*
X162789412Y-95777226D01*
X160117024Y-139000440D02*
X159878929Y-139167106D01*
X160117024Y-139286154D02*
X159617024Y-139286154D01*
X159617024Y-139286154D02*
X159617024Y-139095678D01*
X159617024Y-139095678D02*
X159640834Y-139048059D01*
X159640834Y-139048059D02*
X159664643Y-139024249D01*
X159664643Y-139024249D02*
X159712262Y-139000440D01*
X159712262Y-139000440D02*
X159783691Y-139000440D01*
X159783691Y-139000440D02*
X159831310Y-139024249D01*
X159831310Y-139024249D02*
X159855119Y-139048059D01*
X159855119Y-139048059D02*
X159878929Y-139095678D01*
X159878929Y-139095678D02*
X159878929Y-139286154D01*
X159664643Y-138809963D02*
X159640834Y-138786154D01*
X159640834Y-138786154D02*
X159617024Y-138738535D01*
X159617024Y-138738535D02*
X159617024Y-138619487D01*
X159617024Y-138619487D02*
X159640834Y-138571868D01*
X159640834Y-138571868D02*
X159664643Y-138548059D01*
X159664643Y-138548059D02*
X159712262Y-138524249D01*
X159712262Y-138524249D02*
X159759881Y-138524249D01*
X159759881Y-138524249D02*
X159831310Y-138548059D01*
X159831310Y-138548059D02*
X160117024Y-138833773D01*
X160117024Y-138833773D02*
X160117024Y-138524249D01*
X160117024Y-138048059D02*
X160117024Y-138333773D01*
X160117024Y-138190916D02*
X159617024Y-138190916D01*
X159617024Y-138190916D02*
X159688453Y-138238535D01*
X159688453Y-138238535D02*
X159736072Y-138286154D01*
X159736072Y-138286154D02*
X159759881Y-138333773D01*
X157747725Y-95943893D02*
X157581059Y-95705798D01*
X157462011Y-95943893D02*
X157462011Y-95443893D01*
X157462011Y-95443893D02*
X157652487Y-95443893D01*
X157652487Y-95443893D02*
X157700106Y-95467703D01*
X157700106Y-95467703D02*
X157723916Y-95491512D01*
X157723916Y-95491512D02*
X157747725Y-95539131D01*
X157747725Y-95539131D02*
X157747725Y-95610560D01*
X157747725Y-95610560D02*
X157723916Y-95658179D01*
X157723916Y-95658179D02*
X157700106Y-95681988D01*
X157700106Y-95681988D02*
X157652487Y-95705798D01*
X157652487Y-95705798D02*
X157462011Y-95705798D01*
X157985821Y-95943893D02*
X158081059Y-95943893D01*
X158081059Y-95943893D02*
X158128678Y-95920084D01*
X158128678Y-95920084D02*
X158152487Y-95896274D01*
X158152487Y-95896274D02*
X158200106Y-95824845D01*
X158200106Y-95824845D02*
X158223916Y-95729607D01*
X158223916Y-95729607D02*
X158223916Y-95539131D01*
X158223916Y-95539131D02*
X158200106Y-95491512D01*
X158200106Y-95491512D02*
X158176297Y-95467703D01*
X158176297Y-95467703D02*
X158128678Y-95443893D01*
X158128678Y-95443893D02*
X158033440Y-95443893D01*
X158033440Y-95443893D02*
X157985821Y-95467703D01*
X157985821Y-95467703D02*
X157962011Y-95491512D01*
X157962011Y-95491512D02*
X157938202Y-95539131D01*
X157938202Y-95539131D02*
X157938202Y-95658179D01*
X157938202Y-95658179D02*
X157962011Y-95705798D01*
X157962011Y-95705798D02*
X157985821Y-95729607D01*
X157985821Y-95729607D02*
X158033440Y-95753417D01*
X158033440Y-95753417D02*
X158128678Y-95753417D01*
X158128678Y-95753417D02*
X158176297Y-95729607D01*
X158176297Y-95729607D02*
X158200106Y-95705798D01*
X158200106Y-95705798D02*
X158223916Y-95658179D01*
X158700106Y-95943893D02*
X158414392Y-95943893D01*
X158557249Y-95943893D02*
X158557249Y-95443893D01*
X158557249Y-95443893D02*
X158509630Y-95515322D01*
X158509630Y-95515322D02*
X158462011Y-95562941D01*
X158462011Y-95562941D02*
X158414392Y-95586750D01*
X153748503Y-146545011D02*
X153510408Y-146711677D01*
X153748503Y-146830725D02*
X153248503Y-146830725D01*
X153248503Y-146830725D02*
X153248503Y-146640249D01*
X153248503Y-146640249D02*
X153272313Y-146592630D01*
X153272313Y-146592630D02*
X153296122Y-146568820D01*
X153296122Y-146568820D02*
X153343741Y-146545011D01*
X153343741Y-146545011D02*
X153415170Y-146545011D01*
X153415170Y-146545011D02*
X153462789Y-146568820D01*
X153462789Y-146568820D02*
X153486598Y-146592630D01*
X153486598Y-146592630D02*
X153510408Y-146640249D01*
X153510408Y-146640249D02*
X153510408Y-146830725D01*
X153748503Y-146068820D02*
X153748503Y-146354534D01*
X153748503Y-146211677D02*
X153248503Y-146211677D01*
X153248503Y-146211677D02*
X153319932Y-146259296D01*
X153319932Y-146259296D02*
X153367551Y-146306915D01*
X153367551Y-146306915D02*
X153391360Y-146354534D01*
X153748503Y-145830725D02*
X153748503Y-145735487D01*
X153748503Y-145735487D02*
X153724694Y-145687868D01*
X153724694Y-145687868D02*
X153700884Y-145664059D01*
X153700884Y-145664059D02*
X153629455Y-145616440D01*
X153629455Y-145616440D02*
X153534217Y-145592630D01*
X153534217Y-145592630D02*
X153343741Y-145592630D01*
X153343741Y-145592630D02*
X153296122Y-145616440D01*
X153296122Y-145616440D02*
X153272313Y-145640249D01*
X153272313Y-145640249D02*
X153248503Y-145687868D01*
X153248503Y-145687868D02*
X153248503Y-145783106D01*
X153248503Y-145783106D02*
X153272313Y-145830725D01*
X153272313Y-145830725D02*
X153296122Y-145854535D01*
X153296122Y-145854535D02*
X153343741Y-145878344D01*
X153343741Y-145878344D02*
X153462789Y-145878344D01*
X153462789Y-145878344D02*
X153510408Y-145854535D01*
X153510408Y-145854535D02*
X153534217Y-145830725D01*
X153534217Y-145830725D02*
X153558027Y-145783106D01*
X153558027Y-145783106D02*
X153558027Y-145687868D01*
X153558027Y-145687868D02*
X153534217Y-145640249D01*
X153534217Y-145640249D02*
X153510408Y-145616440D01*
X153510408Y-145616440D02*
X153462789Y-145592630D01*
D11*
X173197310Y-96190112D02*
X173197310Y-96999635D01*
X173197310Y-96999635D02*
X173244929Y-97094873D01*
X173244929Y-97094873D02*
X173292548Y-97142493D01*
X173292548Y-97142493D02*
X173387786Y-97190112D01*
X173387786Y-97190112D02*
X173578262Y-97190112D01*
X173578262Y-97190112D02*
X173673500Y-97142493D01*
X173673500Y-97142493D02*
X173721119Y-97094873D01*
X173721119Y-97094873D02*
X173768738Y-96999635D01*
X173768738Y-96999635D02*
X173768738Y-96190112D01*
X174149691Y-96190112D02*
X174768738Y-96190112D01*
X174768738Y-96190112D02*
X174435405Y-96571064D01*
X174435405Y-96571064D02*
X174578262Y-96571064D01*
X174578262Y-96571064D02*
X174673500Y-96618683D01*
X174673500Y-96618683D02*
X174721119Y-96666302D01*
X174721119Y-96666302D02*
X174768738Y-96761540D01*
X174768738Y-96761540D02*
X174768738Y-96999635D01*
X174768738Y-96999635D02*
X174721119Y-97094873D01*
X174721119Y-97094873D02*
X174673500Y-97142493D01*
X174673500Y-97142493D02*
X174578262Y-97190112D01*
X174578262Y-97190112D02*
X174292548Y-97190112D01*
X174292548Y-97190112D02*
X174197310Y-97142493D01*
X174197310Y-97142493D02*
X174149691Y-97094873D01*
X175102072Y-96190112D02*
X175768738Y-96190112D01*
X175768738Y-96190112D02*
X175340167Y-97190112D01*
X142146222Y-159840792D02*
X142098603Y-159888412D01*
X142098603Y-159888412D02*
X141955746Y-159936031D01*
X141955746Y-159936031D02*
X141860508Y-159936031D01*
X141860508Y-159936031D02*
X141717651Y-159888412D01*
X141717651Y-159888412D02*
X141622413Y-159793173D01*
X141622413Y-159793173D02*
X141574794Y-159697935D01*
X141574794Y-159697935D02*
X141527175Y-159507459D01*
X141527175Y-159507459D02*
X141527175Y-159364602D01*
X141527175Y-159364602D02*
X141574794Y-159174126D01*
X141574794Y-159174126D02*
X141622413Y-159078888D01*
X141622413Y-159078888D02*
X141717651Y-158983650D01*
X141717651Y-158983650D02*
X141860508Y-158936031D01*
X141860508Y-158936031D02*
X141955746Y-158936031D01*
X141955746Y-158936031D02*
X142098603Y-158983650D01*
X142098603Y-158983650D02*
X142146222Y-159031269D01*
X143098603Y-159936031D02*
X142527175Y-159936031D01*
X142812889Y-159936031D02*
X142812889Y-158936031D01*
X142812889Y-158936031D02*
X142717651Y-159078888D01*
X142717651Y-159078888D02*
X142622413Y-159174126D01*
X142622413Y-159174126D02*
X142527175Y-159221745D01*
X143955746Y-158936031D02*
X143765270Y-158936031D01*
X143765270Y-158936031D02*
X143670032Y-158983650D01*
X143670032Y-158983650D02*
X143622413Y-159031269D01*
X143622413Y-159031269D02*
X143527175Y-159174126D01*
X143527175Y-159174126D02*
X143479556Y-159364602D01*
X143479556Y-159364602D02*
X143479556Y-159745554D01*
X143479556Y-159745554D02*
X143527175Y-159840792D01*
X143527175Y-159840792D02*
X143574794Y-159888412D01*
X143574794Y-159888412D02*
X143670032Y-159936031D01*
X143670032Y-159936031D02*
X143860508Y-159936031D01*
X143860508Y-159936031D02*
X143955746Y-159888412D01*
X143955746Y-159888412D02*
X144003365Y-159840792D01*
X144003365Y-159840792D02*
X144050984Y-159745554D01*
X144050984Y-159745554D02*
X144050984Y-159507459D01*
X144050984Y-159507459D02*
X144003365Y-159412221D01*
X144003365Y-159412221D02*
X143955746Y-159364602D01*
X143955746Y-159364602D02*
X143860508Y-159316983D01*
X143860508Y-159316983D02*
X143670032Y-159316983D01*
X143670032Y-159316983D02*
X143574794Y-159364602D01*
X143574794Y-159364602D02*
X143527175Y-159412221D01*
X143527175Y-159412221D02*
X143479556Y-159507459D01*
D10*
X91614689Y-153102176D02*
X91638499Y-153125985D01*
X91638499Y-153125985D02*
X91662308Y-153197414D01*
X91662308Y-153197414D02*
X91662308Y-153245033D01*
X91662308Y-153245033D02*
X91638499Y-153316461D01*
X91638499Y-153316461D02*
X91590879Y-153364080D01*
X91590879Y-153364080D02*
X91543260Y-153387890D01*
X91543260Y-153387890D02*
X91448022Y-153411699D01*
X91448022Y-153411699D02*
X91376594Y-153411699D01*
X91376594Y-153411699D02*
X91281356Y-153387890D01*
X91281356Y-153387890D02*
X91233737Y-153364080D01*
X91233737Y-153364080D02*
X91186118Y-153316461D01*
X91186118Y-153316461D02*
X91162308Y-153245033D01*
X91162308Y-153245033D02*
X91162308Y-153197414D01*
X91162308Y-153197414D02*
X91186118Y-153125985D01*
X91186118Y-153125985D02*
X91209927Y-153102176D01*
X91662308Y-152625985D02*
X91662308Y-152911699D01*
X91662308Y-152768842D02*
X91162308Y-152768842D01*
X91162308Y-152768842D02*
X91233737Y-152816461D01*
X91233737Y-152816461D02*
X91281356Y-152864080D01*
X91281356Y-152864080D02*
X91305165Y-152911699D01*
X91162308Y-152197414D02*
X91162308Y-152292652D01*
X91162308Y-152292652D02*
X91186118Y-152340271D01*
X91186118Y-152340271D02*
X91209927Y-152364081D01*
X91209927Y-152364081D02*
X91281356Y-152411700D01*
X91281356Y-152411700D02*
X91376594Y-152435509D01*
X91376594Y-152435509D02*
X91567070Y-152435509D01*
X91567070Y-152435509D02*
X91614689Y-152411700D01*
X91614689Y-152411700D02*
X91638499Y-152387890D01*
X91638499Y-152387890D02*
X91662308Y-152340271D01*
X91662308Y-152340271D02*
X91662308Y-152245033D01*
X91662308Y-152245033D02*
X91638499Y-152197414D01*
X91638499Y-152197414D02*
X91614689Y-152173605D01*
X91614689Y-152173605D02*
X91567070Y-152149795D01*
X91567070Y-152149795D02*
X91448022Y-152149795D01*
X91448022Y-152149795D02*
X91400403Y-152173605D01*
X91400403Y-152173605D02*
X91376594Y-152197414D01*
X91376594Y-152197414D02*
X91352784Y-152245033D01*
X91352784Y-152245033D02*
X91352784Y-152340271D01*
X91352784Y-152340271D02*
X91376594Y-152387890D01*
X91376594Y-152387890D02*
X91400403Y-152411700D01*
X91400403Y-152411700D02*
X91448022Y-152435509D01*
X91662308Y-151673605D02*
X91662308Y-151959319D01*
X91662308Y-151816462D02*
X91162308Y-151816462D01*
X91162308Y-151816462D02*
X91233737Y-151864081D01*
X91233737Y-151864081D02*
X91281356Y-151911700D01*
X91281356Y-151911700D02*
X91305165Y-151959319D01*
D11*
X161461071Y-147177565D02*
X161508691Y-147225184D01*
X161508691Y-147225184D02*
X161556310Y-147368041D01*
X161556310Y-147368041D02*
X161556310Y-147463279D01*
X161556310Y-147463279D02*
X161508691Y-147606136D01*
X161508691Y-147606136D02*
X161413452Y-147701374D01*
X161413452Y-147701374D02*
X161318214Y-147748993D01*
X161318214Y-147748993D02*
X161127738Y-147796612D01*
X161127738Y-147796612D02*
X160984881Y-147796612D01*
X160984881Y-147796612D02*
X160794405Y-147748993D01*
X160794405Y-147748993D02*
X160699167Y-147701374D01*
X160699167Y-147701374D02*
X160603929Y-147606136D01*
X160603929Y-147606136D02*
X160556310Y-147463279D01*
X160556310Y-147463279D02*
X160556310Y-147368041D01*
X160556310Y-147368041D02*
X160603929Y-147225184D01*
X160603929Y-147225184D02*
X160651548Y-147177565D01*
X160984881Y-146606136D02*
X160937262Y-146701374D01*
X160937262Y-146701374D02*
X160889643Y-146748993D01*
X160889643Y-146748993D02*
X160794405Y-146796612D01*
X160794405Y-146796612D02*
X160746786Y-146796612D01*
X160746786Y-146796612D02*
X160651548Y-146748993D01*
X160651548Y-146748993D02*
X160603929Y-146701374D01*
X160603929Y-146701374D02*
X160556310Y-146606136D01*
X160556310Y-146606136D02*
X160556310Y-146415660D01*
X160556310Y-146415660D02*
X160603929Y-146320422D01*
X160603929Y-146320422D02*
X160651548Y-146272803D01*
X160651548Y-146272803D02*
X160746786Y-146225184D01*
X160746786Y-146225184D02*
X160794405Y-146225184D01*
X160794405Y-146225184D02*
X160889643Y-146272803D01*
X160889643Y-146272803D02*
X160937262Y-146320422D01*
X160937262Y-146320422D02*
X160984881Y-146415660D01*
X160984881Y-146415660D02*
X160984881Y-146606136D01*
X160984881Y-146606136D02*
X161032500Y-146701374D01*
X161032500Y-146701374D02*
X161080119Y-146748993D01*
X161080119Y-146748993D02*
X161175357Y-146796612D01*
X161175357Y-146796612D02*
X161365833Y-146796612D01*
X161365833Y-146796612D02*
X161461071Y-146748993D01*
X161461071Y-146748993D02*
X161508691Y-146701374D01*
X161508691Y-146701374D02*
X161556310Y-146606136D01*
X161556310Y-146606136D02*
X161556310Y-146415660D01*
X161556310Y-146415660D02*
X161508691Y-146320422D01*
X161508691Y-146320422D02*
X161461071Y-146272803D01*
X161461071Y-146272803D02*
X161365833Y-146225184D01*
X161365833Y-146225184D02*
X161175357Y-146225184D01*
X161175357Y-146225184D02*
X161080119Y-146272803D01*
X161080119Y-146272803D02*
X161032500Y-146320422D01*
X161032500Y-146320422D02*
X160984881Y-146415660D01*
X161556310Y-145748993D02*
X161556310Y-145558517D01*
X161556310Y-145558517D02*
X161508691Y-145463279D01*
X161508691Y-145463279D02*
X161461071Y-145415660D01*
X161461071Y-145415660D02*
X161318214Y-145320422D01*
X161318214Y-145320422D02*
X161127738Y-145272803D01*
X161127738Y-145272803D02*
X160746786Y-145272803D01*
X160746786Y-145272803D02*
X160651548Y-145320422D01*
X160651548Y-145320422D02*
X160603929Y-145368041D01*
X160603929Y-145368041D02*
X160556310Y-145463279D01*
X160556310Y-145463279D02*
X160556310Y-145653755D01*
X160556310Y-145653755D02*
X160603929Y-145748993D01*
X160603929Y-145748993D02*
X160651548Y-145796612D01*
X160651548Y-145796612D02*
X160746786Y-145844231D01*
X160746786Y-145844231D02*
X160984881Y-145844231D01*
X160984881Y-145844231D02*
X161080119Y-145796612D01*
X161080119Y-145796612D02*
X161127738Y-145748993D01*
X161127738Y-145748993D02*
X161175357Y-145653755D01*
X161175357Y-145653755D02*
X161175357Y-145463279D01*
X161175357Y-145463279D02*
X161127738Y-145368041D01*
X161127738Y-145368041D02*
X161080119Y-145320422D01*
X161080119Y-145320422D02*
X160984881Y-145272803D01*
D10*
X159529752Y-93836108D02*
X159529752Y-94240870D01*
X159529752Y-94240870D02*
X159553562Y-94288489D01*
X159553562Y-94288489D02*
X159577371Y-94312299D01*
X159577371Y-94312299D02*
X159624990Y-94336108D01*
X159624990Y-94336108D02*
X159720228Y-94336108D01*
X159720228Y-94336108D02*
X159767847Y-94312299D01*
X159767847Y-94312299D02*
X159791657Y-94288489D01*
X159791657Y-94288489D02*
X159815466Y-94240870D01*
X159815466Y-94240870D02*
X159815466Y-93836108D01*
X160315467Y-94336108D02*
X160029753Y-94336108D01*
X160172610Y-94336108D02*
X160172610Y-93836108D01*
X160172610Y-93836108D02*
X160124991Y-93907537D01*
X160124991Y-93907537D02*
X160077372Y-93955156D01*
X160077372Y-93955156D02*
X160029753Y-93978965D01*
X160505943Y-93883727D02*
X160529752Y-93859918D01*
X160529752Y-93859918D02*
X160577371Y-93836108D01*
X160577371Y-93836108D02*
X160696419Y-93836108D01*
X160696419Y-93836108D02*
X160744038Y-93859918D01*
X160744038Y-93859918D02*
X160767847Y-93883727D01*
X160767847Y-93883727D02*
X160791657Y-93931346D01*
X160791657Y-93931346D02*
X160791657Y-93978965D01*
X160791657Y-93978965D02*
X160767847Y-94050394D01*
X160767847Y-94050394D02*
X160482133Y-94336108D01*
X160482133Y-94336108D02*
X160791657Y-94336108D01*
X169970209Y-88092758D02*
X169946400Y-88116568D01*
X169946400Y-88116568D02*
X169874971Y-88140377D01*
X169874971Y-88140377D02*
X169827352Y-88140377D01*
X169827352Y-88140377D02*
X169755924Y-88116568D01*
X169755924Y-88116568D02*
X169708305Y-88068948D01*
X169708305Y-88068948D02*
X169684495Y-88021329D01*
X169684495Y-88021329D02*
X169660686Y-87926091D01*
X169660686Y-87926091D02*
X169660686Y-87854663D01*
X169660686Y-87854663D02*
X169684495Y-87759425D01*
X169684495Y-87759425D02*
X169708305Y-87711806D01*
X169708305Y-87711806D02*
X169755924Y-87664187D01*
X169755924Y-87664187D02*
X169827352Y-87640377D01*
X169827352Y-87640377D02*
X169874971Y-87640377D01*
X169874971Y-87640377D02*
X169946400Y-87664187D01*
X169946400Y-87664187D02*
X169970209Y-87687996D01*
X170160686Y-87687996D02*
X170184495Y-87664187D01*
X170184495Y-87664187D02*
X170232114Y-87640377D01*
X170232114Y-87640377D02*
X170351162Y-87640377D01*
X170351162Y-87640377D02*
X170398781Y-87664187D01*
X170398781Y-87664187D02*
X170422590Y-87687996D01*
X170422590Y-87687996D02*
X170446400Y-87735615D01*
X170446400Y-87735615D02*
X170446400Y-87783234D01*
X170446400Y-87783234D02*
X170422590Y-87854663D01*
X170422590Y-87854663D02*
X170136876Y-88140377D01*
X170136876Y-88140377D02*
X170446400Y-88140377D01*
X170755923Y-87640377D02*
X170803542Y-87640377D01*
X170803542Y-87640377D02*
X170851161Y-87664187D01*
X170851161Y-87664187D02*
X170874971Y-87687996D01*
X170874971Y-87687996D02*
X170898780Y-87735615D01*
X170898780Y-87735615D02*
X170922590Y-87830853D01*
X170922590Y-87830853D02*
X170922590Y-87949901D01*
X170922590Y-87949901D02*
X170898780Y-88045139D01*
X170898780Y-88045139D02*
X170874971Y-88092758D01*
X170874971Y-88092758D02*
X170851161Y-88116568D01*
X170851161Y-88116568D02*
X170803542Y-88140377D01*
X170803542Y-88140377D02*
X170755923Y-88140377D01*
X170755923Y-88140377D02*
X170708304Y-88116568D01*
X170708304Y-88116568D02*
X170684495Y-88092758D01*
X170684495Y-88092758D02*
X170660685Y-88045139D01*
X170660685Y-88045139D02*
X170636876Y-87949901D01*
X170636876Y-87949901D02*
X170636876Y-87830853D01*
X170636876Y-87830853D02*
X170660685Y-87735615D01*
X170660685Y-87735615D02*
X170684495Y-87687996D01*
X170684495Y-87687996D02*
X170708304Y-87664187D01*
X170708304Y-87664187D02*
X170755923Y-87640377D01*
X171160685Y-88140377D02*
X171255923Y-88140377D01*
X171255923Y-88140377D02*
X171303542Y-88116568D01*
X171303542Y-88116568D02*
X171327351Y-88092758D01*
X171327351Y-88092758D02*
X171374970Y-88021329D01*
X171374970Y-88021329D02*
X171398780Y-87926091D01*
X171398780Y-87926091D02*
X171398780Y-87735615D01*
X171398780Y-87735615D02*
X171374970Y-87687996D01*
X171374970Y-87687996D02*
X171351161Y-87664187D01*
X171351161Y-87664187D02*
X171303542Y-87640377D01*
X171303542Y-87640377D02*
X171208304Y-87640377D01*
X171208304Y-87640377D02*
X171160685Y-87664187D01*
X171160685Y-87664187D02*
X171136875Y-87687996D01*
X171136875Y-87687996D02*
X171113066Y-87735615D01*
X171113066Y-87735615D02*
X171113066Y-87854663D01*
X171113066Y-87854663D02*
X171136875Y-87902282D01*
X171136875Y-87902282D02*
X171160685Y-87926091D01*
X171160685Y-87926091D02*
X171208304Y-87949901D01*
X171208304Y-87949901D02*
X171303542Y-87949901D01*
X171303542Y-87949901D02*
X171351161Y-87926091D01*
X171351161Y-87926091D02*
X171374970Y-87902282D01*
X171374970Y-87902282D02*
X171398780Y-87854663D01*
D11*
X152473114Y-134859827D02*
X152520734Y-134907446D01*
X152520734Y-134907446D02*
X152568353Y-135050303D01*
X152568353Y-135050303D02*
X152568353Y-135145541D01*
X152568353Y-135145541D02*
X152520734Y-135288398D01*
X152520734Y-135288398D02*
X152425495Y-135383636D01*
X152425495Y-135383636D02*
X152330257Y-135431255D01*
X152330257Y-135431255D02*
X152139781Y-135478874D01*
X152139781Y-135478874D02*
X151996924Y-135478874D01*
X151996924Y-135478874D02*
X151806448Y-135431255D01*
X151806448Y-135431255D02*
X151711210Y-135383636D01*
X151711210Y-135383636D02*
X151615972Y-135288398D01*
X151615972Y-135288398D02*
X151568353Y-135145541D01*
X151568353Y-135145541D02*
X151568353Y-135050303D01*
X151568353Y-135050303D02*
X151615972Y-134907446D01*
X151615972Y-134907446D02*
X151663591Y-134859827D01*
X152568353Y-134383636D02*
X152568353Y-134193160D01*
X152568353Y-134193160D02*
X152520734Y-134097922D01*
X152520734Y-134097922D02*
X152473114Y-134050303D01*
X152473114Y-134050303D02*
X152330257Y-133955065D01*
X152330257Y-133955065D02*
X152139781Y-133907446D01*
X152139781Y-133907446D02*
X151758829Y-133907446D01*
X151758829Y-133907446D02*
X151663591Y-133955065D01*
X151663591Y-133955065D02*
X151615972Y-134002684D01*
X151615972Y-134002684D02*
X151568353Y-134097922D01*
X151568353Y-134097922D02*
X151568353Y-134288398D01*
X151568353Y-134288398D02*
X151615972Y-134383636D01*
X151615972Y-134383636D02*
X151663591Y-134431255D01*
X151663591Y-134431255D02*
X151758829Y-134478874D01*
X151758829Y-134478874D02*
X151996924Y-134478874D01*
X151996924Y-134478874D02*
X152092162Y-134431255D01*
X152092162Y-134431255D02*
X152139781Y-134383636D01*
X152139781Y-134383636D02*
X152187400Y-134288398D01*
X152187400Y-134288398D02*
X152187400Y-134097922D01*
X152187400Y-134097922D02*
X152139781Y-134002684D01*
X152139781Y-134002684D02*
X152092162Y-133955065D01*
X152092162Y-133955065D02*
X151996924Y-133907446D01*
X152568353Y-133431255D02*
X152568353Y-133240779D01*
X152568353Y-133240779D02*
X152520734Y-133145541D01*
X152520734Y-133145541D02*
X152473114Y-133097922D01*
X152473114Y-133097922D02*
X152330257Y-133002684D01*
X152330257Y-133002684D02*
X152139781Y-132955065D01*
X152139781Y-132955065D02*
X151758829Y-132955065D01*
X151758829Y-132955065D02*
X151663591Y-133002684D01*
X151663591Y-133002684D02*
X151615972Y-133050303D01*
X151615972Y-133050303D02*
X151568353Y-133145541D01*
X151568353Y-133145541D02*
X151568353Y-133336017D01*
X151568353Y-133336017D02*
X151615972Y-133431255D01*
X151615972Y-133431255D02*
X151663591Y-133478874D01*
X151663591Y-133478874D02*
X151758829Y-133526493D01*
X151758829Y-133526493D02*
X151996924Y-133526493D01*
X151996924Y-133526493D02*
X152092162Y-133478874D01*
X152092162Y-133478874D02*
X152139781Y-133431255D01*
X152139781Y-133431255D02*
X152187400Y-133336017D01*
X152187400Y-133336017D02*
X152187400Y-133145541D01*
X152187400Y-133145541D02*
X152139781Y-133050303D01*
X152139781Y-133050303D02*
X152092162Y-133002684D01*
X152092162Y-133002684D02*
X151996924Y-132955065D01*
X114473920Y-146397998D02*
X114426301Y-146445618D01*
X114426301Y-146445618D02*
X114283444Y-146493237D01*
X114283444Y-146493237D02*
X114188206Y-146493237D01*
X114188206Y-146493237D02*
X114045349Y-146445618D01*
X114045349Y-146445618D02*
X113950111Y-146350379D01*
X113950111Y-146350379D02*
X113902492Y-146255141D01*
X113902492Y-146255141D02*
X113854873Y-146064665D01*
X113854873Y-146064665D02*
X113854873Y-145921808D01*
X113854873Y-145921808D02*
X113902492Y-145731332D01*
X113902492Y-145731332D02*
X113950111Y-145636094D01*
X113950111Y-145636094D02*
X114045349Y-145540856D01*
X114045349Y-145540856D02*
X114188206Y-145493237D01*
X114188206Y-145493237D02*
X114283444Y-145493237D01*
X114283444Y-145493237D02*
X114426301Y-145540856D01*
X114426301Y-145540856D02*
X114473920Y-145588475D01*
X114807254Y-145493237D02*
X115473920Y-145493237D01*
X115473920Y-145493237D02*
X115045349Y-146493237D01*
X116378682Y-146493237D02*
X115807254Y-146493237D01*
X116092968Y-146493237D02*
X116092968Y-145493237D01*
X116092968Y-145493237D02*
X115997730Y-145636094D01*
X115997730Y-145636094D02*
X115902492Y-145731332D01*
X115902492Y-145731332D02*
X115807254Y-145778951D01*
X152692270Y-141152733D02*
X152739890Y-141200352D01*
X152739890Y-141200352D02*
X152787509Y-141343209D01*
X152787509Y-141343209D02*
X152787509Y-141438447D01*
X152787509Y-141438447D02*
X152739890Y-141581304D01*
X152739890Y-141581304D02*
X152644651Y-141676542D01*
X152644651Y-141676542D02*
X152549413Y-141724161D01*
X152549413Y-141724161D02*
X152358937Y-141771780D01*
X152358937Y-141771780D02*
X152216080Y-141771780D01*
X152216080Y-141771780D02*
X152025604Y-141724161D01*
X152025604Y-141724161D02*
X151930366Y-141676542D01*
X151930366Y-141676542D02*
X151835128Y-141581304D01*
X151835128Y-141581304D02*
X151787509Y-141438447D01*
X151787509Y-141438447D02*
X151787509Y-141343209D01*
X151787509Y-141343209D02*
X151835128Y-141200352D01*
X151835128Y-141200352D02*
X151882747Y-141152733D01*
X152216080Y-140581304D02*
X152168461Y-140676542D01*
X152168461Y-140676542D02*
X152120842Y-140724161D01*
X152120842Y-140724161D02*
X152025604Y-140771780D01*
X152025604Y-140771780D02*
X151977985Y-140771780D01*
X151977985Y-140771780D02*
X151882747Y-140724161D01*
X151882747Y-140724161D02*
X151835128Y-140676542D01*
X151835128Y-140676542D02*
X151787509Y-140581304D01*
X151787509Y-140581304D02*
X151787509Y-140390828D01*
X151787509Y-140390828D02*
X151835128Y-140295590D01*
X151835128Y-140295590D02*
X151882747Y-140247971D01*
X151882747Y-140247971D02*
X151977985Y-140200352D01*
X151977985Y-140200352D02*
X152025604Y-140200352D01*
X152025604Y-140200352D02*
X152120842Y-140247971D01*
X152120842Y-140247971D02*
X152168461Y-140295590D01*
X152168461Y-140295590D02*
X152216080Y-140390828D01*
X152216080Y-140390828D02*
X152216080Y-140581304D01*
X152216080Y-140581304D02*
X152263699Y-140676542D01*
X152263699Y-140676542D02*
X152311318Y-140724161D01*
X152311318Y-140724161D02*
X152406556Y-140771780D01*
X152406556Y-140771780D02*
X152597032Y-140771780D01*
X152597032Y-140771780D02*
X152692270Y-140724161D01*
X152692270Y-140724161D02*
X152739890Y-140676542D01*
X152739890Y-140676542D02*
X152787509Y-140581304D01*
X152787509Y-140581304D02*
X152787509Y-140390828D01*
X152787509Y-140390828D02*
X152739890Y-140295590D01*
X152739890Y-140295590D02*
X152692270Y-140247971D01*
X152692270Y-140247971D02*
X152597032Y-140200352D01*
X152597032Y-140200352D02*
X152406556Y-140200352D01*
X152406556Y-140200352D02*
X152311318Y-140247971D01*
X152311318Y-140247971D02*
X152263699Y-140295590D01*
X152263699Y-140295590D02*
X152216080Y-140390828D01*
X152787509Y-139247971D02*
X152787509Y-139819399D01*
X152787509Y-139533685D02*
X151787509Y-139533685D01*
X151787509Y-139533685D02*
X151930366Y-139628923D01*
X151930366Y-139628923D02*
X152025604Y-139724161D01*
X152025604Y-139724161D02*
X152073223Y-139819399D01*
X158235706Y-86044469D02*
X158235706Y-85044469D01*
X159283324Y-85949230D02*
X159235705Y-85996850D01*
X159235705Y-85996850D02*
X159092848Y-86044469D01*
X159092848Y-86044469D02*
X158997610Y-86044469D01*
X158997610Y-86044469D02*
X158854753Y-85996850D01*
X158854753Y-85996850D02*
X158759515Y-85901611D01*
X158759515Y-85901611D02*
X158711896Y-85806373D01*
X158711896Y-85806373D02*
X158664277Y-85615897D01*
X158664277Y-85615897D02*
X158664277Y-85473040D01*
X158664277Y-85473040D02*
X158711896Y-85282564D01*
X158711896Y-85282564D02*
X158759515Y-85187326D01*
X158759515Y-85187326D02*
X158854753Y-85092088D01*
X158854753Y-85092088D02*
X158997610Y-85044469D01*
X158997610Y-85044469D02*
X159092848Y-85044469D01*
X159092848Y-85044469D02*
X159235705Y-85092088D01*
X159235705Y-85092088D02*
X159283324Y-85139707D01*
X160140467Y-85377802D02*
X160140467Y-86044469D01*
X159902372Y-84996850D02*
X159664277Y-85711135D01*
X159664277Y-85711135D02*
X160283324Y-85711135D01*
D10*
X169382571Y-91756109D02*
X169144476Y-91756109D01*
X169144476Y-91756109D02*
X169144476Y-91256109D01*
X169501619Y-91256109D02*
X169811143Y-91256109D01*
X169811143Y-91256109D02*
X169644476Y-91446585D01*
X169644476Y-91446585D02*
X169715905Y-91446585D01*
X169715905Y-91446585D02*
X169763524Y-91470395D01*
X169763524Y-91470395D02*
X169787333Y-91494204D01*
X169787333Y-91494204D02*
X169811143Y-91541823D01*
X169811143Y-91541823D02*
X169811143Y-91660871D01*
X169811143Y-91660871D02*
X169787333Y-91708490D01*
X169787333Y-91708490D02*
X169763524Y-91732300D01*
X169763524Y-91732300D02*
X169715905Y-91756109D01*
X169715905Y-91756109D02*
X169573048Y-91756109D01*
X169573048Y-91756109D02*
X169525429Y-91732300D01*
X169525429Y-91732300D02*
X169501619Y-91708490D01*
X170120666Y-91256109D02*
X170168285Y-91256109D01*
X170168285Y-91256109D02*
X170215904Y-91279919D01*
X170215904Y-91279919D02*
X170239714Y-91303728D01*
X170239714Y-91303728D02*
X170263523Y-91351347D01*
X170263523Y-91351347D02*
X170287333Y-91446585D01*
X170287333Y-91446585D02*
X170287333Y-91565633D01*
X170287333Y-91565633D02*
X170263523Y-91660871D01*
X170263523Y-91660871D02*
X170239714Y-91708490D01*
X170239714Y-91708490D02*
X170215904Y-91732300D01*
X170215904Y-91732300D02*
X170168285Y-91756109D01*
X170168285Y-91756109D02*
X170120666Y-91756109D01*
X170120666Y-91756109D02*
X170073047Y-91732300D01*
X170073047Y-91732300D02*
X170049238Y-91708490D01*
X170049238Y-91708490D02*
X170025428Y-91660871D01*
X170025428Y-91660871D02*
X170001619Y-91565633D01*
X170001619Y-91565633D02*
X170001619Y-91446585D01*
X170001619Y-91446585D02*
X170025428Y-91351347D01*
X170025428Y-91351347D02*
X170049238Y-91303728D01*
X170049238Y-91303728D02*
X170073047Y-91279919D01*
X170073047Y-91279919D02*
X170120666Y-91256109D01*
X165307595Y-92744046D02*
X165331405Y-92767855D01*
X165331405Y-92767855D02*
X165355214Y-92839284D01*
X165355214Y-92839284D02*
X165355214Y-92886903D01*
X165355214Y-92886903D02*
X165331405Y-92958331D01*
X165331405Y-92958331D02*
X165283785Y-93005950D01*
X165283785Y-93005950D02*
X165236166Y-93029760D01*
X165236166Y-93029760D02*
X165140928Y-93053569D01*
X165140928Y-93053569D02*
X165069500Y-93053569D01*
X165069500Y-93053569D02*
X164974262Y-93029760D01*
X164974262Y-93029760D02*
X164926643Y-93005950D01*
X164926643Y-93005950D02*
X164879024Y-92958331D01*
X164879024Y-92958331D02*
X164855214Y-92886903D01*
X164855214Y-92886903D02*
X164855214Y-92839284D01*
X164855214Y-92839284D02*
X164879024Y-92767855D01*
X164879024Y-92767855D02*
X164902833Y-92744046D01*
X164902833Y-92553569D02*
X164879024Y-92529760D01*
X164879024Y-92529760D02*
X164855214Y-92482141D01*
X164855214Y-92482141D02*
X164855214Y-92363093D01*
X164855214Y-92363093D02*
X164879024Y-92315474D01*
X164879024Y-92315474D02*
X164902833Y-92291665D01*
X164902833Y-92291665D02*
X164950452Y-92267855D01*
X164950452Y-92267855D02*
X164998071Y-92267855D01*
X164998071Y-92267855D02*
X165069500Y-92291665D01*
X165069500Y-92291665D02*
X165355214Y-92577379D01*
X165355214Y-92577379D02*
X165355214Y-92267855D01*
X164855214Y-91958332D02*
X164855214Y-91910713D01*
X164855214Y-91910713D02*
X164879024Y-91863094D01*
X164879024Y-91863094D02*
X164902833Y-91839284D01*
X164902833Y-91839284D02*
X164950452Y-91815475D01*
X164950452Y-91815475D02*
X165045690Y-91791665D01*
X165045690Y-91791665D02*
X165164738Y-91791665D01*
X165164738Y-91791665D02*
X165259976Y-91815475D01*
X165259976Y-91815475D02*
X165307595Y-91839284D01*
X165307595Y-91839284D02*
X165331405Y-91863094D01*
X165331405Y-91863094D02*
X165355214Y-91910713D01*
X165355214Y-91910713D02*
X165355214Y-91958332D01*
X165355214Y-91958332D02*
X165331405Y-92005951D01*
X165331405Y-92005951D02*
X165307595Y-92029760D01*
X165307595Y-92029760D02*
X165259976Y-92053570D01*
X165259976Y-92053570D02*
X165164738Y-92077379D01*
X165164738Y-92077379D02*
X165045690Y-92077379D01*
X165045690Y-92077379D02*
X164950452Y-92053570D01*
X164950452Y-92053570D02*
X164902833Y-92029760D01*
X164902833Y-92029760D02*
X164879024Y-92005951D01*
X164879024Y-92005951D02*
X164855214Y-91958332D01*
X155986651Y-95778869D02*
X155962842Y-95802679D01*
X155962842Y-95802679D02*
X155891413Y-95826488D01*
X155891413Y-95826488D02*
X155843794Y-95826488D01*
X155843794Y-95826488D02*
X155772366Y-95802679D01*
X155772366Y-95802679D02*
X155724747Y-95755059D01*
X155724747Y-95755059D02*
X155700937Y-95707440D01*
X155700937Y-95707440D02*
X155677128Y-95612202D01*
X155677128Y-95612202D02*
X155677128Y-95540774D01*
X155677128Y-95540774D02*
X155700937Y-95445536D01*
X155700937Y-95445536D02*
X155724747Y-95397917D01*
X155724747Y-95397917D02*
X155772366Y-95350298D01*
X155772366Y-95350298D02*
X155843794Y-95326488D01*
X155843794Y-95326488D02*
X155891413Y-95326488D01*
X155891413Y-95326488D02*
X155962842Y-95350298D01*
X155962842Y-95350298D02*
X155986651Y-95374107D01*
X156462842Y-95826488D02*
X156177128Y-95826488D01*
X156319985Y-95826488D02*
X156319985Y-95326488D01*
X156319985Y-95326488D02*
X156272366Y-95397917D01*
X156272366Y-95397917D02*
X156224747Y-95445536D01*
X156224747Y-95445536D02*
X156177128Y-95469345D01*
X156700937Y-95826488D02*
X156796175Y-95826488D01*
X156796175Y-95826488D02*
X156843794Y-95802679D01*
X156843794Y-95802679D02*
X156867603Y-95778869D01*
X156867603Y-95778869D02*
X156915222Y-95707440D01*
X156915222Y-95707440D02*
X156939032Y-95612202D01*
X156939032Y-95612202D02*
X156939032Y-95421726D01*
X156939032Y-95421726D02*
X156915222Y-95374107D01*
X156915222Y-95374107D02*
X156891413Y-95350298D01*
X156891413Y-95350298D02*
X156843794Y-95326488D01*
X156843794Y-95326488D02*
X156748556Y-95326488D01*
X156748556Y-95326488D02*
X156700937Y-95350298D01*
X156700937Y-95350298D02*
X156677127Y-95374107D01*
X156677127Y-95374107D02*
X156653318Y-95421726D01*
X156653318Y-95421726D02*
X156653318Y-95540774D01*
X156653318Y-95540774D02*
X156677127Y-95588393D01*
X156677127Y-95588393D02*
X156700937Y-95612202D01*
X156700937Y-95612202D02*
X156748556Y-95636012D01*
X156748556Y-95636012D02*
X156843794Y-95636012D01*
X156843794Y-95636012D02*
X156891413Y-95612202D01*
X156891413Y-95612202D02*
X156915222Y-95588393D01*
X156915222Y-95588393D02*
X156939032Y-95540774D01*
D11*
X116558676Y-143773473D02*
X116606296Y-143821092D01*
X116606296Y-143821092D02*
X116653915Y-143963949D01*
X116653915Y-143963949D02*
X116653915Y-144059187D01*
X116653915Y-144059187D02*
X116606296Y-144202044D01*
X116606296Y-144202044D02*
X116511057Y-144297282D01*
X116511057Y-144297282D02*
X116415819Y-144344901D01*
X116415819Y-144344901D02*
X116225343Y-144392520D01*
X116225343Y-144392520D02*
X116082486Y-144392520D01*
X116082486Y-144392520D02*
X115892010Y-144344901D01*
X115892010Y-144344901D02*
X115796772Y-144297282D01*
X115796772Y-144297282D02*
X115701534Y-144202044D01*
X115701534Y-144202044D02*
X115653915Y-144059187D01*
X115653915Y-144059187D02*
X115653915Y-143963949D01*
X115653915Y-143963949D02*
X115701534Y-143821092D01*
X115701534Y-143821092D02*
X115749153Y-143773473D01*
X115653915Y-142916330D02*
X115653915Y-143106806D01*
X115653915Y-143106806D02*
X115701534Y-143202044D01*
X115701534Y-143202044D02*
X115749153Y-143249663D01*
X115749153Y-143249663D02*
X115892010Y-143344901D01*
X115892010Y-143344901D02*
X116082486Y-143392520D01*
X116082486Y-143392520D02*
X116463438Y-143392520D01*
X116463438Y-143392520D02*
X116558676Y-143344901D01*
X116558676Y-143344901D02*
X116606296Y-143297282D01*
X116606296Y-143297282D02*
X116653915Y-143202044D01*
X116653915Y-143202044D02*
X116653915Y-143011568D01*
X116653915Y-143011568D02*
X116606296Y-142916330D01*
X116606296Y-142916330D02*
X116558676Y-142868711D01*
X116558676Y-142868711D02*
X116463438Y-142821092D01*
X116463438Y-142821092D02*
X116225343Y-142821092D01*
X116225343Y-142821092D02*
X116130105Y-142868711D01*
X116130105Y-142868711D02*
X116082486Y-142916330D01*
X116082486Y-142916330D02*
X116034867Y-143011568D01*
X116034867Y-143011568D02*
X116034867Y-143202044D01*
X116034867Y-143202044D02*
X116082486Y-143297282D01*
X116082486Y-143297282D02*
X116130105Y-143344901D01*
X116130105Y-143344901D02*
X116225343Y-143392520D01*
X115653915Y-141963949D02*
X115653915Y-142154425D01*
X115653915Y-142154425D02*
X115701534Y-142249663D01*
X115701534Y-142249663D02*
X115749153Y-142297282D01*
X115749153Y-142297282D02*
X115892010Y-142392520D01*
X115892010Y-142392520D02*
X116082486Y-142440139D01*
X116082486Y-142440139D02*
X116463438Y-142440139D01*
X116463438Y-142440139D02*
X116558676Y-142392520D01*
X116558676Y-142392520D02*
X116606296Y-142344901D01*
X116606296Y-142344901D02*
X116653915Y-142249663D01*
X116653915Y-142249663D02*
X116653915Y-142059187D01*
X116653915Y-142059187D02*
X116606296Y-141963949D01*
X116606296Y-141963949D02*
X116558676Y-141916330D01*
X116558676Y-141916330D02*
X116463438Y-141868711D01*
X116463438Y-141868711D02*
X116225343Y-141868711D01*
X116225343Y-141868711D02*
X116130105Y-141916330D01*
X116130105Y-141916330D02*
X116082486Y-141963949D01*
X116082486Y-141963949D02*
X116034867Y-142059187D01*
X116034867Y-142059187D02*
X116034867Y-142249663D01*
X116034867Y-142249663D02*
X116082486Y-142344901D01*
X116082486Y-142344901D02*
X116130105Y-142392520D01*
X116130105Y-142392520D02*
X116225343Y-142440139D01*
D10*
X159835877Y-145914793D02*
X159597782Y-146081459D01*
X159835877Y-146200507D02*
X159335877Y-146200507D01*
X159335877Y-146200507D02*
X159335877Y-146010031D01*
X159335877Y-146010031D02*
X159359687Y-145962412D01*
X159359687Y-145962412D02*
X159383496Y-145938602D01*
X159383496Y-145938602D02*
X159431115Y-145914793D01*
X159431115Y-145914793D02*
X159502544Y-145914793D01*
X159502544Y-145914793D02*
X159550163Y-145938602D01*
X159550163Y-145938602D02*
X159573972Y-145962412D01*
X159573972Y-145962412D02*
X159597782Y-146010031D01*
X159597782Y-146010031D02*
X159597782Y-146200507D01*
X159835877Y-145438602D02*
X159835877Y-145724316D01*
X159835877Y-145581459D02*
X159335877Y-145581459D01*
X159335877Y-145581459D02*
X159407306Y-145629078D01*
X159407306Y-145629078D02*
X159454925Y-145676697D01*
X159454925Y-145676697D02*
X159478734Y-145724316D01*
X159335877Y-145271936D02*
X159335877Y-144938603D01*
X159335877Y-144938603D02*
X159835877Y-145152888D01*
D11*
X152645308Y-144987961D02*
X152692928Y-145035580D01*
X152692928Y-145035580D02*
X152740547Y-145178437D01*
X152740547Y-145178437D02*
X152740547Y-145273675D01*
X152740547Y-145273675D02*
X152692928Y-145416532D01*
X152692928Y-145416532D02*
X152597689Y-145511770D01*
X152597689Y-145511770D02*
X152502451Y-145559389D01*
X152502451Y-145559389D02*
X152311975Y-145607008D01*
X152311975Y-145607008D02*
X152169118Y-145607008D01*
X152169118Y-145607008D02*
X151978642Y-145559389D01*
X151978642Y-145559389D02*
X151883404Y-145511770D01*
X151883404Y-145511770D02*
X151788166Y-145416532D01*
X151788166Y-145416532D02*
X151740547Y-145273675D01*
X151740547Y-145273675D02*
X151740547Y-145178437D01*
X151740547Y-145178437D02*
X151788166Y-145035580D01*
X151788166Y-145035580D02*
X151835785Y-144987961D01*
X152169118Y-144416532D02*
X152121499Y-144511770D01*
X152121499Y-144511770D02*
X152073880Y-144559389D01*
X152073880Y-144559389D02*
X151978642Y-144607008D01*
X151978642Y-144607008D02*
X151931023Y-144607008D01*
X151931023Y-144607008D02*
X151835785Y-144559389D01*
X151835785Y-144559389D02*
X151788166Y-144511770D01*
X151788166Y-144511770D02*
X151740547Y-144416532D01*
X151740547Y-144416532D02*
X151740547Y-144226056D01*
X151740547Y-144226056D02*
X151788166Y-144130818D01*
X151788166Y-144130818D02*
X151835785Y-144083199D01*
X151835785Y-144083199D02*
X151931023Y-144035580D01*
X151931023Y-144035580D02*
X151978642Y-144035580D01*
X151978642Y-144035580D02*
X152073880Y-144083199D01*
X152073880Y-144083199D02*
X152121499Y-144130818D01*
X152121499Y-144130818D02*
X152169118Y-144226056D01*
X152169118Y-144226056D02*
X152169118Y-144416532D01*
X152169118Y-144416532D02*
X152216737Y-144511770D01*
X152216737Y-144511770D02*
X152264356Y-144559389D01*
X152264356Y-144559389D02*
X152359594Y-144607008D01*
X152359594Y-144607008D02*
X152550070Y-144607008D01*
X152550070Y-144607008D02*
X152645308Y-144559389D01*
X152645308Y-144559389D02*
X152692928Y-144511770D01*
X152692928Y-144511770D02*
X152740547Y-144416532D01*
X152740547Y-144416532D02*
X152740547Y-144226056D01*
X152740547Y-144226056D02*
X152692928Y-144130818D01*
X152692928Y-144130818D02*
X152645308Y-144083199D01*
X152645308Y-144083199D02*
X152550070Y-144035580D01*
X152550070Y-144035580D02*
X152359594Y-144035580D01*
X152359594Y-144035580D02*
X152264356Y-144083199D01*
X152264356Y-144083199D02*
X152216737Y-144130818D01*
X152216737Y-144130818D02*
X152169118Y-144226056D01*
X151740547Y-143416532D02*
X151740547Y-143321294D01*
X151740547Y-143321294D02*
X151788166Y-143226056D01*
X151788166Y-143226056D02*
X151835785Y-143178437D01*
X151835785Y-143178437D02*
X151931023Y-143130818D01*
X151931023Y-143130818D02*
X152121499Y-143083199D01*
X152121499Y-143083199D02*
X152359594Y-143083199D01*
X152359594Y-143083199D02*
X152550070Y-143130818D01*
X152550070Y-143130818D02*
X152645308Y-143178437D01*
X152645308Y-143178437D02*
X152692928Y-143226056D01*
X152692928Y-143226056D02*
X152740547Y-143321294D01*
X152740547Y-143321294D02*
X152740547Y-143416532D01*
X152740547Y-143416532D02*
X152692928Y-143511770D01*
X152692928Y-143511770D02*
X152645308Y-143559389D01*
X152645308Y-143559389D02*
X152550070Y-143607008D01*
X152550070Y-143607008D02*
X152359594Y-143654627D01*
X152359594Y-143654627D02*
X152121499Y-143654627D01*
X152121499Y-143654627D02*
X151931023Y-143607008D01*
X151931023Y-143607008D02*
X151835785Y-143559389D01*
X151835785Y-143559389D02*
X151788166Y-143511770D01*
X151788166Y-143511770D02*
X151740547Y-143416532D01*
D10*
X169067833Y-85549520D02*
X169091643Y-85573329D01*
X169091643Y-85573329D02*
X169115452Y-85644758D01*
X169115452Y-85644758D02*
X169115452Y-85692377D01*
X169115452Y-85692377D02*
X169091643Y-85763805D01*
X169091643Y-85763805D02*
X169044023Y-85811424D01*
X169044023Y-85811424D02*
X168996404Y-85835234D01*
X168996404Y-85835234D02*
X168901166Y-85859043D01*
X168901166Y-85859043D02*
X168829738Y-85859043D01*
X168829738Y-85859043D02*
X168734500Y-85835234D01*
X168734500Y-85835234D02*
X168686881Y-85811424D01*
X168686881Y-85811424D02*
X168639262Y-85763805D01*
X168639262Y-85763805D02*
X168615452Y-85692377D01*
X168615452Y-85692377D02*
X168615452Y-85644758D01*
X168615452Y-85644758D02*
X168639262Y-85573329D01*
X168639262Y-85573329D02*
X168663071Y-85549520D01*
X169115452Y-85073329D02*
X169115452Y-85359043D01*
X169115452Y-85216186D02*
X168615452Y-85216186D01*
X168615452Y-85216186D02*
X168686881Y-85263805D01*
X168686881Y-85263805D02*
X168734500Y-85311424D01*
X168734500Y-85311424D02*
X168758309Y-85359043D01*
X168615452Y-84620949D02*
X168615452Y-84859044D01*
X168615452Y-84859044D02*
X168853547Y-84882853D01*
X168853547Y-84882853D02*
X168829738Y-84859044D01*
X168829738Y-84859044D02*
X168805928Y-84811425D01*
X168805928Y-84811425D02*
X168805928Y-84692377D01*
X168805928Y-84692377D02*
X168829738Y-84644758D01*
X168829738Y-84644758D02*
X168853547Y-84620949D01*
X168853547Y-84620949D02*
X168901166Y-84597139D01*
X168901166Y-84597139D02*
X169020214Y-84597139D01*
X169020214Y-84597139D02*
X169067833Y-84620949D01*
X169067833Y-84620949D02*
X169091643Y-84644758D01*
X169091643Y-84644758D02*
X169115452Y-84692377D01*
X169115452Y-84692377D02*
X169115452Y-84811425D01*
X169115452Y-84811425D02*
X169091643Y-84859044D01*
X169091643Y-84859044D02*
X169067833Y-84882853D01*
X168615452Y-84430473D02*
X168615452Y-84097140D01*
X168615452Y-84097140D02*
X169115452Y-84311425D01*
D11*
X122112589Y-155987300D02*
X122064970Y-156034920D01*
X122064970Y-156034920D02*
X121922113Y-156082539D01*
X121922113Y-156082539D02*
X121826875Y-156082539D01*
X121826875Y-156082539D02*
X121684018Y-156034920D01*
X121684018Y-156034920D02*
X121588780Y-155939681D01*
X121588780Y-155939681D02*
X121541161Y-155844443D01*
X121541161Y-155844443D02*
X121493542Y-155653967D01*
X121493542Y-155653967D02*
X121493542Y-155511110D01*
X121493542Y-155511110D02*
X121541161Y-155320634D01*
X121541161Y-155320634D02*
X121588780Y-155225396D01*
X121588780Y-155225396D02*
X121684018Y-155130158D01*
X121684018Y-155130158D02*
X121826875Y-155082539D01*
X121826875Y-155082539D02*
X121922113Y-155082539D01*
X121922113Y-155082539D02*
X122064970Y-155130158D01*
X122064970Y-155130158D02*
X122112589Y-155177777D01*
X122969732Y-155082539D02*
X122779256Y-155082539D01*
X122779256Y-155082539D02*
X122684018Y-155130158D01*
X122684018Y-155130158D02*
X122636399Y-155177777D01*
X122636399Y-155177777D02*
X122541161Y-155320634D01*
X122541161Y-155320634D02*
X122493542Y-155511110D01*
X122493542Y-155511110D02*
X122493542Y-155892062D01*
X122493542Y-155892062D02*
X122541161Y-155987300D01*
X122541161Y-155987300D02*
X122588780Y-156034920D01*
X122588780Y-156034920D02*
X122684018Y-156082539D01*
X122684018Y-156082539D02*
X122874494Y-156082539D01*
X122874494Y-156082539D02*
X122969732Y-156034920D01*
X122969732Y-156034920D02*
X123017351Y-155987300D01*
X123017351Y-155987300D02*
X123064970Y-155892062D01*
X123064970Y-155892062D02*
X123064970Y-155653967D01*
X123064970Y-155653967D02*
X123017351Y-155558729D01*
X123017351Y-155558729D02*
X122969732Y-155511110D01*
X122969732Y-155511110D02*
X122874494Y-155463491D01*
X122874494Y-155463491D02*
X122684018Y-155463491D01*
X122684018Y-155463491D02*
X122588780Y-155511110D01*
X122588780Y-155511110D02*
X122541161Y-155558729D01*
X122541161Y-155558729D02*
X122493542Y-155653967D01*
X123636399Y-155511110D02*
X123541161Y-155463491D01*
X123541161Y-155463491D02*
X123493542Y-155415872D01*
X123493542Y-155415872D02*
X123445923Y-155320634D01*
X123445923Y-155320634D02*
X123445923Y-155273015D01*
X123445923Y-155273015D02*
X123493542Y-155177777D01*
X123493542Y-155177777D02*
X123541161Y-155130158D01*
X123541161Y-155130158D02*
X123636399Y-155082539D01*
X123636399Y-155082539D02*
X123826875Y-155082539D01*
X123826875Y-155082539D02*
X123922113Y-155130158D01*
X123922113Y-155130158D02*
X123969732Y-155177777D01*
X123969732Y-155177777D02*
X124017351Y-155273015D01*
X124017351Y-155273015D02*
X124017351Y-155320634D01*
X124017351Y-155320634D02*
X123969732Y-155415872D01*
X123969732Y-155415872D02*
X123922113Y-155463491D01*
X123922113Y-155463491D02*
X123826875Y-155511110D01*
X123826875Y-155511110D02*
X123636399Y-155511110D01*
X123636399Y-155511110D02*
X123541161Y-155558729D01*
X123541161Y-155558729D02*
X123493542Y-155606348D01*
X123493542Y-155606348D02*
X123445923Y-155701586D01*
X123445923Y-155701586D02*
X123445923Y-155892062D01*
X123445923Y-155892062D02*
X123493542Y-155987300D01*
X123493542Y-155987300D02*
X123541161Y-156034920D01*
X123541161Y-156034920D02*
X123636399Y-156082539D01*
X123636399Y-156082539D02*
X123826875Y-156082539D01*
X123826875Y-156082539D02*
X123922113Y-156034920D01*
X123922113Y-156034920D02*
X123969732Y-155987300D01*
X123969732Y-155987300D02*
X124017351Y-155892062D01*
X124017351Y-155892062D02*
X124017351Y-155701586D01*
X124017351Y-155701586D02*
X123969732Y-155606348D01*
X123969732Y-155606348D02*
X123922113Y-155558729D01*
X123922113Y-155558729D02*
X123826875Y-155511110D01*
D10*
X159461644Y-89002274D02*
X159461644Y-89407036D01*
X159461644Y-89407036D02*
X159485454Y-89454655D01*
X159485454Y-89454655D02*
X159509263Y-89478465D01*
X159509263Y-89478465D02*
X159556882Y-89502274D01*
X159556882Y-89502274D02*
X159652120Y-89502274D01*
X159652120Y-89502274D02*
X159699739Y-89478465D01*
X159699739Y-89478465D02*
X159723549Y-89454655D01*
X159723549Y-89454655D02*
X159747358Y-89407036D01*
X159747358Y-89407036D02*
X159747358Y-89002274D01*
X160247359Y-89502274D02*
X159961645Y-89502274D01*
X160104502Y-89502274D02*
X160104502Y-89002274D01*
X160104502Y-89002274D02*
X160056883Y-89073703D01*
X160056883Y-89073703D02*
X160009264Y-89121322D01*
X160009264Y-89121322D02*
X159961645Y-89145131D01*
X160414025Y-89002274D02*
X160723549Y-89002274D01*
X160723549Y-89002274D02*
X160556882Y-89192750D01*
X160556882Y-89192750D02*
X160628311Y-89192750D01*
X160628311Y-89192750D02*
X160675930Y-89216560D01*
X160675930Y-89216560D02*
X160699739Y-89240369D01*
X160699739Y-89240369D02*
X160723549Y-89287988D01*
X160723549Y-89287988D02*
X160723549Y-89407036D01*
X160723549Y-89407036D02*
X160699739Y-89454655D01*
X160699739Y-89454655D02*
X160675930Y-89478465D01*
X160675930Y-89478465D02*
X160628311Y-89502274D01*
X160628311Y-89502274D02*
X160485454Y-89502274D01*
X160485454Y-89502274D02*
X160437835Y-89478465D01*
X160437835Y-89478465D02*
X160414025Y-89454655D01*
D11*
X91889703Y-149264184D02*
X91937323Y-149311803D01*
X91937323Y-149311803D02*
X91984942Y-149454660D01*
X91984942Y-149454660D02*
X91984942Y-149549898D01*
X91984942Y-149549898D02*
X91937323Y-149692755D01*
X91937323Y-149692755D02*
X91842084Y-149787993D01*
X91842084Y-149787993D02*
X91746846Y-149835612D01*
X91746846Y-149835612D02*
X91556370Y-149883231D01*
X91556370Y-149883231D02*
X91413513Y-149883231D01*
X91413513Y-149883231D02*
X91223037Y-149835612D01*
X91223037Y-149835612D02*
X91127799Y-149787993D01*
X91127799Y-149787993D02*
X91032561Y-149692755D01*
X91032561Y-149692755D02*
X90984942Y-149549898D01*
X90984942Y-149549898D02*
X90984942Y-149454660D01*
X90984942Y-149454660D02*
X91032561Y-149311803D01*
X91032561Y-149311803D02*
X91080180Y-149264184D01*
X90984942Y-148930850D02*
X90984942Y-148264184D01*
X90984942Y-148264184D02*
X91984942Y-148692755D01*
X91984942Y-147835612D02*
X91984942Y-147645136D01*
X91984942Y-147645136D02*
X91937323Y-147549898D01*
X91937323Y-147549898D02*
X91889703Y-147502279D01*
X91889703Y-147502279D02*
X91746846Y-147407041D01*
X91746846Y-147407041D02*
X91556370Y-147359422D01*
X91556370Y-147359422D02*
X91175418Y-147359422D01*
X91175418Y-147359422D02*
X91080180Y-147407041D01*
X91080180Y-147407041D02*
X91032561Y-147454660D01*
X91032561Y-147454660D02*
X90984942Y-147549898D01*
X90984942Y-147549898D02*
X90984942Y-147740374D01*
X90984942Y-147740374D02*
X91032561Y-147835612D01*
X91032561Y-147835612D02*
X91080180Y-147883231D01*
X91080180Y-147883231D02*
X91175418Y-147930850D01*
X91175418Y-147930850D02*
X91413513Y-147930850D01*
X91413513Y-147930850D02*
X91508751Y-147883231D01*
X91508751Y-147883231D02*
X91556370Y-147835612D01*
X91556370Y-147835612D02*
X91603989Y-147740374D01*
X91603989Y-147740374D02*
X91603989Y-147549898D01*
X91603989Y-147549898D02*
X91556370Y-147454660D01*
X91556370Y-147454660D02*
X91508751Y-147407041D01*
X91508751Y-147407041D02*
X91413513Y-147359422D01*
D10*
X164814495Y-89600878D02*
X164838305Y-89624687D01*
X164838305Y-89624687D02*
X164862114Y-89696116D01*
X164862114Y-89696116D02*
X164862114Y-89743735D01*
X164862114Y-89743735D02*
X164838305Y-89815163D01*
X164838305Y-89815163D02*
X164790685Y-89862782D01*
X164790685Y-89862782D02*
X164743066Y-89886592D01*
X164743066Y-89886592D02*
X164647828Y-89910401D01*
X164647828Y-89910401D02*
X164576400Y-89910401D01*
X164576400Y-89910401D02*
X164481162Y-89886592D01*
X164481162Y-89886592D02*
X164433543Y-89862782D01*
X164433543Y-89862782D02*
X164385924Y-89815163D01*
X164385924Y-89815163D02*
X164362114Y-89743735D01*
X164362114Y-89743735D02*
X164362114Y-89696116D01*
X164362114Y-89696116D02*
X164385924Y-89624687D01*
X164385924Y-89624687D02*
X164409733Y-89600878D01*
X164362114Y-89434211D02*
X164362114Y-89124687D01*
X164362114Y-89124687D02*
X164552590Y-89291354D01*
X164552590Y-89291354D02*
X164552590Y-89219925D01*
X164552590Y-89219925D02*
X164576400Y-89172306D01*
X164576400Y-89172306D02*
X164600209Y-89148497D01*
X164600209Y-89148497D02*
X164647828Y-89124687D01*
X164647828Y-89124687D02*
X164766876Y-89124687D01*
X164766876Y-89124687D02*
X164814495Y-89148497D01*
X164814495Y-89148497D02*
X164838305Y-89172306D01*
X164838305Y-89172306D02*
X164862114Y-89219925D01*
X164862114Y-89219925D02*
X164862114Y-89362782D01*
X164862114Y-89362782D02*
X164838305Y-89410401D01*
X164838305Y-89410401D02*
X164814495Y-89434211D01*
X164362114Y-88672307D02*
X164362114Y-88910402D01*
X164362114Y-88910402D02*
X164600209Y-88934211D01*
X164600209Y-88934211D02*
X164576400Y-88910402D01*
X164576400Y-88910402D02*
X164552590Y-88862783D01*
X164552590Y-88862783D02*
X164552590Y-88743735D01*
X164552590Y-88743735D02*
X164576400Y-88696116D01*
X164576400Y-88696116D02*
X164600209Y-88672307D01*
X164600209Y-88672307D02*
X164647828Y-88648497D01*
X164647828Y-88648497D02*
X164766876Y-88648497D01*
X164766876Y-88648497D02*
X164814495Y-88672307D01*
X164814495Y-88672307D02*
X164838305Y-88696116D01*
X164838305Y-88696116D02*
X164862114Y-88743735D01*
X164862114Y-88743735D02*
X164862114Y-88862783D01*
X164862114Y-88862783D02*
X164838305Y-88910402D01*
X164838305Y-88910402D02*
X164814495Y-88934211D01*
X164576400Y-88362783D02*
X164552590Y-88410402D01*
X164552590Y-88410402D02*
X164528781Y-88434212D01*
X164528781Y-88434212D02*
X164481162Y-88458021D01*
X164481162Y-88458021D02*
X164457352Y-88458021D01*
X164457352Y-88458021D02*
X164409733Y-88434212D01*
X164409733Y-88434212D02*
X164385924Y-88410402D01*
X164385924Y-88410402D02*
X164362114Y-88362783D01*
X164362114Y-88362783D02*
X164362114Y-88267545D01*
X164362114Y-88267545D02*
X164385924Y-88219926D01*
X164385924Y-88219926D02*
X164409733Y-88196117D01*
X164409733Y-88196117D02*
X164457352Y-88172307D01*
X164457352Y-88172307D02*
X164481162Y-88172307D01*
X164481162Y-88172307D02*
X164528781Y-88196117D01*
X164528781Y-88196117D02*
X164552590Y-88219926D01*
X164552590Y-88219926D02*
X164576400Y-88267545D01*
X164576400Y-88267545D02*
X164576400Y-88362783D01*
X164576400Y-88362783D02*
X164600209Y-88410402D01*
X164600209Y-88410402D02*
X164624019Y-88434212D01*
X164624019Y-88434212D02*
X164671638Y-88458021D01*
X164671638Y-88458021D02*
X164766876Y-88458021D01*
X164766876Y-88458021D02*
X164814495Y-88434212D01*
X164814495Y-88434212D02*
X164838305Y-88410402D01*
X164838305Y-88410402D02*
X164862114Y-88362783D01*
X164862114Y-88362783D02*
X164862114Y-88267545D01*
X164862114Y-88267545D02*
X164838305Y-88219926D01*
X164838305Y-88219926D02*
X164814495Y-88196117D01*
X164814495Y-88196117D02*
X164766876Y-88172307D01*
X164766876Y-88172307D02*
X164671638Y-88172307D01*
X164671638Y-88172307D02*
X164624019Y-88196117D01*
X164624019Y-88196117D02*
X164600209Y-88219926D01*
X164600209Y-88219926D02*
X164576400Y-88267545D01*
X158865329Y-141333391D02*
X158627234Y-141500057D01*
X158865329Y-141619105D02*
X158365329Y-141619105D01*
X158365329Y-141619105D02*
X158365329Y-141428629D01*
X158365329Y-141428629D02*
X158389139Y-141381010D01*
X158389139Y-141381010D02*
X158412948Y-141357200D01*
X158412948Y-141357200D02*
X158460567Y-141333391D01*
X158460567Y-141333391D02*
X158531996Y-141333391D01*
X158531996Y-141333391D02*
X158579615Y-141357200D01*
X158579615Y-141357200D02*
X158603424Y-141381010D01*
X158603424Y-141381010D02*
X158627234Y-141428629D01*
X158627234Y-141428629D02*
X158627234Y-141619105D01*
X158412948Y-141142914D02*
X158389139Y-141119105D01*
X158389139Y-141119105D02*
X158365329Y-141071486D01*
X158365329Y-141071486D02*
X158365329Y-140952438D01*
X158365329Y-140952438D02*
X158389139Y-140904819D01*
X158389139Y-140904819D02*
X158412948Y-140881010D01*
X158412948Y-140881010D02*
X158460567Y-140857200D01*
X158460567Y-140857200D02*
X158508186Y-140857200D01*
X158508186Y-140857200D02*
X158579615Y-140881010D01*
X158579615Y-140881010D02*
X158865329Y-141166724D01*
X158865329Y-141166724D02*
X158865329Y-140857200D01*
X158412948Y-140666724D02*
X158389139Y-140642915D01*
X158389139Y-140642915D02*
X158365329Y-140595296D01*
X158365329Y-140595296D02*
X158365329Y-140476248D01*
X158365329Y-140476248D02*
X158389139Y-140428629D01*
X158389139Y-140428629D02*
X158412948Y-140404820D01*
X158412948Y-140404820D02*
X158460567Y-140381010D01*
X158460567Y-140381010D02*
X158508186Y-140381010D01*
X158508186Y-140381010D02*
X158579615Y-140404820D01*
X158579615Y-140404820D02*
X158865329Y-140690534D01*
X158865329Y-140690534D02*
X158865329Y-140381010D01*
D11*
X114297813Y-150976791D02*
X114250194Y-151024411D01*
X114250194Y-151024411D02*
X114107337Y-151072030D01*
X114107337Y-151072030D02*
X114012099Y-151072030D01*
X114012099Y-151072030D02*
X113869242Y-151024411D01*
X113869242Y-151024411D02*
X113774004Y-150929172D01*
X113774004Y-150929172D02*
X113726385Y-150833934D01*
X113726385Y-150833934D02*
X113678766Y-150643458D01*
X113678766Y-150643458D02*
X113678766Y-150500601D01*
X113678766Y-150500601D02*
X113726385Y-150310125D01*
X113726385Y-150310125D02*
X113774004Y-150214887D01*
X113774004Y-150214887D02*
X113869242Y-150119649D01*
X113869242Y-150119649D02*
X114012099Y-150072030D01*
X114012099Y-150072030D02*
X114107337Y-150072030D01*
X114107337Y-150072030D02*
X114250194Y-150119649D01*
X114250194Y-150119649D02*
X114297813Y-150167268D01*
X114631147Y-150072030D02*
X115297813Y-150072030D01*
X115297813Y-150072030D02*
X114869242Y-151072030D01*
X115631147Y-150167268D02*
X115678766Y-150119649D01*
X115678766Y-150119649D02*
X115774004Y-150072030D01*
X115774004Y-150072030D02*
X116012099Y-150072030D01*
X116012099Y-150072030D02*
X116107337Y-150119649D01*
X116107337Y-150119649D02*
X116154956Y-150167268D01*
X116154956Y-150167268D02*
X116202575Y-150262506D01*
X116202575Y-150262506D02*
X116202575Y-150357744D01*
X116202575Y-150357744D02*
X116154956Y-150500601D01*
X116154956Y-150500601D02*
X115583528Y-151072030D01*
X115583528Y-151072030D02*
X116202575Y-151072030D01*
X161930691Y-140245454D02*
X161978311Y-140293073D01*
X161978311Y-140293073D02*
X162025930Y-140435930D01*
X162025930Y-140435930D02*
X162025930Y-140531168D01*
X162025930Y-140531168D02*
X161978311Y-140674025D01*
X161978311Y-140674025D02*
X161883072Y-140769263D01*
X161883072Y-140769263D02*
X161787834Y-140816882D01*
X161787834Y-140816882D02*
X161597358Y-140864501D01*
X161597358Y-140864501D02*
X161454501Y-140864501D01*
X161454501Y-140864501D02*
X161264025Y-140816882D01*
X161264025Y-140816882D02*
X161168787Y-140769263D01*
X161168787Y-140769263D02*
X161073549Y-140674025D01*
X161073549Y-140674025D02*
X161025930Y-140531168D01*
X161025930Y-140531168D02*
X161025930Y-140435930D01*
X161025930Y-140435930D02*
X161073549Y-140293073D01*
X161073549Y-140293073D02*
X161121168Y-140245454D01*
X162025930Y-139769263D02*
X162025930Y-139578787D01*
X162025930Y-139578787D02*
X161978311Y-139483549D01*
X161978311Y-139483549D02*
X161930691Y-139435930D01*
X161930691Y-139435930D02*
X161787834Y-139340692D01*
X161787834Y-139340692D02*
X161597358Y-139293073D01*
X161597358Y-139293073D02*
X161216406Y-139293073D01*
X161216406Y-139293073D02*
X161121168Y-139340692D01*
X161121168Y-139340692D02*
X161073549Y-139388311D01*
X161073549Y-139388311D02*
X161025930Y-139483549D01*
X161025930Y-139483549D02*
X161025930Y-139674025D01*
X161025930Y-139674025D02*
X161073549Y-139769263D01*
X161073549Y-139769263D02*
X161121168Y-139816882D01*
X161121168Y-139816882D02*
X161216406Y-139864501D01*
X161216406Y-139864501D02*
X161454501Y-139864501D01*
X161454501Y-139864501D02*
X161549739Y-139816882D01*
X161549739Y-139816882D02*
X161597358Y-139769263D01*
X161597358Y-139769263D02*
X161644977Y-139674025D01*
X161644977Y-139674025D02*
X161644977Y-139483549D01*
X161644977Y-139483549D02*
X161597358Y-139388311D01*
X161597358Y-139388311D02*
X161549739Y-139340692D01*
X161549739Y-139340692D02*
X161454501Y-139293073D01*
X161025930Y-138959739D02*
X161025930Y-138340692D01*
X161025930Y-138340692D02*
X161406882Y-138674025D01*
X161406882Y-138674025D02*
X161406882Y-138531168D01*
X161406882Y-138531168D02*
X161454501Y-138435930D01*
X161454501Y-138435930D02*
X161502120Y-138388311D01*
X161502120Y-138388311D02*
X161597358Y-138340692D01*
X161597358Y-138340692D02*
X161835453Y-138340692D01*
X161835453Y-138340692D02*
X161930691Y-138388311D01*
X161930691Y-138388311D02*
X161978311Y-138435930D01*
X161978311Y-138435930D02*
X162025930Y-138531168D01*
X162025930Y-138531168D02*
X162025930Y-138816882D01*
X162025930Y-138816882D02*
X161978311Y-138912120D01*
X161978311Y-138912120D02*
X161930691Y-138959739D01*
D10*
X156896563Y-140929553D02*
X156872754Y-140953363D01*
X156872754Y-140953363D02*
X156801325Y-140977172D01*
X156801325Y-140977172D02*
X156753706Y-140977172D01*
X156753706Y-140977172D02*
X156682278Y-140953363D01*
X156682278Y-140953363D02*
X156634659Y-140905743D01*
X156634659Y-140905743D02*
X156610849Y-140858124D01*
X156610849Y-140858124D02*
X156587040Y-140762886D01*
X156587040Y-140762886D02*
X156587040Y-140691458D01*
X156587040Y-140691458D02*
X156610849Y-140596220D01*
X156610849Y-140596220D02*
X156634659Y-140548601D01*
X156634659Y-140548601D02*
X156682278Y-140500982D01*
X156682278Y-140500982D02*
X156753706Y-140477172D01*
X156753706Y-140477172D02*
X156801325Y-140477172D01*
X156801325Y-140477172D02*
X156872754Y-140500982D01*
X156872754Y-140500982D02*
X156896563Y-140524791D01*
X157182278Y-140691458D02*
X157134659Y-140667648D01*
X157134659Y-140667648D02*
X157110849Y-140643839D01*
X157110849Y-140643839D02*
X157087040Y-140596220D01*
X157087040Y-140596220D02*
X157087040Y-140572410D01*
X157087040Y-140572410D02*
X157110849Y-140524791D01*
X157110849Y-140524791D02*
X157134659Y-140500982D01*
X157134659Y-140500982D02*
X157182278Y-140477172D01*
X157182278Y-140477172D02*
X157277516Y-140477172D01*
X157277516Y-140477172D02*
X157325135Y-140500982D01*
X157325135Y-140500982D02*
X157348944Y-140524791D01*
X157348944Y-140524791D02*
X157372754Y-140572410D01*
X157372754Y-140572410D02*
X157372754Y-140596220D01*
X157372754Y-140596220D02*
X157348944Y-140643839D01*
X157348944Y-140643839D02*
X157325135Y-140667648D01*
X157325135Y-140667648D02*
X157277516Y-140691458D01*
X157277516Y-140691458D02*
X157182278Y-140691458D01*
X157182278Y-140691458D02*
X157134659Y-140715267D01*
X157134659Y-140715267D02*
X157110849Y-140739077D01*
X157110849Y-140739077D02*
X157087040Y-140786696D01*
X157087040Y-140786696D02*
X157087040Y-140881934D01*
X157087040Y-140881934D02*
X157110849Y-140929553D01*
X157110849Y-140929553D02*
X157134659Y-140953363D01*
X157134659Y-140953363D02*
X157182278Y-140977172D01*
X157182278Y-140977172D02*
X157277516Y-140977172D01*
X157277516Y-140977172D02*
X157325135Y-140953363D01*
X157325135Y-140953363D02*
X157348944Y-140929553D01*
X157348944Y-140929553D02*
X157372754Y-140881934D01*
X157372754Y-140881934D02*
X157372754Y-140786696D01*
X157372754Y-140786696D02*
X157348944Y-140739077D01*
X157348944Y-140739077D02*
X157325135Y-140715267D01*
X157325135Y-140715267D02*
X157277516Y-140691458D01*
X161621080Y-85371015D02*
X161644890Y-85394824D01*
X161644890Y-85394824D02*
X161668699Y-85466253D01*
X161668699Y-85466253D02*
X161668699Y-85513872D01*
X161668699Y-85513872D02*
X161644890Y-85585300D01*
X161644890Y-85585300D02*
X161597270Y-85632919D01*
X161597270Y-85632919D02*
X161549651Y-85656729D01*
X161549651Y-85656729D02*
X161454413Y-85680538D01*
X161454413Y-85680538D02*
X161382985Y-85680538D01*
X161382985Y-85680538D02*
X161287747Y-85656729D01*
X161287747Y-85656729D02*
X161240128Y-85632919D01*
X161240128Y-85632919D02*
X161192509Y-85585300D01*
X161192509Y-85585300D02*
X161168699Y-85513872D01*
X161168699Y-85513872D02*
X161168699Y-85466253D01*
X161168699Y-85466253D02*
X161192509Y-85394824D01*
X161192509Y-85394824D02*
X161216318Y-85371015D01*
X161216318Y-85180538D02*
X161192509Y-85156729D01*
X161192509Y-85156729D02*
X161168699Y-85109110D01*
X161168699Y-85109110D02*
X161168699Y-84990062D01*
X161168699Y-84990062D02*
X161192509Y-84942443D01*
X161192509Y-84942443D02*
X161216318Y-84918634D01*
X161216318Y-84918634D02*
X161263937Y-84894824D01*
X161263937Y-84894824D02*
X161311556Y-84894824D01*
X161311556Y-84894824D02*
X161382985Y-84918634D01*
X161382985Y-84918634D02*
X161668699Y-85204348D01*
X161668699Y-85204348D02*
X161668699Y-84894824D01*
X161668699Y-84418634D02*
X161668699Y-84704348D01*
X161668699Y-84561491D02*
X161168699Y-84561491D01*
X161168699Y-84561491D02*
X161240128Y-84609110D01*
X161240128Y-84609110D02*
X161287747Y-84656729D01*
X161287747Y-84656729D02*
X161311556Y-84704348D01*
D15*
X179890800Y-160820000D02*
X179890800Y-81820000D01*
X87890800Y-81820000D02*
G75*
G02*
X94390800Y-75320000I6500000J0D01*
G01*
X94390800Y-167320000D02*
X173390800Y-167320000D01*
X173390800Y-75320000D02*
X94390800Y-75320000D01*
X179890800Y-160820000D02*
G75*
G02*
X173390800Y-167320000I-6500000J0D01*
G01*
X94390800Y-167320000D02*
G75*
G02*
X87890800Y-160820000I0J6500000D01*
G01*
X87890800Y-81820000D02*
X87890800Y-160820000D01*
X173390800Y-75320000D02*
G75*
G02*
X179890800Y-81820000I0J-6500000D01*
G01*
M02*
