%TF.GenerationSoftware,KiCad,Pcbnew,9.0.7*%
%TF.CreationDate,2026-03-25T15:14:48-04:00*%
%TF.ProjectId,AMSAT_SDR,414d5341-545f-4534-9452-2e6b69636164,WA1CYB-revB*%
%TF.SameCoordinates,Original*%
%TF.FileFunction,Plated,1,12,PTH,Mixed*%
%TF.FilePolarity,Positive*%
%FSLAX46Y46*%
G04 Gerber Fmt 4.6, Leading zero omitted, Abs format (unit mm)*
G04 Created by KiCad (PCBNEW 9.0.7) date 2026-03-25 15:14:48*
%MOMM*%
%LPD*%
G01*
G04 APERTURE LIST*
%TA.AperFunction,ViaDrill*%
%ADD10C,0.150000*%
%TD*%
%TA.AperFunction,ViaDrill*%
%ADD11C,0.200000*%
%TD*%
%TA.AperFunction,ComponentDrill*%
%ADD12C,0.200000*%
%TD*%
%TA.AperFunction,ComponentDrill*%
%ADD13C,0.203200*%
%TD*%
%TA.AperFunction,ViaDrill*%
%ADD14C,0.250000*%
%TD*%
%TA.AperFunction,ViaDrill*%
%ADD15C,0.300000*%
%TD*%
%TA.AperFunction,ComponentDrill*%
%ADD16C,0.300000*%
%TD*%
%TA.AperFunction,ViaDrill*%
%ADD17C,0.400000*%
%TD*%
%TA.AperFunction,ComponentDrill*%
%ADD18C,0.500000*%
%TD*%
G04 aperture for slot hole*
%TA.AperFunction,ComponentDrill*%
%ADD19C,0.650000*%
%TD*%
%TA.AperFunction,ViaDrill*%
%ADD20C,0.700000*%
%TD*%
G04 aperture for slot hole*
%TA.AperFunction,ComponentDrill*%
%ADD21C,0.700000*%
%TD*%
%TA.AperFunction,ComponentDrill*%
%ADD22C,0.700000*%
%TD*%
%TA.AperFunction,ComponentDrill*%
%ADD23C,0.800000*%
%TD*%
%TA.AperFunction,ComponentDrill*%
%ADD24C,0.840000*%
%TD*%
%TA.AperFunction,ComponentDrill*%
%ADD25C,0.850000*%
%TD*%
%TA.AperFunction,ComponentDrill*%
%ADD26C,1.000000*%
%TD*%
%TA.AperFunction,ComponentDrill*%
%ADD27C,3.200000*%
%TD*%
G04 APERTURE END LIST*
D10*
X90230783Y-110730332D03*
X90330800Y-106600000D03*
X90430800Y-110140000D03*
X90914000Y-114630000D03*
X91068305Y-144318800D03*
X91097004Y-139100802D03*
X91410800Y-155260000D03*
X91470800Y-117720000D03*
X92224000Y-92010000D03*
X92260800Y-112195000D03*
X92970800Y-154000000D03*
X93470800Y-112205000D03*
X93480800Y-152310000D03*
X93490800Y-149124826D03*
X93490800Y-149900000D03*
X93490800Y-150660000D03*
X93490800Y-151440000D03*
X93540800Y-138240000D03*
X93540800Y-144405000D03*
X93540800Y-145155000D03*
X93550800Y-142835000D03*
X93550800Y-143505000D03*
X93550800Y-145935000D03*
X93624000Y-136340000D03*
X94510800Y-104765000D03*
X94680800Y-107880000D03*
X94730800Y-116430000D03*
X94730800Y-118130000D03*
X94734000Y-136210000D03*
X94780800Y-120530000D03*
X95350800Y-112240000D03*
X95370800Y-110390000D03*
X96720800Y-106130000D03*
X96734074Y-103759599D03*
X96890800Y-121440000D03*
X96910800Y-117190000D03*
X96920800Y-113790000D03*
X96980800Y-127380000D03*
X97055800Y-98460000D03*
X97650800Y-97080000D03*
X98050800Y-103911473D03*
X98151565Y-106088334D03*
X100300800Y-148910000D03*
X100300800Y-149600000D03*
X100430800Y-144790000D03*
X100430800Y-145470000D03*
X100730800Y-114130000D03*
X100810800Y-137830000D03*
X100817300Y-156533499D03*
X100830800Y-112980000D03*
X101040800Y-98155000D03*
X101202800Y-144000000D03*
X101456800Y-151112000D03*
X101640800Y-143410000D03*
X101760800Y-99815000D03*
X101800800Y-97410000D03*
X102180800Y-111430000D03*
X102180800Y-112230000D03*
X102180800Y-113025000D03*
X102720800Y-96295000D03*
X103080800Y-108930000D03*
X103280800Y-150990000D03*
X103315162Y-157387325D03*
X103324245Y-155761972D03*
X103330800Y-123530000D03*
X103336031Y-156553975D03*
X103357300Y-154373499D03*
X103397300Y-158693499D03*
X103480800Y-111230000D03*
X103480800Y-112630000D03*
X103580800Y-127930000D03*
X103806873Y-157338699D03*
X103880800Y-108930000D03*
X103897655Y-155754711D03*
X103939392Y-156543541D03*
X104065800Y-91895000D03*
X104247300Y-154353499D03*
X104252800Y-161564000D03*
X104277300Y-158703499D03*
X104380800Y-127930000D03*
X104406909Y-157338699D03*
X104448583Y-155800622D03*
X104494494Y-156578194D03*
X104560800Y-102285000D03*
X104590800Y-145190000D03*
X104590800Y-145720000D03*
X104594000Y-146210000D03*
X104600800Y-149220000D03*
X104600800Y-149750000D03*
X104640800Y-144430000D03*
X104680800Y-108930000D03*
X104944000Y-140050000D03*
X105180800Y-127930000D03*
X105190800Y-102305000D03*
X105266800Y-158732000D03*
X105266800Y-160256000D03*
X105420800Y-113720000D03*
X105860800Y-102285000D03*
X105880800Y-107380000D03*
X105930800Y-132705000D03*
X106287300Y-156783499D03*
X106297300Y-155663499D03*
X106337300Y-157623499D03*
X106347300Y-155103499D03*
X106780800Y-118680000D03*
X106997300Y-155103499D03*
X107044800Y-160510000D03*
X107057800Y-161778000D03*
X107060800Y-93255000D03*
X107270414Y-145732534D03*
X107270414Y-146330605D03*
X107270414Y-146970794D03*
X107270414Y-147981619D03*
X107270414Y-148579690D03*
X107270414Y-149219879D03*
X107360800Y-140775000D03*
X107404000Y-154500000D03*
X107410800Y-79965000D03*
X107414000Y-83450000D03*
X107647300Y-157633499D03*
X107740800Y-92455000D03*
X107800800Y-98765000D03*
X107810800Y-94615000D03*
X107824730Y-146350527D03*
X107824730Y-146960791D03*
X107824730Y-148599612D03*
X107824730Y-149209876D03*
X107843824Y-145725273D03*
X107843824Y-147974358D03*
X108170800Y-142880000D03*
X108180800Y-152310000D03*
X108424766Y-146356208D03*
X108424766Y-146966472D03*
X108424766Y-148605293D03*
X108424766Y-149215557D03*
X108443860Y-145730954D03*
X108443860Y-147980039D03*
X108510800Y-142440000D03*
X108560800Y-153410000D03*
X108835800Y-161524000D03*
X108960800Y-142060000D03*
X108970800Y-152880000D03*
X109070946Y-147994254D03*
X109070946Y-148592325D03*
X109070946Y-149232514D03*
X109084049Y-145735166D03*
X109084049Y-146333237D03*
X109084049Y-146973426D03*
X109350800Y-99105000D03*
X109360800Y-142880000D03*
X109360800Y-152270000D03*
X109400800Y-95525000D03*
X109490800Y-94285000D03*
X109625262Y-148612247D03*
X109625262Y-149222511D03*
X109638365Y-146353159D03*
X109638365Y-146963423D03*
X109644356Y-147986993D03*
X109657459Y-145727905D03*
X110225298Y-148617928D03*
X110225298Y-149228192D03*
X110238401Y-146358840D03*
X110238401Y-146969104D03*
X110244392Y-147992674D03*
X110257495Y-145733586D03*
X110310800Y-159745000D03*
X110974000Y-98370000D03*
X111260800Y-154970000D03*
X111280800Y-159755000D03*
X111624000Y-101220000D03*
X111703684Y-101913899D03*
X111714000Y-102440000D03*
X111874000Y-103590000D03*
X111980800Y-95975000D03*
X111980800Y-96865000D03*
X112060800Y-142580000D03*
X112220800Y-159755000D03*
X112355800Y-141210000D03*
X112424000Y-146330000D03*
X112730800Y-78095000D03*
X112895800Y-149695000D03*
X112895800Y-150225000D03*
X112900800Y-145240000D03*
X112900800Y-145770000D03*
X112905800Y-150755000D03*
X113130800Y-112030000D03*
X113180800Y-128730000D03*
X113260800Y-155070000D03*
X113344000Y-106260000D03*
X113504000Y-94300000D03*
X113630800Y-131830000D03*
X113780800Y-112195000D03*
X113804000Y-98900000D03*
X113840800Y-78085000D03*
X114104000Y-106290000D03*
X114140800Y-96865000D03*
X114321500Y-98020000D03*
X114370800Y-112225000D03*
X114580800Y-131830000D03*
X114781694Y-98870240D03*
X114814000Y-106298800D03*
X114880800Y-143790000D03*
X114950800Y-78075000D03*
X115307797Y-98860000D03*
X115454000Y-97220000D03*
X115834000Y-98860000D03*
X116010800Y-78075000D03*
X116214000Y-107170000D03*
X116380800Y-140640000D03*
X117004000Y-151810000D03*
X117020800Y-145490000D03*
X117020800Y-146150000D03*
X117035800Y-150225000D03*
X117035800Y-150795000D03*
X117054000Y-105770000D03*
X117080800Y-130930000D03*
X117120800Y-78085000D03*
X117210800Y-111455000D03*
X117384000Y-99990000D03*
X117404000Y-100700000D03*
X117427800Y-102650000D03*
X117444000Y-101410000D03*
X117620800Y-93975000D03*
X117780800Y-128730000D03*
X117864000Y-111710000D03*
X117880800Y-130930000D03*
X118074000Y-159100000D03*
X118080800Y-107580000D03*
X118200800Y-78065000D03*
X118443835Y-94812366D03*
X118470800Y-96165000D03*
X119190800Y-137315000D03*
X119280800Y-121130000D03*
X119340800Y-78065000D03*
X119350800Y-107530000D03*
X119544000Y-99130000D03*
X120184000Y-99130000D03*
X120430800Y-78065000D03*
X120730800Y-154680000D03*
X120730800Y-155660000D03*
X120844000Y-102680000D03*
X120844000Y-103980000D03*
X120884000Y-101310000D03*
X120974000Y-99970000D03*
X121620087Y-147460114D03*
X121730800Y-127730000D03*
X121930800Y-116680000D03*
X122180800Y-128230000D03*
X122490800Y-80311000D03*
X122500800Y-94775000D03*
X122640800Y-104800000D03*
X122980800Y-115980000D03*
X123320800Y-92676000D03*
X123330800Y-91435000D03*
X123424000Y-97910000D03*
X123593387Y-150175174D03*
X123593387Y-150955174D03*
X123593387Y-151715174D03*
X123593387Y-152490348D03*
X123603387Y-149305174D03*
X123630800Y-143790000D03*
X123630800Y-144570000D03*
X123630800Y-145330000D03*
X123630800Y-146105174D03*
X123640800Y-142920000D03*
X123910800Y-115940000D03*
X124620946Y-161829543D03*
X124620946Y-162439807D03*
X124630524Y-163100116D03*
X124640040Y-161204289D03*
X124715800Y-139845000D03*
X124994000Y-84580000D03*
X125080800Y-117280000D03*
X125180800Y-132330000D03*
X125220800Y-155350000D03*
X125249769Y-161825974D03*
X125249769Y-162436238D03*
X125259347Y-163096547D03*
X125264000Y-85250000D03*
X125268863Y-161200720D03*
X125280800Y-117830000D03*
X125305800Y-139275000D03*
X125324000Y-86540000D03*
X125580800Y-148760000D03*
X125790800Y-158930000D03*
X125800800Y-114125000D03*
X125820800Y-111640000D03*
X125830800Y-112530000D03*
X125830800Y-113280000D03*
X125830800Y-117380000D03*
X125840800Y-107175000D03*
X125898577Y-161832398D03*
X125898577Y-162442662D03*
X125908155Y-163102971D03*
X125917671Y-161207144D03*
X125944000Y-85870000D03*
X126040800Y-120880000D03*
X126130800Y-132530000D03*
X126380800Y-114125000D03*
X126380800Y-127630000D03*
X126380800Y-128280000D03*
X126444000Y-117730000D03*
X126566656Y-161813126D03*
X126566656Y-162423390D03*
X126576234Y-163083699D03*
X126585750Y-161187872D03*
X126830800Y-112980000D03*
X126954000Y-117560000D03*
X127230800Y-132030000D03*
X127370800Y-113335000D03*
X127380800Y-114530000D03*
X127730800Y-112380000D03*
X127930800Y-129430000D03*
X127950800Y-140820000D03*
X128120800Y-89845000D03*
X128210800Y-111090000D03*
X128497350Y-97335000D03*
X128670800Y-140820000D03*
X128880800Y-119780000D03*
X128880800Y-124530000D03*
X128880800Y-128530000D03*
X128880800Y-129480000D03*
X128900800Y-116525000D03*
X129258601Y-83567259D03*
X129270800Y-111100000D03*
X129530800Y-110030000D03*
X129580800Y-148980000D03*
X129630800Y-119780000D03*
X129630800Y-122980000D03*
X129630800Y-125380000D03*
X129680800Y-114980000D03*
X129680800Y-116530000D03*
X129680800Y-118180000D03*
X129680800Y-118980000D03*
X129680800Y-126930000D03*
X129685800Y-139845000D03*
X129744000Y-78860000D03*
X130080800Y-111080000D03*
X130324000Y-104770000D03*
X130430800Y-114980000D03*
X130470800Y-118130000D03*
X130470800Y-120555000D03*
X130470800Y-126165000D03*
X130480800Y-117380000D03*
X130480800Y-119830000D03*
X130480800Y-122930000D03*
X130480800Y-123780000D03*
X130480800Y-125330000D03*
X130504000Y-122160000D03*
X130530800Y-118980000D03*
X130550800Y-89835000D03*
X130664000Y-88590000D03*
X130830800Y-111030000D03*
X131015800Y-150310000D03*
X131080800Y-151195000D03*
X131140800Y-89319000D03*
X131180800Y-129430000D03*
X131230800Y-113380000D03*
X131230800Y-115780000D03*
X131230800Y-116580000D03*
X131230800Y-126930000D03*
X131270800Y-117365000D03*
X131280800Y-114980000D03*
X131280800Y-119730000D03*
X131280800Y-120580000D03*
X131280800Y-122180000D03*
X131280800Y-123730000D03*
X131280800Y-124530000D03*
X131280800Y-128580000D03*
X131330800Y-118180000D03*
X131447587Y-121575842D03*
X131480800Y-96239000D03*
X131700800Y-110375000D03*
X131720800Y-89965000D03*
X131930800Y-129430000D03*
X131954000Y-87840000D03*
X131975277Y-115809648D03*
X132030800Y-114180000D03*
X132030800Y-116630000D03*
X132030800Y-120580000D03*
X132030800Y-124580000D03*
X132030800Y-125380000D03*
X132030800Y-126180000D03*
X132080800Y-114980000D03*
X132080800Y-117330000D03*
X132080800Y-122130000D03*
X132083332Y-121437679D03*
X132104000Y-113360000D03*
X132110800Y-118140000D03*
X132130800Y-118980000D03*
X132160800Y-138980000D03*
X132170800Y-140070000D03*
X132170800Y-142255000D03*
X132180800Y-138440000D03*
X132180800Y-139530000D03*
X132180800Y-140615000D03*
X132180800Y-141150000D03*
X132180800Y-141710000D03*
X132230800Y-110030000D03*
X132284000Y-99830000D03*
X132347350Y-97005000D03*
X132690800Y-129480000D03*
X132710800Y-138270000D03*
X132784000Y-87050000D03*
X132803943Y-122986125D03*
X132830800Y-119780000D03*
X132830800Y-124599998D03*
X132870800Y-137605000D03*
X132880800Y-120580000D03*
X132880800Y-121380000D03*
X132880800Y-126180000D03*
X132880800Y-127780000D03*
X132900800Y-126950000D03*
X132930800Y-118180000D03*
X132930800Y-122130000D03*
X132930828Y-115808305D03*
X132970800Y-104680000D03*
X133004000Y-88540000D03*
X133064000Y-92510000D03*
X133139671Y-111141000D03*
X133140800Y-94845000D03*
X133254000Y-102500000D03*
X133440800Y-129485000D03*
X133504000Y-89170000D03*
X133550800Y-110550000D03*
X133630800Y-138325000D03*
X133680800Y-113380000D03*
X133680800Y-114180000D03*
X133680800Y-114930000D03*
X133680800Y-117330000D03*
X133680800Y-119780000D03*
X133680800Y-122130000D03*
X133680800Y-123730000D03*
X133680800Y-124580000D03*
X133680800Y-126180000D03*
X133744000Y-83710000D03*
X133779823Y-128514177D03*
X133980800Y-130020000D03*
X134280800Y-138325000D03*
X134330800Y-131050000D03*
X134330800Y-131850000D03*
X134420800Y-94785000D03*
X134460800Y-126165000D03*
X134480800Y-115780000D03*
X134480800Y-116580000D03*
X134480800Y-122130000D03*
X134480800Y-123780000D03*
X134530800Y-119780000D03*
X134540800Y-107370000D03*
X134580800Y-110080000D03*
X134680800Y-135565000D03*
X134800800Y-151480000D03*
X134880800Y-110980000D03*
X135070800Y-105260000D03*
X135080800Y-135185000D03*
X135164000Y-129440000D03*
X135230800Y-114130000D03*
X135280800Y-124580000D03*
X135280800Y-128530000D03*
X135320800Y-119740000D03*
X135350800Y-150050000D03*
X135480800Y-134795000D03*
X135694000Y-86280000D03*
X135710800Y-146260000D03*
X135724000Y-84690000D03*
X135730800Y-151850000D03*
X135764000Y-83730000D03*
X135774000Y-78970000D03*
X135810800Y-131170000D03*
X135880800Y-138415000D03*
X135884656Y-129450534D03*
X136070800Y-125360000D03*
X136080800Y-120580000D03*
X136080800Y-122930000D03*
X136080800Y-123780000D03*
X136080800Y-126130000D03*
X136130800Y-118130000D03*
X136130800Y-132740000D03*
X136130800Y-148080000D03*
X136154000Y-114168800D03*
X136240600Y-133313000D03*
X136260800Y-139705000D03*
X136480800Y-121380000D03*
X136520800Y-151850000D03*
X136610800Y-131190000D03*
X136630800Y-111030000D03*
X136730800Y-106590000D03*
X136734000Y-93050000D03*
X136830800Y-116580000D03*
X136830800Y-118180000D03*
X136840800Y-129345000D03*
X136880800Y-114180000D03*
X136880800Y-117380000D03*
X136880800Y-120580000D03*
X136880800Y-122930000D03*
X136880800Y-123780000D03*
X136920800Y-148080000D03*
X136920800Y-150040000D03*
X137090800Y-134615000D03*
X137150800Y-109280000D03*
X137180800Y-133530000D03*
X137230800Y-130850000D03*
X137274000Y-158210000D03*
X137300800Y-102225000D03*
X137330800Y-146280000D03*
X137330800Y-151860000D03*
X137380800Y-110865000D03*
X137464000Y-130320000D03*
X137510800Y-100460000D03*
X137520800Y-101550000D03*
X137570800Y-133165000D03*
X137630800Y-126130000D03*
X137630800Y-126930000D03*
X137650800Y-104380000D03*
X137663000Y-129661200D03*
X137680800Y-113380000D03*
X137680800Y-114980000D03*
X137680800Y-116580000D03*
X137680800Y-118980000D03*
X137680800Y-123780000D03*
X137710800Y-150040000D03*
X137739200Y-128512400D03*
X137757200Y-78340000D03*
X137820800Y-131950000D03*
X137849553Y-160147167D03*
X137856847Y-163391548D03*
X138070800Y-146260000D03*
X138120800Y-151060000D03*
X138120800Y-151860000D03*
X138350800Y-132590000D03*
X138430800Y-118180000D03*
X138430800Y-126130000D03*
X138430800Y-126930000D03*
X138480800Y-119780000D03*
X138480800Y-122980000D03*
X138480800Y-123780000D03*
X138480800Y-127730000D03*
X138512740Y-117339080D03*
X138530800Y-124530000D03*
X138530800Y-148110000D03*
X138620800Y-150080000D03*
X139150800Y-139330000D03*
X139230800Y-122930000D03*
X139250800Y-116575000D03*
X139280800Y-112580000D03*
X139280800Y-118180000D03*
X139280800Y-118980000D03*
X139280800Y-119780000D03*
X139280800Y-122180000D03*
X139280800Y-124530000D03*
X139280800Y-125330000D03*
X139280800Y-126130000D03*
X139280800Y-127730000D03*
X139280800Y-150080000D03*
X139330800Y-121380000D03*
X139330800Y-148090000D03*
X139384000Y-158170000D03*
X139464000Y-160620000D03*
X139474000Y-160160000D03*
X139484000Y-163850000D03*
X139484000Y-164276203D03*
X139494000Y-163390000D03*
X139534000Y-159620000D03*
X139550800Y-140020000D03*
X139554000Y-162870000D03*
X139670800Y-131990000D03*
X139680800Y-129530000D03*
X139720800Y-151870000D03*
X139850800Y-102225000D03*
X139894000Y-103570000D03*
X139929600Y-111675000D03*
X139970800Y-132750000D03*
X140030800Y-126930000D03*
X140030800Y-127730000D03*
X140060800Y-126150000D03*
X140070800Y-119765000D03*
X140080800Y-114180000D03*
X140080800Y-114980000D03*
X140080800Y-118980000D03*
X140080800Y-120580000D03*
X140080800Y-125380000D03*
X140080800Y-128580000D03*
X140080800Y-141210000D03*
X140100800Y-100430000D03*
X140110800Y-150100000D03*
X140120800Y-144820000D03*
X140140800Y-101550000D03*
X140140800Y-122950000D03*
X140150800Y-123815000D03*
X140174000Y-106170000D03*
X140190800Y-131840000D03*
X140480800Y-129530000D03*
X140530800Y-147050000D03*
X140540800Y-151870000D03*
X140570800Y-147980000D03*
X140690800Y-132270000D03*
X140800800Y-135040000D03*
X140830800Y-114980000D03*
X140830800Y-119780000D03*
X140830800Y-123780000D03*
X140830800Y-126980000D03*
X140880800Y-114180000D03*
X140880800Y-118930000D03*
X140880800Y-120580000D03*
X140880800Y-125330000D03*
X140880800Y-127730000D03*
X140880800Y-128580000D03*
X140893999Y-118081998D03*
X140906398Y-122924400D03*
X140930800Y-150100000D03*
X141280800Y-129580000D03*
X141320800Y-147060000D03*
X141330800Y-151890000D03*
X141420800Y-141810000D03*
X141450800Y-135050000D03*
X141450800Y-142345000D03*
X141530800Y-150110000D03*
X141540800Y-132260000D03*
X141630800Y-114180000D03*
X141630800Y-126130000D03*
X141644000Y-111760000D03*
X141670800Y-118935000D03*
X141680800Y-122180000D03*
X141680800Y-126930000D03*
X141730800Y-125430000D03*
X141780800Y-131690000D03*
X142070800Y-102625000D03*
X142110800Y-150120000D03*
X142150800Y-146260000D03*
X142304000Y-87890000D03*
X142314000Y-89230000D03*
X142324000Y-88560000D03*
X142344000Y-89840000D03*
X142350800Y-102175000D03*
X142374000Y-90470000D03*
X142384000Y-91780000D03*
X142400800Y-131900000D03*
X142430800Y-113380000D03*
X142430800Y-127730000D03*
X142460800Y-126950000D03*
X142470800Y-121380000D03*
X142480800Y-118180000D03*
X142480800Y-118930000D03*
X142480800Y-120530000D03*
X142480800Y-122180000D03*
X142480800Y-124580000D03*
X142480800Y-128530000D03*
X142504000Y-115000000D03*
X142596990Y-115819584D03*
X142670800Y-100430000D03*
X142700800Y-101530000D03*
X142730800Y-102605000D03*
X142730800Y-129930000D03*
X142894000Y-162570000D03*
X142900800Y-132150000D03*
X142920800Y-147930000D03*
X142920800Y-151060000D03*
X143040800Y-108370000D03*
X143230800Y-127730000D03*
X143230800Y-128530000D03*
X143260800Y-122180000D03*
X143277874Y-107900229D03*
X143280800Y-115780000D03*
X143280800Y-121380000D03*
X143280800Y-124580000D03*
X143304000Y-160790000D03*
X143314000Y-114890000D03*
X143430800Y-131980000D03*
X143430800Y-134500000D03*
X143710800Y-147940000D03*
X144030800Y-123730000D03*
X144030800Y-126130000D03*
X144030800Y-127730000D03*
X144050800Y-129980000D03*
X144080800Y-117380000D03*
X144080800Y-118980000D03*
X144080800Y-119780000D03*
X144080800Y-122180000D03*
X144080800Y-122980000D03*
X144080800Y-126930000D03*
X144104000Y-112580000D03*
X144105148Y-120508800D03*
X144106807Y-118122700D03*
X144132000Y-111630000D03*
X144140800Y-150070000D03*
X144154000Y-103520000D03*
X144230800Y-132010000D03*
X144530800Y-147070000D03*
X144734000Y-111630000D03*
X144780800Y-129980000D03*
X144830800Y-117380000D03*
X144830800Y-123730000D03*
X144830800Y-127730000D03*
X144870800Y-128570000D03*
X144880800Y-118980000D03*
X144880800Y-121330000D03*
X144880800Y-122980000D03*
X144880800Y-126980000D03*
X144894000Y-114180000D03*
X144920800Y-150040000D03*
X145000800Y-102225000D03*
X145110800Y-100460000D03*
X145240800Y-130660000D03*
X145320800Y-146270000D03*
X145350800Y-147070000D03*
X145730800Y-150050000D03*
X145860800Y-128175000D03*
X145874000Y-113860000D03*
X145950800Y-119795000D03*
X145960800Y-120835000D03*
X145964000Y-111900000D03*
X145980800Y-131940000D03*
X146004000Y-112508800D03*
X146084000Y-156070000D03*
X146120800Y-147070000D03*
X146140800Y-128660000D03*
X146140800Y-151870000D03*
X146160800Y-120315000D03*
X146380800Y-125780000D03*
X146380800Y-126580000D03*
X146426000Y-118454000D03*
X146430800Y-117880000D03*
X146430800Y-124180000D03*
X146520800Y-150080000D03*
X146680800Y-121885000D03*
X146680800Y-137600000D03*
X146720800Y-108390000D03*
X146800800Y-132360000D03*
X146850800Y-134480000D03*
X146930800Y-151870000D03*
X146950800Y-119770000D03*
X147044000Y-84670000D03*
X147050800Y-137050000D03*
X147071164Y-96395605D03*
X147090800Y-113060000D03*
X147100800Y-114090000D03*
X147110800Y-150080000D03*
X147370800Y-125560000D03*
X147378300Y-124030000D03*
X147410800Y-100330000D03*
X147420800Y-137680000D03*
X147540800Y-129080000D03*
X147580800Y-127390000D03*
X147624000Y-83320000D03*
X147680800Y-106010000D03*
X148050800Y-143760000D03*
X148614000Y-95250000D03*
X148734000Y-163780000D03*
X148820800Y-129480000D03*
X148830800Y-130360000D03*
X149004000Y-79760000D03*
X149070800Y-130895000D03*
X149164000Y-159470000D03*
X149290800Y-108340000D03*
X149370800Y-127840000D03*
X149398300Y-124020000D03*
X149400800Y-126220000D03*
X149430800Y-126990000D03*
X149470800Y-107710000D03*
X149580800Y-125180000D03*
X149610800Y-100340000D03*
X149770800Y-125720000D03*
X149840800Y-123350000D03*
X150030800Y-143490000D03*
X150122010Y-145262244D03*
X150250800Y-144270000D03*
X150255186Y-81430673D03*
X150275984Y-82345790D03*
X150288463Y-83260907D03*
X150300941Y-84176024D03*
X150370800Y-118310000D03*
X150370800Y-121360000D03*
X150380800Y-146080000D03*
X150444000Y-163790000D03*
X150510800Y-102250000D03*
X150879809Y-81028244D03*
X150900607Y-81943361D03*
X150913086Y-82858478D03*
X150925564Y-83773595D03*
X150990000Y-154477500D03*
X151128000Y-158422500D03*
X151145500Y-162260000D03*
X151414000Y-163780000D03*
X151478115Y-81436912D03*
X151498913Y-82352029D03*
X151511392Y-83267146D03*
X151523870Y-84182263D03*
X151564000Y-157200000D03*
X152077780Y-81032404D03*
X152098578Y-81947521D03*
X152111057Y-82862638D03*
X152123535Y-83777755D03*
X152200800Y-136543600D03*
X152450800Y-104220000D03*
X152614000Y-153110000D03*
X152620800Y-102340000D03*
X152654000Y-150250000D03*
X152654000Y-151630000D03*
X152699184Y-81430201D03*
X152719982Y-82345318D03*
X152732461Y-83260435D03*
X152744939Y-84175552D03*
X152874000Y-157070000D03*
X153084000Y-142340000D03*
X153180800Y-136513600D03*
X153264000Y-148810000D03*
X153309028Y-81032404D03*
X153320800Y-123125000D03*
X153329826Y-81947521D03*
X153340800Y-124015000D03*
X153342305Y-82862638D03*
X153354783Y-83777755D03*
X153880800Y-102340000D03*
X154110800Y-107862800D03*
X154160800Y-129715000D03*
X154180800Y-132225000D03*
X154244000Y-160334169D03*
X154350800Y-127235000D03*
X154386778Y-99504794D03*
X154424000Y-108770000D03*
X154440800Y-101110000D03*
X154484000Y-110540000D03*
X154690800Y-127965000D03*
X154934000Y-157750000D03*
X154984000Y-96920146D03*
X155110800Y-127425000D03*
X155164000Y-112233600D03*
X155184000Y-118630000D03*
X155204000Y-134530000D03*
X155334000Y-122700000D03*
X155490800Y-126650000D03*
X155593301Y-127900300D03*
X155593301Y-128690300D03*
X155600800Y-127180000D03*
X155810800Y-118350000D03*
X156010316Y-145108290D03*
X156029410Y-144483036D03*
X156069001Y-148449999D03*
X156140010Y-98303610D03*
X156140010Y-98913874D03*
X156149588Y-99574183D03*
X156159104Y-97678356D03*
X156251364Y-138057958D03*
X156273624Y-137198175D03*
X156344000Y-133630000D03*
X156383301Y-122720300D03*
X156534000Y-141480000D03*
X156639139Y-145104721D03*
X156658233Y-144479467D03*
X156664000Y-134600000D03*
X156760800Y-121035000D03*
X156768833Y-98300041D03*
X156768833Y-98910305D03*
X156778411Y-99570614D03*
X156787927Y-97674787D03*
X156834000Y-94910000D03*
X157013761Y-138077435D03*
X157014000Y-112303600D03*
X157039673Y-137184088D03*
X157163301Y-123500300D03*
X157173301Y-129100300D03*
X157183301Y-128300300D03*
X157184000Y-125100000D03*
X157203301Y-127500300D03*
X157417641Y-98306465D03*
X157417641Y-98916729D03*
X157424000Y-155050000D03*
X157427219Y-99577038D03*
X157436735Y-97681211D03*
X157560800Y-121045000D03*
X157674000Y-85650000D03*
X157884000Y-142650000D03*
X157943301Y-131510300D03*
X157950800Y-126715000D03*
X157953301Y-122710300D03*
X157953301Y-123510300D03*
X157953301Y-125110300D03*
X157953301Y-127520300D03*
X157963301Y-124320300D03*
X157963301Y-125900300D03*
X157963301Y-129100300D03*
X157973301Y-128280300D03*
X158050800Y-118515000D03*
X158085720Y-98287193D03*
X158085720Y-98897457D03*
X158095298Y-99557766D03*
X158104814Y-97661939D03*
X158350800Y-121045000D03*
X158414900Y-133899100D03*
X158424000Y-151120000D03*
X158494000Y-82040000D03*
X158693301Y-118430300D03*
X158694000Y-142630000D03*
X158753301Y-130720300D03*
X158763301Y-127500300D03*
X158763301Y-129920300D03*
X158770800Y-123545000D03*
X158773301Y-126710300D03*
X158780800Y-122725000D03*
X158783301Y-124330300D03*
X158803301Y-125900300D03*
X158813301Y-125140300D03*
X158874000Y-93060000D03*
X158900800Y-121055000D03*
X158910800Y-135025000D03*
X158954000Y-114090000D03*
X159044000Y-95260000D03*
X159164000Y-110660000D03*
X159174000Y-80850000D03*
X159434000Y-92520000D03*
X159454000Y-95640000D03*
X159553301Y-128310300D03*
X159553301Y-129920300D03*
X159563301Y-125130300D03*
X159563301Y-126700300D03*
X159563301Y-127500300D03*
X159573301Y-125890300D03*
X159583301Y-122715000D03*
X159583301Y-123510300D03*
X159664000Y-81370000D03*
X159669900Y-133164100D03*
X159775230Y-97003634D03*
X159794000Y-117860000D03*
X159894000Y-134080000D03*
X159914000Y-135330000D03*
X159914000Y-135900000D03*
X160064000Y-79940000D03*
X160114000Y-152420000D03*
X160160800Y-121860000D03*
X160230800Y-121025000D03*
X160254000Y-105770000D03*
X160294000Y-84350000D03*
X160353301Y-125110300D03*
X160353301Y-126700300D03*
X160353301Y-129900300D03*
X160363301Y-128300300D03*
X160373301Y-127530300D03*
X160554000Y-80460000D03*
X160644000Y-95730000D03*
X160644000Y-133340000D03*
X160674000Y-114290000D03*
X160810800Y-121035000D03*
X160854000Y-83590000D03*
X160884000Y-141700000D03*
X161134000Y-144270000D03*
X161153301Y-129900300D03*
X161158299Y-126705300D03*
X161163301Y-122700300D03*
X161163301Y-125130300D03*
X161163301Y-128300300D03*
X161193301Y-123550300D03*
X161193301Y-124330300D03*
X161259063Y-135000150D03*
X161264000Y-149760000D03*
X161344000Y-80330000D03*
X161344000Y-80990000D03*
X161354000Y-110700000D03*
X161404000Y-86040000D03*
X161563301Y-132370300D03*
X161564000Y-87590000D03*
X161564000Y-133520000D03*
X161570800Y-121035000D03*
X161574000Y-134090000D03*
X161594000Y-137400000D03*
X161634000Y-93170000D03*
X161920800Y-124325000D03*
X161933301Y-129100300D03*
X161943301Y-127500300D03*
X161953301Y-126680300D03*
X161953301Y-128310300D03*
X161953301Y-130700300D03*
X161960800Y-123485000D03*
X161963301Y-125120300D03*
X161964000Y-82040000D03*
X162076500Y-162222500D03*
X162086500Y-158412500D03*
X162324000Y-142670000D03*
X162374000Y-135300000D03*
X162554000Y-106520000D03*
X162734000Y-146800000D03*
X162743301Y-128320300D03*
X162753301Y-122720300D03*
X162753301Y-125110300D03*
X162753301Y-129090300D03*
X162760800Y-121965000D03*
X162763301Y-123480300D03*
X162763301Y-130710300D03*
X162773301Y-125890300D03*
X162780800Y-124285000D03*
X162844000Y-133030000D03*
X163004000Y-91250000D03*
X163084000Y-102800000D03*
X163126234Y-80865959D03*
X163270800Y-121425000D03*
X163553301Y-122700300D03*
X163553301Y-124290300D03*
X163553301Y-128290300D03*
X163563301Y-127500300D03*
X163563301Y-130700300D03*
X163573301Y-123500300D03*
X163573301Y-125110300D03*
X163573301Y-125890300D03*
X163573301Y-129090300D03*
X163644000Y-82540000D03*
X163654000Y-145680000D03*
X163694000Y-139960000D03*
X163750800Y-121125000D03*
X164214000Y-133120000D03*
X164254000Y-115470000D03*
X164264000Y-114790000D03*
X164304000Y-100450000D03*
X164313301Y-129860300D03*
X164343301Y-128300300D03*
X164354000Y-135110000D03*
X164363301Y-127500300D03*
X164363301Y-129110300D03*
X164373301Y-130710300D03*
X164374000Y-148130000D03*
X164524000Y-79580000D03*
X164564000Y-90340000D03*
X164644000Y-106500000D03*
X164783301Y-121170300D03*
X164804000Y-157470000D03*
X164834000Y-133110000D03*
X165143301Y-127490300D03*
X165163301Y-129900300D03*
X165364000Y-142680000D03*
X165424000Y-106630000D03*
X165424000Y-114760000D03*
X166074000Y-88060000D03*
X166124000Y-157673600D03*
X166234000Y-139960000D03*
X166284243Y-138579757D03*
X166323301Y-127910300D03*
X166404000Y-112450000D03*
X166423301Y-125510300D03*
X166424000Y-132990000D03*
X166434000Y-92860000D03*
X166693301Y-123840300D03*
X166693301Y-124730300D03*
X166723301Y-126310300D03*
X166724000Y-105970000D03*
X166804000Y-137790000D03*
X166840800Y-115301401D03*
X166877986Y-127326092D03*
X166904000Y-113640000D03*
X166934000Y-122310000D03*
X166974000Y-117410000D03*
X167354000Y-106760000D03*
X167364000Y-157490000D03*
X167404000Y-141020000D03*
X167484000Y-145430000D03*
X167494000Y-119750000D03*
X167564000Y-108290000D03*
X167617594Y-103839569D03*
X167617594Y-104449833D03*
X167627172Y-105110142D03*
X167636688Y-103214315D03*
X167664000Y-132930000D03*
X167844000Y-126990000D03*
X168183301Y-128020300D03*
X168194000Y-129820000D03*
X168233801Y-121759801D03*
X168246417Y-103836000D03*
X168246417Y-104446264D03*
X168254000Y-124200000D03*
X168255995Y-105106573D03*
X168264000Y-141060000D03*
X168265511Y-103210746D03*
X168304000Y-110300000D03*
X168304000Y-144430000D03*
X168444000Y-130870000D03*
X168524000Y-125870000D03*
X168574000Y-124700000D03*
X168593301Y-122990300D03*
X168604000Y-142360000D03*
X168630800Y-122210000D03*
X168674000Y-135640000D03*
X168895225Y-103842424D03*
X168895225Y-104452688D03*
X168904803Y-105112997D03*
X168914319Y-103217170D03*
X169124000Y-112260000D03*
X169464000Y-109500000D03*
X169504000Y-138780000D03*
X169563304Y-103823152D03*
X169563304Y-104433416D03*
X169572882Y-105093725D03*
X169582398Y-103197898D03*
X169614000Y-99130000D03*
X169804000Y-87570000D03*
X170154000Y-108450000D03*
X170330800Y-163720000D03*
X170494000Y-138800000D03*
X170814000Y-111070000D03*
X171294000Y-117520000D03*
X171354000Y-107040000D03*
X171764000Y-118830000D03*
X171834000Y-120610000D03*
X172064000Y-124030000D03*
X172104000Y-138940000D03*
X172214182Y-90074456D03*
X172237521Y-88983351D03*
X172244000Y-130630000D03*
X172384000Y-116300000D03*
X172410011Y-95942513D03*
X172433350Y-94851408D03*
X172489876Y-89518693D03*
X172531499Y-108442499D03*
X172621501Y-105967499D03*
X172644000Y-144300000D03*
X172685705Y-95386750D03*
X172724000Y-141040000D03*
X172733171Y-90074090D03*
X172756510Y-88982985D03*
X172929000Y-95942147D03*
X172952339Y-94851042D03*
X173008865Y-89518327D03*
X173064626Y-111592499D03*
X173104000Y-130630000D03*
X173204694Y-95386384D03*
X173266081Y-90077980D03*
X173289420Y-88986875D03*
X173461910Y-95946037D03*
X173474000Y-122830000D03*
X173485249Y-94854932D03*
X173541775Y-89522217D03*
X173737604Y-95390274D03*
X173744533Y-90076035D03*
X173767872Y-88984930D03*
X173940362Y-95944092D03*
X173963701Y-94852987D03*
X174020227Y-89520272D03*
X174144000Y-124800000D03*
X174164000Y-120590000D03*
X174216056Y-95388329D03*
X174256049Y-90075062D03*
X174279388Y-88983957D03*
X174451878Y-95943119D03*
X174475217Y-94852014D03*
X174484000Y-150120000D03*
X174531743Y-89519299D03*
X174604000Y-132440000D03*
X174727572Y-95387356D03*
X174804000Y-111290000D03*
X174824000Y-129000000D03*
X175060276Y-89538353D03*
X175191559Y-95393556D03*
X175464000Y-112340000D03*
X175538728Y-89536408D03*
X175670011Y-95391611D03*
X175684000Y-108800000D03*
X175724000Y-127760000D03*
X176050244Y-89535435D03*
X176144000Y-133400000D03*
X176181527Y-95390638D03*
X176764000Y-115770000D03*
X177044000Y-150140000D03*
X177074000Y-133660000D03*
X177284000Y-108890000D03*
X177294000Y-120700000D03*
X177404000Y-117390000D03*
X177454000Y-123530000D03*
X177484000Y-128340000D03*
D11*
X91100800Y-105025000D03*
X95344000Y-130240000D03*
X97420800Y-112435000D03*
X99530800Y-131830000D03*
X99680800Y-129880000D03*
X100230800Y-130930000D03*
X100530800Y-131830000D03*
X100980800Y-133380000D03*
X101180800Y-104980000D03*
X101330800Y-131830000D03*
X101680800Y-106915000D03*
X101780800Y-129280000D03*
X101780800Y-130380000D03*
X102080800Y-114530000D03*
X102180800Y-107930000D03*
X102180800Y-108930000D03*
X102180800Y-110480000D03*
X102180800Y-115680000D03*
X102680800Y-126930000D03*
X102780800Y-134630000D03*
X103080800Y-107930000D03*
X103080800Y-110530000D03*
X103080800Y-115580000D03*
X103160800Y-131020000D03*
X103530800Y-133530000D03*
X103580800Y-126930000D03*
X103730800Y-134630000D03*
X103880800Y-110480000D03*
X103880800Y-114530000D03*
X103920800Y-107930000D03*
X103930800Y-115580000D03*
X104380800Y-129630000D03*
X104380800Y-133530000D03*
X104380800Y-134630000D03*
X104480800Y-126930000D03*
X104680800Y-114580000D03*
X104680800Y-115580000D03*
X104740800Y-107960000D03*
X105180800Y-129630000D03*
X105180800Y-133530000D03*
X105180800Y-134630000D03*
X105190800Y-136295000D03*
X105280800Y-126930000D03*
X105500800Y-114505000D03*
X105530800Y-115580000D03*
X105980800Y-111830000D03*
X105980800Y-134630000D03*
X106030800Y-103180000D03*
X106030800Y-133530000D03*
X106280800Y-108930000D03*
X106280800Y-109730000D03*
X106780800Y-127880000D03*
X106790800Y-128720000D03*
X107060800Y-108900000D03*
X107080800Y-109730000D03*
X107080800Y-110630000D03*
X107080800Y-114530000D03*
X107310000Y-112840600D03*
X107510800Y-116375000D03*
X107530800Y-129900000D03*
X107580800Y-131930000D03*
X107580800Y-133530000D03*
X107630800Y-127930000D03*
X107730800Y-103230000D03*
X107730800Y-107430000D03*
X107830800Y-114530000D03*
X107880800Y-110630000D03*
X107995800Y-112891400D03*
X108030800Y-108980000D03*
X108080800Y-126480000D03*
X108380800Y-129630000D03*
X108410800Y-133560000D03*
X108420800Y-131940000D03*
X108430800Y-127910000D03*
X108430800Y-132730000D03*
X108680800Y-102380000D03*
X108680800Y-108930000D03*
X108680800Y-113730000D03*
X108680800Y-114530000D03*
X108780800Y-130430000D03*
X109180800Y-133530000D03*
X109250800Y-127950000D03*
X109480800Y-107930000D03*
X109480800Y-109730000D03*
X109480800Y-115630000D03*
X109830800Y-131830000D03*
X109930800Y-126930000D03*
X109980800Y-128730000D03*
X109980800Y-134630000D03*
X110002400Y-118631800D03*
X110002400Y-119190600D03*
X110230800Y-113730000D03*
X110230800Y-114480000D03*
X110280800Y-107930000D03*
X110280800Y-108930000D03*
X110280800Y-109780000D03*
X110280800Y-110630000D03*
X110280800Y-115630000D03*
X110330800Y-112930000D03*
X110680800Y-126930000D03*
X110780800Y-127930000D03*
X110780800Y-128730000D03*
X110780800Y-129630000D03*
X110780800Y-131830000D03*
X110780800Y-132730000D03*
X110780800Y-133530000D03*
X110780800Y-134630000D03*
X111080800Y-107930000D03*
X111080800Y-108930000D03*
X111080800Y-109730000D03*
X111080800Y-110630000D03*
X111080800Y-114530000D03*
X111080800Y-115630000D03*
X111120000Y-113704200D03*
X111580800Y-127930000D03*
X111580800Y-128730000D03*
X111580800Y-129630000D03*
X111580800Y-132730000D03*
X111580800Y-133530000D03*
X111580800Y-134630000D03*
X111630800Y-126880000D03*
X111830800Y-114530000D03*
X111880800Y-107930000D03*
X111880800Y-108930000D03*
X111880800Y-110830000D03*
X111880800Y-115630000D03*
X112164000Y-104490000D03*
X112230800Y-131830000D03*
X112380800Y-127930000D03*
X112380800Y-133530000D03*
X112380800Y-134630000D03*
X112530800Y-126880000D03*
X112580800Y-107930000D03*
X112630800Y-114530000D03*
X112680800Y-108930000D03*
X113080800Y-115630000D03*
X113180800Y-127930000D03*
X113180800Y-133530000D03*
X113230800Y-126880000D03*
X113380800Y-107930000D03*
X113480800Y-109730000D03*
X113480800Y-110730000D03*
X113580800Y-134630000D03*
X113824000Y-104470000D03*
X113880800Y-115630000D03*
X113980800Y-128730000D03*
X113980800Y-129730000D03*
X114030800Y-126880000D03*
X114280800Y-107930000D03*
X114380800Y-134630000D03*
X114830800Y-126880000D03*
X115180800Y-107930000D03*
X115180800Y-114630000D03*
X115180800Y-115530000D03*
X115680800Y-133530000D03*
X115680800Y-134530000D03*
X115730800Y-126880000D03*
X115904000Y-106370000D03*
X119830800Y-126530000D03*
X120630800Y-121180000D03*
X120930800Y-122830000D03*
X121830800Y-126530000D03*
X122830800Y-122030000D03*
X122880800Y-126530000D03*
X123080800Y-130130000D03*
X124084800Y-121526000D03*
X124084800Y-122326000D03*
X124330800Y-129980000D03*
X124630800Y-116280000D03*
X126250800Y-115175000D03*
X127470800Y-117295000D03*
X127480800Y-118630000D03*
X127480800Y-125730000D03*
X127480800Y-126930000D03*
X127530800Y-119530000D03*
X127710800Y-113765000D03*
X127800800Y-121690000D03*
X128080800Y-122980000D03*
X128630800Y-104780000D03*
X128790800Y-135510000D03*
X128880800Y-122130000D03*
X128980800Y-122980000D03*
X129017671Y-119053801D03*
X129630800Y-122180000D03*
X129680800Y-121380000D03*
X129730800Y-124580000D03*
X130030800Y-130030000D03*
X130450800Y-131525000D03*
X130480800Y-112530000D03*
X130520800Y-116540000D03*
X131080800Y-130030000D03*
X131270800Y-122925000D03*
X131280800Y-114130000D03*
X131280800Y-127780000D03*
X131680800Y-111030000D03*
X132080800Y-119730000D03*
X132230800Y-104780000D03*
X132880800Y-114930000D03*
X132880800Y-117330000D03*
X132880800Y-125330000D03*
X132914000Y-113310000D03*
X133680800Y-112530000D03*
X133680800Y-118935000D03*
X133700800Y-118190000D03*
X134170800Y-129495000D03*
X134440800Y-128540000D03*
X134550800Y-134890000D03*
X134580800Y-118880000D03*
X134800800Y-145245000D03*
X134890800Y-152890000D03*
X135280800Y-114930000D03*
X135280800Y-115780000D03*
X135280800Y-126180000D03*
X135680800Y-111030000D03*
X135690800Y-152890000D03*
X135700800Y-145245000D03*
X136080800Y-115780000D03*
X136080800Y-118980000D03*
X136490800Y-152890000D03*
X136680800Y-145245000D03*
X136880800Y-113330000D03*
X136880800Y-115730000D03*
X137290800Y-152890000D03*
X137300800Y-145245000D03*
X137640800Y-127745000D03*
X137854000Y-165030000D03*
X138080800Y-130030000D03*
X138090800Y-152890000D03*
X138440800Y-125330000D03*
X138480800Y-133985000D03*
X138900800Y-146230000D03*
X139210800Y-126940000D03*
X139270800Y-123735000D03*
X139280800Y-114130000D03*
X139330800Y-128535000D03*
X139334000Y-111340000D03*
X139434000Y-161120000D03*
X139730800Y-146260000D03*
X140080800Y-116530000D03*
X140080800Y-118130000D03*
X140080800Y-121405000D03*
X140280800Y-108130000D03*
X140530800Y-146260000D03*
X140870800Y-115765000D03*
X140879378Y-113300448D03*
X140880800Y-126130000D03*
X141350800Y-146260000D03*
X141650800Y-119745000D03*
X141661284Y-122980000D03*
X141680800Y-112580000D03*
X141680800Y-127780000D03*
X141690800Y-120595000D03*
X142110800Y-145210000D03*
X142150800Y-153020000D03*
X142240800Y-129405000D03*
X142450800Y-125370000D03*
X142480800Y-117330000D03*
X142480800Y-122980000D03*
X142510800Y-126160000D03*
X142790800Y-145240000D03*
X142880800Y-111030000D03*
X142920800Y-151880000D03*
X142950800Y-153020000D03*
X143230800Y-114180000D03*
X143680800Y-111030000D03*
X143710800Y-145200000D03*
X143750800Y-153020000D03*
X144060800Y-124485000D03*
X144065798Y-128555000D03*
X144070800Y-125345000D03*
X144080800Y-114130000D03*
X144080800Y-115780000D03*
X144080800Y-121395000D03*
X144510800Y-151060000D03*
X144530800Y-146260000D03*
X144530800Y-151870000D03*
X144540800Y-145240000D03*
X144550800Y-153020000D03*
X144680800Y-111030000D03*
X144880800Y-115780000D03*
X144880800Y-118180000D03*
X145310800Y-151850000D03*
X145340800Y-145240000D03*
X145750800Y-153020000D03*
X146040800Y-129185000D03*
X146080800Y-145220000D03*
X146130800Y-147900000D03*
X146360800Y-111110000D03*
X146380800Y-115380000D03*
X146380800Y-127360000D03*
X146550800Y-153020000D03*
X146610800Y-119330000D03*
X146810800Y-123105000D03*
X146940800Y-145240000D03*
X147090800Y-124630000D03*
X147130800Y-121580000D03*
X147150800Y-122160000D03*
X147850800Y-152020000D03*
X147850800Y-152920000D03*
X147950800Y-145240000D03*
X150490800Y-111830000D03*
X150914000Y-160320000D03*
X151330800Y-111850000D03*
X151750800Y-108580000D03*
X162174000Y-152000000D03*
D12*
%TO.C,U15*%
X113596500Y-100715000D03*
X113596500Y-101690000D03*
X113596500Y-102665000D03*
X114571500Y-100715000D03*
X114571500Y-101690000D03*
X114571500Y-102665000D03*
X115546500Y-100715000D03*
X115546500Y-101690000D03*
X115546500Y-102665000D03*
D13*
%TO.C,IC4*%
X159288999Y-85080001D03*
X159288999Y-86179999D03*
%TD*%
D14*
X88451233Y-95532056D03*
X88453123Y-93045454D03*
X88462249Y-138007311D03*
X88462829Y-113049337D03*
X88463409Y-145541520D03*
X88469206Y-133001511D03*
X88471103Y-85521860D03*
X88471719Y-103021407D03*
X88472685Y-110521023D03*
X88473458Y-105510972D03*
X88473845Y-143016009D03*
X88478676Y-98005172D03*
X88481382Y-108028463D03*
X88483121Y-128006148D03*
X88483121Y-130524702D03*
X88483121Y-148008474D03*
X88485440Y-90527878D03*
X88485634Y-100523726D03*
X88490078Y-157185773D03*
X88493354Y-135541428D03*
X88493557Y-118010203D03*
X88494717Y-88018600D03*
X88494717Y-140532242D03*
X88497036Y-155529928D03*
X88503993Y-123019481D03*
X88511741Y-125530992D03*
X88513270Y-120533685D03*
X88517908Y-153021230D03*
X88527184Y-115511362D03*
X88535098Y-150530992D03*
X89330800Y-88510000D03*
X89333936Y-86792492D03*
X89350800Y-84790000D03*
X89470800Y-108430000D03*
X89520800Y-158050000D03*
X89570800Y-155390000D03*
X90367856Y-86047056D03*
X90670800Y-159960000D03*
X90730800Y-83580000D03*
X90820800Y-158670000D03*
X90874205Y-89506697D03*
X90909426Y-91866537D03*
X90909426Y-93064067D03*
X91000471Y-124375467D03*
X91027866Y-129404313D03*
X91031779Y-121792558D03*
X91031779Y-126833145D03*
X91047433Y-119256611D03*
X91098308Y-131940260D03*
X91098308Y-134358802D03*
X91104395Y-146611891D03*
X91121789Y-136894749D03*
X91190928Y-141871559D03*
X91480800Y-85000000D03*
X91900800Y-157700000D03*
X92820800Y-85820000D03*
X93490800Y-157040000D03*
X94540800Y-86120000D03*
X95290800Y-157040000D03*
X95940800Y-164910000D03*
X96029856Y-77663221D03*
X96520800Y-85750000D03*
X96720800Y-155570000D03*
X96774800Y-165950000D03*
X96930555Y-75936259D03*
X97270800Y-78820000D03*
X97550800Y-163920000D03*
X97666800Y-76884165D03*
X97766063Y-166770000D03*
X97790800Y-165950000D03*
X98020800Y-84440000D03*
X98180800Y-159070000D03*
X98320800Y-80660000D03*
X98500800Y-162370000D03*
X98630800Y-82360000D03*
X98720898Y-165937328D03*
X98760800Y-160720000D03*
X98930800Y-76890000D03*
X99174000Y-87860000D03*
X99244000Y-90620000D03*
X99422719Y-166732848D03*
X99430555Y-75936259D03*
X99594000Y-78670000D03*
X99634000Y-80660000D03*
X100294000Y-90600000D03*
X100572608Y-76877817D03*
X100661993Y-165958200D03*
X100874000Y-83050000D03*
X101922719Y-166732848D03*
X101930555Y-75936259D03*
X103061593Y-76877817D03*
X103145760Y-165979072D03*
X103774000Y-79650000D03*
X104422719Y-166732848D03*
X104430555Y-75936259D03*
X105274000Y-84000000D03*
X105304000Y-88020000D03*
X105374000Y-89990000D03*
X105593001Y-165973854D03*
X105644502Y-76948260D03*
X106504457Y-78222684D03*
X106922719Y-166732848D03*
X106930555Y-75936259D03*
X108081986Y-165958200D03*
X108325538Y-78179201D03*
X109422719Y-166732848D03*
X109430555Y-75936259D03*
X109925724Y-78153763D03*
X110508355Y-166020816D03*
X111564176Y-78153763D03*
X111922719Y-166732848D03*
X111930555Y-75936259D03*
X113284330Y-166020816D03*
X114422719Y-166732848D03*
X114430555Y-75936259D03*
X115705481Y-165989508D03*
X116922719Y-166732848D03*
X116930555Y-75936259D03*
X118272736Y-166010380D03*
X119422719Y-166732848D03*
X119430555Y-75936259D03*
X120659970Y-166036470D03*
X121922719Y-166732848D03*
X121930555Y-75936259D03*
X122108590Y-77959247D03*
X123084000Y-159950000D03*
X123094000Y-164220000D03*
X123122865Y-166036470D03*
X123548758Y-77904458D03*
X123834000Y-110030000D03*
X124422719Y-166732848D03*
X124430555Y-75936259D03*
X125734000Y-110220000D03*
X125771625Y-77967074D03*
X125784044Y-166046906D03*
X126922719Y-166732848D03*
X126930555Y-75936259D03*
X128106053Y-166031252D03*
X128244956Y-77951420D03*
X129422719Y-166732848D03*
X129430555Y-75936259D03*
X130720270Y-166046906D03*
X130874827Y-77873150D03*
X131814000Y-160750000D03*
X131884000Y-162870000D03*
X131922719Y-166732848D03*
X131930555Y-75936259D03*
X133193601Y-166062560D03*
X133434255Y-77849669D03*
X134422719Y-166732848D03*
X134430555Y-75936259D03*
X135334000Y-163180000D03*
X135344000Y-160260000D03*
X135619970Y-166046906D03*
X135758873Y-77943593D03*
X136464000Y-161690000D03*
X136922719Y-166732848D03*
X136930555Y-75936259D03*
X137968000Y-76860000D03*
X138108955Y-166046906D03*
X138984000Y-76860000D03*
X139422719Y-166732848D03*
X139430555Y-75936259D03*
X139904000Y-162294000D03*
X140056000Y-76920000D03*
X140434000Y-158560000D03*
X140660556Y-166078214D03*
X141314800Y-76920000D03*
X141544000Y-107580000D03*
X141641850Y-108249086D03*
X141922719Y-166732848D03*
X141930555Y-75936259D03*
X142330800Y-76920000D03*
X143167370Y-166115827D03*
X143359856Y-76993221D03*
X143694000Y-162190000D03*
X144254000Y-160870000D03*
X144422719Y-166732848D03*
X144430555Y-75936259D03*
X144462855Y-86265906D03*
X144472855Y-87915906D03*
X144672000Y-80800000D03*
X144696000Y-79310000D03*
X144706000Y-78060000D03*
X144709856Y-76953221D03*
X145644000Y-82060000D03*
X145644179Y-166108870D03*
X145688000Y-80800000D03*
X145712000Y-79310000D03*
X145722000Y-78060000D03*
X145725175Y-86319198D03*
X145735175Y-87969198D03*
X145787791Y-89559575D03*
X145850407Y-90780587D03*
X146120856Y-76903056D03*
X146704000Y-80800000D03*
X146728000Y-79310000D03*
X146738000Y-78060000D03*
X146922719Y-166732848D03*
X146930555Y-75936259D03*
X146944000Y-86240000D03*
X146954000Y-87890000D03*
X146974000Y-89580000D03*
X147084000Y-91460000D03*
X147390856Y-76903056D03*
X147744000Y-79310000D03*
X147754000Y-78060000D03*
X147849696Y-93075464D03*
X147974000Y-87873056D03*
X147993056Y-91443056D03*
X148004000Y-86230000D03*
X148024000Y-89570000D03*
X148211434Y-166129742D03*
X148533856Y-76903056D03*
X148624000Y-78040000D03*
X148776000Y-86240000D03*
X148786000Y-87890000D03*
X148806000Y-89580000D03*
X148916000Y-91460000D03*
X148927400Y-93026638D03*
X149422719Y-166732848D03*
X149430555Y-75936259D03*
X149484000Y-78070000D03*
X149484000Y-79310000D03*
X149792000Y-86240000D03*
X149802000Y-87890000D03*
X149822000Y-89580000D03*
X149913437Y-94153538D03*
X149932000Y-91460000D03*
X149943400Y-93026638D03*
X150057856Y-76903056D03*
X150374000Y-78050000D03*
X150374000Y-79290000D03*
X150700419Y-166140178D03*
X150808000Y-86240000D03*
X150818000Y-87890000D03*
X150838000Y-89580000D03*
X150929437Y-94153538D03*
X150948000Y-91460000D03*
X150959400Y-93026638D03*
X150983992Y-95153661D03*
X151283056Y-78033056D03*
X151283056Y-79273056D03*
X151454856Y-76903056D03*
X151824000Y-86240000D03*
X151834000Y-87890000D03*
X151854000Y-89580000D03*
X151922719Y-166732848D03*
X151930555Y-75936259D03*
X151945437Y-94153538D03*
X151964000Y-91460000D03*
X151975400Y-93026638D03*
X152206000Y-78050000D03*
X152206000Y-79290000D03*
X152772258Y-95529296D03*
X152961437Y-94153538D03*
X152978856Y-76903056D03*
X153205058Y-166150614D03*
X153222000Y-78050000D03*
X153222000Y-79290000D03*
X153736440Y-94290487D03*
X154100800Y-76940000D03*
X154238000Y-78050000D03*
X154238000Y-79290000D03*
X154422719Y-166732848D03*
X154430555Y-75936259D03*
X154625128Y-94141191D03*
X154641649Y-92852907D03*
X154644780Y-89096574D03*
X154651040Y-87894548D03*
X154651040Y-90279819D03*
X154651040Y-91556973D03*
X154990800Y-76920000D03*
X155254000Y-78050000D03*
X155254000Y-79290000D03*
X155641128Y-94141191D03*
X155657649Y-92852907D03*
X155660780Y-89096574D03*
X155667040Y-87894548D03*
X155667040Y-90279819D03*
X155667040Y-91556973D03*
X155709697Y-166140178D03*
X155899856Y-76903056D03*
X156186000Y-78110000D03*
X156193104Y-81213063D03*
X156226000Y-79300000D03*
X156585432Y-80393973D03*
X156587871Y-92921646D03*
X156644000Y-93820000D03*
X156822800Y-76920000D03*
X156922719Y-166732848D03*
X156930555Y-75936259D03*
X157202000Y-78110000D03*
X157209104Y-81213063D03*
X157242000Y-79300000D03*
X157601432Y-80393973D03*
X157673546Y-84330466D03*
X157682937Y-83043922D03*
X157838800Y-76920000D03*
X158218000Y-78110000D03*
X158225104Y-81213063D03*
X158258000Y-79300000D03*
X158323914Y-166155832D03*
X158617432Y-80393973D03*
X158854800Y-76920000D03*
X159234000Y-78110000D03*
X159274000Y-79300000D03*
X159422719Y-166732848D03*
X159430555Y-75936259D03*
X159870800Y-76920000D03*
X159901840Y-82979423D03*
X160682450Y-166155832D03*
X160746800Y-76854165D03*
X161922719Y-166732848D03*
X161930555Y-75936259D03*
X162010800Y-76860000D03*
X163228833Y-166176704D03*
X163280800Y-76860000D03*
X164296800Y-76860000D03*
X164422719Y-166732848D03*
X164430555Y-75936259D03*
X164702246Y-93921379D03*
X164702246Y-94666973D03*
X165723036Y-166166268D03*
X166084000Y-152090000D03*
X166634000Y-101950000D03*
X166922719Y-166732848D03*
X166930555Y-75936259D03*
X167814000Y-152090000D03*
X168225066Y-166179313D03*
X169422719Y-166732848D03*
X169430555Y-75936259D03*
X169470800Y-82930000D03*
X169529565Y-164874813D03*
X169650800Y-162360000D03*
X169700800Y-76820000D03*
X169890800Y-80270000D03*
X170010800Y-84380000D03*
X170750800Y-165800000D03*
X170764000Y-101950000D03*
X170780800Y-157900000D03*
X170820374Y-75916691D03*
X170880800Y-85410000D03*
X170890800Y-78920000D03*
X171139856Y-77157056D03*
X171647856Y-164787056D03*
X172204000Y-110870000D03*
X172409856Y-78173056D03*
X172480800Y-157070000D03*
X172930800Y-86280000D03*
X174550800Y-157000000D03*
X174800800Y-86080000D03*
X176140800Y-157780000D03*
X176290800Y-85180000D03*
X177235856Y-83507056D03*
X177330800Y-159750000D03*
X177469456Y-85909312D03*
X177977342Y-157628411D03*
X177997856Y-84777056D03*
X178393042Y-106045566D03*
X178445222Y-108571077D03*
X178450568Y-147289491D03*
X178450568Y-149745429D03*
X178450568Y-152194031D03*
X178450568Y-154872604D03*
X178466094Y-114673525D03*
X178474000Y-129580000D03*
X178494000Y-92090000D03*
X178506200Y-90056800D03*
X178506200Y-110072000D03*
X178506200Y-112104000D03*
X178513056Y-117232953D03*
X178518274Y-87208593D03*
X178518274Y-96303564D03*
X178520800Y-94290000D03*
X178528710Y-102309479D03*
X178531600Y-97499000D03*
X178545813Y-139706871D03*
X178549582Y-88570491D03*
X178550452Y-134828043D03*
X178550452Y-137270066D03*
X178556249Y-142357614D03*
X178557000Y-100420000D03*
X178562627Y-122163962D03*
X178570454Y-107256141D03*
X178581760Y-132245134D03*
X178584196Y-144676396D03*
X178593935Y-127507192D03*
X178600974Y-124674974D03*
X179189272Y-157959026D03*
X179269858Y-123595047D03*
X179290730Y-91056490D03*
X179308137Y-96007926D03*
X179321461Y-153565471D03*
X179328418Y-151037641D03*
X179333056Y-148572427D03*
X179335375Y-156017931D03*
X179336274Y-86077374D03*
X179336739Y-103565906D03*
X179340800Y-84884890D03*
X179340800Y-88559739D03*
X179340800Y-93544451D03*
X179340800Y-98544260D03*
X179340800Y-101083685D03*
X179340800Y-106005610D03*
X179340800Y-108563975D03*
X179340800Y-111051350D03*
X179340800Y-113547099D03*
X179340800Y-116076389D03*
X179340800Y-118517725D03*
X179340800Y-121056378D03*
X179340800Y-126038213D03*
X179340800Y-128544012D03*
X179340800Y-131081118D03*
X179340800Y-133548651D03*
X179340800Y-136055610D03*
X179340800Y-138574163D03*
X179340800Y-141053292D03*
X179340800Y-143557931D03*
X179340800Y-146060831D03*
D15*
X167050800Y-76899600D03*
X178536537Y-119698458D03*
X178539210Y-104716818D03*
X178549856Y-99113221D03*
D16*
%TO.C,NT1*%
X142719714Y-86760476D03*
%TO.C,U7*%
X143394000Y-155415000D03*
X143394000Y-157625000D03*
%TO.C,NT1*%
X143919714Y-86760476D03*
%TO.C,U8*%
X144674000Y-162685000D03*
X144674000Y-165075000D03*
X145794000Y-162685000D03*
X145794000Y-165075000D03*
%TO.C,U6*%
X147544000Y-159745000D03*
X147544000Y-161955000D03*
%TO.C,U5*%
X147844000Y-155975000D03*
X147844000Y-158365000D03*
X148964000Y-155975000D03*
X148964000Y-158365000D03*
%TO.C,U23*%
X157649000Y-104210000D03*
%TO.C,U13*%
X159009000Y-89220000D03*
%TO.C,U23*%
X159859000Y-104210000D03*
%TO.C,U13*%
X161219000Y-89220000D03*
%TO.C,U30*%
X164994000Y-109605000D03*
X164994000Y-111815000D03*
%TO.C,U32*%
X172294000Y-98645000D03*
X172294000Y-100855000D03*
%TO.C,U28*%
X173844000Y-112495000D03*
X173844000Y-114705000D03*
%TO.C,U19*%
X175079000Y-130780000D03*
X177289000Y-130780000D03*
%TD*%
D17*
X106030800Y-161310000D03*
X107819800Y-161270000D03*
X168770800Y-82480000D03*
X171124000Y-95380000D03*
X177360800Y-89955000D03*
X177514000Y-95380000D03*
D18*
%TO.C,H2*%
X91990800Y-81820000D03*
%TO.C,H3*%
X91990800Y-160822944D03*
%TO.C,H2*%
X92693744Y-80122944D03*
X92693744Y-83517056D03*
%TO.C,H3*%
X92693744Y-159125888D03*
X92693744Y-162520000D03*
%TO.C,H2*%
X94390800Y-79420000D03*
X94390800Y-84220000D03*
%TO.C,H3*%
X94390800Y-158422944D03*
X94390800Y-163222944D03*
%TO.C,H2*%
X96087856Y-80122944D03*
X96087856Y-83517056D03*
%TO.C,H3*%
X96087856Y-159125888D03*
X96087856Y-162520000D03*
%TO.C,H2*%
X96790800Y-81820000D03*
%TO.C,H3*%
X96790800Y-160822944D03*
%TO.C,H1*%
X170990800Y-81820000D03*
%TO.C,H4*%
X170990800Y-160820000D03*
%TO.C,H1*%
X171693744Y-80122944D03*
X171693744Y-83517056D03*
%TO.C,H4*%
X171693744Y-159122944D03*
X171693744Y-162517056D03*
%TO.C,H1*%
X173390800Y-79420000D03*
X173390800Y-84220000D03*
%TO.C,H4*%
X173390800Y-158420000D03*
X173390800Y-163220000D03*
%TO.C,H1*%
X175087856Y-80122944D03*
X175087856Y-83517056D03*
%TO.C,H4*%
X175087856Y-159122944D03*
X175087856Y-162517056D03*
%TO.C,H1*%
X175790800Y-81820000D03*
%TO.C,H4*%
X175790800Y-160820000D03*
D19*
%TO.C,J12*%
X94549000Y-94745000D02*
X94149000Y-94745000D01*
X94549000Y-99585000D02*
X94149000Y-99585000D01*
%TD*%
D20*
X100175825Y-155607426D03*
X100184454Y-157462719D03*
D21*
%TO.C,J12*%
X91599000Y-94435000D02*
X91099000Y-94435000D01*
X91599000Y-99895000D02*
X91099000Y-99895000D01*
D22*
%TO.C,TP7*%
X123404000Y-82300000D03*
%TO.C,TP5*%
X123464000Y-84890000D03*
%TO.C,TP6*%
X123544000Y-87430000D03*
%TO.C,J6*%
X175701500Y-106505000D03*
X175701500Y-107775000D03*
X176971500Y-106505000D03*
X176971500Y-107775000D03*
%TO.C,J3*%
X177039000Y-134715000D03*
X177039000Y-135985000D03*
X177039000Y-137255000D03*
X177039000Y-138525000D03*
X177039000Y-139795000D03*
X177039000Y-141065000D03*
D23*
%TO.C,FPGA_Prgm1*%
X94870800Y-124830000D03*
X94870800Y-127370000D03*
%TO.C,Power_Input1*%
X105557400Y-163894600D03*
X108097400Y-163894600D03*
%TO.C,RX2_Direct1*%
X131394000Y-159410000D03*
%TO.C,RX1_Direct1*%
X131424000Y-164130000D03*
%TO.C,RX2_Direct1*%
X133934000Y-159410000D03*
%TO.C,RX1_Direct1*%
X133964000Y-164130000D03*
%TO.C,CGrounds1*%
X143174000Y-84850000D03*
X145714000Y-84850000D03*
%TO.C,TX2A_Direct1*%
X160724000Y-108320000D03*
%TO.C,Jx1*%
X160744000Y-78170000D03*
%TO.C,AmpPwr2*%
X163024000Y-83790000D03*
X163024000Y-86330000D03*
%TO.C,TX2A_Direct1*%
X163264000Y-108320000D03*
%TO.C,Jx1*%
X163284000Y-78170000D03*
%TO.C,AmpPwr1*%
X167364000Y-83620000D03*
X167364000Y-86160000D03*
%TO.C,TX1A_Direct1*%
X174328854Y-134341097D03*
X174328854Y-136881097D03*
D24*
%TO.C,J1*%
X118064000Y-160640000D03*
X118064000Y-163180000D03*
X119334000Y-161910000D03*
X120604000Y-160640000D03*
X120604000Y-163180000D03*
%TO.C,J14*%
X160889630Y-97168100D03*
X160889630Y-99708100D03*
X162159630Y-98438100D03*
X163429630Y-97168100D03*
X163429630Y-99708100D03*
%TO.C,J10*%
X165964000Y-78500000D03*
X165964000Y-81040000D03*
X167234000Y-79770000D03*
X168504000Y-78500000D03*
X168504000Y-81040000D03*
%TO.C,J5*%
X174234000Y-102170000D03*
X174234000Y-104710000D03*
X175504000Y-103440000D03*
X176774000Y-102170000D03*
X176774000Y-104710000D03*
D25*
%TO.C,J2b1*%
X95701500Y-87875000D03*
X95701500Y-89875000D03*
X95701500Y-91875000D03*
X97701500Y-87875000D03*
X97701500Y-89875000D03*
X97701500Y-91875000D03*
%TO.C,J2*%
X100754000Y-78690000D03*
X100754000Y-80690000D03*
%TO.C,J2a1*%
X101736500Y-83962500D03*
X101736500Y-85962500D03*
X101736500Y-87962500D03*
X101736500Y-89962500D03*
%TO.C,J2*%
X102754000Y-78690000D03*
X102754000Y-80690000D03*
%TO.C,J2a1*%
X103736500Y-83962500D03*
X103736500Y-85962500D03*
X103736500Y-87962500D03*
X103736500Y-89962500D03*
%TO.C,J2*%
X104754000Y-78690000D03*
X104754000Y-80690000D03*
%TO.C,J11*%
X125757200Y-80200000D03*
X125757200Y-82200000D03*
X127757200Y-80200000D03*
X127757200Y-82200000D03*
X129757200Y-80200000D03*
X129757200Y-82200000D03*
X131757200Y-80200000D03*
X131757200Y-82200000D03*
X133757200Y-80200000D03*
X133757200Y-82200000D03*
X135757200Y-80200000D03*
X135757200Y-82200000D03*
X137757200Y-80200000D03*
X137757200Y-82200000D03*
X139757200Y-80200000D03*
X139757200Y-82200000D03*
D26*
%TO.C,J15*%
X136910800Y-97710000D03*
X139450800Y-97710000D03*
X141990800Y-97710000D03*
X144530800Y-97710000D03*
X147070800Y-97710000D03*
X149610800Y-97710000D03*
D27*
%TO.C,H2*%
X94390800Y-81820000D03*
%TO.C,H3*%
X94390800Y-160822944D03*
%TO.C,H1*%
X173390800Y-81820000D03*
%TO.C,H4*%
X173390800Y-160820000D03*
M02*
