%TF.GenerationSoftware,KiCad,Pcbnew,9.0.7*%
%TF.CreationDate,2026-03-25T15:14:48-04:00*%
%TF.ProjectId,AMSAT_SDR,414d5341-545f-4534-9452-2e6b69636164,WA1CYB-revB*%
%TF.SameCoordinates,Original*%
%TF.FileFunction,Drillmap*%
%TF.FilePolarity,Positive*%
%FSLAX45Y45*%
G04 Gerber Fmt 4.5, Leading zero omitted, Abs format (unit mm)*
G04 Created by KiCad (PCBNEW 9.0.7) date 2026-03-25 15:14:48*
%MOMM*%
%LPD*%
G01*
G04 APERTURE LIST*
%ADD10C,0.050000*%
%ADD11C,0.200000*%
G04 APERTURE END LIST*
D10*
X17989080Y-16082000D02*
X17989080Y-8182000D01*
X8789080Y-8182000D02*
G75*
G02*
X9439080Y-7532000I650000J0D01*
G01*
X9439080Y-16732000D02*
X17339080Y-16732000D01*
X17339080Y-7532000D02*
X9439080Y-7532000D01*
X17989080Y-16082000D02*
G75*
G02*
X17339080Y-16732000I-650000J0D01*
G01*
X9439080Y-16732000D02*
G75*
G02*
X8789080Y-16082000I0J650000D01*
G01*
X8789080Y-8182000D02*
X8789080Y-16082000D01*
X17339080Y-7532000D02*
G75*
G02*
X17989080Y-8182000I0J-650000D01*
G01*
D11*
X9047357Y-17045984D02*
X9047357Y-16845984D01*
X9047357Y-16845984D02*
X9094976Y-16845984D01*
X9094976Y-16845984D02*
X9123547Y-16855508D01*
X9123547Y-16855508D02*
X9142595Y-16874555D01*
X9142595Y-16874555D02*
X9152119Y-16893603D01*
X9152119Y-16893603D02*
X9161643Y-16931698D01*
X9161643Y-16931698D02*
X9161643Y-16960270D01*
X9161643Y-16960270D02*
X9152119Y-16998365D01*
X9152119Y-16998365D02*
X9142595Y-17017412D01*
X9142595Y-17017412D02*
X9123547Y-17036460D01*
X9123547Y-17036460D02*
X9094976Y-17045984D01*
X9094976Y-17045984D02*
X9047357Y-17045984D01*
X9247357Y-17045984D02*
X9247357Y-16912650D01*
X9247357Y-16950746D02*
X9256881Y-16931698D01*
X9256881Y-16931698D02*
X9266404Y-16922174D01*
X9266404Y-16922174D02*
X9285452Y-16912650D01*
X9285452Y-16912650D02*
X9304500Y-16912650D01*
X9371166Y-17045984D02*
X9371166Y-16912650D01*
X9371166Y-16845984D02*
X9361643Y-16855508D01*
X9361643Y-16855508D02*
X9371166Y-16865031D01*
X9371166Y-16865031D02*
X9380690Y-16855508D01*
X9380690Y-16855508D02*
X9371166Y-16845984D01*
X9371166Y-16845984D02*
X9371166Y-16865031D01*
X9494976Y-17045984D02*
X9475928Y-17036460D01*
X9475928Y-17036460D02*
X9466404Y-17017412D01*
X9466404Y-17017412D02*
X9466404Y-16845984D01*
X9599738Y-17045984D02*
X9580690Y-17036460D01*
X9580690Y-17036460D02*
X9571166Y-17017412D01*
X9571166Y-17017412D02*
X9571166Y-16845984D01*
X9828309Y-17045984D02*
X9828309Y-16845984D01*
X9828309Y-16845984D02*
X9894976Y-16988841D01*
X9894976Y-16988841D02*
X9961643Y-16845984D01*
X9961643Y-16845984D02*
X9961643Y-17045984D01*
X10142595Y-17045984D02*
X10142595Y-16941222D01*
X10142595Y-16941222D02*
X10133071Y-16922174D01*
X10133071Y-16922174D02*
X10114024Y-16912650D01*
X10114024Y-16912650D02*
X10075928Y-16912650D01*
X10075928Y-16912650D02*
X10056881Y-16922174D01*
X10142595Y-17036460D02*
X10123547Y-17045984D01*
X10123547Y-17045984D02*
X10075928Y-17045984D01*
X10075928Y-17045984D02*
X10056881Y-17036460D01*
X10056881Y-17036460D02*
X10047357Y-17017412D01*
X10047357Y-17017412D02*
X10047357Y-16998365D01*
X10047357Y-16998365D02*
X10056881Y-16979317D01*
X10056881Y-16979317D02*
X10075928Y-16969793D01*
X10075928Y-16969793D02*
X10123547Y-16969793D01*
X10123547Y-16969793D02*
X10142595Y-16960270D01*
X10237833Y-16912650D02*
X10237833Y-17112650D01*
X10237833Y-16922174D02*
X10256881Y-16912650D01*
X10256881Y-16912650D02*
X10294976Y-16912650D01*
X10294976Y-16912650D02*
X10314024Y-16922174D01*
X10314024Y-16922174D02*
X10323547Y-16931698D01*
X10323547Y-16931698D02*
X10333071Y-16950746D01*
X10333071Y-16950746D02*
X10333071Y-17007889D01*
X10333071Y-17007889D02*
X10323547Y-17026936D01*
X10323547Y-17026936D02*
X10314024Y-17036460D01*
X10314024Y-17036460D02*
X10294976Y-17045984D01*
X10294976Y-17045984D02*
X10256881Y-17045984D01*
X10256881Y-17045984D02*
X10237833Y-17036460D01*
X10418785Y-17026936D02*
X10428309Y-17036460D01*
X10428309Y-17036460D02*
X10418785Y-17045984D01*
X10418785Y-17045984D02*
X10409262Y-17036460D01*
X10409262Y-17036460D02*
X10418785Y-17026936D01*
X10418785Y-17026936D02*
X10418785Y-17045984D01*
X10418785Y-16922174D02*
X10428309Y-16931698D01*
X10428309Y-16931698D02*
X10418785Y-16941222D01*
X10418785Y-16941222D02*
X10409262Y-16931698D01*
X10409262Y-16931698D02*
X10418785Y-16922174D01*
X10418785Y-16922174D02*
X10418785Y-16941222D01*
M02*
